<svg width="40" height="40" viewBox="0 0 40 40" fill="none" xmlns="http://www.w3.org/2000/svg">
<g clip-path="url(#clip0_81523_14311)">
<mask id="mask0_81523_14311" style="mask-type:luminance" maskUnits="userSpaceOnUse" x="0" y="0" width="40" height="40">
<path d="M40 0H0V40H40V0Z" fill="white"/>
</mask>
<g mask="url(#mask0_81523_14311)">
<path d="M30.7596 30.036H28.5119C28.0811 30.036 27.7306 29.6855 27.7306 29.2548V27.9861C27.4394 27.8905 27.1553 27.7729 26.8813 27.6343L25.984 28.5313C25.8364 28.6788 25.6403 28.7601 25.4317 28.7601C25.223 28.7601 25.0267 28.6787 24.8792 28.5311L23.2899 26.9419C23.1424 26.7944 23.0611 26.5983 23.0611 26.3895C23.0611 26.1808 23.1424 25.9847 23.2899 25.8372L24.1869 24.9398C24.0483 24.6658 23.9306 24.3818 23.8351 24.0906H22.5664C22.1356 24.0906 21.7852 23.7401 21.7852 23.3094V21.0617C21.7852 20.6309 22.1356 20.2805 22.5664 20.2805H23.8351C23.9306 19.9892 24.0483 19.7051 24.1869 19.4312L23.2899 18.5338C22.9854 18.2294 22.9854 17.7337 23.2899 17.429L24.8792 15.8398C25.1838 15.5351 25.6795 15.5352 25.984 15.8396L26.8813 16.7367C27.1553 16.598 27.4394 16.4804 27.7306 16.3848V15.1162C27.7306 14.6855 28.0811 14.335 28.5119 14.335H30.7596C31.1903 14.335 31.5408 14.6855 31.5408 15.1162V16.3848C31.8321 16.4804 32.116 16.598 32.3901 16.7367L33.2874 15.8396C33.5921 15.5351 34.0878 15.5352 34.3922 15.8398L35.9815 17.429C36.286 17.7337 36.286 18.2293 35.9815 18.5338L35.0845 19.4312C35.2231 19.7051 35.3408 19.9892 35.4363 20.2805H36.7049C37.1357 20.2805 37.4862 20.6309 37.4862 21.0617V23.3094C37.4862 23.7401 37.1357 24.0906 36.7049 24.0906H35.4363C35.3407 24.3819 35.2231 24.6658 35.0845 24.9398L35.9815 25.8372C36.129 25.9848 36.2103 26.1808 36.2103 26.3895C36.2103 26.5983 36.129 26.7944 35.9814 26.9419L34.3921 28.5312C34.2446 28.6787 34.0485 28.7601 33.8398 28.7601C33.6311 28.7601 33.4349 28.6789 33.2874 28.5313L32.39 27.6343C32.1161 27.7729 31.8321 27.8905 31.5407 27.9861V29.2548C31.5408 29.6855 31.1903 30.036 30.7596 30.036ZM26.8106 26.7623C26.8767 26.7623 26.9433 26.779 27.0038 26.8134C27.3883 27.0325 27.7989 27.2025 28.2243 27.319C28.3941 27.3654 28.5119 27.5197 28.5119 27.6957V29.2548H30.7596V27.6957C30.7596 27.5197 30.8773 27.3653 31.0471 27.3189C31.4726 27.2026 31.8832 27.0325 32.2676 26.8134C32.4206 26.7265 32.6128 26.7522 32.7371 26.8766L33.8398 27.9788L35.4291 26.3895L34.3268 25.2869C34.2024 25.1624 34.1766 24.9701 34.2637 24.8173C34.4827 24.4329 34.6528 24.0223 34.7692 23.5968C34.8157 23.427 34.97 23.3093 35.146 23.3093H36.7051V21.0616H35.146C34.97 21.0616 34.8157 20.9439 34.7692 20.774C34.6528 20.3487 34.4828 19.938 34.2637 19.5534C34.1767 19.4005 34.2024 19.2083 34.3269 19.0839L35.4292 17.9813L33.8399 16.392L32.7373 17.4943C32.6128 17.6187 32.4205 17.6444 32.2678 17.5575C31.8832 17.3383 31.4725 17.1683 31.0473 17.0519C30.8775 17.0055 30.7597 16.8512 30.7597 16.6751V15.1162H28.5121V16.6751C28.5121 16.8512 28.3943 17.0055 28.2245 17.0519C27.7992 17.1683 27.3885 17.3383 27.004 17.5575C26.8511 17.6445 26.6588 17.6187 26.5345 17.4943L25.4319 16.392L23.8426 17.9813L24.9448 19.0839C25.0692 19.2083 25.095 19.4005 25.008 19.5534C24.7889 19.938 24.6188 20.3487 24.5024 20.774C24.456 20.9439 24.3017 21.0616 24.1256 21.0616H22.5666V23.3093H24.1256C24.3017 23.3093 24.456 23.427 24.5024 23.5968C24.6188 24.0222 24.789 24.4329 25.008 24.8173C25.095 24.9701 25.0692 25.1624 24.9448 25.2869L23.8426 26.3895L25.4319 27.9788L26.5345 26.8766C26.6096 26.8015 26.7095 26.7623 26.8106 26.7623ZM29.6357 25.5058C27.8049 25.5058 26.3154 24.0164 26.3154 22.1855C26.3154 20.3547 27.8049 18.8652 29.6357 18.8652C31.4666 18.8652 32.956 20.3547 32.956 22.1855C32.956 22.5215 32.9059 22.8533 32.8071 23.1716C32.7431 23.3776 32.5242 23.493 32.3181 23.4287C32.1121 23.3648 31.997 23.1458 32.061 22.9398C32.1364 22.6967 32.1748 22.4429 32.1748 22.1855C32.1748 20.7855 31.0358 19.6465 29.6357 19.6465C28.2357 19.6465 27.0967 20.7855 27.0967 22.1855C27.0967 23.5856 28.2357 24.7246 29.6357 24.7246C29.9145 24.7246 30.19 24.6789 30.4545 24.5889C30.6585 24.5191 30.8806 24.6284 30.9502 24.8326C31.0198 25.0369 30.9106 25.2588 30.7063 25.3284C30.3606 25.4461 30.0004 25.5058 29.6357 25.5058Z" fill="#8C8C8C"/>
<path d="M22.8766 31.5652V30.0026C22.8766 29.7869 22.7018 29.612 22.486 29.612H21.3679C21.2698 29.2536 21.1277 28.9136 20.9478 28.5976L21.7383 27.8069C21.8908 27.6543 21.8908 27.407 21.7383 27.2545L20.6333 26.1496C20.4808 25.9971 20.2334 25.997 20.0809 26.1495L19.2901 26.9401C18.9743 26.7601 18.6342 26.618 18.2758 26.52V25.4019C18.2758 25.1862 18.1008 25.0112 17.8851 25.0112H16.3225C16.1068 25.0112 15.9319 25.1862 15.9319 25.4019V26.52C15.5734 26.618 15.2334 26.7601 14.9175 26.9401L14.1267 26.1495C13.9741 25.997 13.7269 25.997 13.5744 26.1496L12.4694 27.2545C12.3169 27.407 12.3169 27.6544 12.4694 27.8069L13.2599 28.5976C13.08 28.9135 12.9379 29.2536 12.8398 29.612H11.7217C11.5059 29.612 11.3311 29.7869 11.3311 30.0026V31.5653C11.3311 31.781 11.5059 31.9559 11.7217 31.9559H12.8398C12.9379 32.3144 13.08 32.6544 13.2599 32.9703L12.4694 33.7611C12.3169 33.9137 12.3169 34.1609 12.4694 34.3134L13.5744 35.4183C13.7269 35.5708 13.9742 35.5709 14.1267 35.4184L14.9175 34.6279C15.2333 34.8078 15.5734 34.9499 15.9319 35.048V36.1661C15.9319 36.3818 16.1068 36.5567 16.3225 36.5567H17.8851C18.1008 36.5567 18.2758 36.3818 18.2758 36.1661V35.048C18.6342 34.9499 18.9742 34.8078 19.2901 34.6279L20.0809 35.4184C20.2335 35.5709 20.4808 35.5709 20.6333 35.4183L21.7383 34.3134C21.8908 34.1609 21.8908 33.9136 21.7383 33.7611L20.9478 32.9703C21.1277 32.6544 21.2698 32.3144 21.3679 31.9559H22.486C22.7017 31.9558 22.8766 31.781 22.8766 31.5652ZM17.1038 33.1209C15.8131 33.1209 14.7668 32.0746 14.7668 30.7839C14.7668 29.4932 15.8131 28.4469 17.1038 28.4469C18.3945 28.4469 19.4408 29.4932 19.4408 30.7839C19.4408 32.0746 18.3945 33.1209 17.1038 33.1209Z" fill="#8C8C8C"/>
<path d="M17.8852 36.9475H16.3225C15.8918 36.9475 15.5413 36.597 15.5413 36.1662V35.3364C15.3531 35.2719 15.1689 35.1955 14.99 35.108L14.4029 35.6948C14.0984 35.9994 13.6028 35.9994 13.2982 35.6947L12.1932 34.5897C11.8887 34.2852 11.8886 33.7897 12.193 33.485L12.7799 32.8979C12.6923 32.719 12.6161 32.5348 12.5515 32.3465H11.7217C11.2909 32.3465 10.9404 31.9961 10.9404 31.5653V30.0028C10.9404 29.572 11.2909 29.2215 11.7217 29.2215H12.5515C12.6161 29.0333 12.6923 28.8491 12.7799 28.6701L12.193 28.0831C11.8885 27.7784 11.8886 27.2829 12.1932 26.9783L13.2981 25.8733C13.6026 25.5688 14.0982 25.5687 14.4029 25.8733L14.9899 26.4601C15.1689 26.3725 15.353 26.2962 15.5412 26.2317V25.4019C15.5412 24.9711 15.8917 24.6206 16.3225 24.6206H17.8851C18.3159 24.6206 18.6664 24.9711 18.6664 25.4019V26.2317C18.8545 26.2962 19.0386 26.3725 19.2177 26.4601L19.8047 25.8733C20.1093 25.5687 20.6049 25.5687 20.9095 25.8733L22.0145 26.9783C22.3191 27.2828 22.3191 27.7784 22.0146 28.0831L21.4277 28.6701C21.5153 28.8491 21.5916 29.0333 21.6561 29.2215H22.486C22.9168 29.2215 23.2672 29.572 23.2672 30.0028V31.5654C23.2672 31.9962 22.9168 32.3466 22.486 32.3466H21.6561C21.5915 32.5348 21.5153 32.719 21.4277 32.898L22.0145 33.485C22.3189 33.7897 22.3189 34.2852 22.0144 34.5898L20.9095 35.6948C20.6048 35.9994 20.1093 35.9993 19.8046 35.6949L19.2176 35.1081C19.0387 35.1956 18.8545 35.2719 18.6663 35.3365V36.1663C18.6664 36.5969 18.316 36.9475 17.8852 36.9475ZM14.9177 34.2374C14.9839 34.2374 15.0504 34.2542 15.1109 34.2886C15.402 34.4544 15.7129 34.5832 16.035 34.6714C16.2048 34.7179 16.3225 34.8721 16.3225 35.0481V36.1662H17.8852V35.0481C17.8852 34.8721 18.0029 34.7178 18.1727 34.6714C18.4949 34.5832 18.8058 34.4544 19.0968 34.2886C19.2497 34.2017 19.4419 34.2273 19.5663 34.3518L20.3571 35.1422L21.462 34.0373L20.6715 33.2465C20.5472 33.122 20.5213 32.9297 20.6084 32.7769C20.7742 32.4858 20.903 32.175 20.9911 31.8529C21.0375 31.683 21.1918 31.5653 21.3679 31.5653H22.486V30.0028H21.3679C21.1918 30.0028 21.0375 29.8851 20.9911 29.7152C20.9029 29.3932 20.7742 29.0822 20.6083 28.7911C20.5213 28.6382 20.5472 28.446 20.6715 28.3215L21.4621 27.5308L20.3571 26.4258L19.5662 27.2164C19.4418 27.3408 19.2496 27.3666 19.0968 27.2796C18.8054 27.1137 18.4946 26.9849 18.1727 26.8969C18.0029 26.8505 17.8851 26.6962 17.8851 26.5201V25.4021H16.3225V26.5201C16.3225 26.6962 16.2047 26.8505 16.0349 26.8969C15.713 26.9849 15.4021 27.1137 15.1108 27.2796C14.958 27.3666 14.7657 27.3409 14.6414 27.2164L13.8506 26.4259L12.7456 27.5308L13.5361 28.3215C13.6604 28.446 13.6863 28.6382 13.5993 28.7911C13.4334 29.0822 13.3046 29.3932 13.2165 29.7152C13.17 29.8851 13.0158 30.0028 12.8397 30.0028H11.7216V31.5654H12.8397C13.0157 31.5654 13.17 31.6831 13.2165 31.853C13.3046 32.1751 13.4334 32.486 13.5992 32.777C13.6863 32.9298 13.6604 33.1221 13.5361 33.2465L12.7455 34.0373L13.8505 35.1424L14.6413 34.3519C14.7167 34.2766 14.8166 34.2374 14.9177 34.2374ZM17.1039 33.5117C15.5998 33.5117 14.3762 32.2881 14.3762 30.784C14.3762 29.2801 15.5998 28.0565 17.1039 28.0565C18.6079 28.0565 19.8314 29.2801 19.8314 30.784C19.8315 32.2881 18.6079 33.5117 17.1039 33.5117ZM17.1039 28.8377C16.0307 28.8377 15.1575 29.7108 15.1575 30.784C15.1575 31.8572 16.0306 32.7305 17.1039 32.7305C18.1771 32.7305 19.0502 31.8572 19.0502 30.784C19.0502 29.7108 18.1771 28.8377 17.1039 28.8377Z" fill="#8C8C8C"/>
<path d="M22.8523 15.0506V11.7822C22.8523 11.5665 22.6774 11.3916 22.4617 11.3916H20.2456C20.0761 10.7723 19.8306 10.1848 19.5197 9.63902L21.0865 8.07167C21.239 7.91912 21.239 7.67182 21.0864 7.51932L18.7753 5.20822C18.6228 5.05572 18.3755 5.05567 18.223 5.20817L16.6556 6.77497C16.1099 6.46412 15.5224 6.21862 14.9031 6.04912V3.83301C14.9031 3.6173 14.7281 3.44238 14.5124 3.44238H11.2441C11.0284 3.44238 10.8535 3.6173 10.8535 3.83301V6.04912C10.2342 6.21857 9.64665 6.46402 9.10085 6.77497L7.5336 5.20817C7.381 5.05567 7.13375 5.05567 6.98115 5.20822L4.67016 7.51927C4.51766 7.67177 4.51758 7.91912 4.67008 8.07167L6.23685 9.63902C5.926 10.1848 5.68055 10.7723 5.5111 11.3916H3.29492C3.07922 11.3916 2.9043 11.5665 2.9043 11.7822V15.0506C2.9043 15.2664 3.07922 15.4412 3.29492 15.4412H5.5111C5.68055 16.0605 5.926 16.648 6.23685 17.1938L4.67008 18.7611C4.51758 18.9136 4.51758 19.1609 4.67016 19.3135L6.98125 21.6246C7.13375 21.7771 7.3811 21.7772 7.53365 21.6247L9.10095 20.0579C9.6467 20.3687 10.2342 20.6142 10.8535 20.7836V22.9997C10.8535 23.2155 11.0285 23.3904 11.2442 23.3904H14.5125C14.7282 23.3904 14.9031 23.2155 14.9031 22.9997V20.7836C15.5224 20.6142 16.1099 20.3687 16.6557 20.0579L18.2231 21.6247C18.3756 21.7772 18.6229 21.7771 18.7754 21.6246L21.0865 19.3135C21.239 19.161 21.2391 18.9136 21.0866 18.7611L19.5198 17.1938C19.8306 16.648 20.0761 16.0605 20.2456 15.4412H22.4617C22.6774 15.4412 22.8523 15.2663 22.8523 15.0506ZM12.8783 17.8357C10.4375 17.8357 8.4589 15.8572 8.4589 13.4164C8.4589 10.9756 10.4375 8.99697 12.8783 8.99697C15.3191 8.99697 17.2977 10.9756 17.2977 13.4164C17.2977 15.8572 15.3191 17.8357 12.8783 17.8357Z" fill="#8C8C8C"/>
<path d="M14.5125 23.7809H11.2442C10.8134 23.7809 10.4629 23.4304 10.4629 22.9997V21.0757C10.0179 20.9357 9.58515 20.7564 9.1706 20.5404L7.80985 21.9007C7.50525 22.2053 7.00955 22.2053 6.705 21.9006L4.39391 19.5896C4.08938 19.2852 4.0893 18.7896 4.39383 18.4849L5.75415 17.1242C5.5381 16.7095 5.35885 16.2767 5.21885 15.8318H3.29492C2.86414 15.8318 2.51367 15.4813 2.51367 15.0505V11.7822C2.51367 11.3514 2.86414 11.0009 3.29492 11.0009H5.21875C5.35875 10.5559 5.53805 10.1232 5.75405 9.70857L4.39375 8.34777C4.0893 8.04332 4.0893 7.54767 4.39375 7.24302L6.70485 4.93199C7.00945 4.62754 7.5051 4.62746 7.8097 4.93184L9.17045 6.29217C9.585 6.07612 10.0178 5.89682 10.4628 5.75682V3.83301C10.4628 3.40223 10.8132 3.05176 11.244 3.05176H14.5124C14.9431 3.05176 15.2936 3.40223 15.2936 3.83301V5.75692C15.7386 5.89692 16.1714 6.07622 16.586 6.29217L17.9467 4.93191C18.2513 4.62746 18.747 4.62754 19.0514 4.93207L21.3625 7.24307C21.6671 7.54777 21.6671 8.04332 21.3625 8.34787L20.0023 9.70862C20.2183 10.1232 20.3976 10.556 20.5376 11.001H22.4614C22.8922 11.001 23.2427 11.3514 23.2427 11.7822V15.0506C23.2427 15.4814 22.8922 15.8318 22.4614 15.8318H20.5376C20.3976 16.2768 20.2183 16.7096 20.0023 17.1243L21.3626 18.4849C21.6671 18.7895 21.6671 19.2851 21.3625 19.5897L19.0514 21.9007C18.9039 22.0483 18.7078 22.1297 18.4991 22.1297C18.2904 22.1297 18.0942 22.0485 17.9467 21.9009L16.586 20.5406C16.1714 20.7566 15.7387 20.9359 15.2936 21.0759V22.9998C15.2938 23.4304 14.9433 23.7809 14.5125 23.7809ZM9.101 19.6672C9.1672 19.6672 9.23375 19.6839 9.2943 19.7183C9.8179 20.0166 10.3771 20.2482 10.9566 20.4068C11.1264 20.4532 11.2441 20.6075 11.2441 20.7836V22.9997H14.5124V20.7836C14.5124 20.6075 14.6302 20.4532 14.7999 20.4068C15.3794 20.2482 15.9387 20.0167 16.4622 19.7183C16.6152 19.6314 16.8073 19.6572 16.9317 19.7815L18.499 21.3483L20.8101 19.0372L19.2433 17.47C19.1189 17.3455 19.0931 17.1533 19.1801 17.0004C19.4784 16.4768 19.71 15.9175 19.8685 15.3381C19.915 15.1682 20.0692 15.0505 20.2453 15.0505H22.4614V11.7822H20.2453C20.0693 11.7822 19.915 11.6644 19.8685 11.4946C19.71 10.9152 19.4784 10.3559 19.1801 9.83232C19.093 9.67947 19.1189 9.48722 19.2432 9.36277L20.81 7.79542L18.4989 5.48442L16.9317 7.05122C16.8071 7.17552 16.615 7.20127 16.4621 7.11442C15.9385 6.81612 15.3793 6.58457 14.7999 6.42597C14.6301 6.37957 14.5124 6.22527 14.5124 6.04927V3.83301H11.244V6.04912C11.244 6.22512 11.1263 6.37942 10.9565 6.42582C10.3771 6.58442 9.81775 6.81597 9.2942 7.11427C9.1414 7.20127 8.94915 7.17557 8.8247 7.05107L7.2574 5.48442L4.94641 7.79542L6.5132 9.36277C6.6376 9.48722 6.66345 9.67947 6.57635 9.83232C6.27805 10.3559 6.0464 10.9152 5.8879 11.4946C5.8414 11.6644 5.6872 11.7822 5.5111 11.7822H3.29492V15.0505H5.5111C5.6871 15.0505 5.8414 15.1682 5.8879 15.3381C6.0464 15.9175 6.27805 16.4768 6.57635 17.0004C6.66335 17.1533 6.6376 17.3455 6.5131 17.47L4.94633 19.0372L7.2574 21.3483L8.82475 19.7815C8.9 19.7064 8.9999 19.6672 9.101 19.6672ZM12.8783 18.2264C12.0714 18.2264 11.2728 18.0222 10.5686 17.636C10.3795 17.5322 10.3102 17.2948 10.414 17.1057C10.5178 16.9165 10.7553 16.8472 10.9443 16.9511C11.5337 17.2743 12.2024 17.4451 12.8784 17.4451C15.0999 17.4451 16.9071 15.6378 16.9071 13.4164C16.9071 11.1949 15.0999 9.38767 12.8784 9.38767C10.657 9.38767 8.8497 11.195 8.8497 13.4164C8.8497 14.0428 8.99015 14.6438 9.26725 15.2027C9.36305 15.396 9.28405 15.6304 9.0908 15.7261C8.89735 15.8218 8.6631 15.7429 8.56725 15.5497C8.23625 14.8819 8.06845 14.1642 8.06845 13.4163C8.06845 10.7641 10.2262 8.60637 12.8784 8.60637C15.5306 8.60637 17.6884 10.7641 17.6884 13.4163C17.6883 16.0686 15.5306 18.2264 12.8783 18.2264Z" fill="#8C8C8C"/>
</g>
</g>
<defs>
<clipPath id="clip0_81523_14311">
<rect width="40" height="40" fill="white"/>
</clipPath>
</defs>
</svg>
