<svg width="40" height="40" viewBox="0 0 40 40" fill="none" xmlns="http://www.w3.org/2000/svg">
<g clip-path="url(#clip0_81523_13915)">
<path fill-rule="evenodd" clip-rule="evenodd" d="M20.1282 11.375H20.8833C20.8964 11.2449 20.9249 11.1192 20.9669 11C21.0141 10.8661 21.0783 10.7402 21.1569 10.625H20.2914C20.2436 10.7455 20.2054 10.8708 20.1777 11C20.1516 11.1218 20.1349 11.2471 20.1282 11.375ZM12 10.625H13.375V11.375H12C11.1025 11.375 10.375 12.1025 10.375 13V16.5986C10.375 16.708 10.3282 16.8065 10.2535 16.875C10.1867 16.9362 10.0977 16.9736 10 16.9736C9.90227 16.9736 9.81327 16.9362 9.74653 16.875C9.67183 16.8065 9.625 16.708 9.625 16.5986V13C9.625 11.6883 10.6883 10.625 12 10.625ZM31.6167 11.375H33C34.1736 11.375 35.125 12.3264 35.125 13.5V20.5C35.125 20.7071 35.2929 20.875 35.5 20.875C35.7071 20.875 35.875 20.7071 35.875 20.5V13.5C35.875 11.9122 34.5878 10.625 33 10.625H31.3431C31.4918 10.8428 31.5889 11.0987 31.6167 11.375Z" fill="#BBBBBB"/>
<path d="M35.125 31.5107V26C35.125 25.7929 35.2929 25.625 35.5 25.625C35.7071 25.625 35.875 25.7929 35.875 26V31.5107C35.8749 33.6908 33.8658 35.375 31.5 35.375C31.2929 35.375 31.125 35.2071 31.125 35C31.125 34.7929 31.2929 34.625 31.5 34.625C33.551 34.625 35.1249 33.1837 35.125 31.5107Z" fill="#BBBBBB"/>
<path fill-rule="evenodd" clip-rule="evenodd" d="M28.125 5C28.125 4.10254 27.3975 3.375 26.5 3.375H15C14.1025 3.375 13.375 4.10254 13.375 5V6.51367V10.625V11.375V16.125V16.875H13H12.625V5C12.625 3.68832 13.6883 2.625 15 2.625H26.5C27.8117 2.625 28.875 3.68832 28.875 5V9.91504H28.5H28.125V9.125V6.51367V5ZM28.125 13.165V13.915V14.125V14.5H28.875V14.125V13.915V13.165H28.5H28.125ZM28.125 17.5V17.875H28.875V17.5H28.125ZM26.5 19.7139C26.6708 19.7139 26.8354 19.6875 26.99 19.6387H28.125C28.1776 19.6387 28.2276 19.6495 28.2731 19.669C27.9649 20.0145 27.5573 20.2694 27.0952 20.3887H20.875H20.5H20.125H19.1865C19.0759 20.3886 18.9711 20.3395 18.8999 20.2549L18.7603 20.0889L18.4449 19.7139H26.5Z" fill="#BBBBBB"/>
<path d="M13 5C13 3.89543 13.8954 3 15 3H26.5C27.6046 3 28.5 3.89543 28.5 5V6.13878H13V5Z" fill="#BBBBBB"/>
<path d="M28.125 5C28.125 4.10254 27.3975 3.375 26.5 3.375H15C14.1025 3.375 13.375 4.10254 13.375 5V5.76367H28.125V5ZM28.875 6.51367H28.125H13.375H12.625V5C12.625 3.68832 13.6883 2.625 15 2.625H26.5C27.8117 2.625 28.875 3.68832 28.875 5V6.51367Z" fill="#BBBBBB"/>
<path fill-rule="evenodd" clip-rule="evenodd" d="M20.1777 11H20.9669C21.0141 10.8661 21.0783 10.7402 21.1569 10.625C21.4495 10.1964 21.9419 9.91504 22.5 9.91504H26.625H27V9.125H26.625H22.5C21.4973 9.125 20.6398 9.74635 20.2914 10.625C20.2436 10.7455 20.2054 10.8708 20.1777 11Z" fill="#BBBBBB"/>
<path fill-rule="evenodd" clip-rule="evenodd" d="M20.2914 10.625C20.2436 10.7455 20.2054 10.8708 20.1777 11C20.1516 11.1218 20.1349 11.2471 20.1282 11.375H20.8833C20.8964 11.2449 20.9249 11.1192 20.9669 11C21.0141 10.8661 21.0783 10.7402 21.1569 10.625H20.2914ZM27.375 9.125H27H26.625V9.91504H27H27.375V9.125Z" fill="#BBBBBB"/>
<path fill-rule="evenodd" clip-rule="evenodd" d="M30.1934 9.875C31.0908 9.87503 31.8184 10.6026 31.8184 11.5V13.915V24.5889C31.8184 25.4863 31.0908 26.2138 30.1934 26.2139H28.5H27.75V26.5889V26.9639H30.1934C31.505 26.9638 32.5684 25.9005 32.5684 24.5889V11.5C32.5684 10.1883 31.505 9.12503 30.1934 9.125H28.125H27.375H27H26.625H22.5C21.4973 9.125 20.6398 9.74635 20.2914 10.625C20.2436 10.7455 20.2054 10.8708 20.1777 11C20.1516 11.1218 20.1349 11.2471 20.1282 11.375C20.1272 11.3953 20.1264 11.4167 20.1258 11.4372C20.1253 11.458 20.125 11.479 20.125 11.5V11.54V13.915H20.5H20.875V13.165V11.54V11.5C20.875 11.4694 20.8777 11.4392 20.8804 11.4091C20.8814 11.3977 20.8824 11.3863 20.8833 11.375C20.9472 10.5361 21.6447 9.875 22.5 9.875H30.1934ZM20.875 19.6387H20.5H20.125V20.3887H20.5H20.875V19.6387Z" fill="#BBBBBB"/>
<path fill-rule="evenodd" clip-rule="evenodd" d="M22.5 9.54004C21.3954 9.54004 20.5 10.4355 20.5 11.54V13.54H32V11.54C32 10.4355 31.1046 9.54004 30 9.54004H22.5ZM27.375 9.91504H27H26.625H22.5C21.9419 9.91504 21.4495 10.1964 21.1569 10.625C21.0783 10.7402 21.0141 10.8661 20.9669 11C20.9249 11.1192 20.8964 11.2449 20.8833 11.375C20.8778 11.4293 20.875 11.4843 20.875 11.54V13.165H28.125H28.5H28.875H31.625V11.54C31.625 11.4843 31.6222 11.4293 31.6167 11.375C31.5889 11.0987 31.4918 10.8428 31.3431 10.625C31.0505 10.1964 30.5581 9.91504 30 9.91504H28.875H28.5H28.125H27.375Z" fill="#BBBBBB"/>
<path d="M31.625 11.54C31.625 11.4843 31.6222 11.4293 31.6167 11.375C31.5889 11.0987 31.4918 10.8428 31.3431 10.625C31.0505 10.1964 30.5581 9.91504 30 9.91504H28.875H28.5H28.125H27.375H27H26.625H22.5C21.9419 9.91504 21.4495 10.1964 21.1569 10.625C21.0783 10.7402 21.0141 10.8661 20.9669 11C20.9249 11.1192 20.8964 11.2449 20.8833 11.375C20.8778 11.4293 20.875 11.4843 20.875 11.54V13.165H28.125H28.5H28.875H31.625V11.54ZM32.375 13.915H31.8184H28.875H28.125H20.875H20.5H20.125V11.54C20.125 11.5267 20.1248 11.5133 20.125 11.5C20.125 11.479 20.1253 11.458 20.1258 11.4372C20.1264 11.4167 20.1272 11.3953 20.1282 11.375C20.2129 10.1402 21.2437 9.16504 22.5 9.16504H30C31.3117 9.16504 32.375 10.2284 32.375 11.54V13.915Z" fill="#BBBBBB"/>
<path fill-rule="evenodd" clip-rule="evenodd" d="M30 17.875C30.4832 17.875 30.875 17.4832 30.875 17V15C30.875 14.5168 30.4832 14.125 30 14.125H28.875H28.125H22.5C22.0168 14.125 21.625 14.5168 21.625 15V17C21.625 17.4832 22.0168 17.875 22.5 17.875H28.125H28.875H30ZM22.5 14.5H28.125H28.875H30C30.2761 14.5 30.5 14.7239 30.5 15V17C30.5 17.2761 30.2761 17.5 30 17.5H28.875H28.125H22.5C22.2239 17.5 22 17.2761 22 17V15C22 14.7239 22.2239 14.5 22.5 14.5Z" fill="#BBBBBB"/>
<path fill-rule="evenodd" clip-rule="evenodd" d="M12.25 31.5C12.25 32.324 11.9842 33.086 11.5337 33.7048C11.1449 33.402 10.6723 33.1596 10.1446 32.9947C10.2129 32.5292 10.25 32.025 10.25 31.5C10.25 30.9751 10.2129 30.4708 10.1446 30.0053C10.6723 29.8405 11.1449 29.598 11.5337 29.2952C11.9842 29.914 12.25 30.676 12.25 31.5ZM11.2129 28.9111C10.7378 28.4133 10.127 28.0461 9.43984 27.8687C9.57488 28.0705 9.6934 28.3133 9.79492 28.584C9.89807 28.8591 9.98626 29.17 10.0568 29.5084C10.4998 29.363 10.8921 29.1582 11.2129 28.9111ZM5.78711 28.911C6.26228 28.4133 6.87306 28.0461 7.56016 27.8687C7.42512 28.0705 7.3066 28.3133 7.20508 28.584C7.10194 28.8591 7.01376 29.17 6.94325 29.5083C6.50039 29.3629 6.10817 29.1581 5.78711 28.911ZM8.5 29.75C8.12526 29.75 7.76511 29.7108 7.4269 29.6386C7.49356 29.3123 7.57694 29.0163 7.67334 28.7593C7.80291 28.4138 7.95109 28.1514 8.10303 27.98C8.25522 27.8083 8.39008 27.75 8.5 27.75C8.60992 27.75 8.74478 27.8083 8.89697 27.98C9.04891 28.1514 9.19709 28.4138 9.32666 28.7593C9.42306 29.0163 9.50644 29.3123 9.57311 29.6386C9.23487 29.7108 8.87469 29.75 8.5 29.75ZM7.3424 30.1317C7.28292 30.5553 7.25 31.0163 7.25 31.5C7.25 31.9837 7.28292 32.4448 7.3424 32.8683C7.71074 32.7911 8.09935 32.75 8.5 32.75C8.90059 32.75 9.28922 32.7911 9.65761 32.8682C9.71708 32.4447 9.75 31.9837 9.75 31.5C9.75 31.0163 9.71708 30.5553 9.6576 30.1318C9.28922 30.2089 8.90059 30.25 8.5 30.25C8.09935 30.25 7.71074 30.2089 7.3424 30.1317ZM5.35768 33.8337C5.37051 33.8486 5.38351 33.8632 5.39665 33.8777L5.35768 33.8337ZM5.39665 33.8777C5.40932 33.8918 5.42213 33.9056 5.43507 33.9194L5.39665 33.8777ZM4.5 16.5V26.3758C4.62245 26.28 4.74754 26.1891 4.875 26.1033V16.875H9.74653C9.81327 16.9362 9.90227 16.9736 10 16.9736C10.0977 16.9736 10.1867 16.9362 10.2535 16.875H12.625H13H13.375H16.0571L18.4449 19.7139L18.7603 20.0889L18.8999 20.2549C18.9711 20.3395 19.0759 20.3886 19.1865 20.3887H20.125H20.5H20.875H27.0952H27.75V26.2139V26.5889V26.9639V31.4868C27.7501 32.7698 28.3529 33.9151 29.2866 34.625H14.2013C14.1317 34.7519 14.0575 34.877 13.9787 35H31.5C29.6361 35 28.125 33.4271 28.125 31.4866V20.0136H19.1868L16.2316 16.5H4.5Z" fill="#BBBBBB"/>
<path fill-rule="evenodd" clip-rule="evenodd" d="M19.1865 20.3887H20.125H20.5H20.875H27.0952H27.75V26.2139V26.5889V26.9639V31.4868C27.7501 32.7698 28.3529 33.9151 29.2866 34.625H14.2013C14.1317 34.7519 14.0575 34.877 13.9787 35C13.8972 35.1273 13.8109 35.2524 13.7196 35.375H31.5C31.7071 35.375 31.875 35.2071 31.875 35C31.875 34.7929 31.7071 34.625 31.5 34.625C29.8573 34.625 28.5001 33.2344 28.5 31.4868V26.2139V20.0137C28.5 19.8592 28.4065 19.7265 28.2731 19.669C28.2276 19.6495 28.1776 19.6387 28.125 19.6387H26.99H20.875H20.5H20.125H19.3613L16.5186 16.2588C16.4473 16.1741 16.3421 16.125 16.2314 16.125H13.375H4.5C4.29289 16.125 4.125 16.2929 4.125 16.5V26.6927C4.2469 26.5816 4.37201 26.476 4.5 26.3758C4.62245 26.28 4.74754 26.1891 4.875 26.1033V16.875H9.74653H10.2535H12.625H13H13.375H16.0571L18.4449 19.7139L18.7603 20.0889L18.8999 20.2549C18.9711 20.3395 19.0759 20.3886 19.1865 20.3887Z" fill="#BBBBBB"/>
<path fill-rule="evenodd" clip-rule="evenodd" d="M12.25 31.5C12.25 32.324 11.9842 33.086 11.5337 33.7048C11.1449 33.402 10.6723 33.1596 10.1446 32.9947C10.2129 32.5292 10.25 32.025 10.25 31.5C10.25 30.9751 10.2129 30.4708 10.1446 30.0053C10.6723 29.8405 11.1449 29.598 11.5337 29.2952C11.9842 29.914 12.25 30.676 12.25 31.5ZM11.2129 28.9111C10.7378 28.4133 10.127 28.0461 9.43984 27.8687C9.57488 28.0705 9.6934 28.3133 9.79492 28.584C9.89807 28.8591 9.98626 29.17 10.0568 29.5084C10.4998 29.363 10.8921 29.1582 11.2129 28.9111ZM7.56016 27.8687C6.87306 28.0461 6.26228 28.4133 5.78711 28.911C6.10817 29.1581 6.50039 29.3629 6.94325 29.5083C7.01376 29.17 7.10194 28.8591 7.20508 28.584C7.3066 28.3133 7.42512 28.0705 7.56016 27.8687ZM7.4269 29.6386C7.76511 29.7108 8.12526 29.75 8.5 29.75C8.87469 29.75 9.23487 29.7108 9.57311 29.6386C9.50644 29.3123 9.42306 29.0163 9.32666 28.7593C9.19709 28.4138 9.04891 28.1514 8.89697 27.98C8.74478 27.8083 8.60992 27.75 8.5 27.75C8.39008 27.75 8.25522 27.8083 8.10303 27.98C7.95109 28.1514 7.80291 28.4138 7.67334 28.7593C7.57694 29.0163 7.49356 29.3123 7.4269 29.6386ZM7.3424 30.1317C7.28292 30.5553 7.25 31.0163 7.25 31.5C7.25 31.9837 7.28292 32.4448 7.3424 32.8683C7.71074 32.7911 8.09935 32.75 8.5 32.75C8.90059 32.75 9.28922 32.7911 9.65761 32.8682C9.71708 32.4447 9.75 31.9837 9.75 31.5C9.75 31.0163 9.71708 30.5553 9.6576 30.1318C9.28922 30.2089 8.90059 30.25 8.5 30.25C8.09935 30.25 7.71074 30.2089 7.3424 30.1317Z" fill="#BBBBBB"/>
<path d="M13.9787 35C14.0575 34.877 14.1317 34.7519 14.2013 34.625C15.5558 32.1567 15.1875 28.995 13.0963 26.9037C10.8609 24.6684 7.40239 24.4016 4.875 26.1033C4.74754 26.1891 4.62245 26.28 4.5 26.3758C4.37201 26.476 4.2469 26.5816 4.125 26.6927C4.05006 26.7611 3.97632 26.8314 3.90388 26.9039C1.36541 29.4423 1.36537 33.5578 3.90379 36.0963C6.44217 38.6346 10.5577 38.6346 13.0961 36.0961C13.3245 35.8677 13.5323 35.6266 13.7196 35.375C13.8109 35.2524 13.8972 35.1273 13.9787 35ZM8.5 35.75C7.28024 35.75 6.18048 35.2361 5.40541 34.4131C4.68901 33.6523 4.25 32.6274 4.25 31.5C4.25 30.9947 4.33818 30.51 4.5 30.0605C4.5987 29.7862 4.7248 29.5251 4.875 29.2803C5.62237 28.0624 6.96632 27.25 8.5 27.25C10.8472 27.25 12.75 29.1528 12.75 31.5C12.75 32.7358 12.2225 33.8484 11.3804 34.625C11.2334 34.7606 11.0767 34.886 10.9116 35C10.7031 35.1439 10.4812 35.2697 10.2481 35.375C9.71488 35.6159 9.1231 35.75 8.5 35.75Z" fill="#BBBBBB"/>
<path fill-rule="evenodd" clip-rule="evenodd" d="M7.46293 34.9741C7.39025 34.8473 7.32304 34.7081 7.26138 34.559C7.24207 34.5123 7.2233 34.4646 7.20508 34.416C7.10194 34.1409 7.01376 33.83 6.94325 33.4917C6.59453 33.6062 6.27721 33.7575 6.00131 33.9373C5.92683 33.9858 5.85536 34.0364 5.78711 34.089C5.75443 34.1141 5.72248 34.1397 5.69129 34.1657C5.97259 34.4144 6.29357 34.616 6.64294 34.7586C6.92744 34.9211 7.23527 35.0474 7.56016 35.1313C7.52673 35.0813 7.49432 35.0289 7.46293 34.9741Z" fill="#BBBBBB"/>
<path fill-rule="evenodd" clip-rule="evenodd" d="M6.75 31.5C6.75 30.975 6.78707 30.4708 6.85544 30.0052C6.32787 29.8403 5.85532 29.5979 5.46636 29.2951C5.19797 29.6638 4.99514 30.0832 4.875 30.5363C4.79345 30.8438 4.75 31.1668 4.75 31.5C4.75 32.3241 5.01581 33.086 5.46636 33.7049C5.52208 33.6615 5.57951 33.6194 5.63857 33.5785C5.99183 33.3343 6.40344 33.1361 6.85545 32.9948C6.78707 32.5292 6.75 32.025 6.75 31.5Z" fill="#BBBBBB"/>
<path fill-rule="evenodd" clip-rule="evenodd" d="M9.15802 34.625C9.2167 34.5114 9.27326 34.3831 9.32666 34.2407C9.42306 33.9837 9.50644 33.6877 9.57311 33.3614C9.23487 33.2892 8.87469 33.25 8.5 33.25C8.12526 33.25 7.76511 33.2892 7.4269 33.3614C7.49356 33.6877 7.57694 33.9837 7.67334 34.2407C7.72671 34.383 7.78324 34.5112 7.84188 34.6248C7.92018 34.7764 8.00226 34.9019 8.08565 35C8.09143 35.0068 8.09723 35.0135 8.10303 35.02C8.25522 35.1917 8.39007 35.25 8.5 35.25C8.60993 35.25 8.74478 35.1917 8.89697 35.02C8.90277 35.0135 8.90857 35.0068 8.91435 35C8.99771 34.902 9.07975 34.7765 9.15802 34.625Z" fill="#BBBBBB"/>
<path fill-rule="evenodd" clip-rule="evenodd" d="M10.5736 34.625C10.8063 34.4703 11.0207 34.2903 11.2129 34.0889C10.8921 33.8418 10.4998 33.637 10.0568 33.4916C9.98625 33.83 9.89807 34.1409 9.79492 34.416C9.76803 34.4877 9.73995 34.5575 9.71069 34.625C9.65247 34.7594 9.58957 34.885 9.52205 35C9.49537 35.0454 9.46796 35.0892 9.43984 35.1312C9.57958 35.0952 9.71616 35.0513 9.84909 35C10.1054 34.9011 10.3481 34.775 10.5736 34.625Z" fill="#BBBBBB"/>
<path fill-rule="evenodd" clip-rule="evenodd" d="M28.125 14.125V13.915H20.875H20.5H20.125V19.6387H20.5H20.875H26.99H28.125C28.1776 19.6387 28.2276 19.6495 28.2731 19.669C28.4065 19.7265 28.5 19.8592 28.5 20.0137V26.2139H30.1934C31.0908 26.2138 31.8184 25.4863 31.8184 24.5889V13.915H28.875V14.125H30C30.4832 14.125 30.875 14.5168 30.875 15V17C30.875 17.4832 30.4832 17.875 30 17.875H28.875H28.125H22.5C22.0168 17.875 21.625 17.4832 21.625 17V15C21.625 14.5168 22.0168 14.125 22.5 14.125H28.125Z" fill="#BBBBBB"/>
<path fill-rule="evenodd" clip-rule="evenodd" d="M14.6339 10.625C14.628 10.5842 14.625 10.5424 14.625 10.5V8.5C14.625 8.01675 15.0168 7.625 15.5 7.625H26.5C26.9832 7.625 27.375 8.01675 27.375 8.5V9.125H27H26.625H22.5C21.4973 9.125 20.6398 9.74635 20.2914 10.625C20.2436 10.7455 20.2054 10.8708 20.1777 11C20.1516 11.1218 20.1349 11.2471 20.1282 11.375H15.5C15.0592 11.375 14.6945 11.049 14.6339 10.625Z" fill="#BBBBBB"/>
</g>
<defs>
<clipPath id="clip0_81523_13915">
<rect width="40" height="40" fill="white"/>
</clipPath>
</defs>
</svg>
