<svg width="40" height="40" viewBox="0 0 40 40" fill="none" xmlns="http://www.w3.org/2000/svg">
<g clip-path="url(#clip0_81523_14036)">
<mask id="mask0_81523_14036" style="mask-type:luminance" maskUnits="userSpaceOnUse" x="0" y="0" width="40" height="40">
<path d="M40 0H0V40H40V0Z" fill="white"/>
</mask>
<g mask="url(#mask0_81523_14036)">
<path fill-rule="evenodd" clip-rule="evenodd" d="M24.9748 29.0872C24.9748 30.3768 23.9293 31.4223 22.6397 31.4223C21.35 31.4223 20.3045 30.3768 20.3045 29.0872C20.3045 27.7975 21.35 26.752 22.6397 26.752C23.9293 26.752 24.9748 27.7975 24.9748 29.0872ZM22.6397 30.5323C23.4378 30.5323 24.0848 29.8853 24.0848 29.0872C24.0848 28.289 23.4378 27.642 22.6397 27.642C21.8415 27.642 21.1945 28.289 21.1945 29.0872C21.1945 29.8853 21.8415 30.5323 22.6397 30.5323Z" fill="#8C8C8C"/>
<path fill-rule="evenodd" clip-rule="evenodd" d="M32.4919 17.3404C32.4919 18.63 31.4465 19.6755 30.1568 19.6755C28.8671 19.6755 27.8216 18.63 27.8216 17.3404C27.8216 16.0507 28.8671 15.0052 30.1568 15.0052C31.4465 15.0052 32.4919 16.0507 32.4919 17.3404ZM30.1568 18.7855C30.9549 18.7855 31.6019 18.1385 31.6019 17.3404C31.6019 16.5422 30.9549 15.8952 30.1568 15.8952C29.3586 15.8952 28.7116 16.5422 28.7116 17.3404C28.7116 18.1385 29.3586 18.7855 30.1568 18.7855Z" fill="#8C8C8C"/>
<path d="M25.3655 29.0872C25.3655 27.5842 24.1426 26.3614 22.6397 26.3614C21.1367 26.3614 19.9139 27.5841 19.9139 29.0872C19.9139 30.5902 21.1366 31.813 22.6397 31.813C24.1427 31.813 25.3655 30.5901 25.3655 29.0872ZM20.6952 29.0872C20.6952 28.015 21.5676 27.1426 22.6397 27.1426C23.712 27.1426 24.5843 28.015 24.5843 29.0872C24.5843 30.1594 23.7119 31.0317 22.6397 31.0317C21.5675 31.0317 20.6952 30.1594 20.6952 29.0872Z" fill="#8C8C8C"/>
<path d="M25.6178 33.6036C26.2519 33.6036 27.4577 32.9583 27.4577 31.6264C27.4577 30.6479 27.4576 28.8907 27.4576 21.8633H32.3769L32.9909 21.8631C34.0847 21.8631 34.9745 20.9733 34.9745 19.8795C34.9745 19.6638 34.7996 19.4889 34.5839 19.4889C34.3682 19.4889 34.1933 19.6638 34.1933 19.8795C34.1933 20.5425 33.6539 21.0819 32.9909 21.0819H27.4576V20.1202C27.4576 19.6684 27.3055 19.2516 27.0501 18.9178H27.9358C28.4303 19.6121 29.2412 20.0663 30.1567 20.0663C31.6597 20.0663 32.8825 18.8434 32.8825 17.3405C32.8825 15.8375 31.6597 14.6147 30.1567 14.6147C28.6537 14.6147 27.4309 15.8375 27.4309 17.3405C27.4309 17.6174 27.4727 17.8846 27.5498 18.1366H13.3246V9.0854L22.9267 15.1998C23.1722 15.3563 23.4538 15.4346 23.7356 15.4346C24.0162 15.4346 24.2968 15.357 24.5419 15.2017L34.1934 9.08325V17.5365C34.1934 17.7522 34.3683 17.9271 34.584 17.9271C34.7997 17.9271 34.9747 17.7522 34.9747 17.5365V8.37325C34.9747 7.2795 34.0848 6.38965 32.9911 6.38965C32.9911 6.38965 21.8004 6.39 14.5269 6.38965C14.5269 6.38965 14.0882 6.39049 13.8348 6.48904C13.6144 6.57475 13.3986 6.69781 13.296 6.79251C13.1934 6.88722 13.0149 7.05602 12.9506 7.17095C12.8863 7.28587 12.5433 7.76224 12.5433 8.37325L12.5479 8.27821C12.5479 8.28096 12.5432 8.3837 12.5433 8.38645L12.5433 18.1359C12.5433 18.1359 7.19715 18.1366 6.71636 18.1366C6.23557 18.1366 5.02637 18.7396 5.02637 20.12V31.6264C5.02637 32.7202 5.91622 33.61 7.00997 33.61H9.61897C9.83467 33.61 10.0096 33.4351 10.0096 33.2194C10.0096 33.0037 9.83467 32.8288 9.61897 32.8288H7.00997C6.34702 32.8288 5.80762 32.2894 5.80762 31.6264V20.83L15.459 26.9484C15.7041 27.1038 15.9847 27.1813 16.2653 27.1813C16.5469 27.1813 16.8285 27.1031 17.0739 26.9466L26.6765 20.832V21.4702V30.2715V31.6264C26.6765 32.2406 26.2132 32.748 25.6178 32.8193L11.9621 32.8288C11.7464 32.8288 11.5715 33.0037 11.5715 33.2194C11.5715 33.4351 11.7464 33.61 11.9621 33.61L25.6178 33.6036ZM28.2122 17.3403C28.2122 16.2681 29.0846 15.3958 30.1568 15.3958C31.229 15.3958 32.1013 16.2681 32.1013 17.3403C32.1013 18.4125 31.229 19.2849 30.1568 19.2849C29.7333 19.2849 29.3413 19.1484 29.0216 18.9177L29.5006 19C29.7163 19 29.0216 18.7157 29.0216 18.5C29.0216 18.2843 28.8531 18.1366 28.6374 18.1366L28.3833 18.1364C28.2737 17.8933 28.2122 17.6239 28.2122 17.3403ZM14.5267 7.17095L32.991 7.1709C33.5845 7.1709 34.0777 7.60365 34.1748 8.1699L24.1237 14.5418C23.8873 14.6916 23.5823 14.6913 23.3465 14.5409L13.343 8.1709C13.4395 7.60455 13.9335 7.17165 14.5267 7.17095ZM16.654 26.2878C16.4185 26.438 16.1135 26.4383 15.8772 26.2886L5.82617 19.9167C5.92317 19.3504 6.41637 18.9177 7.00997 18.9177H25.474C26.0679 18.9177 26.5612 19.3509 26.658 19.9176L16.654 26.2878Z" fill="#8C8C8C"/>
</g>
</g>
<defs>
<clipPath id="clip0_81523_14036">
<rect width="40" height="40" fill="white"/>
</clipPath>
</defs>
</svg>
