<svg width="40" height="40" viewBox="0 0 40 40" fill="none" xmlns="http://www.w3.org/2000/svg">
<path d="M17.894 22.1177H17.8946V26.3127C17.8946 27.4752 15.0681 28.4177 11.5811 28.4177C8.09475 28.4177 5.26758 27.4753 5.26758 26.3127V22.1177H5.26826" stroke="#8C8C8C" stroke-width="0.75" stroke-miterlimit="10" stroke-linecap="round" stroke-linejoin="round"/>
<path d="M17.894 17.9033H17.8946V22.0983C17.8946 23.2609 15.0681 24.2033 11.5811 24.2033C8.09475 24.2033 5.26758 23.2609 5.26758 22.0983V17.9033H5.26826" stroke="#8C8C8C" stroke-width="0.75" stroke-miterlimit="10" stroke-linecap="round" stroke-linejoin="round"/>
<path d="M17.8946 13.6885V17.8835C17.8946 19.046 15.0681 19.9885 11.5811 19.9885C8.09475 19.9885 5.26758 19.0461 5.26758 17.8835V13.6885" stroke="#8C8C8C" stroke-width="0.75" stroke-miterlimit="10" stroke-linecap="round" stroke-linejoin="round"/>
<path d="M12.6881 11.6162C15.6474 11.7903 17.8946 12.6521 17.8946 13.6887C17.8946 14.8512 15.0681 15.7937 11.5811 15.7937C8.09475 15.7937 5.26758 14.8513 5.26758 13.6887C5.26758 12.6521 7.51551 11.7903 10.4741 11.6162" stroke="#8C8C8C" stroke-width="0.75" stroke-miterlimit="10" stroke-linecap="round" stroke-linejoin="round"/>
<path d="M25.7998 5.2497V3.16504H34.7304V6.26727" stroke="#8C8C8C" stroke-width="0.75" stroke-miterlimit="10" stroke-linecap="round" stroke-linejoin="round"/>
<path d="M34.7308 8.48145V10.3805C34.7308 11.0444 34.1922 11.583 33.5283 11.583" stroke="#8C8C8C" stroke-width="0.75" stroke-miterlimit="10" stroke-linecap="round" stroke-linejoin="round"/>
<path d="M33.5265 11.5819H25.1087C24.4446 11.5819 23.9062 11.0436 23.9062 10.3794V5.24951H28.0863L29.1392 6.45217H32.324V10.3793C32.324 11.0435 32.8623 11.5819 33.5265 11.5819Z" fill="#8C8C8C" stroke="#8C8C8C" stroke-width="0.75" stroke-miterlimit="10" stroke-linecap="round" stroke-linejoin="round"/>
<path d="M33.5283 24.2093C34.1925 24.2093 34.7309 23.6709 34.7309 23.0068V15.7915H25.8008V17.8761" stroke="#8C8C8C" stroke-width="0.75" stroke-miterlimit="10" stroke-linecap="round" stroke-linejoin="round"/>
<path d="M33.5265 24.2083H25.1087C24.4446 24.2083 23.9062 23.67 23.9062 23.0059V17.876H28.0863L29.1392 19.0786H32.324V23.0058C32.324 23.6699 32.8623 24.2083 33.5265 24.2083Z" fill="#8C8C8C" stroke="#8C8C8C" stroke-width="0.75" stroke-miterlimit="10" stroke-linecap="round" stroke-linejoin="round"/>
<path d="M25.7998 30.5021V28.4175H28.362" stroke="#8C8C8C" stroke-width="0.75" stroke-miterlimit="10" stroke-linecap="round" stroke-linejoin="round"/>
<path d="M30.5762 28.4175H34.7305V35.6328C34.7305 36.2974 34.1919 36.8353 33.528 36.8353" stroke="#8C8C8C" stroke-width="0.75" stroke-miterlimit="10" stroke-linecap="round" stroke-linejoin="round"/>
<path d="M33.5265 36.8353H25.1087C24.4446 36.8353 23.9062 36.297 23.9062 35.6328V30.5029H28.0863L29.1392 31.7056H32.324V35.6327C32.324 36.2969 32.8623 36.8353 33.5265 36.8353Z" fill="#8C8C8C" stroke="#8C8C8C" stroke-width="0.75" stroke-miterlimit="10" stroke-linecap="round" stroke-linejoin="round"/>
<path d="M23.9069 32.6272H21.0508V7.37402H23.9069" stroke="#8C8C8C" stroke-width="0.75" stroke-miterlimit="10" stroke-linecap="round" stroke-linejoin="round"/>
<path d="M23.9073 19.9888H17.8945" stroke="#8C8C8C" stroke-width="0.75" stroke-miterlimit="10" stroke-linecap="round" stroke-linejoin="round"/>
</svg>
