<svg width="40" height="40" viewBox="0 0 40 40" fill="none" xmlns="http://www.w3.org/2000/svg">
<g clip-path="url(#clip0_81523_13623)">
<path d="M7.16211 32.3994H8.15134V7.98368C8.15134 6.60296 9.27063 5.48368 10.6513 5.48368H23.6408L22.2062 4.12828C21.835 3.77747 21.3435 3.58203 20.8327 3.58203H7.16211C5.7814 3.58203 4.66211 4.70132 4.66211 6.08203V12.676V29.8994C4.66211 31.2801 5.7814 32.3994 7.16211 32.3994Z" fill="#BBBBBB" stroke="#BBBBBB" stroke-width="0.75" stroke-linecap="round" stroke-linejoin="round"/>
<path d="M24.5508 5.72705L24.5508 9.29023C24.5508 9.84252 24.9985 10.2902 25.5508 10.2902L29.6717 10.2901" stroke="#BBBBBB" stroke-width="0.75" stroke-linecap="round"/>
<path fill-rule="evenodd" clip-rule="evenodd" d="M7.87402 14.5962V31.8198C7.87404 33.4076 9.16122 34.6948 10.749 34.6948H22.3761C22.1911 34.4566 22.0212 34.2061 21.8676 33.9448H10.749C9.57543 33.9448 8.62404 32.9934 8.62402 31.8198V14.5962C8.6239 14.3892 8.45605 14.2212 8.24902 14.2212C8.04199 14.2212 7.87415 14.3892 7.87402 14.5962ZM22.5299 33.9448C22.6811 34.2595 22.925 34.5213 23.2261 34.6948H24.9477C25.2488 34.5213 25.4926 34.2595 25.6438 33.9448H24.7159C24.5461 34.0881 24.3267 34.1744 24.087 34.1744C23.8474 34.1744 23.6278 34.0881 23.4579 33.9448H22.5299ZM28.3306 33.7147H29.5299C29.7249 33.4923 29.8862 33.2397 30.0057 32.9647H29.1582C28.9546 33.2825 28.6687 33.5425 28.3306 33.7147ZM30.2427 31.3503L29.4927 30.0512V28.5517L30.2427 29.8507V31.3503ZM29.4927 27.1332C29.5671 26.9404 29.6079 26.7309 29.6079 26.5119C29.6079 26.2927 29.5671 26.0831 29.4927 25.8903V27.1332ZM29.4927 23.5335C29.7482 23.5914 29.9985 23.6633 30.2427 23.7482V19.7534C30.2427 19.5463 30.0748 19.3784 29.8677 19.3784C29.6606 19.3785 29.4927 19.5463 29.4927 19.7534V23.5335ZM7.87402 8.00244V12.7065C7.87402 12.9136 8.04192 13.0815 8.24902 13.0815C8.45613 13.0815 8.62402 12.9136 8.62402 12.7065V8.00244C8.62402 6.82884 9.57542 5.87744 10.749 5.87744H24.4116C24.8305 5.87744 25.2332 6.03939 25.5356 6.3291L28.9917 9.63916C29.3117 9.94566 29.4927 10.3694 29.4927 10.8125V17.8755C29.4927 18.0826 29.6606 18.2504 29.8677 18.2505C30.0748 18.2505 30.2427 18.0826 30.2427 17.8755V10.8125C30.2427 10.1649 29.9785 9.54513 29.5107 9.09717L26.0547 5.78711C25.6126 5.36368 25.0238 5.12744 24.4116 5.12744H10.749C9.16121 5.12744 7.87402 6.41462 7.87402 8.00244Z" fill="#BBBBBB"/>
<path fill-rule="evenodd" clip-rule="evenodd" d="M35.3362 30.3887C35.3362 34.4779 32.0213 37.7929 27.9321 37.7929C23.8429 37.7929 20.528 34.4779 20.528 30.3887C20.528 26.2996 23.8429 22.9846 27.9321 22.9846C32.0213 22.9846 35.3362 26.2996 35.3362 30.3887ZM29.4927 27.1332C29.5671 26.9404 29.6079 26.7309 29.6079 26.5119C29.6079 26.2927 29.5671 26.0831 29.4927 25.8903C29.2432 25.2439 28.6161 24.7854 27.8818 24.7853C26.9284 24.7853 26.1553 25.5584 26.1553 26.5119C26.1553 27.0151 26.3707 27.468 26.7144 27.7835L24.5488 31.5343C24.4018 31.4936 24.247 31.4718 24.087 31.4718C23.1336 31.4718 22.3605 32.2449 22.3605 33.1983C22.3605 33.4657 22.4213 33.7189 22.5299 33.9448C22.6811 34.2595 22.925 34.5213 23.2261 34.6948C23.4795 34.8409 23.7735 34.9244 24.087 34.9244C24.4005 34.9244 24.6944 34.8408 24.9477 34.6948C25.2488 34.5213 25.4926 34.2595 25.6438 33.9448C25.6793 33.8709 25.7097 33.794 25.7345 33.7147H28.3306H29.5299H30.1291C30.3487 34.4158 31.0035 34.9244 31.7771 34.9244C32.7304 34.9243 33.5031 34.1517 33.5031 33.1983C33.5031 32.2449 32.7305 31.4719 31.7771 31.4718C31.5858 31.4718 31.4017 31.5029 31.2297 31.5603L30.2427 29.8507L29.4927 28.5517L29.0491 27.7834C29.2431 27.6053 29.3961 27.3833 29.4927 27.1332ZM20.903 30.3889C20.903 31.6864 21.2546 32.9017 21.8676 33.9448C22.0212 34.2061 22.1911 34.4566 22.3761 34.6948C23.662 36.3516 25.6727 37.4177 27.9323 37.4177C31.8142 37.4176 34.961 34.2709 34.9611 30.3889C34.9611 27.3163 32.9897 24.704 30.2427 23.7482C29.9985 23.6633 29.7482 23.5914 29.4927 23.5335C28.9908 23.4197 28.4686 23.3596 27.9323 23.3596C24.0502 23.3596 20.903 26.5069 20.903 30.3889ZM28.4001 28.1588L29.4927 30.0512L30.2427 31.3503L30.5873 31.9472C30.3099 32.2111 30.1201 32.5663 30.0662 32.9647H30.0057H29.1582H25.7974C25.7394 32.5355 25.5237 32.1564 25.2106 31.8876L27.3635 28.1588C27.5271 28.2102 27.7012 28.2379 27.8818 28.2379C28.0624 28.2379 28.2365 28.2102 28.4001 28.1588ZM28.6573 27.1047C28.7831 26.9404 28.8579 26.7349 28.8579 26.5119C28.8579 25.9726 28.421 25.5354 27.8818 25.5353C27.3426 25.5353 26.9053 25.9726 26.9053 26.5119C26.9053 26.7349 26.9802 26.9405 27.1062 27.1049C27.2605 27.3062 27.4914 27.4457 27.7554 27.4798C27.7968 27.4852 27.839 27.4879 27.8818 27.4879C27.9246 27.4879 27.9668 27.4852 28.0081 27.4798C28.2721 27.4457 28.503 27.3062 28.6573 27.1047ZM24.9155 33.7147C24.8613 33.8015 24.7938 33.8791 24.7159 33.9448C24.5461 34.0881 24.3267 34.1744 24.087 34.1744C23.8474 34.1744 23.6278 34.0881 23.4579 33.9448C23.2455 33.7658 23.1105 33.4978 23.1105 33.1983C23.1105 32.6591 23.5478 32.2218 24.087 32.2218C24.1084 32.2218 24.1297 32.2225 24.1507 32.2238C24.419 32.2411 24.6578 32.3669 24.8237 32.5577C24.9238 32.6729 24.9974 32.8117 25.035 32.9647C25.0534 33.0395 25.0631 33.1178 25.0631 33.1983C25.0631 33.3879 25.009 33.5649 24.9155 33.7147ZM30.8005 33.1983C30.8005 33.3879 30.8546 33.5649 30.9482 33.7147C31.1207 33.9908 31.4275 34.1744 31.7771 34.1744C32.3162 34.1743 32.7531 33.7375 32.7531 33.1983C32.7531 32.6591 32.3163 32.2219 31.7771 32.2218C31.7232 32.2218 31.6704 32.2261 31.619 32.2345C31.3571 32.2771 31.1302 32.424 30.9821 32.6311C30.9113 32.7301 30.8586 32.8429 30.8286 32.9647C30.8103 33.0395 30.8005 33.1178 30.8005 33.1983Z" fill="#BBBBBB"/>
<path d="M34.9611 30.3889C34.9611 27.3163 32.9897 24.704 30.2427 23.7482C29.9985 23.6633 29.7482 23.5914 29.4927 23.5335C28.9908 23.4197 28.4686 23.3596 27.9323 23.3596C24.0502 23.3596 20.903 26.5069 20.903 30.3889C20.903 31.6864 21.2546 32.9017 21.8676 33.9448C22.0212 34.2061 22.1911 34.4566 22.3761 34.6948C23.662 36.3516 25.6727 37.4177 27.9323 37.4177C31.8142 37.4176 34.961 34.2709 34.9611 30.3889ZM35.7111 30.3889C35.711 34.6851 32.2284 38.1676 27.9323 38.1677C23.6361 38.1677 20.1531 34.6851 20.153 30.3889C20.153 26.0926 23.636 22.6096 27.9323 22.6096C32.2285 22.6097 35.7111 26.0927 35.7111 30.3889Z" fill="#BBBBBB"/>
<path fill-rule="evenodd" clip-rule="evenodd" d="M30.1291 33.7147H30.9482C30.8546 33.5649 30.8005 33.3879 30.8005 33.1983C30.8005 33.1178 30.8103 33.0395 30.8286 32.9647H30.0662H30.0057H29.1582H25.7974H25.035C25.0534 33.0395 25.0631 33.1178 25.0631 33.1983C25.0631 33.3879 25.009 33.5649 24.9155 33.7147H25.7345H28.3306H29.5299H30.1291ZM30.9821 32.6311L30.5873 31.9472L30.2427 31.3503L29.4927 30.0512L28.4001 28.1588L28.0081 27.4798C28.2721 27.4457 28.503 27.3062 28.6573 27.1047L29.0491 27.7834L29.4927 28.5517L30.2427 29.8507L31.2297 31.5603L31.619 32.2345C31.3571 32.2771 31.1302 32.424 30.9821 32.6311ZM25.2106 31.8876L24.8237 32.5577C24.6578 32.3669 24.419 32.2411 24.1507 32.2238L24.5488 31.5343L26.7144 27.7835L27.1062 27.1049C27.2605 27.3062 27.4914 27.4457 27.7554 27.4798L27.3635 28.1588L25.2106 31.8876Z" fill="#BBBBBB"/>
<path fill-rule="evenodd" clip-rule="evenodd" d="M27.8817 27.8631C28.6281 27.8631 29.2331 27.2581 29.2331 26.5117C29.2331 25.7653 28.6281 25.1603 27.8817 25.1603C27.1353 25.1603 26.5303 25.7653 26.5303 26.5117C26.5303 27.2581 27.1353 27.8631 27.8817 27.8631ZM28.8579 26.5119C28.8579 26.7349 28.7831 26.9404 28.6573 27.1047C28.503 27.3062 28.2721 27.4457 28.0081 27.4798C27.9668 27.4852 27.9246 27.4879 27.8818 27.4879C27.839 27.4879 27.7968 27.4852 27.7554 27.4798C27.4914 27.4457 27.2605 27.3062 27.1062 27.1049C26.9802 26.9405 26.9053 26.7349 26.9053 26.5119C26.9053 25.9726 27.3426 25.5353 27.8818 25.5353C28.421 25.5354 28.8579 25.9726 28.8579 26.5119Z" fill="#BBBBBB"/>
<path d="M28.8579 26.5119C28.8579 25.9726 28.421 25.5354 27.8818 25.5353C27.3426 25.5353 26.9053 25.9726 26.9053 26.5119C26.9053 26.7349 26.9802 26.9405 27.1062 27.1049C27.2605 27.3062 27.4914 27.4457 27.7554 27.4798C27.7968 27.4852 27.839 27.4879 27.8818 27.4879C27.9246 27.4879 27.9668 27.4852 28.0081 27.4798C28.2721 27.4457 28.503 27.3062 28.6573 27.1047C28.7831 26.9404 28.8579 26.7349 28.8579 26.5119ZM29.6079 26.5119C29.6079 26.7309 29.5671 26.9404 29.4927 27.1332C29.3961 27.3833 29.2431 27.6053 29.0491 27.7834C28.8651 27.9524 28.6443 28.082 28.4001 28.1588C28.2365 28.2102 28.0624 28.2379 27.8818 28.2379C27.7012 28.2379 27.5271 28.2102 27.3635 28.1588C27.1192 28.082 26.8984 27.9525 26.7144 27.7835C26.3707 27.468 26.1553 27.0151 26.1553 26.5119C26.1553 25.5584 26.9284 24.7853 27.8818 24.7853C28.6161 24.7854 29.2432 25.2439 29.4927 25.8903C29.5671 26.0831 29.6079 26.2927 29.6079 26.5119Z" fill="#BBBBBB"/>
<path fill-rule="evenodd" clip-rule="evenodd" d="M25.4383 33.1982C25.4383 33.9445 24.8332 34.5496 24.0869 34.5496C23.3405 34.5496 22.7355 33.9445 22.7355 33.1982C22.7355 32.4518 23.3405 31.8468 24.0869 31.8468C24.8332 31.8468 25.4383 32.4518 25.4383 33.1982ZM24.9155 33.7147C24.8613 33.8015 24.7938 33.8791 24.7159 33.9448C24.5461 34.0881 24.3267 34.1744 24.087 34.1744C23.8474 34.1744 23.6278 34.0881 23.4579 33.9448C23.2455 33.7658 23.1105 33.4978 23.1105 33.1983C23.1105 32.6591 23.5478 32.2218 24.087 32.2218C24.1084 32.2218 24.1297 32.2225 24.1507 32.2238C24.419 32.2411 24.6578 32.3669 24.8237 32.5577C24.9238 32.6729 24.9974 32.8117 25.035 32.9647C25.0534 33.0395 25.0631 33.1178 25.0631 33.1983C25.0631 33.3879 25.009 33.5649 24.9155 33.7147Z" fill="#BBBBBB"/>
<path d="M25.0631 33.1983C25.0631 33.1178 25.0534 33.0395 25.035 32.9647C24.9974 32.8117 24.9238 32.6729 24.8237 32.5577C24.6578 32.3669 24.419 32.2411 24.1507 32.2238C24.1297 32.2225 24.1084 32.2218 24.087 32.2218C23.5478 32.2218 23.1105 32.6591 23.1105 33.1983C23.1105 33.4978 23.2455 33.7658 23.4579 33.9448C23.6278 34.0881 23.8474 34.1744 24.087 34.1744C24.3267 34.1744 24.5461 34.0881 24.7159 33.9448C24.7938 33.8791 24.8613 33.8015 24.9155 33.7147C25.009 33.5649 25.0631 33.3879 25.0631 33.1983ZM25.8131 33.1983C25.8131 33.3782 25.7856 33.5516 25.7345 33.7147C25.7097 33.794 25.6793 33.8709 25.6438 33.9448C25.4926 34.2595 25.2488 34.5213 24.9477 34.6948C24.6944 34.8408 24.4005 34.9244 24.087 34.9244C23.7735 34.9244 23.4795 34.8409 23.2261 34.6948C22.925 34.5213 22.6811 34.2595 22.5299 33.9448C22.4213 33.7189 22.3605 33.4657 22.3605 33.1983C22.3605 32.2449 23.1336 31.4718 24.087 31.4718C24.247 31.4718 24.4018 31.4936 24.5488 31.5343C24.7962 31.6028 25.0212 31.7251 25.2106 31.8876C25.5237 32.1564 25.7394 32.5355 25.7974 32.9647C25.8078 33.0411 25.8131 33.1191 25.8131 33.1983Z" fill="#BBBBBB"/>
<path fill-rule="evenodd" clip-rule="evenodd" d="M31.7769 34.5496C32.5233 34.5496 33.1283 33.9445 33.1283 33.1982C33.1283 32.4518 32.5233 31.8468 31.7769 31.8468C31.0306 31.8468 30.4255 32.4518 30.4255 33.1982C30.4255 33.9445 31.0306 34.5496 31.7769 34.5496ZM30.8005 33.1983C30.8005 33.3879 30.8546 33.5649 30.9482 33.7147C31.1207 33.9908 31.4275 34.1744 31.7771 34.1744C32.3162 34.1743 32.7531 33.7375 32.7531 33.1983C32.7531 32.6591 32.3163 32.2219 31.7771 32.2218C31.7232 32.2218 31.6704 32.2261 31.619 32.2345C31.3571 32.2771 31.1302 32.424 30.9821 32.6311C30.9113 32.7301 30.8586 32.8429 30.8286 32.9647C30.8103 33.0395 30.8005 33.1178 30.8005 33.1983Z" fill="#BBBBBB"/>
<path d="M32.7531 33.1983C32.7531 32.6591 32.3163 32.2219 31.7771 32.2218C31.7232 32.2218 31.6704 32.2261 31.619 32.2345C31.3571 32.2771 31.1302 32.424 30.9821 32.6311C30.9113 32.7301 30.8586 32.8429 30.8286 32.9647C30.8103 33.0395 30.8005 33.1178 30.8005 33.1983C30.8005 33.3879 30.8546 33.5649 30.9482 33.7147C31.1207 33.9908 31.4275 34.1744 31.7771 34.1744C32.3162 34.1743 32.7531 33.7375 32.7531 33.1983ZM33.5031 33.1983C33.5031 34.1517 32.7304 34.9243 31.7771 34.9244C31.0035 34.9244 30.3487 34.4158 30.1291 33.7147C30.078 33.5516 30.0505 33.3782 30.0505 33.1983C30.0505 33.1191 30.0558 33.0411 30.0662 32.9647C30.1201 32.5663 30.3099 32.2111 30.5873 31.9472C30.7685 31.7748 30.9871 31.6414 31.2297 31.5603C31.4017 31.5029 31.5858 31.4718 31.7771 31.4718C32.7305 31.4719 33.5031 32.2449 33.5031 33.1983Z" fill="#BBBBBB"/>
<rect x="10.9814" y="12.0332" width="15.5498" height="2.67173" rx="1" fill="#BBBBBB" stroke="#BBBBBB" stroke-width="0.5" stroke-linejoin="round"/>
<rect x="10.9814" y="16.4482" width="15.5498" height="0.944129" rx="0.472065" fill="#BBBBBB" stroke="#BBBBBB" stroke-width="0.5" stroke-linejoin="round"/>
<rect x="10.9814" y="18.9683" width="6.61949" height="0.944129" rx="0.472065" fill="#BBBBBB" stroke="#BBBBBB" stroke-width="0.5" stroke-linejoin="round"/>
</g>
<defs>
<clipPath id="clip0_81523_13623">
<rect width="40" height="40" fill="white"/>
</clipPath>
</defs>
</svg>
