<svg width="40" height="40" viewBox="0 0 40 40" fill="none" xmlns="http://www.w3.org/2000/svg">
<g clip-path="url(#clip0_81523_13713)">
<mask id="mask0_81523_13713" style="mask-type:luminance" maskUnits="userSpaceOnUse" x="0" y="0" width="40" height="40">
<path d="M40 0H0V40H40V0Z" fill="white"/>
</mask>
<g mask="url(#mask0_81523_13713)">
<path fill-rule="evenodd" clip-rule="evenodd" d="M30.6575 33.4491H33.3995C34.694 33.4491 35.7433 32.3998 35.7433 31.1054L35.7433 17.8839L35.7433 10.4654C35.7433 9.17092 34.694 8.12162 33.3995 8.12162H31.0558H30.6651V33.4323L30.6575 33.4491ZM20.28 33.4491H19.719L19.0715 32.6977C18.8712 32.4652 19.0364 32.1048 19.3433 32.1048H20.6558C20.9626 32.1048 21.1278 32.4652 20.9275 32.6977L20.28 33.4491ZM9.33388 8.12162V33.4491H8.96391H6.59953C5.30508 33.4491 4.25578 32.3998 4.25578 31.1054V10.4654C4.25578 9.17092 5.30508 8.12162 6.59953 8.12162H8.94328H9.33388ZM13.9479 23.9172C13.8479 23.9172 13.748 23.8791 13.6717 23.8028L12.9079 23.0391C12.7554 22.8865 12.7554 22.6391 12.9079 22.4866C13.0605 22.3341 13.3078 22.3341 13.4604 22.4866L13.9479 22.9742L15.0808 21.8413C15.2334 21.6888 15.4807 21.6888 15.6333 21.8413C15.7858 21.9939 15.7858 22.2413 15.6333 22.3938L14.2241 23.8029C14.1479 23.8791 14.0479 23.9172 13.9479 23.9172ZM13.6717 17.38C13.748 17.4562 13.8479 17.4944 13.9479 17.4944C14.0479 17.4944 14.1479 17.4562 14.2241 17.3801L15.6333 15.9709C15.7858 15.8184 15.7858 15.5711 15.6333 15.4185C15.4807 15.266 15.2334 15.266 15.0808 15.4185L13.9479 16.5514L13.4604 16.0638C13.3078 15.9113 13.0605 15.9113 12.9079 16.0638C12.7554 16.2163 12.7554 16.4637 12.9079 16.6162L13.6717 17.38ZM12.6799 18.7987H15.8622C16.3086 18.7987 16.6706 18.4368 16.6705 17.9904V14.8082C16.6705 14.3618 16.3086 13.9999 15.8622 13.9999H12.6799C12.2335 13.9999 11.8716 14.3618 11.8716 14.8082V17.9904C11.8716 18.4368 12.2335 18.7987 12.6799 18.7987ZM12.6799 25.2211H15.8622C16.3086 25.2211 16.6706 24.8592 16.6705 24.4128V21.2306C16.6705 20.7842 16.3086 20.4223 15.8622 20.4223H12.6799C12.2335 20.4223 11.8716 20.7842 11.8716 21.2306V24.4128C11.8716 24.8592 12.2335 25.2211 12.6799 25.2211ZM17.4996 15.7367C17.4996 15.1844 17.9473 14.7367 18.4996 14.7367H26.9996C27.5519 14.7367 27.9996 15.1844 27.9996 15.7367V16.7367C27.9996 17.289 27.5519 17.7367 26.9996 17.7367H18.4996C17.9473 17.7367 17.4996 17.289 17.4996 16.7367V15.7367ZM17.4996 22.2367C17.4996 21.6844 17.9473 21.2367 18.4996 21.2367H26.9996C27.5519 21.2367 27.9996 21.6844 27.9996 22.2367V23.2367C27.9996 23.789 27.5519 24.2367 26.9996 24.2367H18.4996C17.9473 24.2367 17.4996 23.789 17.4996 23.2367V22.2367Z" fill="#BBBBBB"/>
<path fill-rule="evenodd" clip-rule="evenodd" d="M31.0558 8.12162V31.5955C31.0558 32.2498 30.9162 32.8714 30.6651 33.4323V8.12162H31.0558ZM9.33388 8.12162H8.94328V33.0955C8.94328 33.2151 8.95029 33.3331 8.96391 33.4491C9.1389 34.9393 10.4061 36.0955 11.9433 36.0955L15.2877 36.0955C15.2877 35.8798 15.1129 35.7049 14.8971 35.7049H11.287C10.2101 35.7049 9.33388 34.8287 9.33388 33.7518V33.4491V8.12162ZM28.3923 35.7049C27.8315 35.9559 27.2099 36.0955 26.5558 36.0955L16.7231 36.0955C16.7231 35.8798 16.898 35.7049 17.1137 35.7049H28.3923ZM13.9479 23.9172C13.8479 23.9172 13.748 23.8791 13.6717 23.8028L12.9079 23.0391C12.7554 22.8865 12.7554 22.6391 12.9079 22.4866C13.0605 22.3341 13.3078 22.3341 13.4604 22.4866L13.9479 22.9742L15.0808 21.8413C15.2334 21.6888 15.4807 21.6888 15.6333 21.8413C15.7858 21.9939 15.7858 22.2413 15.6333 22.3938L14.2241 23.8029C14.1479 23.8791 14.0479 23.9172 13.9479 23.9172ZM13.6717 17.38C13.748 17.4562 13.8479 17.4944 13.9479 17.4944C14.0479 17.4944 14.1479 17.4562 14.2241 17.3801L15.6333 15.9709C15.7858 15.8184 15.7858 15.5711 15.6333 15.4185C15.4807 15.266 15.2334 15.266 15.0808 15.4185L13.9479 16.5514L13.4604 16.0638C13.3078 15.9113 13.0605 15.9113 12.9079 16.0638C12.7554 16.2163 12.7554 16.4637 12.9079 16.6162L13.6717 17.38ZM20.28 33.4491L20.9275 32.6977C21.1278 32.4652 20.9626 32.1048 20.6558 32.1048H19.3433C19.0364 32.1048 18.8712 32.4652 19.0715 32.6977L19.719 33.4491L19.7278 33.4593C19.8709 33.6254 20.1282 33.6254 20.2712 33.4593L20.28 33.4491ZM12.6799 18.7987H15.8622C16.3086 18.7987 16.6706 18.4368 16.6705 17.9904V14.8082C16.6705 14.3618 16.3086 13.9999 15.8622 13.9999H12.6799C12.2335 13.9999 11.8716 14.3618 11.8716 14.8082V17.9904C11.8716 18.4368 12.2335 18.7987 12.6799 18.7987ZM12.6799 25.2211H15.8622C16.3086 25.2211 16.6706 24.8592 16.6705 24.4128V21.2306C16.6705 20.7842 16.3086 20.4223 15.8622 20.4223H12.6799C12.2335 20.4223 11.8716 20.7842 11.8716 21.2306V24.4128C11.8716 24.8592 12.2335 25.2211 12.6799 25.2211ZM17.4996 15.7367C17.4996 15.1844 17.9473 14.7367 18.4996 14.7367H26.9996C27.5519 14.7367 27.9996 15.1844 27.9996 15.7367V16.7367C27.9996 17.289 27.5519 17.7367 26.9996 17.7367H18.4996C17.9473 17.7367 17.4996 17.289 17.4996 16.7367V15.7367ZM17.4996 22.2367C17.4996 21.6844 17.9473 21.2367 18.4996 21.2367H26.9996C27.5519 21.2367 27.9996 21.6844 27.9996 22.2367V23.2367C27.9996 23.789 27.5519 24.2367 26.9996 24.2367H18.4996C17.9473 24.2367 17.4996 23.789 17.4996 23.2367V22.2367Z" fill="#BBBBBB"/>
<path fill-rule="evenodd" clip-rule="evenodd" d="M35.7433 17.8839C35.5275 17.8839 35.3526 17.709 35.3526 17.4932V10.4654C35.3526 9.38842 34.4765 8.51227 33.3995 8.51227H31.4464V33.0585H33.3995C34.4765 33.0585 35.3526 32.1823 35.3526 31.1054V19.7099C35.3526 19.4942 35.5275 19.3193 35.7433 19.3193C35.9591 19.3193 36.1339 19.4942 36.1339 19.7099V31.1054C36.1339 32.6131 34.9073 33.8398 33.3995 33.8398H31.4441C31.3975 35.3069 30.1902 36.4862 28.712 36.4862H17.1137C16.898 36.4862 16.7231 36.3112 16.7231 36.0955C16.7231 35.8798 16.898 35.7049 17.1137 35.7049H28.3923H28.7119C29.7889 35.7049 30.6651 34.8287 30.6651 33.7518V33.4323V8.12162H31.0558H33.3995C34.694 8.12162 35.7433 9.17092 35.7433 10.4654L35.7433 17.8839ZM9.33388 8.12162V33.4491V33.7518C9.33388 34.8287 10.2101 35.7049 11.287 35.7049H14.8971C15.1129 35.7049 15.2877 35.8798 15.2877 36.0955L11.9433 36.0955C10.4061 36.0955 9.1389 34.9393 8.96391 33.4491H6.59953C5.30508 33.4491 4.25578 32.3998 4.25578 31.1054V10.4654C4.25578 9.17092 5.30508 8.12162 6.59953 8.12162H8.94328H9.33388ZM4.6464 10.4654V31.1054C4.6464 32.1823 5.52258 33.0585 6.59953 33.0585H8.55263V8.51227H6.59953C5.52258 8.51227 4.6464 9.38842 4.6464 10.4654Z" fill="#BBBBBB"/>
<path fill-rule="evenodd" clip-rule="evenodd" d="M12.6799 18.7987H15.8622C16.3086 18.7987 16.6706 18.4368 16.6705 17.9904V14.8082C16.6705 14.3618 16.3086 13.9999 15.8622 13.9999H12.6799C12.2335 13.9999 11.8716 14.3618 11.8716 14.8082V17.9904C11.8716 18.4368 12.2335 18.7987 12.6799 18.7987ZM13.9479 17.4944C13.8479 17.4944 13.748 17.4562 13.6717 17.38L12.9079 16.6162C12.7554 16.4637 12.7554 16.2163 12.9079 16.0638C13.0605 15.9113 13.3078 15.9113 13.4604 16.0638L13.9479 16.5514L15.0808 15.4185C15.2334 15.266 15.4807 15.266 15.6333 15.4185C15.7858 15.5711 15.7858 15.8184 15.6333 15.9709L14.2241 17.3801C14.1479 17.4562 14.0479 17.4944 13.9479 17.4944Z" fill="#BBBBBB"/>
<path fill-rule="evenodd" clip-rule="evenodd" d="M12.6799 25.2211H15.8622C16.3086 25.2211 16.6706 24.8592 16.6705 24.4128V21.2306C16.6705 20.7842 16.3086 20.4223 15.8622 20.4223H12.6799C12.2335 20.4223 11.8716 20.7842 11.8716 21.2306V24.4128C11.8716 24.8592 12.2335 25.2211 12.6799 25.2211ZM13.9479 23.9172C13.8479 23.9172 13.748 23.8791 13.6717 23.8028L12.9079 23.0391C12.7554 22.8865 12.7554 22.6391 12.9079 22.4866C13.0605 22.3341 13.3078 22.3341 13.4604 22.4866L13.9479 22.9742L15.0808 21.8413C15.2334 21.6888 15.4807 21.6888 15.6333 21.8413C15.7858 21.9939 15.7858 22.2413 15.6333 22.3938L14.2241 23.8029C14.1479 23.8791 14.0479 23.9172 13.9479 23.9172Z" fill="#BBBBBB"/>
<path d="M19.0715 32.6977L19.719 33.4491L19.7278 33.4593C19.8709 33.6254 20.1282 33.6254 20.2712 33.4593L20.28 33.4491L20.9275 32.6977C21.1278 32.4652 20.9626 32.1048 20.6558 32.1048H19.3433C19.0364 32.1048 18.8712 32.4652 19.0715 32.6977Z" fill="#BBBBBB"/>
<path d="M17.4996 15.7367C17.4996 15.1844 17.9473 14.7367 18.4996 14.7367H26.9996C27.5519 14.7367 27.9996 15.1844 27.9996 15.7367V16.7367C27.9996 17.289 27.5519 17.7367 26.9996 17.7367H18.4996C17.9473 17.7367 17.4996 17.289 17.4996 16.7367V15.7367Z" fill="#BBBBBB"/>
<path d="M17.4996 22.2367C17.4996 21.6844 17.9473 21.2367 18.4996 21.2367H26.9996C27.5519 21.2367 27.9996 21.6844 27.9996 22.2367V23.2367C27.9996 23.789 27.5519 24.2367 26.9996 24.2367H18.4996C17.9473 24.2367 17.4996 23.789 17.4996 23.2367V22.2367Z" fill="#BBBBBB"/>
<path d="M35.7433 10.4654L35.7433 17.8839C35.9591 17.8839 36.1339 17.709 36.1339 17.4933V10.4655C36.1339 8.95772 34.9073 7.73107 33.3995 7.73107H31.4464V6.86177C31.4464 5.35407 30.2198 4.12742 28.712 4.12742H28.1856V4.06055C28.1856 3.41437 27.6599 2.88867 27.0137 2.88867H26.481C25.8348 2.88867 25.3091 3.41437 25.3091 4.06055V4.12742H23.687V4.06055C23.687 3.41437 23.1613 2.88867 22.5151 2.88867H21.9824C21.3362 2.88867 20.8105 3.41437 20.8105 4.06055V4.12742H19.1885V4.06055C19.1885 3.41437 18.6628 2.88867 18.0166 2.88867H17.4839C16.8377 2.88867 16.312 3.41437 16.312 4.06055V4.12742H14.6899V4.06055C14.6899 3.41437 14.1642 2.88867 13.518 2.88867H12.9854C12.3392 2.88867 11.8135 3.41437 11.8135 4.06055V4.12742H11.2871C9.77938 4.12742 8.55273 5.35407 8.55273 6.86177V7.73102H6.59963C5.09188 7.73102 3.86523 8.95767 3.86523 10.4654V31.1054C3.86523 32.6131 5.09188 33.8398 6.59963 33.8398H8.55499C8.60174 35.3069 9.80888 36.4862 11.2871 36.4862H14.8971C15.1129 36.4862 15.2877 36.3112 15.2877 36.0955L11.9433 36.0955C10.4061 36.0955 9.1389 34.9393 8.96391 33.4491H6.59953C5.30508 33.4491 4.25578 32.3998 4.25578 31.1054V10.4654C4.25578 9.17092 5.30508 8.12162 6.59953 8.12162H8.94328H9.33388V6.86177C9.33388 5.78482 10.2101 4.90867 11.287 4.90867H11.8134V6.31687C11.8134 6.96302 12.3391 7.48877 12.9853 7.48877H13.518C14.1641 7.48877 14.6898 6.96302 14.6898 6.31687V4.90867H16.312V6.31687C16.312 6.96302 16.8377 7.48877 17.4839 7.48877H18.0166C18.6628 7.48877 19.1885 6.96302 19.1885 6.31687V4.90867H20.8105V6.31687C20.8105 6.96302 21.3362 7.48877 21.9824 7.48877H22.5151C23.1613 7.48877 23.687 6.96302 23.687 6.31687V4.90867H25.3091V6.31687C25.3091 6.96302 25.8348 7.48877 26.4809 7.48877H27.0137C27.6598 7.48877 28.1855 6.96302 28.1855 6.31687V4.90867H28.7119C29.7889 4.90867 30.6651 5.78482 30.6651 6.86177V8.12162H31.0558H33.3995C34.694 8.12162 35.7433 9.17092 35.7433 10.4654ZM27.4043 4.06055V4.51804V6.31687C27.4043 6.53227 27.2291 6.70752 27.0137 6.70752H26.4809C26.2655 6.70752 26.0903 6.53227 26.0903 6.31687V4.51804V4.06055C26.0903 3.84515 26.2655 3.66992 26.4809 3.66992H27.0137C27.2291 3.66992 27.4043 3.84515 27.4043 4.06055ZM22.9058 4.06055V4.51804V6.31687C22.9058 6.53227 22.7305 6.70752 22.5151 6.70752H21.9824C21.767 6.70752 21.5918 6.53227 21.5918 6.31687V4.51804V4.06055C21.5918 3.84515 21.767 3.66992 21.9824 3.66992H22.5151C22.7305 3.66992 22.9058 3.84515 22.9058 4.06055ZM18.4073 4.06055V4.51804V6.31687C18.4073 6.53227 18.232 6.70752 18.0166 6.70752H17.4839C17.2685 6.70752 17.0933 6.53227 17.0933 6.31687V4.51804V4.06055C17.0933 3.84515 17.2685 3.66992 17.4839 3.66992H18.0166C18.232 3.66992 18.4073 3.84515 18.4073 4.06055ZM13.9087 4.06055V4.51804V6.31687C13.9087 6.53227 13.7334 6.70752 13.518 6.70752H12.9854C12.77 6.70752 12.5948 6.53227 12.5948 6.31687V4.51804V4.06055C12.5948 3.84515 12.77 3.66992 12.9854 3.66992H13.518C13.7334 3.66992 13.9087 3.84515 13.9087 4.06055Z" fill="#BBBBBB"/>
</g>
</g>
<defs>
<clipPath id="clip0_81523_13713">
<rect width="40" height="40" fill="white"/>
</clipPath>
</defs>
</svg>
