<svg width="40" height="40" viewBox="0 0 40 40" fill="none" xmlns="http://www.w3.org/2000/svg">
<g clip-path="url(#clip0_81523_13728)">
<path fill-rule="evenodd" clip-rule="evenodd" d="M9.625 34.1088H10.375V33.734V7.37854C10.375 7.0404 10.6492 6.76627 10.9873 6.76624H29.335H29.7097V6.01624H29.335H10.9873C10.235 6.01627 9.62503 6.62619 9.625 7.37854V33.734V34.1088ZM29.2759 29.6057L26.625 32.2566V31.7262V27.499C26.625 27.0147 27.0178 26.6249 27.5 26.6249H29C29.1187 26.6249 29.2318 26.6486 29.335 26.6913C29.4858 26.7539 29.6154 26.8574 29.7097 26.9881V28.5584C29.7097 28.9512 29.5537 29.3279 29.2759 29.6057ZM22.6143 9.10932C21.742 8.91056 20.8076 8.92965 19.8916 9.20844C17.085 10.0626 15.5023 13.0303 16.3564 15.8369C17.2106 18.6434 20.1783 20.2262 22.9849 19.372C25.7914 18.5179 27.3741 15.5502 26.52 12.7436C26.1665 11.5822 25.4502 10.6294 24.5337 9.97309C24.3653 9.85268 24.1313 9.89168 24.0107 10.06C23.996 10.0806 23.9837 10.1021 23.9737 10.1243C23.9016 10.2838 23.9494 10.4771 24.0972 10.583C24.8842 11.1465 25.4984 11.9638 25.8022 12.9619C25.8987 13.2788 25.959 13.5982 25.9854 13.9155H21.8135V9.74227C22.0279 9.76004 22.2396 9.79297 22.4473 9.84027C22.6244 9.88064 22.8011 9.78839 22.8728 9.6288C22.8829 9.60647 22.8908 9.58283 22.8965 9.55805C22.9424 9.35621 22.8161 9.15539 22.6143 9.10932ZM13.125 27.8569C13.1251 27.6499 13.293 27.4819 13.5 27.4819C13.707 27.4819 13.8749 27.6499 13.875 27.8569V32.3569C13.875 32.5148 13.9968 32.6249 14.125 32.6249H15.375C15.5032 32.6249 15.625 32.5148 15.625 32.3569V24.643C15.625 24.4851 15.5032 24.3749 15.375 24.3749H14.125C13.9968 24.3749 13.875 24.4851 13.875 24.643V25.2856C13.875 25.4927 13.7071 25.6606 13.5 25.6606C13.2929 25.6606 13.125 25.4927 13.125 25.2856V24.643C13.125 24.0909 13.5628 23.6249 14.125 23.6249H15.375C15.9372 23.6249 16.375 24.0909 16.375 24.643V32.3569C16.375 32.909 15.9372 33.3749 15.375 33.3749H14.125C13.5628 33.3749 13.125 32.909 13.125 32.3569V27.8569ZM20.875 32.35C20.875 32.9021 20.4411 33.3749 19.875 33.3749H18.625C18.059 33.3749 17.625 32.9021 17.625 32.35V27.1498C17.625 26.5978 18.059 26.1249 18.625 26.1249H19.875C20.441 26.1249 20.875 26.5978 20.875 27.1498V32.35ZM25.375 32.4164C25.3751 32.9698 24.9025 33.3749 24.375 33.3749H23.125C22.5975 33.3749 22.125 32.9697 22.125 32.4164V23.0834C22.125 22.5302 22.5975 22.1249 23.125 22.1249H24.375C24.9025 22.1249 25.375 22.5302 25.375 23.0834V32.4164ZM21.0635 9.74248C20.7463 9.76894 20.427 9.82922 20.1099 9.92572C17.6995 10.6593 16.3402 13.2083 17.0737 15.6186C17.6343 17.4603 19.2548 18.6882 21.0635 18.8377V14.2905V9.74248ZM22.7666 18.6542C22.4498 18.7507 22.1306 18.8109 21.8135 18.8374V15.1958L24.3884 17.7711C23.9277 18.1619 23.3813 18.4671 22.7666 18.6542ZM24.9187 17.2399C25.5284 16.5191 25.9067 15.6184 25.9857 14.6655H22.3438L24.9187 17.2399Z" fill="#BBBBBB"/>
<path fill-rule="evenodd" clip-rule="evenodd" d="M29.335 26.6913V28.5582C29.335 28.8515 29.2182 29.133 29.0107 29.3405L26.625 31.7262V32.2566V32.5009C26.625 32.5878 26.6376 32.6716 26.6611 32.7506L29.541 29.8707C29.6761 29.7356 29.7883 29.5818 29.875 29.4154V27.4999C29.875 27.3088 29.8137 27.132 29.7097 26.9881C29.6154 26.8574 29.4858 26.7539 29.335 26.6913ZM9.625 33.734H10.375V34.1088V34.484H9.625V34.1088V33.734ZM30.085 6.01624H29.7097H29.335V6.76624H29.7097H30.085V6.01624Z" fill="#BBBBBB"/>
<path fill-rule="evenodd" clip-rule="evenodd" d="M10.9874 6.39124H31.7224C32.2677 6.39124 32.7097 6.83331 32.7097 7.3786V31.4495C32.7097 31.8423 32.5537 32.2191 32.2759 32.4968L28.2066 36.5661C27.9289 36.8439 27.5521 36.9999 27.1593 36.9999H10.9874C10.4421 36.9999 10 36.5579 10 36.0126V7.3786C10 6.83331 10.4421 6.39124 10.9874 6.39124ZM32.335 7.37854C32.3349 7.04038 32.0603 6.76624 31.7222 6.76624H30.085H29.7097H29.335H10.9873C10.6492 6.76627 10.375 7.0404 10.375 7.37854V33.734V34.1088V34.484V36.0128C10.3751 36.3509 10.6492 36.6251 10.9873 36.6251H27.125V33.2909C26.9031 33.1857 26.7323 32.9899 26.6611 32.7506C26.6376 32.6716 26.625 32.5878 26.625 32.5009V32.2566V31.7262V27.499C26.625 27.0147 27.0178 26.6249 27.5 26.6249H29C29.1187 26.6249 29.2318 26.6486 29.335 26.6913C29.4858 26.7539 29.6154 26.8574 29.7097 26.9881C29.8137 27.132 29.875 27.3088 29.875 27.4999V29.4154V31.6249H32.2188C32.2533 31.6249 32.2868 31.6296 32.3187 31.6384C32.3294 31.5764 32.335 31.5131 32.335 31.4493V7.37854ZM19.8916 9.20844C20.8076 8.92965 21.742 8.91056 22.6143 9.10932C22.8161 9.15539 22.9424 9.35621 22.8965 9.55805C22.8908 9.58283 22.8829 9.60647 22.8728 9.6288C22.8011 9.78839 22.6244 9.88064 22.4473 9.84027C22.2396 9.79297 22.0279 9.76004 21.8135 9.74227V13.9155H25.9854C25.959 13.5982 25.8987 13.2788 25.8022 12.9619C25.4984 11.9638 24.8842 11.1465 24.0972 10.583C23.9494 10.4771 23.9016 10.2838 23.9737 10.1243C23.9837 10.1021 23.996 10.0806 24.0107 10.06C24.1313 9.89168 24.3653 9.85268 24.5337 9.97309C25.4502 10.6294 26.1665 11.5822 26.52 12.7436C27.3741 15.5502 25.7914 18.5179 22.9849 19.372C20.1783 20.2262 17.2106 18.6434 16.3564 15.8369C15.5023 13.0303 17.085 10.0626 19.8916 9.20844ZM13.5 27.4819C13.293 27.4819 13.1251 27.6499 13.125 27.8569V32.3569C13.125 32.909 13.5628 33.3749 14.125 33.3749H15.375C15.9372 33.3749 16.375 32.909 16.375 32.3569V24.643C16.375 24.0909 15.9372 23.6249 15.375 23.6249H14.125C13.5628 23.6249 13.125 24.0909 13.125 24.643V25.2856C13.125 25.4927 13.2929 25.6606 13.5 25.6606C13.7071 25.6606 13.875 25.4927 13.875 25.2856V24.643C13.875 24.4851 13.9968 24.3749 14.125 24.3749H15.375C15.5032 24.3749 15.625 24.4851 15.625 24.643V32.3569C15.625 32.5148 15.5032 32.6249 15.375 32.6249H14.125C13.9968 32.6249 13.875 32.5148 13.875 32.3569V27.8569C13.8749 27.6499 13.707 27.4819 13.5 27.4819ZM19.875 33.3749C20.4411 33.3749 20.875 32.9021 20.875 32.35V27.1498C20.875 26.5978 20.441 26.1249 19.875 26.1249H18.625C18.059 26.1249 17.625 26.5978 17.625 27.1498V32.35C17.625 32.9021 18.059 33.3749 18.625 33.3749H19.875ZM24.375 33.3749C24.9025 33.3749 25.3751 32.9698 25.375 32.4164V23.0834C25.375 22.5302 24.9025 22.1249 24.375 22.1249H23.125C22.5975 22.1249 22.125 22.5302 22.125 23.0834V32.4164C22.125 32.9697 22.5975 33.3749 23.125 33.3749H24.375ZM20.1099 9.92572C20.427 9.82922 20.7463 9.76894 21.0635 9.74248V14.2905V18.8377C19.2548 18.6882 17.6343 17.4603 17.0737 15.6186C16.3402 13.2083 17.6995 10.6593 20.1099 9.92572ZM21.8135 18.8374C22.1306 18.8109 22.4498 18.7507 22.7666 18.6542C23.3813 18.4671 23.9277 18.1619 24.3884 17.7711L21.8135 15.1958V18.8374ZM25.9857 14.6655C25.9067 15.6184 25.5284 16.5191 24.9187 17.2399L22.3438 14.6655H25.9857ZM27.9414 36.3009C27.92 36.3223 27.8979 36.3427 27.875 36.3621V36.3439V33.3749V32.9999V32.9872C27.875 32.8517 27.9191 32.7264 27.9937 32.6249C28.1051 32.4734 28.2847 32.375 28.4873 32.3749H29.125H29.5H29.875H31.844H31.8674L27.9414 36.3009Z" fill="#BBBBBB"/>
<path d="M32.335 31.4493V7.37854C32.3349 7.04038 32.0603 6.76624 31.7222 6.76624H30.085H29.7097H29.335H10.9873C10.6492 6.76627 10.375 7.0404 10.375 7.37854V33.734V34.1088V34.484V36.0128C10.3751 36.3509 10.6492 36.6251 10.9873 36.6251H27.125H27.1592C27.4223 36.6251 27.6758 36.5312 27.875 36.3621C27.8979 36.3427 27.92 36.3223 27.9414 36.3009L31.8674 32.3749L32.0107 32.2316C32.173 32.0692 32.2799 31.8616 32.3187 31.6384C32.3294 31.5764 32.335 31.5131 32.335 31.4493ZM33.085 31.4493C33.085 31.9416 32.8891 32.4138 32.541 32.7618L28.4717 36.8312C28.1236 37.1793 27.6514 37.3751 27.1592 37.3751H10.9873C10.235 37.3751 9.62513 36.7651 9.625 36.0128V34.484V34.1088V33.734V7.37854C9.62503 6.62619 10.235 6.01627 10.9873 6.01624H29.335H29.7097H30.085H31.7222C32.4745 6.01624 33.0849 6.62617 33.085 7.37854V31.4493Z" fill="#BBBBBB"/>
<path fill-rule="evenodd" clip-rule="evenodd" d="M27 32.5011C27 32.7773 27.2239 32.9999 27.5 32.9999H27.875V32.9872C27.875 32.8517 27.9191 32.7264 27.9937 32.6249C28.1051 32.4734 28.2847 32.375 28.4873 32.3749H29.125H29.5V27.4999C29.5 27.2238 29.2761 26.9999 29 26.9999H27.5C27.2239 26.9999 27 27.2227 27 27.4989V32.5011Z" fill="#BBBBBB"/>
<path fill-rule="evenodd" clip-rule="evenodd" d="M27.5 26.6249C27.0178 26.6249 26.625 27.0147 26.625 27.499V31.7262V32.2566V32.5009C26.625 32.5878 26.6376 32.6716 26.6611 32.7506C26.7323 32.9899 26.9031 33.1857 27.125 33.2909C27.2387 33.3448 27.3659 33.3749 27.5 33.3749H27.875V32.9999V32.9872C27.875 32.8517 27.9191 32.7264 27.9937 32.6249H27.5C27.4298 32.6249 27.375 32.5688 27.375 32.5009V27.499C27.375 27.431 27.4299 27.3749 27.5 27.3749H29C29.069 27.3749 29.125 27.4309 29.125 27.4999V32.3749H29.5H29.875V31.6249V29.4154V27.4999C29.875 27.3088 29.8137 27.132 29.7097 26.9881C29.6154 26.8574 29.4858 26.7539 29.335 26.6913C29.2318 26.6486 29.1187 26.6249 29 26.6249H27.5Z" fill="#BBBBBB"/>
<path fill-rule="evenodd" clip-rule="evenodd" d="M27.5 36.7189V32.9873C27.5 32.442 27.9421 31.9999 28.4874 31.9999H32.219L31.844 32.3749H29.875H29.5H29.125H28.4873C28.2847 32.375 28.1051 32.4734 27.9937 32.6249C27.9191 32.7264 27.875 32.8517 27.875 32.9872V32.9999V33.3749V36.3439L27.5 36.7189Z" fill="#BBBBBB"/>
<path d="M27.125 36.7187V36.6251V33.2909V32.9872C27.125 32.2349 27.735 31.625 28.4873 31.6249H29.875H32.2188C32.2533 31.6249 32.2868 31.6296 32.3187 31.6384C32.4773 31.6821 32.5938 31.8274 32.5938 31.9999C32.5938 32.207 32.4259 32.3749 32.2188 32.3749H31.8674H31.844H29.875H29.5H29.125H28.4873C28.2847 32.375 28.1051 32.4734 27.9937 32.6249C27.9191 32.7264 27.875 32.8517 27.875 32.9872V32.9999V33.3749V36.3439V36.3621V36.7187C27.875 36.9258 27.7071 37.0937 27.5 37.0937C27.2929 37.0937 27.125 36.9258 27.125 36.7187Z" fill="#BBBBBB"/>
<path fill-rule="evenodd" clip-rule="evenodd" d="M24.3155 10.2781C25.1673 10.8881 25.8326 11.773 26.1612 12.8527C26.955 15.4612 25.484 18.2193 22.8756 19.0132C20.2672 19.807 17.5091 18.336 16.7152 15.7276C15.9213 13.1192 17.3923 10.361 20.0007 9.56719C20.8527 9.30791 21.7206 9.29023 22.5308 9.47487L22.8728 9.6288C22.8011 9.78839 22.6244 9.88064 22.4473 9.84027C22.2396 9.79297 22.0279 9.76004 21.8135 9.74227V13.9155H25.9854C25.959 13.5982 25.8987 13.2788 25.8022 12.9619C25.4984 11.9638 24.8842 11.1465 24.0972 10.583C23.9494 10.4771 23.9016 10.2838 23.9737 10.1243L24.3155 10.2781ZM20.1099 9.92572C20.427 9.82922 20.7463 9.76894 21.0635 9.74248V14.2905V18.8377C19.2548 18.6882 17.6343 17.4603 17.0737 15.6186C16.3402 13.2083 17.6995 10.6593 20.1099 9.92572ZM21.8135 18.8374C22.1306 18.8109 22.4498 18.7507 22.7666 18.6542C23.3813 18.4671 23.9277 18.1619 24.3884 17.7711L21.8135 15.1958V18.8374ZM25.9857 14.6655C25.9067 15.6184 25.5284 16.5191 24.9187 17.2399L22.3438 14.6655H25.9857Z" fill="#BBBBBB"/>
<path d="M19.8916 9.20844C20.8076 8.92965 21.742 8.91056 22.6143 9.10932C22.8161 9.15539 22.9424 9.35621 22.8965 9.55805C22.8908 9.58283 22.8829 9.60647 22.8728 9.6288C22.8011 9.78839 22.6244 9.88064 22.4473 9.84027C22.2396 9.79297 22.0279 9.76004 21.8135 9.74227C21.5663 9.72179 21.3156 9.72145 21.0635 9.74248C20.7463 9.76894 20.427 9.82922 20.1099 9.92572C17.6995 10.6593 16.3402 13.2083 17.0737 15.6186C17.6343 17.4603 19.2548 18.6882 21.0635 18.8377C21.3107 18.8582 21.5614 18.8584 21.8135 18.8374C22.1306 18.8109 22.4498 18.7507 22.7666 18.6542C23.3813 18.4671 23.9277 18.1619 24.3884 17.7711C24.5804 17.6081 24.7576 17.4303 24.9187 17.2399C25.5284 16.5191 25.9067 15.6184 25.9857 14.6655C26.0061 14.4182 26.0065 14.1675 25.9854 13.9155C25.959 13.5982 25.8987 13.2788 25.8022 12.9619C25.4984 11.9638 24.8842 11.1465 24.0972 10.583C23.9494 10.4771 23.9016 10.2838 23.9737 10.1243C23.9837 10.1021 23.996 10.0806 24.0107 10.06C24.1313 9.89168 24.3653 9.85268 24.5337 9.97309C25.4502 10.6294 26.1665 11.5822 26.52 12.7436C27.3741 15.5502 25.7914 18.5179 22.9849 19.372C20.1783 20.2262 17.2106 18.6434 16.3564 15.8369C15.5023 13.0303 17.085 10.0626 19.8916 9.20844Z" fill="#BBBBBB"/>
<path d="M21.0635 19.227V18.8377V14.2905V9.74248V9.35346C21.0635 9.14635 21.2314 8.97846 21.4385 8.97846C21.6456 8.97846 21.8135 9.14635 21.8135 9.35346V9.74227V13.9155V15.1958V18.8374V19.227C21.8135 19.4341 21.6456 19.602 21.4385 19.602C21.2314 19.602 21.0635 19.4341 21.0635 19.227Z" fill="#BBBBBB"/>
<path d="M21.1733 14.0253C21.3198 13.8789 21.5572 13.8789 21.7036 14.0253L22.3438 14.6655L24.9187 17.2399L25.1597 17.4809C25.3061 17.6273 25.3061 17.8652 25.1597 18.0117C25.0132 18.1581 24.7754 18.1581 24.6289 18.0117L24.3884 17.7711L21.8135 15.1958L21.1733 14.5556C21.0269 14.4092 21.0269 14.1718 21.1733 14.0253Z" fill="#BBBBBB"/>
<path d="M26.3755 13.9155C26.5825 13.9155 26.7505 14.0834 26.7505 14.2905C26.7505 14.4975 26.5825 14.6654 26.3755 14.6655H25.9857H22.3438H21.4385C21.2314 14.6655 21.0635 14.4976 21.0635 14.2905C21.0635 14.0834 21.2314 13.9155 21.4385 13.9155H21.8135H25.9854H26.3755Z" fill="#BBBBBB"/>
<path fill-rule="evenodd" clip-rule="evenodd" d="M13.5 27.4819V27.8571V32.3571C13.5 32.7121 13.7798 32.9999 14.125 32.9999H15.375C15.7202 32.9999 16 32.7121 16 32.3571V24.6428C16 24.2878 15.7202 23.9999 15.375 23.9999H14.125C13.7798 23.9999 13.5 24.2878 13.5 24.6428V25.2856V25.6606C13.7071 25.6606 13.875 25.4927 13.875 25.2856V24.643C13.875 24.4851 13.9968 24.3749 14.125 24.3749H15.375C15.5032 24.3749 15.625 24.4851 15.625 24.643V32.3569C15.625 32.5148 15.5032 32.6249 15.375 32.6249H14.125C13.9968 32.6249 13.875 32.5148 13.875 32.3569V27.8569C13.8749 27.6499 13.707 27.4819 13.5 27.4819Z" fill="#BBBBBB"/>
<path d="M13.125 32.3569V27.8569C13.1251 27.6499 13.293 27.4819 13.5 27.4819C13.707 27.4819 13.8749 27.6499 13.875 27.8569V32.3569C13.875 32.5148 13.9968 32.6249 14.125 32.6249H15.375C15.5032 32.6249 15.625 32.5148 15.625 32.3569V24.643C15.625 24.4851 15.5032 24.3749 15.375 24.3749H14.125C13.9968 24.3749 13.875 24.4851 13.875 24.643V25.2856C13.875 25.4927 13.7071 25.6606 13.5 25.6606C13.2929 25.6606 13.125 25.4927 13.125 25.2856V24.643C13.125 24.0909 13.5628 23.6249 14.125 23.6249H15.375C15.9372 23.6249 16.375 24.0909 16.375 24.643V32.3569C16.375 32.909 15.9372 33.3749 15.375 33.3749H14.125C13.5628 33.3749 13.125 32.909 13.125 32.3569Z" fill="#BBBBBB"/>
<path d="M19.875 32.9999H18.625C18.2798 32.9999 18 32.7089 18 32.35V27.1499C18 26.791 18.2798 26.4999 18.625 26.4999H19.875C20.2202 26.4999 20.5 26.791 20.5 27.1499V32.35C20.5 32.7089 20.2202 32.9999 19.875 32.9999Z" fill="#BBBBBB"/>
<path d="M20.125 27.1498C20.125 26.984 19.9993 26.8749 19.875 26.8749H18.625C18.5007 26.8749 18.375 26.984 18.375 27.1498V32.35C18.375 32.5158 18.5007 32.6249 18.625 32.6249H19.875C19.9994 32.6249 20.125 32.5159 20.125 32.35V27.1498ZM20.875 32.35C20.875 32.9021 20.4411 33.3749 19.875 33.3749H18.625C18.059 33.3749 17.625 32.9021 17.625 32.35V27.1498C17.625 26.5978 18.059 26.1249 18.625 26.1249H19.875C20.441 26.1249 20.875 26.5978 20.875 27.1498V32.35Z" fill="#BBBBBB"/>
<path d="M24.375 32.9999H23.125C22.7798 32.9999 22.5 32.7388 22.5 32.4166V23.0833C22.5 22.7611 22.7798 22.4999 23.125 22.4999H24.375C24.7202 22.4999 25 22.7611 25 23.0833V32.4166C25.0001 32.7388 24.7202 32.9999 24.375 32.9999Z" fill="#BBBBBB"/>
<path d="M24.625 23.0834C24.625 22.9923 24.5379 22.8749 24.375 22.8749H23.125C22.9621 22.8749 22.875 22.9923 22.875 23.0834V32.4164C22.875 32.5075 22.9621 32.6249 23.125 32.6249H24.375C24.5379 32.6249 24.6249 32.5079 24.625 32.4169V23.0834ZM25.375 32.4164C25.3751 32.9698 24.9025 33.3749 24.375 33.3749H23.125C22.5975 33.3749 22.125 32.9697 22.125 32.4164V23.0834C22.125 22.5302 22.5975 22.1249 23.125 22.1249H24.375C24.9025 22.1249 25.375 22.5302 25.375 23.0834V32.4164Z" fill="#BBBBBB"/>
<path fill-rule="evenodd" clip-rule="evenodd" d="M9.625 34.1088V34.484H7.9873C7.23501 34.484 6.62513 33.874 6.625 33.1217V4.48743C6.62503 3.73507 7.23495 3.12515 7.9873 3.12512H28.7222C29.4745 3.12512 30.0849 3.73505 30.085 4.48743V6.01624H29.7097H29.335H10.9873C10.235 6.01627 9.62503 6.62619 9.625 7.37854V33.734V34.1088Z" fill="#BBBBBB"/>
</g>
<defs>
<clipPath id="clip0_81523_13728">
<rect width="40" height="40" fill="white"/>
</clipPath>
</defs>
</svg>
