<svg width="40" height="40" viewBox="0 0 40 40" fill="none" xmlns="http://www.w3.org/2000/svg">
<g clip-path="url(#clip0_81523_14296)">
<mask id="mask0_81523_14296" style="mask-type:luminance" maskUnits="userSpaceOnUse" x="0" y="0" width="40" height="40">
<path d="M40 0H0V40H40V0Z" fill="white"/>
</mask>
<g mask="url(#mask0_81523_14296)">
<path fill-rule="evenodd" clip-rule="evenodd" d="M35.9687 24.7963C35.0015 24.5581 33.9672 24.3461 32.8802 24.1615C33.2733 22.5705 33.4778 20.888 33.4778 19.1638C33.4778 17.4397 33.2733 15.7573 32.8802 14.1662C33.9671 13.9816 35.0014 13.7696 35.9687 13.5314C36.1781 13.4798 36.3061 13.2682 36.2546 13.0588C36.203 12.8493 35.9915 12.7211 35.7818 12.7729C34.8108 13.012 33.7709 13.2245 32.6765 13.4087C32.0952 11.4073 31.2077 9.56952 30.0456 8.00162C29.9683 7.89742 29.89 7.79517 29.811 7.69422C30.3172 7.59977 30.8039 7.49642 31.2667 7.38397C31.4764 7.33312 31.605 7.12187 31.5541 6.91217C31.5031 6.70257 31.292 6.57377 31.0823 6.62482C30.5023 6.76572 29.8839 6.89232 29.2346 7.00422C27.1081 4.61672 24.4472 3.31641 21.6307 3.31641C18.8142 3.31641 16.1532 4.61672 14.0269 7.00422C13.3776 6.89232 12.7592 6.76572 12.1792 6.62482C11.9695 6.57377 11.7583 6.70267 11.7074 6.91217C11.6564 7.12187 11.7851 7.33312 11.9948 7.38397C12.4576 7.49642 12.9442 7.59977 13.4505 7.69422C13.3715 7.79517 13.2931 7.89742 13.2159 8.00162C12.0538 9.56952 11.1663 11.4073 10.5849 13.4087C9.49048 13.2244 8.45058 13.012 7.47963 12.7729C7.27008 12.7213 7.05853 12.8493 7.00688 13.0588C6.95533 13.2682 7.08333 13.4798 7.29278 13.5314C8.25993 13.7696 9.29433 13.9816 10.3813 14.1662C9.98813 15.7572 9.78363 17.4397 9.78363 19.1638C9.78363 20.888 9.98813 22.5705 10.3813 24.1615C9.29433 24.3461 8.25993 24.5581 7.29278 24.7963C7.08333 24.8478 6.95533 25.0595 7.00688 25.2689C7.01695 25.3098 7.03309 25.3475 7.05411 25.3815C7.20685 25.1949 7.44356 25.0751 7.70933 25.0751H9.70642C9.95942 25.0277 10.2157 24.9818 10.4751 24.9375V24.5538C10.4751 24.181 10.7384 23.8674 11.0956 23.7764C10.7512 22.3221 10.5649 20.772 10.5649 19.1638C10.5649 17.4596 10.7741 15.8208 11.1589 14.292C12.9273 14.565 14.8216 14.7677 16.788 14.894C16.6715 16.2663 16.611 17.6998 16.611 19.1638C16.611 20.6277 16.6715 22.0613 16.788 23.4336C15.0723 23.5437 13.4115 23.7121 11.8414 23.9345C12.0259 24.082 12.1435 24.3046 12.1435 24.5538V24.6807C13.6437 24.4734 15.2268 24.3159 16.8608 24.2116C17.0831 26.3852 17.4499 28.383 17.9449 30.0738C16.68 30.1643 15.4656 30.3011 14.3345 30.4809C14.0886 30.1867 13.8523 29.8779 13.6265 29.5555C13.4936 29.7845 13.3428 30.0226 13.172 30.2664C13.1866 30.2863 13.2012 30.3061 13.2159 30.3259C13.2931 30.4302 13.3714 30.5324 13.4505 30.6334C13.2306 30.6744 13.0144 30.7171 12.8023 30.7615C12.767 30.8058 12.7311 30.8503 12.6945 30.8948C12.9002 31.0802 13.122 31.2642 13.3612 31.4454C13.5792 31.4029 13.8012 31.3623 14.0269 31.3234C14.48 31.8322 14.9575 32.2916 15.4555 32.6996C15.692 32.8933 15.9332 33.0755 16.1787 33.2458C17.8415 34.3998 19.6995 35.0112 21.6307 35.0112C24.4472 35.0112 27.1082 33.7109 29.2346 31.3234C29.8839 31.4352 30.5022 31.5619 31.0823 31.7027C31.1132 31.7103 31.1442 31.7139 31.1748 31.7139C31.3508 31.7139 31.5106 31.5941 31.5541 31.4155C31.605 31.2058 31.4764 30.9945 31.2667 30.9437C30.8039 30.8313 30.3172 30.7279 29.811 30.6334C29.8899 30.5325 29.9683 30.4302 30.0456 30.326C31.2077 28.7581 32.0952 26.9203 32.6765 24.919C33.771 25.1033 34.8109 25.3157 35.7818 25.5548C35.8132 25.5627 35.8446 25.5663 35.8756 25.5663C36.0511 25.5663 36.2107 25.4471 36.2546 25.2689C36.3062 25.0595 36.1782 24.8478 35.9687 24.7963ZM12.1867 28.7432C12.2456 28.6402 12.3024 28.536 12.3568 28.4304C12.4535 28.2427 12.5382 28.06 12.6124 27.8842C12.4099 27.497 12.2204 27.0962 12.0449 26.6831H11.194C11.4829 27.3998 11.8144 28.0884 12.1867 28.7432ZM32.6967 19.1638C32.6967 20.8679 32.4874 22.5067 32.1027 24.0355C30.619 23.8065 29.0466 23.6269 27.4174 23.5004L27.7451 24.3104C29.1841 24.4302 30.5749 24.5921 31.8945 24.7936C31.241 26.9941 30.2166 28.9379 28.9271 30.4809C27.7959 30.3011 26.5815 30.1643 25.3167 30.0738C25.7643 28.5449 26.107 26.7652 26.3329 24.8313L25.703 23.2748L25.6935 23.388C24.3628 23.3169 23.0031 23.2802 21.6307 23.2802C20.2584 23.2802 18.8988 23.3169 17.5679 23.388C17.5308 22.9522 17.4993 22.5101 17.4738 22.0624C17.4206 21.1289 17.393 20.1717 17.3923 19.2002L17.3923 19.1637C17.3923 17.7136 17.4523 16.2952 17.5679 14.9395C18.0714 14.9664 18.579 14.9883 19.0898 15.0053L19.4021 14.2336C18.8104 14.2163 18.223 14.1921 17.6411 14.1613C17.8642 11.9948 18.2331 10.0109 18.7317 8.34632C18.736 8.33217 18.7403 8.31842 18.7446 8.30437C19.6875 8.35647 20.6539 8.38337 21.6307 8.38337C22.6076 8.38337 23.5739 8.35647 24.5169 8.30437L24.5298 8.34632C25.0283 10.0109 25.3972 11.9948 25.6203 14.1613C24.9764 14.1953 24.3255 14.2213 23.6696 14.2389L23.9822 15.0113C24.557 14.9937 25.1279 14.9697 25.6935 14.9395C25.8092 16.2952 25.8692 17.7136 25.8692 19.1637C25.8692 19.3324 25.8684 19.5007 25.8668 19.6685L26.5994 21.4791C26.6332 20.7191 26.6505 19.9458 26.6505 19.1638C26.6505 17.6998 26.59 16.2663 26.4735 14.894C28.4399 14.7678 30.3342 14.5651 32.1027 14.292C32.4874 15.8208 32.6967 17.4596 32.6967 19.1638ZM24.517 30.0232C23.574 29.9711 22.6077 29.9442 21.6308 29.9442C20.6539 29.9442 19.6876 29.9711 18.7446 30.0232L18.7317 29.9813C18.2332 28.3167 17.8643 26.3328 17.6412 24.1663C18.9478 24.0972 20.2828 24.0615 21.6308 24.0615C22.9788 24.0615 24.3138 24.0972 25.6204 24.1663C25.3973 26.3328 25.0284 28.3167 24.5299 29.9813L24.5247 29.998C24.5221 30.0064 24.5195 30.0147 24.517 30.0232ZM21.6307 34.2299C20.7205 34.2299 19.7583 32.9606 18.9953 30.7921C19.8577 30.7482 20.7395 30.7256 21.6307 30.7256C22.522 30.7256 23.4038 30.7482 24.2662 30.7921C23.5032 32.9606 22.541 34.2299 21.6307 34.2299ZM21.6307 15.0473C21.8784 15.0473 22.1256 15.0461 22.3723 15.0437L22.0571 14.265C21.9152 14.2658 21.773 14.2662 21.6307 14.2662C21.4245 14.2662 21.2185 14.2653 21.0129 14.2637L20.6981 15.0416C21.0082 15.0454 21.3191 15.0473 21.6307 15.0473ZM21.6307 4.09766C22.541 4.09766 23.5031 5.36697 24.2662 7.53547C23.4038 7.57937 22.522 7.60202 21.6307 7.60202C20.7395 7.60202 19.8577 7.57937 18.9953 7.53547C19.7584 5.36697 20.7205 4.09766 21.6307 4.09766ZM31.8946 13.5339C30.1679 13.7976 28.3195 13.9934 26.4007 14.1159C26.1785 11.9423 25.8117 9.94452 25.3167 8.25367C26.5815 8.16322 27.7959 8.02642 28.9271 7.84662C30.2166 9.38967 31.241 11.3335 31.8946 13.5339ZM28.3019 7.15147C27.2823 7.29877 26.1995 7.41157 25.0767 7.48742C24.6014 6.07142 24.0542 5.00312 23.4499 4.30235C25.2503 4.70953 26.9051 5.71002 28.3019 7.15147ZM19.8116 4.30242C19.2074 5.00322 18.6601 6.07142 18.1849 7.48752C17.0621 7.41162 15.9792 7.29882 14.9596 7.15157C16.3564 5.71002 18.0112 4.70953 19.8116 4.30242ZM14.3345 7.84672C15.4656 8.02647 16.68 8.16327 17.9449 8.25377C17.4499 9.94462 17.0831 11.9423 16.8608 14.1159C14.9421 13.9935 13.0937 13.7977 11.367 13.534C12.0205 11.3335 13.0449 9.38967 14.3345 7.84672ZM14.9596 31.1761C15.9792 31.0288 17.0621 30.916 18.1849 30.8402C18.66 32.2562 19.2074 33.3245 19.8116 34.0252C18.0112 33.618 16.3564 32.6175 14.9596 31.1761ZM23.4499 34.0252C24.0541 33.3244 24.6014 32.2561 25.0767 30.8401C26.1995 30.9159 27.2823 31.0288 28.3019 31.176C26.9051 32.6175 25.2503 33.618 23.4499 34.0252Z" fill="#8C8C8C"/>
<path fill-rule="evenodd" clip-rule="evenodd" d="M17.3923 19.2002C17.393 20.1717 17.4206 21.1289 17.4738 22.0624H17.4836C17.6061 22.0624 17.7243 22.0813 17.8353 22.1163L17.8662 22.0402C17.9457 21.8437 18.1365 21.7151 18.3484 21.7151H24.7212C24.9332 21.7151 25.124 21.8437 25.2035 22.0402L25.703 23.2748L26.3329 24.8313L26.5437 25.3523C26.6594 25.638 26.9333 25.8227 27.2415 25.8227C27.3379 25.8227 27.4326 25.8041 27.5233 25.7675C27.7096 25.692 27.8554 25.5487 27.9337 25.3637C28.012 25.1787 28.0137 24.9743 27.9384 24.7879L27.7451 24.3104L27.4174 23.5004L26.5994 21.4791L25.8668 19.6685L23.9822 15.0113L23.6696 14.2389L22.2552 10.7436C22.4567 10.882 22.6186 11.0785 22.7144 11.3152L28.4206 25.4165C28.6842 26.0679 28.3698 26.8097 27.7183 27.0734C27.5621 27.1367 27.4004 27.1666 27.2415 27.1666C26.7383 27.1666 26.2619 26.8663 26.0615 26.3712L24.7211 23.059H18.3483L17.008 26.3712C16.7443 27.0226 16.0022 27.337 15.3511 27.0733C15.1389 26.9874 14.9624 26.8508 14.8301 26.6831H15.046H15.4155C15.8763 26.6831 16.2497 26.3231 16.2497 25.8791C16.2497 25.8197 16.2431 25.7618 16.2304 25.7061C16.1483 25.3452 15.8146 25.0751 15.4155 25.0751H15.0758H14.7871L20.3553 11.3152C20.4511 11.0785 20.6129 10.882 20.8144 10.7436L19.4021 14.2336L19.0898 15.0053L17.3923 19.2002ZM22.0571 14.265L22.3723 15.0437L24.1736 19.4951C24.2385 19.6555 24.2193 19.8375 24.1227 19.981C24.0261 20.1244 23.8643 20.2104 23.6913 20.2104H23.5685L21.5348 15.1847L19.5011 20.2104H19.3782C19.2052 20.2104 19.0436 20.1244 18.9469 19.981C18.8502 19.8376 18.8311 19.6555 18.896 19.4951L20.6981 15.0416L21.0129 14.2637L21.0526 14.1658C21.1321 13.9693 21.3229 13.8407 21.5348 13.8407C21.7467 13.8407 21.9375 13.9693 22.017 14.1658L22.0571 14.265Z" fill="#8C8C8C"/>
<path fill-rule="evenodd" clip-rule="evenodd" d="M15.8285 26.8637C15.6009 26.8638 15.3732 26.8198 15.1559 26.7318C15.1186 26.7167 15.0819 26.7004 15.046 26.6831H15.4155C15.8763 26.6831 16.2497 26.3231 16.2497 25.8791C16.2497 25.8197 16.2431 25.7618 16.2304 25.7061C16.3629 25.6227 16.4658 25.5003 16.5258 25.3523L17.8353 22.1163L17.8662 22.0402C17.9457 21.8437 18.1365 21.7151 18.3484 21.7151H24.7212C24.9332 21.7151 25.124 21.8437 25.2035 22.0402L25.703 23.2748L26.3329 24.8313L26.5437 25.3523C26.6594 25.638 26.9333 25.8227 27.2415 25.8227C27.3379 25.8227 27.4326 25.8041 27.5233 25.7675C27.7096 25.692 27.8554 25.5487 27.9337 25.3637C28.012 25.1787 28.0137 24.9743 27.9384 24.7879L27.7451 24.3104L27.4174 23.5004L26.5994 21.4791L25.8668 19.6685L23.9822 15.0113L23.6696 14.2389L22.2552 10.7436L22.2322 10.6866C22.1166 10.4011 21.8428 10.2166 21.5348 10.2166C21.2267 10.2166 20.9531 10.401 20.8375 10.6866L20.8144 10.7436L19.4021 14.2336L19.0898 15.0053L17.3923 19.2002L15.1312 24.7879C15.0936 24.8807 15.0752 24.978 15.0758 25.0751H14.7871H14.0348C14.0342 24.8459 14.0781 24.6165 14.1667 24.3977L19.873 10.2964C20.1484 9.6158 20.8007 9.17615 21.5348 9.17615C22.2689 9.17615 22.9211 9.6158 23.1966 10.2963L28.9028 24.3977C29.0825 24.8416 29.0786 25.3288 28.8917 25.7696C28.7049 26.2106 28.3576 26.5523 27.9136 26.7319C27.6985 26.819 27.4724 26.8631 27.2416 26.8631C26.5073 26.8631 25.8549 26.4232 25.5794 25.7426L24.3706 22.7555H18.6991L17.4903 25.7426C17.3106 26.1864 16.9688 26.5338 16.5279 26.7207C16.3029 26.8161 16.0658 26.8637 15.8285 26.8637Z" fill="#8C8C8C"/>
<path d="M19.3782 20.2104H19.5011H23.5685H23.6913C23.8643 20.2104 24.0261 20.1244 24.1227 19.981C24.2193 19.8375 24.2385 19.6555 24.1736 19.4951L22.3723 15.0437L22.0571 14.265L22.017 14.1658C21.9375 13.9693 21.7467 13.8407 21.5348 13.8407C21.3229 13.8407 21.1321 13.9693 21.0526 14.1658L21.0129 14.2637L20.6981 15.0416L18.896 19.4951C18.8311 19.6555 18.8502 19.8376 18.9469 19.981C19.0436 20.1244 19.2052 20.2104 19.3782 20.2104ZM21.5348 15.7477L22.9197 19.17H20.1499L21.5348 15.7477Z" fill="#8C8C8C"/>
<path fill-rule="evenodd" clip-rule="evenodd" d="M17.4836 36.0588H5.44043C5.00893 36.0588 4.65918 35.7091 4.65918 35.2776V23.2344C4.65918 22.8029 5.00893 22.4531 5.44043 22.4531H17.4836C17.9151 22.4531 18.2649 22.8029 18.2649 23.2344V35.2776C18.2649 35.7091 17.9151 36.0588 17.4836 36.0588ZM12.6124 27.8842C12.8059 27.4258 12.928 27.0139 13.0051 26.6831H12.0449H11.194H7.70933C7.24868 26.6831 6.87518 26.3231 6.87518 25.8791C6.87518 25.6912 6.94205 25.5183 7.05411 25.3815C7.20685 25.1949 7.44356 25.0751 7.70933 25.0751H9.70642H10.4751V24.9375V24.5538C10.4751 24.181 10.7384 23.8674 11.0956 23.7764C11.1638 23.759 11.2354 23.7498 11.3093 23.7498C11.5115 23.7498 11.697 23.8191 11.8414 23.9345C12.0259 24.082 12.1435 24.3046 12.1435 24.5538V24.6807V25.0751H14.0348H14.7871H15.0758H15.4155C15.8146 25.0751 16.1483 25.3452 16.2304 25.7061C16.2431 25.7618 16.2497 25.8197 16.2497 25.8791C16.2497 26.3231 15.8763 26.6831 15.4155 26.6831H15.046H14.8301H14.7068C14.5995 27.2613 14.3729 28.1089 13.8943 29.0606C13.8143 29.2197 13.7253 29.3851 13.6265 29.5555C13.4936 29.7845 13.3428 30.0226 13.172 30.2664C13.0579 30.4292 12.9349 30.5946 12.8023 30.7615C12.767 30.8058 12.7311 30.8503 12.6945 30.8948C12.9002 31.0802 13.122 31.2642 13.3612 31.4454C13.948 31.8895 14.6398 32.3159 15.4555 32.6996C15.692 32.8933 15.9332 33.0755 16.1787 33.2458C16.2714 33.4486 16.2773 33.6873 16.1741 33.9048C16.034 34.2003 15.7313 34.3748 15.4148 34.3748C15.2989 34.3748 15.1811 34.3513 15.0687 34.3019C13.597 33.6537 12.4526 32.8778 11.5622 32.0767C10.6737 32.8761 9.52918 33.6531 8.05598 34.3019C7.94358 34.3513 7.82573 34.3748 7.70983 34.3748C7.39328 34.3748 7.09068 34.2003 6.95053 33.9048C6.75908 33.5009 6.94358 33.0238 7.36258 32.8393C8.56183 32.3111 9.58693 31.6623 10.4341 30.9003C9.86018 30.2022 9.45263 29.5225 9.16533 28.9287C8.97063 28.5262 9.15128 28.0479 9.56883 27.8602C9.98628 27.6727 10.4827 27.8466 10.6774 28.2491C10.8873 28.6828 11.1745 29.1713 11.5647 29.6784C11.793 29.3793 12.0009 29.0678 12.1867 28.7432C12.2456 28.6402 12.3024 28.536 12.3568 28.4304C12.4535 28.2427 12.5382 28.06 12.6124 27.8842Z" fill="#8C8C8C"/>
<path d="M21.6307 3.31641C25.2187 3.31641 28.6025 4.4854 31.416 6.69737C35.2687 9.72502 37.4785 14.2689 37.4785 19.1638C37.4785 24.0586 35.2687 28.6024 31.4159 31.6303C28.6023 33.8422 25.2186 35.0112 21.6307 35.0112C20.6303 35.0112 19.631 34.9165 18.6555 34.7313V35.2776C18.6555 35.9238 18.1298 36.4495 17.4836 36.4495H14.862C14.6463 36.4495 14.4714 36.2746 14.4714 36.0588C14.4714 35.8431 14.6463 35.6682 14.862 35.6682H17.4836C17.699 35.6682 17.8743 35.493 17.8743 35.2776V23.2343C17.8743 23.0189 17.699 22.8437 17.4836 22.8437H5.44043C5.22503 22.8437 5.04983 23.0189 5.04983 23.2343V35.2776C5.04983 35.493 5.22503 35.6682 5.44043 35.6682H12.6113C12.827 35.6682 13.0019 35.8431 13.0019 36.0588C13.0019 36.2746 12.827 36.4495 12.6113 36.4495H5.44043C4.79426 36.4495 4.26855 35.9238 4.26855 35.2776V23.2343C4.26855 22.5881 4.79426 22.0624 5.44043 22.0624H17.4738H17.4836C17.6061 22.0624 17.7243 22.0813 17.8353 22.1163C18.3102 22.266 18.6555 22.7106 18.6555 23.2343L18.6554 33.9356C19.6289 34.1305 20.6292 34.2299 21.6307 34.2299C25.0418 34.2299 28.2585 33.1188 30.933 31.0161C34.5961 28.1373 36.6971 23.8173 36.6971 19.1638C36.6971 14.5102 34.5962 10.1902 30.9331 7.31157C28.2585 5.20882 25.0419 4.09766 21.6307 4.09766C18.2195 4.09766 15.0028 5.20882 12.3283 7.31147C8.66518 10.1902 6.56428 14.5102 6.56428 19.1638C6.56428 19.5318 6.57933 19.9183 6.60903 20.3126C6.62528 20.5277 6.46393 20.7152 6.24888 20.7315C6.03318 20.7467 5.84623 20.5863 5.83003 20.3713C5.79888 19.9576 5.78308 19.5513 5.78308 19.1638C5.78308 14.2689 7.99283 9.72507 11.8457 6.69727C14.6591 4.4854 18.0427 3.31641 21.6307 3.31641Z" fill="#8C8C8C"/>
<path fill-rule="evenodd" clip-rule="evenodd" d="M15.4555 32.6996C15.692 32.8933 15.9332 33.0755 16.1787 33.2458C16.0991 33.0719 15.9557 32.9244 15.7622 32.8392C15.6581 32.7933 15.5559 32.7468 15.4555 32.6996Z" fill="#8C8C8C"/>
</g>
</g>
<defs>
<clipPath id="clip0_81523_14296">
<rect width="40" height="40" fill="white"/>
</clipPath>
</defs>
</svg>
