<svg width="40" height="40" viewBox="0 0 40 40" fill="none" xmlns="http://www.w3.org/2000/svg">
<g clip-path="url(#clip0_81523_13825)">
<mask id="mask0_81523_13825" style="mask-type:luminance" maskUnits="userSpaceOnUse" x="0" y="0" width="40" height="40">
<path d="M40 0H0V40H40V0Z" fill="white"/>
</mask>
<g mask="url(#mask0_81523_13825)">
<path fill-rule="evenodd" clip-rule="evenodd" d="M17.0949 17.4744C16.8264 17.71 16.6532 18.0515 16.6403 18.4336L17.2759 20.0044C17.4828 20.5155 17.9727 20.8458 18.5242 20.8458C18.6974 20.8458 18.8672 20.8127 19.0288 20.7473C19.3621 20.6125 19.6229 20.3558 19.7632 20.0248C19.9035 19.6937 19.9065 19.3279 19.7716 18.9945L19.0222 17.1428H18.1794L18.8321 18.7556L19.0474 19.2876C19.1039 19.4275 19.1027 19.581 19.0438 19.7199C18.985 19.8588 18.8756 19.9665 18.7356 20.0231C18.6676 20.0506 18.5964 20.0646 18.5241 20.0646C18.4139 20.0646 18.3095 20.0331 18.221 19.977C18.1237 19.9153 18.0456 19.8237 18.0001 19.7114L17.0949 17.4744ZM16.6395 33.0319V22.4273H20.4963H21.5151C22.0366 22.4273 22.4609 22.003 22.4609 21.4815V20.7642V17.1428H32.5286C33.2669 17.1428 33.8653 17.7412 33.8653 18.4795V33.0319C33.8653 33.7701 33.2669 34.3686 32.5286 34.3686H17.9763C17.238 34.3686 16.6395 33.7701 16.6395 33.0319ZM22.7804 22.6559H27.1178C26.9969 23.1945 26.7781 23.9154 26.3827 24.7115C26.1263 25.2276 25.8255 25.7164 25.4845 26.1798C25.042 25.5833 24.7164 25.0086 24.4785 24.4983C24.2577 24.0248 23.6948 23.8201 23.2214 24.0408C22.748 24.2615 22.5431 24.8243 22.7639 25.2978C23.0897 25.9964 23.5518 26.7961 24.2026 27.6174C23.242 28.5139 22.0796 29.2771 20.7198 29.8985C20.2447 30.1156 20.0355 30.6769 20.2526 31.152C20.4115 31.4997 20.7546 31.705 21.1135 31.705C21.2449 31.705 21.3786 31.6774 21.506 31.6192C23.1765 30.8559 24.4742 29.9419 25.4817 29.0014C26.4913 29.9439 27.7889 30.8566 29.4576 31.6192C29.585 31.6774 29.7187 31.705 29.8502 31.705C30.209 31.705 30.5522 31.4997 30.7111 31.152C30.9284 30.6768 30.7192 30.1155 30.2441 29.8984C28.7749 29.2271 27.641 28.4295 26.7656 27.6109C27.3712 26.8462 27.8104 26.1043 28.126 25.453C28.6687 24.3333 28.9256 23.3361 29.0474 22.6559H29.851C30.3734 22.6559 30.7968 22.2324 30.7968 21.7101C30.7968 21.1876 30.3733 20.7642 29.851 20.7642H26.1408V20.1508C26.1408 19.6284 25.7173 19.205 25.1949 19.205C24.6725 19.205 24.2491 19.6285 24.2491 20.1508V20.7642H23.2423V21.4815C23.2423 21.9346 23.0669 22.3475 22.7804 22.6559Z" fill="#BBBBBB"/>
<path fill-rule="evenodd" clip-rule="evenodd" d="M18.221 19.977C18.362 20.1886 18.6028 20.328 18.8762 20.328C19.3107 20.328 19.663 19.9757 19.663 19.5412C19.663 19.1066 19.3107 18.7544 18.8762 18.7544C18.8614 18.7544 18.8467 18.7548 18.8321 18.7556L19.0474 19.2876C19.1039 19.4275 19.1027 19.581 19.0438 19.7199C18.985 19.8588 18.8756 19.9665 18.7356 20.0231C18.6676 20.0506 18.5964 20.0646 18.5241 20.0646C18.4139 20.0646 18.3095 20.0331 18.221 19.977Z" fill="#BBBBBB"/>
<path d="M31.6287 20.328C32.0632 20.328 32.4155 19.9757 32.4155 19.5412C32.4155 19.1066 32.0632 18.7544 31.6287 18.7544C31.1942 18.7544 30.8419 19.1066 30.8419 19.5412C30.8419 19.9757 31.1942 20.328 31.6287 20.328Z" fill="#BBBBBB"/>
<path fill-rule="evenodd" clip-rule="evenodd" d="M21.113 22.6559C20.8774 22.6559 20.6619 22.5698 20.4963 22.4273H21.5151C22.0366 22.4273 22.4609 22.003 22.4609 21.4815V20.7642H23.2423V21.4815C23.2423 21.9346 23.0669 22.3475 22.7804 22.6559H21.113Z" fill="#BBBBBB"/>
<path fill-rule="evenodd" clip-rule="evenodd" d="M6.96251 22.8179H21.5152C22.2533 22.8179 22.8517 22.2196 22.8517 21.4815V6.92881C22.8517 6.19066 22.2533 5.59231 21.5152 5.59231H6.96251C6.22436 5.59231 5.62601 6.19066 5.62601 6.92881V21.4815C5.62601 22.2196 6.22436 22.8179 6.96251 22.8179ZM16.6403 18.4336L17.2759 20.0044C17.4828 20.5155 17.9727 20.8458 18.5242 20.8458C18.6974 20.8458 18.8672 20.8127 19.0288 20.7473C19.3621 20.6125 19.6229 20.3558 19.7632 20.0248C19.9035 19.6937 19.9065 19.3279 19.7716 18.9945L19.0222 17.1428L15.4867 8.40566C15.2799 7.89476 14.7901 7.56456 14.2388 7.56456C13.6876 7.56456 13.1978 7.89476 12.991 8.40576L8.70611 18.9945C8.57116 19.3279 8.57421 19.6937 8.71446 20.0248C8.85466 20.3559 9.11571 20.6124 9.44891 20.7473C9.61201 20.8133 9.78306 20.8464 9.95396 20.8463C10.1321 20.8463 10.3102 20.8105 10.4792 20.7389C10.8102 20.5986 11.0669 20.3377 11.2018 20.0044L12.1095 17.7614H16.3683L16.6403 18.4336ZM22.4609 17.1428V20.7642V21.4815C22.4609 22.003 22.0366 22.4273 21.5151 22.4273H20.4963H16.6395H6.9625C6.4409 22.4273 6.0166 22.003 6.0166 21.4815V6.92881C6.0166 6.40721 6.4409 5.98291 6.9625 5.98291H21.5151C22.0366 5.98291 22.4609 6.40721 22.4609 6.92881V17.1428ZM8.64936 7.95521C8.64936 8.38976 8.29711 8.74201 7.86256 8.74201C7.42806 8.74201 7.07576 8.38976 7.07576 7.95521C7.07576 7.52066 7.42806 7.16841 7.86256 7.16841C8.29711 7.16841 8.64936 7.52066 8.64936 7.95521ZM21.4019 7.95521C21.4019 8.38976 21.0496 8.74201 20.6151 8.74201C20.1806 8.74201 19.8283 8.38976 19.8283 7.95521C19.8283 7.52066 20.1806 7.16841 20.6151 7.16841C21.0496 7.16841 21.4019 7.52066 21.4019 7.95521ZM18.8321 18.7556L18.1794 17.1428L14.7625 8.69881C14.6757 8.48441 14.4702 8.34581 14.2388 8.34581C14.0075 8.34581 13.802 8.48436 13.7152 8.69881L9.43031 19.2876C9.37376 19.4275 9.37501 19.581 9.43381 19.72C9.49271 19.8589 9.60216 19.9666 9.74201 20.0231C9.88186 20.0798 10.0354 20.0784 10.1743 20.0196C10.3132 19.9607 10.4209 19.8512 10.4776 19.7114L11.4841 17.2243C11.5438 17.0767 11.687 16.9801 11.8462 16.9801H16.6316C16.7907 16.9801 16.934 17.0767 16.9937 17.2243L17.0949 17.4744L18.0001 19.7114C18.0456 19.8237 18.1237 19.9153 18.221 19.977C18.3095 20.0331 18.4139 20.0646 18.5241 20.0646C18.5964 20.0646 18.6676 20.0506 18.7356 20.0231C18.8756 19.9665 18.985 19.8588 19.0438 19.7199C19.1027 19.581 19.1039 19.4275 19.0474 19.2876L18.8321 18.7556ZM15.8582 15.8504C15.9881 15.8504 16.1095 15.7858 16.1821 15.6781C16.2547 15.5704 16.2691 15.4337 16.2203 15.3133L14.6009 11.3115C14.5413 11.1639 14.398 11.0673 14.2388 11.0673C14.0797 11.0673 13.9364 11.1639 13.8767 11.3115L12.2573 15.3133C12.2086 15.4337 12.223 15.5705 12.2956 15.6781C12.3681 15.7858 12.4895 15.8504 12.6195 15.8504H15.8582ZM14.2388 12.4993L15.2788 15.0691H13.1989L14.2388 12.4993Z" fill="#BBBBBB"/>
<path d="M32.5288 16.7522H32.3695C31.7956 14.5671 30.6487 12.569 29.037 10.9583C27.4256 9.34786 25.4274 8.20201 23.2423 7.62916V6.92881C23.2423 5.97646 22.4675 5.20166 21.5152 5.20166H6.9625C6.01015 5.20166 5.23535 5.97646 5.23535 6.92881V21.4815C5.23535 22.4338 6.01015 23.2086 6.9625 23.2086H7.6209C8.73395 27.5065 12.0015 30.9216 16.2491 32.2255V33.032C16.2491 33.9844 17.0238 34.7591 17.9762 34.7591H32.5288C33.4811 34.7591 34.2559 33.9844 34.2559 33.032V18.4794C34.2559 17.527 33.4811 16.7522 32.5288 16.7522ZM31.5603 16.7522H29.4141C28.4164 13.8654 26.1344 11.5832 23.2423 10.5847V8.43831C27.241 9.56366 30.4331 12.7541 31.5603 16.7522ZM6.0166 21.4815V6.92881C6.0166 6.40721 6.4409 5.98291 6.9625 5.98291H21.5151C22.0366 5.98291 22.4609 6.40721 22.4609 6.92881V17.1428V20.7642V21.4815C22.4609 22.003 22.0366 22.4273 21.5151 22.4273H20.4963H16.6395H6.9625C6.4409 22.4273 6.0166 22.003 6.0166 21.4815ZM8.4293 23.2086H16.249V28.3719C14.5034 27.5863 13.0288 26.2627 12.0593 24.5942C11.9509 24.4076 11.7119 24.3444 11.5253 24.4527C11.3388 24.5611 11.2755 24.8002 11.3838 24.9867C12.4941 26.8975 14.2153 28.3916 16.2491 29.2217V31.4061C12.4369 30.1519 9.50035 27.0745 8.4293 23.2086ZM33.4747 33.032C33.4747 33.5536 33.0504 33.9779 32.5288 33.9779H17.9762C17.4546 33.9779 17.0303 33.5536 17.0303 33.032V23.2086H21.5152C22.0144 23.2086 22.4648 22.9957 22.7804 22.6559C23.0669 22.3475 23.2423 21.9346 23.2423 21.4815V20.7642V11.4154C25.7021 12.3469 27.652 14.2967 28.5832 16.7522H23.2423C23.0266 16.7522 22.8517 16.9271 22.8517 17.1428C22.8517 17.3585 23.0266 17.5334 23.2423 17.5334H32.5288C33.0504 17.5334 33.4747 17.9577 33.4747 18.4793V33.032Z" fill="#BBBBBB"/>
<path fill-rule="evenodd" clip-rule="evenodd" d="M19.4094 19.1411L15.1246 8.55231C14.9785 8.19146 14.6281 7.95521 14.2388 7.95521C13.8495 7.95521 13.4991 8.19146 13.3531 8.55231L9.0682 19.1411C8.87025 19.6302 9.1063 20.1873 9.59545 20.3852C10.0843 20.5832 10.6416 20.3471 10.8396 19.858L11.8461 17.3708H16.6315L17.6379 19.858C17.7884 20.2298 18.1461 20.4553 18.524 20.4553C18.6433 20.4553 18.7647 20.4328 18.8821 20.3853C19.3713 20.1873 19.6073 19.6302 19.4094 19.1411ZM12.6194 15.4598L14.2388 11.458L15.8582 15.4598H12.6194ZM17.0949 17.4744L16.9937 17.2243C16.934 17.0767 16.7907 16.9801 16.6316 16.9801H11.8462C11.687 16.9801 11.5438 17.0767 11.4841 17.2243L10.4776 19.7114C10.4209 19.8512 10.3132 19.9607 10.1743 20.0196C10.0354 20.0784 9.88186 20.0798 9.74201 20.0231C9.60216 19.9666 9.49271 19.8589 9.43381 19.72C9.37501 19.581 9.37376 19.4275 9.43031 19.2876L13.7152 8.69881C13.802 8.48436 14.0075 8.34581 14.2388 8.34581C14.4702 8.34581 14.6757 8.48441 14.7625 8.69881L18.1794 17.1428L18.8321 18.7556L19.0474 19.2876C19.1039 19.4275 19.1027 19.581 19.0438 19.7199C18.985 19.8588 18.8756 19.9665 18.7356 20.0231C18.6676 20.0506 18.5964 20.0646 18.5241 20.0646C18.4139 20.0646 18.3095 20.0331 18.221 19.977C18.1237 19.9153 18.0456 19.8237 18.0001 19.7114L17.0949 17.4744ZM12.2956 15.6781C12.3681 15.7858 12.4895 15.8504 12.6195 15.8504H15.8582C15.9881 15.8504 16.1095 15.7858 16.1821 15.6781C16.2547 15.5704 16.2691 15.4337 16.2203 15.3133L14.6009 11.3115C14.5413 11.1639 14.398 11.0673 14.2388 11.0673C14.0797 11.0673 13.9364 11.1639 13.8767 11.3115L12.2573 15.3133C12.2086 15.4337 12.223 15.5705 12.2956 15.6781Z" fill="#BBBBBB"/>
<path d="M9.44891 20.7473C9.61201 20.8133 9.78306 20.8464 9.95396 20.8463C10.1321 20.8463 10.3102 20.8105 10.4792 20.7389C10.8102 20.5986 11.0669 20.3377 11.2018 20.0044L12.1095 17.7614H16.3683L16.6403 18.4336L17.2759 20.0044C17.4828 20.5155 17.9727 20.8458 18.5242 20.8458C18.6974 20.8458 18.8672 20.8127 19.0288 20.7473C19.3621 20.6125 19.6229 20.3558 19.7632 20.0248C19.9035 19.6937 19.9065 19.3279 19.7716 18.9945L19.0222 17.1428L15.4867 8.40566C15.2799 7.89476 14.7901 7.56456 14.2388 7.56456C13.6876 7.56456 13.1978 7.89476 12.991 8.40576L8.70611 18.9945C8.57116 19.3279 8.57421 19.6937 8.71446 20.0248C8.85466 20.3559 9.11571 20.6124 9.44891 20.7473ZM9.43031 19.2876L13.7152 8.69881C13.802 8.48436 14.0075 8.34581 14.2388 8.34581C14.4702 8.34581 14.6757 8.48441 14.7625 8.69881L18.1794 17.1428L18.8321 18.7556L19.0474 19.2876C19.1039 19.4275 19.1027 19.581 19.0438 19.7199C18.985 19.8588 18.8756 19.9665 18.7356 20.0231C18.6676 20.0506 18.5964 20.0646 18.5241 20.0646C18.4139 20.0646 18.3095 20.0331 18.221 19.977C18.1237 19.9153 18.0456 19.8237 18.0001 19.7114L17.0949 17.4744L16.9937 17.2243C16.934 17.0767 16.7907 16.9801 16.6316 16.9801H11.8462C11.687 16.9801 11.5438 17.0767 11.4841 17.2243L10.4776 19.7114C10.4209 19.8512 10.3132 19.9607 10.1743 20.0196C10.0354 20.0784 9.88186 20.0798 9.74201 20.0231C9.60216 19.9666 9.49271 19.8589 9.43381 19.72C9.37501 19.581 9.37376 19.4275 9.43031 19.2876Z" fill="#BBBBBB"/>
<path d="M12.6195 15.8504H15.8582C15.9881 15.8504 16.1095 15.7858 16.1821 15.6781C16.2547 15.5704 16.2691 15.4337 16.2203 15.3133L14.6009 11.3115C14.5413 11.1639 14.398 11.0673 14.2388 11.0673C14.0797 11.0673 13.9364 11.1639 13.8767 11.3115L12.2573 15.3133C12.2086 15.4337 12.223 15.5705 12.2956 15.6781C12.3681 15.7858 12.4895 15.8504 12.6195 15.8504ZM14.2388 12.4993L15.2788 15.0691H13.1989L14.2388 12.4993Z" fill="#BBBBBB"/>
<path d="M7.86256 8.74201C8.29711 8.74201 8.64936 8.38976 8.64936 7.95521C8.64936 7.52066 8.29711 7.16841 7.86256 7.16841C7.42806 7.16841 7.07576 7.52066 7.07576 7.95521C7.07576 8.38976 7.42806 8.74201 7.86256 8.74201Z" fill="#BBBBBB"/>
<path d="M20.6151 8.74201C21.0496 8.74201 21.4019 8.38976 21.4019 7.95521C21.4019 7.52066 21.0496 7.16841 20.6151 7.16841C20.1806 7.16841 19.8283 7.52066 19.8283 7.95521C19.8283 8.38976 20.1806 8.74201 20.6151 8.74201Z" fill="#BBBBBB"/>
</g>
</g>
<defs>
<clipPath id="clip0_81523_13825">
<rect width="40" height="40" fill="white"/>
</clipPath>
</defs>
</svg>
