<svg width="40" height="40" viewBox="0 0 40 40" fill="none" xmlns="http://www.w3.org/2000/svg">
<g clip-path="url(#clip0_81523_13865)">
<path fill-rule="evenodd" clip-rule="evenodd" d="M30 5.875C30.8975 5.875 31.625 6.60254 31.625 7.5V22.267C31.752 22.3105 31.8771 22.3582 32 22.4101C32.1274 22.4638 32.2525 22.522 32.375 22.5844V7.5C32.375 6.18832 31.3117 5.125 30 5.125H4.5C3.18832 5.125 2.125 6.18832 2.125 7.5V28C2.125 29.3117 3.18832 30.375 4.5 30.375H24.5844C24.522 30.2525 24.4638 30.1274 24.41 30C24.3582 29.8771 24.3104 29.752 24.267 29.625H4.5C3.60254 29.625 2.875 28.8975 2.875 28V7.5C2.875 6.60254 3.60254 5.875 4.5 5.875H30ZM32.375 28V26.7382C32.2811 26.4947 32.1543 26.2676 32 26.0622C31.8886 25.914 31.7629 25.7771 31.625 25.6537V26.8896C31.7454 27.1515 31.8125 27.4429 31.8125 27.75C31.8125 28.8891 30.8891 29.8125 29.75 29.8125C29.4429 29.8125 29.1514 29.7454 28.8896 29.625H27.6537C27.7771 29.7629 27.914 29.8886 28.0622 30C28.2676 30.1543 28.4947 30.2811 28.7382 30.375H30C31.3117 30.375 32.375 29.3117 32.375 28Z" fill="#BBBBBB"/>
<path d="M31.625 7.5C31.625 6.60254 30.8975 5.875 30 5.875H4.5C3.60254 5.875 2.875 6.60254 2.875 7.5V9.625H31.625V7.5ZM32.375 10.375H2.125V7.5C2.125 6.18832 3.18832 5.125 4.5 5.125H30C31.3117 5.125 32.375 6.18832 32.375 7.5V10.375Z" fill="#BBBBBB"/>
<path d="M31.625 7.5C31.625 6.60254 30.8975 5.875 30 5.875H4.5C3.60254 5.875 2.875 6.60254 2.875 7.5V9.625H31.625V7.5ZM32.375 10.375H2.125V7.5C2.125 6.18832 3.18832 5.125 4.5 5.125H30C31.3117 5.125 32.375 6.18832 32.375 7.5V10.375Z" fill="#BBBBBB"/>
<path d="M10.875 9.625V30.375H4.5C3.18832 30.375 2.125 29.3117 2.125 28V9.625H10.875ZM2.875 28C2.875 28.8975 3.60254 29.625 4.5 29.625H10.125V10.375H2.875V28Z" fill="#BBBBBB"/>
<path fill-rule="evenodd" clip-rule="evenodd" d="M10.5 10H32V22.4101C31.8771 22.3582 31.752 22.3105 31.625 22.267C31.4648 22.2122 31.3014 22.1643 31.1353 22.1235C31.0044 22.0914 30.9007 21.9918 30.8638 21.8623L30.4404 20.375H29.0596L28.6362 21.8623C28.5993 21.9919 28.4956 22.0915 28.3647 22.1235C27.7882 22.2649 27.2456 22.4928 26.7515 22.7925C26.6362 22.8624 26.4923 22.8649 26.3745 22.7993L25.0229 22.0469L24.0464 23.0229L24.7993 24.3745C24.8649 24.4922 24.8623 24.6362 24.7925 24.7515C24.4929 25.2455 24.2649 25.7883 24.1235 26.3647C24.0915 26.4956 23.9918 26.5993 23.8623 26.6362L22.375 27.0596V28.4399L23.8623 28.8638L23.9092 28.8809C24.0156 28.9272 24.0955 29.0207 24.1235 29.1353C24.1643 29.3014 24.2122 29.4648 24.267 29.625C24.3104 29.752 24.3582 29.8771 24.41 30H10.5V10ZM28.0622 30C27.914 29.8886 27.7771 29.7629 27.6537 29.625C27.2083 29.1274 26.9375 28.4703 26.9375 27.75C26.9375 26.1967 28.1966 24.9375 29.75 24.9375C30.4703 24.9375 31.1274 25.2083 31.625 25.6537C31.7629 25.7771 31.8886 25.914 32 26.0622V28C32 29.1046 31.1046 30 30 30H28.0622ZM20 24H12.5C12.2239 24 12 24.2239 12 24.5V26C12 26.2761 12.2239 26.5 12.5 26.5H20C20.2761 26.5 20.5 26.2761 20.5 26V24.5C20.5 24.2239 20.2761 24 20 24ZM12 19C12 18.7239 12.2239 18.5 12.5 18.5H23C23.2761 18.5 23.5 18.7239 23.5 19V20.5C23.5 20.7761 23.2761 21 23 21H12.5C12.2239 21 12 20.7761 12 20.5V19ZM12.5 13C12.2239 13 12 13.2239 12 13.5V15C12 15.2761 12.2239 15.5 12.5 15.5H27.5C27.7761 15.5 28 15.2761 28 15V13.5C28 13.2239 27.7761 13 27.5 13H12.5ZM28.8896 29.625C28.1801 29.2989 27.6875 28.582 27.6875 27.75C27.6875 26.6109 28.6109 25.6875 29.75 25.6875C30.582 25.6875 31.2989 26.1801 31.625 26.8896C31.7454 27.1515 31.8125 27.4429 31.8125 27.75C31.8125 28.8891 30.8891 29.8125 29.75 29.8125C29.4429 29.8125 29.1514 29.7454 28.8896 29.625Z" fill="#BBBBBB"/>
<path fill-rule="evenodd" clip-rule="evenodd" d="M10.875 10.375H31.625V22.267C31.752 22.3105 31.8771 22.3582 32 22.4101C32.1274 22.4638 32.2525 22.522 32.375 22.5844V9.625H10.125V30.375H24.5844C24.522 30.2525 24.4638 30.1274 24.41 30C24.3582 29.8771 24.3104 29.752 24.267 29.625H10.875V10.375ZM32.375 28V26.7382C32.2811 26.4947 32.1543 26.2676 32 26.0622C31.8886 25.914 31.7629 25.7771 31.625 25.6537V26.8896C31.7454 27.1515 31.8125 27.4429 31.8125 27.75C31.8125 28.8891 30.8891 29.8125 29.75 29.8125C29.4429 29.8125 29.1514 29.7454 28.8896 29.625H27.6537C27.7771 29.7629 27.914 29.8886 28.0622 30C28.2676 30.1543 28.4947 30.2811 28.7382 30.375H30C31.3117 30.375 32.375 29.3117 32.375 28Z" fill="#BBBBBB"/>
<path d="M6 7.75C6 8.16421 5.66421 8.5 5.25 8.5C4.83579 8.5 4.5 8.16421 4.5 7.75C4.5 7.33579 4.83579 7 5.25 7C5.66421 7 6 7.33579 6 7.75Z" fill="#BBBBBB"/>
<path d="M9 7.75C9 8.16421 8.66421 8.5 8.25 8.5C7.83579 8.5 7.5 8.16421 7.5 7.75C7.5 7.33579 7.83579 7 8.25 7C8.66421 7 9 7.33579 9 7.75Z" fill="#BBBBBB"/>
<path d="M12 7.75C12 8.16421 11.6642 8.5 11.25 8.5C10.8358 8.5 10.5 8.16421 10.5 7.75C10.5 7.33579 10.8358 7 11.25 7C11.6642 7 12 7.33579 12 7.75Z" fill="#BBBBBB"/>
<path fill-rule="evenodd" clip-rule="evenodd" d="M37.2786 26.7135L35.7406 26.2755C35.5899 25.6614 35.3476 25.0832 35.0283 24.557L35.8065 23.1591C35.8725 23.0403 35.8518 22.8918 35.7557 22.7955L34.7045 21.7444C34.6083 21.6481 34.4596 21.6275 34.3409 21.6935L32.9431 22.4717C32.4169 22.1526 31.8386 21.9101 31.2245 21.7595L30.7865 20.2214C30.7492 20.0903 30.6296 20 30.4932 20H29.0068C28.8704 20 28.7509 20.0903 28.7135 20.2214L28.2755 21.7595C27.6614 21.9101 27.0832 22.1525 26.5569 22.4717L25.1591 21.6935C25.0402 21.6275 24.8917 21.6483 24.7955 21.7444L23.7443 22.7955C23.6481 22.8918 23.6274 23.0404 23.6935 23.1591L24.4716 24.557C24.1525 25.0831 23.91 25.6614 23.7594 26.2755L22.2214 26.7135C22.0902 26.7508 22 26.8704 22 27.0068V28.4932C22 28.6296 22.0902 28.7492 22.2214 28.7866L23.7594 29.2245C23.91 29.8386 24.1524 30.4168 24.4716 30.9431L23.6935 32.3409C23.6275 32.4598 23.6482 32.6083 23.7443 32.7045L24.7955 33.7557C24.8917 33.8519 25.0403 33.8726 25.1591 33.8066L26.5569 33.0283C27.0831 33.3475 27.6614 33.5899 28.2755 33.7406L28.7135 35.2786C28.7508 35.4098 28.8704 35.5 29.0068 35.5H30.4932C30.6296 35.5 30.7491 35.4098 30.7865 35.2786L31.2245 33.7406C31.8386 33.5899 32.4168 33.3475 32.9431 33.0283L34.3409 33.8066C34.4598 33.8725 34.6083 33.8518 34.7045 33.7557L35.7557 32.7045C35.8519 32.6083 35.8726 32.4596 35.8065 32.3409L35.0283 30.9431C35.3475 30.4169 35.5899 29.8386 35.7406 29.2245L37.2786 28.7866C37.4098 28.7492 37.5 28.6296 37.5 28.4932V27.0068C37.5 26.8704 37.4098 26.7508 37.2786 26.7135ZM29.75 30.1875C28.4038 30.1875 27.3124 29.0962 27.3124 27.7499C27.3124 26.4037 28.4038 25.3123 29.75 25.3123C31.0962 25.3123 32.1876 26.4037 32.1876 27.7499C32.1876 29.0962 31.0962 30.1875 29.75 30.1875ZM27.6537 29.625C27.2083 29.1274 26.9375 28.4703 26.9375 27.75C26.9375 26.1967 28.1966 24.9375 29.75 24.9375C30.4703 24.9375 31.1274 25.2083 31.625 25.6537C31.7629 25.7771 31.8886 25.914 32 26.0622C32.1543 26.2676 32.2811 26.4947 32.375 26.7382C32.4961 27.0522 32.5625 27.3933 32.5625 27.75C32.5625 29.3033 31.3033 30.5625 29.75 30.5625C29.3933 30.5625 29.0521 30.4961 28.7382 30.375C28.4947 30.2811 28.2676 30.1543 28.0622 30C27.914 29.8886 27.7771 29.7629 27.6537 29.625ZM24.5844 30.375C24.522 30.2525 24.4638 30.1274 24.41 30C24.3582 29.8771 24.3104 29.752 24.267 29.625C24.2122 29.4648 24.1643 29.3014 24.1235 29.1353C24.0955 29.0207 24.0156 28.9272 23.9092 28.8809L23.8623 28.8638L22.375 28.4399V27.0596L23.8623 26.6362C23.9918 26.5993 24.0915 26.4956 24.1235 26.3647C24.2649 25.7883 24.4929 25.2455 24.7925 24.7515C24.8623 24.6362 24.8649 24.4922 24.7993 24.3745L24.0464 23.0229L25.0229 22.0469L26.3745 22.7993C26.4923 22.8649 26.6362 22.8624 26.7515 22.7925C27.2456 22.4928 27.7882 22.2649 28.3647 22.1235C28.4956 22.0915 28.5993 21.9919 28.6362 21.8623L29.0596 20.375H30.4404L30.8638 21.8623C30.9007 21.9918 31.0044 22.0914 31.1353 22.1235C31.3014 22.1643 31.4648 22.2122 31.625 22.267C31.752 22.3105 31.8771 22.3582 32 22.4101C32.1274 22.4638 32.2525 22.522 32.375 22.5844C32.5023 22.6493 32.6269 22.7187 32.7485 22.7925C32.8638 22.8624 33.0077 22.8649 33.1255 22.7993L34.4766 22.0469L35.4531 23.0229L34.7007 24.3745C34.6351 24.4923 34.6377 24.6362 34.7075 24.7515C35.0072 25.2454 35.235 25.7882 35.3765 26.3647C35.4086 26.4955 35.5082 26.5993 35.6377 26.6362L37.125 27.0596V28.4399L35.6377 28.8638C35.5244 28.8961 35.434 28.9795 35.3916 29.0874L35.3765 29.1353C35.235 29.7117 35.0071 30.2546 34.7075 30.7485C34.6376 30.8638 34.6351 31.0077 34.7007 31.1255L35.4531 32.4766L34.4766 33.4531L33.1255 32.7007C33.0077 32.6351 32.8638 32.6376 32.7485 32.7075C32.2544 33.0072 31.7117 33.235 31.1353 33.3765C31.0045 33.4086 30.9007 33.5082 30.8638 33.6377L30.4404 35.125H29.0596L28.6362 33.6377C28.6039 33.5244 28.5205 33.434 28.4126 33.3916L28.3647 33.3765L28.1504 33.3193C27.6534 33.1769 27.1838 32.9697 26.7515 32.7075C26.6507 32.6464 26.5279 32.6368 26.4199 32.6792L26.3745 32.7007L25.0229 33.4531L24.0464 32.4766L24.7993 31.1255C24.8649 31.0077 24.8624 30.8638 24.7925 30.7485C24.7187 30.6269 24.6493 30.5023 24.5844 30.375Z" fill="#BBBBBB"/>
<path d="M28.6362 21.8623C28.5993 21.9919 28.4956 22.0915 28.3647 22.1235C27.7882 22.2649 27.2456 22.4928 26.7515 22.7925C26.6362 22.8624 26.4923 22.8649 26.3745 22.7993L25.0229 22.0469L24.0464 23.0229L24.7993 24.3745C24.8649 24.4922 24.8623 24.6362 24.7925 24.7515C24.4929 25.2455 24.2649 25.7883 24.1235 26.3647C24.0915 26.4956 23.9918 26.5993 23.8623 26.6362L22.375 27.0596V28.4399L23.8623 28.8638L23.9092 28.8809C24.0156 28.9272 24.0955 29.0207 24.1235 29.1353C24.1643 29.3014 24.2122 29.4648 24.267 29.625C24.3104 29.752 24.3582 29.8771 24.41 30C24.4638 30.1274 24.522 30.2525 24.5844 30.375C24.6493 30.5023 24.7187 30.6269 24.7925 30.7485C24.8624 30.8638 24.8649 31.0077 24.7993 31.1255L24.0464 32.4766L25.0229 33.4531L26.3745 32.7007L26.4199 32.6792C26.5279 32.6368 26.6507 32.6464 26.7515 32.7075C27.1838 32.9697 27.6534 33.1769 28.1504 33.3193L28.3647 33.3765L28.4126 33.3916C28.5205 33.434 28.6039 33.5244 28.6362 33.6377L29.0596 35.125H30.4404L30.8638 33.6377C30.9007 33.5082 31.0045 33.4086 31.1353 33.3765C31.7117 33.235 32.2544 33.0072 32.7485 32.7075C32.8638 32.6376 33.0077 32.6351 33.1255 32.7007L34.4766 33.4531L35.4531 32.4766L34.7007 31.1255C34.6351 31.0077 34.6376 30.8638 34.7075 30.7485C35.0071 30.2546 35.235 29.7117 35.3765 29.1353L35.3916 29.0874C35.434 28.9795 35.5244 28.8961 35.6377 28.8638L37.125 28.4399V27.0596L35.6377 26.6362C35.5082 26.5993 35.4086 26.4955 35.3765 26.3647C35.235 25.7882 35.0072 25.2454 34.7075 24.7515C34.6377 24.6362 34.6351 24.4923 34.7007 24.3745L35.4531 23.0229L34.4766 22.0469L33.1255 22.7993C33.0077 22.8649 32.8638 22.8624 32.7485 22.7925C32.6269 22.7187 32.5023 22.6493 32.375 22.5844C32.2525 22.522 32.1274 22.4638 32 22.4101C31.8771 22.3582 31.752 22.3105 31.625 22.267C31.4648 22.2122 31.3014 22.1643 31.1353 22.1235C31.0044 22.0914 30.9007 21.9918 30.8638 21.8623L30.4404 20.375H29.0596L28.6362 21.8623ZM31.8125 27.75C31.8125 27.4429 31.7454 27.1515 31.625 26.8896C31.2989 26.1801 30.582 25.6875 29.75 25.6875C28.6109 25.6875 27.6875 26.6109 27.6875 27.75C27.6875 28.582 28.1801 29.2989 28.8896 29.625C29.1514 29.7454 29.4429 29.8125 29.75 29.8125C30.8891 29.8125 31.8125 28.8891 31.8125 27.75ZM32.5625 27.75C32.5625 29.3033 31.3033 30.5625 29.75 30.5625C29.3933 30.5625 29.0521 30.4961 28.7382 30.375C28.4947 30.2811 28.2676 30.1543 28.0622 30C27.914 29.8886 27.7771 29.7629 27.6537 29.625C27.2083 29.1274 26.9375 28.4703 26.9375 27.75C26.9375 26.1967 28.1966 24.9375 29.75 24.9375C30.4703 24.9375 31.1274 25.2083 31.625 25.6537C31.7629 25.7771 31.8886 25.914 32 26.0622C32.1543 26.2676 32.2811 26.4947 32.375 26.7382C32.4961 27.0522 32.5625 27.3933 32.5625 27.75ZM37.875 28.4932C37.875 28.7969 37.6739 29.0642 37.3813 29.1475L36.0479 29.5269C35.907 30.027 35.7085 30.503 35.4595 30.9468L36.1343 32.1582C36.2816 32.4232 36.2357 32.755 36.021 32.9697L34.9697 34.021C34.755 34.2355 34.4241 34.2811 34.1592 34.1343L32.9468 33.4595C32.5028 33.7086 32.0267 33.9075 31.5264 34.0483L31.147 35.3813C31.0636 35.6734 30.7972 35.875 30.4932 35.875H29.0068C28.7031 35.875 28.4358 35.6739 28.3525 35.3813L27.9731 34.0483C27.4728 33.9075 26.9967 33.7086 26.5527 33.4595L25.3413 34.1343C25.0763 34.2816 24.745 34.2357 24.5303 34.021L23.479 32.9697C23.2646 32.7551 23.2186 32.4238 23.3657 32.1587L24.04 30.9468C23.791 30.5029 23.5919 30.027 23.4512 29.5269L22.1187 29.1475C21.8261 29.0642 21.625 28.7969 21.625 28.4932V27.0068C21.625 26.7031 21.8262 26.4363 22.1187 26.353L23.4512 25.9731C23.592 25.4728 23.791 24.9966 24.04 24.5527L23.3657 23.3413C23.2184 23.0763 23.2643 22.745 23.479 22.5303L24.5303 21.479C24.7314 21.2781 25.035 21.225 25.2905 21.3403L25.3413 21.3657L26.5527 22.04C26.9966 21.7909 27.4728 21.5925 27.9731 21.4517L28.353 20.1187L28.3706 20.0649C28.4696 19.8022 28.7217 19.625 29.0068 19.625H30.4932C30.797 19.625 31.0642 19.8263 31.1475 20.1187L31.5264 21.4517C32.0267 21.5925 32.5029 21.791 32.9468 22.04L34.1587 21.3657L34.209 21.3403C34.4474 21.2325 34.7281 21.2714 34.9282 21.4409L34.9697 21.479L36.021 22.5303C36.2353 22.745 36.2811 23.076 36.1343 23.3408L35.4595 24.5527C35.7087 24.9967 35.9075 25.4728 36.0483 25.9731L37.3813 26.353C37.6738 26.4363 37.875 26.7031 37.875 27.0068V28.4932Z" fill="#BBBBBB"/>
<path d="M4.5 14C4.5 13.7239 4.72386 13.5 5 13.5H8C8.27614 13.5 8.5 13.7239 8.5 14V17C8.5 17.2761 8.27614 17.5 8 17.5H5C4.72386 17.5 4.5 17.2761 4.5 17V14Z" fill="#BBBBBB"/>
<path d="M4.5 21.5C4.5 21.2239 4.72386 21 5 21H8C8.27614 21 8.5 21.2239 8.5 21.5V24.5C8.5 24.7761 8.27614 25 8 25H5C4.72386 25 4.5 24.7761 4.5 24.5V21.5Z" fill="#BBBBBB"/>
</g>
<defs>
<clipPath id="clip0_81523_13865">
<rect width="40" height="40" fill="white"/>
</clipPath>
</defs>
</svg>
