<svg width="40" height="40" viewBox="0 0 40 40" fill="none" xmlns="http://www.w3.org/2000/svg">
<path d="M10 31.8173H10.9892V7.40164C10.9892 6.02093 12.1085 4.90164 13.4892 4.90164H26.4787L25.0441 3.54624C24.6728 3.19544 24.1814 3 23.6706 3H10C8.61929 3 7.5 4.11929 7.5 5.5V12.094V29.3173C7.5 30.6981 8.61929 31.8173 10 31.8173Z" fill="#BBBBBB" stroke="#BBBBBB" stroke-width="0.75" stroke-linecap="round" stroke-linejoin="round"/>
<path d="M11.0869 14.0154V31.2387C11.0869 32.6194 12.2062 33.7387 13.5869 33.7387H19.8369M11.0869 12.1257V7.42139C11.0869 6.04068 12.2062 4.92139 13.5869 4.92139H27.2496C27.7651 4.92139 28.2607 5.12044 28.633 5.47701L32.0891 8.78713C32.4829 9.16437 32.7057 9.68611 32.7057 10.2315V17.2944M32.7057 19.1722V31.2387C32.7057 32.6194 31.5864 33.7387 30.2057 33.7387H24.0869" stroke="#BBBBBB" stroke-width="0.75" stroke-linecap="round" stroke-linejoin="round"/>
<path d="M27.3887 5.14502L27.3887 8.7082C27.3887 9.26049 27.8364 9.70821 28.3887 9.7082L32.5096 9.70811" stroke="#BBBBBB" stroke-width="0.75" stroke-linecap="round"/>
<rect x="13.8369" y="7.5" width="10.5" height="3.5" rx="1" fill="#BBBBBB" stroke="#BBBBBB" stroke-width="0.5" stroke-linejoin="round"/>
<rect x="13.8369" y="13" width="16.5" height="2" rx="1" fill="#BBBBBB" stroke="#BBBBBB" stroke-width="0.5" stroke-linejoin="round"/>
<path d="M20.8232 31.8296V30.1059" stroke="#BBBBBB" stroke-width="0.75" stroke-miterlimit="10" stroke-linecap="round" stroke-linejoin="round"/>
<path d="M23.0498 31.8296V30.1065" stroke="#BBBBBB" stroke-width="0.75" stroke-miterlimit="10" stroke-linecap="round" stroke-linejoin="round"/>
<path d="M28.5378 23.6002C28.5378 27.245 25.5832 30.1997 21.9383 30.1997C18.2936 30.1997 15.3389 27.245 15.3389 23.6002C15.3389 19.9554 18.2936 17.0008 21.9383 17.0008C25.5832 17.0008 28.5378 19.9554 28.5378 23.6002Z" stroke="#BBBBBB" stroke-width="0.75" stroke-miterlimit="10" stroke-linecap="round" stroke-linejoin="round"/>
<path d="M26.4427 22.3835C26.5477 22.7718 26.6035 23.1803 26.6035 23.6016C26.6035 26.1779 24.5148 28.2671 21.938 28.2671C19.3616 28.2671 17.2725 26.1779 17.2725 23.6016C17.2725 21.0247 19.3616 18.9361 21.938 18.9361C23.497 18.9361 24.8781 19.7011 25.7246 20.8763" stroke="#BBBBBB" stroke-width="0.75" stroke-miterlimit="10" stroke-linecap="round" stroke-linejoin="round"/>
<path d="M20.0191 37.6914C20.1201 38.1545 20.5319 38.5005 21.0252 38.5005H22.8504C23.419 38.5005 23.8805 38.0396 23.8805 37.4704V32.8401C23.8805 32.2715 23.419 31.81 22.8504 31.81H21.0252C20.456 31.81 19.9951 32.2715 19.9951 32.8401V36.0179" stroke="#BBBBBB" stroke-width="0.75" stroke-miterlimit="10" stroke-linecap="round" stroke-linejoin="round"/>
<path d="M21.6832 26.4545C21.39 26.4545 21.1115 26.3192 20.9303 26.0855L19.3375 24.0308C19.0152 23.615 19.0909 23.0166 19.5067 22.6943C19.9225 22.3719 20.5209 22.4477 20.8432 22.8635L21.5583 23.7859L22.9537 21.3151C23.2125 20.8569 23.7935 20.6953 24.2517 20.954C24.7098 21.2127 24.8714 21.7938 24.6127 22.2519L22.5128 25.9703C22.3559 26.248 22.0705 26.4288 21.7525 26.452C21.7293 26.4536 21.7061 26.4545 21.6832 26.4545Z" stroke="#BBBBBB" stroke-width="0.75" stroke-miterlimit="10" stroke-linecap="round" stroke-linejoin="round"/>
</svg>
