<svg width="40" height="40" viewBox="0 0 40 40" fill="none" xmlns="http://www.w3.org/2000/svg">
<path fill-rule="evenodd" clip-rule="evenodd" d="M22.8857 25.185C22.6867 24.9102 22.3707 24.7256 22.0107 24.7042V25.458C22.2072 25.4913 22.3567 25.6623 22.3567 25.8682C22.3567 26.0741 22.2072 26.245 22.0107 26.2783V26.433H20.9204C21.1193 26.7915 21.5017 27.0342 21.9407 27.0342C21.9642 27.0342 21.9876 27.0335 22.0107 27.0321C22.3707 27.0108 22.6867 26.8262 22.8857 26.5514V25.185Z" fill="#BBBBBB"/>
<path d="M33.0149 25.0772H24.3138V26.6592H33.0149V25.0772Z" fill="#BBBBBB"/>
<path d="M33.0149 24.7022C33.222 24.7022 33.3899 24.8701 33.3899 25.0772V26.6592C33.3899 26.8663 33.222 27.0342 33.0149 27.0342H24.3138C24.1067 27.0342 23.9388 26.8663 23.9388 26.6592V25.0772C23.9388 24.8701 24.1067 24.7022 24.3138 24.7022H33.0149ZM24.6888 26.2842H32.6399V25.4522H24.6888V26.2842Z" fill="#BBBBBB"/>
<path d="M19.1927 16.6045C19.1927 16.3747 19.0064 16.1885 18.7767 16.1885C18.5469 16.1885 18.3606 16.3747 18.3606 16.6045C18.3606 16.8343 18.5469 17.0205 18.7767 17.0205C19.0064 17.0205 19.1927 16.8343 19.1927 16.6045ZM19.9427 16.6045C19.9427 17.2485 19.4206 17.7705 18.7767 17.7705C18.1327 17.7705 17.6106 17.2485 17.6106 16.6045C17.6106 15.9605 18.1327 15.4385 18.7767 15.4385C19.4206 15.4385 19.9427 15.9605 19.9427 16.6045Z" fill="#BBBBBB"/>
<path d="M22.3567 16.6045C22.3567 16.3747 22.1705 16.1885 21.9407 16.1885C21.711 16.1885 21.5247 16.3747 21.5247 16.6045C21.5247 16.8343 21.711 17.0205 21.9407 17.0205C22.1705 17.0205 22.3567 16.8343 22.3567 16.6045ZM23.1067 16.6045C23.1067 17.2485 22.5847 17.7705 21.9407 17.7705C21.2967 17.7705 20.7747 17.2485 20.7747 16.6045C20.7747 15.9605 21.2967 15.4385 21.9407 15.4385C22.5847 15.4385 23.1067 15.9605 23.1067 16.6045Z" fill="#BBBBBB"/>
<path d="M33.0149 15.8135H24.3138V17.3955H33.0149V15.8135Z" fill="#BBBBBB"/>
<path d="M33.0149 15.4385C33.222 15.4385 33.3899 15.6064 33.3899 15.8135V17.3955C33.3899 17.6026 33.222 17.7705 33.0149 17.7705H24.3138C24.1067 17.7705 23.9388 17.6026 23.9388 17.3955V15.8135C23.9388 15.6064 24.1067 15.4385 24.3138 15.4385H33.0149ZM24.6888 17.0205H32.6399V16.1885H24.6888V17.0205Z" fill="#BBBBBB"/>
<path fill-rule="evenodd" clip-rule="evenodd" d="M19.1263 26.433V26.0936C19.0523 26.2083 18.9233 26.2842 18.7767 26.2842C18.5469 26.2842 18.3606 26.0979 18.3606 25.8682C18.3606 25.6384 18.5469 25.4522 18.7767 25.4522C18.9233 25.4522 19.0523 25.5281 19.1263 25.6427V24.7555C19.0159 24.7208 18.8985 24.7022 18.7767 24.7022C18.5877 24.7022 18.4092 24.7471 18.2513 24.8269V26.433H19.1263Z" fill="#BBBBBB"/>
<path fill-rule="evenodd" clip-rule="evenodd" d="M35.804 23.6094C35.804 22.9427 35.2636 22.4023 34.597 22.4023H22.8857H16.4036C15.7573 22.4023 15.2296 22.9103 15.1981 23.5488H14.8301V23.6483V26.433H14.4466V23.6094C14.4466 22.5285 15.3227 21.6523 16.4036 21.6523H34.597C35.6778 21.6523 36.554 22.5285 36.554 23.6094V28.1269C36.554 29.2078 35.6778 30.084 34.597 30.084H16.4036C15.941 30.084 15.516 29.9235 15.181 29.6552H18.2513V29.334H19.1263V29.6552H22.0107V29.334H22.8857H34.597C35.2636 29.334 35.804 28.7936 35.804 28.1269V23.6094ZM14.4466 28.1269V27.308V27.1973C14.4678 27.2394 14.4946 27.2768 14.5257 27.308H14.8301V27.4075V29.2908C14.5891 28.9655 14.4466 28.5629 14.4466 28.1269Z" fill="#BBBBBB"/>
<path d="M35.804 9.59961V5.08203C35.804 4.41538 35.2636 3.875 34.597 3.875H16.4036C15.737 3.875 15.1966 4.41538 15.1966 5.08203V9.59961C15.1966 10.2663 15.737 10.8066 16.4036 10.8066H17.9856C18.1927 10.8066 18.3606 10.9745 18.3606 11.1816C18.3606 11.3887 18.1927 11.5566 17.9856 11.5566H16.4036C15.3227 11.5566 14.4466 10.6805 14.4466 9.59961V5.08203C14.4466 4.00117 15.3227 3.125 16.4036 3.125H34.597C35.6778 3.125 36.554 4.00117 36.554 5.08203V9.59961C36.554 10.6805 35.6778 11.5566 34.597 11.5566H19.5677C19.3606 11.5566 19.1927 11.3887 19.1927 11.1816C19.1927 10.9745 19.3606 10.8066 19.5677 10.8066H34.597C35.2636 10.8066 35.804 10.2663 35.804 9.59961Z" fill="#BBBBBB"/>
<path d="M19.1927 7.3408C19.1927 7.11104 19.0064 6.92479 18.7767 6.92479C18.5469 6.92479 18.3606 7.11104 18.3606 7.3408C18.3606 7.57056 18.5469 7.75682 18.7767 7.75682C19.0064 7.75682 19.1927 7.57056 19.1927 7.3408ZM19.9427 7.3408C19.9427 7.98478 19.4206 8.50682 18.7767 8.50682C18.1327 8.50682 17.6106 7.98478 17.6106 7.3408C17.6106 6.69683 18.1327 6.17479 18.7767 6.17479C19.4206 6.17479 19.9427 6.69683 19.9427 7.3408Z" fill="#BBBBBB"/>
<path d="M22.3567 7.3408C22.3567 7.11104 22.1705 6.92479 21.9407 6.92479C21.711 6.92479 21.5247 7.11104 21.5247 7.3408C21.5247 7.57056 21.711 7.75682 21.9407 7.75682C22.1705 7.75682 22.3567 7.57056 22.3567 7.3408ZM23.1067 7.3408C23.1067 7.98478 22.5847 8.50682 21.9407 8.50682C21.2967 8.50682 20.7747 7.98478 20.7747 7.3408C20.7747 6.69683 21.2967 6.17479 21.9407 6.17479C22.5847 6.17479 23.1067 6.69683 23.1067 7.3408Z" fill="#BBBBBB"/>
<path d="M33.0149 6.54979H24.3138V8.13182H33.0149V6.54979Z" fill="#BBBBBB"/>
<path d="M33.0149 6.17479C33.222 6.17479 33.3899 6.34268 33.3899 6.54979V8.13182C33.3899 8.33893 33.222 8.50682 33.0149 8.50682H24.3138C24.1067 8.50682 23.9388 8.33893 23.9388 8.13182V6.54979C23.9388 6.34268 24.1067 6.17479 24.3138 6.17479H33.0149ZM24.6888 7.75682H32.6399V6.92479H24.6888V7.75682Z" fill="#BBBBBB"/>
<path d="M16.0286 12.7637V11.1817C16.0286 10.9746 16.1965 10.8066 16.4036 10.8066C16.6107 10.8066 16.7786 10.9746 16.7786 11.1817V12.7637C16.7786 12.9708 16.6107 13.1387 16.4036 13.1387C16.1965 13.1387 16.0286 12.9708 16.0286 12.7637Z" fill="#BBBBBB"/>
<path d="M34.222 12.7637V11.1817C34.222 10.9746 34.3899 10.8066 34.597 10.8066C34.8041 10.8066 34.972 10.9746 34.972 11.1817V12.7637C34.972 12.9708 34.8041 13.1387 34.597 13.1387C34.3899 13.1387 34.222 12.9708 34.222 12.7637Z" fill="#BBBBBB"/>
<path d="M34.222 22.0273V20.4453C34.222 20.2382 34.3899 20.0703 34.597 20.0703C34.8041 20.0703 34.972 20.2382 34.972 20.4453V22.0273C34.972 22.2344 34.8041 22.4023 34.597 22.4023C34.3899 22.4023 34.222 22.2344 34.222 22.0273Z" fill="#BBBBBB"/>
<path d="M16.0286 22.0273V20.4453C16.0286 20.2382 16.1965 20.0703 16.4036 20.0703C16.6107 20.0703 16.7786 20.2382 16.7786 20.4453V22.0273C16.7786 22.2344 16.6107 22.4023 16.4036 22.4023C16.1965 22.4023 16.0286 22.2344 16.0286 22.0273Z" fill="#BBBBBB"/>
<path d="M35.804 18.8632V14.3457C35.804 13.679 35.2636 13.1387 34.597 13.1387H16.4036C15.737 13.1387 15.1966 13.679 15.1966 14.3457V18.8632C15.1966 19.5299 15.737 20.0703 16.4036 20.0703L17.9856 20.0703C18.1927 20.0703 18.3606 20.2382 18.3606 20.4453C18.3606 20.6524 18.1927 20.8203 17.9856 20.8203H16.4036C15.3227 20.8203 14.4466 19.9441 14.4466 18.8632V14.3457C14.4466 13.2648 15.3227 12.3886 16.4036 12.3886H34.597C35.6778 12.3886 36.554 13.2648 36.554 14.3457V18.8632C36.554 19.9441 35.6778 20.8203 34.597 20.8203H19.5677C19.3606 20.8203 19.1927 20.6524 19.1927 20.4453C19.1927 20.2382 19.3606 20.0703 19.5677 20.0703L34.597 20.0703C35.2636 20.0703 35.804 19.5299 35.804 18.8632Z" fill="#BBBBBB"/>
<path fill-rule="evenodd" clip-rule="evenodd" d="M14.8301 23.6483V26.433H14.4466H14.3926V24.0923C14.3926 23.8471 14.5541 23.6483 14.7532 23.6483H14.8301ZM14.5257 27.308C14.5878 27.3702 14.667 27.4075 14.7532 27.4075H14.8301V27.308H14.5257Z" fill="#BBBBBB"/>
<path fill-rule="evenodd" clip-rule="evenodd" d="M3.21503 18.8151H20.7369C21.6819 18.8151 22.448 19.5845 22.448 20.5336V34.2815C22.448 35.2306 21.6819 36 20.7369 36H3.21503C2.27 36 1.50391 35.2306 1.50391 34.2815V20.5336C1.50391 19.5845 2.27 18.8151 3.21503 18.8151ZM13.9551 35.5626V33.7524H10.5339V35.5626H13.9551ZM18.2513 35.5626H14.8301V33.7524H18.2513V35.5626ZM19.1263 35.5626H20.7368C21.4384 35.5626 22.0107 34.9906 22.0107 34.2814V33.7524H19.1263V35.5626ZM9.65887 35.5626H5.70061V33.7524H9.65887V35.5626ZM1.94141 33.7524V34.2814C1.94141 34.9906 2.5133 35.5625 3.21484 35.5626H4.82561V33.7524H1.94141ZM1.94141 32.8774V30.5302H4.82561V32.8774H1.94141ZM1.94141 27.308V29.6552H4.82561V27.308H1.94141ZM1.94141 26.433V23.5488H4.82561V26.433H1.94141ZM9.65887 23.5488H5.70061V26.433H9.65887V23.5488ZM10.5339 26.433H12.2445V26.9635C12.2445 27.1025 12.2964 27.2266 12.3776 27.308H10.5339V29.6552H13.9551V27.308H14.4466V27.1973C14.4678 27.2394 14.4946 27.2768 14.5257 27.308H14.8301V27.4075V29.2908V29.6552H15.181H18.2513V29.334V27.308H19.1263V29.334V29.6552H22.0107V29.334V27.308V27.0321C21.9876 27.0335 21.9642 27.0342 21.9407 27.0342C21.5017 27.0342 21.1193 26.7915 20.9204 26.433H22.0107V26.2783V25.458V24.7042V23.5488H19.1263V24.7555V25.6427V26.0936V26.433H18.2513V24.8269V23.5488H15.1981H14.8301V23.6483V26.433H14.4466H14.3926H13.9551V23.5488H10.5339V26.433ZM5.70061 27.308H9.65887V29.6552H5.70061V27.308ZM9.65887 30.5302H5.70061V32.8774H9.65887V30.5302ZM13.9551 30.5302V32.8774H10.5339V30.5302H13.9551ZM18.2513 30.5302H14.8301V32.8774H18.2513V30.5302ZM22.0107 30.5302V32.8774H19.1263V30.5302H22.0107Z" fill="#BBBBBB"/>
<path d="M22.0107 20.5333C22.0106 19.8242 21.4384 19.2526 20.7368 19.2526H3.21484C2.51337 19.2527 1.94153 19.8243 1.94141 20.5333V23.5488V26.433V27.308V29.6552V30.5302V32.8774V33.7524V34.2814C1.94141 34.9906 2.5133 35.5625 3.21484 35.5626H4.82561H5.70061H9.65887H10.5339H13.9551H14.8301H18.2513H19.1263H20.7368C21.4384 35.5626 22.0107 34.9906 22.0107 34.2814V33.7524V32.8774V30.5302V29.6552V29.334V27.308V27.0321V26.433V26.2783V25.458V24.7042V23.5488V20.5333ZM22.8857 34.2814C22.8857 35.4703 21.9252 36.4376 20.7368 36.4376H3.21484C2.02651 36.4375 1.06641 35.4703 1.06641 34.2814V20.5333C1.06653 19.3446 2.02658 18.3777 3.21484 18.3776H20.7368C21.9252 18.3776 22.8856 19.3445 22.8857 20.5333V22.4023V25.185V26.5514V29.334V34.2814Z" fill="#BBBBBB"/>
<path d="M21.911 23.1113H2.04088C1.23547 22.0372 0.936899 18.8151 3.26692 18.8151H20.6846C23.0145 18.8151 22.7166 22.3058 21.911 23.1113Z" fill="#BBBBBB"/>
<path d="M22.4482 22.6738V23.5488H22.0107H19.1263H18.2513H15.1981H14.8301H13.9551H10.5339H9.65887H5.70061H4.82561H1.94141H1.50391V22.6738H22.4482Z" fill="#BBBBBB"/>
<path fill-rule="evenodd" clip-rule="evenodd" d="M22.4482 27.308V26.433H22.0107H20.9204C21.1193 26.7915 21.5017 27.0342 21.9407 27.0342C21.9642 27.0342 21.9876 27.0335 22.0107 27.0321V27.308H22.4482ZM14.5257 27.308C14.4946 27.2768 14.4678 27.2394 14.4466 27.1973V27.308H14.5257ZM12.3776 27.308C12.2964 27.2266 12.2445 27.1025 12.2445 26.9635V26.433H10.5339H9.65887H5.70061H4.82561H1.94141H1.50391V27.308H1.94141H4.82561H5.70061H9.65887H10.5339H12.3776Z" fill="#BBBBBB"/>
<path d="M22.4482 29.6552V30.5302H22.0107H19.1263H18.2513H14.8301H13.9551H10.5339H9.65887H5.70061H4.82561H1.94141H1.50391V29.6552H1.94141H4.82561H5.70061H9.65887H10.5339H13.9551H14.8301H15.181H18.2513H19.1263H22.0107H22.4482Z" fill="#BBBBBB"/>
<path d="M22.4482 32.8774V33.7524H22.0107H19.1263H18.2513H14.8301H13.9551H10.5339H9.65887H5.70061H4.82561H1.94141H1.50391V32.8774H1.94141H4.82561H5.70061H9.65887H10.5339H13.9551H14.8301H18.2513H19.1263H22.0107H22.4482Z" fill="#BBBBBB"/>
<path d="M5.70061 22.5743V23.5488V26.433V27.308V29.6552V30.5302V32.8774V33.7524V35.5626V36.0001H4.82561V35.5626V33.7524V32.8774V30.5302V29.6552V27.308V26.433V23.5488V22.5743H5.70061Z" fill="#BBBBBB"/>
<path d="M10.5339 22.5743V23.5488V26.433V27.308V29.6552V30.5302V32.8774V33.7524V35.5626V36.0001H9.65887V35.5626V33.7524V32.8774V30.5302V29.6552V27.308V26.433V23.5488V22.5743H10.5339Z" fill="#BBBBBB"/>
<path fill-rule="evenodd" clip-rule="evenodd" d="M14.8301 23.5488V22.5743H13.9551V23.5488V26.433H14.3926H14.4466H14.8301V23.6483V23.5488ZM14.8301 27.308H14.5257C14.4946 27.2768 14.4678 27.2394 14.4466 27.1973V27.308H13.9551V29.6552V30.5302V32.8774V33.7524V35.5626V36.0001H14.8301V35.5626V33.7524V32.8774V30.5302V29.6552V29.2908V27.4075V27.308Z" fill="#BBBBBB"/>
<path fill-rule="evenodd" clip-rule="evenodd" d="M19.1263 23.5488V22.5743H18.2513V23.5488V24.8269V26.433H19.1263V26.0936V25.6427V24.7555V23.5488ZM19.1263 27.308H18.2513V29.334V29.6552V30.5302V32.8774V33.7524V35.5626V36.0001H19.1263V35.5626V33.7524V32.8774V30.5302V29.6552V29.334V27.308Z" fill="#BBBBBB"/>
<path d="M12.2445 26.433H13.3185H13.9551H14.3926H14.4466H14.8301H15.1966H15.4667H16.0037H17.6148H17.7563H18.2513H19.1263H19.4514H19.797H20.0744H20.9204C21.1193 26.7915 21.5017 27.0342 21.9407 27.0342C21.9642 27.0342 21.9876 27.0335 22.0107 27.0321V27.308H20.0744H19.4514H19.1263H18.2513H17.4151H16.2033H15.3335H15.1966H14.8301H14.5257C14.4946 27.2768 14.4678 27.2394 14.4466 27.1973V27.308H13.9551H13.1854H12.3776C12.2964 27.2266 12.2445 27.1025 12.2445 26.9635V26.433Z" fill="#BBBBBB"/>
</svg>
