<svg width="40" height="40" viewBox="0 0 40 40" fill="none" xmlns="http://www.w3.org/2000/svg">
<path d="M31.6665 18.2365C34.9626 18.2365 37.6443 15.5549 37.6443 12.2586C37.6443 8.96236 34.9627 6.28076 31.6665 6.28076C28.3702 6.28076 25.6886 8.96236 25.6886 12.2586C25.6886 14.1761 26.5971 15.8844 28.0052 16.979L20.238 22.9456C20.0981 23.0533 19.9023 23.0533 19.7621 22.9456L5.07755 11.6654C5.1651 11.1053 5.65105 10.6753 6.23535 10.6753H24.1546C24.3704 10.6753 24.5452 10.5004 24.5452 10.2847C24.5452 10.069 24.3704 9.89401 24.1546 9.89401H6.23535C5.1584 9.89401 4.28223 10.7702 4.28223 11.8472V29.1448C4.28223 30.2218 5.1584 31.0979 6.23535 31.0979H33.7647C34.8416 31.0979 35.7178 30.2218 35.7178 29.1448V18.8214C35.7178 18.6057 35.543 18.4308 35.3272 18.4308C35.1114 18.4308 34.9365 18.6057 34.9365 18.8214V28.3522L24.7094 20.496L28.6891 17.439C29.5665 17.9452 30.5828 18.2365 31.6665 18.2365ZM15.2907 20.496L5.0635 28.3522V12.6398L15.2907 20.496ZM34.9212 29.3255C34.8338 29.886 34.3493 30.3167 33.7647 30.3167H6.23535C5.65075 30.3167 5.1662 29.886 5.07885 29.3255L15.9319 20.9886L19.2862 23.5651C19.4963 23.7265 19.7482 23.8073 20.0001 23.8073C20.2519 23.8073 20.5037 23.7266 20.714 23.5651L24.0682 20.9885L34.9212 29.3255ZM26.4698 12.2586C26.4698 9.39326 28.801 7.06201 31.6665 7.06201C34.5319 7.06201 36.8631 9.39316 36.8631 12.2586C36.8631 15.124 34.5319 17.4553 31.6665 17.4553C28.801 17.4553 26.4698 15.124 26.4698 12.2586Z" fill="#8C8C8C"/>
<path d="M29.2277 10.3533L30.0251 12.2586L29.2277 14.164C29.0923 14.4876 29.419 14.8118 29.7416 14.674L34.5555 12.6179C34.8718 12.4828 34.8718 12.0345 34.5555 11.8994L29.7416 9.84326C29.419 9.70541 29.0923 10.0297 29.2277 10.3533Z" fill="#8C8C8C"/>
</svg>
