<svg width="80" height="80" viewBox="0 0 80 80" fill="none" xmlns="http://www.w3.org/2000/svg">
<path d="M75.7781 7.51578C72.9858 -1.26344 64.4625 7.5575 59.4753 5.47062C54.7906 3.51031 47.5394 -5.07875 45.7658 4.30641C40.9741 29.6631 -0.311247 12.8081 4.21516 46.3142C5.82407 58.2245 12.3728 73.1678 24.6311 77.4187C40.6866 82.9866 62.9687 80.1612 71.2345 62.8802C79.0097 46.625 58.2166 28.9189 73.7672 15.3864C75.907 13.5242 76.6376 10.2181 75.7781 7.51578Z" fill="url(#paint0_linear_17_4867)"/>
<g opacity="0.1">
<path d="M75.7078 71.2658L64.988 52.6986C64.5813 51.9941 63.738 51.6998 62.9972 51.9584L59.8383 46.487C66.7952 41.3302 68.9287 31.6622 64.4948 23.9825C60.2988 16.7147 51.6197 13.6503 43.9673 16.2633V13.6178C43.9673 12.7548 43.2678 12.0553 42.4048 12.0553H10.0427C9.17969 12.0553 8.48016 12.7548 8.48016 13.6178V35.3397H5.63047C4.7675 35.3397 4.06797 36.0392 4.06797 36.9022V60.8844C4.06797 61.7473 4.7675 62.4469 5.63047 62.4469H16.5259V67.0402C16.5259 67.4716 16.8758 67.8214 17.3072 67.8214H39.7002C40.1316 67.8214 40.4814 67.4716 40.4814 67.0402V51.4216C40.4814 50.9902 40.1316 50.6403 39.7002 50.6403H24.3061V38.6209H33.3309C33.6647 39.5189 34.0766 40.4013 34.5716 41.2586C39.0055 48.9383 48.4448 51.9245 56.3892 48.4781L59.5481 53.9495C58.9538 54.4619 58.787 55.3392 59.1937 56.0438L69.9136 74.6109C70.3739 75.4081 71.3933 75.6813 72.1905 75.2209L75.0977 73.5425C75.8948 73.0823 76.168 72.063 75.7078 71.2658Z" fill="#342A98"/>
<path d="M44.8456 61.9022H47.7492C48.1806 61.9022 48.5305 61.5523 48.5305 61.1209C48.5305 60.6895 48.1806 60.3397 47.7492 60.3397H44.8456C44.4142 60.3397 44.0644 60.6895 44.0644 61.1209C44.0644 61.5523 44.4142 61.9022 44.8456 61.9022Z" fill="#342A98"/>
<path d="M53.9992 63.5242H44.8456C44.4142 63.5242 44.0644 63.8741 44.0644 64.3055C44.0644 64.7369 44.4142 65.0867 44.8456 65.0867H53.9992C54.4306 65.0867 54.7805 64.7369 54.7805 64.3055C54.7805 63.8741 54.4306 63.5242 53.9992 63.5242Z" fill="#342A98"/>
<path d="M53.9992 66.7089H44.8456C44.4142 66.7089 44.0644 67.0588 44.0644 67.4902C44.0644 67.9216 44.4142 68.2714 44.8456 68.2714H53.9992C54.4306 68.2714 54.7805 67.9216 54.7805 67.4902C54.7805 67.0588 54.4306 66.7089 53.9992 66.7089Z" fill="#342A98"/>
</g>
<path d="M40.4809 47.6719V63.2906C40.4809 63.7219 40.1325 64.0719 39.6997 64.0719H17.3075C16.8763 64.0719 16.5263 63.7219 16.5263 63.2906V47.6719C16.5263 47.2406 16.8763 46.8906 17.3075 46.8906H39.6997C40.1325 46.8906 40.4809 47.2406 40.4809 47.6719Z" fill="white" fill-opacity="0.9"/>
<path d="M42.4047 34.8709H10.0427C9.17969 34.8709 8.48016 34.1714 8.48016 33.3084V9.86781C8.48016 9.00484 9.17969 8.30531 10.0427 8.30531H42.4047C43.2677 8.30531 43.9672 9.00484 43.9672 9.86781V33.3084C43.9672 34.1714 43.2677 34.8709 42.4047 34.8709Z" fill="white" fill-opacity="0.9"/>
<path d="M40.6859 11.5867V31.5898H11.7613V11.5867H40.6859Z" fill="#EBE8FF"/>
<path d="M30.2298 29.5159C34.233 29.5159 37.4781 26.2708 37.4781 22.2677C37.4781 18.2645 34.233 15.0194 30.2298 15.0194C26.2267 15.0194 22.9816 18.2645 22.9816 22.2677C22.9816 26.2708 26.2267 29.5159 30.2298 29.5159Z" fill="#FC1264"/>
<path d="M38.1577 31.5897L32.9927 23.0494C32.6888 22.5467 31.9597 22.5467 31.6556 23.0494L28.595 28.1102L21.8989 17.0381C21.595 16.5355 20.8659 16.5355 20.5619 17.0381L11.7614 31.5897H38.1577Z" fill="#EBE8FF"/>
<path d="M56.0515 44.1446L59.5002 42.1534L63.6637 49.3646L60.215 51.3558L56.0515 44.1446Z" fill="#EBE8FF"/>
<path d="M49.5331 46.1466C59.0744 46.1466 66.8092 38.4118 66.8092 28.8705C66.8092 19.3291 59.0744 11.5944 49.5331 11.5944C39.9918 11.5944 32.257 19.3291 32.257 28.8705C32.257 38.4118 39.9918 46.1466 49.5331 46.1466Z" fill="white" fill-opacity="0.9"/>
<path d="M56.645 41.1875C50.0575 44.9906 41.6934 42.9266 37.6028 36.6156L48.5138 14.6812C53.7747 14.3062 59.0372 16.8859 61.8512 21.7594C65.7778 28.5625 63.4481 37.2609 56.645 41.1875Z" fill="#EBE8FF"/>
<path d="M58.2802 30.9398H56.7137V29.3734C56.7137 28.942 56.3639 28.5922 55.9325 28.5922H54.352C53.9206 28.5922 53.5708 28.942 53.5708 29.3734V30.9398H52.0044C51.573 30.9398 51.2231 31.2897 51.2231 31.7211V33.3016C51.2231 33.733 51.573 34.0828 52.0044 34.0828H53.5708V35.6492C53.5708 36.0806 53.9206 36.4305 54.352 36.4305H55.9325C56.3639 36.4305 56.7137 36.0806 56.7137 35.6492V34.0828H58.2802C58.7116 34.0828 59.0614 33.733 59.0614 33.3016V31.7211C59.0614 31.2897 58.7117 30.9398 58.2802 30.9398Z" fill="#342A98"/>
<path d="M75.0977 69.7927L72.1905 71.4711C71.3933 71.9314 70.3739 71.6583 69.9136 70.8611L59.1937 52.2939C58.7334 51.4967 59.0066 50.4773 59.8037 50.017L62.7109 48.3386C63.5081 47.8783 64.5275 48.1514 64.9878 48.9486L75.7077 67.5158C76.168 68.313 75.8948 69.3323 75.0977 69.7927Z" fill="white" fill-opacity="0.9"/>
<path d="M65.1455 62.6036L70.9393 59.2585L72.389 61.7695L66.5952 65.1146L65.1455 62.6036Z" fill="#342A98"/>
<path d="M67.7447 67.1041L69.9138 70.8609C70.3741 71.6581 71.3934 71.9312 72.1906 71.4709L75.0978 69.7925C75.895 69.3322 76.1681 68.3128 75.7078 67.5156L73.5388 63.7587L67.7447 67.1041Z" fill="#EBE8FF"/>
<path d="M22.7436 58.6969H5.63047C4.7675 58.6969 4.06797 57.9973 4.06797 57.1344V33.1522C4.06797 32.2892 4.7675 31.5897 5.63047 31.5897H22.7436C23.6066 31.5897 24.3061 32.2892 24.3061 33.1522V57.1344C24.3061 57.9973 23.6066 58.6969 22.7436 58.6969Z" fill="#EBE8FF"/>
<path d="M12.5138 37.9169H9.61016C9.17875 37.9169 8.82891 37.567 8.82891 37.1356C8.82891 36.7042 9.17875 36.3544 9.61016 36.3544H12.5138C12.9452 36.3544 13.295 36.7042 13.295 37.1356C13.295 37.567 12.9452 37.9169 12.5138 37.9169Z" fill="#FC1264"/>
<path d="M18.7638 41.1014H9.61016C9.17875 41.1014 8.82891 40.7516 8.82891 40.3202C8.82891 39.8888 9.17875 39.5389 9.61016 39.5389H18.7638C19.1952 39.5389 19.545 39.8888 19.545 40.3202C19.545 40.7517 19.1952 41.1014 18.7638 41.1014Z" fill="#342A98"/>
<path d="M18.7638 44.2861H9.61016C9.17875 44.2861 8.82891 43.9363 8.82891 43.5048C8.82891 43.0734 9.17875 42.7236 9.61016 42.7236H18.7638C19.1952 42.7236 19.545 43.0734 19.545 43.5048C19.545 43.9363 19.1952 44.2861 18.7638 44.2861Z" fill="#342A98"/>
<path d="M18.7638 50.7189H12.4227C11.9913 50.7189 11.6414 50.3691 11.6414 49.9377C11.6414 49.5063 11.9913 49.1564 12.4227 49.1564H18.7638C19.1952 49.1564 19.545 49.5063 19.545 49.9377C19.545 50.3691 19.1952 50.7189 18.7638 50.7189Z" fill="#FC1264"/>
<path d="M9.61016 50.7189C10.0416 50.7189 10.3914 50.3691 10.3914 49.9377C10.3914 49.5062 10.0416 49.1564 9.61016 49.1564C9.17869 49.1564 8.82891 49.5062 8.82891 49.9377C8.82891 50.3691 9.17869 50.7189 9.61016 50.7189Z" fill="#FC1264"/>
<path d="M9.61016 53.9036C10.0416 53.9036 10.3914 53.5538 10.3914 53.1223C10.3914 52.6909 10.0416 52.3411 9.61016 52.3411C9.17869 52.3411 8.82891 52.6909 8.82891 53.1223C8.82891 53.5538 9.17869 53.9036 9.61016 53.9036Z" fill="#342A98"/>
<path d="M18.7638 53.9036H12.4227C11.9913 53.9036 11.6414 53.5538 11.6414 53.1223C11.6414 52.6909 11.9913 52.3411 12.4227 52.3411H18.7638C19.1952 52.3411 19.545 52.6909 19.545 53.1223C19.545 53.5538 19.1952 53.9036 18.7638 53.9036Z" fill="#342A98"/>
<path d="M34.8941 53.9092H33.3277V52.3428C33.3277 51.9114 32.9778 51.5616 32.5464 51.5616H30.9659C30.5345 51.5616 30.1847 51.9114 30.1847 52.3428V53.9092H28.6183C28.1869 53.9092 27.837 54.2591 27.837 54.6905V56.2709C27.837 56.7023 28.1869 57.0522 28.6183 57.0522H30.1847V58.6186C30.1847 59.05 30.5345 59.3998 30.9659 59.3998H32.5464C32.9778 59.3998 33.3277 59.05 33.3277 58.6186V57.0522H34.8941C35.3255 57.0522 35.6753 56.7023 35.6753 56.2709V54.6905C35.6753 54.2591 35.3256 53.9092 34.8941 53.9092Z" fill="#342A98"/>
<path d="M48.5137 14.6812V34.9516C48.5137 35.8703 47.7684 36.6156 46.8481 36.6156H37.6028C37.4684 36.4094 37.3403 36.1984 37.2153 35.9828C36.6809 35.0578 36.2637 34.0969 35.9559 33.1188L45.0169 15.3813C46.1653 14.9953 47.3387 14.7656 48.5137 14.6812Z" fill="white" fill-opacity="0.9"/>
<path d="M45.0169 15.3813V33.1187H42.3231L39.5091 28.4656C40.8044 27.0844 41.5981 25.2281 41.5981 23.1844C41.5981 21.3688 40.9716 19.7 39.9231 18.3812C40.6716 17.6969 41.5059 17.0813 42.4216 16.5531C43.2622 16.0688 44.1309 15.6781 45.0169 15.3813Z" fill="#EBE8FF"/>
<path d="M41.5981 23.1844C41.5981 25.2281 40.8059 27.0859 39.5091 28.4672L36.8184 24.0187C36.6966 23.8156 36.5091 23.6906 36.3059 23.6406C37.0841 21.6687 38.3044 19.8625 39.9231 18.3812C40.9716 19.7 41.5981 21.3687 41.5981 23.1844Z" fill="white" fill-opacity="0.9"/>
<path d="M42.3228 33.1181H35.9556C34.965 29.9619 35.1322 26.6134 36.3056 23.64C36.5088 23.69 36.6963 23.815 36.8181 24.0181L42.3228 33.1181Z" fill="#EBE8FF"/>
<path d="M76.3842 67.1252L65.6645 48.558C65.1864 47.7297 64.2938 47.2891 63.3983 47.3413L60.8559 42.9384C67.6745 37.4572 69.6784 27.6486 65.1713 19.8419C60.9808 12.5836 52.4773 9.33484 44.7481 11.4573V9.86719C44.7481 8.57484 43.6967 7.52344 42.4044 7.52344H10.0433C8.75094 7.52344 7.69953 8.57484 7.69953 9.86719V27.2172C7.69953 27.6486 8.04938 27.9984 8.48078 27.9984C8.91219 27.9984 9.26203 27.6486 9.26203 27.2172V9.86719C9.26203 9.43641 9.6125 9.08594 10.0433 9.08594H42.4042C42.835 9.08594 43.1855 9.43641 43.1855 9.86719V11.9653C42.605 12.1836 42.0319 12.437 41.4667 12.7192V11.5859C41.4667 11.1545 41.1169 10.8047 40.6855 10.8047H11.7606C11.3292 10.8047 10.9794 11.1545 10.9794 11.5859V30.8084H5.63047C4.33813 30.8084 3.28672 31.8598 3.28672 33.1522V57.1344C3.28672 58.4267 4.33813 59.4781 5.63047 59.4781H15.745V63.2906C15.745 64.1522 16.4459 64.8531 17.3075 64.8531H39.6997C40.5613 64.8531 41.2622 64.1522 41.2622 63.2906V47.6719C41.2622 46.8103 40.5613 46.1094 39.6997 46.1094H25.0873V35.6516H32.7973C33.1072 36.4148 33.4717 37.1659 33.895 37.8992C37.2359 43.6859 43.3178 46.9244 49.5634 46.9244C51.7434 46.9244 53.943 46.5274 56.0534 45.7088L58.5953 50.1122C58.4523 50.3291 58.3419 50.5686 58.2727 50.8269C58.1034 51.4584 58.1903 52.1183 58.5172 52.6845L59.9853 55.2273C60.2011 55.6011 60.6789 55.7291 61.0525 55.5133C61.4263 55.2975 61.5542 54.8198 61.3384 54.4461L59.8703 51.9033C59.752 51.6984 59.7206 51.4599 59.7819 51.2314C59.8431 51.003 59.9897 50.8119 60.1945 50.6938L63.1016 49.0153C63.5245 48.7716 64.067 48.9167 64.3113 49.3395L75.0309 67.9067C75.1492 68.1116 75.1806 68.3502 75.1194 68.5788C75.0581 68.8072 74.9116 68.9981 74.7067 69.1164L71.7997 70.7949C71.5948 70.913 71.3561 70.9444 71.1278 70.8833C70.8994 70.822 70.7083 70.6755 70.5902 70.4706L63.5891 58.3445C63.3734 57.9709 62.8956 57.843 62.5219 58.0586C62.1481 58.2744 62.0202 58.752 62.2359 59.1258L69.237 71.2519C69.5639 71.8181 70.0919 72.2233 70.7234 72.3925C70.9344 72.4491 71.1483 72.477 71.3611 72.477C71.7852 72.477 72.2039 72.3658 72.5811 72.1481L75.4881 70.4697C76.0544 70.1428 76.4595 69.6149 76.6288 68.9833C76.798 68.3517 76.7113 67.6914 76.3842 67.1252ZM5.63047 57.9156C5.19969 57.9156 4.84922 57.5652 4.84922 57.1344V33.1522C4.84922 32.7214 5.19969 32.3709 5.63047 32.3709H22.7436C23.1744 32.3709 23.5248 32.7214 23.5248 33.1522V57.1344C23.5248 57.5652 23.1744 57.9156 22.7436 57.9156H5.63047ZM39.6997 47.6719V63.2906H17.3075V59.4781H22.7438C24.0361 59.4781 25.0875 58.4267 25.0875 57.1344V47.6719H39.6997ZM25.0873 34.0891V33.1522C25.0873 32.8777 25.0375 32.6153 24.9503 32.3703H31.8209C31.9342 32.9466 32.073 33.5203 32.2447 34.0891H25.0873ZM31.5848 30.8078L13.1458 30.8084L21.2311 17.4419L27.9264 28.5138C28.0678 28.7478 28.3214 28.8908 28.5948 28.8908C28.8683 28.8908 29.1217 28.7478 29.2633 28.5139L32.3139 23.4733C31.5775 25.8263 31.3205 28.3242 31.5848 30.8078ZM32.3222 21.8914C31.7706 21.892 31.2713 22.1745 30.9875 22.6456L28.595 26.6L22.5672 16.632C22.2811 16.1611 21.7816 15.8803 21.2302 15.8803C21.2295 15.8803 21.2289 15.8803 21.2283 15.8803C20.6772 15.8809 20.1781 16.1625 19.8936 16.6333L12.5417 28.788V12.3672H39.9042V13.5961C36.6294 15.6588 34.2344 18.6259 32.8527 21.9834C32.6855 21.9238 32.5073 21.89 32.3222 21.8914ZM49.5608 45.362C43.8561 45.3617 38.2997 42.4033 35.2481 37.1178C30.7005 29.2411 33.4089 19.1331 41.2856 14.5855C43.8769 13.0894 46.7086 12.3787 49.5053 12.3787C55.21 12.3787 60.7664 15.3375 63.818 20.623C68.3656 28.4997 65.6572 38.6077 57.7805 43.1553C55.1892 44.6516 52.3577 45.3622 49.5608 45.362ZM59.8187 49.1063L57.4938 45.0788C57.8534 44.9017 58.2097 44.7119 58.5619 44.5086C58.9139 44.3053 59.2555 44.0909 59.5884 43.868L61.9145 47.8963L59.8187 49.1063Z" fill="#342A98"/>
<path d="M44.8456 58.1522H47.7492C48.1806 58.1522 48.5305 57.8023 48.5305 57.3709C48.5305 56.9395 48.1806 56.5897 47.7492 56.5897H44.8456C44.4142 56.5897 44.0644 56.9395 44.0644 57.3709C44.0644 57.8023 44.4142 58.1522 44.8456 58.1522Z" fill="#FC1264"/>
<path d="M53.9992 59.7742H44.8456C44.4142 59.7742 44.0644 60.1241 44.0644 60.5555C44.0644 60.9869 44.4142 61.3367 44.8456 61.3367H53.9992C54.4306 61.3367 54.7805 60.9869 54.7805 60.5555C54.7805 60.1241 54.4306 59.7742 53.9992 59.7742Z" fill="#FC1264"/>
<path d="M53.9992 62.9589H44.8456C44.4142 62.9589 44.0644 63.3088 44.0644 63.7402C44.0644 64.1716 44.4142 64.5214 44.8456 64.5214H53.9992C54.4306 64.5214 54.7805 64.1716 54.7805 63.7402C54.7805 63.3088 54.4306 62.9589 53.9992 62.9589Z" fill="#FC1264"/>
<path d="M62.5275 21.3683C58.3908 14.2033 49.1961 11.7394 42.0309 15.8763C38.5602 17.8802 36.0772 21.1158 35.04 24.987C34.0028 28.8583 34.535 32.9019 36.5389 36.3728C38.5428 39.8438 41.7784 42.3266 45.6498 43.3639C46.9425 43.7103 48.2542 43.8816 49.5577 43.8816C52.1575 43.8816 54.7236 43.1997 57.0355 41.8648C64.2005 37.728 66.6642 28.5333 62.5275 21.3683ZM42.8122 17.2294C43.2777 16.9606 43.7533 16.7248 44.2353 16.5175V32.3369H42.7633L37.488 23.6161C37.4281 23.5164 37.3581 23.4253 37.2805 23.3425C38.4275 20.7861 40.3383 18.6577 42.8122 17.2294ZM36.5492 25.3914C36.568 25.3214 36.5905 25.2533 36.6103 25.1838L40.9372 32.3369H36.5434C35.9386 30.0848 35.9295 27.7042 36.5492 25.3914ZM56.2542 40.5116C53.1447 42.3069 49.5219 42.7836 46.0542 41.8544C42.5861 40.9252 39.6873 38.7008 37.892 35.5914C37.575 35.0423 37.3014 34.4766 37.0672 33.8992H45.0167C45.4481 33.8992 45.798 33.5494 45.798 33.118V15.9578C47.0198 15.6044 48.2694 15.4313 49.5108 15.4313C54.1597 15.4313 58.6877 17.8425 61.1745 22.1497C64.8802 28.5684 62.6731 36.8056 56.2542 40.5116Z" fill="#342A98"/>
<path d="M11.6414 72.2298C11.21 72.2298 10.8602 71.88 10.8602 71.4486C10.8602 70.903 10.4163 70.4591 9.87063 70.4591C9.43922 70.4591 9.08938 70.1092 9.08938 69.6778C9.08938 69.2464 9.43922 68.8966 9.87063 68.8966C10.4163 68.8966 10.8602 68.4527 10.8602 67.907C10.8602 67.4756 11.21 67.1258 11.6414 67.1258C12.0728 67.1258 12.4227 67.4756 12.4227 67.907C12.4227 68.4527 12.8666 68.8966 13.4122 68.8966C13.8436 68.8966 14.1934 69.2464 14.1934 69.6778C14.1934 70.1092 13.8436 70.4591 13.4122 70.4591C12.8666 70.4591 12.4227 70.903 12.4227 71.4486C12.4227 71.88 12.073 72.2298 11.6414 72.2298Z" fill="#FC1264"/>
<path d="M20.4161 74.0006C19.9847 74.0006 19.6348 73.6508 19.6348 73.2194C19.6348 72.6738 19.1909 72.2298 18.6453 72.2298C18.2139 72.2298 17.8641 71.88 17.8641 71.4486C17.8641 71.0172 18.2139 70.6673 18.6453 70.6673C19.1909 70.6673 19.6348 70.2234 19.6348 69.6778C19.6348 69.2464 19.9847 68.8966 20.4161 68.8966C20.8475 68.8966 21.1973 69.2464 21.1973 69.6778C21.1973 70.2234 21.6412 70.6673 22.1869 70.6673C22.6183 70.6673 22.9681 71.0172 22.9681 71.4486C22.9681 71.88 22.6183 72.2298 22.1869 72.2298C21.6412 72.2298 21.1973 72.6738 21.1973 73.2194C21.1973 73.6508 20.8475 74.0006 20.4161 74.0006Z" fill="#FC1264"/>
<path d="M52.2178 9.49969C51.7864 9.49969 51.4366 9.14984 51.4366 8.71844C51.4366 8.17281 50.9927 7.72891 50.447 7.72891C50.0156 7.72891 49.6658 7.37906 49.6658 6.94766C49.6658 6.51625 50.0156 6.16641 50.447 6.16641C50.9927 6.16641 51.4366 5.7225 51.4366 5.17688C51.4366 4.74547 51.7864 4.39563 52.2178 4.39563C52.6492 4.39563 52.9991 4.74547 52.9991 5.17688C52.9991 5.7225 53.443 6.16641 53.9886 6.16641C54.42 6.16641 54.7698 6.51625 54.7698 6.94766C54.7698 7.37906 54.42 7.72891 53.9886 7.72891C53.443 7.72891 52.9991 8.17281 52.9991 8.71844C52.9991 9.14984 52.6492 9.49969 52.2178 9.49969Z" fill="#FC1264"/>
<path d="M68.2184 12.1597C68.0184 12.1597 67.8186 12.0834 67.6659 11.9309L66.8122 11.0772L65.9584 11.9309C65.6533 12.2359 65.1587 12.2359 64.8536 11.9309C64.5484 11.6258 64.5484 11.1311 64.8536 10.8261L66.2598 9.41984C66.565 9.11484 67.0595 9.11484 67.3647 9.41984L68.7709 10.8261C69.0761 11.1313 69.0761 11.6259 68.7709 11.9309C68.6183 12.0834 68.4183 12.1597 68.2184 12.1597Z" fill="#FC1264"/>
<path d="M61.3722 69.7558C61.1722 69.7558 60.9723 69.6795 60.8197 69.527L59.9659 68.6733L59.1122 69.527C58.807 69.832 58.3125 69.832 58.0073 69.527C57.7022 69.2219 57.7022 68.7272 58.0073 68.4222L59.4136 67.0159C59.7188 66.7109 60.2133 66.7109 60.5184 67.0159L61.9247 68.4222C62.2298 68.7273 62.2298 69.222 61.9247 69.527C61.772 69.6795 61.5722 69.7558 61.3722 69.7558Z" fill="#FC1264"/>
<defs>
<linearGradient id="paint0_linear_17_4867" x1="2.93092" y1="20.8294" x2="84.3812" y2="37.0673" gradientUnits="userSpaceOnUse">
<stop stop-color="#F9F8FF" stop-opacity="0.55"/>
<stop offset="1" stop-color="#D6CDF7" stop-opacity="0.8"/>
</linearGradient>
</defs>
</svg>
