<svg width="80" height="80" viewBox="0 0 80 80" fill="none" xmlns="http://www.w3.org/2000/svg">
<path d="M78.4177 22.0799C74.9244 13.1912 64.1636 7.8607 55.0495 11.3882C44.6461 15.4146 48.0955 31.9621 38.646 35.3082C33.5414 37.1157 25.9955 30.3638 20.8383 29.3285C11.335 27.4207 2.73189 34.1262 0.613454 43.412C-1.5478 52.8854 1.91861 65.5385 12.327 68.1098C24.7255 71.1726 31.1838 60.0271 41.5847 56.8268C52.2581 53.5426 64.1258 61.299 72.9619 51.8618C79.49 44.8898 81.8767 30.8818 78.4177 22.0799Z" fill="url(#paint0_linear_17_4866)"/>
<path opacity="0.1" d="M59.7135 27.684C59.607 26.4754 59.3506 25.3104 58.9669 24.2049C62.261 23.002 64.6127 19.8409 64.6127 16.1304C64.6127 11.3841 60.7652 7.53664 56.0189 7.53664C51.788 7.53664 48.2739 10.5949 47.56 14.6209C46.8 14.4982 46.0214 14.4309 45.2267 14.4309C40.3424 14.4309 36.0206 16.8387 33.383 20.532C28.9945 20.6621 25.2241 23.2513 23.4014 26.9693C18.9519 27.1091 15.3872 30.7577 15.3872 35.2412C15.3872 39.8134 19.0936 43.5198 23.6658 43.5198H35.5692V47.9184H32.6955C31.7211 47.9184 31.2331 49.0965 31.922 49.7855L34.9206 52.7841H25.6322C25.0381 52.7841 24.5566 53.2657 24.5566 53.8598V73.9991C24.5566 75.6535 25.8977 76.9948 27.5522 76.9948H54.3678C54.9619 76.9948 55.4435 76.5132 55.4435 75.9191V57.376C55.4435 56.782 54.9619 56.3004 54.3678 56.3004H54.3041V54.5051C54.3041 53.911 53.8225 53.4295 53.2285 53.4295H44.4339L48.0778 49.7855C48.7669 49.0965 48.2789 47.9184 47.3044 47.9184H44.4306V43.5198H56.3341C60.9063 43.5198 64.6127 39.8134 64.6127 35.2412C64.6128 31.873 62.6005 28.977 59.7135 27.684Z" fill="#342A98"/>
<path d="M54.3041 54.2451H38.041V49.6793H53.2285C53.8225 49.6793 54.3041 50.1609 54.3041 50.7549V54.2451Z" fill="#EBE8FF"/>
<path d="M40.7538 52.5504L38.9642 49.5576C38.77 49.2327 38.4194 49.034 38.0411 49.034H27.5524V73.2446H54.368C54.962 73.2446 55.4436 72.763 55.4436 72.169V53.626C55.4436 53.032 54.962 52.5504 54.368 52.5504H40.7538Z" fill="white" fill-opacity="0.9"/>
<path d="M36.7186 67.2938H34.378C33.9466 67.2938 33.5967 66.944 33.5967 66.5126C33.5967 66.0812 33.9466 65.7313 34.378 65.7313H36.7186C37.15 65.7313 37.4999 66.0812 37.4999 66.5126C37.4999 66.944 37.15 67.2938 36.7186 67.2938Z" fill="#FC1264"/>
<path d="M40.0408 70.077H34.378C33.9466 70.077 33.5967 69.7271 33.5967 69.2957C33.5967 68.8643 33.9466 68.5145 34.378 68.5145H40.0408C40.4722 68.5145 40.822 68.8643 40.822 69.2957C40.822 69.7271 40.4722 70.077 40.0408 70.077Z" fill="#342A98"/>
<path d="M27.5522 73.2446C25.8978 73.2446 24.5566 71.9035 24.5566 70.249V50.1096C24.5566 49.5155 25.0381 49.034 25.6322 49.034H29.472C30.0661 49.034 30.5477 49.5155 30.5477 50.1096V70.249C30.5478 71.9034 29.2066 73.2446 27.5522 73.2446Z" fill="#EBE8FF"/>
<path d="M52.1986 70.3745H45.2697C44.9727 70.3745 44.7319 70.1337 44.7319 69.8366V65.5395C44.7319 65.2424 44.9727 65.0016 45.2697 65.0016H52.1986C52.4956 65.0016 52.7364 65.2424 52.7364 65.5395V69.8366C52.7364 70.1337 52.4956 70.3745 52.1986 70.3745Z" fill="#FC1264"/>
<path d="M47.0566 57.1765C46.6252 57.1765 46.2753 56.8266 46.2753 56.3952V56.3773C46.2753 55.9459 46.6252 55.596 47.0566 55.596C47.488 55.596 47.8378 55.9459 47.8378 56.3773V56.3952C47.8378 56.8266 47.488 57.1765 47.0566 57.1765Z" fill="#342A98"/>
<path d="M49.506 57.1765C49.0746 57.1765 48.7247 56.8266 48.7247 56.3952V56.3773C48.7247 55.9459 49.0746 55.596 49.506 55.596C49.9374 55.596 50.2872 55.9459 50.2872 56.3773V56.3952C50.2872 56.8266 49.9374 57.1765 49.506 57.1765Z" fill="#342A98"/>
<path d="M51.9552 57.1765C51.5238 57.1765 51.1739 56.8266 51.1739 56.3952V56.3773C51.1739 55.9459 51.5238 55.596 51.9552 55.596C52.3866 55.596 52.7364 55.9459 52.7364 56.3773V56.3952C52.7364 56.8266 52.3866 57.1765 51.9552 57.1765Z" fill="#FC1264"/>
<path d="M59.7135 23.934C59.0599 16.5063 52.8241 10.6809 45.2267 10.6809C40.3424 10.6809 36.0206 13.0887 33.383 16.782C28.9945 16.9121 25.2241 19.5013 23.4014 23.2193C18.9519 23.3591 15.3872 27.0077 15.3872 31.4912C15.3872 36.0634 19.0936 39.7698 23.6658 39.7698H56.3341C60.9063 39.7698 64.6127 36.0634 64.6127 31.4912C64.6128 28.123 62.6005 25.227 59.7135 23.934Z" fill="#EBE8FF"/>
<path d="M23.6658 36.6446C20.8241 36.6446 18.5122 34.3327 18.5122 31.491C18.5122 28.692 20.703 26.4305 23.4997 26.3426L25.3795 26.2835L26.2074 24.5948C27.5802 21.7946 30.3652 19.9977 33.4756 19.9055L35.0252 19.8596L35.9261 18.598C38.0692 15.5973 41.5461 13.8059 45.2267 13.8059C48.1 13.8059 50.8455 14.8768 52.9574 16.821C55.0577 18.7546 56.3514 21.378 56.6005 24.2079L56.7613 26.036L58.4361 26.786C60.2899 27.6162 61.4877 29.463 61.4877 31.491C61.4877 34.3327 59.1758 36.6446 56.3341 36.6446H23.6658Z" fill="white" fill-opacity="0.9"/>
<path d="M55.0881 30.7259H52.7477C52.3163 30.7259 51.9664 30.376 51.9664 29.9446C51.9664 29.5132 52.3163 29.1634 52.7477 29.1634H55.0881C55.5195 29.1634 55.8694 29.5132 55.8694 29.9446C55.8694 30.376 55.5197 30.7259 55.0881 30.7259Z" fill="#FC1264"/>
<path d="M55.0881 33.509H50.363C49.9316 33.509 49.5817 33.1591 49.5817 32.7277C49.5817 32.2963 49.9316 31.9465 50.363 31.9465H55.0881C55.5195 31.9465 55.8694 32.2963 55.8694 32.7277C55.8694 33.1591 55.5197 33.509 55.0881 33.509Z" fill="#FC1264"/>
<path d="M44.4308 44.1682V29.8834C44.4308 29.2793 43.9411 28.7896 43.337 28.7896H36.663C36.0589 28.7896 35.5692 29.2793 35.5692 29.8834V44.1682H32.6955C31.7211 44.1682 31.2331 45.3463 31.922 46.0354L39.2266 53.3399C39.6538 53.7671 40.3463 53.7671 40.7733 53.3399L48.0778 46.0354C48.7669 45.3463 48.2789 44.1682 47.3044 44.1682H44.4308Z" fill="#EBE8FF"/>
<path d="M56.0189 20.9742C60.7651 20.9742 64.6127 17.1266 64.6127 12.3804C64.6127 7.63422 60.7651 3.78666 56.0189 3.78666C51.2727 3.78666 47.4252 7.63422 47.4252 12.3804C47.4252 17.1266 51.2727 20.9742 56.0189 20.9742Z" fill="#EBE8FF"/>
<path d="M49.3953 17.8562C50.9719 16.3655 53.3531 15.4155 56.0188 15.4155C58.6844 15.4155 61.0672 16.3655 62.6422 17.8562" stroke="#342A98" stroke-width="1.5"/>
<path d="M49.3953 6.90461C50.9719 8.39523 53.3531 9.34524 56.0188 9.34524C58.6844 9.34524 61.0672 8.39523 62.6422 6.90461" stroke="#342A98" stroke-width="1.5"/>
<path d="M56.0189 20.8803C57.9063 20.8803 59.4363 17.1027 59.4363 12.4428C59.4363 7.78289 57.9063 4.00529 56.0189 4.00529C54.1316 4.00529 52.6016 7.78289 52.6016 12.4428C52.6016 17.1027 54.1316 20.8803 56.0189 20.8803Z" stroke="#342A98" stroke-width="1.5"/>
<path d="M60.4464 23.4187C60.3458 22.5646 60.1722 21.7207 59.9297 20.8973C63.1513 19.4121 65.3939 16.1541 65.3939 12.3802C65.3939 7.21086 61.1883 3.00523 56.0189 3.00523C50.8495 3.00523 46.6439 7.21086 46.6439 12.3802C46.6439 17.5496 50.8495 21.7552 56.0189 21.7552C56.8625 21.7552 57.6795 21.6413 58.4577 21.4315C58.698 22.2698 58.8591 23.1312 58.9358 24.0023C58.9606 24.2843 59.1361 24.5309 59.3945 24.6468C62.0899 25.8549 63.8314 28.5418 63.8314 31.4916C63.8314 35.6254 60.4683 38.9885 56.3345 38.9885H45.2122V29.8834C45.2122 28.8495 44.3711 28.0084 43.3372 28.0084H36.6631C35.6292 28.0084 34.7881 28.8495 34.7881 29.8834V31.717C34.7881 32.1484 35.138 32.4982 35.5694 32.4982C36.0008 32.4982 36.3506 32.1484 36.3506 31.717V29.8834C36.3506 29.711 36.4908 29.5709 36.6631 29.5709H43.3372C43.5095 29.5709 43.6497 29.711 43.6497 29.8834V44.1682C43.6497 44.5996 43.9995 44.9495 44.431 44.9495H47.3047C47.4864 44.9495 47.5636 45.0702 47.5934 45.1423C47.6233 45.2143 47.6542 45.3543 47.5256 45.4829L40.2211 52.7874C40.0994 52.9093 39.901 52.9091 39.7792 52.7874L32.4747 45.4829C32.3463 45.3545 32.377 45.2145 32.4069 45.1423C32.4367 45.0702 32.5139 44.9495 32.6956 44.9495H35.5694C36.0008 44.9495 36.3506 44.5996 36.3506 44.1682V36.6446C36.3506 36.2132 36.0008 35.8634 35.5694 35.8634C35.138 35.8634 34.7881 36.2132 34.7881 36.6446V38.9885H23.6656C19.5319 38.9885 16.1688 35.6254 16.1688 31.4916C16.1688 27.4184 19.3566 24.1279 23.426 24.0007C23.7152 23.9916 23.9758 23.8235 24.1031 23.5635C25.8588 19.9801 29.4233 17.681 33.406 17.5634C33.65 17.5562 33.8766 17.4352 34.0185 17.2365C36.1349 14.274 39.3974 12.2365 42.9694 11.647C43.3952 11.5766 43.6831 11.1746 43.613 10.7488C43.5427 10.3232 43.1411 10.0348 42.7149 10.1052C38.8617 10.7413 35.3328 12.8884 32.9741 16.0188C28.7199 16.2771 24.927 18.7087 22.9106 22.4654C20.7283 22.6449 18.7027 23.5991 17.1653 25.182C15.515 26.881 14.6063 29.1218 14.6063 31.4916C14.6063 36.487 18.6703 40.551 23.6656 40.551H34.788V43.387H32.6955C31.9344 43.387 31.2544 43.8413 30.9633 44.5444C30.672 45.2476 30.8316 46.0496 31.3697 46.5879L33.0345 48.2527H25.6322C24.6083 48.2527 23.7753 49.0857 23.7753 50.1096V70.249C23.7753 72.3299 25.4669 74.023 27.5474 74.0257C27.5488 74.0257 54.3672 74.0262 54.3672 74.0262C55.3916 74.0262 56.225 73.1927 56.225 72.1684V53.6262C56.225 52.8562 55.7541 52.1945 55.0853 51.913V50.7551C55.0853 49.7312 54.2524 48.8982 53.2285 48.8982H46.32L48.6303 46.5879C49.1685 46.0498 49.328 45.2476 49.0367 44.5444C48.7455 43.8413 48.0655 43.3871 47.3045 43.3871H45.212V40.5512H56.3344C61.3297 40.5512 65.3938 36.4871 65.3938 31.4918C65.3938 28.0801 63.4666 24.9599 60.4464 23.4187ZM48.2064 12.3802C48.2064 8.07242 51.7111 4.56773 56.0189 4.56773C60.3267 4.56773 63.8314 8.07242 63.8314 12.3802C63.8314 16.688 60.3267 20.1927 56.0189 20.1927C51.7111 20.1927 48.2064 16.6882 48.2064 12.3802ZM25.3378 70.249V50.1096C25.3378 49.9473 25.4699 49.8152 25.6322 49.8152H29.472C29.6344 49.8152 29.7664 49.9473 29.7664 50.1096V70.249C29.7664 71.4699 28.7731 72.4634 27.552 72.4634C26.331 72.4634 25.3378 71.4699 25.3378 70.249ZM54.6625 72.1682C54.6625 72.331 54.53 72.4635 54.3672 72.4635H30.6088C31.0613 71.8409 31.3289 71.0757 31.3289 70.2488V50.1096C31.3289 50.0091 31.3188 49.9113 31.3033 49.8152H34.5969L38.6741 53.8924C39.0395 54.2579 39.5197 54.4407 39.9999 54.4407C40.48 54.4407 40.9602 54.2579 41.3256 53.8924L41.8872 53.3309H54.297C54.2994 53.3309 54.3016 53.3315 54.3039 53.3315C54.3063 53.3315 54.3084 53.3309 54.3108 53.3309H54.3672C54.53 53.3309 54.6625 53.4634 54.6625 53.6262V72.1682ZM53.2285 50.4605C53.3908 50.4605 53.5228 50.5926 53.5228 50.7549V51.7682H43.4499L44.7577 50.4604H53.2285V50.4605Z" fill="#342A98"/>
<path d="M63.1233 66.9862C62.6919 66.9862 62.342 66.6363 62.342 66.2049C62.342 65.731 61.9566 65.3456 61.4827 65.3456C61.0513 65.3456 60.7014 64.9957 60.7014 64.5643C60.7014 64.1329 61.0513 63.7831 61.4827 63.7831C61.9566 63.7831 62.342 63.3976 62.342 62.9237C62.342 62.4923 62.6919 62.1424 63.1233 62.1424C63.5547 62.1424 63.9045 62.4923 63.9045 62.9237C63.9045 63.3976 64.29 63.7831 64.7639 63.7831C65.1953 63.7831 65.5452 64.1329 65.5452 64.5643C65.5452 64.9957 65.1953 65.3456 64.7639 65.3456C64.29 65.3456 63.9045 65.731 63.9045 66.2049C63.9045 66.6365 63.5547 66.9862 63.1233 66.9862Z" fill="#FC1264"/>
<path d="M18.3891 49.5076C17.9577 49.5076 17.6078 49.1577 17.6078 48.7263C17.6078 48.2524 17.2224 47.867 16.7485 47.867C16.317 47.867 15.9672 47.5171 15.9672 47.0857C15.9672 46.6543 16.317 46.3045 16.7485 46.3045C17.2224 46.3045 17.6078 45.919 17.6078 45.4451C17.6078 45.0137 17.9577 44.6638 18.3891 44.6638C18.8205 44.6638 19.1703 45.0137 19.1703 45.4451C19.1703 45.919 19.5558 46.3045 20.0297 46.3045C20.4611 46.3045 20.811 46.6543 20.811 47.0857C20.811 47.5171 20.4611 47.867 20.0297 47.867C19.556 47.867 19.1703 48.2524 19.1703 48.7263C19.1703 49.1577 18.8206 49.5076 18.3891 49.5076Z" fill="white" fill-opacity="0.9"/>
<path d="M29.3152 13.1027C28.8838 13.1027 28.5339 12.7529 28.5339 12.3215C28.5339 11.8476 28.1485 11.4621 27.6745 11.4621C27.2431 11.4621 26.8933 11.1123 26.8933 10.6809C26.8933 10.2495 27.2431 9.89961 27.6745 9.89961C28.1485 9.89961 28.5339 9.51414 28.5339 9.04023C28.5339 8.60883 28.8838 8.25898 29.3152 8.25898C29.7466 8.25898 30.0964 8.60883 30.0964 9.04023C30.0964 9.51414 30.4819 9.89961 30.9558 9.89961C31.3872 9.89961 31.737 10.2495 31.737 10.6809C31.737 11.1123 31.3872 11.4621 30.9558 11.4621C30.4819 11.4621 30.0964 11.8476 30.0964 12.3215C30.0964 12.7529 29.7466 13.1027 29.3152 13.1027Z" fill="#FC1264"/>
<path d="M66.3935 23.4091C66.1935 23.4091 65.9936 23.3329 65.841 23.1804C65.5358 22.8752 65.5358 22.3805 65.841 22.0755L67.4035 20.513C67.7086 20.208 68.2031 20.208 68.5083 20.513C68.8135 20.8182 68.8135 21.3129 68.5083 21.6179L66.9458 23.1804C66.7933 23.3329 66.5935 23.4091 66.3935 23.4091Z" fill="#FC1264"/>
<path d="M12.0945 56.0095C11.8945 56.0095 11.6947 55.9332 11.542 55.7807C11.2369 55.4756 11.2369 54.9809 11.542 54.6759L13.1045 53.1134C13.4097 52.8084 13.9042 52.8084 14.2094 53.1134C14.5145 53.4185 14.5145 53.9132 14.2094 54.2182L12.6469 55.7807C12.4944 55.9332 12.2945 56.0095 12.0945 56.0095Z" fill="white" fill-opacity="0.9"/>
<defs>
<linearGradient id="paint0_linear_17_4866" x1="-1.03868" y1="25.4806" x2="84.8532" y2="51.4723" gradientUnits="userSpaceOnUse">
<stop stop-color="#F9F8FF" stop-opacity="0.55"/>
<stop offset="1" stop-color="#D6CDF7" stop-opacity="0.8"/>
</linearGradient>
</defs>
</svg>
