<svg width="80" height="80" viewBox="0 0 80 80" fill="none" xmlns="http://www.w3.org/2000/svg">
<g clip-path="url(#clip0_58_4133)">
<path d="M3.17761 21.6843C-0.567234 28.0579 -0.961921 39.0935 1.7812 45.9921C4.18386 52.0347 8.96338 57.7062 15.2374 58.4167C17.5446 58.678 19.9027 58.2511 22.1862 58.6817C30.0388 60.1623 32.9599 70.1824 39.0627 75.5087C43.3099 79.2155 49.203 80.5274 54.7149 79.8131C60.2268 79.0991 65.3871 76.5189 69.9299 73.2088C73.5169 70.5949 76.873 67.3813 78.643 63.226C82.353 54.5161 77.9883 44.0554 71.2075 37.6267C69.0955 35.6244 66.7416 33.8583 64.9771 31.5233C63.2126 29.1883 62.0896 26.0723 62.9304 23.2381C63.6011 20.977 65.4068 19.2241 66.0908 16.9672C67.0218 13.896 65.6166 10.4508 63.3093 8.29338C61.0019 6.13609 57.9487 5.05154 54.924 4.30721C42.2516 1.188 14.4829 2.44289 3.17761 21.6843Z" fill="url(#paint0_linear_58_4133)"/>
<path d="M11.6987 50.1126C11.2673 50.1126 10.9175 49.7628 10.9175 49.3314C10.9175 48.8143 10.497 48.3939 9.98 48.3939C9.54859 48.3939 9.19875 48.044 9.19875 47.6126C9.19875 47.1812 9.54859 46.8314 9.98 46.8314C10.497 46.8314 10.9175 46.4109 10.9175 45.8939C10.9175 45.4625 11.2673 45.1126 11.6987 45.1126C12.1302 45.1126 12.48 45.4625 12.48 45.8939C12.48 46.4109 12.9005 46.8314 13.4175 46.8314C13.8489 46.8314 14.1987 47.1812 14.1987 47.6126C14.1987 48.044 13.8489 48.3939 13.4175 48.3939C12.9005 48.3939 12.48 48.8143 12.48 49.3314C12.48 49.7628 12.1302 50.1126 11.6987 50.1126Z" fill="white" fill-opacity="0.9"/>
<path d="M9.50002 71C9.06861 71 8.71877 70.6502 8.71877 70.2188C8.71877 69.7017 8.2983 69.2812 7.78127 69.2812C7.34986 69.2812 7.00002 68.9314 7.00002 68.5C7.00002 68.0686 7.34986 67.7188 7.78127 67.7188C8.2983 67.7188 8.71877 67.2983 8.71877 66.7812C8.71877 66.3498 9.06861 66 9.50002 66C9.93143 66 10.2813 66.3498 10.2813 66.7812C10.2813 67.2983 10.7017 67.7188 11.2188 67.7188C11.6502 67.7188 12 68.0686 12 68.5C12 68.9314 11.6502 69.2812 11.2188 69.2812C10.7017 69.2812 10.2813 69.7017 10.2813 70.2188C10.2813 70.6502 9.93158 71 9.50002 71Z" fill="#FC1264"/>
<path d="M71.5 10C71.0685 10 70.7188 9.65015 70.7188 9.21875C70.7188 8.70172 70.2983 8.28125 69.7813 8.28125C69.3497 8.28125 69 7.93141 69 7.5C69 7.06859 69.3497 6.71875 69.7813 6.71875C70.2983 6.71875 70.7188 6.29828 70.7188 5.78125C70.7188 5.34984 71.0685 5 71.5 5C71.9316 5 72.2813 5.34984 72.2813 5.78125C72.2813 6.29828 72.7017 6.71875 73.2188 6.71875C73.6503 6.71875 74 7.06859 74 7.5C74 7.93141 73.6503 8.28125 73.2188 8.28125C72.7017 8.28125 72.2813 8.70172 72.2813 9.21875C72.2813 9.65015 71.9316 10 71.5 10Z" fill="#FC1264"/>
<path d="M45.625 8.20309C45.4251 8.20309 45.225 8.12684 45.0726 7.97434C44.7675 7.66919 44.7675 7.1745 45.0726 6.8695L46.6351 5.307C46.94 5.002 47.435 5.002 47.7398 5.307C48.045 5.61215 48.045 6.10684 47.7398 6.41184L46.1773 7.97434C46.025 8.12684 45.8248 8.20309 45.625 8.20309Z" fill="white" fill-opacity="0.9"/>
<path d="M49.1875 8.20309C49.3873 8.20309 49.5875 8.12684 49.7398 7.97434C50.045 7.66919 50.045 7.1745 49.7398 6.8695L48.1773 5.307C47.8725 5.002 47.3775 5.002 47.0727 5.307C46.7675 5.61215 46.7675 6.10684 47.0727 6.41184L48.6352 7.97434C48.7875 8.12684 48.9877 8.20309 49.1875 8.20309Z" fill="white" fill-opacity="0.9"/>
<path d="M63.7812 33.1248C63.5814 33.1248 63.3812 33.0486 63.2289 32.8961C62.9237 32.5909 62.9237 32.0963 63.2289 31.7912L64.7914 30.2287C65.0962 29.9237 65.5912 29.9237 65.8961 30.2287C66.2012 30.5339 66.2012 31.0286 65.8961 31.3336L64.3336 32.8961C64.1812 33.0484 63.9811 33.1248 63.7812 33.1248Z" fill="#342A98"/>
<path d="M49.4256 54.0789H27.1343C26.3955 54.0789 25.7967 53.4801 25.7967 52.7414V30.4501C25.7967 29.7114 26.3955 29.1126 27.1343 29.1126H49.4256C50.1643 29.1126 50.7631 29.7114 50.7631 30.4501V52.7414C50.7631 53.4801 50.1643 54.0789 49.4256 54.0789Z" fill="#EBE8FF"/>
<path d="M46.5155 54.7933H29.6705C27.467 54.7933 25.6807 53.0069 25.6807 50.8034V33.9585C25.6807 31.7549 27.467 29.9687 29.6705 29.9687H46.5155C48.7191 29.9687 50.5053 31.7549 50.5053 33.9585V50.8034C50.5053 53.0069 48.719 54.7933 46.5155 54.7933Z" fill="white" fill-opacity="0.9"/>
<path d="M47.0811 33.3926V50.513H29.9607V33.3926H47.0811Z" fill="#EBE8FF"/>
<path d="M29.8092 35.0398C29.4399 35.0398 29.1404 34.7403 29.1404 34.371V33.6153C29.1404 33.246 29.4399 32.9465 29.8092 32.9465H30.5649C30.9342 32.9465 31.2336 33.246 31.2336 33.6153C31.2336 33.9846 30.9342 34.2841 30.5649 34.2841H30.4779V34.371C30.4779 34.7403 30.1785 35.0398 29.8092 35.0398Z" fill="#FC1264"/>
<path d="M29.8092 48.8011C29.4399 48.8011 29.1404 49.1005 29.1404 49.4698V50.2255C29.1404 50.5948 29.4399 50.8943 29.8092 50.8943H30.5649C30.9342 50.8943 31.2336 50.5948 31.2336 50.2255C31.2336 49.8562 30.9342 49.5568 30.5649 49.5568H30.4779V49.4698C30.4779 49.1005 30.1785 48.8011 29.8092 48.8011Z" fill="#FC1264"/>
<path d="M46.7501 35.0398C46.3808 35.0398 46.0813 34.7403 46.0813 34.371V34.2841H45.9944C45.6251 34.2841 45.3256 33.9846 45.3256 33.6153C45.3256 33.246 45.6251 32.9465 45.9944 32.9465H46.7501C47.1194 32.9465 47.4189 33.246 47.4189 33.6153V34.371C47.4189 34.7403 47.1195 35.0398 46.7501 35.0398Z" fill="#FC1264"/>
<path d="M46.7501 48.8011C46.3808 48.8011 46.0813 49.1005 46.0813 49.4698V49.5568H45.9944C45.6251 49.5568 45.3256 49.8562 45.3256 50.2255C45.3256 50.5948 45.6251 50.8943 45.9944 50.8943H46.7501C47.1194 50.8943 47.4189 50.5948 47.4189 50.2255V49.4698C47.4189 49.1005 47.1195 48.8011 46.7501 48.8011Z" fill="#FC1264"/>
<rect x="25.6997" y="29.1315" width="25.6427" height="25.6427" rx="5.125" stroke="#342A98" stroke-width="1.75"/>
<path d="M25.4084 64.4667C25.4084 63.2931 26.3598 62.3417 27.5334 62.3417H49.2667C50.4403 62.3417 51.3917 63.2931 51.3917 64.4667V70.2001C51.3917 71.3737 50.4403 72.3251 49.2667 72.3251H27.5334C26.3598 72.3251 25.4084 71.3737 25.4084 70.2001V64.4667Z" fill="#EBE8FF" stroke="#342A98" stroke-width="1.75"/>
<path d="M13.6963 32.5177C6.61534 32.5177 0.875 26.7773 0.875 19.6963C0.875 12.6153 6.61534 6.875 13.6963 6.875C20.7773 6.875 26.5177 12.6153 26.5177 19.6963C26.5177 26.7773 20.7773 32.5177 13.6963 32.5177Z" fill="#FDFDFF" stroke="#342A98" stroke-width="1.75"/>
<path d="M13.8668 28.5917C9.05652 28.5917 5.14167 24.6769 5.14167 19.8667C5.14167 15.0564 9.05652 11.1417 13.8668 11.1417C18.677 11.1417 22.5917 15.0564 22.5917 19.8667C22.5916 24.6768 18.6768 28.5917 13.8668 28.5917Z" fill="#EBE8FF" stroke="#FC1264" stroke-width="1.75"/>
<path d="M62.4001 72.3251C58.4722 72.3251 55.2751 69.1281 55.2751 65.2001C55.2751 61.2721 58.4722 58.0751 62.4001 58.0751C66.3281 58.0751 69.5251 61.2721 69.5251 65.2001C69.525 69.128 66.328 72.3251 62.4001 72.3251Z" fill="white" stroke="#342A98" stroke-width="1.75"/>
<path d="M60.6084 65.2001C60.6084 66.1872 61.4129 66.9918 62.4001 66.9918C63.3872 66.9918 64.1917 66.1873 64.1918 65.2001H60.6084ZM60.6084 65.2001C60.6084 64.2129 61.4129 63.4084 62.4001 63.4084M60.6084 65.2001L62.4001 63.4084M62.4001 63.4084C63.3873 63.4084 64.1917 64.2129 64.1918 65.2001L62.4001 63.4084Z" fill="#FC1264" stroke="#342A98" stroke-width="1.75"/>
<path d="M29.5329 68.4895C28.8248 68.4895 28.2488 67.9135 28.2488 67.2055C28.2488 66.4975 28.8248 65.9215 29.5329 65.9215C30.2409 65.9215 30.8169 66.4975 30.8169 67.2055C30.8169 67.9135 30.2409 68.4895 29.5329 68.4895Z" fill="#FC1264"/>
<path d="M33.8129 68.4895C33.1048 68.4895 32.5288 67.9135 32.5288 67.2055C32.5288 66.4975 33.1048 65.9215 33.8129 65.9215C34.5209 65.9215 35.0969 66.4975 35.0969 67.2055C35.0969 67.9135 34.5209 68.4895 33.8129 68.4895Z" fill="#FC1264"/>
<path d="M38.0928 68.4895C37.3848 68.4895 36.8088 67.9135 36.8088 67.2055C36.8088 66.4975 37.3848 65.9215 38.0928 65.9215C38.8009 65.9215 39.3769 66.4975 39.3769 67.2055C39.3768 67.9135 38.8008 68.4895 38.0928 68.4895Z" fill="#FC1264"/>
<path d="M63.5374 17.092C63.5374 22.3933 59.2398 26.6909 53.9384 26.6909C48.6371 26.6909 44.3395 22.3933 44.3395 17.092C44.3395 11.7906 48.6371 7.49304 53.9384 7.49304C59.2398 7.49304 63.5374 11.7906 63.5374 17.092Z" fill="#FDFDFF" stroke="#342A98" stroke-width="1.75"/>
<path d="M53.9379 17.0922L59.7243 22.8786C59.8867 23.041 59.8803 23.3068 59.7103 23.4611C56.3374 26.5242 51.1173 26.4272 47.8601 23.17C44.5029 19.8128 44.5029 14.3703 47.8601 11.0145C51.1173 7.75731 56.3373 7.66021 59.7103 10.7233C59.8803 10.8776 59.8867 11.1434 59.7243 11.3058L53.9379 17.0922Z" fill="#E8E2FF"/>
<path d="M54.6043 17.0946C54.4333 17.0946 54.262 17.0293 54.1315 16.8988C53.8703 16.6376 53.8703 16.2143 54.1315 15.953L58.5876 11.4968C58.8488 11.2357 59.2722 11.2357 59.5334 11.4968C59.7946 11.758 59.7946 12.1813 59.5334 12.4425L55.0773 16.8988C54.9466 17.0293 54.7754 17.0946 54.6043 17.0946Z" fill="#342A98"/>
<path d="M48.8159 22.883C48.6449 22.883 48.4735 22.8178 48.3431 22.6872C48.0819 22.426 48.0819 22.0025 48.3431 21.7415L49.3754 20.7092C49.6364 20.4481 50.0601 20.4481 50.3211 20.7092C50.5823 20.9704 50.5823 21.3938 50.3211 21.6549L49.2888 22.6872C49.1582 22.8178 48.987 22.883 48.8159 22.883Z" fill="#FC1264"/>
<path d="M59.0608 22.883C58.8898 22.883 58.7184 22.8178 58.5879 22.6871L57.5557 21.6548C57.2946 21.3936 57.2946 20.9701 57.5558 20.709C57.8171 20.4479 58.2404 20.4478 58.5016 20.709L59.5338 21.7413C59.7949 22.0025 59.7949 22.426 59.5336 22.6871C59.4031 22.8178 59.232 22.883 59.0608 22.883Z" fill="#FC1264"/>
<path d="M49.8481 13.6705C49.6771 13.6705 49.5057 13.6053 49.3753 13.4747L48.343 12.4425C48.0818 12.1813 48.0818 11.758 48.3429 11.4968C48.6041 11.2357 49.0274 11.2357 49.2886 11.4968L50.3209 12.529C50.5822 12.7902 50.5822 13.2135 50.3209 13.4747C50.1905 13.6053 50.0193 13.6705 49.8481 13.6705Z" fill="#FC1264"/>
<path d="M53.9384 18.5718C54.7557 18.5718 55.4183 17.9093 55.4183 17.092C55.4183 16.2747 54.7557 15.6122 53.9384 15.6122C53.1212 15.6122 52.4586 16.2747 52.4586 17.092C52.4586 17.9093 53.1212 18.5718 53.9384 18.5718Z" fill="#342A98"/>
<path d="M23.9688 41.9528L15.6966 41.9528C14.592 41.9528 13.6966 41.0574 13.6966 39.9528L13.6966 33.3926" stroke="#342A98" stroke-width="1.75" stroke-linecap="round"/>
<path d="M52.2173 41.9528L58.2094 41.9528" stroke="#342A98" stroke-width="1.75" stroke-linecap="round"/>
<path d="M38.5206 27.4005L38.5206 18.2723C38.5206 17.1677 39.4161 16.2723 40.5206 16.2723L43.6568 16.2723" stroke="#342A98" stroke-width="1.75" stroke-linecap="round"/>
<path d="M55.8492 39.6785L58.2704 42.0997L55.8492 44.5209" stroke="#342A98" stroke-width="1.75" stroke-linecap="round"/>
<path d="M21.6085 39.5502L24.0296 41.9714L21.6085 44.3926" stroke="#342A98" stroke-width="1.75" stroke-linecap="round"/>
<path d="M40.7954 25.0402L38.3742 27.4614L35.953 25.0402" stroke="#342A98" stroke-width="1.75" stroke-linecap="round"/>
<path d="M71.0497 65.1938L75.0418 65.1938C76.1464 65.1938 77.0418 64.2984 77.0418 63.1938L77.0418 58.5052C77.0418 57.4007 76.1464 56.5052 75.0418 56.5052L71.3376 56.5052C70.233 56.5052 69.3376 55.6098 69.3376 54.5052L69.3376 50.9411" stroke="#342A98" stroke-width="1.75" stroke-linecap="round"/>
<path d="M73.4707 62.7911L71.0495 65.2123L73.4707 67.6335" stroke="#342A98" stroke-width="1.75" stroke-linecap="round"/>
<path d="M38.5212 55.2946L38.5212 59.5747" stroke="#342A98" stroke-width="1.75" stroke-linecap="round"/>
<path d="M40.7953 58.0704L38.3741 60.4916L35.9529 58.0704" stroke="#342A98" stroke-width="1.75" stroke-linecap="round"/>
<rect x="69.1045" y="32.062" width="13.6584" height="13.6584" rx="3.125" transform="rotate(45 69.1045 32.062)" fill="#FDFDFF" stroke="#FC1264" stroke-width="1.75"/>
<mask id="path-42-inside-1_58_4133" fill="white">
<rect x="69.1045" y="35.7277" width="8.5602" height="8.5602" rx="1" transform="rotate(45 69.1045 35.7277)"/>
</mask>
<rect x="69.1045" y="35.7277" width="8.5602" height="8.5602" rx="1" transform="rotate(45 69.1045 35.7277)" fill="#FDFDFF" stroke="#342A98" stroke-width="3.5" mask="url(#path-42-inside-1_58_4133)"/>
</g>
<defs>
<linearGradient id="paint0_linear_58_4133" x1="-1.03864" y1="23.0483" x2="88.0348" y2="43.4736" gradientUnits="userSpaceOnUse">
<stop stop-color="#F9F8FF" stop-opacity="0.55"/>
<stop offset="1" stop-color="#D6CDF7" stop-opacity="0.8"/>
</linearGradient>
<clipPath id="clip0_58_4133">
<rect width="80" height="80" fill="white"/>
</clipPath>
</defs>
</svg>
