<svg width="80" height="80" viewBox="0 0 80 80" fill="none" xmlns="http://www.w3.org/2000/svg">
<g clip-path="url(#clip0_17_4864)">
<path d="M53.4842 0.0664059C38.5127 1.41828 37.0638 30.1334 30.6067 44.8456C27.407 52.1359 19.8611 59.6572 21.1914 68.2491C22.6922 77.942 32.5816 80.7608 40.2044 79.8334C59.0674 77.5389 67.2199 57.7939 68.4539 39.0833C69.2147 27.5475 71.6258 -1.57172 53.4842 0.0664059Z" fill="url(#paint0_linear_17_4864)"/>
<path opacity="0.11" d="M64.7666 20.6145H58.9844V18.7395C58.9844 17.8766 58.2848 17.177 57.4219 17.177H55.5469C54.6839 17.177 53.9844 17.8766 53.9844 18.7395V20.6145H46.7969V18.7395C46.7969 17.8766 46.0973 17.177 45.2344 17.177H43.3594C42.4964 17.177 41.7969 17.8766 41.7969 18.7395V20.6145H34.6094V18.7395C34.6094 17.8766 33.9098 17.177 33.0469 17.177H31.1719C30.3089 17.177 29.6094 17.8766 29.6094 18.7395V20.6145H22.4219V18.7395C22.4219 17.8766 21.7223 17.177 20.8594 17.177H18.9844C18.1214 17.177 17.4219 17.8766 17.4219 18.7395V20.6145H11.6406C9.91469 20.6145 8.51562 22.0136 8.51562 23.7395V65.302C8.51562 67.028 9.91469 68.427 11.6406 68.427H64.7656C66.4916 68.427 67.8906 67.028 67.8906 65.302V23.7425C67.8906 22.015 66.492 20.6145 64.7666 20.6145Z" fill="#342A98"/>
<path d="M67.578 65.6145H14.4531C12.7272 65.6145 11.3281 64.2155 11.3281 62.4895V20.927C11.3281 19.2011 12.7272 17.802 14.4531 17.802H67.5781C69.3041 17.802 70.7031 19.2011 70.7031 20.927V62.4894C70.7031 64.2153 69.3039 65.6145 67.578 65.6145Z" fill="#EBE8FF"/>
<path d="M61.0156 56.552H21.3281C20.8967 56.552 20.5469 56.2022 20.5469 55.7708V37.177C20.5469 36.7456 20.8967 36.3958 21.3281 36.3958H61.0156C61.447 36.3958 61.7969 36.7456 61.7969 37.177V55.7708C61.7969 56.2022 61.4472 56.552 61.0156 56.552Z" fill="#EBE8FF"/>
<path d="M70.7031 27.9583V20.927C70.7031 19.2011 69.3041 17.802 67.5781 17.802H14.4531C12.7272 17.802 11.3281 19.2011 11.3281 20.927V27.9583H70.7031Z" fill="#EBE8FF"/>
<path d="M23.6719 22.3333H21.7969C20.9339 22.3333 20.2344 21.6338 20.2344 20.7708V15.927C20.2344 15.0641 20.9339 14.3645 21.7969 14.3645H23.6719C24.5348 14.3645 25.2344 15.0641 25.2344 15.927V20.7708C25.2344 21.6338 24.5348 22.3333 23.6719 22.3333Z" fill="#EBE8FF"/>
<path d="M35.8594 22.3333H33.9844C33.1214 22.3333 32.4219 21.6338 32.4219 20.7708V15.927C32.4219 15.0641 33.1214 14.3645 33.9844 14.3645H35.8594C36.7223 14.3645 37.4219 15.0641 37.4219 15.927V20.7708C37.4219 21.6338 36.7223 22.3333 35.8594 22.3333Z" fill="#EBE8FF"/>
<path d="M48.0386 22.3333H46.1719C45.3089 22.3333 44.6094 21.6338 44.6094 20.7708V15.927C44.6094 15.0641 45.3089 14.3645 46.1719 14.3645H48.0469C48.9098 14.3645 49.6094 15.0641 49.6094 15.927V20.7756C49.6092 21.6359 48.9061 22.3333 48.0386 22.3333Z" fill="#EBE8FF"/>
<path d="M60.2344 22.3333H58.3594C57.4964 22.3333 56.7969 21.6338 56.7969 20.7708V15.927C56.7969 15.0641 57.4964 14.3645 58.3594 14.3645H60.2344C61.0973 14.3645 61.7969 15.0641 61.7969 15.927V20.7708C61.7969 21.6338 61.0973 22.3333 60.2344 22.3333Z" fill="#EBE8FF"/>
<path d="M22.7344 39.9895H18.3594C17.4964 39.9895 16.7969 39.29 16.7969 38.427V34.052C16.7969 33.1891 17.4964 32.4895 18.3594 32.4895H22.7344C23.5973 32.4895 24.2969 33.1891 24.2969 34.052V38.427C24.2969 39.29 23.5973 39.9895 22.7344 39.9895Z" fill="white" fill-opacity="0.9"/>
<path d="M33.0469 39.9895H28.6719C27.8089 39.9895 27.1094 39.29 27.1094 38.427V34.052C27.1094 33.1891 27.8089 32.4895 28.6719 32.4895H33.0469C33.9098 32.4895 34.6094 33.1891 34.6094 34.052V38.427C34.6094 39.29 33.9098 39.9895 33.0469 39.9895Z" fill="white" fill-opacity="0.9"/>
<path d="M43.2031 39.9895H38.8281C37.9652 39.9895 37.2656 39.29 37.2656 38.427V34.052C37.2656 33.1891 37.9652 32.4895 38.8281 32.4895H43.2031C44.0661 32.4895 44.7656 33.1891 44.7656 34.052V38.427C44.7656 39.29 44.0661 39.9895 43.2031 39.9895Z" fill="white" fill-opacity="0.9"/>
<path d="M53.3594 39.9895H48.9844C48.1214 39.9895 47.4219 39.29 47.4219 38.427V34.052C47.4219 33.1891 48.1214 32.4895 48.9844 32.4895H53.3594C54.2223 32.4895 54.9219 33.1891 54.9219 34.052V38.427C54.9219 39.29 54.2223 39.9895 53.3594 39.9895Z" fill="white" fill-opacity="0.9"/>
<path d="M63.6666 39.9895H59.2969C58.4339 39.9895 57.7344 39.29 57.7344 38.427V34.052C57.7344 33.1891 58.4339 32.4895 59.2969 32.4895H63.6719C64.5348 32.4895 65.2344 33.1891 65.2344 34.052V38.4216C65.2344 39.2875 64.5325 39.9895 63.6666 39.9895Z" fill="white" fill-opacity="0.9"/>
<path d="M22.7344 40.7708H18.3594C17.067 40.7708 16.0156 39.7194 16.0156 38.427V34.052C16.0156 32.7597 17.067 31.7083 18.3594 31.7083H22.7344C24.0267 31.7083 25.0781 32.7597 25.0781 34.052V38.427C25.0781 39.7194 24.0267 40.7708 22.7344 40.7708ZM18.3594 33.2708C17.9286 33.2708 17.5781 33.6213 17.5781 34.052V38.427C17.5781 38.8578 17.9286 39.2083 18.3594 39.2083H22.7344C23.1652 39.2083 23.5156 38.8578 23.5156 38.427V34.052C23.5156 33.6213 23.1652 33.2708 22.7344 33.2708H18.3594Z" fill="#342A98"/>
<path d="M33.0469 40.7708H28.6719C27.3795 40.7708 26.3281 39.7194 26.3281 38.427V34.052C26.3281 32.7597 27.3795 31.7083 28.6719 31.7083H33.0469C34.3392 31.7083 35.3906 32.7597 35.3906 34.052V38.427C35.3906 39.7194 34.3392 40.7708 33.0469 40.7708ZM28.6719 33.2708C28.2411 33.2708 27.8906 33.6213 27.8906 34.052V38.427C27.8906 38.8578 28.2411 39.2083 28.6719 39.2083H33.0469C33.4777 39.2083 33.8281 38.8578 33.8281 38.427V34.052C33.8281 33.6213 33.4777 33.2708 33.0469 33.2708H28.6719Z" fill="#342A98"/>
<path d="M43.2031 40.7708H38.8281C37.5358 40.7708 36.4844 39.7194 36.4844 38.427V34.052C36.4844 32.7597 37.5358 31.7083 38.8281 31.7083H43.2031C44.4956 31.7083 45.5469 32.7597 45.5469 34.052V38.427C45.5469 39.7194 44.4956 40.7708 43.2031 40.7708ZM38.8281 33.2708C38.3973 33.2708 38.0469 33.6213 38.0469 34.052V38.427C38.0469 38.8578 38.3973 39.2083 38.8281 39.2083H43.2031C43.6339 39.2083 43.9844 38.8578 43.9844 38.427V34.052C43.9844 33.6213 43.6339 33.2708 43.2031 33.2708H38.8281Z" fill="#342A98"/>
<path d="M53.3594 40.7708H48.9844C47.6919 40.7708 46.6406 39.7194 46.6406 38.427V34.052C46.6406 32.7597 47.6919 31.7083 48.9844 31.7083H53.3594C54.6519 31.7083 55.7031 32.7597 55.7031 34.052V38.427C55.7031 39.7194 54.6519 40.7708 53.3594 40.7708ZM48.9844 33.2708C48.5536 33.2708 48.2031 33.6213 48.2031 34.052V38.427C48.2031 38.8578 48.5536 39.2083 48.9844 39.2083H53.3594C53.7902 39.2083 54.1406 38.8578 54.1406 38.427V34.052C54.1406 33.6213 53.7902 33.2708 53.3594 33.2708H48.9844Z" fill="#342A98"/>
<path d="M63.6664 40.7708H59.2969C58.0044 40.7708 56.9531 39.7194 56.9531 38.427V34.052C56.9531 32.7597 58.0044 31.7083 59.2969 31.7083H63.6719C64.9644 31.7083 66.0156 32.7597 66.0156 34.052V38.4216C66.0156 39.7169 64.9617 40.7708 63.6664 40.7708ZM59.2969 33.2708C58.8661 33.2708 58.5156 33.6213 58.5156 34.052V38.427C58.5156 38.8578 58.8661 39.2083 59.2969 39.2083H63.6664C64.1002 39.2083 64.4531 38.8553 64.4531 38.4216V34.052C64.4531 33.6213 64.1027 33.2708 63.6719 33.2708H59.2969Z" fill="#FC1264"/>
<path d="M22.7344 50.1458H18.3594C17.4964 50.1458 16.7969 49.4463 16.7969 48.5833V44.2083C16.7969 43.3453 17.4964 42.6458 18.3594 42.6458H22.7344C23.5973 42.6458 24.2969 43.3453 24.2969 44.2083V48.5833C24.2969 49.4463 23.5973 50.1458 22.7344 50.1458Z" fill="white" fill-opacity="0.9"/>
<path d="M33.0469 50.1458H28.6719C27.8089 50.1458 27.1094 49.4463 27.1094 48.5833V44.2083C27.1094 43.3453 27.8089 42.6458 28.6719 42.6458H33.0469C33.9098 42.6458 34.6094 43.3453 34.6094 44.2083V48.5833C34.6094 49.4463 33.9098 50.1458 33.0469 50.1458Z" fill="white" fill-opacity="0.9"/>
<path d="M43.2031 50.1458H38.8281C37.9652 50.1458 37.2656 49.4463 37.2656 48.5833V44.2083C37.2656 43.3453 37.9652 42.6458 38.8281 42.6458H43.2031C44.0661 42.6458 44.7656 43.3453 44.7656 44.2083V48.5833C44.7656 49.4463 44.0661 50.1458 43.2031 50.1458Z" fill="white" fill-opacity="0.9"/>
<path d="M53.3594 50.1458H48.9844C48.1214 50.1458 47.4219 49.4463 47.4219 48.5833V44.2083C47.4219 43.3453 48.1214 42.6458 48.9844 42.6458H53.3594C54.2223 42.6458 54.9219 43.3453 54.9219 44.2083V48.5833C54.9219 49.4463 54.2223 50.1458 53.3594 50.1458Z" fill="white" fill-opacity="0.9"/>
<path d="M63.6666 50.1458H59.2969C58.4339 50.1458 57.7344 49.4463 57.7344 48.5833V44.2083C57.7344 43.3453 58.4339 42.6458 59.2969 42.6458H63.6719C64.5348 42.6458 65.2344 43.3453 65.2344 44.2083V48.5778C65.2344 49.4438 64.5325 50.1458 63.6666 50.1458Z" fill="#FC1264"/>
<path d="M22.7291 60.302H18.3594C17.4964 60.302 16.7969 59.6025 16.7969 58.7395V54.3645C16.7969 53.5016 17.4964 52.802 18.3594 52.802H22.7344C23.5973 52.802 24.2969 53.5016 24.2969 54.3645V58.7341C24.2969 59.5998 23.595 60.302 22.7291 60.302Z" fill="white" fill-opacity="0.9"/>
<path d="M33.0416 60.302H28.6719C27.8089 60.302 27.1094 59.6025 27.1094 58.7395V54.3645C27.1094 53.5016 27.8089 52.802 28.6719 52.802H33.0469C33.9098 52.802 34.6094 53.5016 34.6094 54.3645V58.7341C34.6094 59.5998 33.9075 60.302 33.0416 60.302Z" fill="white" fill-opacity="0.9"/>
<path d="M43.1978 60.302H38.8281C37.9652 60.302 37.2656 59.6025 37.2656 58.7395V54.3645C37.2656 53.5016 37.9652 52.802 38.8281 52.802H43.2031C44.0661 52.802 44.7656 53.5016 44.7656 54.3645V58.7341C44.7656 59.5998 44.0638 60.302 43.1978 60.302Z" fill="white" fill-opacity="0.9"/>
<path d="M53.3541 60.302H48.9844C48.1214 60.302 47.4219 59.6025 47.4219 58.7395V54.3645C47.4219 53.5016 48.1214 52.802 48.9844 52.802H53.3594C54.2223 52.802 54.9219 53.5016 54.9219 54.3645V58.7341C54.9219 59.5998 54.2198 60.302 53.3541 60.302Z" fill="white" fill-opacity="0.9"/>
<path d="M59.3172 77.4006C58.7328 77.4006 58.1486 77.1783 57.7037 76.7334C56.814 75.8438 56.814 74.3963 57.7037 73.5067C58.5934 72.617 60.0409 72.617 60.9306 73.5067C61.8201 74.3963 61.8201 75.8438 60.9306 76.7333C60.4858 77.1781 59.9014 77.4006 59.3172 77.4006ZM59.3172 74.4013C59.133 74.4013 58.9489 74.4714 58.8086 74.6117C58.5283 74.892 58.5283 75.3483 58.8086 75.6288C59.089 75.9089 59.5453 75.9089 59.8256 75.6288C60.1059 75.3483 60.1059 74.892 59.8256 74.6116C59.6855 74.4714 59.5012 74.4013 59.3172 74.4013Z" fill="#FC1264"/>
<path d="M32.7072 11.0923C32.0977 11.0923 31.5247 10.8548 31.0938 10.4239C30.2042 9.53437 30.2042 8.08687 31.0938 7.19734C31.9834 6.30766 33.4309 6.30781 34.3205 7.19719C35.2102 8.08687 35.2102 9.53437 34.3205 10.4239C33.8895 10.855 33.3166 11.0923 32.7072 11.0923ZM32.7072 8.09172C32.523 8.09172 32.3389 8.16187 32.1988 8.30203C31.9184 8.5825 31.9184 9.03875 32.1988 9.31922C32.3347 9.455 32.5152 9.53 32.7072 9.53C32.8992 9.53 33.0798 9.45516 33.2158 9.31922C33.4961 9.03875 33.4961 8.5825 33.2158 8.30203C33.0755 8.16187 32.8913 8.09172 32.7072 8.09172Z" fill="#FC1264"/>
<path d="M40.4003 4.36453H39.9219V3.88609C39.9219 3.51063 39.6705 3.16547 39.3023 3.09172C38.8002 2.99109 38.3594 3.37234 38.3594 3.85672V4.36453H37.8809C37.5053 4.36453 37.16 4.61609 37.0864 4.98453C36.9861 5.48672 37.3673 5.92703 37.8516 5.92703H38.3594V6.40547C38.3594 6.78094 38.6108 7.12609 38.9789 7.19984C39.4811 7.30047 39.9219 6.91922 39.9219 6.43484V5.92703H40.4297C40.9138 5.92703 41.2952 5.48672 41.1948 4.98453C41.1213 4.61609 40.7759 4.36453 40.4003 4.36453Z" fill="#FC1264"/>
<path d="M53.3691 69.5208H52.8906V69.0423C52.8906 68.6669 52.6392 68.3217 52.2711 68.248C51.7689 68.1473 51.3281 68.5286 51.3281 69.013V69.5208H50.8497C50.4741 69.5208 50.1289 69.7723 50.0552 70.1408C49.9548 70.643 50.3361 71.0833 50.8203 71.0833H51.3281V71.5617C51.3281 71.9372 51.5795 72.2823 51.9477 72.3561C52.4498 72.4567 52.8906 72.0755 52.8906 71.5911V71.0833H53.3984C53.8825 71.0833 54.2639 70.643 54.1636 70.1408C54.09 69.7723 53.7447 69.5208 53.3691 69.5208Z" fill="#FC1264"/>
<path d="M19.1503 69.5208H18.6719V69.0423C18.6719 68.6669 18.4205 68.3217 18.0523 68.248C17.5502 68.1473 17.1094 68.5286 17.1094 69.013V69.5208H16.6309C16.2553 69.5208 15.91 69.7723 15.8364 70.1408C15.7361 70.643 16.1175 71.0833 16.6016 71.0833H17.1094V71.5617C17.1094 71.9372 17.3608 72.2823 17.7289 72.3561C18.2311 72.4567 18.6719 72.0755 18.6719 71.5911V71.0833H19.1797C19.6637 71.0833 20.0452 70.643 19.9448 70.1408C19.8713 69.7723 19.5259 69.5208 19.1503 69.5208Z" fill="#FC1264"/>
<path d="M67.5781 17.0208H62.5781V15.927C62.5781 14.6327 61.5288 13.5833 60.2344 13.5833H57.7344C56.7852 13.5833 56.0156 14.3528 56.0156 15.302V17.0208H50.3906V15.302C50.3906 14.3528 49.6211 13.5833 48.6719 13.5833H45.5469C44.5977 13.5833 43.8281 14.3528 43.8281 15.302V17.0208H38.2031V15.302C38.2031 14.3528 37.4336 13.5833 36.4844 13.5833H33.3594C32.4102 13.5833 31.6406 14.3528 31.6406 15.302V17.0208H26.0156V15.302C26.0156 14.3528 25.2461 13.5833 24.2969 13.5833H21.5156C20.3766 13.5833 19.4531 14.5067 19.4531 15.6458V17.0208H13.9844C12.0859 17.0208 10.5469 18.5598 10.5469 20.4583V62.9234C10.5469 64.8411 12.1016 66.3958 14.0192 66.3958H25.4381C25.4823 66.3958 25.5261 66.3794 25.558 66.3487C26.2689 65.6672 25.7972 64.8333 25.1309 64.8333H14.4531C13.1588 64.8333 12.1094 63.7839 12.1094 62.4895V28.7395H69.9219V49.788C69.9219 50.1634 70.1733 50.5086 70.5414 50.5823C71.0436 50.683 71.4844 50.3017 71.4844 49.8175V20.9263C71.4844 18.7728 69.732 17.0208 67.5781 17.0208ZM58.3594 15.1458H60.2344C60.6658 15.1458 61.0156 15.4956 61.0156 15.927V20.7708C61.0156 21.2022 60.6658 21.552 60.2344 21.552H58.3594C57.928 21.552 57.5781 21.2022 57.5781 20.7708V15.927C57.5781 15.4956 57.928 15.1458 58.3594 15.1458ZM46.1719 15.1458H48.0469C48.4783 15.1458 48.8281 15.4956 48.8281 15.927V20.7708C48.8281 21.2022 48.4783 21.552 48.0469 21.552H46.1719C45.7405 21.552 45.3906 21.2022 45.3906 20.7708V15.927C45.3906 15.4956 45.7405 15.1458 46.1719 15.1458ZM33.9844 15.1458H35.8594C36.2908 15.1458 36.6406 15.4956 36.6406 15.927V20.7708C36.6406 21.2022 36.2908 21.552 35.8594 21.552H33.9844C33.553 21.552 33.2031 21.2022 33.2031 20.7708V15.927C33.2031 15.4956 33.553 15.1458 33.9844 15.1458ZM21.7969 15.1458H23.6719C24.1033 15.1458 24.4531 15.4956 24.4531 15.927V20.7708C24.4531 21.2022 24.1033 21.552 23.6719 21.552H21.7969C21.3655 21.552 21.0156 21.2022 21.0156 20.7708V15.927C21.0156 15.4956 21.3655 15.1458 21.7969 15.1458ZM12.1094 27.177V20.927C12.1094 19.6327 13.1588 18.5833 14.4531 18.5833H19.4531V20.7708C19.4531 22.0652 20.5025 23.1145 21.7969 23.1145H23.6719C24.9663 23.1145 26.0156 22.0652 26.0156 20.7708V18.5833H31.6406V20.7708C31.6406 22.0652 32.69 23.1145 33.9844 23.1145H35.8594C37.1537 23.1145 38.2031 22.0652 38.2031 20.7708V18.5833H43.8281V20.7708C43.8281 22.0652 44.8775 23.1145 46.1719 23.1145H48.0469C49.3413 23.1145 50.3906 22.0652 50.3906 20.7708V18.5833H56.0156V20.7708C56.0156 22.0652 57.065 23.1145 58.3594 23.1145H60.2344C61.5288 23.1145 62.5781 22.0652 62.5781 20.7708V18.5833H67.5781C68.8725 18.5833 69.9219 19.6327 69.9219 20.927V27.177H12.1094Z" fill="#342A98"/>
<path d="M69.9219 53.9533V62.2037C69.9219 63.6559 68.7445 64.8333 67.2924 64.8333H29.1974C29.1533 64.8333 29.1094 64.8497 29.0775 64.8802C28.3666 65.5617 28.8383 66.3958 29.5045 66.3958H67.7764C69.8242 66.3958 71.4844 64.7356 71.4844 62.6878V54.26C71.4844 53.5933 70.6494 53.122 69.9688 53.8336C69.9383 53.8653 69.9219 53.9092 69.9219 53.9533Z" fill="#342A98"/>
</g>
<defs>
<linearGradient id="paint0_linear_17_4864" x1="20.4132" y1="20.8295" x2="75.6517" y2="28.1382" gradientUnits="userSpaceOnUse">
<stop stop-color="#F9F8FF" stop-opacity="0.55"/>
<stop offset="1" stop-color="#D6CDF7" stop-opacity="0.8"/>
</linearGradient>
<clipPath id="clip0_17_4864">
<rect width="80" height="80" fill="white"/>
</clipPath>
</defs>
</svg>
