<svg width="80" height="80" viewBox="0 0 80 80" fill="none" xmlns="http://www.w3.org/2000/svg">
<g clip-path="url(#clip0_17_4873)">
<path d="M76.3303 34.0758C71.5325 21.5397 60.2347 22.1587 59.498 15.2462C58.0555 1.71265 54.8373 -0.100941 52.2169 0.00421552C48.0252 0.172497 41.8525 6.00218 35.5506 5.52765C25.2945 4.75531 17.5788 -5.79016 7.52985 4.57203C-1.79687 14.1894 10.4077 27.2031 5.57485 37.1942C3.16204 42.182 0.154694 49.7842 1.68063 55.7914C6.53079 74.8855 21.8198 81.1108 44.6199 79.842C76.1606 78.0867 83.1973 52.0187 76.3303 34.0758Z" fill="url(#paint0_linear_17_4873)"/>
<path opacity="0.1" d="M75.0103 55.572L71.3552 54.9912C71.0812 54.1033 70.7256 53.2512 70.298 52.4431L72.4731 49.4464C72.9388 48.8048 72.8689 47.92 72.3084 47.3595L69.1959 44.2469C68.6355 43.6864 67.7505 43.6166 67.1091 44.0822L67.0244 44.1436V13.6795C67.0244 12.817 66.3244 12.117 65.4619 12.117H9.62109C8.75703 12.117 8.05859 12.817 8.05859 13.6795V68.2233C8.05859 69.0873 8.75703 69.7858 9.62109 69.7858H41.663C41.5052 70.3358 41.6475 70.9462 42.072 71.3708L45.1845 74.4834C45.745 75.0439 46.63 75.1137 47.2714 74.6481L50.2681 72.4731C51.0762 72.9008 51.9283 73.2564 52.8162 73.5303L53.3969 77.1855C53.5212 77.9684 54.1962 78.5447 54.9891 78.5447H59.3909C60.1836 78.5447 60.8587 77.9684 60.9831 77.1855L61.5639 73.53C62.4519 73.2561 63.3037 72.9005 64.1119 72.473L67.1087 74.6481C67.7503 75.1137 68.6352 75.0439 69.1956 74.4834L72.3081 71.3708C72.8686 70.8103 72.9386 69.9255 72.4728 69.2839L70.2978 66.2873C70.7255 65.4792 71.0811 64.6272 71.355 63.739L75.01 63.1584C75.7928 63.034 76.3692 62.3589 76.3692 61.5662V57.1644C76.3695 56.3714 75.7933 55.6962 75.0103 55.572Z" fill="#342A98"/>
<path d="M67.0242 9.92952V64.4733C67.0242 65.3373 66.3242 66.0358 65.4617 66.0358H9.62109C8.75703 66.0358 8.05859 65.3373 8.05859 64.4733V9.92952C8.05859 9.06702 8.75703 8.36702 9.62109 8.36702H65.4617C66.3242 8.36702 67.0242 9.06686 67.0242 9.92952Z" fill="#EBE8FF"/>
<path d="M46.1258 54.3653V66.0356H22.1039V54.3653C22.1039 53.5012 22.8023 52.8028 23.6664 52.8028H44.5633C45.4258 52.8028 46.1258 53.5014 46.1258 54.3653Z" fill="white" fill-opacity="0.9"/>
<path d="M17.2699 8.36636H9.62019C8.75613 8.36636 8.05769 9.06636 8.05769 9.92886V64.4726C8.05769 65.3367 8.75613 66.0351 9.62019 66.0351H17.2699V8.36636Z" fill="white" fill-opacity="0.9"/>
<path d="M14.0655 26.9777H11.8873C11.4559 26.9777 11.1061 26.6278 11.1061 26.1964V24.0183C11.1061 23.5869 11.4559 23.237 11.8873 23.237H14.0655C14.4969 23.237 14.8467 23.5869 14.8467 24.0183V26.1964C14.8467 26.628 14.4969 26.9777 14.0655 26.9777Z" fill="#342A98"/>
<path d="M14.0655 33.9336H11.8873C11.4559 33.9336 11.1061 33.5837 11.1061 33.1523V30.9742C11.1061 30.5428 11.4559 30.193 11.8873 30.193H14.0655C14.4969 30.193 14.8467 30.5428 14.8467 30.9742V33.1523C14.8467 33.5837 14.4969 33.9336 14.0655 33.9336Z" fill="#342A98"/>
<path d="M14.0655 40.8895H11.8873C11.4559 40.8895 11.1061 40.5397 11.1061 40.1083V37.9302C11.1061 37.4988 11.4559 37.1489 11.8873 37.1489H14.0655C14.4969 37.1489 14.8467 37.4988 14.8467 37.9302V40.1083C14.8467 40.5397 14.4969 40.8895 14.0655 40.8895Z" fill="#FC1264"/>
<path d="M67.0231 20.3595V9.92874C67.0231 9.06577 66.3236 8.36624 65.4606 8.36624H9.61969C8.75672 8.36624 8.05719 9.06577 8.05719 9.92874V20.3595H67.0231Z" fill="white" fill-opacity="0.9"/>
<path d="M51.4136 16.7842H14.4694C14.038 16.7842 13.6881 16.4344 13.6881 16.003V13.0353C13.6881 12.6039 14.038 12.2541 14.4694 12.2541H51.4134C51.8448 12.2541 52.1947 12.6039 52.1947 13.0353V16.003C52.1948 16.4344 51.845 16.7842 51.4136 16.7842Z" fill="#EBE8FF"/>
<path d="M56.5363 13.8166C56.9677 13.8166 57.3175 13.4668 57.3175 13.0353C57.3175 12.6038 56.9677 12.2541 56.5363 12.2541C56.1048 12.2541 55.755 12.6038 55.755 13.0353C55.755 13.4668 56.1048 13.8166 56.5363 13.8166Z" fill="#342A98"/>
<path d="M56.5363 16.7842C56.9677 16.7842 57.3175 16.4344 57.3175 16.003C57.3175 15.5715 56.9677 15.2217 56.5363 15.2217C56.1048 15.2217 55.755 15.5715 55.755 16.003C55.755 16.4344 56.1048 16.7842 56.5363 16.7842Z" fill="#342A98"/>
<path d="M59.2398 13.8166C59.6713 13.8166 60.0211 13.4668 60.0211 13.0353C60.0211 12.6038 59.6713 12.2541 59.2398 12.2541C58.8084 12.2541 58.4586 12.6038 58.4586 13.0353C58.4586 13.4668 58.8084 13.8166 59.2398 13.8166Z" fill="#342A98"/>
<path d="M59.2398 16.7842C59.6713 16.7842 60.0211 16.4344 60.0211 16.003C60.0211 15.5715 59.6713 15.2217 59.2398 15.2217C58.8084 15.2217 58.4586 15.5715 58.4586 16.003C58.4586 16.4344 58.8084 16.7842 59.2398 16.7842Z" fill="#342A98"/>
<path d="M61.9435 13.8166C62.3749 13.8166 62.7247 13.4668 62.7247 13.0353C62.7247 12.6038 62.3749 12.2541 61.9435 12.2541C61.512 12.2541 61.1622 12.6038 61.1622 13.0353C61.1622 13.4668 61.512 13.8166 61.9435 13.8166Z" fill="#FC1264"/>
<path d="M61.9435 16.7842C62.3749 16.7842 62.7247 16.4344 62.7247 16.003C62.7247 15.5715 62.3749 15.2217 61.9435 15.2217C61.512 15.2217 61.1622 15.5715 61.1622 16.003C61.1622 16.4344 61.512 16.7842 61.9435 16.7842Z" fill="#FC1264"/>
<path d="M75.0103 51.8219L71.3552 51.2412C71.0813 50.3533 70.7256 49.5012 70.298 48.6931L72.4731 45.6964C72.9388 45.0548 72.8689 44.17 72.3084 43.6095L69.1958 40.4969C68.6353 39.9364 67.7503 39.8666 67.1089 40.3322L64.1122 42.5072C63.3041 42.0795 62.452 41.7239 61.5641 41.45L60.9835 37.7948C60.8591 37.0119 60.1839 36.4356 59.3913 36.4356H54.9894C54.1967 36.4356 53.5216 37.0119 53.3972 37.7948L52.8166 41.4498C51.9285 41.7237 51.0764 42.0794 50.2683 42.507L47.2717 40.332C46.6302 39.8664 45.7453 39.9362 45.1849 40.4967L42.0722 43.6094C41.5117 44.1698 41.4417 45.0548 41.9075 45.6962L44.0827 48.693C43.6552 49.5011 43.2995 50.353 43.0256 51.2409L39.3703 51.8217C38.5874 51.9461 38.0111 52.6212 38.0111 53.4139V57.8158C38.0111 58.6084 38.5874 59.2836 39.3703 59.408L43.0255 59.9886C43.2994 60.8766 43.655 61.7286 44.0827 62.5367L41.9077 65.5334C41.442 66.175 41.5119 67.0598 42.0724 67.6203L45.185 70.733C45.7455 71.2934 46.6305 71.3633 47.2719 70.8977L50.2686 68.7227C51.0767 69.1503 51.9288 69.5059 52.8167 69.7798L53.3974 73.435C53.5217 74.218 54.1969 74.7942 54.9895 74.7942H59.3914C60.1841 74.7942 60.8592 74.218 60.9836 73.435L61.5644 69.7795C62.4524 69.5056 63.3042 69.15 64.1124 68.7225L67.1092 70.8977C67.7508 71.3633 68.6356 71.2934 69.1961 70.733L72.3088 67.6203C72.8692 67.0598 72.9391 66.1748 72.4734 65.5334L70.2985 62.5369C70.7261 61.7287 71.0819 60.8767 71.3556 59.9886L75.0106 59.408C75.7936 59.2836 76.3699 58.6084 76.3699 57.8158V53.4141C76.3695 52.6214 75.7933 51.9462 75.0103 51.8219ZM64.9383 55.6159C64.9383 59.8941 61.4694 63.363 57.1892 63.363C52.9111 63.363 49.4422 59.8941 49.4422 55.6159C49.4422 51.3359 52.9111 47.8669 57.1892 47.8669C61.4694 47.8669 64.9383 51.3359 64.9383 55.6159Z" fill="white" fill-opacity="0.9"/>
<path d="M56.7784 71.0864L56.1328 67.0225C56.4809 67.0545 56.8333 67.0708 57.1894 67.0708C57.5461 67.0708 57.8992 67.0544 58.2477 67.0223L57.602 71.0864H56.7784ZM64.5042 64.4258C65.0477 63.9739 65.5491 63.4725 66.0009 62.9292L68.4212 66.2637L67.8389 66.8461L64.5042 64.4258ZM45.9591 66.2637L48.3792 62.9294C48.8311 63.4726 49.3325 63.9741 49.8758 64.4259L46.5414 66.8461L45.9591 66.2637ZM41.7188 56.0269V55.2033L45.7827 54.5576C45.7506 54.9061 45.7342 55.2592 45.7342 55.6159C45.7342 55.9722 45.7506 56.3245 45.7825 56.6725L41.7188 56.0269ZM68.598 56.6723C68.63 56.3244 68.6462 55.972 68.6462 55.6159C68.6462 55.2592 68.6298 54.9062 68.5978 54.5576L72.6617 55.2033V56.0269L68.598 56.6723ZM66.0008 48.3011C65.5489 47.7576 65.0475 47.2564 64.5041 46.8044L67.8389 44.3839L68.4212 44.9662L66.0008 48.3011ZM45.9591 44.9664L46.5416 44.3839L49.8761 46.8042C49.3328 47.2561 48.8314 47.7576 48.3795 48.3011L45.9591 44.9664ZM58.2477 44.2075C57.8992 44.1753 57.5461 44.1591 57.1894 44.1591C56.8331 44.1591 56.4809 44.1753 56.133 44.2073L56.7786 40.1436H57.6022L58.2477 44.2075Z" fill="#FC1264"/>
<path d="M37.187 65.2542H9.61969C9.18891 65.2542 8.83844 64.9037 8.83844 64.473V21.1408H66.2419V35.6266C66.2419 36.0581 66.5916 36.4078 67.0231 36.4078C67.4547 36.4078 67.8044 36.0581 67.8044 35.6266V9.92874C67.8044 8.6364 66.753 7.58499 65.4606 7.58499H9.61969C8.32735 7.58499 7.27594 8.6364 7.27594 9.92874V64.473C7.27594 65.7653 8.32735 66.8167 9.61969 66.8167H37.187C37.6186 66.8167 37.9683 66.467 37.9683 66.0355C37.9683 65.6039 37.6186 65.2542 37.187 65.2542ZM9.61969 9.14749H65.4606C65.8914 9.14749 66.2419 9.49796 66.2419 9.92874V19.5783H8.83844V9.92874C8.83844 9.49796 9.18906 9.14749 9.61969 9.14749Z" fill="#342A98"/>
<path d="M75.133 51.0503L71.9497 50.5448C71.7412 49.9386 71.4941 49.343 71.2112 48.765L73.1055 46.1553C73.8008 45.1972 73.6978 43.8942 72.8608 43.0572L69.7483 39.9447C68.9112 39.1075 67.608 39.0045 66.6501 39.7L64.0403 41.5942C63.4623 41.3112 62.8665 41.0641 62.2606 40.8556L61.755 37.6725C61.5692 36.5033 60.5751 35.6545 59.3912 35.6545H54.9894C53.8055 35.6545 52.8114 36.5033 52.6255 37.6725L52.12 40.8555C51.5139 41.0639 50.9183 41.3111 50.34 41.5941L47.7306 39.7002C46.7725 39.0045 45.4694 39.1072 44.6323 39.9447L41.5198 43.0572C40.6826 43.8944 40.5797 45.1973 41.2751 46.1553L43.1695 48.7651C42.8864 49.3433 42.6392 49.9391 42.4309 50.5448L39.2476 51.0503C38.0784 51.2361 37.2297 52.2303 37.2297 53.4142V57.8161C37.2297 59 38.0784 59.9939 39.2476 60.1798L42.4308 60.6855C42.6391 61.2912 42.8862 61.8869 43.1694 62.4653L41.2753 65.0748C40.5798 66.033 40.6826 67.3359 41.5198 68.1731L44.6323 71.2856C45.4694 72.1228 46.7722 72.2256 47.7306 71.5303L50.3401 69.6361C50.9181 69.9191 51.5139 70.1662 52.12 70.3747L52.6255 73.5578C52.8112 74.727 53.8055 75.5758 54.9894 75.5758H59.3912C60.5751 75.5758 61.569 74.727 61.755 73.5578L62.2606 70.3744C62.8665 70.1659 63.4622 69.9189 64.0403 69.6359L66.6501 71.5303C67.6081 72.2258 68.9112 72.1225 69.7483 71.2856L72.8608 68.1731C73.6978 67.3361 73.8009 66.0331 73.1055 65.075L71.2114 62.4653C71.4944 61.8873 71.7416 61.2916 71.95 60.6855L75.133 60.1798C76.3022 59.9941 77.1509 59 77.1509 57.8161V53.4142C77.1509 52.2302 76.3022 51.2361 75.133 51.0503ZM75.5884 57.8159C75.5884 58.2269 75.2937 58.572 74.888 58.6364L71.233 59.2172C70.9387 59.2641 70.6967 59.4741 70.6089 59.7586C70.3533 60.5877 70.0164 61.3994 69.6078 62.1716C69.4683 62.435 69.4909 62.7547 69.6659 62.9958L71.8409 65.9925C72.0823 66.3251 72.0466 66.7775 71.7561 67.0683L68.6436 70.1808C68.3531 70.4712 67.9006 70.5072 67.5678 70.2656L64.5709 68.0905C64.33 67.9155 64.0101 67.8927 63.7469 68.0322C62.9747 68.4408 62.1628 68.7777 61.3339 69.0331C61.0494 69.1209 60.8394 69.363 60.7925 69.6572L60.2117 73.3126C60.1473 73.7186 59.8022 74.0131 59.3912 74.0131H54.9894C54.5783 74.0131 54.2331 73.7184 54.1687 73.3126L53.5881 69.6575C53.5412 69.3633 53.3312 69.1212 53.0467 69.0334C52.2176 68.7778 51.4059 68.4409 50.6337 68.0323C50.519 67.9714 50.3934 67.9416 50.2684 67.9416C50.1065 67.9416 49.9455 67.9917 49.8094 68.0905L46.8128 70.2656C46.48 70.5073 46.0278 70.4712 45.737 70.1808L42.6245 67.0683C42.3339 66.7777 42.2981 66.3251 42.5397 65.9925L44.7147 62.9958C44.8897 62.7547 44.9123 62.435 44.773 62.1717C44.364 61.3989 44.0273 60.5869 43.7719 59.7586C43.6841 59.4741 43.442 59.2641 43.1478 59.2172L39.4926 58.6364C39.0867 58.572 38.7922 58.2269 38.7922 57.8159V53.4141C38.7922 53.003 39.0869 52.6578 39.4926 52.5934L43.148 52.0128C43.4422 51.9659 43.6842 51.7559 43.772 51.4714C44.0275 50.6428 44.3644 49.8311 44.7731 49.0584C44.9125 48.795 44.8898 48.4755 44.7148 48.2344L42.5395 45.2373C42.2981 44.9048 42.3339 44.4525 42.6245 44.1617L45.737 41.0492C46.0276 40.7587 46.4801 40.7227 46.8126 40.9644L49.8092 43.1394C50.0505 43.3142 50.37 43.3373 50.6336 43.1975C51.4059 42.7889 52.218 42.452 53.0467 42.1964C53.3312 42.1086 53.5412 41.8666 53.5881 41.5723L54.1687 37.9173C54.2331 37.5114 54.5783 37.2169 54.9894 37.2169H59.3912C59.8022 37.2169 60.1473 37.5116 60.2117 37.9173L60.7925 41.5725C60.8394 41.8667 61.0494 42.1087 61.3339 42.1966C62.1626 42.4522 62.9744 42.7889 63.7467 43.1977C64.0101 43.3373 64.33 43.3145 64.5709 43.1395L67.568 40.9642C67.9006 40.723 68.3528 40.7589 68.6436 41.0492L71.7561 44.1617C72.0466 44.4523 72.0823 44.9048 71.8409 45.2373L69.6658 48.2341C69.4908 48.4753 69.4681 48.7952 69.6076 49.0584C70.0161 49.8302 70.353 50.642 70.6086 51.4714C70.6964 51.7559 70.9384 51.9659 71.2326 52.0128L74.888 52.5934C75.2939 52.6578 75.5884 53.003 75.5884 53.4141V57.8159Z" fill="#342A98"/>
<path d="M57.1894 47.0858C52.4869 47.0858 48.6611 50.9123 48.6611 55.6159C48.6611 60.3186 52.4869 64.1444 57.1894 64.1444C61.8931 64.1444 65.7197 60.3186 65.7197 55.6159C65.7195 50.9123 61.893 47.0858 57.1894 47.0858ZM57.1894 62.5817C53.3484 62.5817 50.2236 59.4569 50.2236 55.6158C50.2236 51.7737 53.3484 48.6481 57.1894 48.6481C61.0314 48.6481 64.1572 51.7737 64.1572 55.6158C64.157 59.4569 61.0314 62.5817 57.1894 62.5817Z" fill="#342A98"/>
<path d="M22.8844 25.1073H25.788C26.2194 25.1073 26.5692 24.7575 26.5692 24.3261C26.5692 23.8947 26.2194 23.5448 25.788 23.5448H22.8844C22.453 23.5448 22.1031 23.8947 22.1031 24.3261C22.1031 24.7575 22.453 25.1073 22.8844 25.1073Z" fill="#FC1264"/>
<path d="M22.8844 28.2919H35.163C35.5944 28.2919 35.9442 27.942 35.9442 27.5106C35.9442 27.0792 35.5944 26.7294 35.163 26.7294H22.8844C22.453 26.7294 22.1031 27.0792 22.1031 27.5106C22.1031 27.942 22.453 28.2919 22.8844 28.2919Z" fill="#342A98"/>
<path d="M22.8844 31.4766H28.913C29.3444 31.4766 29.6942 31.1267 29.6942 30.6953C29.6942 30.2639 29.3444 29.9141 28.913 29.9141H22.8844C22.453 29.9141 22.1031 30.2639 22.1031 30.6953C22.1031 31.1267 22.453 31.4766 22.8844 31.4766Z" fill="#342A98"/>
<path d="M52.1133 26.7294H38.8972C38.4658 26.7294 38.1159 27.0792 38.1159 27.5106C38.1159 27.942 38.4658 28.2919 38.8972 28.2919H52.1133C52.5447 28.2919 52.8945 27.942 52.8945 27.5106C52.8945 27.0792 52.5448 26.7294 52.1133 26.7294Z" fill="#342A98"/>
<path d="M31.8659 30.6953C31.8659 31.1267 32.2158 31.4766 32.6472 31.4766H45.8633C46.2947 31.4766 46.6445 31.1267 46.6445 30.6953C46.6445 30.2639 46.2947 29.9141 45.8633 29.9141H32.6472C32.2158 29.9141 31.8659 30.2639 31.8659 30.6953Z" fill="#342A98"/>
<path d="M35.9442 33.88C35.9442 33.4486 35.5944 33.0987 35.163 33.0987H22.8844C22.453 33.0987 22.1031 33.4486 22.1031 33.88C22.1031 34.3114 22.453 34.6612 22.8844 34.6612H35.163C35.5944 34.6612 35.9442 34.3114 35.9442 33.88Z" fill="#342A98"/>
<path d="M22.8844 36.2833C22.453 36.2833 22.1031 36.6331 22.1031 37.0645C22.1031 37.4959 22.453 37.8458 22.8844 37.8458H28.913C29.3444 37.8458 29.6942 37.4959 29.6942 37.0645C29.6942 36.6331 29.3444 36.2833 28.913 36.2833H22.8844Z" fill="#342A98"/>
<path d="M52.8945 33.88C52.8945 33.4486 52.5447 33.0987 52.1133 33.0987H38.8972C38.4658 33.0987 38.1159 33.4486 38.1159 33.88C38.1159 34.3114 38.4658 34.6612 38.8972 34.6612H52.1133C52.5448 34.6612 52.8945 34.3114 52.8945 33.88Z" fill="#342A98"/>
<path d="M32.6472 37.8458H45.8633C46.2947 37.8458 46.6445 37.4959 46.6445 37.0645C46.6445 36.6331 46.2947 36.2833 45.8633 36.2833H32.6472C32.2158 36.2833 31.8659 36.6331 31.8659 37.0645C31.8659 37.4959 32.2158 37.8458 32.6472 37.8458Z" fill="#342A98"/>
<path d="M25.3066 50.0887C25.1067 50.0887 24.9066 50.0125 24.7542 49.8598L22.332 47.4376C22.0269 47.1326 22.0269 46.638 22.332 46.333L24.7542 43.9108C25.0591 43.6056 25.5541 43.6056 25.8589 43.9108C26.1641 44.2158 26.1641 44.7105 25.8589 45.0155L23.9892 46.8853L25.8589 48.7551C26.1641 49.0601 26.1641 49.5548 25.8589 49.8598C25.7066 50.0125 25.5064 50.0887 25.3066 50.0887Z" fill="#342A98"/>
<path d="M31.5063 50.0887C31.3064 50.0887 31.1063 50.0125 30.9539 49.8598C30.6488 49.5548 30.6488 49.0601 30.9539 48.7551L32.8236 46.8853L30.9539 45.0156C30.6488 44.7106 30.6488 44.2159 30.9539 43.9109C31.2588 43.6058 31.7538 43.6058 32.0586 43.9109L34.4808 46.3331C34.786 46.6381 34.786 47.1328 34.4808 47.4378L32.0586 49.86C31.9061 50.0125 31.7061 50.0887 31.5063 50.0887Z" fill="#342A98"/>
<path d="M6.36954 7.11624C5.93798 7.11624 5.58829 6.76656 5.58829 6.33499C5.58829 5.78937 5.14423 5.34546 4.5986 5.34546C4.16704 5.34546 3.81735 4.99577 3.81735 4.56421C3.81735 4.13265 4.16704 3.78296 4.5986 3.78296C5.14423 3.78296 5.58829 3.3389 5.58829 2.79327C5.58829 2.36171 5.93798 2.01202 6.36954 2.01202C6.8011 2.01202 7.15079 2.36171 7.15079 2.79327C7.15079 3.3389 7.5947 3.78296 8.14032 3.78296C8.57188 3.78296 8.92157 4.13265 8.92157 4.56421C8.92157 4.99577 8.57188 5.34546 8.14032 5.34546C7.5947 5.34546 7.15079 5.78937 7.15079 6.33499C7.15079 6.76656 6.80095 7.11624 6.36954 7.11624Z" fill="#FC1264"/>
<path d="M72.6616 22.9117C72.23 22.9117 71.8803 22.562 71.8803 22.1305C71.8803 21.5848 71.4364 21.1408 70.8908 21.1408C70.4592 21.1408 70.1095 20.7911 70.1095 20.3595C70.1095 19.928 70.4592 19.5783 70.8908 19.5783C71.4364 19.5783 71.8803 19.1344 71.8803 18.5887C71.8803 18.1572 72.23 17.8075 72.6616 17.8075C73.0931 17.8075 73.4428 18.1572 73.4428 18.5887C73.4428 19.1344 73.8869 19.5783 74.4325 19.5783C74.8641 19.5783 75.2137 19.928 75.2137 20.3595C75.2137 20.7911 74.8641 21.1408 74.4325 21.1408C73.8869 21.1408 73.4428 21.5848 73.4428 22.1305C73.4428 22.5619 73.0931 22.9117 72.6616 22.9117Z" fill="#FC1264"/>
<path d="M38.9477 73.5384C38.7478 73.5384 38.5477 73.4622 38.3953 73.3095L37.5414 72.4558L36.6875 73.3095C36.3827 73.6147 35.8877 73.6147 35.5828 73.3095C35.2777 73.0045 35.2777 72.5098 35.5828 72.2048L36.9891 70.7986C37.2939 70.4934 37.7889 70.4934 38.0937 70.7986L39.5 72.2048C39.8052 72.5098 39.8052 73.0045 39.5 73.3095C39.3475 73.4622 39.1475 73.5384 38.9477 73.5384Z" fill="#FC1264"/>
<path d="M74.4325 38.8692C74.2327 38.8692 74.0325 38.793 73.8802 38.6403L73.0263 37.7866L72.1724 38.6403C71.8675 38.9455 71.3725 38.9455 71.0677 38.6403C70.7625 38.3353 70.7625 37.8406 71.0677 37.5356L72.4739 36.1294C72.7788 35.8242 73.2738 35.8242 73.5786 36.1294L74.9849 37.5356C75.29 37.8406 75.29 38.3353 74.9849 38.6403C74.8325 38.7928 74.6324 38.8692 74.4325 38.8692Z" fill="#FC1264"/>
<path d="M31.1005 75.5758C30.9006 75.5758 30.7005 75.4995 30.5481 75.3469L29.6942 74.4931L28.8403 75.3469C28.5355 75.652 28.0405 75.652 27.7356 75.3469C27.4305 75.0419 27.4305 74.5472 27.7356 74.2422L29.1419 72.8359C29.4467 72.5308 29.9417 72.5308 30.2466 72.8359L31.6528 74.2422C31.958 74.5472 31.958 75.0419 31.6528 75.3469C31.5005 75.4994 31.3003 75.5758 31.1005 75.5758Z" fill="#FC1264"/>
</g>
<defs>
<linearGradient id="paint0_linear_17_4873" x1="0.260854" y1="20.8295" x2="87.0834" y2="39.3853" gradientUnits="userSpaceOnUse">
<stop stop-color="#F9F8FF" stop-opacity="0.55"/>
<stop offset="1" stop-color="#D6CDF7" stop-opacity="0.8"/>
</linearGradient>
<clipPath id="clip0_17_4873">
<rect width="80" height="80" fill="white"/>
</clipPath>
</defs>
</svg>
