<svg width="80" height="80" viewBox="0 0 80 80" fill="none" xmlns="http://www.w3.org/2000/svg">
<path d="M71.0284 53.4719C68.3258 48.1768 62.4489 41.7554 65.3343 36.2698C70.8667 25.7515 74.598 16.9348 59.7812 15.863C55.9022 15.5824 57.5036 12.0724 58.4798 9.12052C61.4877 0.0248796 49.6954 -2.14434 47.5833 9.25677C46.4972 15.1199 39.4239 20.0154 33.2287 19.3648C25.2592 18.5277 29.6863 10.1072 28.0583 4.72098C23.649 -9.86764 -19.2242 12.1849 15.4114 32.3842C19.5679 34.8082 18.2272 39.6214 18.4319 44.1286C18.8979 54.3926 31.8423 41.5889 35.7427 59.8537C41.5777 87.1788 88.7869 88.2663 71.0284 53.4719Z" fill="url(#paint0_linear_17_4860)" fill-opacity="0.8"/>
<path opacity="0.1" d="M68.5209 27.3879C69.2868 27.3879 69.9076 26.767 69.9076 26.0011V12.4898C69.9076 11.7239 69.2868 11.1031 68.5209 11.1031H19.7813C19.0154 11.1031 18.3946 11.7239 18.3946 12.4898V26.0013C18.3946 26.7672 19.0154 27.388 19.7813 27.388H20.5304V30.6857H19.7813C19.0154 30.6857 18.3946 31.3066 18.3946 32.0725V45.584C18.3946 46.3498 19.0154 46.9707 19.7813 46.9707H20.5304V50.2684H19.7813C19.0154 50.2684 18.3946 50.8893 18.3946 51.6552V65.1666C18.3946 65.9325 19.0154 66.5534 19.7813 66.5534H68.521C69.2869 66.5534 69.9077 65.9325 69.9077 65.1666V51.6552C69.9077 50.8893 69.2869 50.2684 68.521 50.2684H67.7719V46.9707H68.521C69.2869 46.9707 69.9077 46.3498 69.9077 45.584V32.0725C69.9077 31.3066 69.2869 30.6857 68.521 30.6857H67.7719V27.388L68.5209 27.3879Z" fill="#342A98"/>
<path d="M20.5304 21.3838H67.7718V50.9906H20.5304V21.3838Z" fill="#EBE8FF"/>
<path d="M68.5209 24.0596H19.7813C19.0154 24.0596 18.3946 23.4387 18.3946 22.6729V9.1615C18.3946 8.39561 19.0154 7.77478 19.7813 7.77478H68.521C69.2869 7.77478 69.9077 8.39561 69.9077 9.1615V22.673C69.9076 23.4387 69.2868 24.0596 68.5209 24.0596Z" fill="white" fill-opacity="0.9"/>
<path d="M66.6893 24.0597H46.3855V15.2421C46.3855 14.8593 46.696 14.5488 47.0789 14.5488H65.996C66.3788 14.5488 66.6893 14.8593 66.6893 15.2421V24.0597Z" fill="#EBE8FF"/>
<path d="M63.4813 18.4205C64.0439 18.4205 64.5 17.9644 64.5 17.4018C64.5 16.8392 64.0439 16.3831 63.4813 16.3831C62.9187 16.3831 62.4626 16.8392 62.4626 17.4018C62.4626 17.9644 62.9187 18.4205 63.4813 18.4205Z" fill="#FC1264"/>
<path d="M60.491 18.4205C61.0536 18.4205 61.5097 17.9644 61.5097 17.4018C61.5097 16.8392 61.0536 16.3831 60.491 16.3831C59.9284 16.3831 59.4723 16.8392 59.4723 17.4018C59.4723 17.9644 59.9284 18.4205 60.491 18.4205Z" fill="#FC1264"/>
<path d="M49.4442 18.4205C50.0068 18.4205 50.4629 17.9644 50.4629 17.4018C50.4629 16.8392 50.0068 16.3831 49.4442 16.3831C48.8816 16.3831 48.4255 16.8392 48.4255 17.4018C48.4255 17.9644 48.8816 18.4205 49.4442 18.4205Z" fill="#FC1264"/>
<path d="M36.4924 21.0863C37.055 21.0863 37.5111 20.6303 37.5111 20.0677C37.5111 19.5051 37.055 19.049 36.4924 19.049C35.9298 19.049 35.4737 19.5051 35.4737 20.0677C35.4737 20.6303 35.9298 21.0863 36.4924 21.0863Z" fill="#342A98"/>
<path d="M39.7759 21.0863C40.3385 21.0863 40.7946 20.6303 40.7946 20.0677C40.7946 19.5051 40.3385 19.049 39.7759 19.049C39.2133 19.049 38.7572 19.5051 38.7572 20.0677C38.7572 20.6303 39.2133 21.0863 39.7759 21.0863Z" fill="#342A98"/>
<path d="M43.0594 21.0863C43.622 21.0863 44.078 20.6303 44.078 20.0677C44.078 19.5051 43.622 19.049 43.0594 19.049C42.4968 19.049 42.0407 19.5051 42.0407 20.0677C42.0407 20.6303 42.4968 21.0863 43.0594 21.0863Z" fill="#342A98"/>
<path d="M36.4924 18.2321C37.055 18.2321 37.5111 17.776 37.5111 17.2134C37.5111 16.6508 37.055 16.1947 36.4924 16.1947C35.9298 16.1947 35.4737 16.6508 35.4737 17.2134C35.4737 17.776 35.9298 18.2321 36.4924 18.2321Z" fill="#342A98"/>
<path d="M39.7759 18.2321C40.3385 18.2321 40.7946 17.776 40.7946 17.2134C40.7946 16.6508 40.3385 16.1947 39.7759 16.1947C39.2133 16.1947 38.7572 16.6508 38.7572 17.2134C38.7572 17.776 39.2133 18.2321 39.7759 18.2321Z" fill="#342A98"/>
<path d="M43.0594 18.2321C43.622 18.2321 44.078 17.776 44.078 17.2134C44.078 16.6508 43.622 16.1947 43.0594 16.1947C42.4968 16.1947 42.0407 16.6508 42.0407 17.2134C42.0407 17.776 42.4968 18.2321 43.0594 18.2321Z" fill="#342A98"/>
<path d="M24.5702 21.0864H23.7563C23.2968 21.0864 22.9243 20.7139 22.9243 20.2543V14.8743C22.9243 14.4147 23.2968 14.0422 23.7563 14.0422H24.5702C25.0298 14.0422 25.4022 14.4147 25.4022 14.8743V20.2543C25.4022 20.7137 25.0296 21.0864 24.5702 21.0864Z" fill="#342A98"/>
<path d="M28.3321 21.0864H27.5182C27.0587 21.0864 26.6862 20.7139 26.6862 20.2543V14.8743C26.6862 14.4147 27.0587 14.0422 27.5182 14.0422H28.3321C28.7917 14.0422 29.1641 14.4147 29.1641 14.8743V20.2543C29.1641 20.7137 28.7915 21.0864 28.3321 21.0864Z" fill="#342A98"/>
<path d="M32.094 21.0864H31.2802C30.8206 21.0864 30.4481 20.7139 30.4481 20.2543V14.8743C30.4481 14.4147 30.8206 14.0422 31.2802 14.0422H32.094C32.5536 14.0422 32.926 14.4147 32.926 14.8743V20.2543C32.926 20.7137 32.5534 21.0864 32.094 21.0864Z" fill="#FC1264"/>
<path d="M63.956 21.177H49.1189C48.736 21.177 48.4255 20.8665 48.4255 20.4837C48.4255 20.1008 48.736 19.7903 49.1189 19.7903H63.9558C64.3387 19.7903 64.6492 20.1008 64.6492 20.4837C64.6493 20.8665 64.3388 21.177 63.956 21.177Z" fill="#342A98"/>
<path d="M63.5876 11.7344H24.806C24.2167 11.7344 23.6919 11.3621 23.4972 10.806L22.4356 7.77478H65.9581L64.8966 10.806C64.7016 11.3621 64.1767 11.7344 63.5876 11.7344Z" fill="#EBE8FF"/>
<path d="M68.5209 43.6424H19.7813C19.0154 43.6424 18.3946 43.0216 18.3946 42.2557V28.7442C18.3946 27.9783 19.0154 27.3575 19.7813 27.3575H68.521C69.2869 27.3575 69.9077 27.9783 69.9077 28.7442V42.2557C69.9076 43.0216 69.2868 43.6424 68.5209 43.6424Z" fill="white" fill-opacity="0.9"/>
<path d="M66.6893 43.6424H46.3855V34.8248C46.3855 34.442 46.696 34.1315 47.0789 34.1315H65.996C66.3788 34.1315 66.6893 34.442 66.6893 34.8248V43.6424Z" fill="#EBE8FF"/>
<path d="M63.4813 38.0032C64.0439 38.0032 64.5 37.5471 64.5 36.9845C64.5 36.4219 64.0439 35.9659 63.4813 35.9659C62.9187 35.9659 62.4626 36.4219 62.4626 36.9845C62.4626 37.5471 62.9187 38.0032 63.4813 38.0032Z" fill="#FC1264"/>
<path d="M60.491 38.0032C61.0536 38.0032 61.5097 37.5471 61.5097 36.9845C61.5097 36.4219 61.0536 35.9659 60.491 35.9659C59.9284 35.9659 59.4723 36.4219 59.4723 36.9845C59.4723 37.5471 59.9284 38.0032 60.491 38.0032Z" fill="#FC1264"/>
<path d="M49.4442 38.0032C50.0068 38.0032 50.4629 37.5471 50.4629 36.9845C50.4629 36.4219 50.0068 35.9659 49.4442 35.9659C48.8816 35.9659 48.4255 36.4219 48.4255 36.9845C48.4255 37.5471 48.8816 38.0032 49.4442 38.0032Z" fill="#FC1264"/>
<path d="M36.4924 40.669C37.055 40.669 37.5111 40.213 37.5111 39.6504C37.5111 39.0878 37.055 38.6317 36.4924 38.6317C35.9298 38.6317 35.4737 39.0878 35.4737 39.6504C35.4737 40.213 35.9298 40.669 36.4924 40.669Z" fill="#342A98"/>
<path d="M39.7759 40.669C40.3385 40.669 40.7946 40.213 40.7946 39.6504C40.7946 39.0878 40.3385 38.6317 39.7759 38.6317C39.2133 38.6317 38.7572 39.0878 38.7572 39.6504C38.7572 40.213 39.2133 40.669 39.7759 40.669Z" fill="#342A98"/>
<path d="M43.0594 40.669C43.622 40.669 44.078 40.213 44.078 39.6504C44.078 39.0878 43.622 38.6317 43.0594 38.6317C42.4968 38.6317 42.0407 39.0878 42.0407 39.6504C42.0407 40.213 42.4968 40.669 43.0594 40.669Z" fill="#342A98"/>
<path d="M36.4924 37.8147C37.055 37.8147 37.5111 37.3587 37.5111 36.7961C37.5111 36.2335 37.055 35.7774 36.4924 35.7774C35.9298 35.7774 35.4737 36.2335 35.4737 36.7961C35.4737 37.3587 35.9298 37.8147 36.4924 37.8147Z" fill="#342A98"/>
<path d="M39.7759 37.8147C40.3385 37.8147 40.7946 37.3587 40.7946 36.7961C40.7946 36.2335 40.3385 35.7774 39.7759 35.7774C39.2133 35.7774 38.7572 36.2335 38.7572 36.7961C38.7572 37.3587 39.2133 37.8147 39.7759 37.8147Z" fill="#342A98"/>
<path d="M43.0594 37.8147C43.622 37.8147 44.078 37.3587 44.078 36.7961C44.078 36.2335 43.622 35.7774 43.0594 35.7774C42.4968 35.7774 42.0407 36.2335 42.0407 36.7961C42.0407 37.3587 42.4968 37.8147 43.0594 37.8147Z" fill="#342A98"/>
<path d="M24.5702 40.669H23.7563C23.2968 40.669 22.9243 40.2966 22.9243 39.837V34.4569C22.9243 33.9974 23.2968 33.6249 23.7563 33.6249H24.5702C25.0298 33.6249 25.4022 33.9974 25.4022 34.4569V39.837C25.4022 40.2964 25.0296 40.669 24.5702 40.669Z" fill="#342A98"/>
<path d="M28.3321 40.669H27.5182C27.0587 40.669 26.6862 40.2966 26.6862 39.837V34.4569C26.6862 33.9974 27.0587 33.6249 27.5182 33.6249H28.3321C28.7917 33.6249 29.1641 33.9974 29.1641 34.4569V39.837C29.1641 40.2964 28.7915 40.669 28.3321 40.669Z" fill="#342A98"/>
<path d="M32.094 40.669H31.2802C30.8206 40.669 30.4481 40.2966 30.4481 39.837V34.4569C30.4481 33.9974 30.8206 33.6249 31.2802 33.6249H32.094C32.5536 33.6249 32.926 33.9974 32.926 34.4569V39.837C32.926 40.2964 32.5534 40.669 32.094 40.669Z" fill="#FC1264"/>
<path d="M63.956 40.7597H49.1189C48.736 40.7597 48.4255 40.4492 48.4255 40.0663C48.4255 39.6835 48.736 39.373 49.1189 39.373H63.9558C64.3387 39.373 64.6492 39.6835 64.6492 40.0663C64.6493 40.4492 64.3388 40.7597 63.956 40.7597Z" fill="#342A98"/>
<path d="M63.5876 31.3171H24.806C24.2167 31.3171 23.6919 30.9448 23.4972 30.3887L22.4356 27.3575H65.9581L64.8966 30.3887C64.7016 30.9448 64.1767 31.3171 63.5876 31.3171Z" fill="#EBE8FF"/>
<path d="M68.5209 63.2251H19.7813C19.0154 63.2251 18.3946 62.6043 18.3946 61.8384V48.3269C18.3946 47.561 19.0154 46.9402 19.7813 46.9402H68.521C69.2869 46.9402 69.9077 47.561 69.9077 48.3269V61.8384C69.9076 62.6043 69.2868 63.2251 68.5209 63.2251Z" fill="white" fill-opacity="0.9"/>
<path d="M66.6893 63.2251H46.3855V54.4075C46.3855 54.0246 46.696 53.7141 47.0789 53.7141H65.996C66.3788 53.7141 66.6893 54.0246 66.6893 54.4075V63.2251Z" fill="#EBE8FF"/>
<path d="M63.4813 57.5859C64.0439 57.5859 64.5 57.1298 64.5 56.5672C64.5 56.0046 64.0439 55.5485 63.4813 55.5485C62.9187 55.5485 62.4626 56.0046 62.4626 56.5672C62.4626 57.1298 62.9187 57.5859 63.4813 57.5859Z" fill="#FC1264"/>
<path d="M60.491 57.5859C61.0536 57.5859 61.5097 57.1298 61.5097 56.5672C61.5097 56.0046 61.0536 55.5485 60.491 55.5485C59.9284 55.5485 59.4723 56.0046 59.4723 56.5672C59.4723 57.1298 59.9284 57.5859 60.491 57.5859Z" fill="#342A98"/>
<path d="M49.4442 57.5859C50.0068 57.5859 50.4629 57.1298 50.4629 56.5672C50.4629 56.0046 50.0068 55.5485 49.4442 55.5485C48.8816 55.5485 48.4255 56.0046 48.4255 56.5672C48.4255 57.1298 48.8816 57.5859 49.4442 57.5859Z" fill="#FC1264"/>
<path d="M36.4924 60.2517C37.055 60.2517 37.5111 59.7956 37.5111 59.233C37.5111 58.6704 37.055 58.2143 36.4924 58.2143C35.9298 58.2143 35.4737 58.6704 35.4737 59.233C35.4737 59.7956 35.9298 60.2517 36.4924 60.2517Z" fill="#342A98"/>
<path d="M39.7759 60.2517C40.3385 60.2517 40.7946 59.7956 40.7946 59.233C40.7946 58.6704 40.3385 58.2143 39.7759 58.2143C39.2133 58.2143 38.7572 58.6704 38.7572 59.233C38.7572 59.7956 39.2133 60.2517 39.7759 60.2517Z" fill="#342A98"/>
<path d="M43.0594 60.2517C43.622 60.2517 44.078 59.7956 44.078 59.233C44.078 58.6704 43.622 58.2143 43.0594 58.2143C42.4968 58.2143 42.0407 58.6704 42.0407 59.233C42.0407 59.7956 42.4968 60.2517 43.0594 60.2517Z" fill="#342A98"/>
<path d="M36.4924 57.3974C37.055 57.3974 37.5111 56.9413 37.5111 56.3787C37.5111 55.8161 37.055 55.36 36.4924 55.36C35.9298 55.36 35.4737 55.8161 35.4737 56.3787C35.4737 56.9413 35.9298 57.3974 36.4924 57.3974Z" fill="#342A98"/>
<path d="M39.7759 57.3974C40.3385 57.3974 40.7946 56.9413 40.7946 56.3787C40.7946 55.8161 40.3385 55.36 39.7759 55.36C39.2133 55.36 38.7572 55.8161 38.7572 56.3787C38.7572 56.9413 39.2133 57.3974 39.7759 57.3974Z" fill="#342A98"/>
<path d="M43.0594 57.3974C43.622 57.3974 44.078 56.9413 44.078 56.3787C44.078 55.8161 43.622 55.36 43.0594 55.36C42.4968 55.36 42.0407 55.8161 42.0407 56.3787C42.0407 56.9413 42.4968 57.3974 43.0594 57.3974Z" fill="#342A98"/>
<path d="M24.5702 60.2517H23.7563C23.2968 60.2517 22.9243 59.8792 22.9243 59.4197V54.0396C22.9243 53.5801 23.2968 53.2076 23.7563 53.2076H24.5702C25.0298 53.2076 25.4022 53.5801 25.4022 54.0396V59.4197C25.4022 59.8791 25.0296 60.2517 24.5702 60.2517Z" fill="#342A98"/>
<path d="M28.3321 60.2517H27.5182C27.0587 60.2517 26.6862 59.8792 26.6862 59.4197V54.0396C26.6862 53.5801 27.0587 53.2076 27.5182 53.2076H28.3321C28.7917 53.2076 29.1641 53.5801 29.1641 54.0396V59.4197C29.1641 59.8791 28.7915 60.2517 28.3321 60.2517Z" fill="#342A98"/>
<path d="M32.094 60.2517H31.2802C30.8206 60.2517 30.4481 59.8792 30.4481 59.4197V54.0396C30.4481 53.5801 30.8206 53.2076 31.2802 53.2076H32.094C32.5536 53.2076 32.926 53.5801 32.926 54.0396V59.4197C32.926 59.8791 32.5534 60.2517 32.094 60.2517Z" fill="#FC1264"/>
<path d="M63.956 60.3424H49.1189C48.736 60.3424 48.4255 60.0319 48.4255 59.649C48.4255 59.2661 48.736 58.9557 49.1189 58.9557H63.9558C64.3387 58.9557 64.6492 59.2661 64.6492 59.649C64.6493 60.0319 64.3388 60.3424 63.956 60.3424Z" fill="#342A98"/>
<path d="M63.5876 50.8998H24.806C24.2167 50.8998 23.6919 50.5275 23.4972 49.9714L22.4356 46.9402H65.9581L64.8966 49.9714C64.7016 50.5275 64.1767 50.8998 63.5876 50.8998Z" fill="#EBE8FF"/>
<path d="M68.5209 24.7531C69.6678 24.7531 70.601 23.82 70.601 22.673V9.1615C70.601 8.01454 69.6678 7.08142 68.5209 7.08142H63.2863C62.9033 7.08142 62.5929 7.39191 62.5929 7.77478C62.5929 8.15765 62.9033 8.46814 63.2863 8.46814H68.5209C68.9032 8.46814 69.2142 8.77918 69.2142 9.1615V22.673C69.2142 23.0553 68.9032 23.3664 68.5209 23.3664H19.7813C19.399 23.3664 19.088 23.0553 19.088 22.673V9.1615C19.088 8.77918 19.399 8.46814 19.7813 8.46814H59.2102C59.5932 8.46814 59.9035 8.15765 59.9035 7.77478C59.9035 7.39191 59.5932 7.08142 59.2102 7.08142H19.7813C18.6344 7.08142 17.7012 8.01454 17.7012 9.1615V22.673C17.7012 23.82 18.6344 24.7531 19.7813 24.7531H19.8364V26.6641H19.7813C18.6344 26.6641 17.7012 27.5972 17.7012 28.7442V35.1714C17.7012 35.5542 18.0117 35.8647 18.3946 35.8647C18.7775 35.8647 19.088 35.5542 19.088 35.1714V28.7442C19.088 28.3619 19.399 28.0508 19.7813 28.0508H68.521C68.9033 28.0508 69.2144 28.3619 69.2144 28.7442V42.2557C69.2144 42.638 68.9033 42.949 68.521 42.949H19.7813C19.399 42.949 19.088 42.638 19.088 42.2557V39.2477C19.088 38.8649 18.7775 38.5544 18.3946 38.5544C18.0117 38.5544 17.7012 38.8649 17.7012 39.2477V42.2557C17.7012 43.4026 18.6344 44.3358 19.7813 44.3358H19.8364V46.2468H19.7813C18.6344 46.2468 17.7012 47.1799 17.7012 48.3269V61.8384C17.7012 62.9853 18.6344 63.9184 19.7813 63.9184H68.521C69.668 63.9184 70.6011 62.9853 70.6011 61.8384V48.3269C70.6011 47.1799 69.668 46.2468 68.521 46.2468H68.466V44.3358H68.521C69.668 44.3358 70.6011 43.4026 70.6011 42.2557V28.7442C70.6011 27.5972 69.668 26.6641 68.521 26.6641H68.466V24.7531H68.5209ZM69.2142 48.327V61.8385C69.2142 62.2208 68.9032 62.5319 68.5209 62.5319H19.7813C19.399 62.5319 19.088 62.2208 19.088 61.8385V48.327C19.088 47.9447 19.399 47.6337 19.7813 47.6337H68.521C68.9032 47.6337 69.2142 47.9447 69.2142 48.327ZM67.0791 46.2469H21.2231V44.3359H67.0791V46.2469ZM67.0791 26.6643H21.2231V24.7532H67.0791V26.6643Z" fill="#342A98"/>
<path d="M73.1416 6.97091C73.0778 6.97091 73.014 6.96217 72.952 6.94456C71.134 6.42773 70.9977 3.81917 70.9928 3.70851C70.9788 3.39359 71.1792 3.10876 71.4804 3.01543L72.9365 2.56447C73.0703 2.52315 73.213 2.52315 73.3468 2.56447L74.8029 3.01543C75.1041 3.10876 75.3043 3.39345 75.2904 3.70851C75.2856 3.81931 75.1493 6.42773 73.3313 6.94456C73.2691 6.96217 73.2054 6.97091 73.1416 6.97091ZM72.4471 4.16766C72.5438 4.6555 72.7512 5.27412 73.1413 5.52414C73.5335 5.27204 73.739 4.64524 73.8347 4.16724L73.1416 3.95258L72.4471 4.16766Z" fill="#FC1264"/>
<path d="M65.8256 65.6749C65.7618 65.6749 65.698 65.6662 65.636 65.6486C63.8179 65.1318 63.6817 62.5232 63.6768 62.4126C63.6628 62.0976 63.8632 61.8128 64.1644 61.7195L65.6205 61.2685C65.754 61.2272 65.8971 61.2272 66.0307 61.2685L67.4867 61.7195C67.7879 61.8128 67.9883 62.0975 67.9743 62.4126C67.9693 62.5234 67.8331 65.1318 66.0151 65.6486C65.9533 65.6662 65.8893 65.6749 65.8256 65.6749ZM65.1312 62.8717C65.2277 63.3597 65.4353 63.9784 65.8256 64.2283C66.2156 63.9786 66.4231 63.3601 66.5199 62.8717L65.8256 62.6566L65.1312 62.8717Z" fill="#FC1264"/>
<path d="M15.4233 27.5566C15.2458 27.5566 15.0684 27.4889 14.9329 27.3536L14.1752 26.5959L13.4175 27.3536C13.1467 27.6243 12.7078 27.6243 12.437 27.3536C12.1661 27.0828 12.1661 26.6437 12.437 26.373L13.685 25.125C13.9558 24.8543 14.3947 24.8543 14.6656 25.125L15.9136 26.373C16.1844 26.6439 16.1844 27.0829 15.9136 27.3536C15.7783 27.4889 15.6008 27.5566 15.4233 27.5566Z" fill="#FC1264"/>
<path d="M75.8457 11.8734C75.6683 11.8734 75.4907 11.8057 75.3555 11.6704L74.5976 10.9127L73.8398 11.6704C73.5692 11.9411 73.1299 11.9411 72.8594 11.6704C72.5885 11.3996 72.5885 10.9605 72.8594 10.6898L74.1074 9.44179C74.378 9.1711 74.8173 9.1711 75.0878 9.44179L76.3359 10.6898C76.6067 10.9607 76.6067 11.3997 76.3359 11.6704C76.2005 11.8057 76.023 11.8734 75.8457 11.8734Z" fill="#FC1264"/>
<path d="M74.1036 67.3335C73.9261 67.3335 73.7487 67.2658 73.6133 67.1305L72.8556 66.3728L72.0979 67.1305C71.827 67.4011 71.3881 67.4011 71.1173 67.1305C70.8465 66.8596 70.8465 66.4206 71.1173 66.1499L72.3654 64.9019C72.6362 64.6312 73.0751 64.6312 73.3459 64.9019L74.5939 66.1499C74.8648 66.4207 74.8648 66.8598 74.5939 67.1305C74.4585 67.2657 74.2811 67.3335 74.1036 67.3335Z" fill="#FC1264"/>
<rect opacity="0.1" y="47" width="40" height="33" rx="4" fill="#342A98"/>
<rect x="3.875" y="44.875" width="38.25" height="31.25" rx="3.125" fill="white" stroke="#342A98" stroke-width="1.75"/>
<path d="M15.4991 49.5625H7.78125C7.34984 49.5625 7 49.2127 7 48.7812C7 48.3498 7.34984 48 7.78125 48H15.4989C15.9303 48 16.2802 48.3498 16.2802 48.7812C16.2803 49.2127 15.9305 49.5625 15.4991 49.5625Z" fill="#FC1264"/>
<path d="M20.4991 49.5625H17.7812C17.3498 49.5625 17 49.2127 17 48.7812C17 48.3498 17.3498 48 17.7812 48H20.4989C20.9303 48 21.2802 48.3498 21.2802 48.7812C21.2803 49.2127 20.9305 49.5625 20.4991 49.5625Z" fill="#FC1264"/>
<rect x="5" y="52" width="36" height="23" rx="2" fill="#EBE8FF"/>
<path d="M4 52.5H42" stroke="#342A98" stroke-width="1.75"/>
<path d="M4 59H42" stroke="#342A98" stroke-width="1.75"/>
<path d="M4 65H42" stroke="#342A98" stroke-width="1.75"/>
<path d="M4 71H42" stroke="#342A98" stroke-width="1.75"/>
<path d="M11 76L11 52" stroke="#342A98" stroke-width="1.75"/>
<path d="M19 76L19 52" stroke="#342A98" stroke-width="1.75"/>
<path d="M27 76L27 52" stroke="#342A98" stroke-width="1.75"/>
<path d="M35 76L35 52" stroke="#342A98" stroke-width="1.75"/>
<path d="M53.5231 40.5667L32.2997 60.8352L23.716 61.4888L26.1094 53.5976L47.3691 33.9965C48.7988 32.6578 50.994 32.3648 52.758 33.4209C54.8901 34.6974 55.5839 37.4613 54.3075 39.5934C54.0866 39.9623 53.8211 40.287 53.5231 40.5667Z" fill="#FDFDFF"/>
<path d="M53.5231 43.5667L33.3334 62.8481C32.665 63.4864 31.7961 63.8736 30.8745 63.9438L29.5439 64.0451C26.7393 64.2586 24.596 61.5873 25.4124 58.8957L25.7934 57.6395C26.0003 56.9573 26.3857 56.3428 26.9098 55.8596L47.3691 36.9965C48.7988 35.6578 50.994 35.3648 52.758 36.4209C54.8901 37.6974 55.5839 40.4613 54.3075 42.5934C54.0866 42.9623 53.8211 43.287 53.5231 43.5667Z" fill="#D8D4F0"/>
<path d="M53.5231 40.5667L32.2997 60.8352L24.0001 61.5C27.1645 58.4417 53.5231 33.9966 53.5231 33.9966C55.0385 35.4131 55.4161 37.7415 54.3075 39.5934C54.0866 39.9623 53.8211 40.287 53.5231 40.5667Z" fill="#EBE8FF"/>
<path d="M49.296 38.3413L50.7023 37.0223" stroke="#FC1264" stroke-width="1.75" stroke-miterlimit="10" stroke-linecap="round"/>
<path d="M46.2606 41.1861L47.7779 39.7634" stroke="#FC1264" stroke-width="1.75" stroke-miterlimit="10" stroke-linecap="round"/>
<path d="M43.7423 43.6082L32.0732 54.5461" stroke="#342A98" stroke-width="1.75" stroke-miterlimit="10" stroke-linecap="round"/>
<path d="M26.1094 53.5976L32.2997 60.8352" stroke="#342A98" stroke-width="1.75" stroke-miterlimit="10" stroke-linecap="round"/>
<path d="M53.5231 40.5667L32.2997 60.8352L23.716 61.4888L26.1094 53.5976L47.3691 33.9965C48.7988 32.6578 50.994 32.3648 52.758 33.4209C54.8901 34.6974 55.5839 37.4613 54.3075 39.5934C54.0866 39.9623 53.8211 40.287 53.5231 40.5667Z" stroke="#342A98" stroke-width="1.75" stroke-miterlimit="10" stroke-linecap="round"/>
<defs>
<linearGradient id="paint0_linear_17_4860" x1="1.05225" y1="20.8294" x2="83.2708" y2="37.388" gradientUnits="userSpaceOnUse">
<stop stop-color="#E7E1FD" stop-opacity="0.45"/>
<stop offset="1" stop-color="#D3CAF5"/>
</linearGradient>
</defs>
</svg>
