<svg width="80" height="80" viewBox="0 0 80 80" fill="none" xmlns="http://www.w3.org/2000/svg">
<path d="M78.4177 23.0414C74.9244 14.1526 64.1637 8.82216 55.0496 12.3497C44.6462 16.3762 48.0955 32.9236 38.646 36.2697C33.5415 38.0772 25.9957 31.3253 20.8383 30.2898C11.3351 28.382 2.73194 35.0875 0.6135 44.3733C-1.54775 53.8467 1.91866 66.4998 12.3271 69.0711C24.7255 72.1339 31.1838 60.9884 41.5847 57.7881C52.2582 54.5039 64.1258 62.2603 72.9619 52.8231C79.4901 45.8512 81.8768 31.8433 78.4177 23.0414Z" fill="url(#paint0_linear_17_4857)"/>
<path opacity="0.1" d="M74.5074 28.4231C74.5074 22.2517 69.5044 17.2486 63.3329 17.2486C58.5516 17.2486 54.4737 20.2525 52.8782 24.4751H12.4707C10.7448 24.4751 9.3457 25.8742 9.3457 27.6001V62.1954C9.3457 63.9214 10.7448 65.3204 12.4707 65.3204H67.5293C69.2552 65.3204 70.6543 63.9214 70.6543 62.1954V36.8611C73.0135 34.8121 74.5074 31.7931 74.5074 28.4231Z" fill="#342A98"/>
<path d="M67.5293 61.4142H12.4707C10.7448 61.4142 9.3457 60.0151 9.3457 58.2892V23.6939C9.3457 21.9679 10.7448 20.5689 12.4707 20.5689H67.5293C69.2552 20.5689 70.6543 21.9679 70.6543 23.6939V58.2892C70.6543 60.0151 69.2552 61.4142 67.5293 61.4142Z" fill="#EBE8FF"/>
<path d="M40.952 35.4728L70.6544 58.2892C70.6544 60.0151 69.2554 61.4142 67.5294 61.4142H12.4707C10.7448 61.4142 9.3457 60.0151 9.3457 58.2892L39.0482 35.4728C39.6096 35.0415 40.3905 35.0415 40.952 35.4728Z" fill="#EBE8FF"/>
<path d="M39.0482 46.5104L9.3457 23.6939C9.3457 21.9679 10.7448 20.5689 12.4707 20.5689H67.5293C69.2552 20.5689 70.6543 21.9679 70.6543 23.6939L40.952 46.5104C40.3905 46.9415 39.6096 46.9415 39.0482 46.5104Z" fill="#EBE8FF"/>
<path d="M57.9605 57.2562H52.9396C52.508 57.2562 52.1584 56.9065 52.1584 56.475V53.0134C52.1584 52.582 52.508 52.2321 52.9396 52.2321H57.9605C58.3921 52.2321 58.7418 52.582 58.7418 53.0134V56.475C58.7418 56.9065 58.3921 57.2562 57.9605 57.2562Z" fill="#FC1264"/>
<path d="M48.7299 54.0715H44.381C43.9494 54.0715 43.5998 53.7217 43.5998 53.2903C43.5998 52.8589 43.9494 52.509 44.381 52.509H48.7299C49.1615 52.509 49.5112 52.8589 49.5112 53.2903C49.5112 53.7217 49.1615 54.0715 48.7299 54.0715Z" fill="#342A98"/>
<path d="M48.7299 57.2562H33.4435C33.0119 57.2562 32.6623 56.9064 32.6623 56.475C32.6623 56.0436 33.0119 55.6937 33.4435 55.6937H48.7299C49.1615 55.6937 49.5112 56.0436 49.5112 56.475C49.5112 56.9065 49.1615 57.2562 48.7299 57.2562Z" fill="#342A98"/>
<path d="M74.3484 26.306C75.3358 20.2147 71.1984 14.4763 65.1071 13.4889C59.0158 12.5014 53.2773 16.6389 52.2899 22.7302C51.3024 28.8215 55.4399 34.5599 61.5312 35.5474C67.6225 36.5348 73.361 32.3973 74.3484 26.306Z" fill="#342A98"/>
<path d="M63.3329 36.4726C69.9252 36.4726 75.2887 31.1093 75.2887 24.5168C75.2887 17.9243 69.9254 12.5611 63.3329 12.5611C56.7404 12.5611 51.3771 17.9243 51.3771 24.5168C51.3771 28.3518 53.1941 31.7684 56.0104 33.9576L40.476 45.8907C40.1962 46.1061 39.8046 46.1062 39.5241 45.8907L10.1551 23.3304C10.3302 22.2101 11.3021 21.3501 12.4707 21.3501H48.3091C48.7407 21.3501 49.0904 21.0003 49.0904 20.5689C49.0904 20.1375 48.7407 19.7876 48.3091 19.7876H12.4707C10.3168 19.7876 8.56445 21.54 8.56445 23.6939V58.2892C8.56445 60.4431 10.3168 62.1954 12.4707 62.1954H67.5293C69.6832 62.1954 71.4355 60.4431 71.4355 58.2892V37.6423C71.4355 37.2109 71.0859 36.8611 70.6543 36.8611C70.2227 36.8611 69.873 37.2109 69.873 37.6423V56.7039L49.4188 40.9915L57.3782 34.8775C59.1329 35.89 61.1655 36.4726 63.3329 36.4726ZM30.5813 40.9915L10.127 56.7039V25.2792L30.5813 40.9915ZM69.8423 58.6506C69.6676 59.7715 68.6985 60.6329 67.5293 60.6329H12.4707C11.3015 60.6329 10.3324 59.7715 10.1577 58.6506L31.8638 41.9767L38.5723 47.1298C38.9926 47.4526 39.4963 47.6142 40.0001 47.6142C40.5038 47.6142 41.0074 47.4528 41.4279 47.1298L48.1363 41.9765L69.8423 58.6506ZM52.9396 24.5168C52.9396 18.7861 57.6019 14.1236 63.3329 14.1236C69.0638 14.1236 73.7262 18.7859 73.7262 24.5168C73.7262 30.2476 69.0638 34.9101 63.3329 34.9101C57.6019 34.9101 52.9396 30.2476 52.9396 24.5168Z" fill="#342A98"/>
<path d="M58.4554 20.7061L60.0501 24.5168L58.4554 28.3276C58.1846 28.9748 58.8379 29.6232 59.4831 29.3476L69.111 25.2353C69.7435 24.9651 69.7435 24.0686 69.111 23.7984L59.4831 19.6861C58.8379 19.4104 58.1846 20.0589 58.4554 20.7061Z" fill="#EBE8FF"/>
<path d="M51.6919 13.279C51.1116 13.279 50.5315 13.0582 50.0899 12.6165C49.2065 11.7331 49.2065 10.2957 50.0899 9.41246C50.9729 8.52934 52.4105 8.52902 53.2938 9.41246C54.1773 10.2959 54.1773 11.7332 53.2938 12.6165C52.8523 13.0582 52.2721 13.279 51.6919 13.279ZM51.6919 10.3117C51.5119 10.3117 51.3318 10.3801 51.1946 10.5173C50.9205 10.7914 50.9205 11.2375 51.1946 11.5117C51.469 11.7857 51.9146 11.7859 52.189 11.5117C52.463 11.2376 52.463 10.7915 52.189 10.5173C52.0519 10.3803 51.8718 10.3117 51.6919 10.3117Z" fill="#FC1264"/>
<path d="M34.1466 72.2859C33.5665 72.2859 32.9862 72.065 32.5446 71.6234C31.6612 70.74 31.6612 69.3026 32.5446 68.4193C33.4277 67.5361 34.8655 67.5361 35.7487 68.4193C36.6321 69.3028 36.6321 70.7401 35.7487 71.6234C35.3071 72.0651 34.7268 72.2859 34.1466 72.2859ZM34.1466 69.3186C33.9666 69.3186 33.7865 69.387 33.6493 69.5242C33.3752 69.7983 33.3752 70.2443 33.6493 70.5186C33.9237 70.7928 34.3694 70.7928 34.6438 70.5186C34.9179 70.2445 34.9179 69.7984 34.6438 69.5242C34.5068 69.3872 34.3266 69.3186 34.1466 69.3186Z" fill="#FC1264"/>
<path d="M46.0594 15.2909C45.8596 15.2909 45.6594 15.2146 45.5071 15.0621L44.5751 14.1303L43.643 15.0621C43.3382 15.3671 42.8432 15.3671 42.5383 15.0621C42.2332 14.757 42.2332 14.2623 42.5383 13.9573L44.0227 12.4729C44.3276 12.1679 44.8226 12.1679 45.1274 12.4729L46.6118 13.9573C46.9169 14.2625 46.9169 14.7571 46.6118 15.0621C46.4594 15.2145 46.2594 15.2909 46.0594 15.2909Z" fill="#FC1264"/>
<path d="M68.7104 69.3182C68.5105 69.3182 68.3104 69.242 68.158 69.0895L67.226 68.1576L66.294 69.0895C65.9891 69.3945 65.4941 69.3945 65.1893 69.0895C64.8841 68.7843 64.8841 68.2896 65.1893 67.9846L66.6737 66.5003C66.9785 66.1953 67.4735 66.1953 67.7783 66.5003L69.2627 67.9846C69.5679 68.2898 69.5679 68.7845 69.2627 69.0895C69.1104 69.2418 68.9102 69.3182 68.7104 69.3182Z" fill="#FC1264"/>
<path d="M27.9507 70.0604C27.7509 70.0604 27.5507 69.9842 27.3984 69.8317L26.4663 68.8998L25.5343 69.8317C25.2295 70.1367 24.7345 70.1367 24.4296 69.8317C24.1245 69.5265 24.1245 69.0318 24.4296 68.7268L25.914 67.2425C26.2188 66.9375 26.7138 66.9375 27.0187 67.2425L28.5031 68.7268C28.8082 69.032 28.8082 69.5267 28.5031 69.8317C28.3506 69.984 28.1505 70.0604 27.9507 70.0604Z" fill="#FC1264"/>
<defs>
<linearGradient id="paint0_linear_17_4857" x1="-1.03864" y1="26.442" x2="84.8532" y2="52.4338" gradientUnits="userSpaceOnUse">
<stop stop-color="#F9F8FF" stop-opacity="0.55"/>
<stop offset="1" stop-color="#D6CDF7" stop-opacity="0.8"/>
</linearGradient>
</defs>
</svg>
