<svg width="80" height="80" viewBox="0 0 80 80" fill="none" xmlns="http://www.w3.org/2000/svg">
<g clip-path="url(#clip0_17_4868)">
<path d="M57.0036 8.54766C46.207 4.32344 31.2561 5.92828 22.9939 13.4711C17.1602 18.7969 21.6753 20.3148 25.6527 30.0602C28.5312 37.1134 0 36.1427 0 48.8877C0 63.6219 20.6642 60.8289 28.3327 62.5155C40.057 65.0942 50.2852 74.7408 62.812 73.4691C73.7175 72.3619 77.875 63.8042 79.3916 53.9937C82.2169 35.7162 75.2777 15.6977 57.0036 8.54766Z" fill="url(#paint0_linear_17_4868)"/>
<path opacity="0.1" d="M69.125 59.9891H63.6753V57.9852C63.6753 57.5538 63.3255 57.2039 62.8941 57.2039H62.6855V53.4852C62.6855 52.1928 61.6341 51.1414 60.3417 51.1414H44.1359V50.933C44.1359 50.5016 43.7861 50.1517 43.3547 50.1517H41.7711V48.2663C41.7711 47.8349 41.4212 47.485 40.9898 47.485H40.7812V43.3578H53.3044V46.3178C53.3044 46.7492 53.6542 47.0991 54.0856 47.0991H62.7161C63.1475 47.0991 63.4973 46.7492 63.4973 46.3178V34.6295C63.4973 34.1981 63.1475 33.8483 62.7161 33.8483H56.2247V22.1767C56.2247 21.5827 55.7431 21.1011 55.1491 21.1011H55.0855V19.3058C55.0855 18.7117 54.6039 18.2302 54.0098 18.2302H38.2558L38.183 18.1084C37.9887 17.7838 37.6381 17.5849 37.2598 17.5849H32.4426C32.1108 12.7086 28.0528 8.85516 23.0922 8.85516C17.9145 8.85516 13.7172 13.0525 13.7172 18.2302C13.7172 23.4078 17.9145 27.6052 23.0922 27.6052C23.3222 27.6052 23.5494 27.5939 23.7751 27.5777V40.3625C23.7751 42.0172 25.1173 43.3578 26.7705 43.3578H26.7711H39.2187V47.4849H39.0101C38.5787 47.4849 38.2289 47.8347 38.2289 48.2661V50.1516H36.6453C36.2139 50.1516 35.8641 50.5014 35.8641 50.9328V51.1413H19.6583C18.3659 51.1413 17.3145 52.1927 17.3145 53.485V57.2038H17.1059C16.6745 57.2038 16.3247 57.5536 16.3247 57.985V59.9889H10.875C10.1847 59.9889 9.62499 60.5486 9.62499 61.2389V70.5761C9.62499 71.2664 10.1847 71.8261 10.875 71.8261H14.5926V74.1133H13.0998C12.6683 74.1133 12.3186 74.463 12.3186 74.8945C12.3186 75.3261 12.6683 75.6758 13.0998 75.6758H23.092C23.5236 75.6758 23.8733 75.3261 23.8733 74.8945C23.8733 74.463 23.5236 74.1133 23.092 74.1133H21.5992V71.8261H25.3169C26.0072 71.8261 26.5669 71.2664 26.5669 70.5761V61.2391C26.5669 60.5488 26.0072 59.9891 25.3169 59.9891H19.8672V57.9852C19.8672 57.5538 19.5173 57.2039 19.0859 57.2039H18.8772V53.4852C18.8772 53.0544 19.2276 52.7039 19.6584 52.7039H35.8641V52.9128C35.8641 53.3442 36.2139 53.6941 36.6453 53.6941H39.2187V57.2039H39.0101C38.5787 57.2039 38.2289 57.5538 38.2289 57.9852V59.9891H32.7792C32.0889 59.9891 31.5292 60.5488 31.5292 61.2391V70.5763C31.5292 71.2666 32.0889 71.8263 32.7792 71.8263H36.4969V74.1134H35.0039C34.5723 74.1134 34.2226 74.4631 34.2226 74.8947C34.2226 75.3263 34.5723 75.6759 35.0039 75.6759H44.9962C45.4278 75.6759 45.7775 75.3263 45.7775 74.8947C45.7775 74.4631 45.4278 74.1134 44.9962 74.1134H43.5033V71.8263H47.2209C47.9112 71.8263 48.4709 71.2666 48.4709 70.5763V61.2391C48.4709 60.5488 47.9112 59.9891 47.2209 59.9891H41.7712V57.9852C41.7712 57.5538 41.4214 57.2039 40.99 57.2039H40.7812V53.6941H43.3547C43.7861 53.6941 44.1359 53.3442 44.1359 52.9128V52.7039H60.3417C60.7725 52.7039 61.123 53.0544 61.123 53.4852V57.2039H60.9142C60.4828 57.2039 60.133 57.5538 60.133 57.9852V59.9891H54.6833C53.993 59.9891 53.4333 60.5488 53.4333 61.2391V70.5763C53.4333 71.2666 53.993 71.8263 54.6833 71.8263H58.4009V74.1134H56.9081C56.4766 74.1134 56.1269 74.4631 56.1269 74.8947C56.1269 75.3263 56.4766 75.6759 56.9081 75.6759H66.9003C67.3319 75.6759 67.6816 75.3263 67.6816 74.8947C67.6816 74.4631 67.3319 74.1134 66.9003 74.1134H65.4075V71.8263H69.125C69.8153 71.8263 70.375 71.2666 70.375 70.5763V61.2391C70.375 60.5488 69.8153 59.9891 69.125 59.9891Z" fill="#342A98"/>
<path d="M55.0853 19.0459H37.2597V14.4802H54.0097C54.6037 14.4802 55.0853 14.9617 55.0853 15.5558V19.0459Z" fill="white" fill-opacity="0.9"/>
<path d="M39.9725 17.3511L38.183 14.3583C37.9887 14.0334 37.6381 13.8347 37.2598 13.8347H26.7711V39.6078H55.1492C55.7433 39.6078 56.2248 39.1262 56.2248 38.5322V18.4267C56.2248 17.8327 55.7433 17.3511 55.1492 17.3511H39.9725Z" fill="#EBE8FF"/>
<path d="M35.9373 33.6572H33.5969C33.1653 33.6572 32.8156 33.3075 32.8156 32.8759C32.8156 32.4444 33.1653 32.0947 33.5969 32.0947H35.9373C36.3689 32.0947 36.7186 32.4444 36.7186 32.8759C36.7186 33.3075 36.3689 33.6572 35.9373 33.6572Z" fill="#FC1264"/>
<path d="M39.2595 36.4403H33.5969C33.1653 36.4403 32.8156 36.0906 32.8156 35.6591C32.8156 35.2275 33.1653 34.8778 33.5969 34.8778H39.2595C39.6911 34.8778 40.0408 35.2275 40.0408 35.6591C40.0408 36.0906 39.6909 36.4403 39.2595 36.4403Z" fill="white" fill-opacity="0.9"/>
<path d="M29.7672 14.9109V36.6125C29.7672 38.2672 28.425 39.6078 26.7703 39.6078C25.1172 39.6078 23.775 38.2672 23.775 36.6125V14.9109C23.775 14.3156 24.2562 13.8344 24.8516 13.8344H28.6906C29.2844 13.8344 29.7672 14.3156 29.7672 14.9109Z" fill="white" fill-opacity="0.9"/>
<path d="M52.9798 36.7378H46.0509C45.7539 36.7378 45.5131 36.497 45.5131 36.2V31.9028C45.5131 31.6058 45.7539 31.365 46.0509 31.365H52.9798C53.2769 31.365 53.5176 31.6058 53.5176 31.9028V36.2C53.5176 36.497 53.2769 36.7378 52.9798 36.7378Z" fill="white" fill-opacity="0.9"/>
<path d="M47.8378 21.9772C47.4062 21.9772 47.0566 21.6275 47.0566 21.1959V21.178C47.0566 20.7464 47.4062 20.3967 47.8378 20.3967C48.2694 20.3967 48.6191 20.7464 48.6191 21.178V21.1959C48.6191 21.6275 48.2694 21.9772 47.8378 21.9772Z" fill="#FC1264"/>
<path d="M50.2872 21.9772C49.8556 21.9772 49.5059 21.6275 49.5059 21.1959V21.178C49.5059 20.7464 49.8556 20.3967 50.2872 20.3967C50.7187 20.3967 51.0684 20.7464 51.0684 21.178V21.1959C51.0684 21.6275 50.7187 21.9772 50.2872 21.9772Z" fill="#342A98"/>
<path d="M52.7366 21.9772C52.305 21.9772 51.9553 21.6275 51.9553 21.1959V21.178C51.9553 20.7464 52.305 20.3967 52.7366 20.3967C53.1681 20.3967 53.5178 20.7464 53.5178 21.178V21.1959C53.5178 21.6275 53.168 21.9772 52.7366 21.9772Z" fill="#342A98"/>
<path d="M41.7711 46.4017V44.5163C41.7711 44.0848 41.4212 43.735 40.9898 43.735H39.0101C38.5787 43.735 38.2289 44.0848 38.2289 44.5163V46.4017H36.6453C36.2139 46.4017 35.8641 46.7516 35.8641 47.183V49.1628C35.8641 49.5942 36.2139 49.9441 36.6453 49.9441H43.3545C43.7859 49.9441 44.1358 49.5942 44.1358 49.1628V47.183C44.1358 46.7516 43.7859 46.4017 43.3545 46.4017H41.7711Z" fill="white" fill-opacity="0.9"/>
<path d="M41.7711 56.91V54.2352C41.7711 53.8038 41.4212 53.4539 40.9898 53.4539H39.0101C38.5787 53.4539 38.2289 53.8038 38.2289 54.2352V56.91H41.7711Z" fill="#EBE8FF"/>
<path d="M63.6751 56.91V54.2352C63.6751 53.8038 63.3253 53.4539 62.8939 53.4539H60.9142C60.4828 53.4539 60.133 53.8038 60.133 54.2352V56.91H63.6751Z" fill="#EBE8FF"/>
<path d="M19.867 56.91V54.2352C19.867 53.8038 19.5172 53.4539 19.0858 53.4539H17.1061C16.6747 53.4539 16.3248 53.8038 16.3248 54.2352V56.91H19.867Z" fill="#EBE8FF"/>
<path d="M25.3167 68.0762H10.875C10.1847 68.0762 9.62499 67.5166 9.62499 66.8262V57.4891C9.62499 56.7987 10.1847 56.2391 10.875 56.2391H25.3167C26.007 56.2391 26.5667 56.7987 26.5667 57.4891V66.8262C26.5667 67.5166 26.0072 68.0762 25.3167 68.0762Z" fill="white" fill-opacity="0.9"/>
<path d="M9.62499 64.5905V66.8262C9.62499 67.5166 10.1847 68.0762 10.875 68.0762H25.3167C26.007 68.0762 26.5667 67.5166 26.5667 66.8262V64.5905H9.62499Z" fill="#EBE8FF"/>
<path d="M14.5927 68.0762H21.5992V71.1448H14.5927V68.0762Z" fill="white" fill-opacity="0.9"/>
<path d="M47.2208 68.0762H32.7791C32.0887 68.0762 31.5291 67.5166 31.5291 66.8262V57.4891C31.5291 56.7987 32.0887 56.2391 32.7791 56.2391H47.2208C47.9111 56.2391 48.4708 56.7987 48.4708 57.4891V66.8262C48.4708 67.5166 47.9112 68.0762 47.2208 68.0762Z" fill="white" fill-opacity="0.9"/>
<path d="M31.5292 64.5905V66.8262C31.5292 67.5166 32.0889 68.0762 32.7792 68.0762H47.2209C47.9112 68.0762 48.4709 67.5166 48.4709 66.8262V64.5905H31.5292Z" fill="#EBE8FF"/>
<path d="M36.4967 68.0762H43.5033V71.1448H36.4967V68.0762Z" fill="white" fill-opacity="0.9"/>
<path d="M69.125 68.0762H54.6833C53.993 68.0762 53.4333 67.5166 53.4333 66.8262V57.4891C53.4333 56.7987 53.993 56.2391 54.6833 56.2391H69.125C69.8153 56.2391 70.375 56.7987 70.375 57.4891V66.8262C70.375 67.5166 69.8153 68.0762 69.125 68.0762Z" fill="white" fill-opacity="0.9"/>
<path d="M53.4333 64.5905V66.8262C53.4333 67.5166 53.993 68.0762 54.6833 68.0762H69.125C69.8153 68.0762 70.375 67.5166 70.375 66.8262V64.5905H53.4333Z" fill="#EBE8FF"/>
<path d="M58.4008 68.0762H65.4073V71.1448H58.4008V68.0762Z" fill="white" fill-opacity="0.9"/>
<path d="M13.1126 60.0669C12.6811 60.0669 12.3314 59.7172 12.3314 59.2856V59.2677C12.3314 58.8361 12.6811 58.4864 13.1126 58.4864C13.5442 58.4864 13.8939 58.8361 13.8939 59.2677V59.2856C13.8939 59.7172 13.5442 60.0669 13.1126 60.0669Z" fill="#FC1264"/>
<path d="M15.5791 60.0669C15.1475 60.0669 14.7978 59.7172 14.7978 59.2856V59.2677C14.7978 58.8361 15.1475 58.4864 15.5791 58.4864C16.0106 58.4864 16.3603 58.8361 16.3603 59.2677V59.2856C16.3603 59.7172 16.0106 60.0669 15.5791 60.0669Z" fill="#342A98"/>
<path d="M35.0167 60.0669C34.5851 60.0669 34.2355 59.7172 34.2355 59.2856V59.2677C34.2355 58.8361 34.5851 58.4864 35.0167 58.4864C35.4483 58.4864 35.798 58.8361 35.798 59.2677V59.2856C35.798 59.7172 35.4483 60.0669 35.0167 60.0669Z" fill="#FC1264"/>
<path d="M37.4833 60.0669C37.0517 60.0669 36.702 59.7172 36.702 59.2856V59.2677C36.702 58.8361 37.0517 58.4864 37.4833 58.4864C37.9148 58.4864 38.2645 58.8361 38.2645 59.2677V59.2856C38.2645 59.7172 37.9147 60.0669 37.4833 60.0669Z" fill="#342A98"/>
<path d="M56.9209 60.0669C56.4894 60.0669 56.1397 59.7172 56.1397 59.2856V59.2677C56.1397 58.8361 56.4894 58.4864 56.9209 58.4864C57.3525 58.4864 57.7022 58.8361 57.7022 59.2677V59.2856C57.7022 59.7172 57.3525 60.0669 56.9209 60.0669Z" fill="#FC1264"/>
<path d="M59.3873 60.0669C58.9558 60.0669 58.6061 59.7172 58.6061 59.2856V59.2677C58.6061 58.8361 58.9558 58.4864 59.3873 58.4864C59.8189 58.4864 60.1686 58.8361 60.1686 59.2677V59.2856C60.1686 59.7172 59.8189 60.0669 59.3873 60.0669Z" fill="#342A98"/>
<path d="M23.092 23.8552C28.2697 23.8552 32.467 19.6578 32.467 14.4802C32.467 9.30249 28.2697 5.10516 23.092 5.10516C17.9144 5.10516 13.717 9.30249 13.717 14.4802C13.717 19.6578 17.9144 23.8552 23.092 23.8552Z" fill="#EBE8FF"/>
<path d="M24.4966 17.7552C24.3806 17.7552 24.263 17.7292 24.1519 17.6745L20.4591 15.855C20.072 15.6642 19.9128 15.196 20.1036 14.8089C20.2942 14.4217 20.7623 14.2628 21.1497 14.4535L24.8425 16.273C25.2295 16.4638 25.3887 16.9321 25.198 17.3191C25.062 17.595 24.7848 17.7552 24.4966 17.7552Z" fill="#FC1264"/>
<path d="M20.805 14.5863C20.5166 14.5863 20.2394 14.4261 20.1036 14.15C19.913 13.7628 20.0723 13.2946 20.4592 13.1041L24.2728 11.2264C24.6603 11.0352 25.1284 11.1953 25.3187 11.5821C25.5094 11.9692 25.35 12.4375 24.9631 12.628L21.1495 14.5056C21.0384 14.5605 20.9209 14.5863 20.805 14.5863Z" fill="#FC1264"/>
<path d="M19.4331 16.7903C18.1594 16.7903 17.123 15.7541 17.123 14.4803C17.123 13.2066 18.1594 12.1702 19.4331 12.1702C20.7069 12.1702 21.7431 13.2066 21.7431 14.4803C21.7431 15.7541 20.7069 16.7903 19.4331 16.7903ZM19.4331 13.7325C19.0208 13.7325 18.6855 14.0678 18.6855 14.4802C18.6855 14.8924 19.0208 15.2277 19.4331 15.2277C19.8453 15.2277 20.1806 14.8924 20.1806 14.4802C20.1806 14.068 19.8453 13.7325 19.4331 13.7325Z" fill="#FC1264"/>
<path d="M26.0256 13.5447C24.7519 13.5447 23.7156 12.5083 23.7156 11.2345C23.7156 9.9608 24.7519 8.92455 26.0256 8.92455C27.2994 8.92455 28.3358 9.9608 28.3358 11.2345C28.3358 12.5083 27.2995 13.5447 26.0256 13.5447ZM26.0256 10.487C25.6134 10.487 25.2781 10.8224 25.2781 11.2345C25.2781 11.6469 25.6134 11.9822 26.0256 11.9822C26.438 11.9822 26.7733 11.6469 26.7733 11.2345C26.7734 10.8224 26.438 10.487 26.0256 10.487Z" fill="#FC1264"/>
<path d="M26.0256 20.0359C24.7519 20.0359 23.7156 18.9995 23.7156 17.7258C23.7156 16.452 24.7519 15.4156 26.0256 15.4156C27.2994 15.4156 28.3358 16.452 28.3358 17.7258C28.3358 18.9995 27.2995 20.0359 26.0256 20.0359ZM26.0256 16.9781C25.6134 16.9781 25.2781 17.3134 25.2781 17.7258C25.2781 18.1381 25.6134 18.4734 26.0256 18.4734C26.438 18.4734 26.7733 18.1381 26.7733 17.7258C26.7733 17.3134 26.438 16.9781 26.0256 16.9781Z" fill="#FC1264"/>
<path d="M62.7161 43.3492H54.0856C53.6542 43.3492 53.3044 42.9994 53.3044 42.568V30.8797C53.3044 30.4483 53.6542 30.0984 54.0856 30.0984H62.7161C63.1475 30.0984 63.4973 30.4483 63.4973 30.8797V42.568C63.4973 42.9994 63.1475 43.3492 62.7161 43.3492Z" fill="white" fill-opacity="0.9"/>
<path d="M69.1248 55.4577H64.4564V54.2352C64.4564 53.3736 63.7555 52.6727 62.8939 52.6727H62.6853V49.735C62.6853 48.4427 61.6339 47.3913 60.3416 47.3913H44.9172V47.183C44.9172 46.3214 44.2162 45.6205 43.3547 45.6205H42.5523V44.5163C42.5523 43.6547 41.8514 42.9538 40.9898 42.9538H40.7812V40.3891H48.2727C48.7042 40.3891 49.0539 40.0394 49.0539 39.6078C49.0539 39.1763 48.7042 38.8266 48.2727 38.8266H29.8278C30.2802 38.2039 30.5478 37.4391 30.5478 36.6123V21.3673C32.1937 19.5869 33.2105 17.2183 33.2448 14.6161H37.2597C37.3628 14.6161 37.4597 14.6711 37.5125 14.7594L39.302 17.7522C39.443 17.9881 39.6977 18.1325 39.9725 18.1325H55.1489C55.3112 18.1325 55.4434 18.2645 55.4434 18.4269V25.133C55.4434 25.5645 55.7931 25.9142 56.2247 25.9142C56.6562 25.9142 57.0059 25.5645 57.0059 25.133V18.4269C57.0059 17.6572 56.5351 16.9958 55.8666 16.7145V15.5559C55.8666 14.532 55.0336 13.6991 54.0097 13.6991H38.662C38.3127 13.2964 37.8009 13.0536 37.2597 13.0536H33.1461C32.4502 8.12688 28.2078 4.32407 23.092 4.32407C17.4919 4.32407 12.9358 8.88016 12.9358 14.4803C12.9358 20.0477 17.4391 24.5811 22.9941 24.6341V36.6123C22.9941 38.6948 24.6884 40.3891 26.7709 40.3891H39.2187V42.9538H39.0102C38.1486 42.9538 37.4477 43.6547 37.4477 44.5163V45.6205H36.6453C35.7837 45.6205 35.0828 46.3214 35.0828 47.183V47.3913H19.6583C18.3659 47.3913 17.3145 48.4427 17.3145 49.735V52.6727H17.1059C16.2444 52.6727 15.5434 53.3736 15.5434 54.2352V55.4577H10.8752C9.75515 55.4577 8.8439 56.3689 8.8439 57.4889V66.8262C8.8439 67.9463 9.75515 68.8575 10.8752 68.8575H13.8114V70.3636H13.0998C12.6683 70.3636 12.3186 70.7133 12.3186 71.1448C12.3186 71.5764 12.6683 71.9261 13.0998 71.9261H23.092C23.5236 71.9261 23.8733 71.5764 23.8733 71.1448C23.8733 70.7133 23.5236 70.3636 23.092 70.3636H22.3803V68.8575H25.3167C26.4367 68.8575 27.348 67.9463 27.348 66.8262V57.4889C27.348 56.3689 26.4367 55.4577 25.3167 55.4577H20.6483V54.2352C20.6483 53.3736 19.9473 52.6727 19.0858 52.6727H18.877V49.735C18.877 49.3042 19.2275 48.9538 19.6583 48.9538H35.0828V49.1628C35.0828 50.0244 35.7837 50.7253 36.6453 50.7253H39.2187V52.6727H39.0102C38.1486 52.6727 37.4477 53.3736 37.4477 54.2352V55.4577H32.7791C31.6591 55.4577 30.7478 56.3689 30.7478 57.4889V66.8262C30.7478 67.9463 31.6591 68.8575 32.7791 68.8575H35.7155V70.3636H35.0037C34.5722 70.3636 34.2225 70.7133 34.2225 71.1448C34.2225 71.5764 34.5722 71.9261 35.0037 71.9261H44.9961C45.4277 71.9261 45.7773 71.5764 45.7773 71.1448C45.7773 70.7133 45.4277 70.3636 44.9961 70.3636H44.2844V68.8575H47.2208C48.3408 68.8575 49.252 67.9463 49.252 66.8262V57.4889C49.252 56.3689 48.3408 55.4577 47.2208 55.4577H42.5522V54.2352C42.5522 53.3736 41.8512 52.6727 40.9897 52.6727H40.7812V50.7253H43.3547C44.2162 50.7253 44.9172 50.0244 44.9172 49.1628V48.9538H60.3417C60.7725 48.9538 61.123 49.3042 61.123 49.735V52.6727H60.9142C60.0527 52.6727 59.3517 53.3736 59.3517 54.2352V55.4577H54.6833C53.5633 55.4577 52.652 56.3689 52.652 57.4889V66.8262C52.652 67.9463 53.5633 68.8575 54.6833 68.8575H57.6197V70.3636H56.908C56.4764 70.3636 56.1267 70.7133 56.1267 71.1448C56.1267 71.5764 56.4764 71.9261 56.908 71.9261H66.9002C67.3317 71.9261 67.6814 71.5764 67.6814 71.1448C67.6814 70.7133 67.3317 70.3636 66.9002 70.3636H66.1886V68.8575H69.1248C70.2448 68.8575 71.1561 67.9463 71.1561 66.8262V57.4889C71.1561 56.3691 70.2448 55.4577 69.1248 55.4577ZM54.3041 15.5558V16.5698H40.4156L39.6333 15.2614H54.0097C54.172 15.2616 54.3041 15.3934 54.3041 15.5558ZM14.4983 14.4803C14.4983 9.74172 18.3534 5.88657 23.092 5.88657C27.8306 5.88657 31.6858 9.74172 31.6858 14.4803C31.6858 19.2189 27.8306 23.0741 23.092 23.0741C18.3534 23.0741 14.4983 19.2189 14.4983 14.4803ZM24.5566 36.6123V24.5294C26.1906 24.2923 27.6987 23.6639 28.9853 22.7439V36.6123C28.9853 37.8331 27.992 38.8266 26.7709 38.8266C25.5498 38.8266 24.5566 37.8333 24.5566 36.6123ZM20.8178 70.3636H15.3739V68.8575H20.818V70.3636H20.8178ZM25.7855 57.4889V66.8262C25.7855 67.0847 25.5752 67.295 25.3167 67.295H10.8752C10.6167 67.295 10.4064 67.0847 10.4064 66.8262V57.4889C10.4064 57.2305 10.6167 57.0202 10.8752 57.0202H25.3169C25.5753 57.0202 25.7855 57.2305 25.7855 57.4889ZM19.0858 55.4577H17.1059V54.2352H19.0858V55.4577ZM42.722 70.3636H37.278V68.8575H42.722V70.3636ZM47.6897 57.4889V66.8262C47.6897 67.0847 47.4794 67.295 47.2209 67.295H32.7791C32.5206 67.295 32.3103 67.0847 32.3103 66.8262V57.4889C32.3103 57.2305 32.5206 57.0202 32.7791 57.0202H47.2209C47.4794 57.0202 47.6897 57.2305 47.6897 57.4889ZM40.9898 55.4577H39.0102V54.2352H40.9898V55.4577ZM43.3547 49.1628H36.6453V47.183H38.2289C38.6605 47.183 39.0102 46.8333 39.0102 46.4017V44.5163H40.9898V46.4017C40.9898 46.8333 41.3395 47.183 41.7711 47.183H43.3547V49.1628ZM60.9142 54.2352H62.8941V55.4577H60.9142V54.2352ZM64.6261 70.3636H59.182V68.8575H64.6261V70.3636ZM69.5936 66.8262C69.5936 67.0847 69.3833 67.295 69.1248 67.295H54.6831C54.4247 67.295 54.2144 67.0847 54.2144 66.8262V57.4889C54.2144 57.2305 54.4247 57.0202 54.6831 57.0202H69.1248C69.3833 57.0202 69.5936 57.2305 69.5936 57.4889V66.8262Z" fill="#342A98"/>
<path d="M52.5231 30.8797V42.568C52.5231 43.4295 53.2241 44.1305 54.0856 44.1305H62.7159C63.5775 44.1305 64.2784 43.4295 64.2784 42.568V30.8797C64.2784 30.0181 63.5775 29.3172 62.7159 29.3172H54.0856C53.2242 29.3172 52.5231 30.0181 52.5231 30.8797ZM62.7172 42.5678H54.0858V30.8797H62.7161L62.7172 42.5678Z" fill="#342A98"/>
<path d="M57.1676 34.4222C56.7361 34.4222 56.3864 34.0725 56.3864 33.6409V33.623C56.3864 33.1914 56.7361 32.8417 57.1676 32.8417C57.5992 32.8417 57.9489 33.1914 57.9489 33.623V33.6409C57.9489 34.0723 57.5992 34.4222 57.1676 34.4222Z" fill="#342A98"/>
<path d="M59.6341 34.4222C59.2025 34.4222 58.8528 34.0725 58.8528 33.6409V33.623C58.8528 33.1914 59.2025 32.8417 59.6341 32.8417C60.0656 32.8417 60.4153 33.1914 60.4153 33.623V33.6409C60.4153 34.0723 60.0656 34.4222 59.6341 34.4222Z" fill="#342A98"/>
<path d="M60.688 37.9697H56.1137C55.6822 37.9697 55.3325 37.62 55.3325 37.1884C55.3325 36.7569 55.6822 36.4072 56.1137 36.4072H60.688C61.1195 36.4072 61.4692 36.7569 61.4692 37.1884C61.4692 37.62 61.1195 37.9697 60.688 37.9697Z" fill="#EBE8FF"/>
<path d="M60.688 40.6059H56.1137C55.6822 40.6059 55.3325 40.2563 55.3325 39.8247C55.3325 39.3931 55.6822 39.0434 56.1137 39.0434H60.688C61.1195 39.0434 61.4692 39.3931 61.4692 39.8247C61.4692 40.2563 61.1195 40.6059 60.688 40.6059Z" fill="#EBE8FF"/>
<path d="M69.1389 51.6516C68.7073 51.6516 68.3577 51.3019 68.3577 50.8703C68.3577 50.3966 67.972 50.0109 67.4981 50.0109C67.0666 50.0109 66.7169 49.6613 66.7169 49.2297C66.7169 48.7981 67.0666 48.4484 67.4981 48.4484C67.972 48.4484 68.3577 48.0628 68.3577 47.5891C68.3577 47.1575 68.7073 46.8078 69.1389 46.8078C69.5705 46.8078 69.9202 47.1575 69.9202 47.5891C69.9202 48.0628 70.3056 48.4484 70.7794 48.4484C71.2109 48.4484 71.5606 48.7981 71.5606 49.2297C71.5606 49.6613 71.2109 50.0109 70.7794 50.0109C70.3056 50.0109 69.9202 50.3966 69.9202 50.8703C69.9202 51.3019 69.5705 51.6516 69.1389 51.6516Z" fill="#FC1264"/>
<path d="M13.1127 30.0017C12.6811 30.0017 12.3314 29.652 12.3314 29.2205C12.3314 28.7467 11.9458 28.3611 11.472 28.3611C11.0405 28.3611 10.6908 28.0114 10.6908 27.5798C10.6908 27.1483 11.0405 26.7986 11.472 26.7986C11.9458 26.7986 12.3314 26.413 12.3314 25.9392C12.3314 25.5077 12.6811 25.158 13.1127 25.158C13.5442 25.158 13.8939 25.5077 13.8939 25.9392C13.8939 26.413 14.2795 26.7986 14.7533 26.7986C15.1848 26.7986 15.5345 27.1483 15.5345 27.5798C15.5345 28.0114 15.1848 28.3611 14.7533 28.3611C14.2795 28.3611 13.8939 28.7467 13.8939 29.2205C13.8939 29.6519 13.5442 30.0017 13.1127 30.0017Z" fill="#FC1264"/>
<path d="M61.9042 12.6195C61.4727 12.6195 61.123 12.2698 61.123 11.8383C61.123 11.3645 60.7373 10.9789 60.2636 10.9789C59.832 10.9789 59.4823 10.6292 59.4823 10.1977C59.4823 9.7661 59.832 9.41641 60.2636 9.41641C60.7373 9.41641 61.123 9.03079 61.123 8.55704C61.123 8.12547 61.4727 7.77579 61.9042 7.77579C62.3358 7.77579 62.6855 8.12547 62.6855 8.55704C62.6855 9.03079 63.0711 9.41641 63.5448 9.41641C63.9764 9.41641 64.3261 9.7661 64.3261 10.1977C64.3261 10.6292 63.9764 10.9789 63.5448 10.9789C63.0711 10.9789 62.6855 11.3645 62.6855 11.8383C62.6855 12.2698 62.3356 12.6195 61.9042 12.6195Z" fill="#FC1264"/>
<path d="M69.9981 41.9331C69.7983 41.9331 69.5981 41.8569 69.4458 41.7042C69.1406 41.3992 69.1406 40.9045 69.4458 40.5995L71.0083 39.037C71.3131 38.7319 71.8081 38.7319 72.113 39.037C72.4181 39.342 72.4181 39.8367 72.113 40.1417L70.5505 41.7042C70.3981 41.8569 70.1981 41.9331 69.9981 41.9331Z" fill="#FC1264"/>
<path d="M10.6908 48.0962C10.4909 48.0962 10.2908 48.02 10.1384 47.8673C9.83328 47.5623 9.83328 47.0677 10.1384 46.7627L11.7009 45.2002C12.0058 44.895 12.5008 44.895 12.8056 45.2002C13.1108 45.5052 13.1108 45.9998 12.8056 46.3048L11.2431 47.8673C11.0906 48.02 10.8906 48.0962 10.6908 48.0962Z" fill="white" fill-opacity="0.9"/>
</g>
<defs>
<linearGradient id="paint0_linear_17_4868" x1="-1.03864" y1="23.7867" x2="86.6851" y2="46.7926" gradientUnits="userSpaceOnUse">
<stop stop-color="#F9F8FF" stop-opacity="0.55"/>
<stop offset="1" stop-color="#D6CDF7" stop-opacity="0.8"/>
</linearGradient>
<clipPath id="clip0_17_4868">
<rect width="80" height="80" fill="white"/>
</clipPath>
</defs>
</svg>
