<svg width="81" height="80" viewBox="0 0 81 80" fill="none" xmlns="http://www.w3.org/2000/svg">
<g clip-path="url(#clip0_17_4854)">
<path d="M10.1136 7.53765C-3.62937 15.8109 -4.17265 62.2076 18.602 43.1909C29.5563 34.0441 31.0881 46.8667 38.3131 40.2697C40.3756 38.3864 42.0838 34.1953 45.0105 35.0666C56.6419 38.5294 38.5923 50.9378 34.9611 56.933C29.0219 66.7383 39.1117 77.392 50.0023 75.6703C56.4819 74.6459 58.9175 67.8089 68.2861 69.4755C74.8217 70.6381 82.108 65.5467 80.187 59.3576C77.3606 50.2512 66.7572 43.4025 67.7728 33.1309C68.5898 24.868 63.1856 12.4067 56.7866 11.3473C46.6288 9.66562 35.3486 30.4761 29.5631 14.7098C27.3667 8.72452 20.5188 14.9187 18.2369 11.9208C15.9009 8.85124 14.0253 5.1828 10.1136 7.53765Z" fill="url(#paint0_linear_17_4854)"/>
<path opacity="0.1" d="M68.4428 14.075H15.1834C13.4584 14.075 12.0584 15.4734 12.0584 17.2V50.4433C9.10984 52.7216 7.20906 56.2902 7.20906 60.3047C7.20906 67.185 12.7867 72.7627 19.667 72.7627C23.3816 72.7627 26.7144 71.135 28.9969 68.5563H68.4428C70.1678 68.5563 71.5678 67.1578 71.5678 65.4313V17.2C71.5678 15.4734 70.1678 14.075 68.4428 14.075Z" fill="#342A98"/>
<path d="M71.5678 13.45V61.6812C71.5678 63.4078 70.1678 64.8062 68.4428 64.8062H15.1834C13.4584 64.8062 12.0584 63.4078 12.0584 61.6812V13.45C12.0584 11.7234 13.4584 10.325 15.1834 10.325H68.4428C70.1678 10.325 71.5678 11.7234 71.5678 13.45Z" fill="#EBE8FF"/>
<path d="M66.2892 60.4276H17.6494C17.218 60.4276 16.8681 60.0778 16.8681 59.6464V23.1129C16.8681 22.6815 17.218 22.3317 17.6494 22.3317H66.2892C66.7206 22.3317 67.0705 22.6815 67.0705 23.1129V59.6464C67.0705 60.0779 66.7208 60.4276 66.2892 60.4276Z" fill="white" fill-opacity="0.9"/>
<path d="M71.5676 18.5923V13.4498C71.5676 11.7239 70.1686 10.3248 68.4426 10.3248H15.1836C13.4576 10.3248 12.0586 11.7239 12.0586 13.4498V18.5923H71.5676Z" fill="white" fill-opacity="0.9"/>
<path d="M17.6494 15.6195C18.0809 15.6195 18.4306 15.2697 18.4306 14.8383C18.4306 14.4068 18.0809 14.057 17.6494 14.057C17.2179 14.057 16.8681 14.4068 16.8681 14.8383C16.8681 15.2697 17.2179 15.6195 17.6494 15.6195Z" fill="#FC1264"/>
<path d="M20.292 15.6195C20.7235 15.6195 21.0733 15.2697 21.0733 14.8383C21.0733 14.4068 20.7235 14.057 20.292 14.057C19.8606 14.057 19.5108 14.4068 19.5108 14.8383C19.5108 15.2697 19.8606 15.6195 20.292 15.6195Z" fill="#342A98"/>
<path d="M22.9347 15.6195C23.3662 15.6195 23.7159 15.2697 23.7159 14.8383C23.7159 14.4068 23.3662 14.057 22.9347 14.057C22.5032 14.057 22.1534 14.4068 22.1534 14.8383C22.1534 15.2697 22.5032 15.6195 22.9347 15.6195Z" fill="#342A98"/>
<path d="M65.9767 15.6195H27.3841C26.9527 15.6195 26.6028 15.2697 26.6028 14.8383C26.6028 14.4069 26.9527 14.057 27.3841 14.057H65.9767C66.4081 14.057 66.758 14.4069 66.758 14.8383C66.758 15.2697 66.4083 15.6195 65.9767 15.6195Z" fill="#342A98"/>
<path d="M55.5213 39.093H40.5122C39.9003 39.093 39.4044 38.597 39.4044 37.9851V34.223C39.4044 33.6111 39.9003 33.1151 40.5122 33.1151H55.5213C56.1331 33.1151 56.6291 33.6111 56.6291 34.223V37.9851C56.6291 38.597 56.1331 39.093 55.5213 39.093Z" fill="#EBE8FF"/>
<path d="M42.646 37.0272C43.1558 37.0272 43.5691 36.6139 43.5691 36.1041C43.5691 35.5942 43.1558 35.1809 42.646 35.1809C42.1361 35.1809 41.7228 35.5942 41.7228 36.1041C41.7228 36.6139 42.1361 37.0272 42.646 37.0272Z" fill="#FC1264"/>
<path d="M46.1703 37.0272C46.6801 37.0272 47.0934 36.6139 47.0934 36.1041C47.0934 35.5942 46.6801 35.1809 46.1703 35.1809C45.6605 35.1809 45.2472 35.5942 45.2472 36.1041C45.2472 36.6139 45.6605 37.0272 46.1703 37.0272Z" fill="#342A98"/>
<path d="M49.6945 37.0272C50.2044 37.0272 50.6177 36.6139 50.6177 36.1041C50.6177 35.5942 50.2044 35.1809 49.6945 35.1809C49.1847 35.1809 48.7714 35.5942 48.7714 36.1041C48.7714 36.6139 49.1847 37.0272 49.6945 37.0272Z" fill="#342A98"/>
<path d="M53.2188 37.0272C53.7286 37.0272 54.1419 36.6139 54.1419 36.1041C54.1419 35.5942 53.7286 35.1809 53.2188 35.1809C52.7089 35.1809 52.2956 35.5942 52.2956 36.1041C52.2956 36.6139 52.7089 37.0272 53.2188 37.0272Z" fill="#342A98"/>
<path d="M55.5213 47.4836H40.5122C39.9003 47.4836 39.4044 46.9876 39.4044 46.3758V42.6136C39.4044 42.0017 39.9003 41.5058 40.5122 41.5058H55.5213C56.1331 41.5058 56.6291 42.0017 56.6291 42.6136V46.3758C56.6291 46.9876 56.1331 47.4836 55.5213 47.4836Z" fill="#EBE8FF"/>
<path d="M42.646 45.4178C43.1558 45.4178 43.5691 45.0045 43.5691 44.4947C43.5691 43.9849 43.1558 43.5716 42.646 43.5716C42.1361 43.5716 41.7228 43.9849 41.7228 44.4947C41.7228 45.0045 42.1361 45.4178 42.646 45.4178Z" fill="#FC1264"/>
<path d="M46.1703 45.4178C46.6801 45.4178 47.0934 45.0045 47.0934 44.4947C47.0934 43.9849 46.6801 43.5716 46.1703 43.5716C45.6605 43.5716 45.2472 43.9849 45.2472 44.4947C45.2472 45.0045 45.6605 45.4178 46.1703 45.4178Z" fill="#342A98"/>
<path d="M49.6945 45.4178C50.2044 45.4178 50.6177 45.0045 50.6177 44.4947C50.6177 43.9849 50.2044 43.5716 49.6945 43.5716C49.1847 43.5716 48.7714 43.9849 48.7714 44.4947C48.7714 45.0045 49.1847 45.4178 49.6945 45.4178Z" fill="#342A98"/>
<path d="M53.2188 45.4178C53.7286 45.4178 54.1419 45.0045 54.1419 44.4947C54.1419 43.9849 53.7286 43.5716 53.2188 43.5716C52.7089 43.5716 52.2956 43.9849 52.2956 44.4947C52.2956 45.0045 52.7089 45.4178 53.2188 45.4178Z" fill="#342A98"/>
<path d="M34.0855 40.5817C33.6024 40.5817 33.2106 40.19 33.2106 39.7069V36.2927C33.2106 35.322 32.4209 34.5323 31.4503 34.5323C30.4797 34.5323 29.69 35.322 29.69 36.2927V36.9072C29.69 37.3903 29.2983 37.782 28.8152 37.782C28.332 37.782 27.9403 37.3903 27.9403 36.9072V36.2927C27.9403 34.3572 29.515 32.7827 31.4505 32.7827C33.3859 32.7827 34.9605 34.3573 34.9605 36.2927V39.7069C34.9603 40.19 34.5686 40.5817 34.0855 40.5817Z" fill="#FC1264"/>
<path d="M34.1536 47.8161H28.7469C27.7805 47.8161 26.997 47.0326 26.997 46.0662V41.4394C26.997 40.473 27.7805 39.6895 28.7469 39.6895H34.1536C35.12 39.6895 35.9034 40.473 35.9034 41.4394V46.0662C35.9033 47.0328 35.12 47.8161 34.1536 47.8161Z" fill="#FC1264"/>
<path d="M31.4502 45.7541C30.9053 45.7541 30.4638 45.3123 30.4638 44.7677V43.8094C30.4638 43.2645 30.9055 42.823 31.4502 42.823C31.995 42.823 32.4366 43.2647 32.4366 43.8094V44.7677C32.4367 45.3123 31.995 45.7541 31.4502 45.7541Z" fill="white" fill-opacity="0.9"/>
<path d="M19.667 69.0126C26.5474 69.0126 32.125 63.435 32.125 56.5547C32.125 49.6743 26.5474 44.0967 19.667 44.0967C12.7867 44.0967 7.20906 49.6743 7.20906 56.5547C7.20906 63.435 12.7867 69.0126 19.667 69.0126Z" fill="white" fill-opacity="0.9"/>
<path d="M19.667 66.625C25.2287 66.625 29.7374 62.1164 29.7374 56.5547C29.7374 50.993 25.2287 46.4844 19.667 46.4844C14.1054 46.4844 9.59673 50.993 9.59673 56.5547C9.59673 62.1164 14.1054 66.625 19.667 66.625Z" fill="white" fill-opacity="0.9"/>
<path d="M27.1676 66.004V65.0222C27.1676 62.3799 25.0255 60.2377 22.3817 60.2378H21.9679C21.67 60.2378 21.4286 59.9964 21.4286 59.6985C21.4286 59.4752 21.5674 59.2775 21.7694 59.1823C23.4779 58.377 24.6912 56.6304 24.6912 54.6211V53.3013C24.6912 50.5264 22.4419 48.277 19.667 48.277C16.8922 48.277 14.6428 50.5264 14.6428 53.3013V54.6211C14.6428 56.6341 15.8511 58.38 17.5635 59.1829C17.7659 59.2777 17.9051 59.4755 17.9051 59.699C17.9051 59.9966 17.6639 60.2378 17.3664 60.2378H16.952C14.3098 60.2378 12.1676 62.38 12.1676 65.0222V66.0055C12.1676 66.3191 12.3133 66.6167 12.5709 66.7955C14.5843 68.1933 17.0307 69.0128 19.6676 69.0128C22.3047 69.0128 24.7499 68.1932 26.7645 66.794C27.022 66.6151 27.1676 66.3176 27.1676 66.004Z" stroke="#342A98" stroke-width="1.5"/>
<path d="M16.5708 64.7331V67.5442C16.5708 68.092 16.0505 68.4925 15.5339 68.3103C15.2118 68.1968 15.0083 67.8878 15.0083 67.5463V64.7331C15.0083 64.3019 15.3583 63.9519 15.7895 63.9519C16.0052 63.9519 16.2005 64.0394 16.3411 64.18C16.4833 64.3222 16.5708 64.5175 16.5708 64.7331Z" fill="#EBE8FF"/>
<path d="M24.3255 64.7331V67.547C24.3255 67.8889 24.1215 68.1979 23.7989 68.3111C23.2827 68.4924 22.763 68.0927 22.763 67.5456V64.7331C22.763 64.3019 23.113 63.9519 23.5442 63.9519C23.7598 63.9519 23.9567 64.0394 24.0973 64.18C24.238 64.3222 24.3255 64.5175 24.3255 64.7331Z" fill="#EBE8FF"/>
<path d="M71.5672 33.4867C71.1358 33.4867 70.7859 33.8364 70.7859 34.268V61.6819C70.7859 62.9742 69.7345 64.0256 68.4422 64.0256H30.5895C32.0497 61.8977 32.9063 59.3247 32.9063 56.5547C32.9063 49.2545 26.9672 43.3155 19.667 43.3155C17.1708 43.3155 14.8341 44.0106 12.8391 45.2166V13.4492C12.8391 12.1569 13.8905 11.1055 15.1828 11.1055H30.3172C30.7486 11.1055 31.0984 10.7558 31.0984 10.3242C31.0984 9.89266 30.7486 9.54297 30.3172 9.54297H15.1828C13.0289 9.54297 11.2766 11.2953 11.2766 13.4492V46.3219C8.31828 48.7519 6.42766 52.4364 6.42766 56.5547C6.42766 63.8548 12.3667 69.7939 19.6669 69.7939C23.4775 69.7939 26.915 68.1734 29.3327 65.5881H68.442C70.5959 65.5881 72.3483 63.8358 72.3483 61.6819V34.268C72.3484 33.8364 71.9986 33.4867 71.5672 33.4867ZM19.667 68.2314C13.2284 68.2314 7.99031 62.9933 7.99031 56.5547C7.99031 50.1161 13.2284 44.878 19.667 44.878C26.1056 44.878 31.3438 50.1161 31.3438 56.5547C31.3438 62.9933 26.1056 68.2314 19.667 68.2314Z" fill="#342A98"/>
<path d="M68.4427 9.54358H34.9094C34.478 9.54358 34.1281 9.89327 34.1281 10.3248C34.1281 10.7564 34.478 11.1061 34.9094 11.1061H68.4427C69.735 11.1061 70.7864 12.1575 70.7864 13.4498V29.6751C70.7864 30.1067 71.1363 30.4564 71.5677 30.4564C71.9991 30.4564 72.3489 30.1067 72.3489 29.6751V13.4498C72.3489 11.2959 70.5966 9.54358 68.4427 9.54358Z" fill="#342A98"/>
<path d="M34.3461 73.4386C34.2742 73.4386 34.2023 73.4287 34.1325 73.4089C32.0841 72.8265 31.9306 69.8875 31.925 69.7626C31.9092 69.4078 32.135 69.0869 32.4744 68.9817L34.115 68.4736C34.2655 68.4269 34.4267 68.4269 34.5772 68.4736L36.2178 68.9817C36.5572 69.0869 36.783 69.4078 36.7672 69.7626C36.7616 69.8875 36.6081 72.8265 34.5597 73.4089C34.4898 73.4287 34.418 73.4386 34.3461 73.4386ZM33.5636 70.28C33.6725 70.8298 33.9063 71.527 34.3459 71.8086C34.7853 71.5272 35.0194 70.8303 35.1283 70.28L34.3459 70.0376L33.5636 70.28Z" fill="#FC1264"/>
<path d="M76.3366 52.8466C76.2647 52.8466 76.1928 52.8367 76.123 52.8169C74.0744 52.2345 73.9209 49.2955 73.9155 49.1706C73.8997 48.8158 74.1255 48.4948 74.4648 48.3897L76.1055 47.8816C76.2559 47.8348 76.4172 47.8348 76.5677 47.8816L78.2083 48.3897C78.5477 48.4948 78.7734 48.8158 78.7577 49.1706C78.752 49.2955 78.5986 52.2345 76.5502 52.8169C76.4803 52.8367 76.4084 52.8466 76.3366 52.8466ZM75.5542 49.688C75.663 50.2378 75.8969 50.935 76.3366 51.2166C76.7759 50.9352 77.01 50.2383 77.1189 49.688L76.3366 49.4456L75.5542 49.688Z" fill="#FC1264"/>
<path d="M29.6677 74.8448C29.4677 74.8448 29.2678 74.7686 29.1152 74.6159L28.2614 73.7622L27.4077 74.6159C27.1025 74.9211 26.608 74.9211 26.3028 74.6159C25.9977 74.3109 25.9977 73.8162 26.3028 73.5112L27.7091 72.105C28.0142 71.7998 28.5087 71.7998 28.8139 72.105L30.2202 73.5112C30.5253 73.8162 30.5253 74.3109 30.2202 74.6159C30.0675 74.7686 29.8677 74.8448 29.6677 74.8448Z" fill="#FC1264"/>
<path d="M20.917 7.11422C20.717 7.11422 20.5172 7.03797 20.3645 6.88531L19.5108 6.03156L18.657 6.88531C18.3519 7.19047 17.8573 7.19047 17.5522 6.88531C17.247 6.58031 17.247 6.08562 17.5522 5.78062L18.9584 4.37437C19.2636 4.06922 19.7581 4.06922 20.0633 4.37437L21.4695 5.78062C21.7747 6.08562 21.7747 6.58031 21.4695 6.88531C21.3169 7.03781 21.117 7.11422 20.917 7.11422Z" fill="#FC1264"/>
<path d="M8.14657 43.3697C7.94657 43.3697 7.74672 43.2934 7.59407 43.1408L6.74032 42.287L5.88657 43.1408C5.58141 43.4459 5.08688 43.4459 4.78172 43.1408C4.47657 42.8358 4.47657 42.3411 4.78172 42.0361L6.18797 40.6298C6.49313 40.3247 6.98766 40.3247 7.29282 40.6298L8.69907 42.0361C9.00422 42.3411 9.00422 42.8358 8.69907 43.1408C8.54641 43.2933 8.34641 43.3697 8.14657 43.3697Z" fill="white" fill-opacity="0.9"/>
</g>
<defs>
<linearGradient id="paint0_linear_17_4854" x1="-0.538666" y1="24.7703" x2="87.4669" y2="47.2686" gradientUnits="userSpaceOnUse">
<stop stop-color="#F9F8FF" stop-opacity="0.55"/>
<stop offset="1" stop-color="#D6CDF7" stop-opacity="0.8"/>
</linearGradient>
<clipPath id="clip0_17_4854">
<rect width="80" height="80" fill="white" transform="translate(0.5)"/>
</clipPath>
</defs>
</svg>
