<svg width="80" height="80" viewBox="0 0 80 80" fill="none" xmlns="http://www.w3.org/2000/svg">
<path d="M79.004 45.9912C77.1562 40.5834 73.045 36.5912 68.0896 34.7097C65.5225 33.7348 63.8168 31.2947 63.7792 28.5489C63.7784 28.4889 63.7773 28.4287 63.7759 28.3686C63.5404 18.2776 55.1059 10.192 45.0139 10.3653C39.0617 10.4675 33.797 13.3895 30.4975 17.8528C27.6561 21.6964 23.2334 24.0973 18.4537 24.0948C18.3134 24.0948 18.1729 24.0962 18.0318 24.0993C8.35731 24.3109 0.130745 32.6115 0.00168214 42.2875C-0.135818 52.5892 8.17387 60.9834 18.4442 60.9834C26.4046 60.9834 33.1862 55.9401 35.7701 48.8745C36.4462 47.0257 38.4501 46.0348 40.3456 46.5664C40.3692 46.5729 40.3929 46.5797 40.4167 46.5862C42.1509 47.065 43.3007 48.7175 43.1589 50.5111C42.9687 52.9147 43.2497 55.3947 44.0648 57.8229C47.2712 67.3753 57.6879 72.6175 67.2668 69.4917C77.0654 66.294 82.3261 55.7128 79.004 45.9912Z" fill="url(#paint0_linear_17_4851)"/>
<path opacity="0.1" d="M72.0312 22.5778C72.0312 15.7078 66.462 10.1384 59.5919 10.1384C54.3527 10.1384 49.8733 13.379 48.0402 17.9637H10.6159C9.15391 17.9637 7.96875 19.1489 7.96875 20.6107V55.1179C7.96875 56.58 9.15391 57.7651 10.6159 57.7651H58.8108C60.2728 57.7651 61.458 56.58 61.458 55.1179V34.8773C67.4427 33.977 72.0312 28.8136 72.0312 22.5778Z" fill="#342A98"/>
<path d="M42.654 71.2271H26.7725L28.8423 63.0214L29.9484 58.6383H39.4781L40.5842 63.0214L42.654 71.2271Z" fill="#EBE8FF"/>
<path d="M42.6545 72.0075H26.772C26.5311 72.0075 26.3037 71.8964 26.1558 71.7064C26.0078 71.5164 25.9556 71.2687 26.0147 71.0351L28.5142 61.1294C28.6197 60.7109 29.0443 60.4578 29.4628 60.5629C29.8811 60.6686 30.1347 61.0933 30.029 61.5115L27.7748 70.445H41.6518L39.3773 61.4309C39.2717 61.0126 39.5253 60.5878 39.9436 60.4823C40.3622 60.3772 40.7867 60.6303 40.8922 61.0487L43.412 71.0353C43.4711 71.2689 43.4189 71.5165 43.2709 71.7065C43.1229 71.8965 42.8954 72.0075 42.6545 72.0075Z" fill="#342A98"/>
<path d="M58.8108 61.0464H10.6159C9.15391 61.0464 7.96875 59.8612 7.96875 58.3993V23.8921C7.96875 22.4301 9.15391 21.245 10.6159 21.245H58.8108C60.2728 21.245 61.4578 22.4301 61.4578 23.8921V58.3993C61.4578 59.8612 60.2727 61.0464 58.8108 61.0464Z" fill="#EBE8FF"/>
<path d="M42.052 23.4535H54.8631V53.9902H42.052V23.4535Z" fill="white" fill-opacity="0.9"/>
<path d="M57.0081 53.9906H39.9075V41.3479C39.9075 41.0831 40.1222 40.8684 40.387 40.8684H56.5289C56.7937 40.8684 57.0084 41.0831 57.0084 41.3479V53.9906H57.0081Z" fill="#EBE8FF"/>
<path d="M57.0081 44.7018H39.9075V41.3481C39.9075 41.0832 40.1222 40.8685 40.387 40.8685H56.5289C56.7937 40.8685 57.0084 41.0832 57.0084 41.3481V44.7018H57.0081Z" fill="white" fill-opacity="0.9"/>
<path d="M57.7897 54.7718H39.1262V41.3479C39.1262 40.6528 39.6917 40.0871 40.3868 40.0871H56.5289C57.224 40.0871 57.7897 40.6528 57.7897 41.3479V54.7718ZM40.6887 53.2093H56.2268L56.2272 41.6496H40.6887V53.2093Z" fill="#342A98"/>
<path d="M61.4578 27.9901V23.8921C61.4578 22.4301 60.2727 21.245 58.8108 21.245H10.6159C9.15406 21.245 7.96875 22.4301 7.96875 23.8921V27.9901H61.4578Z" fill="#EBE8FF"/>
<path d="M47.1519 28.7714H7.96875C7.53719 28.7714 7.1875 28.4215 7.1875 27.9901C7.1875 27.5587 7.53719 27.2089 7.96875 27.2089H47.1519C47.5834 27.2089 47.9331 27.5587 47.9331 27.9901C47.9331 28.4215 47.5834 28.7714 47.1519 28.7714Z" fill="#342A98"/>
<path d="M7.96875 53.9906V58.3992C7.96875 59.8613 9.15391 61.0463 10.6159 61.0463H58.8108C60.2727 61.0463 61.4578 59.8611 61.4578 58.3992V53.9906H7.96875Z" fill="#EBE8FF"/>
<path d="M45.3459 72.0075H24.0808C23.6492 72.0075 23.2995 71.6576 23.2995 71.2262C23.2995 70.7948 23.6492 70.445 24.0808 70.445H45.3459C45.7775 70.445 46.1272 70.7948 46.1272 71.2262C46.1272 71.6576 45.7775 72.0075 45.3459 72.0075Z" fill="#342A98"/>
<path d="M13.3011 25.409C12.8695 25.409 12.5198 25.0592 12.5198 24.6278V24.6075C12.5198 24.1761 12.8695 23.8262 13.3011 23.8262C13.7326 23.8262 14.0823 24.1761 14.0823 24.6075V24.6278C14.0823 25.0592 13.7326 25.409 13.3011 25.409Z" fill="#FC1264"/>
<path d="M16.007 25.409C15.5755 25.409 15.2258 25.0592 15.2258 24.6278V24.6075C15.2258 24.1761 15.5755 23.8262 16.007 23.8262C16.4386 23.8262 16.7883 24.1761 16.7883 24.6075V24.6278C16.7883 25.0592 16.4386 25.409 16.007 25.409Z" fill="#342A98"/>
<path d="M18.7131 25.409C18.2816 25.409 17.9319 25.0592 17.9319 24.6278V24.6075C17.9319 24.1761 18.2816 23.8262 18.7131 23.8262C19.1447 23.8262 19.4944 24.1761 19.4944 24.6075V24.6278C19.4944 25.0592 19.1445 25.409 18.7131 25.409Z" fill="#342A98"/>
<path d="M58.8108 61.8276H10.6158C8.72547 61.8276 7.1875 60.2896 7.1875 58.3992V53.9906C7.1875 53.5592 7.53719 53.2093 7.96875 53.2093H60.6766V38.494C60.6766 38.0626 61.0262 37.7128 61.4578 37.7128C61.8894 37.7128 62.2391 38.0626 62.2391 38.494V58.3992C62.2391 60.2896 60.7011 61.8276 58.8108 61.8276ZM8.75 54.7718V58.3992C8.75 59.4281 9.58688 60.2651 10.6158 60.2651H58.8106C59.8395 60.2651 60.6764 59.4281 60.6764 58.3992V54.7718H8.75Z" fill="#342A98"/>
<path d="M7.96875 50.3704C7.53719 50.3704 7.1875 50.0206 7.1875 49.5892V23.8921C7.1875 22.0017 8.72547 20.4639 10.6158 20.4639H43.6594C44.0909 20.4639 44.4406 20.8137 44.4406 21.2451C44.4406 21.6765 44.0909 22.0264 43.6594 22.0264H10.6158C9.58688 22.0264 8.75 22.8634 8.75 23.8921V49.5892C8.75 50.0206 8.40031 50.3704 7.96875 50.3704Z" fill="#342A98"/>
<path d="M59.5918 38.2984C66.4619 38.2984 72.0312 32.7291 72.0312 25.859C72.0312 18.9889 66.4619 13.4196 59.5918 13.4196C52.7218 13.4196 47.1525 18.9889 47.1525 25.859C47.1525 32.7291 52.7218 38.2984 59.5918 38.2984Z" fill="#EBE8FF"/>
<path d="M59.592 39.0795C52.3022 39.0795 46.3714 33.1487 46.3714 25.8589C46.3714 18.569 52.3022 12.6384 59.592 12.6384C66.8819 12.6384 72.8125 18.5692 72.8125 25.8589C72.8125 33.1489 66.8819 39.0795 59.592 39.0795ZM59.592 14.2009C53.1636 14.2009 47.9339 19.4307 47.9339 25.8589C47.9339 32.2871 53.1637 37.517 59.592 37.517C66.0203 37.517 71.25 32.2871 71.25 25.8589C71.25 19.4307 66.0201 14.2009 59.592 14.2009Z" fill="#342A98"/>
<path d="M66.1036 32.3834C69.7049 28.7821 69.7049 22.9431 66.1036 19.3417C62.5022 15.7404 56.6632 15.7403 53.0618 19.3417C49.4605 22.9431 49.4605 28.7821 53.0618 32.3834C56.6632 35.9848 62.5022 35.9848 66.1036 32.3834Z" fill="white" fill-opacity="0.9"/>
<path d="M57.8073 30.0143C57.4893 30.0143 57.1845 29.8881 56.9596 29.6632L54.5092 27.2126C54.041 26.7445 54.041 25.9856 54.5092 25.5175C54.9776 25.0492 55.7364 25.0493 56.2045 25.5175L57.8073 27.1204L62.9796 21.9481C63.4481 21.48 64.2068 21.48 64.675 21.9481C65.1431 22.4162 65.1431 23.1751 64.675 23.6432L58.655 29.6631C58.43 29.8881 58.1251 30.0143 57.8073 30.0143Z" fill="#342A98"/>
<path d="M28.0018 38.494H13.9425C13.5004 38.494 13.142 38.1356 13.142 37.6936C13.142 37.2515 13.5003 36.8931 13.9425 36.8931H28.002C28.444 36.8931 28.8025 37.2515 28.8025 37.6936C28.8023 38.1356 28.444 38.494 28.0018 38.494Z" fill="#342A98"/>
<path d="M35.7965 38.494H31.9564C31.5143 38.494 31.1559 38.1356 31.1559 37.6936C31.1559 37.2515 31.5142 36.8931 31.9564 36.8931H35.7965C36.2385 36.8931 36.597 37.2515 36.597 37.6936C36.597 38.1356 36.2387 38.494 35.7965 38.494Z" fill="#342A98"/>
<path d="M35.7965 41.669H13.9425C13.5004 41.669 13.142 41.3106 13.142 40.8686C13.142 40.4265 13.5003 40.0681 13.9425 40.0681H35.7965C36.2386 40.0681 36.597 40.4265 36.597 40.8686C36.597 41.3106 36.2387 41.669 35.7965 41.669Z" fill="#342A98"/>
<path d="M14.8309 35.1754C14.6237 35.1754 14.4249 35.0931 14.2785 34.9467L13.1882 33.8564C12.8831 33.5512 12.8831 33.0565 13.1882 32.7515C13.4931 32.4465 13.9881 32.4465 14.2929 32.7515L14.8307 33.2893L16.7495 31.3706C17.0543 31.0656 17.5493 31.0656 17.8542 31.3706C18.1593 31.6757 18.1593 32.1704 17.8542 32.4754L15.3831 34.9467C15.2368 35.0931 15.0381 35.1754 14.8309 35.1754Z" fill="#FC1264"/>
<path d="M18.4126 51.2729H13.9423C13.5003 51.2729 13.1418 50.9145 13.1418 50.4725C13.1418 50.0304 13.5001 49.672 13.9423 49.672H18.4126C18.8547 49.672 19.2131 50.0304 19.2131 50.4725C19.2131 50.9145 18.8548 51.2729 18.4126 51.2729Z" fill="#342A98"/>
<path d="M35.7965 51.2729H22.3671C21.9251 51.2729 21.5667 50.9145 21.5667 50.4725C21.5667 50.0304 21.925 49.672 22.3671 49.672H35.7965C36.2386 49.672 36.597 50.0304 36.597 50.4725C36.597 50.9145 36.2387 51.2729 35.7965 51.2729Z" fill="#342A98"/>
<path d="M14.8309 47.9543C14.6237 47.9543 14.425 47.872 14.2784 47.7256L13.1881 46.6353C12.8831 46.3301 12.8831 45.8354 13.1882 45.5304C13.4931 45.2254 13.9879 45.2254 14.2931 45.5304L14.8307 46.0682L16.7495 44.1495C17.0543 43.8445 17.5493 43.8445 17.8542 44.1495C18.1593 44.4546 18.1593 44.9493 17.8542 45.2543L15.3832 47.7256C15.2368 47.872 15.0381 47.9543 14.8309 47.9543Z" fill="#FC1264"/>
<path d="M32.7239 13.7556C32.5167 13.7556 32.3179 13.6733 32.1715 13.5269L30.4498 11.8053C30.3032 11.6587 30.2209 11.4602 30.2209 11.2528C30.2209 11.0455 30.3031 10.8469 30.4498 10.7003L32.1715 8.97875C32.3181 8.83219 32.5167 8.75 32.7239 8.75C32.931 8.75 33.1298 8.83234 33.2762 8.97875L34.9978 10.7003C35.3029 11.0055 35.3029 11.5002 34.9978 11.8052L33.2762 13.5267C33.1296 13.6733 32.931 13.7556 32.7239 13.7556ZM32.107 11.2528L32.7237 11.8695L33.3403 11.2528L32.7237 10.6361L32.107 11.2528Z" fill="#FC1264"/>
<path d="M68.1717 47.8798C67.7401 47.8798 67.3904 47.5299 67.3904 47.0985C67.3904 46.5801 66.9685 46.1582 66.45 46.1582C66.0184 46.1582 65.6687 45.8084 65.6687 45.377C65.6687 44.9456 66.0184 44.5957 66.45 44.5957C66.9684 44.5957 67.3904 44.1738 67.3904 43.6554C67.3904 43.224 67.7401 42.8741 68.1717 42.8741C68.6032 42.8741 68.9529 43.224 68.9529 43.6554C68.9529 44.1738 69.3746 44.5957 69.8932 44.5957C70.3248 44.5957 70.6745 44.9456 70.6745 45.377C70.6745 45.8084 70.3248 46.1582 69.8932 46.1582C69.3748 46.1582 68.9529 46.5801 68.9529 47.0985C68.9529 47.5299 68.6032 47.8798 68.1717 47.8798Z" fill="#FC1264"/>
<path d="M26.7445 16.5846C26.3129 16.5846 25.9633 16.2348 25.9633 15.8034C25.9633 15.2849 25.5415 14.863 25.0229 14.863C24.5914 14.863 24.2417 14.5132 24.2417 14.0818C24.2417 13.6504 24.5914 13.3005 25.0229 13.3005C25.5414 13.3005 25.9633 12.8787 25.9633 12.3602C25.9633 11.9288 26.3129 11.579 26.7445 11.579C27.1761 11.579 27.5258 11.9288 27.5258 12.3602C27.5258 12.8787 27.9475 13.3005 28.4661 13.3005C28.8976 13.3005 29.2473 13.6504 29.2473 14.0818C29.2473 14.5132 28.8976 14.863 28.4661 14.863C27.9476 14.863 27.5258 15.2849 27.5258 15.8034C27.5258 16.2348 27.1761 16.5846 26.7445 16.5846Z" fill="#FC1264"/>
<path d="M58.3498 68.2019C57.9183 68.2019 57.5686 67.852 57.5686 67.4206C57.5686 66.9022 57.1467 66.4803 56.6281 66.4803C56.1966 66.4803 55.8469 66.1305 55.8469 65.6991C55.8469 65.2677 56.1966 64.9178 56.6281 64.9178C57.1466 64.9178 57.5686 64.4959 57.5686 63.9775C57.5686 63.5461 57.9183 63.1963 58.3498 63.1963C58.7814 63.1963 59.1311 63.5461 59.1311 63.9775C59.1311 64.4959 59.5528 64.9178 60.0714 64.9178C60.503 64.9178 60.8526 65.2677 60.8526 65.6991C60.8526 66.1305 60.503 66.4803 60.0714 66.4803C59.553 66.4803 59.1311 66.9022 59.1311 67.4206C59.1311 67.852 58.7814 68.2019 58.3498 68.2019Z" fill="#FC1264"/>
<path d="M51.0999 48.1516C51.5823 48.1516 51.9734 47.7605 51.9734 47.2782C51.9734 46.7958 51.5823 46.4047 51.0999 46.4047C50.6176 46.4047 50.2265 46.7958 50.2265 47.2782C50.2265 47.7605 50.6176 48.1516 51.0999 48.1516Z" fill="#342A98"/>
<path d="M48.4577 48.1516C48.9401 48.1516 49.3312 47.7605 49.3312 47.2782C49.3312 46.7958 48.9401 46.4047 48.4577 46.4047C47.9753 46.4047 47.5843 46.7958 47.5843 47.2782C47.5843 47.7605 47.9753 48.1516 48.4577 48.1516Z" fill="#342A98"/>
<path d="M45.8156 48.1516C46.298 48.1516 46.689 47.7605 46.689 47.2782C46.689 46.7958 46.298 46.4047 45.8156 46.4047C45.3332 46.4047 44.9422 46.7958 44.9422 47.2782C44.9422 47.7605 45.3332 48.1516 45.8156 48.1516Z" fill="#FC1264"/>
<defs>
<linearGradient id="paint0_linear_17_4851" x1="-1.03863" y1="25.9933" x2="85.2537" y2="51.3732" gradientUnits="userSpaceOnUse">
<stop stop-color="#F9F8FF" stop-opacity="0.55"/>
<stop offset="1" stop-color="#D6CDF7" stop-opacity="0.8"/>
</linearGradient>
</defs>
</svg>
