<svg width="80" height="80" viewBox="0 0 80 80" fill="none" xmlns="http://www.w3.org/2000/svg">
<path d="M79.0041 45.6122C77.1563 40.2044 73.045 36.2122 68.0897 34.3306C65.5225 33.3558 63.8169 30.9156 63.7792 28.1698C63.7785 28.1098 63.7774 28.0497 63.776 27.9895C63.5405 17.8986 55.106 9.81297 45.0139 9.98625C39.0617 10.0884 33.7971 13.0105 30.4975 17.4738C27.6561 21.3173 23.2335 23.7183 18.4538 23.7158C18.3135 23.7158 18.173 23.7172 18.0319 23.7203C8.35736 23.9319 0.130802 32.2325 0.00173938 41.9083C-0.135604 52.2102 8.17408 60.6042 18.4442 60.6042C26.4047 60.6042 33.1863 55.5609 35.7702 48.4953C36.4463 46.6466 38.4502 45.6556 40.3456 46.1872C40.3692 46.1938 40.393 46.2005 40.4167 46.207C42.151 46.6858 43.3008 48.3383 43.1589 50.1319C42.9688 52.5355 43.2497 55.0155 44.0649 57.4438C47.2713 66.9961 57.688 72.2383 67.2669 69.1125C77.0655 65.9148 82.3261 55.3338 79.0041 45.6122Z" fill="url(#paint0_linear_17_4863)"/>
<path opacity="0.1" d="M71.25 14.6353V59.0494C71.25 60.3431 70.2 61.3931 68.9062 61.3931H11.0938C9.8 61.3931 8.75 60.3431 8.75 59.0494V14.6353C8.75 13.3416 9.8 12.2916 11.0938 12.2916H68.9062C70.2 12.2916 71.25 13.3416 71.25 14.6353Z" fill="#342A98"/>
<path d="M71.25 17.9166V62.3306C71.25 63.6244 70.2 64.6744 68.9062 64.6744H11.0938C9.8 64.6744 8.75 63.6244 8.75 62.3306V17.9166C8.75 16.6228 9.8 15.5728 11.0938 15.5728H68.9062C70.2 15.5728 71.25 16.6228 71.25 17.9166Z" fill="#EBE8FF"/>
<path d="M14.4433 23.0995H65.5569V55.9662H14.4433V23.0995Z" fill="#EBE8FF"/>
<path d="M71.25 23.0995V17.9166C71.25 16.6222 70.2006 15.5728 68.9062 15.5728H11.0938C9.79937 15.5728 8.75 16.6222 8.75 17.9166V23.0995H71.25Z" fill="#EBE8FF"/>
<path d="M13.9191 19.3248V19.3477C13.9191 19.7792 14.2689 20.1289 14.7003 20.1289C15.1317 20.1289 15.4816 19.7792 15.4816 19.3477V19.3248C15.4816 18.8933 15.1317 18.5436 14.7003 18.5436C14.2689 18.5436 13.9191 18.8933 13.9191 19.3248Z" fill="#FC1264"/>
<path d="M16.9386 19.3248V19.3477C16.9386 19.7792 17.2884 20.1289 17.7198 20.1289C18.1513 20.1289 18.5011 19.7792 18.5011 19.3477V19.3248C18.5011 18.8933 18.1513 18.5436 17.7198 18.5436C17.2884 18.5436 16.9386 18.8933 16.9386 19.3248Z" fill="#342A98"/>
<path d="M19.9579 19.3248V19.3477C19.9579 19.7792 20.3078 20.1289 20.7392 20.1289C21.1706 20.1289 21.5204 19.7792 21.5204 19.3477V19.3248C21.5204 18.8933 21.1706 18.5436 20.7392 18.5436C20.3078 18.5436 19.9579 18.8933 19.9579 19.3248Z" fill="#342A98"/>
<path d="M71.25 19.5777C71.6814 19.5777 72.0312 19.228 72.0312 18.7964V17.9166C72.0312 16.1934 70.6294 14.7916 68.9062 14.7916H11.0938C9.37063 14.7916 7.96875 16.1934 7.96875 17.9166V23.0995C7.96875 23.5311 8.31859 23.8808 8.75 23.8808H70.4688V62.3302C70.4688 63.1917 69.7678 63.8927 68.9062 63.8927H11.0938C10.2322 63.8927 9.53125 63.1917 9.53125 62.3302V27.4028C9.53125 26.9713 9.18141 26.6216 8.75 26.6216C8.31859 26.6216 7.96875 26.9713 7.96875 27.4028V62.3302C7.96875 64.0533 9.37063 65.4552 11.0938 65.4552H68.9062C70.6294 65.4552 72.0312 64.0533 72.0312 62.3302V23.0995C72.0312 22.668 71.6814 22.3183 71.25 22.3183H9.53125V17.9166C9.53125 17.055 10.2322 16.3541 11.0938 16.3541H68.9062C69.7678 16.3541 70.4688 17.055 70.4688 17.9166V18.7964C70.4688 19.228 70.8186 19.5777 71.25 19.5777Z" fill="#342A98"/>
<path d="M20.8046 59.377H18.3046C18.0457 59.377 17.8358 59.1672 17.8358 58.9083V44.7105C17.8358 44.4516 18.0457 44.2417 18.3046 44.2417H20.8046C21.0635 44.2417 21.2733 44.4516 21.2733 44.7105V58.9083C21.2733 59.1672 21.0635 59.377 20.8046 59.377Z" fill="white" fill-opacity="0.9"/>
<path d="M15.6933 59.377H13.1933C12.9344 59.377 12.7245 59.1672 12.7245 58.9083V53.0244C12.7245 52.7655 12.9344 52.5556 13.1933 52.5556H15.6933C15.9522 52.5556 16.162 52.7655 16.162 53.0244V58.9083C16.162 59.1672 15.9522 59.377 15.6933 59.377Z" fill="#342A98"/>
<path d="M25.916 59.377H23.416C23.157 59.377 22.9472 59.1672 22.9472 58.9083V51.3552C22.9472 51.0963 23.157 50.8864 23.416 50.8864H25.916C26.1749 50.8864 26.3847 51.0963 26.3847 51.3552V58.9083C26.3847 59.1672 26.1749 59.377 25.916 59.377Z" fill="#342A98"/>
<path d="M31.0273 59.377H28.5273C28.2684 59.377 28.0586 59.1672 28.0586 58.9083V43.773C28.0586 43.5141 28.2684 43.3042 28.5273 43.3042H31.0273C31.2862 43.3042 31.4961 43.5141 31.4961 43.773V58.9083C31.4961 59.1672 31.2862 59.377 31.0273 59.377Z" fill="white" fill-opacity="0.9"/>
<path d="M36.1386 59.377H33.6386C33.3797 59.377 33.1699 59.1672 33.1699 58.9083V45.7302C33.1699 45.4713 33.3797 45.2614 33.6386 45.2614H36.1386C36.3975 45.2614 36.6074 45.4713 36.6074 45.7302V58.9083C36.6074 59.1672 36.3975 59.377 36.1386 59.377Z" fill="#342A98"/>
<path d="M41.25 59.377H38.75C38.4911 59.377 38.2813 59.1672 38.2813 58.9083V40.023C38.2813 39.7641 38.4911 39.5542 38.75 39.5542H41.25C41.5089 39.5542 41.7188 39.7641 41.7188 40.023V58.9083C41.7188 59.1672 41.5089 59.377 41.25 59.377Z" fill="white" fill-opacity="0.9"/>
<path d="M46.3614 59.377H43.8614C43.6025 59.377 43.3927 59.1672 43.3927 58.9083V46.6677C43.3927 46.4088 43.6025 46.1989 43.8614 46.1989H46.3614C46.6203 46.1989 46.8302 46.4088 46.8302 46.6677V58.9083C46.8302 59.1672 46.6203 59.377 46.3614 59.377Z" fill="#342A98"/>
<path d="M51.4727 59.377H48.9727C48.7138 59.377 48.5039 59.1672 48.5039 58.9083V39.0855C48.5039 38.8266 48.7138 38.6167 48.9727 38.6167H51.4727C51.7316 38.6167 51.9414 38.8266 51.9414 39.0855V58.9083C51.9414 59.1672 51.7316 59.377 51.4727 59.377Z" fill="white" fill-opacity="0.9"/>
<path d="M56.5841 59.377H54.0841C53.8252 59.377 53.6153 59.1672 53.6153 58.9083V41.0427C53.6153 40.7838 53.8252 40.5739 54.0841 40.5739H56.5841C56.843 40.5739 57.0528 40.7838 57.0528 41.0427V58.9083C57.0528 59.1672 56.843 59.377 56.5841 59.377Z" fill="#342A98"/>
<path d="M61.6955 59.377H59.1955C58.9366 59.377 58.7267 59.1672 58.7267 58.9083V37.2927C58.7267 37.0338 58.9366 36.8239 59.1955 36.8239H61.6955C61.9544 36.8239 62.1642 37.0338 62.1642 37.2927V58.9083C62.1642 59.1672 61.9544 59.377 61.6955 59.377Z" fill="white" fill-opacity="0.9"/>
<path d="M66.8067 59.377H64.3067C64.0478 59.377 63.838 59.1672 63.838 58.9083V29.7105C63.838 29.4516 64.0478 29.2417 64.3067 29.2417H66.8067C67.0656 29.2417 67.2755 29.4516 67.2755 29.7105V58.9083C67.2755 59.1672 67.0656 59.377 66.8067 59.377Z" fill="#FC1264"/>
<path d="M23.3347 30.3698C23.3347 28.9387 22.1704 27.7744 20.7393 27.7744C19.3082 27.7744 18.1438 28.9387 18.1438 30.3698C18.1438 31.0756 18.4279 31.7156 18.8865 32.1841C18.4277 32.6525 18.1438 33.2925 18.1438 33.9983C18.1438 34.4298 18.4936 34.7795 18.925 34.7795C19.3565 34.7795 19.7063 34.4298 19.7063 33.9983C19.7063 33.4286 20.1697 32.9653 20.7393 32.9653C21.3088 32.9653 21.7722 33.4287 21.7722 33.9983C21.7722 34.4298 22.1221 34.7795 22.5535 34.7795C22.9849 34.7795 23.3347 34.4298 23.3347 33.9983C23.3347 33.2925 23.0507 32.6523 22.5921 32.1841C23.0508 31.7156 23.3347 31.0756 23.3347 30.3698ZM20.7393 29.3369C21.3088 29.3369 21.7722 29.8003 21.7722 30.3698C21.7722 30.9394 21.3088 31.4027 20.7393 31.4027C20.1697 31.4027 19.7063 30.9392 19.7063 30.3698C19.7065 29.8003 20.1697 29.3369 20.7393 29.3369Z" fill="#342A98"/>
<path d="M35.1489 30.7603H49.2084C49.6505 30.7603 50.0089 30.4019 50.0089 29.9598C50.0089 29.5178 49.6506 29.1594 49.2084 29.1594H35.1489C34.7069 29.1594 34.3484 29.5178 34.3484 29.9598C34.3484 30.4019 34.7067 30.7603 35.1489 30.7603Z" fill="#342A98"/>
<path d="M27.3542 30.7603H31.1944C31.6364 30.7603 31.9949 30.4019 31.9949 29.9598C31.9949 29.5178 31.6366 29.1594 31.1944 29.1594H27.3542C26.9122 29.1594 26.5538 29.5178 26.5538 29.9598C26.5538 30.4019 26.9121 30.7603 27.3542 30.7603Z" fill="#FC1264"/>
<path d="M27.3542 33.9352H49.2083C49.6503 33.9352 50.0088 33.5767 50.0088 33.1347C50.0088 32.6927 49.6505 32.3342 49.2083 32.3342H27.3542C26.9122 32.3342 26.5538 32.6927 26.5538 33.1347C26.5538 33.5769 26.9121 33.9352 27.3542 33.9352Z" fill="#342A98"/>
<path d="M19.1546 38.7558C19.637 38.7558 20.028 38.3647 20.028 37.8824C20.028 37.4 19.637 37.0089 19.1546 37.0089C18.6722 37.0089 18.2811 37.4 18.2811 37.8824C18.2811 38.3647 18.6722 38.7558 19.1546 38.7558Z" fill="#342A98"/>
<path d="M21.7969 38.7558C22.2793 38.7558 22.6703 38.3647 22.6703 37.8824C22.6703 37.4 22.2793 37.0089 21.7969 37.0089C21.3145 37.0089 20.9235 37.4 20.9235 37.8824C20.9235 38.3647 21.3145 38.7558 21.7969 38.7558Z" fill="#342A98"/>
<path d="M24.4392 38.7558C24.9216 38.7558 25.3127 38.3647 25.3127 37.8824C25.3127 37.4 24.9216 37.0089 24.4392 37.0089C23.9568 37.0089 23.5658 37.4 23.5658 37.8824C23.5658 38.3647 23.9568 38.7558 24.4392 38.7558Z" fill="#FC1264"/>
<path d="M59.508 13.017C59.0766 13.017 58.7267 12.6674 58.7267 12.2358C58.7267 11.7175 58.305 11.2958 57.7867 11.2958C57.3553 11.2958 57.0055 10.9461 57.0055 10.5145C57.0055 10.083 57.3553 9.73329 57.7867 9.73329C58.305 9.73329 58.7267 9.31173 58.7267 8.79329C58.7267 8.36173 59.0766 8.01204 59.508 8.01204C59.9394 8.01204 60.2892 8.36173 60.2892 8.79329C60.2892 9.31157 60.711 9.73329 61.2292 9.73329C61.6607 9.73329 62.0105 10.083 62.0105 10.5145C62.0105 10.9461 61.6607 11.2958 61.2292 11.2958C60.711 11.2958 60.2892 11.7174 60.2892 12.2358C60.2892 12.6672 59.9394 13.017 59.508 13.017Z" fill="#FC1264"/>
<path d="M29.0441 10.8884C28.6127 10.8884 28.2628 10.5388 28.2628 10.1072C28.2628 9.58891 27.8411 9.16719 27.3228 9.16719C26.8914 9.16719 26.5416 8.8175 26.5416 8.38594C26.5416 7.95438 26.8914 7.60469 27.3228 7.60469C27.8411 7.60469 28.2628 7.18313 28.2628 6.66469C28.2628 6.23313 28.6127 5.88344 29.0441 5.88344C29.4755 5.88344 29.8253 6.23313 29.8253 6.66469C29.8253 7.18297 30.247 7.60469 30.7653 7.60469C31.1967 7.60469 31.5466 7.95438 31.5466 8.38594C31.5466 8.8175 31.1967 9.16719 30.7653 9.16719C30.247 9.16719 29.8253 9.58875 29.8253 10.1072C29.8253 10.5386 29.4756 10.8884 29.0441 10.8884Z" fill="#FC1264"/>
<path d="M45.1114 72.5333C44.9042 72.5333 44.7055 72.4511 44.5589 72.3044L42.841 70.5864C42.5358 70.2814 42.5358 69.7867 42.841 69.4817L44.5589 67.7638C44.7055 67.6172 44.9041 67.5349 45.1114 67.5349C45.3186 67.5349 45.5174 67.617 45.6639 67.7638L47.3819 69.4817C47.687 69.7867 47.687 70.2814 47.3819 70.5864L45.6639 72.3044C45.5174 72.4511 45.3186 72.5333 45.1114 72.5333ZM44.4983 70.0341L45.1114 70.6472L45.7246 70.0341L45.1114 69.4209L44.4983 70.0341Z" fill="#FC1264"/>
<path d="M37.5449 74.1166C37.3449 74.1166 37.145 74.0403 36.9924 73.8877L35.2744 72.1698C35.1278 72.0233 35.0457 71.8247 35.0457 71.6175C35.0457 71.4103 35.128 71.2116 35.2744 71.0652L36.9924 69.3472C37.1389 69.2006 37.3375 69.1183 37.5449 69.1183C37.7522 69.1183 37.9508 69.2005 38.0974 69.3472L39.8153 71.0652C39.9619 71.2117 40.0441 71.4103 40.0441 71.6175C40.0441 71.8247 39.9617 72.0234 39.8152 72.17L38.0972 73.8878C37.9447 74.0402 37.7447 74.1166 37.5449 74.1166ZM36.9319 71.6175L37.5449 72.2305L38.158 71.6175L37.5449 71.0044L36.9319 71.6175Z" fill="#FC1264"/>
<defs>
<linearGradient id="paint0_linear_17_4863" x1="-1.03857" y1="25.6142" x2="85.2538" y2="50.9942" gradientUnits="userSpaceOnUse">
<stop stop-color="#F9F8FF" stop-opacity="0.55"/>
<stop offset="1" stop-color="#D6CDF7" stop-opacity="0.8"/>
</linearGradient>
</defs>
</svg>
