<svg width="80" height="80" viewBox="0 0 80 80" fill="none" xmlns="http://www.w3.org/2000/svg">
<path d="M79.0041 45.2216C77.1563 39.8138 73.045 35.8216 68.0897 33.94C65.5225 32.9652 63.8169 30.525 63.7792 27.7792C63.7785 27.7192 63.7774 27.6591 63.776 27.5989C63.5405 17.508 55.106 9.42234 45.0139 9.59563C39.0617 9.69781 33.7971 12.6198 30.4975 17.0831C27.6561 20.9267 23.2335 23.3277 18.4538 23.3252C18.3135 23.3252 18.173 23.3266 18.0319 23.3297C8.35736 23.5411 0.130802 31.8419 0.00173938 41.5177C-0.135604 51.8195 8.17408 60.2136 18.4442 60.2136C26.4047 60.2136 33.1863 55.1703 35.7702 48.1047C36.4463 46.2559 38.4502 45.265 40.3456 45.7966C40.3692 45.8031 40.393 45.8098 40.4167 45.8164C42.151 46.2952 43.3008 47.9477 43.1589 49.7412C42.9688 52.1448 43.2497 54.6248 44.0649 57.0531C47.2713 66.6055 57.688 71.8477 67.2669 68.7219C77.0655 65.5242 82.3261 54.9431 79.0041 45.2216Z" fill="url(#paint0_linear_17_4855)"/>
<path opacity="0.1" d="M71.9636 56.7214L69.4205 55.9972C69.1714 54.9819 68.7705 54.0258 68.2428 53.1556L69.5295 50.8445C69.6386 50.648 69.6044 50.4022 69.4455 50.2433L67.7074 48.5052C67.5483 48.3461 67.3025 48.312 67.1061 48.4211L64.7949 49.7078C63.9247 49.1802 62.9686 48.7792 61.9533 48.5303L61.2291 45.9872C61.1674 45.7703 60.9695 45.6211 60.7441 45.6211H59.5152V7.02953C59.5152 5.73672 58.466 4.68734 57.173 4.68734H22.8219C21.5291 4.68734 20.4797 5.73656 20.4797 7.02953V12.355H13.9317C12.6394 12.355 11.5892 13.4052 11.5892 14.6975V63.7609C11.5892 65.0548 12.6394 66.1034 13.9317 66.1034H48.2825C48.8353 66.1034 49.3428 65.9105 49.7438 65.5897L49.5008 66.0259C49.3917 66.2223 49.426 66.4683 49.5849 66.6272L51.323 68.3653C51.482 68.5244 51.7278 68.5584 51.9242 68.4494L54.2355 67.1627C55.1055 67.6903 56.0617 68.0913 57.077 68.3403L57.8013 70.8834C57.863 71.1003 58.0608 71.2495 58.2863 71.2495H60.7441C60.9695 71.2495 61.1674 71.1003 61.2291 70.8834L61.9533 68.3403C62.9686 68.0913 63.9247 67.6905 64.7949 67.1627L67.1061 68.4494C67.3027 68.5584 67.5483 68.5242 67.7074 68.3653L69.4455 66.6272C69.6045 66.4681 69.6386 66.2223 69.5295 66.0259L68.2428 63.7147C68.7705 62.8447 69.1714 61.8884 69.4205 60.8731L71.9636 60.1489C72.1805 60.0872 72.3297 59.8894 72.3297 59.6639V57.2062C72.3297 56.9809 72.1805 56.7831 71.9636 56.7214ZM50.6069 64.0392C50.6177 63.9478 50.6249 63.8553 50.6249 63.7609V63.4348C50.6778 63.5289 50.7316 63.6225 50.7875 63.7147L50.6069 64.0392ZM59.5152 62.4658C57.2894 62.4658 55.4849 60.6613 55.4846 58.4356H57.173C58.4658 58.4356 59.5152 57.3864 59.5152 56.0934V54.4045C61.7411 54.4045 63.5458 56.2092 63.5458 58.4352C63.5458 60.6611 61.7411 62.4658 59.5152 62.4658Z" fill="#342A98"/>
<path d="M50.625 17.9791V67.0425C50.625 68.3364 49.5749 69.385 48.2825 69.385H13.9317C12.6394 69.385 11.5892 68.3364 11.5892 67.0425V17.9791C11.5892 16.6867 12.6394 15.6366 13.9317 15.6366H48.2825C49.5749 15.6366 50.625 16.6867 50.625 17.9791Z" fill="#EBE8FF"/>
<path d="M46.8041 46.8178V27.4559C46.8041 27.1972 46.5944 26.9875 46.3356 26.9875H15.8786C15.6198 26.9875 15.4102 27.1972 15.4102 27.4559V46.8175C15.4102 47.0763 15.6198 47.2859 15.8786 47.2859H46.3356C46.5944 47.2863 46.8041 47.0764 46.8041 46.8178Z" fill="white" fill-opacity="0.9"/>
<path d="M50.6253 23.158V17.9786C50.6253 16.685 49.5768 15.6364 48.2832 15.6364H13.9319C12.6383 15.6364 11.5897 16.685 11.5897 17.9786V23.158H50.6253Z" fill="#EBE8FF"/>
<path d="M59.5152 10.3111V59.375C59.5152 60.6678 58.466 61.7172 57.173 61.7172H22.8219C21.5291 61.7172 20.4797 60.668 20.4797 59.375V10.3111C20.4797 9.01828 21.529 7.96891 22.8219 7.96891H57.1732C58.466 7.96891 59.5152 9.01828 59.5152 10.3111Z" fill="white" fill-opacity="0.9"/>
<path d="M20.4797 55.673V59.3752C20.4797 60.668 21.529 61.7173 22.8219 61.7173H57.1732C58.466 61.7173 59.5154 60.6681 59.5154 59.3752V55.673H20.4797Z" fill="#EBE8FF"/>
<path d="M29.0024 7.96906H22.8219C21.5291 7.96906 20.4797 9.01828 20.4797 10.3112V59.3752C20.4797 60.668 21.529 61.7173 22.8219 61.7173H29.0024V7.96906Z" fill="#EBE8FF"/>
<path d="M59.5152 15.4905V10.3111C59.5152 9.0175 58.4666 7.96891 57.173 7.96891H22.8219C21.5283 7.96891 20.4797 9.0175 20.4797 10.3111V15.4905H59.5152Z" fill="#EBE8FF"/>
<path d="M20.4797 55.673H59.5152" stroke="#342A98" stroke-width="10" stroke-miterlimit="10"/>
<path d="M71.9636 60.003L69.4205 59.2788C69.1714 58.2634 68.7707 57.3073 68.2428 56.4372L69.5296 54.1259C69.6386 53.9294 69.6044 53.6838 69.4455 53.5247L67.7074 51.7866C67.5483 51.6275 67.3025 51.5934 67.1061 51.7025L64.7949 52.9892C63.9249 52.4616 62.9686 52.0606 61.9533 51.8116L61.2291 49.2684C61.1674 49.0516 60.9696 48.9023 60.7441 48.9023H58.2863C58.0608 48.9023 57.8632 49.0516 57.8013 49.2684L57.0771 51.8116C56.0617 52.0606 55.1057 52.4614 54.2355 52.9892L51.9242 51.7025C51.7277 51.5934 51.4821 51.6277 51.323 51.7866L49.5849 53.5247C49.4258 53.6838 49.3916 53.9295 49.5008 54.1259L50.7875 56.4372C50.2599 57.3072 49.8589 58.2634 49.6099 59.2788L47.0667 60.003C46.8499 60.0647 46.7007 60.2625 46.7007 60.488V62.9458C46.7007 63.1713 46.8499 63.3691 47.0667 63.4308L49.6099 64.155C49.8589 65.1703 50.2597 66.1264 50.7875 66.9966L49.5008 69.3078C49.3917 69.5044 49.426 69.75 49.5849 69.9091L51.323 71.6472C51.4821 71.8063 51.7278 71.8405 51.9242 71.7313L54.2355 70.4445C55.1055 70.9722 56.0617 71.3731 57.0771 71.6222L57.8013 74.1653C57.863 74.3822 58.0608 74.5314 58.2863 74.5314H60.7441C60.9696 74.5314 61.1672 74.3822 61.2291 74.1653L61.9533 71.6222C62.9686 71.3731 63.9247 70.9723 64.7949 70.4445L67.1061 71.7313C67.3027 71.8403 67.5483 71.8061 67.7074 71.6472L69.4455 69.9091C69.6046 69.75 69.6388 69.5042 69.5296 69.3078L68.2428 66.9966C68.7705 66.1266 69.1714 65.1703 69.4205 64.155L71.9636 63.4308C72.1805 63.3691 72.3297 63.1713 72.3297 62.9458V60.488C72.3297 60.2625 72.1805 60.0647 71.9636 60.003ZM59.5152 65.7473C57.2892 65.7473 55.4846 63.9427 55.4846 61.7167C55.4846 59.4908 57.2892 57.6861 59.5152 57.6861C61.7411 57.6861 63.5458 59.4908 63.5458 61.7167C63.5458 63.9427 61.7411 65.7473 59.5152 65.7473Z" fill="#EBE8FF"/>
<path d="M15.5502 9.98C15.1188 9.98 14.769 9.63031 14.769 9.19875C14.769 8.68172 14.3483 8.26109 13.8313 8.26109C13.3999 8.26109 13.05 7.91141 13.05 7.47984C13.05 7.04828 13.3999 6.69859 13.8313 6.69859C14.3483 6.69859 14.769 6.27797 14.769 5.76078C14.769 5.32922 15.1188 4.97953 15.5502 4.97953C15.9816 4.97953 16.3315 5.32922 16.3315 5.76078C16.3315 6.27797 16.7521 6.69859 17.2691 6.69859C17.7005 6.69859 18.0504 7.04828 18.0504 7.47984C18.0504 7.91141 17.7005 8.26109 17.2691 8.26109C16.7521 8.26109 16.3315 8.68172 16.3315 9.19875C16.3315 9.63031 15.9816 9.98 15.5502 9.98Z" fill="#FC1264"/>
<path d="M64.3463 18.138H70.7324C71.1746 18.138 71.5328 17.7795 71.5328 17.3375C71.5328 16.8955 71.1746 16.537 70.7324 16.537H64.3463C63.9041 16.537 63.5458 16.8955 63.5458 17.3375C63.5458 17.7795 63.9042 18.138 64.3463 18.138Z" fill="#342A98"/>
<path d="M64.3463 20.9508H67.4508C67.893 20.9508 68.2513 20.5923 68.2513 20.1503C68.2513 19.7083 67.893 19.3498 67.4508 19.3498H64.3463C63.9041 19.3498 63.5458 19.7083 63.5458 20.1503C63.5458 20.5923 63.9042 20.9508 64.3463 20.9508Z" fill="#342A98"/>
<path d="M64.3463 23.7636H67.4508C67.893 23.7636 68.2513 23.4052 68.2513 22.9631C68.2513 22.5211 67.893 22.1627 67.4508 22.1627H64.3463C63.9041 22.1627 63.5458 22.5211 63.5458 22.9631C63.5458 23.4052 63.9042 23.7636 64.3463 23.7636Z" fill="#342A98"/>
<path d="M64.3463 29.3892H70.7324C71.1746 29.3892 71.5328 29.0308 71.5328 28.5887C71.5328 28.1467 71.1746 27.7883 70.7324 27.7883H64.3463C63.9041 27.7883 63.5458 28.1467 63.5458 28.5887C63.5458 29.0308 63.9042 29.3892 64.3463 29.3892Z" fill="#342A98"/>
<path d="M64.3463 32.2022H67.4508C67.893 32.2022 68.2513 31.8437 68.2513 31.4017C68.2513 30.9597 67.893 30.6012 67.4508 30.6012H64.3463C63.9041 30.6012 63.5458 30.9597 63.5458 31.4017C63.5458 31.8436 63.9042 32.2022 64.3463 32.2022Z" fill="#342A98"/>
<path d="M64.3463 35.015H67.4508C67.893 35.015 68.2513 34.6566 68.2513 34.2145C68.2513 33.7725 67.893 33.4141 67.4508 33.4141H64.3463C63.9041 33.4141 63.5458 33.7725 63.5458 34.2145C63.5458 34.6566 63.9042 35.015 64.3463 35.015Z" fill="#342A98"/>
<path d="M70.7325 24.9755H67.628C67.1858 24.9755 66.8275 25.3339 66.8275 25.7759C66.8275 26.218 67.1858 26.5764 67.628 26.5764H70.7325C71.1747 26.5764 71.533 26.218 71.533 25.7759C71.533 25.3339 71.1745 24.9755 70.7325 24.9755Z" fill="#342A98"/>
<path d="M64.3463 40.6406H70.7324C71.1746 40.6406 71.5328 40.2822 71.5328 39.8402C71.5328 39.3981 71.1746 39.0397 70.7324 39.0397H64.3463C63.9041 39.0397 63.5458 39.3981 63.5458 39.8402C63.5458 40.2822 63.9042 40.6406 64.3463 40.6406Z" fill="#342A98"/>
<path d="M64.3463 43.4534H67.4508C67.893 43.4534 68.2513 43.095 68.2513 42.653C68.2513 42.2109 67.893 41.8525 67.4508 41.8525H64.3463C63.9041 41.8525 63.5458 42.2109 63.5458 42.653C63.5458 43.095 63.9042 43.4534 64.3463 43.4534Z" fill="#342A98"/>
<path d="M64.3463 46.2663H67.4508C67.893 46.2663 68.2513 45.9078 68.2513 45.4658C68.2513 45.0237 67.893 44.6653 67.4508 44.6653H64.3463C63.9041 44.6653 63.5458 45.0237 63.5458 45.4658C63.5458 45.908 63.9042 46.2663 64.3463 46.2663Z" fill="#342A98"/>
<path d="M70.7325 36.2269H67.628C67.1858 36.2269 66.8275 36.5853 66.8275 37.0273C66.8275 37.4694 67.1858 37.8278 67.628 37.8278H70.7325C71.1747 37.8278 71.533 37.4694 71.533 37.0273C71.533 36.5853 71.1745 36.2269 70.7325 36.2269Z" fill="#342A98"/>
<path d="M38.1291 21.0173C37.9845 20.4203 37.4547 20.0034 36.8405 20.0034H36.0761C35.4619 20.0034 34.932 20.4203 34.7875 21.0173L33.1949 27.5989C33.0935 28.0183 33.3511 28.4405 33.7705 28.542C34.1897 28.6438 34.6122 28.3858 34.7136 27.9664L35.4156 25.065H37.5003L38.2024 27.9664C38.2889 28.3241 38.6088 28.5642 38.9613 28.5642C39.022 28.5642 39.0839 28.557 39.1456 28.542C39.565 28.4406 39.8228 28.0183 39.7214 27.5989L38.1291 21.0173ZM35.7942 23.5023L36.2628 21.5661H36.6542L37.1228 23.5023H35.7942Z" fill="#342A98"/>
<path d="M44.5763 20.0034H41.8183C41.3867 20.0034 41.0369 20.3533 41.0369 20.7848V27.7827C41.0369 28.2142 41.3867 28.5641 41.8183 28.5641C42.2499 28.5641 42.5997 28.2142 42.5997 27.7827V25.4978H44.5763C45.3072 25.4978 45.9019 24.9031 45.9019 24.1722V21.3292C45.9017 20.5981 45.3072 20.0034 44.5763 20.0034ZM44.3391 23.9352H42.5996V21.5661H44.3391V23.9352Z" fill="#342A98"/>
<path d="M49.4606 27.0475V21.5198C49.7661 21.4138 49.9869 21.1264 49.9869 20.7847C49.9869 20.3531 49.6371 20.0033 49.2055 20.0033H48.1531C47.7216 20.0033 47.3717 20.3531 47.3717 20.7847C47.3717 21.1264 47.5924 21.4138 47.898 21.5198V27.0475C47.5925 27.1536 47.3717 27.4409 47.3717 27.7827C47.3717 28.2142 47.7216 28.5641 48.1531 28.5641H49.2055C49.6371 28.5641 49.9869 28.2142 49.9869 27.7827C49.9869 27.4409 49.7661 27.1536 49.4606 27.0475Z" fill="#342A98"/>
<path d="M52.4891 28.5809C52.0575 28.5809 51.7077 28.2311 51.7077 27.7995V27.7769C51.7077 27.3453 52.0575 26.9955 52.4891 26.9955C52.9206 26.9955 53.2705 27.3453 53.2705 27.7769V27.7995C53.2705 28.2311 52.9206 28.5809 52.4891 28.5809Z" fill="#342A98"/>
<path d="M36.1235 34.9442H33.6652C33.2566 34.9442 32.8916 35.243 32.8529 35.6497C32.8083 36.1164 33.1741 36.5091 33.6316 36.5091H36.1235C36.5557 36.5091 36.906 36.1588 36.906 35.7266C36.906 35.2945 36.5557 34.9442 36.1235 34.9442Z" fill="#FC1264"/>
<path d="M45.5658 34.9442H39.7199C39.2877 34.9442 38.9374 35.2945 38.9374 35.7267C38.9374 36.1589 39.2877 36.5092 39.7199 36.5092H45.5994C46.0569 36.5092 46.4227 36.1166 46.3782 35.6498C46.3394 35.243 45.9744 34.9442 45.5658 34.9442Z" fill="#FC1264"/>
<path d="M41.7491 38.2202H33.6652C33.2566 38.2202 32.8916 38.5189 32.8529 38.9256C32.8083 39.3923 33.1741 39.785 33.6316 39.785H41.7491C42.1813 39.785 42.5316 39.4347 42.5316 39.0025C42.5316 38.5705 42.1813 38.2202 41.7491 38.2202Z" fill="#342A98"/>
<path d="M50.2538 38.2202H45.3453C44.9131 38.2202 44.5628 38.5705 44.5628 39.0027C44.5628 39.4348 44.9131 39.7852 45.3453 39.7852H50.2874C50.745 39.7852 51.1106 39.3923 51.0661 38.9258C51.0274 38.5189 50.6625 38.2202 50.2538 38.2202Z" fill="#342A98"/>
<path d="M39.405 41.4963H33.6652C33.2566 41.4963 32.8916 41.795 32.8529 42.2017C32.8083 42.6684 33.1741 43.0611 33.6316 43.0611H39.4052C39.8374 43.0611 40.1877 42.7108 40.1877 42.2786C40.1875 41.8466 39.8372 41.4963 39.405 41.4963Z" fill="#342A98"/>
<path d="M45.5658 41.4963H43.0014C42.5692 41.4963 42.2189 41.8466 42.2189 42.2788C42.2189 42.7109 42.5692 43.0613 43.0014 43.0613H45.5994C46.0569 43.0613 46.4227 42.6686 46.3782 42.2019C46.3394 41.795 45.9744 41.4963 45.5658 41.4963Z" fill="#342A98"/>
<path d="M50.2539 44.7722H40.6575C40.2253 44.7722 39.875 45.1225 39.875 45.5547C39.875 45.9869 40.2253 46.3372 40.6575 46.3372H50.2875C50.745 46.3372 51.1108 45.9445 51.0663 45.4778C51.0274 45.0709 50.6625 44.7722 50.2539 44.7722Z" fill="#342A98"/>
<path d="M37.0611 44.7722H33.6652C33.2566 44.7722 32.8916 45.0709 32.8529 45.4777C32.8083 45.9444 33.1741 46.337 33.6316 46.337H37.0611C37.4933 46.337 37.8436 45.9867 37.8436 45.5545C37.8435 45.1225 37.4932 44.7722 37.0611 44.7722Z" fill="#342A98"/>
<path d="M72.1778 59.2516L70.0605 58.6487C69.8366 57.8772 69.5286 57.1341 69.1411 56.4302L70.2125 54.5055C70.4898 54.0064 70.4014 53.3759 69.9978 52.9725L68.2597 51.2344C67.8563 50.8308 67.2258 50.7425 66.7258 51.02L64.8017 52.0911C64.0977 51.7036 63.3545 51.3956 62.5833 51.1716L61.9803 49.0542C61.8238 48.5047 61.3153 48.1209 60.7439 48.1209H60.2962V10.3111C60.2962 8.58891 58.8952 7.18781 57.1728 7.18781H22.8219C21.0997 7.18781 19.6984 8.58891 19.6984 10.3111V14.8552H13.9319C12.2097 14.8552 10.8086 16.2562 10.8086 17.9784V23.1573V23.1581C10.8086 23.5897 11.1584 23.9394 11.5898 23.9394H19.6986V59.3745C19.6986 61.0967 21.0997 62.4978 22.822 62.4978H42.3998C42.8312 62.4978 43.1811 62.1481 43.1811 61.7166C43.1811 61.285 42.8312 60.9353 42.3998 60.9353H22.8219C21.9612 60.9353 21.2609 60.2352 21.2609 59.3745V16.2719H58.7339V48.1209H58.2862C57.7148 48.1209 57.2066 48.5047 57.0498 49.0544L56.447 51.1716C55.6758 51.3956 54.9327 51.7034 54.2286 52.0911L52.3037 51.0195C51.8047 50.7425 51.1741 50.8308 50.7708 51.2344L49.0328 52.9723C48.6291 53.3759 48.5408 54.0062 48.8183 54.5059L49.8894 56.43C49.5019 57.1341 49.1939 57.8772 48.97 58.6486L46.8527 59.2514C46.3033 59.408 45.9195 59.9164 45.9195 60.4878V62.9455C45.9195 63.5167 46.3033 64.0252 46.853 64.1817L48.9702 64.7845C49.1941 65.5561 49.502 66.2991 49.8895 67.0031L49.1434 68.3434C48.8883 68.5127 48.5931 68.6028 48.2833 68.6028H13.9319C13.0712 68.6028 12.3711 67.9027 12.3711 67.0419V27.4619C12.3711 27.0303 12.0213 26.6806 11.5898 26.6806C11.1584 26.6806 10.8086 27.0303 10.8086 27.4619V67.042C10.8086 68.7642 12.2097 70.1655 13.9319 70.1655H48.2831C48.4552 70.1655 48.625 70.1516 48.7916 70.1244C48.852 70.2469 48.9325 70.3611 49.0327 70.4613L50.7708 72.1994C51.1745 72.6031 51.8047 72.6912 52.3045 72.4137L54.2286 71.3427C54.9325 71.73 55.6756 72.038 56.447 72.262L57.05 74.3794C57.2066 74.9289 57.715 75.3127 58.2864 75.3127H60.7441C61.3155 75.3127 61.8237 74.9289 61.9805 74.3792L62.5833 72.262C63.3548 72.038 64.0978 71.7302 64.8017 71.3427L66.7266 72.4142C67.2255 72.6909 67.8559 72.6028 68.2595 72.1994L69.9978 70.4613C70.4011 70.0577 70.4894 69.4273 70.212 68.9277L69.1409 67.0036C69.5283 66.2997 69.8364 65.5564 70.0603 64.785L72.1778 64.1822C72.7272 64.0256 73.1109 63.5172 73.1109 62.9459V60.4883C73.1109 59.9166 72.7272 59.4081 72.1778 59.2516ZM19.6984 22.3769H12.3711V17.9786C12.3711 17.118 13.0712 16.4178 13.9319 16.4178H19.6984V22.3769ZM21.2609 14.7094V10.3111C21.2609 9.45047 21.9611 8.75031 22.8219 8.75031H57.1731C58.0337 8.75031 58.7341 9.45047 58.7341 10.3111V14.7092L21.2609 14.7094ZM71.5484 62.7366L69.2066 63.4036C68.9366 63.4805 68.7286 63.6963 68.6617 63.9688C68.4347 64.8941 68.0691 65.7764 67.5748 66.5913C67.4292 66.8313 67.4237 67.1311 67.5603 67.3763L68.7452 69.5044L67.303 70.9466L65.1748 69.7617C64.9295 69.6253 64.6297 69.6308 64.3897 69.7764C63.5748 70.2706 62.6925 70.6362 61.7672 70.8631C61.4945 70.9302 61.2787 71.1381 61.2019 71.408L60.535 73.75H58.4953L57.8284 71.4081C57.7516 71.1381 57.5356 70.9302 57.2631 70.8633C56.338 70.6364 55.4556 70.2708 54.6406 69.7766C54.4005 69.6309 54.1009 69.6256 53.8555 69.7619L51.7273 70.9466L50.2853 69.5045L51.4702 67.3764C51.6067 67.1313 51.6011 66.8314 51.4556 66.5914C50.9613 65.7764 50.5956 64.8941 50.3687 63.9689C50.3019 63.6964 50.0939 63.4806 49.8239 63.4037L47.482 62.7367V60.6972L49.8239 60.0302C50.0939 59.9533 50.3019 59.7375 50.3687 59.465C50.5956 58.5398 50.9613 57.6575 51.4556 56.8425C51.6012 56.6025 51.6067 56.3027 51.4702 56.0575L50.2855 53.9294L51.7277 52.4873L53.8556 53.672C54.1008 53.8086 54.4006 53.8031 54.6408 53.6575C55.4559 53.1631 56.3383 52.7973 57.2633 52.5706C57.5359 52.5036 57.7517 52.2956 57.8286 52.0258L58.4955 49.6839H60.5352L61.202 52.0258C61.2789 52.2958 61.4947 52.5038 61.7673 52.5706C62.6923 52.7975 63.5747 53.1631 64.3898 53.6575C64.63 53.8031 64.9298 53.8086 65.175 53.672L67.303 52.4873L68.7452 53.9294L67.5605 56.0575C67.4239 56.3027 67.4295 56.6025 67.575 56.8425C68.0692 57.6573 68.4348 58.5397 68.6619 59.465C68.7287 59.7375 68.9367 59.9533 69.2067 60.0302L71.5486 60.6972V62.7366H71.5484Z" fill="#342A98"/>
<path d="M59.5152 56.9048C56.8619 56.9048 54.7033 59.0634 54.7033 61.7167C54.7033 64.37 56.8619 66.5286 59.5152 66.5286C62.1684 66.5286 64.327 64.37 64.327 61.7167C64.327 59.0634 62.1684 56.9048 59.5152 56.9048ZM58.7339 58.5663V59.3747C58.7339 60.2353 58.0337 60.9355 57.173 60.9355H56.3647C56.6537 59.7714 57.5698 58.8553 58.7339 58.5663ZM59.5152 64.9661C57.9933 64.9661 56.7159 63.9128 56.3647 62.498H57.173C58.8952 62.498 60.2964 61.0969 60.2964 59.3747V58.5663C61.7112 58.9175 62.7645 60.1947 62.7645 61.7167C62.7645 63.5084 61.3069 64.9661 59.5152 64.9661Z" fill="#342A98"/>
<path d="M17.5359 20.1898C17.9674 20.1898 18.3172 19.8402 18.3172 19.4086V19.3859C18.3172 18.9544 17.9674 18.6047 17.5359 18.6047C17.1045 18.6047 16.7547 18.9544 16.7547 19.3859V19.4086C16.7547 19.8402 17.1045 20.1898 17.5359 20.1898Z" fill="#FC1264"/>
<path d="M26.426 10.9372C25.9946 10.9372 25.6447 11.2869 25.6447 11.7184V11.7411C25.6447 12.1727 25.9946 12.5223 26.426 12.5223C26.8574 12.5223 27.2072 12.1727 27.2072 11.7411V11.7184C27.2072 11.2869 26.8574 10.9372 26.426 10.9372Z" fill="#FC1264"/>
<path d="M29.4434 10.9372C29.012 10.9372 28.6622 11.2869 28.6622 11.7184V11.7411C28.6622 12.1727 29.012 12.5223 29.4434 12.5223C29.8748 12.5223 30.2247 12.1727 30.2247 11.7411V11.7184C30.2247 11.2869 29.8748 10.9372 29.4434 10.9372Z" fill="#342A98"/>
<path d="M32.4608 10.9372C32.0293 10.9372 31.6795 11.2869 31.6795 11.7184V11.7411C31.6795 12.1727 32.0293 12.5223 32.4608 12.5223C32.8922 12.5223 33.242 12.1727 33.242 11.7411V11.7184C33.242 11.2869 32.8922 10.9372 32.4608 10.9372Z" fill="#342A98"/>
<path d="M25.5223 35.7153C25.5223 35.2838 25.1725 34.9341 24.7409 34.9341C24.3094 34.9341 23.9595 35.2839 23.9595 35.7153V35.738C23.9595 36.1695 24.3094 36.5194 24.7409 36.5194C25.1725 36.5194 25.5223 36.1695 25.5223 35.738V35.7153Z" fill="#342A98"/>
<path d="M24.7411 44.762C24.3096 44.762 23.9597 45.1119 23.9597 45.5434V45.5661C23.9597 45.9977 24.3096 46.3473 24.7411 46.3473C25.1727 46.3473 25.5225 45.9975 25.5225 45.5661V45.5434C25.5224 45.1119 25.1725 44.762 24.7411 44.762Z" fill="#342A98"/>
<path d="M66.8275 12.1862C66.6275 12.1862 66.4277 12.11 66.275 11.9573L64.5569 10.2394C64.4103 10.0928 64.3282 9.89422 64.3282 9.68703C64.3282 9.47984 64.4105 9.28109 64.5569 9.13469L66.275 7.41656C66.4216 7.27 66.6202 7.18766 66.8275 7.18766C67.0347 7.18766 67.2335 7.27 67.38 7.41656L69.098 9.13469C69.4032 9.43969 69.4032 9.93437 69.098 10.2394L67.38 11.9573C67.2274 12.11 67.0275 12.1862 66.8275 12.1862ZM66.2142 9.68703L66.8274 10.3002L67.4405 9.68703L66.8274 9.07375L66.2142 9.68703Z" fill="#FC1264"/>
<path d="M73.2544 51.405C72.823 51.405 72.4731 51.0553 72.4731 50.6238C72.4731 50.1053 72.0514 49.6834 71.533 49.6834C71.1016 49.6834 70.7517 49.3338 70.7517 48.9022C70.7517 48.4706 71.1016 48.1209 71.533 48.1209C72.0514 48.1209 72.4731 47.6992 72.4731 47.1808C72.4731 46.7492 72.823 46.3995 73.2544 46.3995C73.6858 46.3995 74.0356 46.7492 74.0356 47.1808C74.0356 47.6991 74.4574 48.1209 74.9758 48.1209C75.4072 48.1209 75.7571 48.4706 75.7571 48.9022C75.7571 49.3338 75.4072 49.6834 74.9758 49.6834C74.4574 49.6834 74.0356 50.1052 74.0356 50.6238C74.0356 51.0553 73.6858 51.405 73.2544 51.405Z" fill="#FC1264"/>
<path d="M6.74564 26.7864C6.31423 26.7864 5.96439 26.4367 5.96439 26.0052C5.96439 25.4869 5.54267 25.065 5.02423 25.065C4.59282 25.065 4.24298 24.7153 4.24298 24.2838C4.24298 23.8522 4.59282 23.5025 5.02423 23.5025C5.54267 23.5025 5.96439 23.0808 5.96439 22.5622C5.96439 22.1306 6.31423 21.7809 6.74564 21.7809C7.17704 21.7809 7.52689 22.1306 7.52689 22.5622C7.52689 23.0806 7.94861 23.5025 8.46704 23.5025C8.89845 23.5025 9.24829 23.8522 9.24829 24.2838C9.24829 24.7153 8.89845 25.065 8.46704 25.065C7.94861 25.065 7.52689 25.4867 7.52689 26.0052C7.52689 26.4366 7.1772 26.7864 6.74564 26.7864Z" fill="#FC1264"/>
<defs>
<linearGradient id="paint0_linear_17_4855" x1="-1.03857" y1="25.2236" x2="85.2538" y2="50.6036" gradientUnits="userSpaceOnUse">
<stop stop-color="#F9F8FF" stop-opacity="0.55"/>
<stop offset="1" stop-color="#D6CDF7" stop-opacity="0.8"/>
</linearGradient>
</defs>
</svg>
