<svg width="80" height="80" viewBox="0 0 80 80" fill="none" xmlns="http://www.w3.org/2000/svg">
<g clip-path="url(#clip0_72_1839)">
<path d="M75.3522 6.18658C71.2297 -1.97139 60.3799 -1.44046 54.2603 4.17001C51.2647 6.91642 45.943 5.04642 42.3497 5.3747C37.07 5.85704 34.2485 11.1761 29.0444 12.1878C-21.934 22.0986 9.38706 99.6438 54.698 75.2914C65.4067 69.5359 60.2366 55.308 62.3067 45.488C65.1283 32.1041 82.903 21.1291 75.3522 6.18658Z" fill="url(#paint0_linear_72_1839)"/>
<path opacity="0.1" d="M43.2617 11.1645C26.1888 11.1645 12.3483 25.005 12.3483 42.078C12.3483 44.3359 12.5927 46.5364 13.0522 48.6567H10.8811C10.0181 48.6567 9.3186 49.3562 9.3186 50.2192V74.3056C9.3186 75.1686 10.0181 75.8681 10.8811 75.8681H34.9675C35.8305 75.8681 36.53 75.1686 36.53 74.3056V72.2542C38.6974 72.7356 40.9495 72.9916 43.2617 72.9916C60.3347 72.9916 74.1752 59.1511 74.1752 42.0781C74.1752 25.0051 60.3349 11.1645 43.2617 11.1645Z" fill="#342A98"/>
<path d="M43.2617 69.2414C60.3347 69.2414 74.1752 55.401 74.1752 38.328C74.1752 21.2549 60.3347 7.41452 43.2617 7.41452C26.1887 7.41452 12.3483 21.2549 12.3483 38.328C12.3483 55.401 26.1887 69.2414 43.2617 69.2414Z" fill="#E8E2FF"/>
<path d="M71.9376 49.593C70.0033 49.1166 67.9347 48.6926 65.7606 48.3234C66.5469 45.1414 66.9559 41.7764 66.9559 38.3281C66.9559 34.8798 66.5469 31.515 65.7606 28.3328C67.9345 27.9636 70.0031 27.5397 71.9376 27.0633C72.3565 26.9601 72.6125 26.5369 72.5094 26.118C72.4062 25.6991 71.9833 25.4426 71.5639 25.5462C69.6219 26.0245 67.542 26.4494 65.3533 26.8178C64.1906 22.8151 62.4156 19.1395 60.0914 16.0037C59.9369 15.7953 59.7803 15.5908 59.6222 15.3889C60.6347 15.2 61.6081 14.9933 62.5336 14.7684C62.953 14.6667 63.2103 14.2442 63.1084 13.8248C63.0065 13.4056 62.5842 13.148 62.1648 13.2501C61.0048 13.5319 59.768 13.7851 58.4694 14.0089C54.2165 9.2339 48.8947 6.63327 43.2617 6.63327C37.6287 6.63327 32.3067 9.2339 28.054 14.0089C26.7555 13.7851 25.5187 13.5319 24.3586 13.2501C23.9392 13.148 23.5169 13.4058 23.415 13.8248C23.3131 14.2442 23.5704 14.6667 23.9898 14.7684C24.9155 14.9933 25.8887 15.2 26.9012 15.3889C26.7433 15.5908 26.5865 15.7953 26.432 16.0037C24.1078 19.1395 22.3328 22.815 21.1701 26.8178C18.9812 26.4492 16.9014 26.0245 14.9595 25.5462C14.5404 25.443 14.1173 25.6991 14.014 26.118C13.9109 26.5369 14.1669 26.9601 14.5858 27.0633C16.5201 27.5397 18.5889 27.9636 20.7628 28.3328C19.9765 31.5148 19.5675 34.8798 19.5675 38.3281C19.5675 41.7764 19.9765 45.1414 20.7628 48.3234C18.5889 48.6926 16.5201 49.1166 14.5858 49.593C14.1669 49.6961 13.9109 50.1194 14.014 50.5383C14.1173 50.9573 14.5404 51.2145 14.9595 51.11C16.9014 50.6317 18.9814 50.2069 21.1701 49.8383C22.3328 53.8411 24.1078 57.5165 26.432 60.6523C26.5865 60.8608 26.7431 61.0653 26.9012 61.2672C25.8887 61.4561 24.9153 61.6628 23.9898 61.8876C23.5704 61.9894 23.3131 62.4119 23.415 62.8312C23.5167 63.2505 23.9392 63.5075 24.3586 63.4059C25.5186 63.1242 26.7555 62.8709 28.054 62.6472C32.3069 67.4222 37.6287 70.0228 43.2617 70.0228C48.8947 70.0228 54.2167 67.4222 58.4694 62.6472C59.768 62.8709 61.0047 63.1242 62.1648 63.4059C62.2267 63.4211 62.2887 63.4283 62.3498 63.4283C62.7019 63.4283 63.0215 63.1886 63.1084 62.8314C63.2103 62.412 62.953 61.9895 62.5336 61.8878C61.608 61.663 60.6347 61.4562 59.6222 61.2673C59.7801 61.0655 59.9369 60.8609 60.0914 60.6525C62.4156 57.5167 64.1906 53.8411 65.3533 49.8384C67.5422 50.207 69.622 50.6319 71.5639 51.1101C71.6267 51.1258 71.6895 51.133 71.7514 51.133C72.1025 51.133 72.4217 50.8947 72.5094 50.5383C72.6126 50.1194 72.3567 49.6961 71.9376 49.593ZM65.3936 38.328C65.3936 41.7362 64.9751 45.0139 64.2056 48.0715C60.6689 47.5255 56.8803 47.12 52.9473 46.8676C53.1803 44.1231 53.3012 41.2559 53.3012 38.328C53.3012 35.4 53.1803 32.533 52.9473 29.7884C56.8801 29.5361 60.6687 29.1306 64.2056 28.5844C64.9751 31.642 65.3936 34.9197 65.3936 38.328ZM49.0342 60.0469C47.1483 59.9426 45.2156 59.8889 43.2619 59.8889C41.3081 59.8889 39.3755 59.9426 37.4895 60.0469C37.4809 60.0186 37.4723 59.9912 37.4637 59.963C36.4667 56.6339 35.7289 52.6661 35.2826 48.3331C37.8958 48.1948 40.5659 48.1234 43.2619 48.1234C45.9578 48.1234 48.6279 48.1948 51.2411 48.3331C50.7948 52.6661 50.057 56.6339 49.06 59.963C49.0514 59.9912 49.0426 60.0186 49.0342 60.0469ZM43.2617 68.4603C41.4412 68.4603 39.5169 65.9217 37.9908 61.5847C39.7156 61.4969 41.4792 61.4516 43.2617 61.4516C45.0442 61.4516 46.8078 61.4969 48.5326 61.5847C47.0067 65.9217 45.0823 68.4603 43.2617 68.4603ZM43.2617 46.5608C40.517 46.5608 37.7978 46.6342 35.1361 46.7764C34.9048 44.0648 34.7848 41.228 34.7848 38.3278C34.7848 35.4276 34.9048 32.5909 35.1361 29.8794C37.7978 30.0216 40.517 30.095 43.2617 30.095C46.0064 30.095 48.7256 30.0216 51.3873 29.8794C51.6186 32.5909 51.7386 35.4276 51.7386 38.3278C51.7386 41.228 51.6186 44.0647 51.3873 46.7764C48.7258 46.6342 46.0065 46.5608 43.2617 46.5608ZM37.4894 16.6092C39.3753 16.7134 41.308 16.7672 43.2617 16.7672C45.2155 16.7672 47.1481 16.7134 49.034 16.6092C49.0426 16.6375 49.0512 16.6648 49.0598 16.6931C50.0569 20.0222 50.7947 23.99 51.2409 28.323C48.6276 28.4612 45.9576 28.5328 43.2617 28.5328C40.5658 28.5328 37.8958 28.4614 35.2825 28.323C35.7287 23.99 36.4665 20.0222 37.4636 16.6931C37.4722 16.6648 37.4809 16.6373 37.4894 16.6092ZM43.2617 8.19577C45.0822 8.19577 47.0065 10.7344 48.5326 15.0714C46.8078 15.1592 45.0442 15.2045 43.2617 15.2045C41.4792 15.2045 39.7156 15.1592 37.9908 15.0714C39.517 10.7344 41.4412 8.19577 43.2617 8.19577ZM63.7894 27.0683C60.3361 27.5956 56.6392 27.9873 52.8017 28.2322C52.3572 23.885 51.6236 19.8895 50.6336 16.5078C53.1633 16.3269 55.592 16.0533 57.8544 15.6937C60.4334 18.7798 62.4823 22.6675 63.7894 27.0683ZM56.604 14.3034C54.5648 14.598 52.3992 14.8236 50.1536 14.9753C49.2031 12.1433 48.1086 10.0067 46.9001 8.60515C50.5009 9.41952 53.8105 11.4205 56.604 14.3034ZM39.6234 8.6053C38.4151 10.0069 37.3205 12.1433 36.37 14.9755C34.1244 14.8237 31.9587 14.5981 29.9195 14.3036C32.7131 11.4205 36.0226 9.41952 39.6234 8.6053ZM28.6692 15.6939C30.9315 16.0534 33.3603 16.327 35.89 16.508C34.9 19.8897 34.1664 23.8851 33.7219 28.2323C29.8845 27.9875 26.1876 27.5958 22.7342 27.0684C24.0412 22.6675 26.0901 18.7798 28.6692 15.6939ZM21.13 38.328C21.13 34.9197 21.5484 31.642 22.318 28.5844C25.8548 29.1305 29.6434 29.5359 33.5762 29.7884C33.3433 32.533 33.2223 35.4 33.2223 38.328C33.2223 41.2559 33.3433 44.123 33.5762 46.8676C29.6433 47.12 25.8548 47.5255 22.318 48.0715C21.5484 45.0139 21.13 41.7362 21.13 38.328ZM22.7344 49.5876C26.1876 49.0603 29.8845 48.6686 33.7219 48.4237C34.1664 52.7709 34.9 56.7664 35.89 60.1481C33.3603 60.3291 30.9315 60.6026 28.6692 60.9622C26.0901 57.8762 24.0412 53.9886 22.7344 49.5876ZM29.9195 62.3526C31.9587 62.0581 34.1244 61.8325 36.37 61.6808C37.3203 64.5128 38.415 66.6494 39.6234 68.0509C36.0226 67.2364 32.7131 65.2355 29.9195 62.3526ZM46.9001 68.0508C48.1084 66.6492 49.2031 64.5126 50.1536 61.6806C52.3992 61.8323 54.5648 62.058 56.604 62.3525C53.8105 65.2355 50.5009 67.2364 46.9001 68.0508ZM57.8544 60.9622C55.592 60.6026 53.1633 60.3291 50.6336 60.1481C51.6236 56.7664 52.3572 52.7709 52.8017 48.4237C56.6392 48.6686 60.3361 49.0603 63.7892 49.5876C62.4823 53.9886 60.4334 57.8762 57.8544 60.9622Z" fill="white"/>
<path d="M56.8415 50.8334L45.429 22.6308C45.0399 21.6697 44.1067 21.0404 43.0698 21.0404C42.0329 21.0404 41.0997 21.6697 40.7108 22.6308L29.2981 50.8334C28.7708 52.1362 29.3996 53.6198 30.7024 54.1471C32.0046 54.6744 33.4889 54.0456 34.0162 52.7428L36.6969 46.1185H49.4425L52.1232 52.7428C52.524 53.733 53.4768 54.3337 54.4833 54.3337C54.801 54.3337 55.1244 54.2738 55.4369 54.1473C56.7399 53.6198 57.3686 52.1362 56.8415 50.8334ZM38.7567 41.0284L43.0698 30.3698L47.3829 41.0284H38.7567Z" fill="white"/>
<path d="M30.3121 55.1113C30.7466 55.2873 31.202 55.3753 31.6573 55.3751C32.1318 55.3751 32.606 55.2798 33.0561 55.089C33.9379 54.7153 34.6215 54.0205 34.9808 53.1328L37.3985 47.1586H48.7415L51.159 53.1328C51.71 54.4941 53.0149 55.3739 54.4835 55.3739C54.945 55.3739 55.3972 55.2857 55.8275 55.1115C56.7154 54.7523 57.41 54.0688 57.7837 53.1869C58.1574 52.3053 58.1653 51.3309 57.8059 50.443L46.3935 22.2402C45.8425 20.8793 44.538 20 43.0698 20C41.6016 20 40.2971 20.8793 39.7463 22.2404L28.3336 50.443C27.9743 51.3309 27.9824 52.3053 28.3559 53.1872C28.7294 54.069 29.4246 54.7521 30.3121 55.1113ZM30.2626 51.2235L41.6752 23.0209C41.9064 22.4497 42.4537 22.0808 43.0698 22.0808C43.6859 22.0808 44.2334 22.4499 44.4646 23.0209L55.877 51.2235C56.0277 51.5962 56.0243 52.005 55.8677 52.375C55.711 52.745 55.4194 53.0317 55.0468 53.1826C54.8655 53.2558 54.676 53.2931 54.4833 53.2931C53.8669 53.2931 53.3191 52.9237 53.0877 52.3523L50.4072 45.728C50.2482 45.335 49.8666 45.0778 49.4427 45.0778H36.6971C36.2732 45.0778 35.8916 45.335 35.7326 45.728L33.0519 52.3523C32.901 52.7248 32.6141 53.0163 32.2441 53.1732C31.8741 53.3299 31.4653 53.3334 31.0928 53.1826C30.7203 53.0319 30.4288 52.7452 30.2719 52.3752C30.1152 52.005 30.1119 51.5962 30.2626 51.2235Z" fill="#342A98"/>
<path d="M38.7567 42.0688H47.3829C47.7289 42.0688 48.0523 41.8967 48.2456 41.61C48.4389 41.323 48.4772 40.9589 48.3474 40.6382L44.0342 29.9796C43.8753 29.5866 43.4936 29.3294 43.0698 29.3294C42.6459 29.3294 42.2643 29.5866 42.1053 29.9796L37.7922 40.6382C37.6624 40.9589 37.7006 41.3232 37.8939 41.61C38.0873 41.8967 38.4106 42.0688 38.7567 42.0688ZM43.0698 33.1433L45.8396 39.988H40.3L43.0698 33.1433Z" fill="#342A98"/>
<path d="M34.9675 72.1181H10.8811C10.0181 72.1181 9.3186 71.4186 9.3186 70.5556V46.4692C9.3186 45.6063 10.0181 44.9067 10.8811 44.9067H34.9675C35.8305 44.9067 36.53 45.6063 36.53 46.4692V70.5556C36.53 71.4186 35.8305 72.1181 34.9675 72.1181Z" fill="white"/>
<path d="M43.2619 6.63281C50.4378 6.63281 57.2052 8.97125 62.8322 13.3952C70.5377 19.4505 74.9572 28.5383 74.9572 38.328C74.9572 48.1177 70.5377 57.2053 62.832 63.2611C57.2048 67.6848 50.4375 70.0233 43.2617 70.0233C41.2609 70.0233 39.2622 69.8334 37.3113 69.4631V70.5556C37.3113 71.848 36.2599 72.8994 34.9675 72.8994H29.7242C29.2928 72.8994 28.943 72.5497 28.943 72.1181C28.943 71.6866 29.2928 71.3369 29.7242 71.3369H34.9675C35.3983 71.3369 35.7488 70.9864 35.7488 70.5556V46.4691C35.7488 46.0383 35.3983 45.6878 34.9675 45.6878H10.8811C10.4503 45.6878 10.0999 46.0383 10.0999 46.4691V70.5556C10.0999 70.9864 10.4503 71.3369 10.8811 71.3369H25.2228C25.6542 71.3369 26.0041 71.6866 26.0041 72.1181C26.0041 72.5497 25.6542 72.8994 25.2228 72.8994H10.8811C9.58876 72.8994 8.53735 71.848 8.53735 70.5556V46.4691C8.53735 45.1767 9.58876 44.1253 10.8811 44.1253H34.9675C36.2599 44.1253 37.3113 45.1767 37.3113 46.4691L37.3111 67.8717C39.2581 68.2614 41.2586 68.4609 43.2616 68.4609C50.0838 68.4609 56.5172 66.238 61.8663 62.0327C69.1925 56.275 73.3944 47.635 73.3944 38.328C73.3944 29.0208 69.1927 20.3809 61.8664 14.6236C56.5172 10.4181 50.0839 8.19516 43.2616 8.19516C36.4392 8.19516 30.0058 10.4181 24.6569 14.6234C17.3306 20.3809 13.1288 29.0208 13.1288 38.328C13.1288 39.0641 13.1589 39.837 13.2183 40.6256C13.2508 41.0559 12.9281 41.4309 12.498 41.4634C12.0666 41.4938 11.6927 41.1731 11.6603 40.7431C11.598 39.9156 11.5664 39.1031 11.5664 38.328C11.5664 28.5383 15.9859 19.4506 23.6916 13.395C29.3184 8.97125 36.0859 6.63281 43.2619 6.63281Z" fill="#342A98"/>
<path d="M7.54782 42.552C7.11641 42.552 6.76657 42.2023 6.76657 41.7708C6.76657 41.2252 6.32266 40.7812 5.77704 40.7812C5.34563 40.7812 4.99579 40.4316 4.99579 40C4.99579 39.5684 5.34563 39.2187 5.77704 39.2187C6.32266 39.2187 6.76657 38.7748 6.76657 38.2292C6.76657 37.7977 7.11641 37.448 7.54782 37.448C7.97923 37.448 8.32907 37.7977 8.32907 38.2292C8.32907 38.7748 8.77298 39.2187 9.3186 39.2187C9.75001 39.2187 10.0999 39.5684 10.0999 40C10.0999 40.4316 9.75001 40.7812 9.3186 40.7812C8.77298 40.7812 8.32907 41.2252 8.32907 41.7708C8.32907 42.2023 7.97923 42.552 7.54782 42.552Z" fill="#FC1264"/>
<path d="M68.1363 70.0228C67.7048 70.0228 67.355 69.6731 67.355 69.2416C67.355 68.696 66.9111 68.2519 66.3655 68.2519C65.9341 68.2519 65.5842 67.9022 65.5842 67.4706C65.5842 67.0391 65.9341 66.6894 66.3655 66.6894C66.9111 66.6894 67.355 66.2455 67.355 65.6999C67.355 65.2683 67.7048 64.9186 68.1363 64.9186C68.5677 64.9186 68.9175 65.2683 68.9175 65.6999C68.9175 66.2455 69.3614 66.6894 69.907 66.6894C70.3384 66.6894 70.6883 67.0391 70.6883 67.4706C70.6883 67.9022 70.3384 68.2519 69.907 68.2519C69.3614 68.2519 68.9175 68.696 68.9175 69.2416C68.9175 69.673 68.5677 70.0228 68.1363 70.0228Z" fill="#FC1264"/>
<path d="M9.40545 31.3639C9.20545 31.3639 9.00561 31.2877 8.85311 31.1352L7.9992 30.2813L7.1453 31.1352C6.8403 31.4402 6.34545 31.4402 6.04045 31.135C5.7353 30.83 5.7353 30.3353 6.04045 30.0302L7.4467 28.6241C7.7517 28.3192 8.24639 28.3192 8.55139 28.6241L9.95764 30.0302C10.2628 30.3353 10.2628 30.83 9.95764 31.135C9.8053 31.2875 9.60545 31.3639 9.40545 31.3639Z" fill="#FC1264"/>
<path d="M71.105 13.2747C70.905 13.2747 70.7052 13.1985 70.5525 13.0458L69.6988 12.1921L68.845 13.0458C68.5398 13.351 68.0453 13.351 67.7402 13.0458C67.435 12.7408 67.435 12.2461 67.7402 11.9411L69.1464 10.5349C69.4516 10.2297 69.9461 10.2297 70.2513 10.5349L71.6575 11.9411C71.9627 12.2461 71.9627 12.7408 71.6575 13.0458C71.5048 13.1985 71.305 13.2747 71.105 13.2747Z" fill="#FC1264"/>
<path d="M64.663 8.43017C64.463 8.43017 64.2631 8.35392 64.1105 8.20126L63.2567 7.34751L62.403 8.20126C62.0978 8.50642 61.6033 8.50642 61.2981 8.20126C60.993 7.89626 60.993 7.40157 61.2981 7.09657L62.7044 5.69032C63.0095 5.38517 63.5041 5.38517 63.8092 5.69032L65.2155 7.09657C65.5206 7.40157 65.5206 7.89626 65.2155 8.20126C65.0628 8.35392 64.863 8.43017 64.663 8.43017Z" fill="#FC1264"/>
<path d="M31.5247 65.6788C28.9333 64.5376 26.9332 63.1817 25.3893 61.7901C26.4574 60.49 27.2321 59.2288 27.7888 58.1217C28.7461 56.2182 29.1992 54.523 29.4139 53.3666H30.8313C31.7528 53.3666 32.4997 52.6466 32.4997 51.7586C32.4997 50.8705 31.7527 50.1507 30.8313 50.1507H24.2872V49.108C24.2872 48.2198 23.5402 47.5 22.6188 47.5C21.6974 47.5 20.9505 48.22 20.9505 49.108V50.1507H15.4189C14.4974 50.1507 13.7506 50.8706 13.7506 51.7586C13.7506 52.6467 14.4976 53.3666 15.4189 53.3666H26.0104C25.7972 54.2822 25.4114 55.5077 24.7138 56.8612C24.2617 57.7384 23.731 58.5694 23.1297 59.3572C22.3492 58.3431 21.7748 57.3661 21.3551 56.4986C20.9656 55.6937 19.9728 55.3458 19.1379 55.7208C18.3028 56.0962 17.9415 57.0528 18.3309 57.8578C18.9055 59.0454 19.7206 60.4049 20.8685 61.8011C19.1741 63.3251 17.1239 64.6226 14.7254 65.679C13.8874 66.0481 13.5184 67.0022 13.9013 67.81C14.1816 68.4011 14.7868 68.75 15.4199 68.75C15.6517 68.75 15.8874 68.7031 16.1122 68.6042C19.0586 67.3066 21.3476 65.7527 23.1247 64.1539C24.9055 65.7561 27.1942 67.3078 30.1376 68.6042C30.3624 68.7031 30.598 68.75 30.8299 68.75C31.4629 68.75 32.0682 68.401 32.3485 67.81C32.7317 67.0021 32.3628 66.0479 31.5247 65.6788Z" fill="#342A98"/>
</g>
<defs>
<linearGradient id="paint0_linear_72_1839" x1="1.82829" y1="20.8295" x2="85.509" y2="38.0084" gradientUnits="userSpaceOnUse">
<stop stop-color="#E7E1FD" stop-opacity="0.45"/>
<stop offset="1" stop-color="#D3CAF5"/>
</linearGradient>
<clipPath id="clip0_72_1839">
<rect width="80" height="80" fill="white"/>
</clipPath>
</defs>
</svg>
