<svg width="40" height="40" viewBox="0 0 40 40" fill="none" xmlns="http://www.w3.org/2000/svg">
<path d="M29.5645 2.94238C30.3546 2.94257 31 3.55571 31.0547 4.33203C31.8316 4.38617 32.4451 5.03267 32.4453 5.82324V9.90625C32.4453 10.7323 31.7753 11.4022 30.9492 11.4023H30.457C30.7959 11.6552 31.0231 12.047 31.0547 12.4941C31.8315 12.5483 32.445 13.1949 32.4453 13.9854V17.457C33.4473 17.5871 34.2894 18.2229 34.707 19.1016C35.6935 19.5716 36.3769 20.5748 36.377 21.7402V28.2881C36.3767 29.9028 35.0678 31.2117 33.4531 31.2119H26.2139C25.0499 31.2118 24.0477 30.5304 23.5771 29.5459C22.8307 29.1923 22.2568 28.533 22.0205 27.7285H20.373V30.7354C20.5739 30.8642 20.707 31.0894 20.707 31.3457V31.7227H22.5996C22.8745 31.7228 23.1116 31.8727 23.2412 32.0938H30.332C30.9406 32.0939 31.4342 32.5869 31.4346 33.1953V33.4805H31.7158C32.3243 33.4809 32.8181 33.9736 32.8184 34.582V35.9629C32.8182 36.5713 32.3243 37.065 31.7158 37.0654H24.5703C24.4336 37.2401 24.2235 37.3545 23.9844 37.3545H13.333C13.094 37.3544 12.8838 37.2401 12.7471 37.0654H5.58984C4.9811 37.0654 4.48748 36.5716 4.4873 35.9629V35.6787H4.20508C3.59623 35.6787 3.10156 35.185 3.10156 34.5762V33.1953C3.10192 32.5869 3.59643 32.0938 4.20508 32.0938H11.3018C11.4312 31.8716 11.6726 31.7227 11.9482 31.7227H15.0752V29.9609C15.0752 29.7074 15.2051 29.484 15.4023 29.3545V27.7285H6.52344C5.68175 27.7282 4.91145 27.1404 4.86719 26.3076C4.11896 26.1696 3.47852 25.6182 3.47852 24.8467V20.7637C3.47883 19.869 4.34026 19.2677 5.23242 19.2676H5.4668C5.12747 19.0144 4.89925 18.6218 4.86816 18.1738C4.09164 18.1192 3.47852 17.4739 3.47852 16.6836V12.6006C3.47868 11.7746 4.14848 11.1045 4.97461 11.1045H5.4668C5.12773 10.8513 4.89929 10.4594 4.86816 10.0117C4.09163 9.95709 3.47852 9.31182 3.47852 8.52148V4.43848C3.47858 3.61231 4.14843 2.94238 4.97461 2.94238H29.5645ZM17.21 33.4824C17.2098 33.6894 17.0419 33.8574 16.835 33.8574H13.3359V36.6045H23.9814V33.8574H20.332C20.1252 33.8572 19.9572 33.6893 19.957 33.4824V31.3711H17.21V33.4824ZM5.51855 34.2373C5.35816 34.2701 5.23749 34.412 5.2373 34.582V35.9629C5.23745 36.133 5.35815 36.2747 5.51855 36.3076L5.58984 36.3154H12.7275C12.7916 36.2645 12.8718 36.2334 12.96 36.2334L12.9609 35.9697V35.2197L12.96 34.2305H5.58984L5.51855 34.2373ZM24.3574 35.6787L24.3545 36.2334L24.418 36.2393C24.4388 36.243 24.4591 36.2478 24.4785 36.2549C24.4983 36.262 24.5171 36.2712 24.5352 36.2812L24.5859 36.3154H31.7158C31.91 36.3151 32.0682 36.1572 32.0684 35.9629V34.582C32.0682 34.4119 31.9467 34.27 31.7861 34.2373L31.7158 34.2305H24.3574V35.6787ZM18.9873 27.7285V29.3496C19.1884 29.4784 19.3223 29.7044 19.3223 29.9609V30.6211H19.623V27.7285H18.9873ZM26.2139 19.5654C25.4067 19.5656 24.7021 20.0059 24.3271 20.6592C24.2941 20.7167 24.2641 20.7762 24.2363 20.8369C24.2079 20.8991 24.1818 20.9631 24.1592 21.0283C24.1175 21.1488 24.0865 21.2743 24.0664 21.4033C24.0493 21.5131 24.04 21.6256 24.04 21.7402V28.2881C24.0401 28.5257 24.0779 28.7547 24.1484 28.9688C24.1993 29.1231 24.2672 29.2703 24.3496 29.4072C24.4408 29.5588 24.5506 29.6987 24.6748 29.8232C25.0192 30.1685 25.4788 30.399 25.9912 30.4512L26.2139 30.4619H33.4531C34.6536 30.4617 35.6267 29.4886 35.627 28.2881V21.7402C35.6269 21.1376 35.3814 20.5921 34.9854 20.1982C34.8606 20.0742 34.721 19.965 34.5693 19.874C34.4323 19.7918 34.2853 19.7245 34.1309 19.6738C33.9176 19.6039 33.6897 19.5655 33.4531 19.5654H26.2139ZM31.9141 21.1328C32.2177 21.133 32.4776 21.3686 32.4951 21.6807C32.5278 22.2659 32.7717 22.6332 33.2256 22.8203L33.3057 22.8613C33.4828 22.9687 33.591 23.164 33.585 23.375C33.5337 25.1541 32.6362 26.5752 31.7764 27.5361C31.3446 28.0186 30.9154 28.3933 30.5918 28.6484C30.4298 28.7761 30.2925 28.8747 30.1943 28.9424C30.1455 28.976 30.1053 29.0028 30.0762 29.0215C30.0717 29.0243 30.0675 29.0277 30.0635 29.0303L30.0391 29.0449C30.0342 29.0479 30.0281 29.0514 30.0225 29.0547L29.9971 29.0684L29.9785 29.0771C29.9739 29.0791 29.9686 29.0809 29.9629 29.083L29.8652 29.1055C29.832 29.1084 29.7985 29.1065 29.7656 29.1006L29.7012 29.083C29.6956 29.0809 29.6902 29.079 29.6855 29.0771L29.666 29.0684L29.6406 29.0547C29.6349 29.0514 29.6289 29.0479 29.624 29.0449C29.6138 29.0387 29.6013 29.0307 29.5869 29.0215C29.5577 29.0027 29.5178 28.9762 29.4688 28.9424C29.3706 28.8747 29.2343 28.7761 29.0723 28.6484C28.7487 28.3933 28.3195 28.0187 27.8877 27.5361C27.0816 26.6352 26.2416 25.3298 26.0977 23.7041L26.0781 23.375C26.0712 23.1333 26.2146 22.9124 26.4385 22.8203C26.892 22.6331 27.1354 22.2656 27.168 21.6807C27.1855 21.3685 27.4461 21.1328 27.75 21.1328H31.9141ZM27.8613 22.1396C27.7336 22.724 27.3999 23.1928 26.834 23.4639C26.9112 24.9467 27.6677 26.1649 28.4463 27.0352C28.8432 27.4787 29.2384 27.8249 29.5361 28.0596C29.6509 28.15 29.7589 28.2173 29.8379 28.2734C29.916 28.218 30.0153 28.1476 30.127 28.0596C30.4247 27.8249 30.8209 27.4787 31.2178 27.0352C31.9963 26.165 32.7519 24.9465 32.8291 23.4639C32.1826 23.1541 31.8393 22.586 31.7598 21.8828H27.9033L27.8613 22.1396ZM6.42285 21.4072C5.92809 21.4504 5.61335 21.8069 5.61328 22.1494V26.2324C5.6133 26.2692 5.61693 26.3061 5.62402 26.3428C5.68761 26.6702 6.02702 26.9782 6.52344 26.9785H17.1475C17.1526 26.9783 17.1579 26.9775 17.1631 26.9775C17.1663 26.9775 17.1757 26.9784 17.1787 26.9785H19.9824C19.9875 26.9783 19.9929 26.9775 19.998 26.9775C20.0032 26.9775 20.0086 26.9783 20.0137 26.9785H23.29V21.7402C23.29 21.6832 23.2917 21.6265 23.2949 21.5703L23.3096 21.4033H6.52344L6.42285 21.4072ZM30.917 23.3389C31.0491 23.1795 31.2859 23.1571 31.4453 23.2891C31.6047 23.4212 31.6272 23.6579 31.4951 23.8174L29.8467 25.8057C29.7747 25.8924 29.6673 25.9423 29.5547 25.9414C29.4702 25.9406 29.3891 25.9111 29.3242 25.8594L29.2646 25.8008L28.4297 24.7559C28.3006 24.5942 28.3269 24.3579 28.4883 24.2285C28.65 24.0993 28.8863 24.1255 29.0156 24.2871L29.5625 24.9727L30.917 23.3389ZM21.1758 23.7246C21.3829 23.7246 21.5507 23.8925 21.5508 24.0996C21.5508 24.3067 21.3829 24.4746 21.1758 24.4746H13.1758C13.0761 24.4746 12.9851 24.4356 12.918 24.3721C12.8458 24.3037 12.8008 24.2069 12.8008 24.0996C12.8008 23.9754 12.8611 23.8651 12.9541 23.7969C13.0161 23.7514 13.093 23.7246 13.1758 23.7246H21.1758ZM6.35938 13.2393C5.94772 13.2394 5.61359 13.5738 5.61328 13.9854V18.0684C5.61328 18.106 5.61667 18.1435 5.62207 18.1797C5.67571 18.5389 5.98526 18.8143 6.35938 18.8145H30.9492C31.3231 18.8143 31.6335 18.5395 31.6875 18.1807C31.693 18.1443 31.6953 18.1063 31.6953 18.0684V13.9854C31.695 13.6115 31.4196 13.3018 31.0605 13.248C31.0244 13.2426 30.9869 13.2393 30.9492 13.2393H6.35938ZM9.39941 14.3115C10.3481 14.3119 11.117 15.0806 11.1172 16.0293C11.1171 16.607 10.8316 17.1181 10.3945 17.4297C10.1138 17.6297 9.77034 17.7479 9.39941 17.748C9.02826 17.748 8.68431 17.6298 8.40332 17.4297C7.96592 17.1181 7.68075 16.607 7.68066 16.0293C7.68084 15.0804 8.45049 14.3115 9.39941 14.3115ZM14.6279 14.3115C15.5766 14.3119 16.3455 15.0806 16.3457 16.0293C16.3456 16.607 16.0602 17.1181 15.623 17.4297C15.3423 17.6297 14.9989 17.7479 14.6279 17.748C14.2568 17.748 13.9128 17.6298 13.6318 17.4297C13.1944 17.1181 12.9093 16.607 12.9092 16.0293C12.9094 15.0804 13.679 14.3115 14.6279 14.3115ZM9.39941 15.0615C8.86473 15.0615 8.43084 15.4946 8.43066 16.0293C8.43081 16.564 8.8647 16.998 9.39941 16.998C9.93386 16.9977 10.367 16.5638 10.3672 16.0293C10.367 15.4948 9.93383 15.0619 9.39941 15.0615ZM14.6279 15.0615C14.0932 15.0615 13.6594 15.4946 13.6592 16.0293C13.6593 16.564 14.0932 16.998 14.6279 16.998C15.1624 16.9977 15.5956 16.5638 15.5957 16.0293C15.5955 15.4948 15.1623 15.0619 14.6279 15.0615ZM29.6797 15.625C29.8868 15.625 30.0546 15.7929 30.0547 16C30.0547 16.2071 29.8868 16.375 29.6797 16.375H21C20.7929 16.375 20.625 16.2071 20.625 16C20.625 15.793 20.7929 15.625 21 15.625H29.6797ZM6.35938 5.07715C5.94764 5.07731 5.61349 5.41152 5.61328 5.82324V9.90625C5.61328 9.94399 5.61666 9.98134 5.62207 10.0176C5.67573 10.3768 5.98528 10.6522 6.35938 10.6523H30.9492C31.3611 10.6522 31.6953 10.3181 31.6953 9.90625V5.82324C31.6951 5.44924 31.4197 5.13969 31.0605 5.08594C31.0244 5.08053 30.9869 5.07716 30.9492 5.07715H6.35938ZM9.39941 6.14551C10.348 6.14589 11.1169 6.91475 11.1172 7.86328C11.1172 8.44312 10.8294 8.95627 10.3896 9.26758C10.1098 9.46558 9.76829 9.58188 9.39941 9.58203C9.0302 9.58203 8.68739 9.4658 8.40723 9.26758C7.96738 8.95626 7.68066 8.44302 7.68066 7.86328C7.68095 6.9145 8.45057 6.14551 9.39941 6.14551ZM14.6279 6.14551C15.5765 6.14584 16.3454 6.91471 16.3457 7.86328C16.3457 8.44313 16.058 8.95628 15.6182 9.26758C15.3383 9.46558 14.9968 9.5819 14.6279 9.58203C14.2587 9.58203 13.9159 9.4658 13.6357 9.26758C13.1959 8.95626 12.9092 8.443 12.9092 7.86328C12.9095 6.9145 13.6791 6.14551 14.6279 6.14551ZM9.39941 6.89551C8.86478 6.89551 8.43095 7.32872 8.43066 7.86328C8.43066 8.39817 8.86462 8.83203 9.39941 8.83203C9.93394 8.83165 10.3672 8.39794 10.3672 7.86328C10.3669 7.32894 9.93378 6.89589 9.39941 6.89551ZM14.6279 6.89551C14.0933 6.89551 13.6595 7.32872 13.6592 7.86328C13.6592 8.39817 14.0931 8.83203 14.6279 8.83203C15.1624 8.8317 15.5957 8.39796 15.5957 7.86328C15.5954 7.32892 15.1623 6.89584 14.6279 6.89551ZM29.3564 7.09863C29.5635 7.09865 29.7314 7.26654 29.7314 7.47363C29.7312 7.68052 29.5634 7.84862 29.3564 7.84863H21.4873L21.4121 7.84082C21.2411 7.80605 21.1125 7.65481 21.1123 7.47363C21.1123 7.26653 21.2802 7.09863 21.4873 7.09863H29.3564Z" fill="#8C8C8C"/>
</svg>
