<svg width="40" height="40" viewBox="0 0 40 40" fill="none" xmlns="http://www.w3.org/2000/svg">
<g clip-path="url(#clip0_81523_14442)">
<mask id="mask0_81523_14442" style="mask-type:luminance" maskUnits="userSpaceOnUse" x="0" y="0" width="40" height="41">
<path d="M40 0.000366211H0V40.0004H40V0.000366211Z" fill="white"/>
</mask>
<g mask="url(#mask0_81523_14442)">
<path fill-rule="evenodd" clip-rule="evenodd" d="M12.2265 8.90098H16.6015V10.3854C16.6015 10.6011 16.7765 10.776 16.9922 10.776H17.9297C18.1454 10.776 18.3203 10.6011 18.3203 10.3854V8.90098H22.6953V10.3854C22.6953 10.6011 22.8702 10.776 23.0859 10.776H24.0234C24.2391 10.776 24.414 10.6011 24.414 10.3854V8.90098H28.789V10.3854C28.789 10.6011 28.964 10.776 29.1797 10.776H30.1172C30.3329 10.776 30.5078 10.6011 30.5078 10.3854V8.90098H33.789C34.652 8.90098 35.3515 9.60053 35.3515 10.4635V13.9791H5.66404V10.4635C5.66404 9.60053 6.36359 8.90098 7.22654 8.90098H10.5078V10.3854C10.5078 10.6011 10.6827 10.776 10.8984 10.776H11.8359C12.0516 10.776 12.2265 10.6011 12.2265 10.3854V8.90098Z" fill="#8C8C8C"/>
<path fill-rule="evenodd" clip-rule="evenodd" d="M11.8359 11.1666H10.8984C10.4669 11.1666 10.1172 10.8169 10.1172 10.3854V7.96348C10.1172 7.53203 10.4669 7.18223 10.8984 7.18223H11.8359C12.2674 7.18223 12.6172 7.53203 12.6172 7.96348V10.3854C12.6172 10.8169 12.2674 11.1666 11.8359 11.1666ZM10.5078 10.3854V8.90098V7.96348C10.5078 7.74778 10.6827 7.57288 10.8984 7.57288H11.8359C12.0516 7.57288 12.2265 7.74778 12.2265 7.96348V8.90098V10.3854C12.2265 10.6011 12.0516 10.776 11.8359 10.776H10.8984C10.6827 10.776 10.5078 10.6011 10.5078 10.3854Z" fill="#8C8C8C"/>
<path fill-rule="evenodd" clip-rule="evenodd" d="M16.9922 11.1666H17.9297C18.3611 11.1666 18.7109 10.8169 18.7109 10.3854V7.96348C18.7109 7.53203 18.3611 7.18223 17.9297 7.18223H16.9922C16.5607 7.18223 16.2109 7.53203 16.2109 7.96348V10.3854C16.2109 10.8169 16.5607 11.1666 16.9922 11.1666ZM18.3203 7.96348V8.90098V10.3854C18.3203 10.6011 18.1454 10.776 17.9297 10.776H16.9922C16.7765 10.776 16.6015 10.6011 16.6015 10.3854V8.90098V7.96348C16.6015 7.74778 16.7765 7.57288 16.9922 7.57288H17.9297C18.1454 7.57288 18.3203 7.74778 18.3203 7.96348Z" fill="#8C8C8C"/>
<path fill-rule="evenodd" clip-rule="evenodd" d="M23.0859 11.1666H24.0193C24.453 11.1666 24.8046 10.8179 24.8047 10.3878V7.96348C24.8047 7.53203 24.4549 7.18223 24.0234 7.18223H23.0859C22.6544 7.18223 22.3047 7.53203 22.3047 7.96348V10.3854C22.3047 10.8169 22.6544 11.1666 23.0859 11.1666ZM24.414 7.96348V8.90098V10.3854C24.414 10.6011 24.2391 10.776 24.0234 10.776H23.0859C22.8702 10.776 22.6953 10.6011 22.6953 10.3854V8.90098V7.96348C22.6953 7.74778 22.8702 7.57288 23.0859 7.57288H24.0234C24.2391 7.57288 24.414 7.74778 24.414 7.96348Z" fill="#8C8C8C"/>
<path fill-rule="evenodd" clip-rule="evenodd" d="M29.1797 11.1666H30.1172C30.5486 11.1666 30.8984 10.8169 30.8984 10.3854V7.96348C30.8984 7.53203 30.5486 7.18223 30.1172 7.18223H29.1797C28.7482 7.18223 28.3984 7.53203 28.3984 7.96348V10.3854C28.3984 10.8169 28.7482 11.1666 29.1797 11.1666ZM30.5078 7.96348V8.90098V10.3854C30.5078 10.6011 30.3329 10.776 30.1172 10.776H29.1797C28.964 10.776 28.789 10.6011 28.789 10.3854V8.90098V7.96348C28.789 7.74778 28.964 7.57288 29.1797 7.57288H30.1172C30.3329 7.57288 30.5078 7.74778 30.5078 7.96348Z" fill="#8C8C8C"/>
<path fill-rule="evenodd" clip-rule="evenodd" d="M9.17969 19.9947H11.3672C11.7986 19.9947 12.1484 19.645 12.1484 19.2135V17.026C12.1484 16.5945 11.7986 16.2447 11.3672 16.2447H9.17969C8.74819 16.2447 8.39844 16.5945 8.39844 17.026V19.2135C8.39844 19.645 8.74819 19.9947 9.17969 19.9947ZM9.17969 16.6354C8.96429 16.6354 8.78904 16.8106 8.78904 17.026V19.2135C8.78904 19.4289 8.96429 19.6041 9.17969 19.6041H11.3672C11.5826 19.6041 11.7578 19.4289 11.7578 19.2135V17.026C11.7578 16.8106 11.5826 16.6354 11.3672 16.6354H9.17969Z" fill="#8C8C8C"/>
<path fill-rule="evenodd" clip-rule="evenodd" d="M14.3359 19.9947H16.5234C16.9549 19.9947 17.3047 19.645 17.3047 19.2135V17.026C17.3047 16.5945 16.9549 16.2447 16.5234 16.2447H14.3359C13.9044 16.2447 13.5547 16.5945 13.5547 17.026V19.2135C13.5547 19.645 13.9044 19.9947 14.3359 19.9947ZM14.3359 16.6354C14.1205 16.6354 13.9453 16.8106 13.9453 17.026V19.2135C13.9453 19.4289 14.1205 19.6041 14.3359 19.6041H16.5234C16.7388 19.6041 16.914 19.4289 16.914 19.2135V17.026C16.914 16.8106 16.7388 16.6354 16.5234 16.6354H14.3359Z" fill="#8C8C8C"/>
<path fill-rule="evenodd" clip-rule="evenodd" d="M19.414 19.9947H21.6015C22.033 19.9947 22.3828 19.645 22.3828 19.2135V17.026C22.3828 16.5945 22.033 16.2447 21.6015 16.2447H19.414C18.9826 16.2447 18.6328 16.5945 18.6328 17.026V19.2135C18.6328 19.645 18.9826 19.9947 19.414 19.9947ZM19.414 16.6354C19.1986 16.6354 19.0234 16.8106 19.0234 17.026V19.2135C19.0234 19.4289 19.1986 19.6041 19.414 19.6041H21.6015C21.8169 19.6041 21.9922 19.4289 21.9922 19.2135V17.026C21.9922 16.8106 21.8169 16.6354 21.6015 16.6354H19.414Z" fill="#8C8C8C"/>
<path fill-rule="evenodd" clip-rule="evenodd" d="M24.4922 19.9947H26.6797C27.1111 19.9947 27.4609 19.645 27.4609 19.2135V17.026C27.4609 16.5945 27.1111 16.2447 26.6797 16.2447H24.4922C24.0607 16.2447 23.7109 16.5945 23.7109 17.026V19.2135C23.7109 19.645 24.0607 19.9947 24.4922 19.9947ZM24.4922 16.6354C24.2768 16.6354 24.1015 16.8106 24.1015 17.026V19.2135C24.1015 19.4289 24.2768 19.6041 24.4922 19.6041H26.6797C26.8951 19.6041 27.0703 19.4289 27.0703 19.2135V17.026C27.0703 16.8106 26.8951 16.6354 26.6797 16.6354H24.4922Z" fill="#8C8C8C"/>
<path fill-rule="evenodd" clip-rule="evenodd" d="M29.6484 19.9947H31.8333C32.2662 19.9947 32.6172 19.6437 32.6172 19.2108V17.026C32.6172 16.5945 32.2674 16.2447 31.8359 16.2447H29.6484C29.2169 16.2447 28.8672 16.5945 28.8672 17.026V19.2135C28.8672 19.645 29.2169 19.9947 29.6484 19.9947ZM29.6484 16.6354C29.433 16.6354 29.2578 16.8106 29.2578 17.026V19.2135C29.2578 19.4289 29.433 19.6041 29.6484 19.6041H31.8332C32.0501 19.6041 32.2265 19.4276 32.2265 19.2108V17.026C32.2265 16.8106 32.0513 16.6354 31.8359 16.6354H29.6484Z" fill="#8C8C8C"/>
<path d="M11.3672 20.3854H9.17969C8.53349 20.3854 8.00779 19.8597 8.00779 19.2135V17.026C8.00779 16.3798 8.53349 15.8541 9.17969 15.8541H11.3672C12.0133 15.8541 12.539 16.3798 12.539 17.026V19.2135C12.539 19.8597 12.0133 20.3854 11.3672 20.3854ZM9.17969 16.6354C8.96429 16.6354 8.78904 16.8106 8.78904 17.026V19.2135C8.78904 19.4289 8.96429 19.6041 9.17969 19.6041H11.3672C11.5826 19.6041 11.7578 19.4289 11.7578 19.2135V17.026C11.7578 16.8106 11.5826 16.6354 11.3672 16.6354H9.17969Z" fill="#8C8C8C"/>
<path d="M16.5234 20.3854H14.3359C13.6897 20.3854 13.164 19.8597 13.164 19.2135V17.026C13.164 16.3798 13.6897 15.8541 14.3359 15.8541H16.5234C17.1696 15.8541 17.6953 16.3798 17.6953 17.026V19.2135C17.6953 19.8597 17.1696 20.3854 16.5234 20.3854ZM14.3359 16.6354C14.1205 16.6354 13.9453 16.8106 13.9453 17.026V19.2135C13.9453 19.4289 14.1205 19.6041 14.3359 19.6041H16.5234C16.7388 19.6041 16.914 19.4289 16.914 19.2135V17.026C16.914 16.8106 16.7388 16.6354 16.5234 16.6354H14.3359Z" fill="#8C8C8C"/>
<path d="M21.6015 20.3854H19.414C18.7679 20.3854 18.2422 19.8597 18.2422 19.2135V17.026C18.2422 16.3798 18.7679 15.8541 19.414 15.8541H21.6015C22.2478 15.8541 22.7734 16.3798 22.7734 17.026V19.2135C22.7734 19.8597 22.2478 20.3854 21.6015 20.3854ZM19.414 16.6354C19.1986 16.6354 19.0234 16.8106 19.0234 17.026V19.2135C19.0234 19.4289 19.1986 19.6041 19.414 19.6041H21.6015C21.8169 19.6041 21.9922 19.4289 21.9922 19.2135V17.026C21.9922 16.8106 21.8169 16.6354 21.6015 16.6354H19.414Z" fill="#8C8C8C"/>
<path d="M26.6797 20.3854H24.4922C23.8459 20.3854 23.3203 19.8597 23.3203 19.2135V17.026C23.3203 16.3798 23.8459 15.8541 24.4922 15.8541H26.6797C27.3259 15.8541 27.8515 16.3798 27.8515 17.026V19.2135C27.8515 19.8597 27.3259 20.3854 26.6797 20.3854ZM24.4922 16.6354C24.2768 16.6354 24.1015 16.8106 24.1015 17.026V19.2135C24.1015 19.4289 24.2768 19.6041 24.4922 19.6041H26.6797C26.8951 19.6041 27.0703 19.4289 27.0703 19.2135V17.026C27.0703 16.8106 26.8951 16.6354 26.6797 16.6354H24.4922Z" fill="#8C8C8C"/>
<path d="M31.8332 20.3854H29.6484C29.0022 20.3854 28.4765 19.8597 28.4765 19.2135V17.026C28.4765 16.3798 29.0022 15.8541 29.6484 15.8541H31.8359C32.4822 15.8541 33.0078 16.3798 33.0078 17.026V19.2108C33.0078 19.8584 32.4808 20.3854 31.8332 20.3854ZM29.6484 16.6354C29.433 16.6354 29.2578 16.8106 29.2578 17.026V19.2135C29.2578 19.4289 29.433 19.6041 29.6484 19.6041H31.8332C32.0501 19.6041 32.2265 19.4276 32.2265 19.2108V17.026C32.2265 16.8106 32.0513 16.6354 31.8359 16.6354H29.6484Z" fill="#8C8C8C"/>
<path d="M11.3672 25.0729H9.17969C8.74819 25.0729 8.39844 24.7231 8.39844 24.2916V22.1041C8.39844 21.6726 8.74819 21.3229 9.17969 21.3229H11.3672C11.7986 21.3229 12.1484 21.6726 12.1484 22.1041V24.2916C12.1484 24.7231 11.7986 25.0729 11.3672 25.0729Z" fill="#8C8C8C"/>
<path d="M16.5234 25.0729H14.3359C13.9044 25.0729 13.5547 24.7231 13.5547 24.2916V22.1041C13.5547 21.6726 13.9044 21.3229 14.3359 21.3229H16.5234C16.9549 21.3229 17.3047 21.6726 17.3047 22.1041V24.2916C17.3047 24.7231 16.9549 25.0729 16.5234 25.0729Z" fill="#8C8C8C"/>
<path d="M21.6015 25.0729H19.414C18.9826 25.0729 18.6328 24.7231 18.6328 24.2916V22.1041C18.6328 21.6726 18.9826 21.3229 19.414 21.3229H21.6015C22.033 21.3229 22.3828 21.6726 22.3828 22.1041V24.2916C22.3828 24.7231 22.033 25.0729 21.6015 25.0729Z" fill="#8C8C8C"/>
<path d="M26.6797 25.0729H24.4922C24.0607 25.0729 23.7109 24.7231 23.7109 24.2916V22.1041C23.7109 21.6726 24.0607 21.3229 24.4922 21.3229H26.6797C27.1111 21.3229 27.4609 21.6726 27.4609 22.1041V24.2916C27.4609 24.7231 27.1111 25.0729 26.6797 25.0729Z" fill="#8C8C8C"/>
<path d="M31.8333 25.0729H29.6484C29.2169 25.0729 28.8672 24.7231 28.8672 24.2916V22.1041C28.8672 21.6726 29.2169 21.3229 29.6484 21.3229H31.8359C32.2674 21.3229 32.6172 21.6726 32.6172 22.1041V24.2889C32.6172 24.7219 32.2662 25.0729 31.8333 25.0729Z" fill="#8C8C8C"/>
<path d="M11.3645 30.151H9.17969C8.74819 30.151 8.39844 29.8012 8.39844 29.3697V27.1822C8.39844 26.7508 8.74819 26.401 9.17969 26.401H11.3672C11.7986 26.401 12.1484 26.7508 12.1484 27.1822V29.367C12.1484 29.7999 11.7975 30.151 11.3645 30.151Z" fill="#8C8C8C"/>
<path d="M16.5208 30.151H14.3359C13.9044 30.151 13.5547 29.8012 13.5547 29.3697V27.1822C13.5547 26.7508 13.9044 26.401 14.3359 26.401H16.5234C16.9549 26.401 17.3047 26.7508 17.3047 27.1822V29.367C17.3047 29.7999 16.9537 30.151 16.5208 30.151Z" fill="#8C8C8C"/>
<path d="M21.5989 30.151H19.414C18.9826 30.151 18.6328 29.8012 18.6328 29.3697V27.1822C18.6328 26.7508 18.9826 26.401 19.414 26.401H21.6015C22.033 26.401 22.3828 26.7508 22.3828 27.1822V29.367C22.3828 29.7999 22.0319 30.151 21.5989 30.151Z" fill="#8C8C8C"/>
<path d="M26.677 30.151H24.4922C24.0607 30.151 23.7109 29.8012 23.7109 29.3697V27.1822C23.7109 26.7508 24.0607 26.401 24.4922 26.401H26.6797C27.1111 26.401 27.4609 26.7508 27.4609 27.1822V29.367C27.4609 29.7999 27.1099 30.151 26.677 30.151Z" fill="#8C8C8C"/>
<path d="M33.789 8.51038H31.289V7.96348C31.289 7.31633 30.7644 6.79163 30.1172 6.79163H28.8672C28.3926 6.79163 28.0078 7.17638 28.0078 7.65098V8.51038H25.1953V7.65098C25.1953 7.17638 24.8105 6.79163 24.3359 6.79163H22.7734C22.2988 6.79163 21.914 7.17638 21.914 7.65098V8.51038H19.1015V7.65098C19.1015 7.17638 18.7168 6.79163 18.2422 6.79163H16.6797C16.2051 6.79163 15.8203 7.17638 15.8203 7.65098V8.51038H13.0078V7.65098C13.0078 7.17638 12.623 6.79163 12.1484 6.79163H10.7578C10.1883 6.79163 9.72654 7.25333 9.72654 7.82288V8.51038H6.99219C6.04294 8.51038 5.27344 9.27988 5.27344 10.2291V31.4617C5.27344 32.4205 6.05079 33.1979 7.00959 33.1979H12.719C12.7411 33.1979 12.763 33.1897 12.779 33.1743C13.1344 32.8336 12.8986 32.4166 12.5654 32.4166H7.22654C6.57939 32.4166 6.05469 31.8919 6.05469 31.2447V14.3697H34.9609V24.894C34.9609 25.0817 35.0866 25.2543 35.2707 25.2911C35.5218 25.3415 35.7422 25.1508 35.7422 24.9087V10.4631C35.7422 9.38638 34.866 8.51038 33.789 8.51038ZM29.1797 7.57288H30.1172C30.3329 7.57288 30.5078 7.74778 30.5078 7.96348V8.90098V10.3854C30.5078 10.6011 30.3329 10.776 30.1172 10.776H29.1797C28.964 10.776 28.789 10.6011 28.789 10.3854V8.90098V7.96348C28.789 7.74778 28.964 7.57288 29.1797 7.57288ZM23.0859 7.57288H24.0234C24.2391 7.57288 24.414 7.74778 24.414 7.96348V8.90098V10.3854C24.414 10.6011 24.2391 10.776 24.0234 10.776H23.0859C22.8702 10.776 22.6953 10.6011 22.6953 10.3854V8.90098V7.96348C22.6953 7.74778 22.8702 7.57288 23.0859 7.57288ZM16.9922 7.57288H17.9297C18.1454 7.57288 18.3203 7.74778 18.3203 7.96348V8.90098V10.3854C18.3203 10.6011 18.1454 10.776 17.9297 10.776H16.9922C16.7765 10.776 16.6015 10.6011 16.6015 10.3854V8.90098V7.96348C16.6015 7.74778 16.7765 7.57288 16.9922 7.57288ZM10.8984 7.57288H11.8359C12.0516 7.57288 12.2265 7.74778 12.2265 7.96348V8.90098V10.3854C12.2265 10.6011 12.0516 10.776 11.8359 10.776H10.8984C10.6827 10.776 10.5078 10.6011 10.5078 10.3854V8.90098V7.96348C10.5078 7.74778 10.6827 7.57288 10.8984 7.57288ZM6.05469 13.5885V10.4635C6.05469 9.81633 6.57939 9.29163 7.22654 9.29163H9.72654V10.3854C9.72654 11.0326 10.2512 11.5572 10.8984 11.5572H11.8359C12.4831 11.5572 13.0078 11.0326 13.0078 10.3854V9.29163H15.8203V10.3854C15.8203 11.0326 16.345 11.5572 16.9922 11.5572H17.9297C18.5768 11.5572 19.1015 11.0326 19.1015 10.3854V9.29163H21.914V10.3854C21.914 11.0326 22.4387 11.5572 23.0859 11.5572H24.0234C24.6706 11.5572 25.1953 11.0326 25.1953 10.3854V9.29163H28.0078V10.3854C28.0078 11.0326 28.5325 11.5572 29.1797 11.5572H30.1172C30.7644 11.5572 31.289 11.0326 31.289 10.3854V9.29163H33.789C34.4362 9.29163 34.9609 9.81633 34.9609 10.4635V13.5885H6.05469Z" fill="#8C8C8C"/>
<path d="M34.9609 26.9766V31.1018C34.9609 31.8279 34.3722 32.4166 33.6462 32.4166H14.5987C14.5766 32.4166 14.5547 32.4248 14.5387 32.4401C14.1833 32.7808 14.4191 33.1979 14.7522 33.1979H33.8882C34.9121 33.1979 35.7422 32.3678 35.7422 31.3439V27.13C35.7422 26.7966 35.3247 26.561 34.9844 26.9168C34.9691 26.9326 34.9609 26.9546 34.9609 26.9766Z" fill="#8C8C8C"/>
</g>
</g>
<defs>
<clipPath id="clip0_81523_14442">
<rect width="40" height="40" fill="white"/>
</clipPath>
</defs>
</svg>
