<svg width="40" height="40" viewBox="0 0 40 40" fill="none" xmlns="http://www.w3.org/2000/svg">
<path d="M30.0547 6.35254C31.5258 6.35256 32.7314 7.52353 32.7314 8.9834V18.999C35.9658 19.959 38.3251 22.9541 38.3252 26.5C38.3252 30.8207 34.8226 34.3232 30.502 34.3232C28.5124 34.3232 26.6959 33.5807 25.3154 32.3574H3.83398C2.62465 32.3572 1.64478 31.3773 1.64453 30.168V14.2578C1.64468 13.0421 2.65378 12.1134 3.80859 12.1436V8.9834C3.80859 7.52365 5.01446 6.35276 6.48535 6.35254H30.0547ZM25.7725 26.7285C25.594 26.7285 25.4494 26.8733 25.4492 27.0518V29.4424C25.4492 29.5154 25.4554 29.5871 25.4688 29.6562C25.4767 29.6975 25.4876 29.7378 25.5 29.7773C25.5411 29.9087 25.6052 30.0302 25.6885 30.1357C25.8936 30.3958 26.2124 30.5625 26.5693 30.5625H34.3799C34.9983 30.5623 35.4999 30.0609 35.5 29.4424V27.0518C35.4999 26.8735 35.355 26.7287 35.1768 26.7285H33.583C33.4045 26.7285 33.2599 26.8733 33.2598 27.0518V28.3223H27.6895V27.0518C27.6893 26.8735 27.5445 26.7287 27.3662 26.7285H25.7725ZM27.043 28.6455C27.043 28.7524 27.0948 28.8474 27.1748 28.9062C27.2283 28.9456 27.2948 28.9687 27.3662 28.9688H33.583C33.7612 28.9685 33.9061 28.8238 33.9062 28.6455V27.375H34.8535V29.4424C34.8535 29.7038 34.6413 29.9158 34.3799 29.916H26.5693C26.4387 29.916 26.3201 29.863 26.2344 29.7773C26.199 29.742 26.1693 29.7013 26.1465 29.6562C26.114 29.5921 26.0957 29.5192 26.0957 29.4424V27.375H27.043V28.6455ZM12.375 25.375V28.9062H23.0557C22.8109 28.1482 22.6787 27.3395 22.6787 26.5C22.6787 26.1182 22.7063 25.7425 22.7588 25.375H12.375ZM4.55859 27.0264C4.55865 28.0576 5.41428 28.906 6.48535 28.9062H11.625V10H4.55859V27.0264ZM30.4785 20.5107C30.3828 20.5108 30.2918 20.5535 30.2305 20.627L29.3994 21.625L29.375 21.6533L28.7744 22.375L28.625 22.5537L28.2383 23.0186C28.158 23.1148 28.1403 23.2488 28.1934 23.3623C28.2466 23.4759 28.3609 23.5488 28.4863 23.5488H29.3584V24.625H29.375V25H29.3584V27.0508C29.3584 27.2293 29.5032 27.3739 29.6816 27.374H31.2754C31.4539 27.374 31.5986 27.2293 31.5986 27.0508V23.5488H32.4717C32.5758 23.5487 32.6715 23.4982 32.7314 23.416C32.7436 23.3994 32.7547 23.3814 32.7637 23.3623C32.8139 23.2548 32.801 23.129 32.7314 23.0342C32.7276 23.029 32.7239 23.0236 32.7197 23.0186L32.3564 22.583L32.1836 22.375L31.9814 22.1328L31.5586 21.625L30.7275 20.627C30.6661 20.5533 30.5744 20.5108 30.4785 20.5107ZM30.7158 21.625L31.3418 22.375L31.7812 22.9023H31.2754C31.0971 22.9025 30.9522 23.0472 30.9521 23.2256V26.7275H30.0049V23.2256C30.0048 23.0471 29.8601 22.9024 29.6816 22.9023H29.1768L29.375 22.6641L29.6162 22.375L30.2412 21.625L30.4785 21.3398L30.7158 21.625ZM19.375 24.625H22.9033C23.0644 23.9656 23.3087 23.3387 23.625 22.7568V22.375H19.375V24.625ZM12.375 24.625H18.625V22.375H12.375V24.625ZM19.375 19.375V21.625H23.625V19.375H19.375ZM12.375 21.625H18.625V19.375H12.375V21.625ZM29.3857 16.375C29.4046 16.4393 29.415 16.5077 29.415 16.5781C29.415 16.6606 29.4006 16.7397 29.375 16.8135V18.625H31.9814V16.375H29.3857ZM12.375 18.625H18.625V16.375H12.375V18.625ZM19.375 18.625H23.625V16.375H19.375V18.625ZM24.375 18.625H28.625V16.375H24.375V18.625ZM12.375 15.625H18.625V13.375H12.375V15.625ZM19.375 15.625H23.625V13.375H19.375V15.625ZM24.375 15.625H28.625V13.375H24.375V15.625ZM29.375 15.625H31.9814V13.375H29.375V15.625ZM29.375 12.625H31.9814V10H29.375V12.625ZM12.375 12.625H18.625V10H12.375V12.625ZM19.375 12.625H23.625V10H19.375V12.625ZM24.375 12.625H28.625V10H24.375V12.625ZM6.5 8C6.22386 8 6 8.22386 6 8.5C6.00006 8.77609 6.22389 9 6.5 9C6.77611 9 6.99994 8.77609 7 8.5C7 8.22386 6.77614 8 6.5 8ZM8.5 8C8.22386 8 8 8.22386 8 8.5C8.00006 8.77609 8.22389 9 8.5 9C8.77611 9 8.99994 8.77609 9 8.5C9 8.22386 8.77614 8 8.5 8ZM10.5 8C10.2239 8 10 8.22386 10 8.5C10.0001 8.77609 10.2239 9 10.5 9C10.7761 9 10.9999 8.77609 11 8.5C11 8.22386 10.7761 8 10.5 8ZM24.375 21.625C25.1407 20.6651 26.1357 19.8894 27.2666 19.375H24.375V21.625Z" fill="#8C8C8C"/>
</svg>
