<svg width="40" height="40" viewBox="0 0 40 40" fill="none" xmlns="http://www.w3.org/2000/svg">
<path fill-rule="evenodd" clip-rule="evenodd" d="M33.7117 20.7527L33.625 20.6774V21.8158L33.7088 21.744L33.7539 21.7832L34.019 21.4781L34.2441 21.2852L34.2156 21.2519L34.2461 21.2168L34.0103 21.012L33.7559 20.7148L33.7117 20.7527ZM33.625 32.36V33.22L33.8164 33.3271L34.1836 32.6729L33.625 32.36ZM17.5143 35.625H16.3607L16.2559 35.7148L16.7441 36.2852L17.5143 35.625Z" fill="#BBBBBB"/>
<path fill-rule="evenodd" clip-rule="evenodd" d="M19.2968 8.23449L18.7281 7.74065L18.1962 8.27256L18.7649 8.7664L19.2968 8.23449Z" fill="#BBBBBB"/>
<path d="M34.2441 21.2852L34.019 21.4781L33.7088 21.744L33.625 21.8158L17.5143 35.625L16.7441 36.2852L16.2559 35.7148L16.3607 35.625L24.88 28.3227L25.4868 27.8026L33.7117 20.7527L33.7559 20.7148L34.0103 21.012L34.2156 21.2519L34.2441 21.2852Z" fill="#BBBBBB"/>
<path fill-rule="evenodd" clip-rule="evenodd" d="M19.2968 8.23449L18.7281 7.74065L18.1962 8.27256L18.7649 8.7664L33.7088 21.744L33.7539 21.7832L34.019 21.4781L34.2156 21.2519L34.2461 21.2168L34.0103 21.012L33.7117 20.7527L33.625 20.6774L19.2968 8.23449ZM33.625 32.36L25.4868 27.8026L24.88 28.3227L33.625 33.22L33.8164 33.3271L34.1836 32.6729L33.625 32.36Z" fill="#BBBBBB"/>
<path d="M8 34C8.23649 34 8.4538 33.9179 8.625 33.7807V34C8.625 35.3117 9.68832 36.375 11 36.375H32C33.3117 36.375 34.375 35.3117 34.375 34V13.5C34.375 13.2929 34.2071 13.125 34 13.125C33.7929 13.125 33.625 13.2929 33.625 13.5V20.6774L33.7117 20.7527L33.7559 20.7148L34.0103 21.012L34.2461 21.2168L34.2156 21.2519L34.2441 21.2852L34.019 21.4781L33.7539 21.7832L33.7088 21.744L33.625 21.8158V32.36L34.1836 32.6729L33.8164 33.3271L33.625 33.22V34C33.625 34.8975 32.8975 35.625 32 35.625H17.5143L16.7441 36.2852L16.2559 35.7148L16.3607 35.625H11C10.1025 35.625 9.375 34.8975 9.375 34V19.64L13.5832 21.9965C13.5015 21.6744 13.4327 21.3491 13.3791 21.0223L9.375 18.78V18.1562L18.7649 8.7664L18.1962 8.27256L18.7281 7.74065L19.2968 8.23449L22.1562 5.375H32C32.8975 5.375 33.625 6.10254 33.625 7V10C33.625 10.2071 33.7929 10.375 34 10.375C34.2071 10.375 34.375 10.2071 34.375 10V7C34.375 5.68832 33.3117 4.625 32 4.625H30.7807C30.9179 4.4538 31 4.23649 31 4C31 3.44772 30.5523 3 30 3H8C6.89543 3 6 3.89543 6 5V32.5C6 33.3284 6.67157 34 7.5 34H8ZM18.7281 7.74065L16.004 5.375H21.0938L18.7281 7.74065ZM18.1962 8.27256L9.375 17.0938V7C9.375 6.10254 10.1025 5.375 11 5.375H14.8596L18.1962 8.27256Z" fill="#BBBBBB"/>
<path fill-rule="evenodd" clip-rule="evenodd" d="M19.9922 28.626C20.4442 28.0788 20.9856 27.3237 21.5134 26.4375L24.88 28.3227L25.4868 27.8026L21.8853 25.7858C22.8633 23.9954 23.75 21.72 23.75 19.5C23.75 16.6005 21.3995 14.25 18.5 14.25C15.6005 14.25 13.25 16.6005 13.25 19.5C13.25 20.0067 13.2962 20.5163 13.3791 21.0223C13.4327 21.3491 13.5015 21.6744 13.5832 21.9965C13.9853 23.5833 14.6974 25.0922 15.415 26.3164C15.9652 27.2549 16.5353 28.054 17.0078 28.626C17.2427 28.9103 17.463 29.151 17.6533 29.3271C17.747 29.4139 17.849 29.4988 17.9521 29.5674C18.0037 29.6016 18.0694 29.6409 18.1455 29.6738C18.2138 29.7033 18.3405 29.75 18.5 29.75C18.6595 29.75 18.7862 29.7033 18.8545 29.6738C18.9306 29.6409 18.9963 29.6016 19.0479 29.5674C19.151 29.4988 19.253 29.4139 19.3467 29.3271C19.537 29.151 19.7573 28.9103 19.9922 28.626ZM17 19.5C17 20.3284 17.6716 21 18.5 21C19.3284 21 20 20.3284 20 19.5C20 18.6716 19.3284 18 18.5 18C17.6716 18 17 18.6716 17 19.5Z" fill="#BBBBBB"/>
</svg>
