<svg width="40" height="40" viewBox="0 0 40 40" fill="none" xmlns="http://www.w3.org/2000/svg">
<g clip-path="url(#clip0_81523_14134)">
<path d="M36.0463 20.752C37.3282 20.8051 38.351 21.8611 38.351 23.1564V31.2911C38.351 32.6204 37.2736 33.6985 35.9444 33.6985H25.6681H24.6084" stroke="#8C8C8C" stroke-width="0.75" stroke-miterlimit="10" stroke-linecap="round" stroke-linejoin="round"/>
<path d="M24.6084 20.749H25.6681H33.5363" stroke="#8C8C8C" stroke-width="0.75" stroke-miterlimit="10" stroke-linecap="round" stroke-linejoin="round"/>
<path d="M28.0586 22.876H35.9438C36.0981 22.876 36.2237 23.0015 36.2237 23.1559V31.2906C36.2237 31.445 36.0981 31.5705 35.9438 31.5705H28.0586" stroke="#8C8C8C" stroke-width="0.75" stroke-miterlimit="10" stroke-linecap="round" stroke-linejoin="round"/>
<path d="M32.8365 36.3119H28.2295L28.8899 33.6973H32.176L32.8365 36.3119Z" stroke="#8C8C8C" stroke-width="0.75" stroke-miterlimit="10" stroke-linecap="round" stroke-linejoin="round"/>
<path d="M33.7803 38.3326H27.2845C26.7266 38.3326 26.2744 37.8804 26.2744 37.3226C26.2744 36.7647 26.7266 36.3125 27.2845 36.3125H33.7803C34.3381 36.3125 34.7903 36.7647 34.7903 37.3226C34.7903 37.8804 34.3381 38.3326 33.7803 38.3326Z" stroke="#8C8C8C" stroke-width="0.75" stroke-miterlimit="10" stroke-linecap="round" stroke-linejoin="round"/>
<path d="M28.0752 29.8746H32.658C33.0701 29.8746 33.4039 29.5408 33.4039 29.1288V26.3411C33.4039 25.929 33.0701 25.5953 32.658 25.5953H30.6273C30.3666 25.5953 30.1251 25.4601 29.99 25.2378L29.8032 24.9314C29.668 24.7091 29.4266 24.5732 29.1666 24.5732H28.0752" fill="#8C8C8C"/>
<path d="M28.0752 29.8746H32.658C33.0701 29.8746 33.4039 29.5408 33.4039 29.1288V26.3411C33.4039 25.929 33.0701 25.5953 32.658 25.5953H30.6273C30.3666 25.5953 30.1251 25.4601 29.99 25.2378L29.8032 24.9314C29.668 24.7091 29.4266 24.5732 29.1666 24.5732H28.0752" stroke="#8C8C8C" stroke-width="0.75" stroke-miterlimit="10" stroke-linecap="round" stroke-linejoin="round"/>
<path d="M14.333 20.7489H15.3927H25.6682C26.9982 20.7489 28.0756 21.8263 28.0756 23.1555V31.2903C28.0756 32.6195 26.9982 33.6977 25.6682 33.6977H15.3927H14.333" stroke="#8C8C8C" stroke-width="0.75" stroke-miterlimit="10" stroke-linecap="round" stroke-linejoin="round"/>
<path d="M17.7852 22.876H25.6696C25.8239 22.876 25.9495 23.0015 25.9495 23.1559V31.2906C25.9495 31.445 25.8239 31.5705 25.6696 31.5705H17.7852" stroke="#8C8C8C" stroke-width="0.75" stroke-miterlimit="10" stroke-linecap="round" stroke-linejoin="round"/>
<path d="M22.5621 36.3119H17.9551L18.6155 33.6973H21.9016L22.5621 36.3119Z" stroke="#8C8C8C" stroke-width="0.75" stroke-miterlimit="10" stroke-linecap="round" stroke-linejoin="round"/>
<path d="M23.5058 38.3326H17.0101C16.4522 38.3326 16 37.8804 16 37.3226C16 36.7647 16.4522 36.3125 17.0101 36.3125H23.5058C24.0637 36.3125 24.5159 36.7647 24.5159 37.3226C24.5159 37.8804 24.0637 38.3326 23.5058 38.3326Z" stroke="#8C8C8C" stroke-width="0.75" stroke-miterlimit="10" stroke-linecap="round" stroke-linejoin="round"/>
<path d="M17.7998 29.8746H22.3826C22.7947 29.8746 23.1285 29.5408 23.1285 29.1288V26.3411C23.1285 25.929 22.7947 25.5953 22.3826 25.5953H20.3512C20.0912 25.5953 19.8497 25.4601 19.7146 25.2378L19.5278 24.9314C19.3926 24.7091 19.1512 24.5732 18.8912 24.5732H17.7998" fill="#8C8C8C"/>
<path d="M17.7998 29.8746H22.3826C22.7947 29.8746 23.1285 29.5408 23.1285 29.1288V26.3411C23.1285 25.929 22.7947 25.5953 22.3826 25.5953H20.3512C20.0912 25.5953 19.8497 25.4601 19.7146 25.2378L19.5278 24.9314C19.3926 24.7091 19.1512 24.5732 18.8912 24.5732H17.7998" stroke="#8C8C8C" stroke-width="0.75" stroke-miterlimit="10" stroke-linecap="round" stroke-linejoin="round"/>
<path d="M15.3941 33.6976H4.05835C2.72906 33.6976 1.65137 32.6199 1.65137 31.2906V23.156C1.65137 21.8267 2.72899 20.749 4.05835 20.749H15.3941C16.7234 20.749 17.8011 21.8266 17.8011 23.156V31.2906C17.801 32.6199 16.7234 33.6976 15.3941 33.6976Z" stroke="#8C8C8C" stroke-width="0.75" stroke-miterlimit="10" stroke-linecap="round" stroke-linejoin="round"/>
<path d="M9.94218 31.5705H15.3942C15.5485 31.5705 15.674 31.445 15.674 31.2906V23.1558C15.674 23.0015 15.5485 22.876 15.3942 22.876H4.05819C3.90386 22.876 3.77832 23.0015 3.77832 23.1558V31.2906C3.77832 31.445 3.90386 31.5705 4.05819 31.5705H7.35907" stroke="#8C8C8C" stroke-width="0.75" stroke-miterlimit="10" stroke-linecap="round" stroke-linejoin="round"/>
<path d="M12.2867 36.3119H7.67969L8.34016 33.6973H11.6262L12.2867 36.3119Z" stroke="#8C8C8C" stroke-width="0.75" stroke-miterlimit="10" stroke-linecap="round" stroke-linejoin="round"/>
<path d="M13.2314 38.3326H6.73564C6.17781 38.3326 5.72559 37.8804 5.72559 37.3226C5.72559 36.7647 6.17781 36.3125 6.73564 36.3125H13.2314C13.7893 36.3125 14.2415 36.7647 14.2415 37.3226C14.2415 37.8804 13.7893 38.3326 13.2314 38.3326Z" stroke="#8C8C8C" stroke-width="0.75" stroke-miterlimit="10" stroke-linecap="round" stroke-linejoin="round"/>
<path d="M12.8535 26.3412V29.1286C12.8535 29.5405 12.5195 29.8744 12.1077 29.8744H7.34342C6.93151 29.8744 6.59766 29.5404 6.59766 29.1286V25.319C6.59766 24.9071 6.93158 24.5732 7.34342 24.5732H8.61614C8.8763 24.5732 9.1177 24.7088 9.25306 24.931L9.43981 25.2376C9.57517 25.4598 9.81657 25.5953 10.0767 25.5953H12.1078C12.5195 25.5954 12.8535 25.9293 12.8535 26.3412Z" fill="#8C8C8C" stroke="#8C8C8C" stroke-width="0.75" stroke-miterlimit="10" stroke-linecap="round" stroke-linejoin="round"/>
<path d="M9.98242 20.7487V18.3088C9.98242 17.7348 10.4477 17.2695 11.0216 17.2695H29.4945C30.0685 17.2695 30.5338 17.7348 30.5338 18.3088V20.7487" stroke="#8C8C8C" stroke-width="0.75" stroke-miterlimit="10" stroke-linecap="round" stroke-linejoin="round"/>
<path d="M20.2568 20.7492V13.9355" stroke="#8C8C8C" stroke-width="0.75" stroke-miterlimit="10" stroke-linecap="round" stroke-linejoin="round"/>
<path d="M17.6885 1.29297C18.4218 1.29303 19.1013 1.67516 19.4824 2.30078L19.9141 3.01074C20.1591 3.41284 20.5973 3.6582 21.0684 3.6582H25.7686C26.928 3.65827 27.869 4.59837 27.8691 5.75879V12.209C27.8691 13.3687 26.9282 14.3105 25.7686 14.3105H14.7432C13.5827 14.3105 12.6426 13.3685 12.6426 12.209V3.39355C12.6427 2.23325 13.5829 1.29306 14.7432 1.29297H17.6885ZM22.9258 12.2715C22.7187 12.2715 22.5508 12.4394 22.5508 12.6465C22.5508 12.8536 22.7187 13.0215 22.9258 13.0215C23.1329 13.0215 23.3008 12.8536 23.3008 12.6465C23.3008 12.4394 23.1329 12.2715 22.9258 12.2715ZM24.2617 12.2715C24.0546 12.2715 23.8867 12.4394 23.8867 12.6465C23.8867 12.8536 24.0546 13.0215 24.2617 13.0215C24.4688 13.0215 24.6367 12.8536 24.6367 12.6465C24.6367 12.4394 24.4688 12.2715 24.2617 12.2715ZM25.5977 12.2715C25.3905 12.2715 25.2227 12.4394 25.2227 12.6465C25.2227 12.8536 25.3905 13.0215 25.5977 13.0215C25.8048 13.0215 25.9727 12.8536 25.9727 12.6465C25.9727 12.4394 25.8048 12.2715 25.5977 12.2715Z" fill="#8C8C8C"/>
</g>
<defs>
<clipPath id="clip0_81523_14134">
<rect width="40" height="40" fill="white"/>
</clipPath>
</defs>
</svg>
