<svg width="40" height="40" viewBox="0 0 40 40" fill="none" xmlns="http://www.w3.org/2000/svg">
<g clip-path="url(#clip0_81523_14170)">
<mask id="mask0_81523_14170" style="mask-type:luminance" maskUnits="userSpaceOnUse" x="0" y="0" width="41" height="40">
<path d="M40.25 0H0.25V40H40.25V0Z" fill="white"/>
</mask>
<g mask="url(#mask0_81523_14170)">
<path fill-rule="evenodd" clip-rule="evenodd" d="M35.7839 30.8406V6.725C35.7839 5.8617 35.0839 5.1625 34.2214 5.1625L17.0645 5.16258C17.0645 5.37838 17.2394 5.55323 17.4551 5.55323H34.2218C34.8679 5.55323 35.3936 6.07893 35.3936 6.72508V9.29635H6.41959V6.7246C6.41959 6.07845 6.94529 5.55275 7.59144 5.55275H15.1586C15.3742 5.55275 15.549 5.37771 15.5492 5.1621L7.59174 5.1625C6.72924 5.1625 6.02924 5.8617 6.02924 6.725V23.852C6.71206 23.2642 7.5319 22.8313 8.43362 22.6086C8.88225 22.4978 9.35116 22.439 9.83354 22.439C13.0528 22.439 15.6719 25.0581 15.6719 28.2773C15.6719 28.9559 15.5556 29.6077 15.3418 30.214C15.0485 31.0457 14.5719 31.7917 13.9606 32.4031C13.9476 32.0652 13.8704 31.7429 13.7468 31.4467C13.5367 30.9431 13.1819 30.5149 12.7345 30.214C12.3397 29.9485 11.8727 29.782 11.3692 29.75C12.1727 29.2369 12.7207 28.3362 12.7207 27.3105V26.6509C12.7207 25.0563 11.4281 23.7637 9.83352 23.7637C9.32554 23.7637 8.84824 23.8949 8.43362 24.1253C7.54683 24.6181 6.9468 25.5644 6.9468 26.6509V27.3105C6.9468 28.3365 7.49149 29.2373 8.29592 29.75C7.3352 29.8118 6.50788 30.3639 6.06163 31.1586C6.1285 31.482 6.29531 31.7688 6.52827 31.9853C6.75966 31.1264 7.5441 30.4942 8.4761 30.4941H8.68362C8.90422 30.4941 9.09885 30.3831 9.21491 30.214C9.28604 30.1103 9.32766 29.9848 9.32766 29.8496C9.32763 29.5771 9.15948 29.3543 8.94094 29.252C8.7563 29.1654 8.58562 29.0532 8.43362 28.9201C7.98326 28.5258 7.6968 27.9484 7.6968 27.3105V26.6509C7.6968 26.0061 7.98222 25.4281 8.43362 25.0362C8.80856 24.7107 9.29801 24.5137 9.83352 24.5137C11.0139 24.5137 11.9707 25.4705 11.9707 26.6509V27.3105C11.9707 28.1081 11.5185 28.8141 10.8594 29.1831L10.7251 29.252C10.5209 29.3482 10.3606 29.5499 10.3413 29.7988L10.3394 29.8496L10.3428 29.9155C10.354 30.0255 10.3929 30.1274 10.4524 30.214C10.5687 30.3832 10.7636 30.4941 10.9844 30.4941H11.1909C12.1503 30.4941 12.9529 31.1629 13.1582 32.0593C13.1837 32.1707 13.1999 32.2856 13.2062 32.4031H13.9606H34.2214C35.0839 32.4031 35.7839 31.7039 35.7839 30.8406ZM12.1631 32.3667V32.4031H11.3819V32.3667C11.3819 32.1511 11.5569 31.9761 11.7725 31.9761C11.8803 31.9761 11.9787 32.0198 12.049 32.0901C12.1194 32.1612 12.1631 32.2589 12.1631 32.3667ZM7.59174 32.4031C7.56228 32.4031 7.533 32.4023 7.50393 32.4007V32.3667C7.50393 32.1511 7.67893 31.9761 7.89453 31.9761C8.00238 31.9761 8.10003 32.0198 8.17033 32.0901C8.24143 32.1612 8.28518 32.2589 8.28518 32.3667V32.4031H7.59174ZM16.1638 30.214H33.1442C33.36 30.214 33.5348 30.0391 33.5348 29.8234V11.5566C33.5348 11.3409 33.3599 11.166 33.1442 11.166H8.82427C8.60857 11.166 8.43362 11.3409 8.43362 11.5566V21.8068C8.88499 21.7092 9.35336 21.6577 9.83354 21.6577C13.4836 21.6577 16.4532 24.6272 16.4532 28.2773C16.4532 28.9509 16.3519 29.6012 16.1638 30.214ZM22.4285 19.5752V17.2093C22.4285 16.5332 21.8785 15.9832 21.2025 15.9832C20.5265 15.9832 19.9765 16.5332 19.9765 17.2093V17.6373C19.9765 17.9738 19.7037 18.2466 19.3672 18.2466C19.0307 18.2466 18.7578 17.9738 18.7578 17.6373V17.2093C18.7578 15.8613 19.8546 14.7646 21.2026 14.7646C22.5506 14.7646 23.6473 15.8613 23.6473 17.2093V19.5873C23.6473 19.628 23.6433 19.6678 23.6356 19.7064C24.0321 19.9075 24.3038 20.319 24.3038 20.794V24.0165C24.3037 24.6897 23.7582 25.2353 23.0851 25.2353H19.3194C18.6463 25.2353 18.1006 24.6896 18.1006 24.0165V20.794C18.1006 20.1209 18.6463 19.5752 19.3194 19.5752H22.4285ZM8.82427 7.80957C9.04002 7.80957 9.21487 7.63467 9.21487 7.41897C9.21487 7.20322 9.04002 7.02832 8.82427 7.02832C8.60852 7.02832 8.43362 7.20322 8.43362 7.41897C8.43362 7.63467 8.60852 7.80957 8.82427 7.80957ZM10.1465 7.80957C10.3622 7.80957 10.5371 7.63467 10.5371 7.41897C10.5371 7.20322 10.3622 7.02832 10.1465 7.02832C9.93078 7.02832 9.75588 7.20322 9.75588 7.41897C9.75588 7.63467 9.93078 7.80957 10.1465 7.80957ZM11.4678 7.80957C11.6836 7.80957 11.8584 7.63467 11.8584 7.41897C11.8584 7.20322 11.6836 7.02832 11.4678 7.02832C11.2521 7.02832 11.0772 7.20322 11.0772 7.41897C11.0772 7.63467 11.2521 7.80957 11.4678 7.80957ZM32.9887 7.80957H13.6924C13.4767 7.80957 13.3018 7.63467 13.3018 7.41897C13.3018 7.20327 13.4767 7.02832 13.6924 7.02832H32.9887C33.2044 7.02832 33.3794 7.20327 33.3794 7.41897C33.3794 7.63467 33.2045 7.80957 32.9887 7.80957ZM21.2027 23.7998C20.8231 23.7998 20.5156 23.4921 20.5156 23.1128V22.4453C20.5156 22.0658 20.8233 21.7583 21.2027 21.7583C21.5821 21.7583 21.8897 22.0659 21.8897 22.4453V23.1128C21.8897 23.4921 21.5821 23.7998 21.2027 23.7998Z" fill="#8C8C8C"/>
<path fill-rule="evenodd" clip-rule="evenodd" d="M12.7345 30.214H10.4524C10.3929 30.1274 10.354 30.0255 10.3428 29.9155L10.3394 29.8496L10.3413 29.7988C10.3606 29.5499 10.5209 29.3482 10.7251 29.252L10.8594 29.1831C11.5185 28.8141 11.9707 28.1081 11.9707 27.3105V26.6509C11.9707 25.4705 11.0139 24.5137 9.83352 24.5137C9.29801 24.5137 8.80856 24.7107 8.43362 25.0362V24.1253C8.84824 23.8949 9.32554 23.7637 9.83352 23.7637C11.4281 23.7637 12.7207 25.0563 12.7207 26.6509V27.3105C12.7207 28.3362 12.1727 29.2369 11.3692 29.75C11.8727 29.782 12.3397 29.9485 12.7345 30.214ZM9.32766 29.8496C9.32766 29.9848 9.28604 30.1103 9.21491 30.214H8.82427C8.60857 30.214 8.43362 30.0391 8.43362 29.8234V28.9201C8.58562 29.0532 8.7563 29.1654 8.94094 29.252C9.15948 29.3543 9.32763 29.5771 9.32766 29.8496ZM15.3418 30.214C15.5556 29.6077 15.6719 28.9559 15.6719 28.2773C15.6719 25.0581 13.0528 22.439 9.83354 22.439C9.35116 22.439 8.88225 22.4978 8.43362 22.6086V21.8068C8.88499 21.7092 9.35336 21.6577 9.83354 21.6577C13.4836 21.6577 16.4532 24.6272 16.4532 28.2773C16.4532 28.9509 16.3519 29.6012 16.1638 30.214H15.3418ZM22.4285 17.2093V19.5752H19.3194C18.6463 19.5752 18.1006 20.1209 18.1006 20.794V24.0165C18.1006 24.6896 18.6463 25.2353 19.3194 25.2353H23.0851C23.7582 25.2353 24.3037 24.6897 24.3038 24.0165V20.794C24.3038 20.319 24.0321 19.9075 23.6356 19.7064C23.6433 19.6678 23.6473 19.628 23.6473 19.5873V17.2093C23.6473 15.8613 22.5506 14.7646 21.2026 14.7646C19.8546 14.7646 18.7578 15.8613 18.7578 17.2093V17.6373C18.7578 17.9738 19.0307 18.2466 19.3672 18.2466C19.7037 18.2466 19.9765 17.9738 19.9765 17.6373V17.2093C19.9765 16.5332 20.5265 15.9832 21.2025 15.9832C21.8785 15.9832 22.4285 16.5332 22.4285 17.2093ZM21.2027 23.7998C20.8231 23.7998 20.5156 23.4921 20.5156 23.1128V22.4453C20.5156 22.0658 20.8233 21.7583 21.2027 21.7583C21.5821 21.7583 21.8897 22.0659 21.8897 22.4453V23.1128C21.8897 23.4921 21.5821 23.7998 21.2027 23.7998Z" fill="#8C8C8C"/>
<path fill-rule="evenodd" clip-rule="evenodd" d="M35.7839 6.725L35.7838 9.29635H35.3936V6.72508C35.3936 6.07893 34.8679 5.55323 34.2218 5.55323H17.4551C17.2394 5.55323 17.0645 5.37838 17.0645 5.16258L34.2214 5.1625C35.0839 5.1625 35.7839 5.8617 35.7839 6.725ZM15.5492 5.1621C15.549 5.37771 15.3742 5.55275 15.1586 5.55275H7.59144C6.94529 5.55275 6.41959 6.07845 6.41959 6.7246V9.29635H6.02932L6.02924 6.725C6.02924 5.8617 6.72924 5.1625 7.59174 5.1625L15.5492 5.1621ZM9.21487 7.41897C9.21487 7.63467 9.04002 7.80957 8.82427 7.80957C8.60852 7.80957 8.43362 7.63467 8.43362 7.41897C8.43362 7.20322 8.60852 7.02832 8.82427 7.02832C9.04002 7.02832 9.21487 7.20322 9.21487 7.41897ZM10.5371 7.41897C10.5371 7.63467 10.3622 7.80957 10.1465 7.80957C9.93078 7.80957 9.75588 7.63467 9.75588 7.41897C9.75588 7.20322 9.93078 7.02832 10.1465 7.02832C10.3622 7.02832 10.5371 7.20322 10.5371 7.41897ZM11.8584 7.41897C11.8584 7.63467 11.6836 7.80957 11.4678 7.80957C11.2521 7.80957 11.0772 7.63467 11.0772 7.41897C11.0772 7.20322 11.2521 7.02832 11.4678 7.02832C11.6836 7.02832 11.8584 7.20322 11.8584 7.41897ZM13.6924 7.80957H32.9887C33.2045 7.80957 33.3794 7.63467 33.3794 7.41897C33.3794 7.20327 33.2044 7.02832 32.9887 7.02832H13.6924C13.4767 7.02832 13.3018 7.20327 13.3018 7.41897C13.3018 7.63467 13.4767 7.80957 13.6924 7.80957Z" fill="#8C8C8C"/>
<path d="M8.82427 7.80957C9.04002 7.80957 9.21487 7.63467 9.21487 7.41897C9.21487 7.20322 9.04002 7.02832 8.82427 7.02832C8.60852 7.02832 8.43362 7.20322 8.43362 7.41897C8.43362 7.63467 8.60852 7.80957 8.82427 7.80957Z" fill="#8C8C8C"/>
<path d="M10.1465 7.80957C10.3622 7.80957 10.5371 7.63467 10.5371 7.41897C10.5371 7.20322 10.3622 7.02832 10.1465 7.02832C9.93078 7.02832 9.75588 7.20322 9.75588 7.41897C9.75588 7.63467 9.93078 7.80957 10.1465 7.80957Z" fill="#8C8C8C"/>
<path d="M11.4678 7.80957C11.6836 7.80957 11.8584 7.63467 11.8584 7.41897C11.8584 7.20322 11.6836 7.02832 11.4678 7.02832C11.2521 7.02832 11.0772 7.20322 11.0772 7.41897C11.0772 7.63467 11.2521 7.80957 11.4678 7.80957Z" fill="#8C8C8C"/>
<path d="M32.9887 7.80957H13.6924C13.4767 7.80957 13.3018 7.63467 13.3018 7.41897C13.3018 7.20327 13.4767 7.02832 13.6924 7.02832H32.9887C33.2044 7.02832 33.3794 7.20327 33.3794 7.41897C33.3794 7.63467 33.2045 7.80957 32.9887 7.80957Z" fill="#8C8C8C"/>
<path d="M23.0379 20.1966C22.7014 20.1966 22.4285 19.9237 22.4285 19.5873V19.5752V17.2093C22.4285 16.5332 21.8785 15.9832 21.2025 15.9832C20.5265 15.9832 19.9765 16.5332 19.9765 17.2093V17.6373C19.9765 17.9738 19.7037 18.2466 19.3672 18.2466C19.0307 18.2466 18.7578 17.9738 18.7578 17.6373V17.2093C18.7578 15.8613 19.8546 14.7646 21.2026 14.7646C22.5506 14.7646 23.6473 15.8613 23.6473 17.2093V19.5873C23.6473 19.628 23.6433 19.6678 23.6356 19.7064C23.5802 19.9858 23.3336 20.1966 23.0379 20.1966Z" fill="#8C8C8C"/>
<path fill-rule="evenodd" clip-rule="evenodd" d="M19.3194 25.2353H23.0851C23.7582 25.2353 24.3037 24.6897 24.3038 24.0165V20.794C24.3038 20.319 24.0321 19.9075 23.6356 19.7064C23.4703 19.6225 23.2832 19.5752 23.0851 19.5752H22.4285H19.3194C18.6463 19.5752 18.1006 20.1209 18.1006 20.794V24.0165C18.1006 24.6896 18.6463 25.2353 19.3194 25.2353ZM21.2027 23.7998C20.8231 23.7998 20.5156 23.4921 20.5156 23.1128V22.4453C20.5156 22.0658 20.8233 21.7583 21.2027 21.7583C21.5821 21.7583 21.8897 22.0659 21.8897 22.4453V23.1128C21.8897 23.4921 21.5821 23.7998 21.2027 23.7998Z" fill="#8C8C8C"/>
<path fill-rule="evenodd" clip-rule="evenodd" d="M9.83354 34.5063C13.2737 34.5063 16.0625 31.7175 16.0625 28.2773C16.0625 24.8371 13.2737 22.0483 9.83354 22.0483C6.39339 22.0483 3.60457 24.8371 3.60457 28.2773C3.60457 31.7175 6.39339 34.5063 9.83354 34.5063ZM11.3692 29.75C11.8727 29.782 12.3397 29.9485 12.7345 30.214C13.1819 30.5149 13.5367 30.9431 13.7468 31.4467C13.8704 31.7429 13.9476 32.0652 13.9606 32.4031C14.5719 31.7917 15.0485 31.0457 15.3418 30.214C15.5556 29.6077 15.6719 28.9559 15.6719 28.2773C15.6719 25.0581 13.0528 22.439 9.83354 22.439C9.35116 22.439 8.88225 22.4978 8.43362 22.6086C7.5319 22.8313 6.71206 23.2642 6.02924 23.852C4.78455 24.9235 3.99519 26.51 3.99519 28.2773C3.99519 29.8889 4.65152 31.3501 5.71092 32.4075C5.72343 32.0681 5.7971 31.7442 5.92124 31.4467C5.96258 31.3476 6.0095 31.2515 6.06163 31.1586C6.50788 30.3639 7.3352 29.8118 8.29592 29.75C7.49149 29.2373 6.9468 28.3365 6.9468 27.3105V26.6509C6.9468 25.5644 7.54683 24.6181 8.43362 24.1253C8.84824 23.8949 9.32554 23.7637 9.83352 23.7637C11.4281 23.7637 12.7207 25.0563 12.7207 26.6509V27.3105C12.7207 28.3362 12.1727 29.2369 11.3692 29.75ZM9.32766 29.8496C9.32766 29.9848 9.28604 30.1103 9.21491 30.214C9.09885 30.3831 8.90422 30.4941 8.68362 30.4941H8.4761C7.5441 30.4942 6.75966 31.1264 6.52827 31.9853C6.52168 32.0098 6.51553 32.0345 6.50985 32.0593C6.47658 32.2046 6.45901 32.3559 6.45901 32.5112V33.0029C6.45901 33.0183 6.46158 33.0321 6.46589 33.0441C6.78923 33.2732 7.1368 33.4703 7.50393 33.6307V32.7421V32.4007V32.3667C7.50393 32.1511 7.67893 31.9761 7.89453 31.9761C8.00238 31.9761 8.10003 32.0198 8.17033 32.0901C8.24143 32.1612 8.28518 32.2589 8.28518 32.3667V32.4031V33.0698V33.7722C8.28518 33.8177 8.27799 33.8612 8.26483 33.9017C8.76417 34.0411 9.29031 34.1157 9.83354 34.1157C10.3765 34.1157 10.9025 34.041 11.4019 33.9014C11.3889 33.8612 11.3819 33.8181 11.3819 33.7729V33.0701V32.4031V32.3667C11.3819 32.1511 11.5569 31.9761 11.7725 31.9761C11.8803 31.9761 11.9787 32.0198 12.049 32.0901C12.1194 32.1612 12.1631 32.2589 12.1631 32.3667V32.4031V32.7426V33.6302C12.5307 33.4696 12.8786 33.2722 13.2023 33.0429C13.2065 33.0309 13.209 33.0172 13.209 33.002V32.5112C13.209 32.475 13.208 32.4389 13.2062 32.4031C13.1999 32.2856 13.1837 32.1707 13.1582 32.0593C12.9529 31.1629 12.1503 30.4941 11.1909 30.4941H10.9844C10.7636 30.4941 10.5687 30.3832 10.4524 30.214C10.3929 30.1274 10.354 30.0255 10.3428 29.9155L10.3394 29.8496L10.3413 29.7988C10.3606 29.5499 10.5209 29.3482 10.7251 29.252L10.8594 29.1831C11.5185 28.8141 11.9707 28.1081 11.9707 27.3105V26.6509C11.9707 25.4705 11.0139 24.5137 9.83352 24.5137C9.29801 24.5137 8.80856 24.7107 8.43362 25.0362C7.98222 25.4281 7.6968 26.0061 7.6968 26.6509V27.3105C7.6968 27.9484 7.98326 28.5258 8.43362 28.9201C8.58562 29.0532 8.7563 29.1654 8.94094 29.252C9.15948 29.3543 9.32763 29.5771 9.32766 29.8496Z" fill="#8C8C8C"/>
<path fill-rule="evenodd" clip-rule="evenodd" d="M6.06163 31.1586C6.50788 30.3639 7.3352 29.8118 8.29592 29.75C7.49149 29.2373 6.9468 28.3365 6.9468 27.3105V26.6509C6.9468 25.5644 7.54683 24.6181 8.43362 24.1253C8.84824 23.8949 9.32554 23.7637 9.83352 23.7637C11.4281 23.7637 12.7207 25.0563 12.7207 26.6509V27.3105C12.7207 28.3362 12.1727 29.2369 11.3692 29.75C11.8727 29.782 12.3397 29.9485 12.7345 30.214C13.1819 30.5149 13.5367 30.9431 13.7468 31.4467C13.568 31.6671 13.3711 31.872 13.1582 32.0593C12.9529 31.1629 12.1503 30.4941 11.1909 30.4941H10.9844C10.7636 30.4941 10.5687 30.3832 10.4524 30.214C10.3929 30.1274 10.354 30.0255 10.3428 29.9155L10.3394 29.8496L10.3413 29.7988C10.3606 29.5499 10.5209 29.3482 10.7251 29.252L10.8594 29.1831C11.5185 28.8141 11.9707 28.1081 11.9707 27.3105V26.6509C11.9707 25.4705 11.0139 24.5137 9.83352 24.5137C9.29801 24.5137 8.80856 24.7107 8.43362 25.0362C7.98222 25.4281 7.6968 26.0061 7.6968 26.6509V27.3105C7.6968 27.9484 7.98326 28.5258 8.43362 28.9201C8.58562 29.0532 8.7563 29.1654 8.94094 29.252C9.15948 29.3543 9.32763 29.5771 9.32766 29.8496C9.32766 29.9848 9.28604 30.1103 9.21491 30.214C9.09885 30.3831 8.90422 30.4941 8.68362 30.4941H8.4761C7.5441 30.4942 6.75966 31.1264 6.52827 31.9853C6.52168 32.0098 6.51553 32.0345 6.50985 32.0593C6.29693 31.872 6.09997 31.6671 5.92124 31.4467C5.96258 31.3476 6.0095 31.2515 6.06163 31.1586ZM7.50393 32.7421C7.75284 32.8722 8.01398 32.9822 8.28518 33.0698V32.4031V32.3667C8.28518 32.2589 8.24143 32.1612 8.17033 32.0901C8.10003 32.0198 8.00238 31.9761 7.89453 31.9761C7.67893 31.9761 7.50393 32.1511 7.50393 32.3667V32.4007V32.7421ZM11.3819 33.0701C11.6531 32.9826 11.9142 32.8727 12.1631 32.7426V32.4031V32.3667C12.1631 32.2589 12.1194 32.1612 12.049 32.0901C11.9787 32.0198 11.8803 31.9761 11.7725 31.9761C11.5569 31.9761 11.3819 32.1511 11.3819 32.3667V32.4031V33.0701Z" fill="#8C8C8C"/>
<path d="M9.32766 29.8496C9.32766 29.9848 9.28604 30.1103 9.21491 30.214C9.09885 30.3831 8.90422 30.4941 8.68362 30.4941H8.4761C7.5441 30.4942 6.75966 31.1264 6.52827 31.9853C6.52168 32.0098 6.51553 32.0345 6.50985 32.0593C6.47658 32.2046 6.45901 32.3559 6.45901 32.5112V33.0029C6.45901 33.0183 6.46158 33.0321 6.46589 33.0441C6.47337 33.065 6.48608 33.0805 6.49953 33.0898C7.44546 33.7466 8.59442 34.1313 9.83401 34.1313C11.0736 34.1313 12.222 33.7467 13.1685 33.0894C13.1821 33.0799 13.1948 33.0641 13.2023 33.0429C13.2065 33.0309 13.209 33.0172 13.209 33.002V32.5112C13.209 32.475 13.208 32.4389 13.2062 32.4031C13.1999 32.2856 13.1837 32.1707 13.1582 32.0593C12.9529 31.1629 12.1503 30.4941 11.1909 30.4941H10.9844C10.7636 30.4941 10.5687 30.3832 10.4524 30.214C10.3929 30.1274 10.354 30.0255 10.3428 29.9155L10.3394 29.8496L10.3413 29.7988C10.3606 29.5499 10.5209 29.3482 10.7251 29.252L10.8594 29.1831C11.5185 28.8141 11.9707 28.1081 11.9707 27.3105V26.6509C11.9707 25.4705 11.0139 24.5137 9.83352 24.5137C9.29801 24.5137 8.80856 24.7107 8.43362 25.0362C7.98222 25.4281 7.6968 26.0061 7.6968 26.6509V27.3105C7.6968 27.9484 7.98326 28.5258 8.43362 28.9201C8.58562 29.0532 8.7563 29.1654 8.94094 29.252C9.15948 29.3543 9.32763 29.5771 9.32766 29.8496ZM12.7207 27.3105C12.7207 28.3362 12.1727 29.2369 11.3692 29.75C11.8727 29.782 12.3397 29.9485 12.7345 30.214C13.1819 30.5149 13.5367 30.9431 13.7468 31.4467C13.8704 31.7429 13.9476 32.0652 13.9606 32.4031C13.962 32.439 13.959 32.475 13.959 32.5112V33.002C13.959 33.2733 13.8325 33.5409 13.5962 33.7051C12.5282 34.4468 11.2315 34.8813 9.83401 34.8813C8.52397 34.8813 7.30169 34.4997 6.27444 33.8413L6.0718 33.7061C5.83539 33.542 5.70901 33.2743 5.70901 33.0029V32.5112C5.70901 32.4765 5.70965 32.442 5.71092 32.4075C5.72343 32.0681 5.7971 31.7442 5.92124 31.4467C5.96258 31.3476 6.0095 31.2515 6.06163 31.1586C6.50788 30.3639 7.3352 29.8118 8.29592 29.75C7.49149 29.2373 6.9468 28.3365 6.9468 27.3105V26.6509C6.9468 25.5644 7.54683 24.6181 8.43362 24.1253C8.84824 23.8949 9.32554 23.7637 9.83352 23.7637C11.4281 23.7637 12.7207 25.0563 12.7207 26.6509V27.3105Z" fill="#8C8C8C"/>
<path d="M8.28518 32.3667V32.4031V33.0698V33.7722C8.28518 33.8177 8.27799 33.8612 8.26483 33.9017C8.19876 34.1046 7.9821 34.2312 7.76673 34.1553C7.60568 34.0985 7.50393 33.944 7.50393 33.7733V33.6307V32.7421V32.4007V32.3667C7.50393 32.1511 7.67893 31.9761 7.89453 31.9761C8.00238 31.9761 8.10003 32.0198 8.17033 32.0901C8.24143 32.1612 8.28518 32.2589 8.28518 32.3667Z" fill="#8C8C8C"/>
<path d="M12.1631 32.3667V32.4031V32.7426V33.6302V33.7736C12.1631 33.9446 12.0611 34.0991 11.8998 34.1557C11.6843 34.2314 11.4676 34.1045 11.4019 33.9014C11.3889 33.8612 11.3819 33.8181 11.3819 33.7729V33.0701V32.4031V32.3667C11.3819 32.1511 11.5569 31.9761 11.7725 31.9761C11.8803 31.9761 11.9787 32.0198 12.049 32.0901C12.1194 32.1612 12.1631 32.2589 12.1631 32.3667Z" fill="#8C8C8C"/>
<path d="M35.7836 16.7433C35.5679 16.7433 35.393 16.9182 35.393 17.134V30.841C35.393 31.4871 34.8673 32.0128 34.2211 32.0128H15.2948C15.6698 31.4663 15.9652 30.8611 16.1638 30.214C16.3519 29.6012 16.4532 28.9509 16.4532 28.2773C16.4532 24.6272 13.4836 21.6577 9.83354 21.6577C9.35336 21.6577 8.88499 21.7092 8.43362 21.8068C7.71174 21.963 7.03333 22.2373 6.41959 22.6083V9.29635V6.7246C6.41959 6.07845 6.94529 5.55275 7.59144 5.55275H15.1586C15.3742 5.55275 15.549 5.37771 15.5492 5.1621C15.5492 4.94633 15.3743 4.77148 15.1586 4.77148H7.59144C6.51449 4.77148 5.63834 5.64765 5.63834 6.7246V23.1609C4.15918 24.3759 3.21387 26.2182 3.21387 28.2773C3.21387 31.9274 6.18339 34.8969 9.83349 34.8969C11.7388 34.8969 13.4575 34.0867 14.6664 32.794H34.221C35.298 32.794 36.1742 31.9179 36.1742 30.841V17.134C36.1742 16.9182 35.9993 16.7433 35.7836 16.7433ZM9.83354 34.1157C9.29031 34.1157 8.76417 34.0411 8.26483 33.9017C8.00339 33.8287 7.74929 33.7379 7.50393 33.6307C7.1368 33.4703 6.78923 33.2732 6.46589 33.0441C6.19652 32.8533 5.94397 32.6402 5.71092 32.4075C4.65152 31.3501 3.99519 29.8889 3.99519 28.2773C3.99519 26.51 4.78455 24.9235 6.02924 23.852C6.71206 23.2642 7.5319 22.8313 8.43362 22.6086C8.88225 22.4978 9.35116 22.439 9.83354 22.439C13.0528 22.439 15.6719 25.0581 15.6719 28.2773C15.6719 28.9559 15.5556 29.6077 15.3418 30.214C15.0485 31.0457 14.5719 31.7917 13.9606 32.4031C13.7267 32.6369 13.473 32.8511 13.2023 33.0429C12.8786 33.2722 12.5307 33.4696 12.1631 33.6302C11.9176 33.7374 11.6634 33.8283 11.4019 33.9014C10.9025 34.041 10.3765 34.1157 9.83354 34.1157Z" fill="#8C8C8C"/>
<path d="M34.2218 4.77197H17.4551C17.2394 4.77197 17.0645 4.94682 17.0645 5.16258C17.0645 5.37838 17.2394 5.55323 17.4551 5.55323H34.2218C34.8679 5.55323 35.3936 6.07893 35.3936 6.72508V9.29635V14.8377C35.3936 15.0535 35.5686 15.2284 35.7843 15.2284C36 15.2284 36.1749 15.0535 36.1749 14.8377V6.72508C36.1749 5.64813 35.2987 4.77197 34.2218 4.77197Z" fill="#8C8C8C"/>
</g>
</g>
<defs>
<clipPath id="clip0_81523_14170">
<rect width="40" height="40" fill="white"/>
</clipPath>
</defs>
</svg>
