<svg width="40" height="40" viewBox="0 0 40 40" fill="none" xmlns="http://www.w3.org/2000/svg">
<path d="M2 9.5C2 8.39543 2.89543 7.5 4 7.5L5 7.5V27.5C5 28.6046 5.89543 29.5 7 29.5L22.6949 29.5V34.25C22.6949 35.3546 21.7995 36.25 20.6949 36.25H4C2.89543 36.25 2 35.3546 2 34.25V9.5Z" fill="#8C8C8C"/>
<path d="M38.3072 25.8472L36.9676 25.4658C36.8364 24.9309 36.6253 24.4273 36.3472 23.969L37.0251 22.7515C37.0825 22.648 37.0645 22.5186 36.9808 22.4348L36.0652 21.5193C35.9814 21.4355 35.8519 21.4175 35.7485 21.475L34.5311 22.1528C34.0728 21.8748 33.5691 21.6636 33.0343 21.5325L32.6528 20.1928C32.6203 20.0786 32.5161 20 32.3973 20H31.1027C30.9839 20 30.8798 20.0786 30.8472 20.1928L30.4657 21.5325C29.9309 21.6636 29.4273 21.8747 28.9689 22.1528L27.7515 21.475C27.648 21.4175 27.5186 21.4356 27.4348 21.5193L26.5192 22.4348C26.4354 22.5186 26.4174 22.6481 26.4749 22.7515L27.1527 23.969C26.8748 24.4272 26.6636 24.9309 26.5324 25.4658L25.1928 25.8472C25.0786 25.8797 25 25.9839 25 26.1027V27.3973C25 27.5161 25.0786 27.6203 25.1928 27.6528L26.5324 28.0343C26.6636 28.5691 26.8747 29.0727 27.1527 29.5311L26.4749 30.7485C26.4175 30.8521 26.4355 30.9814 26.5192 31.0652L27.4348 31.9808C27.5186 32.0646 27.648 32.0826 27.7515 32.0251L28.9689 31.3472C29.4272 31.6252 29.9309 31.8364 30.4657 31.9676L30.8472 33.3072C30.8797 33.4214 30.9839 33.5 31.1027 33.5H32.3973C32.5161 33.5 32.6202 33.4214 32.6528 33.3072L33.0343 31.9676C33.5691 31.8364 34.0727 31.6253 34.5311 31.3472L35.7485 32.0251C35.852 32.0825 35.9814 32.0645 36.0652 31.9808L36.9808 31.0652C37.0646 30.9814 37.0826 30.8519 37.0251 30.7485L36.3472 29.5311C36.6252 29.0728 36.8364 28.5691 36.9676 28.0343L38.3072 27.6528C38.4214 27.6203 38.5 27.5161 38.5 27.3973V26.1027C38.5 25.9839 38.4214 25.8797 38.3072 25.8472ZM31.75 28.873C30.5775 28.873 29.6269 27.9225 29.6269 26.7499C29.6269 25.5774 30.5775 24.6268 31.75 24.6268C32.9225 24.6268 33.8731 25.5774 33.8731 26.7499C33.8731 27.9225 32.9225 28.873 31.75 28.873Z" fill="#8C8C8C"/>
<path d="M13.1487 15.329C13.0276 14.8409 12.5842 14.5 12.0701 14.5H11.4302C10.9161 14.5 10.4725 14.8409 10.3516 15.329L9.01847 20.7107C8.9336 21.0536 9.14922 21.3989 9.50029 21.4818C9.85118 21.5651 10.2048 21.3541 10.2897 21.0112L10.8773 18.6388H12.6223L13.21 21.0112C13.2824 21.3037 13.5502 21.5 13.8453 21.5C13.8961 21.5 13.9479 21.4941 13.9996 21.4818C14.3506 21.3989 14.5664 21.0536 14.4815 20.7107L13.1487 15.329ZM11.1942 17.361L11.5865 15.7778H11.9141L12.3064 17.361H11.1942Z" fill="#8C8C8C"/>
<path d="M18.4101 14.5H16.1425C15.7876 14.5 15.5 14.7861 15.5 15.1389V20.8611C15.5 21.2139 15.7876 21.5 16.1425 21.5C16.4973 21.5 16.7849 21.2139 16.7849 20.8611V18.9927H18.4101C19.011 18.9927 19.5 18.5064 19.5 17.9088V15.5841C19.4998 14.9863 19.011 14.5 18.4101 14.5ZM18.2151 17.715H16.7849V15.7778H18.2151V17.715Z" fill="#8C8C8C"/>
<path d="M22.0975 20.2599V15.74C22.3311 15.6533 22.5 15.4183 22.5 15.1389C22.5 14.786 22.2325 14.5 21.9024 14.5H21.0976C20.7676 14.5 20.5 14.786 20.5 15.1389C20.5 15.4183 20.6688 15.6533 20.9025 15.74V20.2599C20.6689 20.3467 20.5 20.5816 20.5 20.8611C20.5 21.2139 20.7676 21.5 21.0976 21.5H21.9024C22.2325 21.5 22.5 21.2139 22.5 20.8611C22.5 20.5816 22.3311 20.3467 22.0975 20.2599Z" fill="#8C8C8C"/>
<path fill-rule="evenodd" clip-rule="evenodd" d="M7 4.5C5.89543 4.5 5 5.39543 5 6.5V9H34.5V6.5C34.5 5.39543 33.6046 4.5 32.5 4.5H7ZM8.5 6.75C8.5 7.16421 8.16421 7.5 7.75 7.5C7.33579 7.5 7 7.16421 7 6.75C7 6.33579 7.33579 6 7.75 6C8.16421 6 8.5 6.33579 8.5 6.75ZM10.75 7.5C11.1642 7.5 11.5 7.16421 11.5 6.75C11.5 6.33579 11.1642 6 10.75 6C10.3358 6 10 6.33579 10 6.75C10 7.16421 10.3358 7.5 10.75 7.5ZM14.5 6.75C14.5 7.16421 14.1642 7.5 13.75 7.5C13.3358 7.5 13 7.16421 13 6.75C13 6.33579 13.3358 6 13.75 6C14.1642 6 14.5 6.33579 14.5 6.75Z" fill="#8C8C8C"/>
</svg>
