<svg width="40" height="40" viewBox="0 0 40 40" fill="none" xmlns="http://www.w3.org/2000/svg">
<path fill-rule="evenodd" clip-rule="evenodd" d="M27.9526 14.1707C28.2329 14.7457 28.2378 15.4211 27.9673 15.9996L27.3604 15.5181C27.5108 15.0427 27.3977 14.5017 27.0209 14.125C26.5652 13.6694 25.8696 13.5996 25.3401 13.9152L24.7336 13.434C25.1918 13.0724 25.7649 12.9266 26.3157 12.9968C26.7653 13.0541 27.2001 13.2554 27.5454 13.6006C27.7136 13.7688 27.8477 13.9583 27.9476 14.1604L27.9526 14.1707ZM29.6661 8.63979C29.6383 8.60771 29.6036 8.58146 29.5639 8.56343C29.6077 8.62209 29.6528 8.67985 29.699 8.73665L29.7338 8.77906C29.7237 8.72685 29.7 8.67898 29.6661 8.63979Z" fill="#8C8C8C"/>
<path fill-rule="evenodd" clip-rule="evenodd" d="M17.1638 32.4664C17.233 32.5085 17.3051 32.5487 17.3801 32.5868L16.9203 32.2671C16.9933 32.3417 17.0744 32.4082 17.1638 32.4664ZM27.9526 14.1707C28.2329 14.7457 28.2378 15.4211 27.9673 15.9996C27.8656 16.217 27.7249 16.4208 27.5454 16.6004L18.9488 25.195C18.5348 25.6088 17.9917 25.8159 17.4497 25.816C16.9076 25.816 16.3637 25.609 15.9497 25.195L11.9276 21.1734C11.0995 20.3453 11.0995 19.0027 11.9276 18.1746C12.7558 17.3465 14.0985 17.3465 14.9268 18.1746L17.4487 20.6973L19.8993 18.247C20.0441 18.1022 20.2789 18.1022 20.4237 18.247C20.5686 18.3919 20.5686 18.6266 20.4237 18.7715L17.7115 21.4834C17.642 21.5528 17.5479 21.5915 17.4497 21.5916C17.3513 21.5916 17.2565 21.553 17.187 21.4834L14.4023 18.699C13.8638 18.1606 12.9906 18.1606 12.4521 18.699C11.9138 19.2374 11.9136 20.1105 12.4521 20.649L16.4741 24.6706C16.7434 24.9398 17.0962 25.0743 17.4497 25.0743C17.8031 25.0742 18.1551 24.9397 18.4243 24.6706L27.0209 16.0759C27.1724 15.9245 27.2812 15.7465 27.3475 15.5569C27.3512 15.5464 27.357 15.5286 27.3604 15.5181C27.5108 15.0427 27.3977 14.5017 27.0209 14.125C26.5652 13.6694 25.8696 13.5996 25.3401 13.9152C25.244 13.9725 25.1534 14.0424 25.0707 14.125L22.0832 17.1122C21.9383 17.2571 21.7035 17.2571 21.5587 17.1122C21.4139 16.9674 21.4138 16.7326 21.5587 16.5878L24.5462 13.6006C24.6028 13.544 24.6618 13.4914 24.7229 13.4425L24.7336 13.434C25.1918 13.0724 25.7649 12.9266 26.3157 12.9968L27.9476 14.1604L27.9526 14.1707Z" fill="#8C8C8C"/>
<path fill-rule="evenodd" clip-rule="evenodd" d="M29.699 8.73665L29.7338 8.77906C29.7237 8.72685 29.7 8.67898 29.6661 8.63979L29.699 8.73665Z" fill="#8C8C8C"/>
<path fill-rule="evenodd" clip-rule="evenodd" d="M29.6661 8.63979C29.6383 8.60771 29.6036 8.58146 29.5639 8.56343C29.6077 8.62209 29.6528 8.67985 29.699 8.73665L29.7338 8.77906C29.7237 8.72685 29.7 8.67898 29.6661 8.63979Z" fill="#8C8C8C"/>
<path fill-rule="evenodd" clip-rule="evenodd" d="M19.4104 37.974C19.6071 38.0087 19.8085 38.0087 20.0052 37.974H19.4104ZM33.4485 18.6889L33.4493 17.6961C33.4493 17.6881 33.449 17.6801 33.4485 17.6721V18.6889Z" fill="#8C8C8C"/>
<path fill-rule="evenodd" clip-rule="evenodd" d="M21.0859 33.6987L21.0304 33.7373L21.0484 33.6987H21.0859ZM17.3801 32.5868L16.9203 32.2671C16.9933 32.3417 17.0744 32.4082 17.1638 32.4664C17.233 32.5085 17.3051 32.5487 17.3801 32.5868ZM27.9526 14.1707C28.2329 14.7457 28.2378 15.4211 27.9673 15.9996C27.8656 16.217 27.7249 16.4208 27.5454 16.6004L18.9488 25.195C18.5348 25.6088 17.9917 25.8159 17.4497 25.816C16.9076 25.816 16.3637 25.609 15.9497 25.195L11.9276 21.1734C11.0995 20.3453 11.0995 19.0027 11.9276 18.1746C12.7558 17.3465 14.0985 17.3465 14.9268 18.1746L17.4487 20.6973L19.8993 18.247C20.0441 18.1022 20.2789 18.1022 20.4237 18.247C20.5686 18.3919 20.5686 18.6266 20.4237 18.7715L17.7115 21.4834C17.642 21.5528 17.5479 21.5915 17.4497 21.5916C17.3513 21.5916 17.2565 21.553 17.187 21.4834L14.4023 18.699C13.8638 18.1606 12.9906 18.1606 12.4521 18.699C11.9138 19.2374 11.9136 20.1105 12.4521 20.649L16.4741 24.6706C16.7434 24.9398 17.0962 25.0743 17.4497 25.0743C17.8031 25.0742 18.1551 24.9397 18.4243 24.6706L27.0209 16.0759C27.1724 15.9245 27.2812 15.7465 27.3475 15.5569C27.3512 15.5464 27.357 15.5286 27.3604 15.5181C27.5108 15.0427 27.3977 14.5017 27.0209 14.125C26.5652 13.6694 25.8696 13.5996 25.3401 13.9152C25.244 13.9725 25.1534 14.0424 25.0707 14.125L22.0832 17.1122C21.9383 17.2571 21.7035 17.2571 21.5587 17.1122C21.4139 16.9674 21.4138 16.7326 21.5587 16.5878L24.5462 13.6006C24.6028 13.544 24.6618 13.4914 24.7229 13.4425L24.7336 13.434C25.1918 13.0724 25.7649 12.9266 26.3157 12.9968C26.7653 13.0541 27.2001 13.2554 27.5454 13.6006C27.7136 13.7688 27.8477 13.9583 27.9476 14.1604L27.9526 14.1707Z" fill="#8C8C8C"/>
<path fill-rule="evenodd" clip-rule="evenodd" d="M21.0484 33.6987L21.0304 33.7373L21.0859 33.6987H21.0484ZM16.9203 32.2671L17.3801 32.5868C17.3051 32.5487 17.233 32.5085 17.1638 32.4664C17.0744 32.4082 16.9933 32.3417 16.9203 32.2671Z" fill="#8C8C8C"/>
<path d="M17.4497 25.816C17.9917 25.8159 18.5348 25.6088 18.9488 25.195L27.5454 16.6004C27.7249 16.4208 27.8656 16.217 27.9673 15.9996C28.2378 15.4211 28.2329 14.7457 27.9526 14.1707C27.951 14.1673 27.9493 14.1638 27.9476 14.1604C27.8477 13.9583 27.7136 13.7688 27.5454 13.6006C27.2001 13.2554 26.7653 13.0541 26.3157 12.9968C25.7649 12.9266 25.1918 13.0724 24.7336 13.434C24.73 13.4369 24.7264 13.4397 24.7229 13.4425C24.6618 13.4914 24.6028 13.544 24.5462 13.6006L21.5587 16.5878C21.4138 16.7326 21.4139 16.9674 21.5587 17.1122C21.7035 17.2571 21.9383 17.2571 22.0832 17.1122L25.0707 14.125C25.1534 14.0424 25.244 13.9725 25.3401 13.9152C25.8696 13.5996 26.5652 13.6694 27.0209 14.125C27.3977 14.5017 27.5108 15.0427 27.3604 15.5181C27.3563 15.5311 27.352 15.544 27.3475 15.5569C27.2812 15.7465 27.1724 15.9245 27.0209 16.0759L18.4243 24.6706C18.1551 24.9397 17.8031 25.0742 17.4497 25.0743C17.0962 25.0743 16.7434 24.9398 16.4741 24.6706L12.4521 20.649C11.9136 20.1105 11.9138 19.2374 12.4521 18.699C12.9906 18.1606 13.8638 18.1606 14.4023 18.699L17.187 21.4834C17.2565 21.553 17.3513 21.5916 17.4497 21.5916C17.5479 21.5915 17.642 21.5528 17.7115 21.4834L20.4237 18.7715C20.5686 18.6266 20.5686 18.3919 20.4237 18.247C20.2789 18.1022 20.0441 18.1022 19.8993 18.247L17.4487 20.6973L14.9268 18.1746C14.0985 17.3465 12.7558 17.3465 11.9276 18.1746C11.0995 19.0027 11.0995 20.3453 11.9276 21.1734L15.9497 25.195C16.3637 25.609 16.9076 25.816 17.4497 25.816Z" fill="#8C8C8C"/>
<path fill-rule="evenodd" clip-rule="evenodd" d="M17.3801 32.5868L16.9203 32.2671C16.9933 32.3417 17.0744 32.4082 17.1638 32.4664C17.233 32.5085 17.3051 32.5487 17.3801 32.5868ZM21.0859 33.6987L21.0304 33.7373L21.0484 33.6987H21.0859ZM30.9416 35.0348C30.9878 35.0625 31.057 35.0763 31.1493 35.0763H33.7734C33.8334 35.0763 33.8841 35.0694 33.9257 35.0556C33.9672 35.0417 33.9995 35.014 34.0226 34.9725C34.0457 34.9263 34.0572 34.864 34.0572 34.7856C34.0572 34.7025 34.0434 34.6402 34.0157 34.5987C33.9926 34.5571 33.9603 34.5294 33.9188 34.5156C33.8772 34.5017 33.8265 34.4948 33.7664 34.4948H31.447V30.5557C31.447 30.4911 31.4401 30.4357 31.4263 30.3896C31.4124 30.3434 31.3824 30.3088 31.3362 30.2857C31.2947 30.258 31.2278 30.2442 31.1355 30.2442C31.0431 30.2442 30.9739 30.258 30.9278 30.2857C30.8862 30.3088 30.8585 30.3434 30.8447 30.3896C30.8308 30.4357 30.8239 30.4934 30.8239 30.5626V34.7648C30.8239 34.8294 30.8308 34.8848 30.8447 34.9309C30.8631 34.9771 30.8954 35.0117 30.9416 35.0348ZM15.24 36.9851C15.24 37.0172 15.2415 37.0491 15.2445 37.0805L15.24 36.9851ZM36.0109 29.0732L36.1063 29.0778C36.0749 29.0748 36.0431 29.0732 36.0109 29.0732ZM36.1063 37.9695L36.0109 37.974C36.0431 37.974 36.0749 37.9725 36.1063 37.9695Z" fill="#8C8C8C"/>
<path fill-rule="evenodd" clip-rule="evenodd" d="M14.2557 36.0975C14.2527 36.0661 14.2509 36.0283 14.2509 35.9961L14.2557 36.0975ZM35.0218 28.0843L35.1172 28.0888C35.0858 28.0858 35.054 28.0843 35.0218 28.0843ZM21.0859 33.6987H21.0484L21.0304 33.7373L21.0859 33.6987ZM17.3801 32.5868L16.9203 32.2671C16.9933 32.3417 17.0744 32.4082 17.1638 32.4664C17.233 32.5085 17.3051 32.5487 17.3801 32.5868ZM30.9416 35.0348C30.9878 35.0625 31.057 35.0763 31.1493 35.0763H33.7734C33.8334 35.0763 33.8841 35.0694 33.9257 35.0556C33.9672 35.0417 33.9995 35.014 34.0226 34.9725C34.0457 34.9263 34.0572 34.864 34.0572 34.7856C34.0572 34.7025 34.0434 34.6402 34.0157 34.5987C33.9926 34.5571 33.9603 34.5294 33.9188 34.5156C33.8772 34.5017 33.8265 34.4948 33.7664 34.4948H31.447V30.5557C31.447 30.4911 31.4401 30.4357 31.4263 30.3896C31.4124 30.3434 31.3824 30.3088 31.3362 30.2857C31.2947 30.258 31.2278 30.2442 31.1355 30.2442C31.0431 30.2442 30.9739 30.258 30.9278 30.2857C30.8862 30.3088 30.8585 30.3434 30.8447 30.3896C30.8308 30.4357 30.8239 30.4934 30.8239 30.5626V34.7648C30.8239 34.8294 30.8308 34.8848 30.8447 34.9309C30.8631 34.9771 30.8954 35.0117 30.9416 35.0348Z" fill="#8C8C8C"/>
<path d="M31.1493 35.0763C31.057 35.0763 30.9878 35.0625 30.9416 35.0348C30.8954 35.0117 30.8631 34.9771 30.8447 34.9309C30.8308 34.8848 30.8239 34.8294 30.8239 34.7648V30.5626C30.8239 30.4934 30.8308 30.4357 30.8447 30.3896C30.8585 30.3434 30.8862 30.3088 30.9278 30.2857C30.9739 30.258 31.0431 30.2442 31.1355 30.2442C31.2278 30.2442 31.2947 30.258 31.3362 30.2857C31.3824 30.3088 31.4124 30.3434 31.4263 30.3896C31.4401 30.4357 31.447 30.4911 31.447 30.5557V34.4948H33.7664C33.8265 34.4948 33.8772 34.5017 33.9188 34.5156C33.9603 34.5294 33.9926 34.5571 34.0157 34.5987C34.0434 34.6402 34.0572 34.7025 34.0572 34.7856C34.0572 34.864 34.0457 34.9263 34.0226 34.9725C33.9995 35.014 33.9672 35.0417 33.9257 35.0556C33.8841 35.0694 33.8334 35.0763 33.7734 35.0763H31.1493Z" fill="#8C8C8C"/>
<path fill-rule="evenodd" clip-rule="evenodd" d="M25.1605 30.4096L25.1659 30.3965C25.1646 30.3993 25.1624 30.4043 25.1605 30.4096Z" fill="#8C8C8C"/>
<path fill-rule="evenodd" clip-rule="evenodd" d="M17.3801 32.5868L16.9203 32.2671C16.9933 32.3417 17.0744 32.4082 17.1638 32.4664C17.233 32.5085 17.3051 32.5487 17.3801 32.5868Z" fill="#8C8C8C"/>
<path fill-rule="evenodd" clip-rule="evenodd" d="M29.5639 8.56343C29.6036 8.58146 29.6383 8.60771 29.6661 8.63979C29.7 8.67898 29.7237 8.72685 29.7338 8.77906C29.8521 8.92146 29.9779 9.05774 30.1106 9.18727C30.2287 9.30248 30.3523 9.41234 30.4811 9.51641C31.0554 9.98055 31.7327 10.3296 32.4826 10.5241C32.6146 10.5583 32.7066 10.6774 32.7067 10.8138V17.5952L32.7153 17.6204C32.7102 17.6449 32.7075 17.6702 32.7075 17.6961L32.7067 18.6889C32.7067 18.6971 32.707 18.7052 32.7075 18.7132C32.72 18.9066 32.8818 19.0596 33.0782 19.0598C33.2828 19.0595 33.4485 18.8936 33.4485 18.6889V17.6721V10.8138C33.4485 10.3396 33.1282 9.92561 32.669 9.80651C31.7592 9.57058 30.9735 9.07009 30.3856 8.40039C30.2787 8.2786 30.1783 8.15121 30.0849 8.0188C29.5557 7.26838 29.2507 6.35664 29.2507 5.38799V5.01906C29.2506 4.44418 28.7843 3.97809 28.2094 3.97793H26.3185C26.2952 3.79142 26.2832 3.60187 26.2832 3.41009V3.04116C26.2832 2.46628 25.8169 2.00019 25.242 2.00003H11.5028H10.7891L8.24006 2C7.66496 2 7.19886 2.46611 7.19881 3.04113V3.41006C7.19881 5.48944 5.79252 7.30651 3.77949 7.82858C3.32049 7.94783 3.00005 8.36177 3 8.83591V21.7457C3.00004 24.9405 4.56457 27.9326 7.18818 29.756L14.2509 34.6647V34.5804V34.2128V34.1287V33.7608V33.6768L10.5795 31.1255C8.15516 29.4408 6.70913 26.6757 6.70909 23.7237V10.8139C6.70914 10.6775 6.80125 10.5584 6.93318 10.5241C9.27336 9.9172 10.9079 7.8053 10.9079 5.38801V5.01907C10.9079 4.8537 11.0419 4.71968 11.2073 4.71968L13.7496 4.71967L14.7735 4.71967L17.2184 4.71966H25.7051H26.0885H26.4747H28.2094C28.2587 4.71971 28.3053 4.73168 28.3463 4.75284C28.4428 4.80258 28.5088 4.90311 28.5089 5.01906V5.23159V5.38799C28.5089 6.16167 28.6762 6.90408 28.9806 7.57588C29.0583 7.74749 29.145 7.9145 29.2401 8.07623C29.3391 8.24458 29.4472 8.40722 29.5639 8.56343Z" fill="#8C8C8C"/>
<path d="M25.1605 30.4096L25.1659 30.3965C25.1844 30.3503 25.2167 30.3134 25.2629 30.2857C25.2978 30.2648 25.3447 30.2517 25.4034 30.2466C25.4223 30.245 25.4423 30.2442 25.4637 30.2442C25.5094 30.2442 25.5491 30.2462 25.5827 30.2502C25.6 30.2523 25.6157 30.2549 25.6298 30.258C25.6714 30.2673 25.7037 30.2811 25.7268 30.2996C25.7544 30.3134 25.7821 30.3365 25.8098 30.3688L25.8318 30.4006L26.0424 30.7056L27.1446 32.3017L27.3553 32.6069L27.5098 32.8305L27.9522 32.1921L28.5559 31.3209L29.2301 30.348C29.2578 30.3157 29.2855 30.2927 29.3132 30.2788C29.3409 30.265 29.3755 30.2557 29.417 30.2511C29.4632 30.2465 29.5163 30.2442 29.5763 30.2442C29.664 30.2442 29.7286 30.258 29.7702 30.2857C29.7912 30.2984 29.8094 30.3134 29.8247 30.3308C29.8429 30.3516 29.857 30.3758 29.8671 30.4034C29.8855 30.4496 29.8948 30.5026 29.8948 30.5626V30.7673V31.2542V34.7717C29.8948 34.8271 29.8855 34.8779 29.8671 34.924C29.8486 34.9702 29.8163 35.0071 29.7702 35.0348C29.724 35.0625 29.6571 35.0763 29.5694 35.0763C29.4863 35.0763 29.4217 35.0625 29.3755 35.0348C29.334 35.0071 29.304 34.9702 29.2855 34.924C29.2717 34.8733 29.2647 34.8179 29.2647 34.7579L29.2611 31.734L29.2647 31.2826L28.6869 32.133L27.7831 33.4633C27.7692 33.4864 27.7508 33.5095 27.7277 33.5325C27.7046 33.551 27.6746 33.5672 27.6377 33.581C27.6054 33.5948 27.5638 33.6018 27.513 33.6018C27.4577 33.6018 27.4138 33.5948 27.3815 33.581C27.3538 33.5672 27.3284 33.551 27.3053 33.5325C27.2823 33.5095 27.2592 33.4841 27.2361 33.4564L27.0905 33.2424L26.8819 32.9359L26.6732 32.6292L25.7614 31.2895V33.2628V33.7146V34.1661V34.7717C25.7614 34.8271 25.7521 34.8779 25.7337 34.924C25.7198 34.9702 25.6898 35.0071 25.6437 35.0348C25.6021 35.0625 25.5375 35.0763 25.4498 35.0763C25.3667 35.0763 25.3021 35.0625 25.2559 35.0348C25.2144 35.0071 25.1844 34.9702 25.1659 34.924C25.1475 34.8733 25.1382 34.8179 25.1382 34.7579V34.5991V34.1476V33.6959V31.334V30.8826V30.5591V30.5488C25.1382 30.4985 25.1476 30.4469 25.1605 30.4096Z" fill="#8C8C8C"/>
<path fill-rule="evenodd" clip-rule="evenodd" d="M16.9203 32.2671L17.3801 32.5868C17.4202 32.6073 17.4612 32.6271 17.503 32.6464C17.623 32.6972 17.7454 32.7433 17.87 32.7849C18.0269 32.8356 18.1816 32.8887 18.3339 32.9441C18.4862 32.9949 18.6247 33.0572 18.7493 33.131C18.8739 33.2002 18.9732 33.2856 19.047 33.3872C19.1209 33.4887 19.1578 33.6133 19.1578 33.761C19.1578 33.7785 19.1568 33.8045 19.1559 33.8215C19.1496 33.9197 19.1276 34.0075 19.0898 34.0849L19.0839 34.0966C19.0681 34.1274 19.0496 34.1565 19.0286 34.1838L19.0124 34.2041C18.9372 34.2943 18.839 34.3661 18.7179 34.4196C18.6903 34.4318 18.6616 34.443 18.6316 34.4533C18.4799 34.5053 18.3079 34.5329 18.1155 34.536L18.0962 34.5363L18.0777 34.5363C17.9162 34.5363 17.7523 34.5017 17.5861 34.4325C17.42 34.3587 17.2792 34.2433 17.1638 34.0864C17.113 34.0171 17.0622 33.9618 17.0115 33.9202C16.9653 33.8787 16.9145 33.8579 16.8591 33.8579C16.8038 33.8533 16.7391 33.8787 16.6653 33.9341C16.6007 33.9894 16.5568 34.0402 16.5337 34.0864C16.5153 34.1325 16.513 34.181 16.5268 34.2317C16.5407 34.2779 16.573 34.3379 16.6237 34.4117C16.6791 34.4994 16.7553 34.5871 16.8522 34.6748C16.9491 34.7625 17.0599 34.8433 17.1846 34.9171C17.2581 34.9565 17.3354 34.9914 17.4164 35.0218C17.4778 35.0449 17.5413 35.0654 17.6069 35.0833C17.7021 35.1084 17.8007 35.126 17.9026 35.1359C17.9688 35.1423 18.0364 35.1456 18.1054 35.1456C18.2861 35.1456 18.4592 35.1256 18.6246 35.0857C18.6619 35.0767 18.6989 35.0666 18.7354 35.0556C18.9341 34.9969 19.1108 34.9117 19.2653 34.7999L19.2755 34.7925C19.3743 34.7169 19.4594 34.6304 19.5308 34.5328C19.5628 34.489 19.5921 34.4431 19.6186 34.3949C19.6268 34.3799 19.6348 34.3648 19.6424 34.3494C19.6669 34.3029 19.6882 34.2545 19.7062 34.2041L19.7136 34.1826L19.7206 34.1609C19.7526 34.059 19.7718 33.9495 19.7784 33.8324C19.7801 33.8022 19.7809 33.7714 19.7809 33.7402C19.7809 33.617 19.7697 33.5043 19.7473 33.4021C19.7278 33.3129 19.6998 33.2318 19.6632 33.1587C19.5847 33.0018 19.4809 32.8726 19.3517 32.771C19.2224 32.6649 19.077 32.5772 18.9155 32.508C18.7539 32.4341 18.5901 32.3718 18.4239 32.321C18.2716 32.2749 18.1262 32.2287 17.9877 32.1826C17.8492 32.1318 17.7246 32.0764 17.6138 32.0164C17.503 31.9518 17.413 31.8757 17.3438 31.788C17.2792 31.7003 17.2469 31.5941 17.2469 31.4695C17.2469 31.3588 17.2676 31.2618 17.3092 31.1788C17.3507 31.0911 17.4084 31.0172 17.4823 30.9572C17.5607 30.8972 17.6507 30.8534 17.7523 30.8257C17.8585 30.7934 17.9715 30.7772 18.0915 30.7772C18.2162 30.7772 18.3293 30.7888 18.4308 30.8119C18.537 30.8303 18.6362 30.8672 18.7285 30.9226C18.8255 30.978 18.9178 31.0565 19.0055 31.158C19.0886 31.2272 19.1647 31.2595 19.2339 31.2549C19.3032 31.2503 19.3747 31.2065 19.4486 31.1234C19.527 31.0357 19.5617 30.9619 19.5524 30.9019C19.5432 30.8419 19.497 30.768 19.414 30.6803C19.3724 30.6296 19.3124 30.5765 19.2339 30.5211C19.1555 30.4611 19.0609 30.4057 18.9501 30.355C18.8393 30.2996 18.7124 30.2557 18.5693 30.2234C18.4262 30.1911 18.2693 30.175 18.0985 30.175C17.8077 30.175 17.5515 30.2303 17.3299 30.3411C17.1084 30.4473 16.9353 30.5973 16.8107 30.7911C16.6907 30.9849 16.6307 31.2088 16.6307 31.4626C16.6307 31.6288 16.6514 31.7741 16.693 31.8987C16.7391 32.0234 16.8014 32.1318 16.8799 32.2241C16.8931 32.2387 16.9065 32.2531 16.9203 32.2671Z" fill="#8C8C8C"/>
<path fill-rule="evenodd" clip-rule="evenodd" d="M21.0304 33.7373L21.0484 33.6987H21.0859H21.7356H23.3903L23.8196 34.6122L23.9467 34.8825C23.9585 34.9073 23.9706 34.9299 23.983 34.9504C24.0236 35.0178 24.0668 35.062 24.1128 35.0833C24.1775 35.1109 24.2652 35.0994 24.3759 35.0486C24.4452 35.0163 24.4959 34.9817 24.5283 34.9448C24.5606 34.9033 24.5744 34.8594 24.5698 34.8133C24.5698 34.7625 24.5513 34.7025 24.5144 34.6333L24.4957 34.5942L24.3334 34.2551L23.4852 32.4828L23.3231 32.144L23.2069 31.9013L23.1609 31.8052L23.0447 31.5625L22.8825 31.2235L22.5066 30.438C22.4881 30.3919 22.465 30.355 22.4373 30.3273C22.4096 30.2996 22.3773 30.2788 22.3404 30.265C22.3035 30.2511 22.2642 30.2442 22.2227 30.2442C22.1627 30.2442 22.105 30.2627 22.0496 30.2996C21.9988 30.3319 21.9596 30.3757 21.9319 30.4311L20.8881 32.6094L20.5635 33.2868L20.3311 33.7718L20.2391 33.9636L20.0067 34.4487L19.9448 34.5779C19.9079 34.6563 19.8848 34.7256 19.8756 34.7856C19.871 34.8456 19.8825 34.8963 19.9102 34.9379L19.9172 34.9462L19.9261 34.9562C19.9582 34.9897 20.0037 35.0182 20.0625 35.0417C20.1779 35.0925 20.2656 35.104 20.3256 35.0763C20.3902 35.0486 20.4479 34.9817 20.4987 34.8756L20.7182 34.4057L21.0304 33.7373ZM22.9829 32.8318L23.1398 33.1656H22.5026H21.853H21.3875H21.2974L21.3427 33.0688L21.5664 32.5898L21.8788 31.9209L22.2158 31.1995L22.3884 31.5668L22.5484 31.9074L22.663 32.1512L22.7084 32.2477L22.823 32.4915L22.9829 32.8318Z" fill="#8C8C8C"/>
<path fill-rule="evenodd" clip-rule="evenodd" d="M20.0052 37.974H19.4104H16.2291C16.0925 37.974 15.9624 37.9464 15.8441 37.8963C15.517 37.758 15.2798 37.4487 15.2445 37.0805L15.24 36.9851C15.0995 36.9851 14.9657 36.9557 14.8447 36.9029C14.5631 36.78 14.3501 36.5345 14.2779 36.2309C14.2675 36.1876 14.2601 36.143 14.2557 36.0975L14.2509 35.9961V34.6647V34.5804V34.2128V34.1287V33.7608V33.6768V31.3158L11.6857 29.5326C9.78421 28.2109 8.64905 26.0398 8.64892 23.7242V12.1955C8.64892 12.0553 8.72831 11.9272 8.85369 11.8643C10.8006 10.8872 12.2089 9.07623 12.6777 6.95028C12.7153 6.78049 12.866 6.65958 13.0399 6.65958H16.1947H17.4786H26.3763C26.5502 6.65958 26.7008 6.78052 26.7385 6.95028C27.1383 8.76336 28.2214 10.3474 29.7393 11.3804C29.8603 11.4628 29.9842 11.5417 30.1106 11.6169C30.2317 11.6889 30.3553 11.7576 30.4811 11.8228C30.5081 11.8367 30.5353 11.8506 30.5625 11.8643C30.6879 11.9272 30.7673 12.0553 30.7673 12.1955V23.7242C30.7672 25.3241 30.2253 26.8549 29.2633 28.0843H31.5822C32.3099 26.768 32.7075 25.2715 32.7075 23.7237V18.7132C32.72 18.9066 32.8818 19.0596 33.0782 19.0598C33.2828 19.0595 33.4485 18.8936 33.4485 18.6889L33.4493 23.7237C33.4493 25.2598 33.0875 26.7492 32.4202 28.0843H35.0218L35.1172 28.0888C35.4774 28.1233 35.7812 28.3509 35.9238 28.6669L35.9288 28.6781C35.9816 28.7991 36.0109 28.9328 36.0109 29.0732L36.1063 29.0778C36.4708 29.1127 36.7775 29.3453 36.9179 29.6671C36.9707 29.7881 37 29.9217 37 30.0622V36.9851C37 37.1216 36.9723 37.2517 36.9223 37.37C36.7839 37.6971 36.4746 37.9342 36.1063 37.9695L36.0109 37.974H20.0052ZM14.2509 30.4117L12.1098 28.9241C10.4075 27.7412 9.39087 25.7971 9.39074 23.7242V12.4177C11.3427 11.3659 12.7707 9.54403 13.3288 7.40131H17.1296H18.5129H26.0874C26.6178 9.4377 27.9342 11.1836 29.7393 12.2547C29.8333 12.3106 29.9288 12.3646 30.0255 12.4167V15.3573V15.6572V17.6324V18.0611V23.0102V23.7242C30.0254 24.2242 29.9663 24.7167 29.8526 25.1929C29.5939 26.2763 29.0531 27.2749 28.2848 28.0843H28.1418H27.6467H27.1348H15.24C14.6937 28.0843 14.2509 28.527 14.2509 29.0732V30.4117ZM14.9927 34.7284V34.6442V34.2763V34.1923V31.3791V29.0732C14.9927 28.9367 15.1034 28.826 15.24 28.826H26.3043H26.8857H27.4437H28.0408H28.5931H31.124H31.5698H32.0083H35.0218C35.1584 28.826 35.2691 28.9367 35.2691 29.0732V29.815V35.9961C35.2691 36.1326 35.1584 36.2433 35.0218 36.2433H22.7722H22.1226H21.4723H17.9443H17.2938H16.6436H15.9818H15.24C15.1034 36.2433 14.9927 36.1326 14.9927 35.9961V35.1803V35.0959V34.7284Z" fill="#8C8C8C"/>
</svg>
