<svg width="40" height="40" viewBox="0 0 40 40" fill="none" xmlns="http://www.w3.org/2000/svg">
    <path fill-rule="evenodd" clip-rule="evenodd" d="M22.25 21V19.6738L22.7472 19.1768C22.8178 19.1061 22.9065 19.0617 23 19.0454V20.2586L22.25 21ZM25.1401 21H24.1947V21.75H25.1401V21ZM28.8053 21.75H27.86V21H28.8053V21.75ZM30.7398 21L30.919 21.1791C31.0975 21.3577 31.3349 21.456 31.5874 21.456C31.84 21.456 32.0774 21.3575 32.2558 21.179L32.4348 21H30.7398ZM34.0049 19.43L34.1791 19.2558C34.2487 19.1862 34.3061 19.1077 34.3503 19.0228C34.1688 19.0797 34.0319 19.2372 34.0049 19.43ZM23 6.73949L22.25 5.98962V7.32607L22.7472 7.8231C22.8178 7.89376 22.9066 7.93814 23 7.95446V6.73949ZM34.0103 17.75L33.2606 17H32.0455C32.0617 17.0935 32.1061 17.1823 32.1768 17.253L32.6736 17.75H34.0103ZM32.8992 19.1988L32.1988 19.8992C32.2826 19.9625 32.3869 20 32.5 20C32.7761 20 33 19.7761 33 19.5C33 19.3869 32.9625 19.2826 32.8992 19.1988ZM30.8898 19.8132L30.2531 19.1768C30.2302 19.1539 30.2055 19.1338 30.1792 19.1164C30.0697 19.2082 30 19.3459 30 19.5C30 19.7761 30.2239 20 30.5 20C30.6576 20 30.7981 19.9271 30.8898 19.8132ZM19.405 11.1947C19.5458 11.4915 19.6371 11.8108 19.6739 12.14H18.3446C18.2852 11.8328 18.1388 11.5466 17.9197 11.317L17.8063 11.2049C17.8517 11.1982 17.8982 11.1947 17.9454 11.1947H19.405ZM17.9197 13.5871C17.9284 13.5779 17.9371 13.5686 17.9456 13.5592V14.8599H18.5335L18.0881 15.3046L17.1497 14.3678L17.9197 13.5871ZM24.5282 17C25.111 17.3297 25.784 17.518 26.5001 17.518C26.9414 17.518 27.3773 17.4457 27.7956 17.3033C27.9428 17.2531 28.0493 17.1375 28.0934 17H24.5282ZM23 11.5283C22.6704 12.1111 22.4821 12.784 22.4821 13.5C22.4821 14.2161 22.6704 14.8889 23 15.4718V11.5283Z" fill="#8C8C8C"/>
    <path fill-rule="evenodd" clip-rule="evenodd" d="M22.25 17V17.75H23H32.6736H34.0103H35.9998C36.6901 17.75 37.2498 18.3096 37.2498 19V36C37.2498 36.6904 36.6901 37.25 35.9998 37.25H7.99976C7.3094 37.25 6.74976 36.6904 6.74976 36V23V22.25H5.99976V36L6.0105 36.2041C6.10596 37.1457 6.8541 37.8938 7.79565 37.9893L7.99976 38H35.9998C37.1043 38 37.9998 37.1046 37.9998 36V19C37.9998 17.8954 37.1043 17 35.9998 17H33.2606H32.0455H28.0934H24.5282H23H22.25ZM8.50139 17L8.71604 17.2143L8.93069 17H8.50139ZM14.6213 17L13.87 17.75H15.7469L16.4981 17H14.6213ZM11.2714 17.75H10.0201L10.641 17.1302L11.2714 17.75Z" fill="#8C8C8C"/>
    <path fill-rule="evenodd" clip-rule="evenodd" d="M22.0001 21.75H22.8546H24.1947H25.1401H27.86H28.8053H35.625C35.8321 21.75 36 21.5821 36 21.375C36 21.1679 35.8321 21 35.625 21H32.4348H30.7398H28.8053H27.86H25.1401H24.1947H23H22.25L22.25 21.0103C22.2477 21.2878 22.1551 21.5436 22.0001 21.75Z" fill="#8C8C8C"/>
    <path fill-rule="evenodd" clip-rule="evenodd" d="M2 4C2 2.89543 2.89543 2 4 2H21C22.1046 2 23 2.89543 23 4V6.73949V7.95446V11.5283V15.4718V17V17.75V19.0454V20.2586V21C23 21.2652 22.9484 21.5184 22.8546 21.75C22.8478 21.7668 22.8408 21.7834 22.8336 21.7999C22.8272 21.8145 22.8207 21.8289 22.814 21.8434C22.8127 21.8461 22.8153 21.8407 22.814 21.8434C22.8049 21.8627 22.7954 21.882 22.7857 21.901C22.7776 21.9167 22.7694 21.9324 22.7609 21.9479C22.6336 22.1809 22.458 22.3895 22.2527 22.5559C22.0363 22.7304 21.783 22.8613 21.507 22.9343C21.4944 22.9376 21.4817 22.9408 21.4689 22.9439C21.3189 22.9803 21.1608 23 21 23H6.74976H4C2.89543 23 2 22.1046 2 21V4ZM19.405 11.1947C19.5458 11.4915 19.6371 11.8108 19.6739 12.14C19.6861 12.2491 19.6922 12.3592 19.6922 12.47C19.6922 13.2404 19.3933 13.9809 18.8581 14.5359L18.5335 14.8599L18.0881 15.3046L17.1497 14.3678L17.9197 13.5871C17.9284 13.5779 17.9371 13.5686 17.9456 13.5592C18.2213 13.2567 18.3745 12.862 18.3745 12.452C18.3745 12.3466 18.3643 12.2421 18.3446 12.14C18.2852 11.8328 18.1388 11.5466 17.9197 11.317L17.8063 11.2049L15.3571 8.78271L16.2955 7.84586L18.8581 10.4042C19.0841 10.6385 19.2679 10.9059 19.405 11.1947ZM22.25 21L22.25 21.0103C22.2477 21.2878 22.1551 21.5436 22.0001 21.75C21.772 22.0536 21.409 22.25 21 22.25H6.74976H5.99976H4C3.30964 22.25 2.75 21.6904 2.75 21V4C2.75 3.30964 3.30964 2.75 4 2.75H21C21.6904 2.75 22.25 3.30964 22.25 4V5.98962V7.32607V17V17.75V19.6738V21ZM8.50139 17L8.71604 17.2143L8.93069 17L9.65444 16.2775L7.09187 13.7192C6.79986 13.4132 6.63699 13.0068 6.63699 12.5841C6.63699 12.1615 6.79986 11.7551 7.09187 11.4491L7.87387 10.6684L6.92344 9.73157L6.15346 10.5003C5.61111 11.0564 5.30762 11.8019 5.30762 12.5781C5.30762 13.3543 5.61111 14.0999 6.15346 14.656L8.50139 17ZM14.6213 17L13.87 17.75L13.7088 17.9109C13.4023 18.2025 12.9952 18.3651 12.5719 18.3651C12.1486 18.3651 11.7415 18.2025 11.435 17.9109L11.2714 17.75L10.641 17.1302L10.0201 17.75L9.70256 18.067L10.4846 18.8479C11.0416 19.3892 11.7884 19.6922 12.5659 19.6922C13.3434 19.6922 14.0902 19.3892 14.6472 18.8479L15.7469 17.75L16.4981 17L17.2219 16.2775L16.2834 15.3406L14.6213 17ZM10.3883 6.17636L7.82575 8.73466L8.76416 9.67152L11.3027 7.1132C11.6112 6.82089 12.0203 6.65793 12.4456 6.65793C12.8709 6.65793 13.28 6.82089 13.5885 7.1132L14.3585 7.8819L15.2969 6.94505L14.551 6.12831C13.9877 5.59325 13.2374 5.29885 12.4599 5.30782C11.6824 5.31679 10.9391 5.62842 10.3883 6.17636ZM16.5 13.1787C16.6807 12.9965 16.7821 12.7505 16.7821 12.4941C16.7821 12.2377 16.6807 11.9916 16.5 11.8094L13.2035 8.51848C13.0211 8.33804 12.7746 8.23682 12.5178 8.23682C12.2609 8.23682 12.0145 8.33804 11.832 8.51848L8.52353 11.8215C8.43224 11.9119 8.35977 12.0195 8.31031 12.138C8.26087 12.2565 8.23541 12.3837 8.23541 12.5121C8.23541 12.6405 8.26087 12.7676 8.31031 12.8861C8.35977 13.0047 8.43224 13.1123 8.52353 13.2027L8.77619 13.4669L11.5553 16.2294L11.808 16.4817C11.8985 16.5728 12.0063 16.6452 12.125 16.6945C12.2438 16.7439 12.3711 16.7693 12.4997 16.7693C12.6284 16.7693 12.7557 16.7439 12.8744 16.6945C12.9931 16.6452 13.1009 16.5728 13.1915 16.4817L16.5 13.1787ZM9.72662 12.5181L12.5057 9.71955L15.2969 12.5181L12.5057 15.2806L9.72662 12.5181Z" fill="#8C8C8C"/>
    <path d="M21 22.25V23H6.74976H4L4 22.25H5.99976H6.74976H21ZM22.25 21V19.6738V17.75V17V7.32607V5.98962V4C22.25 3.30964 21.6904 2.75 21 2.75H4C3.30964 2.75 2.75 3.30964 2.75 4V21C2.75 21.6904 3.30964 22.25 4 22.25L4 23L3.7959 22.9893C2.85435 22.8938 2.1062 22.1457 2.01074 21.2041L2 21V4C2 2.89543 2.89543 2 4 2H21C22.1046 2 23 2.89543 23 4V6.73949V7.95446V11.5283V15.4718V17V17.75V19.0454V20.2586V21C23 21.2652 22.9484 21.5184 22.8546 21.75C22.8478 21.7668 22.8408 21.7834 22.8336 21.7999C22.8272 21.8145 22.8207 21.8289 22.814 21.8434C22.8127 21.8461 22.8153 21.8407 22.814 21.8434C22.8049 21.8627 22.7954 21.882 22.7857 21.901C22.7776 21.9167 22.7694 21.9324 22.7609 21.9479C22.6336 22.1809 22.458 22.3895 22.2527 22.5559C22.0363 22.7304 21.783 22.8613 21.507 22.9343C21.4944 22.9376 21.4817 22.9408 21.4689 22.9439C21.3831 22.9647 21.2937 22.9802 21.2041 22.9893L21 23V22.25C21.409 22.25 21.772 22.0536 22.0001 21.75C22.1551 21.5436 22.2477 21.2878 22.25 21.0103C22.25 21.0069 22.25 21.0034 22.25 21Z" fill="#8C8C8C"/>
    <path d="M10.3883 6.17636L7.82575 8.73466L8.76416 9.67152L11.3027 7.1132C11.6112 6.82089 12.0203 6.65793 12.4456 6.65793C12.8709 6.65793 13.28 6.82089 13.5885 7.1132L14.3585 7.8819L15.2969 6.94505L14.551 6.12831C13.9877 5.59325 13.2374 5.29885 12.4599 5.30782C11.6824 5.31679 10.9391 5.62842 10.3883 6.17636Z" fill="#8C8C8C"/>
    <path d="M16.5 13.1787C16.6807 12.9965 16.7821 12.7505 16.7821 12.4941C16.7821 12.2377 16.6807 11.9916 16.5 11.8094L13.2035 8.51848C13.0211 8.33804 12.7746 8.23682 12.5178 8.23682C12.2609 8.23682 12.0145 8.33804 11.832 8.51848L8.52353 11.8215C8.43224 11.9119 8.35977 12.0195 8.31031 12.138C8.26087 12.2565 8.23541 12.3837 8.23541 12.5121C8.23541 12.6405 8.26087 12.7676 8.31031 12.8861C8.35977 13.0047 8.43224 13.1123 8.52353 13.2027L8.77619 13.4669L11.5553 16.2294L11.808 16.4817C11.8985 16.5728 12.0063 16.6452 12.125 16.6945C12.2438 16.7439 12.3711 16.7693 12.4997 16.7693C12.6284 16.7693 12.7557 16.7439 12.8744 16.6945C12.9931 16.6452 13.1009 16.5728 13.1915 16.4817L16.5 13.1787ZM9.72662 12.5181L12.5057 9.71955L15.2969 12.5181L12.5057 15.2806L9.72662 12.5181Z" fill="#8C8C8C"/>
    <path d="M13.7088 17.9109C13.4023 18.2025 12.9952 18.3651 12.5719 18.3651C12.1486 18.3651 11.7415 18.2025 11.435 17.9109L11.2714 17.75L10.641 17.1302L10.0201 17.75L9.70256 18.067L10.4846 18.8479C11.0416 19.3892 11.7884 19.6922 12.5659 19.6922C13.3434 19.6922 14.0902 19.3892 14.6472 18.8479L15.7469 17.75L16.4981 17L17.2219 16.2775L16.2834 15.3406L14.6213 17L13.87 17.75L13.7088 17.9109Z" fill="#8C8C8C"/>
    <path d="M7.09187 13.7192C6.79986 13.4132 6.63699 13.0068 6.63699 12.5841C6.63699 12.1615 6.79986 11.7551 7.09187 11.4491L7.87387 10.6684L6.92344 9.73157L6.15346 10.5003C5.61111 11.0564 5.30762 11.8019 5.30762 12.5781C5.30762 13.3543 5.61111 14.0999 6.15346 14.656L8.50139 17L8.71604 17.2143L8.93069 17L9.65444 16.2775L7.09187 13.7192Z" fill="#8C8C8C"/>
    <path d="M18.8581 10.4042L16.2955 7.84586L15.3571 8.78271L17.8063 11.2049L17.9197 11.317C18.1388 11.5466 18.2852 11.8328 18.3446 12.14C18.3643 12.2421 18.3745 12.3466 18.3745 12.452C18.3745 12.862 18.2213 13.2567 17.9456 13.5592C17.9371 13.5686 17.9284 13.5779 17.9197 13.5871L17.1497 14.3678L18.0881 15.3046L18.5335 14.8599L18.8581 14.5359C19.3933 13.9809 19.6922 13.2404 19.6922 12.47C19.6922 12.3592 19.6861 12.2491 19.6739 12.14C19.6371 11.8108 19.5458 11.4915 19.405 11.1947C19.2679 10.9059 19.0841 10.6385 18.8581 10.4042Z" fill="#8C8C8C"/>
    <path fill-rule="evenodd" clip-rule="evenodd" d="M35 36L35.1025 35.9951C35.0708 35.9982 35.0325 36 35 36ZM9.89746 35.9951L10 36C9.96745 36 9.92921 35.9982 9.89746 35.9951ZM9 35L9.00488 35.1025C9.00184 35.0708 9 35.0325 9 35ZM28.0519 33.07C27.9679 33.07 27.9026 33.056 27.8559 33.028C27.8139 33 27.7836 32.9627 27.7649 32.916C27.7462 32.8647 27.7369 32.8087 27.7369 32.748V28.492C27.7369 28.4313 27.7462 28.38 27.7649 28.338C27.7836 28.2913 27.8162 28.254 27.8629 28.226C27.9096 28.198 27.9772 28.184 28.0659 28.184C28.1359 28.184 28.1919 28.1887 28.2339 28.198C28.2759 28.2073 28.3086 28.2213 28.3319 28.24C28.3599 28.254 28.3879 28.2773 28.4159 28.31L30.1346 30.7991L31.8739 28.289C31.9019 28.2563 31.9299 28.233 31.9579 28.219C31.9859 28.205 32.0209 28.1957 32.0629 28.191C32.1096 28.1863 32.1632 28.184 32.2239 28.184C32.3126 28.184 32.3779 28.198 32.4199 28.226C32.4666 28.254 32.4992 28.2937 32.5179 28.345C32.5366 28.3917 32.5459 28.4453 32.5459 28.506V32.762C32.5459 32.818 32.5366 32.8693 32.5179 32.916C32.4992 32.9627 32.4666 33 32.4199 33.028C32.3732 33.056 32.3056 33.07 32.2169 33.07C32.1329 33.07 32.0676 33.056 32.0209 33.028C31.9789 33 31.9486 32.9627 31.9299 32.916C31.9159 32.8647 31.9089 32.8087 31.9089 32.748V29.234L30.4109 31.439C30.3969 31.4623 30.3782 31.4857 30.3549 31.509C30.3316 31.5277 30.3012 31.544 30.2639 31.558C30.2312 31.572 30.1892 31.579 30.1379 31.579C30.0819 31.579 30.0376 31.572 30.0049 31.558C29.9769 31.544 29.9512 31.5277 29.9279 31.509C29.9046 31.4857 29.8812 31.46 29.8579 31.432L28.3669 29.241V32.762C28.3669 32.818 28.3576 32.8693 28.3389 32.916C28.3249 32.9627 28.2946 33 28.2479 33.028C28.2059 33.056 28.1406 33.07 28.0519 33.07ZM23.7257 33.07C23.6371 33.07 23.5694 33.056 23.5227 33.028C23.4761 33.0047 23.4457 32.9697 23.4317 32.923C23.4224 32.8717 23.4177 32.8133 23.4177 32.748V28.492C23.4177 28.4313 23.4247 28.38 23.4387 28.338C23.4574 28.2913 23.4877 28.254 23.5297 28.226C23.5764 28.198 23.6441 28.184 23.7327 28.184H25.2797C25.5084 28.184 25.7161 28.219 25.9027 28.289C26.0941 28.3543 26.2597 28.4523 26.3997 28.583C26.5397 28.7137 26.6471 28.8793 26.7217 29.08C26.8011 29.276 26.8407 29.5047 26.8407 29.766C26.8407 29.9293 26.8151 30.0997 26.7637 30.277C26.7124 30.4497 26.6331 30.613 26.5257 30.767C26.4231 30.921 26.2901 31.0493 26.1267 31.152C26.0876 31.1766 26.0464 31.1987 26.0033 31.2182L26.8267 32.531C26.8734 32.6057 26.9014 32.6687 26.9107 32.72C26.9247 32.7713 26.9154 32.818 26.8827 32.86C26.8547 32.902 26.8034 32.9463 26.7287 32.993C26.6307 33.0583 26.5467 33.0793 26.4767 33.056C26.4114 33.0327 26.3484 32.9767 26.2877 32.888L25.3121 31.327H24.0477V32.755C24.0477 32.8203 24.0384 32.8763 24.0197 32.923C24.0057 32.9697 23.9754 33.0047 23.9287 33.028C23.8867 33.056 23.8191 33.07 23.7257 33.07ZM19.4178 32.93C19.7118 33.056 20.0245 33.119 20.3558 33.119C20.6778 33.119 20.9788 33.056 21.2588 32.93C21.5435 32.7993 21.7931 32.6197 22.0078 32.391C22.2225 32.1577 22.3905 31.894 22.5118 31.6C22.6378 31.3013 22.7008 30.9817 22.7008 30.641C22.7008 30.2957 22.6378 29.9713 22.5118 29.668C22.3858 29.3647 22.2131 29.101 21.9938 28.877C21.7791 28.6483 21.5248 28.471 21.2308 28.345C20.9415 28.219 20.6288 28.156 20.2928 28.156C19.9708 28.156 19.6675 28.2213 19.3828 28.352C19.0981 28.4827 18.8461 28.6623 18.6268 28.891C18.4121 29.1197 18.2441 29.388 18.1228 29.696C18.0015 29.9993 17.9408 30.3237 17.9408 30.669C17.9408 31.0097 18.0038 31.327 18.1298 31.621C18.2558 31.915 18.4285 32.1763 18.6478 32.405C18.8718 32.629 19.1285 32.804 19.4178 32.93ZM17.7833 28.205C17.746 28.191 17.697 28.184 17.6363 28.184H14.0733C14.0173 28.184 13.966 28.191 13.9193 28.205C13.8773 28.219 13.8447 28.247 13.8213 28.289C13.8027 28.3263 13.7933 28.3893 13.7933 28.478C13.7933 28.562 13.805 28.625 13.8283 28.667C13.8517 28.709 13.8843 28.737 13.9263 28.751C13.9683 28.7603 14.0197 28.765 14.0803 28.765H15.5503V32.755C15.5503 32.8157 15.555 32.8717 15.5643 32.923C15.5783 32.9697 15.6063 33.0047 15.6483 33.028C15.695 33.056 15.765 33.07 15.8583 33.07C15.947 33.07 16.0123 33.056 16.0543 33.028C16.101 33.0047 16.1313 32.9697 16.1453 32.923C16.164 32.8763 16.1733 32.8227 16.1733 32.762V28.765H17.6223C17.683 28.765 17.7343 28.7603 17.7763 28.751C17.8183 28.737 17.851 28.709 17.8743 28.667C17.9023 28.625 17.9163 28.562 17.9163 28.478C17.9163 28.3893 17.9047 28.3263 17.8813 28.289C17.858 28.247 17.8253 28.219 17.7833 28.205ZM11.393 33.077C11.5517 33.119 11.7197 33.14 11.897 33.14C12.121 33.14 12.3333 33.1097 12.534 33.049C12.7393 32.9883 12.9213 32.8997 13.08 32.783C13.2387 32.6617 13.3623 32.5123 13.451 32.335C13.5443 32.1577 13.591 31.9523 13.591 31.719C13.591 31.4857 13.5513 31.2897 13.472 31.131C13.3927 30.9723 13.2877 30.8417 13.157 30.739C13.0263 30.6317 12.8793 30.543 12.716 30.473C12.5527 30.3983 12.387 30.3353 12.219 30.284C12.065 30.2373 11.918 30.1907 11.778 30.144C11.638 30.0927 11.512 30.0367 11.4 29.976C11.288 29.9107 11.197 29.8337 11.127 29.745C11.0617 29.6563 11.029 29.549 11.029 29.423C11.029 29.311 11.05 29.213 11.092 29.129C11.134 29.0403 11.1923 28.9657 11.267 28.905C11.3463 28.8443 11.4373 28.8 11.54 28.772C11.6473 28.7393 11.7617 28.723 11.883 28.723C12.009 28.723 12.1233 28.7347 12.226 28.758C12.3333 28.7767 12.4337 28.814 12.527 28.87C12.625 28.926 12.7183 29.0053 12.807 29.108C12.891 29.178 12.968 29.2107 13.038 29.206C13.108 29.2013 13.1803 29.157 13.255 29.073C13.3343 28.9843 13.3693 28.9097 13.36 28.849C13.3507 28.7883 13.304 28.7137 13.22 28.625C13.178 28.5737 13.1173 28.52 13.038 28.464C12.9587 28.4033 12.863 28.3473 12.751 28.296C12.639 28.24 12.5107 28.1957 12.366 28.163C12.2213 28.1303 12.0627 28.114 11.89 28.114C11.596 28.114 11.337 28.17 11.113 28.282C10.889 28.3893 10.714 28.541 10.588 28.737C10.4667 28.933 10.406 29.1593 10.406 29.416C10.406 29.584 10.427 29.731 10.469 29.857C10.5157 29.983 10.5787 30.0927 10.658 30.186C10.742 30.2793 10.8377 30.361 10.945 30.431C11.0523 30.4963 11.1667 30.557 11.288 30.613C11.4093 30.6643 11.533 30.711 11.659 30.753C11.8177 30.8043 11.974 30.858 12.128 30.914C12.282 30.9653 12.422 31.0283 12.548 31.103C12.674 31.173 12.7743 31.2593 12.849 31.362C12.9237 31.4647 12.961 31.5907 12.961 31.74C12.961 31.922 12.912 32.0713 12.814 32.188C12.7207 32.3 12.5923 32.384 12.429 32.44C12.2657 32.496 12.079 32.524 11.869 32.524C11.7057 32.524 11.54 32.489 11.372 32.419C11.204 32.3443 11.0617 32.2277 10.945 32.069C10.8937 31.999 10.8423 31.943 10.791 31.901C10.7443 31.859 10.693 31.838 10.637 31.838C10.581 31.8333 10.5157 31.859 10.441 31.915C10.3757 31.971 10.3313 32.0223 10.308 32.069C10.2893 32.1157 10.287 32.1647 10.301 32.216C10.315 32.2627 10.3477 32.3233 10.399 32.398C10.455 32.4867 10.532 32.5753 10.63 32.664C10.728 32.7527 10.84 32.8343 10.966 32.909C11.0967 32.979 11.239 33.035 11.393 33.077ZM24.0477 30.711H25.4337C25.5411 30.711 25.6414 30.6923 25.7347 30.655C25.8281 30.613 25.9097 30.5523 25.9797 30.473C26.0497 30.3937 26.1057 30.2957 26.1477 30.179C26.1897 30.0623 26.2107 29.9223 26.2107 29.759C26.2107 29.5583 26.1734 29.388 26.0987 29.248C26.0287 29.108 25.9237 29.003 25.7837 28.933C25.6437 28.8583 25.4711 28.821 25.2657 28.821H24.0477V30.711ZM20.9928 32.342C20.7828 32.4353 20.5565 32.482 20.3138 32.482C20.0758 32.482 19.8518 32.4353 19.6418 32.342C19.4365 32.244 19.2521 32.111 19.0888 31.943C18.9301 31.775 18.8041 31.579 18.7108 31.355C18.6221 31.131 18.5778 30.893 18.5778 30.641C18.5778 30.3843 18.6221 30.144 18.7108 29.92C18.8041 29.696 18.9301 29.5 19.0888 29.332C19.2521 29.164 19.4388 29.031 19.6488 28.933C19.8588 28.835 20.0828 28.786 20.3208 28.786C20.5588 28.786 20.7828 28.835 20.9928 28.933C21.2028 29.031 21.3871 29.1663 21.5458 29.339C21.7091 29.507 21.8351 29.703 21.9238 29.927C22.0171 30.1463 22.0638 30.382 22.0638 30.634C22.0638 30.8953 22.0171 31.138 21.9238 31.362C21.8351 31.5813 21.7115 31.7773 21.5528 31.95C21.3941 32.118 21.2075 32.2487 20.9928 32.342Z" fill="#8C8C8C"/>
    <path fill-rule="evenodd" clip-rule="evenodd" d="M8.89746 34.9951L9 35C8.96745 35 8.92921 34.9982 8.89746 34.9951ZM8 34L8.00488 34.1025C8.00184 34.0708 8 34.0325 8 34ZM28.0519 33.07C27.9679 33.07 27.9026 33.056 27.8559 33.028C27.8139 33 27.7836 32.9627 27.7649 32.916C27.7462 32.8647 27.7369 32.8087 27.7369 32.748V28.492C27.7369 28.4313 27.7462 28.38 27.7649 28.338C27.7836 28.2913 27.8162 28.254 27.8629 28.226C27.9096 28.198 27.9772 28.184 28.0659 28.184C28.1359 28.184 28.1919 28.1887 28.2339 28.198C28.2759 28.2073 28.3086 28.2213 28.3319 28.24C28.3599 28.254 28.3879 28.2773 28.4159 28.31L30.1346 30.7991L31.8739 28.289C31.9019 28.2563 31.9299 28.233 31.9579 28.219C31.9859 28.205 32.0209 28.1957 32.0629 28.191C32.1096 28.1863 32.1632 28.184 32.2239 28.184C32.3126 28.184 32.3779 28.198 32.4199 28.226C32.4666 28.254 32.4992 28.2937 32.5179 28.345C32.5366 28.3917 32.5459 28.4453 32.5459 28.506V32.762C32.5459 32.818 32.5366 32.8693 32.5179 32.916C32.4992 32.9627 32.4666 33 32.4199 33.028C32.3732 33.056 32.3056 33.07 32.2169 33.07C32.1329 33.07 32.0676 33.056 32.0209 33.028C31.9789 33 31.9486 32.9627 31.9299 32.916C31.9159 32.8647 31.9089 32.8087 31.9089 32.748V29.234L30.4109 31.439C30.3969 31.4623 30.3782 31.4857 30.3549 31.509C30.3316 31.5277 30.3012 31.544 30.2639 31.558C30.2312 31.572 30.1892 31.579 30.1379 31.579C30.0819 31.579 30.0376 31.572 30.0049 31.558C29.9769 31.544 29.9512 31.5277 29.9279 31.509C29.9046 31.4857 29.8812 31.46 29.8579 31.432L28.3669 29.241V32.762C28.3669 32.818 28.3576 32.8693 28.3389 32.916C28.3249 32.9627 28.2946 33 28.2479 33.028C28.2059 33.056 28.1406 33.07 28.0519 33.07ZM23.7257 33.07C23.6371 33.07 23.5694 33.056 23.5227 33.028C23.4761 33.0047 23.4457 32.9697 23.4317 32.923C23.4224 32.8717 23.4177 32.8133 23.4177 32.748V28.492C23.4177 28.4313 23.4247 28.38 23.4387 28.338C23.4574 28.2913 23.4877 28.254 23.5297 28.226C23.5764 28.198 23.6441 28.184 23.7327 28.184H25.2797C25.5084 28.184 25.7161 28.219 25.9027 28.289C26.0941 28.3543 26.2597 28.4523 26.3997 28.583C26.5397 28.7137 26.6471 28.8793 26.7217 29.08C26.8011 29.276 26.8407 29.5047 26.8407 29.766C26.8407 29.9293 26.8151 30.0997 26.7637 30.277C26.7124 30.4497 26.6331 30.613 26.5257 30.767C26.4231 30.921 26.2901 31.0493 26.1267 31.152C26.0876 31.1766 26.0464 31.1987 26.0033 31.2182L26.8267 32.531C26.8734 32.6057 26.9014 32.6687 26.9107 32.72C26.9247 32.7713 26.9154 32.818 26.8827 32.86C26.8547 32.902 26.8034 32.9463 26.7287 32.993C26.6307 33.0583 26.5467 33.0793 26.4767 33.056C26.4114 33.0327 26.3484 32.9767 26.2877 32.888L25.3121 31.327H24.0477V32.755C24.0477 32.8203 24.0384 32.8763 24.0197 32.923C24.0057 32.9697 23.9754 33.0047 23.9287 33.028C23.8867 33.056 23.8191 33.07 23.7257 33.07ZM19.4178 32.93C19.7118 33.056 20.0245 33.119 20.3558 33.119C20.6778 33.119 20.9788 33.056 21.2588 32.93C21.5435 32.7993 21.7931 32.6197 22.0078 32.391C22.2225 32.1577 22.3905 31.894 22.5118 31.6C22.6378 31.3013 22.7008 30.9817 22.7008 30.641C22.7008 30.2957 22.6378 29.9713 22.5118 29.668C22.3858 29.3647 22.2131 29.101 21.9938 28.877C21.7791 28.6483 21.5248 28.471 21.2308 28.345C20.9415 28.219 20.6288 28.156 20.2928 28.156C19.9708 28.156 19.6675 28.2213 19.3828 28.352C19.0981 28.4827 18.8461 28.6623 18.6268 28.891C18.4121 29.1197 18.2441 29.388 18.1228 29.696C18.0015 29.9993 17.9408 30.3237 17.9408 30.669C17.9408 31.0097 18.0038 31.327 18.1298 31.621C18.2558 31.915 18.4285 32.1763 18.6478 32.405C18.8718 32.629 19.1285 32.804 19.4178 32.93ZM17.7833 28.205C17.746 28.191 17.697 28.184 17.6363 28.184H14.0733C14.0173 28.184 13.966 28.191 13.9193 28.205C13.8773 28.219 13.8447 28.247 13.8213 28.289C13.8027 28.3263 13.7933 28.3893 13.7933 28.478C13.7933 28.562 13.805 28.625 13.8283 28.667C13.8517 28.709 13.8843 28.737 13.9263 28.751C13.9683 28.7603 14.0197 28.765 14.0803 28.765H15.5503V32.755C15.5503 32.8157 15.555 32.8717 15.5643 32.923C15.5783 32.9697 15.6063 33.0047 15.6483 33.028C15.695 33.056 15.765 33.07 15.8583 33.07C15.947 33.07 16.0123 33.056 16.0543 33.028C16.101 33.0047 16.1313 32.9697 16.1453 32.923C16.164 32.8763 16.1733 32.8227 16.1733 32.762V28.765H17.6223C17.683 28.765 17.7343 28.7603 17.7763 28.751C17.8183 28.737 17.851 28.709 17.8743 28.667C17.9023 28.625 17.9163 28.562 17.9163 28.478C17.9163 28.3893 17.9047 28.3263 17.8813 28.289C17.858 28.247 17.8253 28.219 17.7833 28.205ZM11.393 33.077C11.5517 33.119 11.7197 33.14 11.897 33.14C12.121 33.14 12.3333 33.1097 12.534 33.049C12.7393 32.9883 12.9213 32.8997 13.08 32.783C13.2387 32.6617 13.3623 32.5123 13.451 32.335C13.5443 32.1577 13.591 31.9523 13.591 31.719C13.591 31.4857 13.5513 31.2897 13.472 31.131C13.3927 30.9723 13.2877 30.8417 13.157 30.739C13.0263 30.6317 12.8793 30.543 12.716 30.473C12.5527 30.3983 12.387 30.3353 12.219 30.284C12.065 30.2373 11.918 30.1907 11.778 30.144C11.638 30.0927 11.512 30.0367 11.4 29.976C11.288 29.9107 11.197 29.8337 11.127 29.745C11.0617 29.6563 11.029 29.549 11.029 29.423C11.029 29.311 11.05 29.213 11.092 29.129C11.134 29.0403 11.1923 28.9657 11.267 28.905C11.3463 28.8443 11.4373 28.8 11.54 28.772C11.6473 28.7393 11.7617 28.723 11.883 28.723C12.009 28.723 12.1233 28.7347 12.226 28.758C12.3333 28.7767 12.4337 28.814 12.527 28.87C12.625 28.926 12.7183 29.0053 12.807 29.108C12.891 29.178 12.968 29.2107 13.038 29.206C13.108 29.2013 13.1803 29.157 13.255 29.073C13.3343 28.9843 13.3693 28.9097 13.36 28.849C13.3507 28.7883 13.304 28.7137 13.22 28.625C13.178 28.5737 13.1173 28.52 13.038 28.464C12.9587 28.4033 12.863 28.3473 12.751 28.296C12.639 28.24 12.5107 28.1957 12.366 28.163C12.2213 28.1303 12.0627 28.114 11.89 28.114C11.596 28.114 11.337 28.17 11.113 28.282C10.889 28.3893 10.714 28.541 10.588 28.737C10.4667 28.933 10.406 29.1593 10.406 29.416C10.406 29.584 10.427 29.731 10.469 29.857C10.5157 29.983 10.5787 30.0927 10.658 30.186C10.742 30.2793 10.8377 30.361 10.945 30.431C11.0523 30.4963 11.1667 30.557 11.288 30.613C11.4093 30.6643 11.533 30.711 11.659 30.753C11.8177 30.8043 11.974 30.858 12.128 30.914C12.282 30.9653 12.422 31.0283 12.548 31.103C12.674 31.173 12.7743 31.2593 12.849 31.362C12.9237 31.4647 12.961 31.5907 12.961 31.74C12.961 31.922 12.912 32.0713 12.814 32.188C12.7207 32.3 12.5923 32.384 12.429 32.44C12.2657 32.496 12.079 32.524 11.869 32.524C11.7057 32.524 11.54 32.489 11.372 32.419C11.204 32.3443 11.0617 32.2277 10.945 32.069C10.8937 31.999 10.8423 31.943 10.791 31.901C10.7443 31.859 10.693 31.838 10.637 31.838C10.581 31.8333 10.5157 31.859 10.441 31.915C10.3757 31.971 10.3313 32.0223 10.308 32.069C10.2893 32.1157 10.287 32.1647 10.301 32.216C10.315 32.2627 10.3477 32.3233 10.399 32.398C10.455 32.4867 10.532 32.5753 10.63 32.664C10.728 32.7527 10.84 32.8343 10.966 32.909C11.0967 32.979 11.239 33.035 11.393 33.077ZM24.0477 30.711H25.4337C25.5411 30.711 25.6414 30.6923 25.7347 30.655C25.8281 30.613 25.9097 30.5523 25.9797 30.473C26.0497 30.3937 26.1057 30.2957 26.1477 30.179C26.1897 30.0623 26.2107 29.9223 26.2107 29.759C26.2107 29.5583 26.1734 29.388 26.0987 29.248C26.0287 29.108 25.9237 29.003 25.7837 28.933C25.6437 28.8583 25.4711 28.821 25.2657 28.821H24.0477V30.711ZM20.9928 32.342C20.7828 32.4353 20.5565 32.482 20.3138 32.482C20.0758 32.482 19.8518 32.4353 19.6418 32.342C19.4365 32.244 19.2521 32.111 19.0888 31.943C18.9301 31.775 18.8041 31.579 18.7108 31.355C18.6221 31.131 18.5778 30.893 18.5778 30.641C18.5778 30.3843 18.6221 30.144 18.7108 29.92C18.8041 29.696 18.9301 29.5 19.0888 29.332C19.2521 29.164 19.4388 29.031 19.6488 28.933C19.8588 28.835 20.0828 28.786 20.3208 28.786C20.5588 28.786 20.7828 28.835 20.9928 28.933C21.2028 29.031 21.3871 29.1663 21.5458 29.339C21.7091 29.507 21.8351 29.703 21.9238 29.927C22.0171 30.1463 22.0638 30.382 22.0638 30.634C22.0638 30.8953 22.0171 31.138 21.9238 31.362C21.8351 31.5813 21.7115 31.7773 21.5528 31.95C21.3941 32.118 21.2075 32.2487 20.9928 32.342Z" fill="#8C8C8C"/>
    <path d="M28.0519 33.07C27.9679 33.07 27.9026 33.056 27.8559 33.028C27.8139 33 27.7836 32.9627 27.7649 32.916C27.7462 32.8647 27.7369 32.8087 27.7369 32.748V28.492C27.7369 28.4313 27.7462 28.38 27.7649 28.338C27.7836 28.2913 27.8162 28.254 27.8629 28.226C27.9096 28.198 27.9772 28.184 28.0659 28.184C28.1359 28.184 28.1919 28.1887 28.2339 28.198C28.2759 28.2073 28.3086 28.2213 28.3319 28.24C28.3599 28.254 28.3879 28.2773 28.4159 28.31L30.1346 30.7991L30.2429 30.956H30.0259L30.1346 30.7991L31.8739 28.289C31.9019 28.2563 31.9299 28.233 31.9579 28.219C31.9859 28.205 32.0209 28.1957 32.0629 28.191C32.1096 28.1863 32.1632 28.184 32.2239 28.184C32.3126 28.184 32.3779 28.198 32.4199 28.226C32.4666 28.254 32.4992 28.2937 32.5179 28.345C32.5366 28.3917 32.5459 28.4453 32.5459 28.506V32.762C32.5459 32.818 32.5366 32.8693 32.5179 32.916C32.4992 32.9627 32.4666 33 32.4199 33.028C32.3732 33.056 32.3056 33.07 32.2169 33.07C32.1329 33.07 32.0676 33.056 32.0209 33.028C31.9789 33 31.9486 32.9627 31.9299 32.916C31.9159 32.8647 31.9089 32.8087 31.9089 32.748V29.234L30.4109 31.439C30.3969 31.4623 30.3782 31.4857 30.3549 31.509C30.3316 31.5277 30.3012 31.544 30.2639 31.558C30.2312 31.572 30.1892 31.579 30.1379 31.579C30.0819 31.579 30.0376 31.572 30.0049 31.558C29.9769 31.544 29.9512 31.5277 29.9279 31.509C29.9046 31.4857 29.8812 31.46 29.8579 31.432L28.3669 29.241V32.762C28.3669 32.818 28.3576 32.8693 28.3389 32.916C28.3249 32.9627 28.2946 33 28.2479 33.028C28.2059 33.056 28.1406 33.07 28.0519 33.07Z" fill="#8C8C8C"/>
    <path d="M23.7257 33.07C23.6371 33.07 23.5694 33.056 23.5227 33.028C23.4761 33.0047 23.4457 32.9697 23.4317 32.923C23.4224 32.8717 23.4177 32.8133 23.4177 32.748V28.492C23.4177 28.4313 23.4247 28.38 23.4387 28.338C23.4574 28.2913 23.4877 28.254 23.5297 28.226C23.5764 28.198 23.6441 28.184 23.7327 28.184H25.2797C25.5084 28.184 25.7161 28.219 25.9027 28.289C26.0941 28.3543 26.2597 28.4523 26.3997 28.583C26.5397 28.7137 26.6471 28.8793 26.7217 29.08C26.8011 29.276 26.8407 29.5047 26.8407 29.766C26.8407 29.9293 26.8151 30.0997 26.7637 30.277C26.7124 30.4497 26.6331 30.613 26.5257 30.767C26.4231 30.921 26.2901 31.0493 26.1267 31.152C26.0876 31.1766 26.0464 31.1987 26.0033 31.2182C25.8663 31.2801 25.7091 31.3164 25.5317 31.327H25.3121H24.0477V32.755C24.0477 32.8203 24.0384 32.8763 24.0197 32.923C24.0057 32.9697 23.9754 33.0047 23.9287 33.028C23.8867 33.056 23.8191 33.07 23.7257 33.07ZM26.7287 32.993C26.6307 33.0583 26.5467 33.0793 26.4767 33.056C26.4114 33.0327 26.3484 32.9767 26.2877 32.888L25.3121 31.327L25.1677 31.096L25.8607 30.991L26.0033 31.2182L26.8267 32.531C26.8734 32.6057 26.9014 32.6687 26.9107 32.72C26.9247 32.7713 26.9154 32.818 26.8827 32.86C26.8547 32.902 26.8034 32.9463 26.7287 32.993ZM24.0477 30.711H25.4337C25.5411 30.711 25.6414 30.6923 25.7347 30.655C25.8281 30.613 25.9097 30.5523 25.9797 30.473C26.0497 30.3937 26.1057 30.2957 26.1477 30.179C26.1897 30.0623 26.2107 29.9223 26.2107 29.759C26.2107 29.5583 26.1734 29.388 26.0987 29.248C26.0287 29.108 25.9237 29.003 25.7837 28.933C25.6437 28.8583 25.4711 28.821 25.2657 28.821H24.0477V30.711Z" fill="#8C8C8C"/>
    <path d="M20.3558 33.119C20.0245 33.119 19.7118 33.056 19.4178 32.93C19.1285 32.804 18.8718 32.629 18.6478 32.405C18.4285 32.1763 18.2558 31.915 18.1298 31.621C18.0038 31.327 17.9408 31.0097 17.9408 30.669C17.9408 30.3237 18.0015 29.9993 18.1228 29.696C18.2441 29.388 18.4121 29.1197 18.6268 28.891C18.8461 28.6623 19.0981 28.4827 19.3828 28.352C19.6675 28.2213 19.9708 28.156 20.2928 28.156C20.6288 28.156 20.9415 28.219 21.2308 28.345C21.5248 28.471 21.7791 28.6483 21.9938 28.877C22.2131 29.101 22.3858 29.3647 22.5118 29.668C22.6378 29.9713 22.7008 30.2957 22.7008 30.641C22.7008 30.9817 22.6378 31.3013 22.5118 31.6C22.3905 31.894 22.2225 32.1577 22.0078 32.391C21.7931 32.6197 21.5435 32.7993 21.2588 32.93C20.9788 33.056 20.6778 33.119 20.3558 33.119ZM20.3138 32.482C20.5565 32.482 20.7828 32.4353 20.9928 32.342C21.2075 32.2487 21.3941 32.118 21.5528 31.95C21.7115 31.7773 21.8351 31.5813 21.9238 31.362C22.0171 31.138 22.0638 30.8953 22.0638 30.634C22.0638 30.382 22.0171 30.1463 21.9238 29.927C21.8351 29.703 21.7091 29.507 21.5458 29.339C21.3871 29.1663 21.2028 29.031 20.9928 28.933C20.7828 28.835 20.5588 28.786 20.3208 28.786C20.0828 28.786 19.8588 28.835 19.6488 28.933C19.4388 29.031 19.2521 29.164 19.0888 29.332C18.9301 29.5 18.8041 29.696 18.7108 29.92C18.6221 30.144 18.5778 30.3843 18.5778 30.641C18.5778 30.893 18.6221 31.131 18.7108 31.355C18.8041 31.579 18.9301 31.775 19.0888 31.943C19.2521 32.111 19.4365 32.244 19.6418 32.342C19.8518 32.4353 20.0758 32.482 20.3138 32.482Z" fill="#8C8C8C"/>
    <path d="M17.6363 28.184C17.697 28.184 17.746 28.191 17.7833 28.205C17.8253 28.219 17.858 28.247 17.8813 28.289C17.9047 28.3263 17.9163 28.3893 17.9163 28.478C17.9163 28.562 17.9023 28.625 17.8743 28.667C17.851 28.709 17.8183 28.737 17.7763 28.751C17.7343 28.7603 17.683 28.765 17.6223 28.765H16.1733V32.762C16.1733 32.8227 16.164 32.8763 16.1453 32.923C16.1313 32.9697 16.101 33.0047 16.0543 33.028C16.0123 33.056 15.947 33.07 15.8583 33.07C15.765 33.07 15.695 33.056 15.6483 33.028C15.6063 33.0047 15.5783 32.9697 15.5643 32.923C15.555 32.8717 15.5503 32.8157 15.5503 32.755V28.765H14.0803C14.0197 28.765 13.9683 28.7603 13.9263 28.751C13.8843 28.737 13.8517 28.709 13.8283 28.667C13.805 28.625 13.7933 28.562 13.7933 28.478C13.7933 28.3893 13.8027 28.3263 13.8213 28.289C13.8447 28.247 13.8773 28.219 13.9193 28.205C13.966 28.191 14.0173 28.184 14.0733 28.184H17.6363Z" fill="#8C8C8C"/>
    <path d="M11.897 33.14C11.7197 33.14 11.5517 33.119 11.393 33.077C11.239 33.035 11.0967 32.979 10.966 32.909C10.84 32.8343 10.728 32.7527 10.63 32.664C10.532 32.5753 10.455 32.4867 10.399 32.398C10.3477 32.3233 10.315 32.2627 10.301 32.216C10.287 32.1647 10.2893 32.1157 10.308 32.069C10.3313 32.0223 10.3757 31.971 10.441 31.915C10.5157 31.859 10.581 31.8333 10.637 31.838C10.693 31.838 10.7443 31.859 10.791 31.901C10.8423 31.943 10.8937 31.999 10.945 32.069C11.0617 32.2277 11.204 32.3443 11.372 32.419C11.54 32.489 11.7057 32.524 11.869 32.524C12.079 32.524 12.2657 32.496 12.429 32.44C12.5923 32.384 12.7207 32.3 12.814 32.188C12.912 32.0713 12.961 31.922 12.961 31.74C12.961 31.5907 12.9237 31.4647 12.849 31.362C12.7743 31.2593 12.674 31.173 12.548 31.103C12.422 31.0283 12.282 30.9653 12.128 30.914C11.974 30.858 11.8177 30.8043 11.659 30.753C11.533 30.711 11.4093 30.6643 11.288 30.613C11.1667 30.557 11.0523 30.4963 10.945 30.431C10.8377 30.361 10.742 30.2793 10.658 30.186C10.5787 30.0927 10.5157 29.983 10.469 29.857C10.427 29.731 10.406 29.584 10.406 29.416C10.406 29.1593 10.4667 28.933 10.588 28.737C10.714 28.541 10.889 28.3893 11.113 28.282C11.337 28.17 11.596 28.114 11.89 28.114C12.0627 28.114 12.2213 28.1303 12.366 28.163C12.5107 28.1957 12.639 28.24 12.751 28.296C12.863 28.3473 12.9587 28.4033 13.038 28.464C13.1173 28.52 13.178 28.5737 13.22 28.625C13.304 28.7137 13.3507 28.7883 13.36 28.849C13.3693 28.9097 13.3343 28.9843 13.255 29.073C13.1803 29.157 13.108 29.2013 13.038 29.206C12.968 29.2107 12.891 29.178 12.807 29.108C12.7183 29.0053 12.625 28.926 12.527 28.87C12.4337 28.814 12.3333 28.7767 12.226 28.758C12.1233 28.7347 12.009 28.723 11.883 28.723C11.7617 28.723 11.6473 28.7393 11.54 28.772C11.4373 28.8 11.3463 28.8443 11.267 28.905C11.1923 28.9657 11.134 29.0403 11.092 29.129C11.05 29.213 11.029 29.311 11.029 29.423C11.029 29.549 11.0617 29.6563 11.127 29.745C11.197 29.8337 11.288 29.9107 11.4 29.976C11.512 30.0367 11.638 30.0927 11.778 30.144C11.918 30.1907 12.065 30.2373 12.219 30.284C12.387 30.3353 12.5527 30.3983 12.716 30.473C12.8793 30.543 13.0263 30.6317 13.157 30.739C13.2877 30.8417 13.3927 30.9723 13.472 31.131C13.5513 31.2897 13.591 31.4857 13.591 31.719C13.591 31.9523 13.5443 32.1577 13.451 32.335C13.3623 32.5123 13.2387 32.6617 13.08 32.783C12.9213 32.8997 12.7393 32.9883 12.534 33.049C12.3333 33.1097 12.121 33.14 11.897 33.14Z" fill="#8C8C8C"/>
    <path d="M31 19.5C31 19.6186 30.9587 19.7275 30.8898 19.8132C30.7981 19.9271 30.6576 20 30.5 20C30.2239 20 30 19.7761 30 19.5C30 19.3459 30.0697 19.2082 30.1792 19.1164C30.2661 19.0438 30.3779 19 30.5 19C30.7761 19 31 19.2239 31 19.5Z" fill="#8C8C8C"/>
    <path d="M33 19.5C33 19.7761 32.7761 20 32.5 20C32.3869 20 32.2826 19.9625 32.1988 19.8992C32.0781 19.8079 32 19.6631 32 19.5C32 19.2239 32.2239 19 32.5 19C32.6631 19 32.8079 19.0781 32.8992 19.1988C32.9625 19.2826 33 19.3869 33 19.5Z" fill="#8C8C8C"/>
    <path d="M35 19.5C35 19.7761 34.7761 20 34.5 20C34.2239 20 34 19.7761 34 19.5C34 19.4762 34.0017 19.4529 34.0049 19.43C34.0319 19.2372 34.1688 19.0797 34.3503 19.0228C34.3976 19.008 34.4478 19 34.5 19C34.7761 19 35 19.2239 35 19.5Z" fill="#8C8C8C"/>
    <path d="M34.25 27.75V34C34.25 34.1381 34.1381 34.25 34 34.25H9.75H9C8.86193 34.25 8.75 34.1381 8.75 34V27C8.75 26.8619 8.86193 26.75 9 26.75H34C34.1381 26.75 34.25 26.8619 34.25 27V27.75ZM35 27C35 26.4477 34.5523 26 34 26H9C8.44772 26 8 26.4477 8 27V34L8.00488 34.1025C8.05278 34.573 8.42703 34.9472 8.89746 34.9951L9 35L9.00488 35.1025C9.05278 35.573 9.42703 35.9472 9.89746 35.9951L10 36H35L35.1025 35.9951C35.2348 35.9816 35.3595 35.9423 35.4714 35.8824L35.4874 35.8736C35.6421 35.787 35.7714 35.6606 35.8614 35.5082C35.8823 35.4722 35.9051 35.4278 35.9214 35.3892C35.972 35.2696 36 35.1381 36 35V28C36 27.4477 35.5523 27 35 27Z" fill="#8C8C8C"/>
    <path fill-rule="evenodd" clip-rule="evenodd" d="M28.0907 16.7033C28.1247 16.8032 28.1234 16.9067 28.0934 17H24.5282C23.8905 16.6393 23.3606 16.1094 23 15.4718V11.5283C23.6903 10.3077 25.0006 9.4821 26.5001 9.4821C28.7156 9.4821 30.518 11.2845 30.518 13.5C30.518 13.9066 30.4573 14.3081 30.3378 14.6933C30.2603 14.9425 29.9954 15.0822 29.7461 15.0044C29.4968 14.9271 29.3574 14.6621 29.4349 14.4128C29.5262 14.1186 29.5726 13.8115 29.5726 13.5C29.5726 11.8058 28.1943 10.4275 26.5001 10.4275C24.8059 10.4275 23.4275 11.8058 23.4275 13.5C23.4275 15.1943 24.8059 16.5726 26.5001 16.5726C26.8374 16.5726 27.1708 16.5173 27.4908 16.4083C27.7378 16.3239 28.0065 16.4562 28.0907 16.7033Z" fill="#8C8C8C"/>
    <path fill-rule="evenodd" clip-rule="evenodd" d="M33.0937 16.833L33.2606 17H32.0455C32.027 16.8944 32.0445 16.7829 32.1004 16.6847C32.3654 16.2196 32.5713 15.7227 32.7122 15.2078C32.7685 15.0024 32.9552 14.8599 33.1682 14.8599H35.0548V12.14H33.1682C32.9552 12.14 32.7685 11.9975 32.7122 11.792C32.5713 11.2773 32.3655 10.7803 32.1004 10.3149C31.9951 10.1299 32.0263 9.89729 32.1769 9.74669L33.5108 8.41248L31.5876 6.48926L30.2533 7.8231C30.1027 7.97364 29.8699 8.00474 29.6851 7.89958C29.2198 7.63438 28.7228 7.42867 28.2082 7.28781C28.0028 7.2316 27.8602 7.04488 27.8602 6.83184V4.94534H25.1403V6.83184C25.1403 7.04488 24.9978 7.23166 24.7923 7.28775C24.2777 7.42861 23.7807 7.63438 23.3154 7.89958C23.2172 7.95548 23.1056 7.9729 23 7.95446V6.73949L23.1669 6.90638C23.4985 6.73854 23.8422 6.59617 24.1947 6.48055V4.9454C24.1947 4.42414 24.6188 4 25.1401 4H27.86C28.3813 4 28.8054 4.42414 28.8054 4.9454V6.48055C29.1579 6.59617 29.5015 6.73854 29.8331 6.90638L30.919 5.82073C31.2878 5.45231 31.8875 5.45243 32.256 5.82097L34.1792 7.74414C34.5477 8.1128 34.5477 8.71253 34.1792 9.08107L33.0937 10.167C33.2614 10.4985 33.4039 10.8423 33.5194 11.1947H35.0546C35.5759 11.1947 36 11.6188 36 12.1401V14.86C36 15.3813 35.5759 15.8054 35.0546 15.8054H33.5194C33.4038 16.1579 33.2614 16.5015 33.0937 16.833Z" fill="#8C8C8C"/>
</svg>
