<svg width="40" height="40" viewBox="0 0 40 40" fill="none" xmlns="http://www.w3.org/2000/svg">
<path fill-rule="evenodd" clip-rule="evenodd" d="M24.5118 5.53761C24.5572 5.26948 24.6414 5.01455 24.7585 4.7788C23.9225 4.16066 22.902 3.77547 21.7954 3.72086L21.5229 3.71402C20.2848 3.71402 19.0733 4.13876 18.1123 4.91031C17.2869 5.57298 16.673 6.46731 16.3516 7.46256C15.9731 7.31229 15.5701 7.22469 15.1616 7.20523L14.9863 7.20133C12.9679 7.20142 11.3243 8.82471 11.3101 10.8258C9.91787 11.4529 9 12.8496 9 14.3825L9.00488 14.5827C9.10686 16.5757 10.7216 18.179 12.7285 18.2804L12.9307 18.2853H18.2368V17.5353H12.9307C11.1726 17.5353 9.7501 16.1154 9.75 14.3825C9.75 13.1491 10.4909 12.0172 11.6182 11.5094L12.0566 11.3122L12.0601 10.8312C12.0713 9.2468 13.3754 7.95142 14.9863 7.95133C15.3593 7.95133 15.73 8.02244 16.0747 8.15933L16.8188 8.45474L17.0649 7.69303C17.3412 6.83741 17.8708 6.06634 18.582 5.49527C19.4092 4.83119 20.4547 4.46402 21.5229 4.46402C22.6593 4.46406 23.7012 4.86794 24.5118 5.53761ZM26.167 8.5399C26.1828 8.66838 26.1933 8.79843 26.1982 8.92984L26.2183 9.47232L26.7402 9.62222C27.5324 9.8499 28.2473 10.3191 28.771 10.9591C29.356 11.6741 29.6787 12.5773 29.6787 13.4997C29.6788 15.7193 27.8575 17.5352 25.6094 17.5353H21.9868V18.2853H25.6094L25.8569 18.2795C28.3176 18.1551 30.2972 16.1892 30.4224 13.7458L30.4287 13.4997C30.4287 12.404 30.046 11.3333 29.3516 10.4845C28.7309 9.72598 27.8858 9.17116 26.9478 8.90152C26.9457 8.84596 26.9427 8.79062 26.939 8.7355C26.6681 8.70769 26.4088 8.64056 26.167 8.5399ZM26.0464 7.91811C26.1544 7.98454 26.2685 8.0421 26.3876 8.08977C26.3503 8.0173 26.3156 7.94068 26.2837 7.86084C26.2258 7.71621 26.175 7.55674 26.1321 7.38537C26.0505 7.40695 25.9719 7.43081 25.8965 7.45672C25.9542 7.60699 26.0044 7.76094 26.0464 7.91811ZM26.6342 7.28763C26.6238 7.25889 26.6132 7.23026 26.6023 7.20175C26.6092 7.2313 26.6163 7.26039 26.6237 7.28901C26.6599 7.42976 26.7017 7.55908 26.748 7.6748C26.7571 7.69749 26.7663 7.7195 26.7756 7.74086C26.735 7.58701 26.6878 7.43583 26.6342 7.28763ZM25.6911 6.99899C25.8013 6.95955 25.9165 6.92439 26.036 6.8938C25.996 6.61906 25.9741 6.3251 25.9731 6.02076C25.7369 5.68561 25.4632 5.37826 25.1583 5.10471C25.0424 5.37171 24.9767 5.6656 24.9733 5.97442C25.2563 6.2812 25.4985 6.62562 25.6911 6.99899Z" fill="#8C8C8C"/>
<path fill-rule="evenodd" clip-rule="evenodd" d="M30.0516 3.17153C31.6137 4.73365 31.6136 7.2663 30.0515 8.82837C28.4894 10.3905 25.9568 10.3906 24.3947 8.82847C22.8326 7.26635 22.8326 4.7337 24.3947 3.17163C25.9568 1.6095 28.4895 1.60945 30.0516 3.17153ZM27.2231 3.25C26.143 3.25 25.2083 3.87275 24.7585 4.7788C24.6414 5.01455 24.5572 5.26948 24.5118 5.53761C24.4864 5.68794 24.4731 5.84242 24.4731 6C24.4731 7.14458 25.1724 8.12586 26.167 8.5399C26.4088 8.64056 26.6681 8.70769 26.939 8.7355C26.9378 8.71868 26.9366 8.70189 26.9353 8.68511C27.0233 8.726 27.1195 8.75 27.2231 8.75C28.7419 8.75 29.9731 7.51877 29.9731 6C29.9731 4.48123 28.7419 3.25 27.2231 3.25ZM26.3876 8.08977C26.2685 8.0421 26.1544 7.98454 26.0464 7.91811C25.8876 7.8205 25.7419 7.70374 25.6124 7.57104C25.7008 7.52961 25.7957 7.49133 25.8965 7.45672C25.9719 7.43081 26.0505 7.40695 26.1321 7.38537C26.175 7.55674 26.2258 7.71621 26.2837 7.86084C26.3156 7.94068 26.3503 8.0173 26.3876 8.08977ZM27.2231 8.25C27.1759 8.25 27.1057 8.22713 27.0156 8.13184C26.9348 8.04636 26.8518 7.91602 26.7756 7.74086C26.7663 7.7195 26.7571 7.69749 26.748 7.6748C26.7017 7.55908 26.6599 7.42976 26.6237 7.28901C26.6163 7.26039 26.6092 7.2313 26.6023 7.20175C26.6132 7.23026 26.6238 7.25889 26.6342 7.28763C26.8216 7.26317 27.0188 7.25 27.2231 7.25C27.4312 7.25 27.632 7.26368 27.8225 7.28903C27.7863 7.42977 27.7445 7.55909 27.6982 7.6748C27.6147 7.88358 27.5213 8.03594 27.4306 8.13184C27.3405 8.22713 27.2703 8.25 27.2231 8.25ZM28.3141 7.38542C28.2712 7.55677 28.2204 7.71623 28.1626 7.86084C28.1306 7.94068 28.096 8.0173 28.0586 8.08977C28.3527 7.97209 28.6161 7.79412 28.8337 7.57115C28.6792 7.49869 28.5047 7.43583 28.3141 7.38542ZM29.1468 7.16771C29.3538 6.8273 29.4731 6.42758 29.4731 6C29.4731 5.57243 29.3538 5.17271 29.1468 4.8323C28.929 4.94475 28.6805 5.03725 28.4102 5.10637C28.4512 5.3873 28.4731 5.68833 28.4731 6C28.4731 6.31168 28.4512 6.61271 28.4102 6.89364C28.6805 6.96276 28.929 7.05526 29.1468 7.16771ZM27.9188 6.79752C27.9537 6.5501 27.9731 6.28171 27.9731 6C27.9731 5.7183 27.9537 5.44991 27.9188 5.20248C27.6952 5.23365 27.462 5.25 27.2231 5.25C26.9842 5.25 26.7509 5.23363 26.5274 5.20243C26.4925 5.44987 26.4731 5.71828 26.4731 6C26.4731 6.28173 26.4925 6.55014 26.5274 6.79757C26.7509 6.76637 26.9842 6.75 27.2231 6.75C27.462 6.75 27.6952 6.76635 27.9188 6.79752ZM25.2996 4.83203C25.5174 4.9445 25.7658 5.03704 26.036 5.10621C25.995 5.38719 25.9731 5.68827 25.9731 6L25.9731 6.02076C25.9741 6.3251 25.996 6.61906 26.036 6.8938C25.9165 6.92439 25.8013 6.95955 25.6911 6.99899C25.5521 7.04872 25.4211 7.10525 25.2996 7.16797C25.0924 6.8275 24.9731 6.42769 24.9731 6L24.9733 5.97442C24.9767 5.6656 25.0424 5.37171 25.1583 5.10471C25.1993 5.01028 25.2466 4.91921 25.2996 4.83203ZM26.1321 4.61464C25.9415 4.56424 25.767 4.50141 25.6124 4.42896C25.83 4.20594 26.0935 4.02793 26.3876 3.91023C26.3503 3.9827 26.3156 4.05932 26.2837 4.13916C26.2258 4.28379 26.175 4.44326 26.1321 4.61464ZM27.2231 4.75C27.015 4.75 26.8143 4.73633 26.6237 4.71099C26.6599 4.57025 26.7017 4.44092 26.748 4.3252C26.8315 4.11642 26.9249 3.96406 27.0156 3.86816C27.1057 3.77286 27.176 3.75 27.2231 3.75C27.2703 3.75 27.3405 3.77286 27.4306 3.86816C27.5213 3.96406 27.6147 4.11642 27.6982 4.3252C27.7445 4.44092 27.7863 4.57023 27.8225 4.71097C27.632 4.73633 27.4312 4.75 27.2231 4.75ZM28.3141 4.61459C28.5047 4.56417 28.6792 4.50132 28.8337 4.42886C28.6161 4.20588 28.3527 4.02791 28.0586 3.91023C28.096 3.9827 28.1306 4.05932 28.1626 4.13916C28.2204 4.28377 28.2712 4.44323 28.3141 4.61459Z" fill="#8C8C8C"/>
<path fill-rule="evenodd" clip-rule="evenodd" d="M26.6023 7.20175C26.6092 7.2313 26.6163 7.26039 26.6237 7.28901L26.6342 7.28763C26.6238 7.25889 26.6132 7.23026 26.6023 7.20175Z" fill="#8C8C8C"/>
<path fill-rule="evenodd" clip-rule="evenodd" d="M26.9353 8.68511C26.9366 8.70189 26.9378 8.71868 26.939 8.7355C27.0324 8.74509 27.1272 8.75 27.2231 8.75C27.1195 8.75 27.0233 8.726 26.9353 8.68511Z" fill="#8C8C8C"/>
<path fill-rule="evenodd" clip-rule="evenodd" d="M18.0049 24.6248H15.7141C14.4025 24.6248 13.3391 25.6881 13.3391 26.9998V27.7781C13.3392 27.9852 13.507 28.1531 13.7141 28.1531C13.9212 28.1531 14.0891 27.9852 14.0891 27.7781V26.9998C14.0891 26.1023 14.8167 25.3748 15.7141 25.3748H18.6867L18.0049 24.6248ZM21.5368 25.3748H24.0711C25.2447 25.3748 26.1961 26.3262 26.1961 27.4998V29.7142C26.1961 29.9212 26.3641 30.089 26.5711 30.0892C26.7782 30.0892 26.946 29.9212 26.9461 29.7142V27.4998C26.9461 25.912 25.6589 24.6248 24.0711 24.6248H22.2187L21.5368 25.3748Z" fill="#8C8C8C"/>
<path d="M26.1964 35.3383V32.7143C26.1964 32.5072 26.3643 32.3393 26.5714 32.3393C26.7784 32.3394 26.9464 32.5073 26.9464 32.7143V35.3383C26.9464 36.546 25.7242 37.375 24.4284 37.375C24.2213 37.375 24.0534 37.2071 24.0534 37C24.0534 36.7929 24.2213 36.625 24.4284 36.625C25.4987 36.625 26.1964 35.9655 26.1964 35.3383Z" fill="#8C8C8C"/>
<path fill-rule="evenodd" clip-rule="evenodd" d="M12.8037 36.9999H24.4288C23.5116 36.9999 22.7681 36.1982 22.7681 35.2093V30.862C22.7681 30.0336 22.0965 29.362 21.2681 29.362H19.0841C18.6323 29.362 18.2045 29.1583 17.9197 28.8076L17.366 28.1257C17.0812 27.775 16.6534 27.5713 16.2016 27.5713H12.1431C11.5908 27.5713 11.1431 28.019 11.1431 28.5713V35.2095C11.1431 36.1983 11.8866 36.9999 12.8037 36.9999ZM13.1118 35.5C13.1118 35.7761 12.8879 36 12.6118 36C12.3356 36 12.1118 35.7761 12.1118 35.5C12.1118 35.2239 12.3356 35 12.6118 35C12.8879 35 13.1118 35.2239 13.1118 35.5ZM14.1118 36C14.3879 36 14.6118 35.7761 14.6118 35.5C14.6118 35.2239 14.3879 35 14.1118 35C13.8356 35 13.6118 35.2239 13.6118 35.5C13.6118 35.7761 13.8356 36 14.1118 36ZM16.1118 35.5C16.1118 35.7761 15.8879 36 15.6118 36C15.3356 36 15.1118 35.7761 15.1118 35.5C15.1118 35.2239 15.3356 35 15.6118 35C15.8879 35 16.1118 35.2239 16.1118 35.5Z" fill="#8C8C8C"/>
<path d="M10.7681 35.2095V28.5713C10.7681 27.8119 11.3837 27.1963 12.1431 27.1963H16.2017C16.7664 27.1963 17.3012 27.4508 17.6572 27.8892L18.2109 28.5713C18.4245 28.8342 18.7452 28.9868 19.084 28.9868H21.2681C22.3036 28.9868 23.143 29.8264 23.1431 30.8618V35.2095C23.1432 36.0183 23.7445 36.6249 24.4284 36.625C24.6355 36.625 24.8037 36.7929 24.8037 37C24.8036 37.2071 24.6354 37.375 24.4284 37.375L12.8037 37.375C11.6535 37.375 10.7681 36.3784 10.7681 35.2095ZM11.5181 35.2095C11.5181 36.0183 12.1198 36.625 12.8037 36.625H22.8887C22.5782 36.2415 22.3931 35.7436 22.3931 35.2095V30.8618C22.393 30.2406 21.8893 29.7368 21.2681 29.7368H19.084C18.5192 29.7368 17.9844 29.4824 17.6284 29.044L17.0747 28.3623C16.8611 28.0993 16.5405 27.9463 16.2017 27.9463H12.1431C11.7979 27.9463 11.5181 28.2261 11.5181 28.5713V35.2095Z" fill="#8C8C8C"/>
<path fill-rule="evenodd" clip-rule="evenodd" d="M21.8618 14.5H18.3618C18.0856 14.5 17.8618 14.7239 17.8618 15V21.5C17.8618 21.7761 17.6379 22 17.3618 22H16.2421C15.808 22 15.5801 22.5152 15.8721 22.8363L19.3718 26.6861C19.7686 27.1225 20.455 27.1225 20.8517 26.6861L24.3515 22.8363C24.6435 22.5151 24.4156 22 23.9815 22H22.8618C22.5856 22 22.3618 21.7761 22.3618 21.5V15C22.3618 14.7239 22.1379 14.5 21.8618 14.5ZM21.9868 17.5353V15C21.9868 14.931 21.9308 14.875 21.8618 14.875H18.3618C18.2927 14.875 18.2368 14.931 18.2368 15V17.5353V18.2853V21.5C18.2368 21.9832 17.845 22.375 17.3618 22.375H16.2422C16.1337 22.375 16.0766 22.5037 16.1494 22.584L18.0049 24.6248L18.6867 25.3748L19.6494 26.4336C19.8974 26.7064 20.3262 26.7064 20.5742 26.4336L21.5368 25.3748L22.2187 24.6248L24.0742 22.584C24.147 22.5037 24.0899 22.375 23.9814 22.375H22.8618C22.3785 22.375 21.9868 21.9832 21.9868 21.5V18.2853V17.5353Z" fill="#8C8C8C"/>
<path d="M21.9868 15C21.9868 14.931 21.9308 14.875 21.8618 14.875H18.3618C18.2927 14.875 18.2368 14.931 18.2368 15V17.5353V18.2853V21.5C18.2368 21.9832 17.845 22.375 17.3618 22.375H16.2422C16.1337 22.375 16.0766 22.5037 16.1494 22.584L18.0049 24.6248L18.6867 25.3748L19.6494 26.4336C19.8974 26.7064 20.3262 26.7064 20.5742 26.4336L21.5368 25.3748L22.2187 24.6248L24.0742 22.584C24.147 22.5037 24.0899 22.375 23.9814 22.375H22.8618C22.3785 22.375 21.9868 21.9832 21.9868 21.5V18.2853V17.5353V15ZM22.7368 21.5C22.7368 21.569 22.7927 21.625 22.8618 21.625H23.9814C24.741 21.625 25.1398 22.5263 24.6289 23.0884L21.1294 26.9385C20.5838 27.5386 19.6398 27.5386 19.0942 26.9385L15.5947 23.0884C15.0838 22.5263 15.4826 21.625 16.2422 21.625H17.3618C17.4308 21.625 17.4868 21.569 17.4868 21.5V15C17.4868 14.5168 17.8785 14.125 18.3618 14.125H21.8618C22.345 14.125 22.7368 14.5168 22.7368 15V21.5Z" fill="#8C8C8C"/>
</svg>
