<svg width="40" height="40" viewBox="0 0 40 40" fill="none" xmlns="http://www.w3.org/2000/svg">
<path fill-rule="evenodd" clip-rule="evenodd" d="M33.625 16.0254H23.2607L20.5869 12.7627C20.5157 12.6758 20.4092 12.625 20.2969 12.625H10.375V11C10.375 9.55025 11.5503 8.375 13 8.375H16C16.2071 8.375 16.375 8.20711 16.375 8C16.375 7.79289 16.2071 7.625 16 7.625H13C11.136 7.625 9.625 9.13604 9.625 11V12.625H9C8.79289 12.625 8.625 12.7929 8.625 13V24.0051C7.92637 24.4972 7.3487 25.1704 6.95996 25.9785L6.59473 26.7344L5.77344 26.7607C4.00281 26.8175 2.62506 28.2774 2.625 30.0664C2.625 31.8842 4.07721 33.3749 5.87793 33.375H24.1221C25.8198 33.3749 27.2077 32.0499 27.3609 30.375H30.4463H32.0078C33.873 30.375 35.375 28.8638 35.375 27.001V25.3477C36.4872 25.2433 37.3573 24.3075 37.3574 23.168V10C37.3574 7.5932 35.4068 5.64258 33 5.64258H23.832C22.6925 5.64275 21.7567 6.51277 21.6523 7.625H19C18.7929 7.625 18.625 7.79289 18.625 8C18.625 8.20711 18.7929 8.375 19 8.375H31C32.4497 8.375 33.625 9.55025 33.625 11V16.0254ZM9.375 24.4149C9.24597 24.4896 9.1208 24.5712 9 24.6592C8.8697 24.7542 8.74449 24.8567 8.625 24.9664C8.22212 25.3361 7.88426 25.7871 7.63574 26.3037L7.07422 27.4697L6.84668 27.4775L5.79688 27.5107C4.44411 27.5543 3.37506 28.6693 3.375 30.0664C3.375 31.4835 4.50484 32.6249 5.87793 32.625H24.1221C25.3939 32.6249 26.4571 31.6456 26.6069 30.375C26.6189 30.2739 26.625 30.1709 26.625 30.0664L26.6249 30.0403L26.6247 30.0291L26.6242 30C26.6209 29.8731 26.6084 29.7478 26.5873 29.625C26.4444 28.7958 25.9056 28.0791 25.1396 27.7295L24.0059 27.2119L23.9873 26.9941L23.8975 25.9531C23.7662 24.4339 23.0846 23.0263 21.9795 21.9893C20.869 20.9474 19.4272 20.375 17.9189 20.375C15.9879 20.375 14.1601 21.3337 13.0322 22.9434L12.5293 23.6611L12.4209 23.8154L12.2334 23.8203L11.3682 23.8467C10.6543 23.8682 9.97315 24.0684 9.375 24.4149Z" fill="#8C8C8C"/>
</svg>
