<svg width="40" height="40" viewBox="0 0 40 40" fill="none" xmlns="http://www.w3.org/2000/svg">
<g clip-path="url(#clip0_81523_13950)">
<mask id="mask0_81523_13950" style="mask-type:luminance" maskUnits="userSpaceOnUse" x="0" y="0" width="40" height="40">
<path d="M40 0H0V40H40V0Z" fill="white"/>
</mask>
<g mask="url(#mask0_81523_13950)">
<path d="M24.4018 14.5H16.5982C15.1633 14.5 14 15.6633 14 17.0982V24.9018C14 26.3367 15.1633 27.5 16.5982 27.5H24.4018C25.8367 27.5 27 26.3367 27 24.9018V17.0982C27 15.6633 25.8367 14.5 24.4018 14.5Z" stroke="#BBBBBB" stroke-width="0.875"/>
<path d="M7.99997 16.5C4.41016 16.5 1.5 13.5898 1.5 9.99997C1.5 6.41014 4.41016 3.5 7.99997 3.5C11.5898 3.5 14.5 6.41014 14.5 9.99997C14.5 13.5898 11.5898 16.5 7.99997 16.5Z" stroke="#BBBBBB" stroke-width="0.875"/>
<path d="M3.5 10C3.5 12.4809 5.51912 14.5 8.00006 14.5C10.4809 14.5 12.4999 12.4809 12.5 10C12.5 7.51904 10.481 5.5 8.00006 5.5C5.51912 5.5 3.5 7.51904 3.5 10Z" fill="#BBBBBB" stroke="#BBBBBB" stroke-width="0.875"/>
<path d="M35.0625 24.625C33.0985 24.625 31.5 23.0265 31.5 21.0625C31.5 19.0985 33.0985 17.5 35.0625 17.5C37.0265 17.5 38.625 19.0985 38.625 21.0625C38.625 23.0265 37.0265 24.625 35.0625 24.625Z" stroke="#BBBBBB" stroke-width="0.875"/>
<path d="M34.167 21.0624C34.167 21.5559 34.5692 21.9582 35.0628 21.9582C35.5564 21.9582 35.9586 21.556 35.9587 21.0624H34.167ZM34.167 21.0624C34.167 20.5688 34.5692 20.1665 35.0628 20.1665ZM34.167 21.0624L35.0628 20.1665ZM35.0628 20.1665C35.5564 20.1665 35.9586 20.5688 35.9587 21.0624L35.0628 20.1665Z" fill="#BBBBBB"/>
<path d="M34.167 21.0624C34.167 21.5559 34.5692 21.9582 35.0628 21.9582C35.5564 21.9582 35.9586 21.556 35.9587 21.0624M34.167 21.0624H35.9587M34.167 21.0624C34.167 20.5688 34.5692 20.1665 35.0628 20.1665M34.167 21.0624L35.0628 20.1665M35.9587 21.0624C35.9586 20.5688 35.5564 20.1665 35.0628 20.1665M35.9587 21.0624L35.0628 20.1665" stroke="#BBBBBB" stroke-width="0.875"/>
<path fill-rule="evenodd" clip-rule="evenodd" d="M14.7666 31.1709C14.1798 31.1709 13.7041 31.6466 13.7041 32.2334V35.1001C13.7041 35.6869 14.1798 36.1626 14.7666 36.1626H25.6333C26.2201 36.1626 26.6958 35.6869 26.6958 35.1001V32.2334C26.6958 31.6466 26.2201 31.1709 25.6333 31.1709H14.7666ZM15.7664 34.2448C15.4123 34.2448 15.1243 33.9568 15.1243 33.6028C15.1243 33.2488 15.4123 32.9608 15.7664 32.9608C16.1204 32.9608 16.4084 33.2488 16.4084 33.6028C16.4084 33.9568 16.1204 34.2448 15.7664 34.2448ZM17.2643 33.6028C17.2643 33.9568 17.5523 34.2448 17.9064 34.2448C18.2604 34.2448 18.5484 33.9568 18.5484 33.6028C18.5484 33.2488 18.2604 32.9608 17.9064 32.9608C17.5523 32.9608 17.2643 33.2488 17.2643 33.6028ZM20.0463 34.2448C19.6923 34.2448 19.4043 33.9568 19.4043 33.6028C19.4043 33.2488 19.6923 32.9608 20.0463 32.9608C20.4004 32.9608 20.6884 33.2488 20.6884 33.6028C20.6883 33.9568 20.4003 34.2448 20.0463 34.2448Z" fill="#BBBBBB"/>
<path d="M26.2583 32.2334C26.2583 31.8882 25.9785 31.6084 25.6333 31.6084H14.7666C14.4214 31.6084 14.1416 31.8882 14.1416 32.2334V35.1001C14.1416 35.4453 14.4214 35.7251 14.7666 35.7251H25.6333C25.9785 35.7251 26.2583 35.4453 26.2583 35.1001V32.2334ZM27.1333 35.1001C27.1333 35.9285 26.4617 36.6001 25.6333 36.6001H14.7666C13.9382 36.6001 13.2666 35.9285 13.2666 35.1001V32.2334C13.2666 31.405 13.9382 30.7334 14.7666 30.7334H25.6333C26.4617 30.7334 27.1333 31.405 27.1333 32.2334V35.1001Z" fill="#BBBBBB"/>
<path d="M32.7689 8.54606C32.7689 11.1967 30.6201 13.3455 27.9694 13.3455C25.3187 13.3455 23.1699 11.1967 23.1699 8.54606C23.1699 5.89536 25.3187 3.74658 27.9694 3.74658C30.6201 3.74658 32.7689 5.89536 32.7689 8.54606Z" stroke="#BBBBBB" stroke-width="0.875"/>
<path d="M28.3021 8.5472C28.2166 8.5472 28.131 8.51455 28.0657 8.4493C27.9351 8.3187 27.9351 8.10705 28.0657 7.9764L30.2938 5.7483C30.4244 5.61775 30.6361 5.61775 30.7667 5.7483C30.8973 5.8789 30.8973 6.09055 30.7667 6.22115L28.5386 8.4493C28.4733 8.51455 28.3877 8.5472 28.3021 8.5472Z" fill="#BBBBBB"/>
<path d="M25.4076 11.4416C25.3221 11.4416 25.2364 11.409 25.1712 11.3437C25.0406 11.2131 25.0406 11.0014 25.1712 10.8709L25.6873 10.3547C25.8178 10.2242 26.0297 10.2242 26.1602 10.3547C26.2908 10.4853 26.2908 10.697 26.1602 10.8276L25.644 11.3437C25.5787 11.409 25.4931 11.4416 25.4076 11.4416Z" fill="#BBBBBB"/>
<path d="M30.5301 11.4413C30.4446 11.4413 30.3589 11.4087 30.2937 11.3433L29.7776 10.8272C29.647 10.6966 29.647 10.4848 29.7776 10.3543C29.9083 10.2237 30.1199 10.2237 30.2505 10.3543L30.7666 10.8704C30.8972 11.001 30.8972 11.2128 30.7665 11.3433C30.7013 11.4087 30.6157 11.4413 30.5301 11.4413Z" fill="#BBBBBB"/>
<path d="M25.9237 6.83515C25.8382 6.83515 25.7525 6.80255 25.6873 6.73725L25.1712 6.22115C25.0406 6.09055 25.0406 5.8789 25.1711 5.7483C25.3017 5.61775 25.5134 5.61775 25.644 5.7483L26.1601 6.2644C26.2908 6.395 26.2908 6.60665 26.1601 6.73725C26.0949 6.80255 26.0093 6.83515 25.9237 6.83515Z" fill="#BBBBBB"/>
<path d="M27.9694 9.28595C28.378 9.28595 28.7093 8.9547 28.7093 8.54605C28.7093 8.1374 28.378 7.80615 27.9694 7.80615C27.5608 7.80615 27.2295 8.1374 27.2295 8.54605C27.2295 8.9547 27.5608 9.28595 27.9694 9.28595Z" fill="#BBBBBB"/>
<path d="M12.9847 20.9764H8.84863C8.29633 20.9764 7.84863 20.5287 7.84863 19.9764V16.6963" stroke="#BBBBBB" stroke-width="0.875" stroke-linecap="round"/>
<path d="M27.1084 20.9766H30.1044" stroke="#BBBBBB" stroke-width="0.875" stroke-linecap="round"/>
<path d="M20.2607 13.7003V9.13623C20.2607 8.58393 20.7085 8.13623 21.2607 8.13623H22.8288" stroke="#BBBBBB" stroke-width="0.875" stroke-linecap="round"/>
<path d="M28.9248 19.8394L30.1354 21.05L28.9248 22.2606" stroke="#BBBBBB" stroke-width="0.875" stroke-linecap="round"/>
<path d="M11.8047 19.7749L13.0152 20.9855L11.8047 22.1961" stroke="#BBBBBB" stroke-width="0.875" stroke-linecap="round"/>
<path d="M21.3978 12.52L20.1872 13.7306L18.9766 12.52" stroke="#BBBBBB" stroke-width="0.875" stroke-linecap="round"/>
<path d="M20.2607 27.6475V29.7875" stroke="#BBBBBB" stroke-width="0.875" stroke-linecap="round"/>
<path d="M21.3978 29.0352L20.1872 30.2458L18.9766 29.0352" stroke="#BBBBBB" stroke-width="0.875" stroke-linecap="round"/>
<rect x="15.5" y="16" width="10" height="10" rx="1.5" fill="#BBBBBB"/>
</g>
</g>
<defs>
<clipPath id="clip0_81523_13950">
<rect width="40" height="40" fill="white"/>
</clipPath>
</defs>
</svg>
