<svg width="40" height="40" viewBox="0 0 40 40" fill="none" xmlns="http://www.w3.org/2000/svg">
<path d="M33.625 13.375H5.375V31.877C5.37518 32.8423 6.15771 33.6248 7.12305 33.625H24.749C24.0404 32.5969 23.6251 31.3508 23.625 30.0078C23.625 26.4829 26.4829 23.625 30.0078 23.625C31.3508 23.6251 32.5969 24.0404 33.625 24.749V13.375ZM30.0078 24.375C26.8971 24.375 24.375 26.8971 24.375 30.0078C24.3751 31.3849 24.8695 32.6465 25.6904 33.625L25.8584 33.8164C25.9158 33.8789 25.975 33.9401 26.0352 34L26.2383 34.1924C26.3077 34.2549 26.3787 34.3159 26.4512 34.375C27.421 35.1656 28.6591 35.6396 30.0078 35.6396C33.1181 35.6394 35.6394 33.1181 35.6396 30.0078C35.6396 28.6591 35.1656 27.421 34.375 26.4512C34.3159 26.3787 34.2549 26.3077 34.1924 26.2383L34 26.0352C33.9401 25.975 33.8789 25.9158 33.8164 25.8584L33.625 25.6904C32.6465 24.8695 31.3849 24.3751 30.0078 24.375ZM30.6006 27.1172C30.9911 26.7269 31.6242 26.7267 32.0146 27.1172L32.8984 28.001L32.9668 28.0771C33.287 28.4699 33.2643 29.0489 32.8984 29.415L29.5371 32.7764C29.4802 32.8331 29.4066 32.8701 29.3271 32.8818L27.6699 33.125C27.2144 33.1917 26.8237 32.8003 26.8906 32.3447L27.1338 30.6885C27.1455 30.6088 27.1823 30.5345 27.2393 30.4775L30.6006 27.1172ZM27.8574 30.9189L27.6436 32.3701L29.0947 32.1572L30.7764 30.4756L29.5391 29.2393L27.8574 30.9189ZM9 24C9.55228 24 10 24.4477 10 25V30C10 30.5523 9.55228 31 9 31C8.44772 31 8 30.5523 8 30V25C8 24.4477 8.44772 24 9 24ZM17 24C17.5523 24 18 24.4477 18 25V30C18 30.5523 17.5523 31 17 31H12C11.4477 31 11 30.5523 11 30V25C11 24.4477 11.4477 24 12 24H17ZM20 24C20.5523 24 21 24.4477 21 25V30C21 30.5523 20.5523 31 20 31C19.4477 31 19 30.5523 19 30V25C19 24.4477 19.4477 24 20 24ZM31.4844 27.6475C31.3868 27.5499 31.2285 27.55 31.1309 27.6475L30.0703 28.708L31.3066 29.9453L32.3682 28.8848C32.4655 28.7872 32.4656 28.6289 32.3682 28.5312L31.4844 27.6475ZM14 15C14.5523 15 15 15.4477 15 16V21C15 21.5523 14.5523 22 14 22H9C8.44772 22 8 21.5523 8 21V16C8 15.4477 8.44772 15 9 15H14ZM17 15C17.5523 15 18 15.4477 18 16V21C18 21.5523 17.5523 22 17 22C16.4477 22 16 21.5523 16 21V16C16 15.4477 16.4477 15 17 15ZM25 15C25.5523 15 26 15.4477 26 16V21C26 21.5523 25.5523 22 25 22H20C19.4477 22 19 21.5523 19 21V16C19 15.4477 19.4477 15 20 15H25ZM7.12305 8.375C6.15771 8.37518 5.37518 9.15771 5.375 10.123V12.625H33.625V10.123C33.6248 9.15771 32.8423 8.37518 31.877 8.375H7.12305ZM24.7959 10C25.2355 10 25.5926 10.3563 25.5928 10.7959C25.5928 11.2357 25.2357 11.5928 24.7959 11.5928C24.3563 11.5926 24 11.2355 24 10.7959C24.0002 10.3564 24.3564 10.0002 24.7959 10ZM27.9834 10C28.423 10 28.7801 10.3563 28.7803 10.7959C28.7803 11.2357 28.4232 11.5928 27.9834 11.5928C27.5438 11.5926 27.1875 11.2355 27.1875 10.7959C27.1877 10.3564 27.5439 10.0002 27.9834 10ZM31.1729 10C31.6125 10 31.9695 10.3563 31.9697 10.7959C31.9697 11.2357 31.6126 11.5928 31.1729 11.5928C30.7333 11.5926 30.377 11.2355 30.377 10.7959C30.3772 10.3564 30.7334 10.0002 31.1729 10ZM35.0801 15.625C36.3475 15.625 37.375 16.6525 37.375 17.9199V35.0801C37.375 36.3475 36.3475 37.375 35.0801 37.375H24.9199C23.6525 37.375 22.625 36.3475 22.625 35.0801V34.375H7.12305C5.74349 34.3748 4.62518 33.2565 4.625 31.877V26.375H3.91992C2.65249 26.375 1.62503 25.3475 1.625 24.0801V6.91992C1.62503 5.65249 2.65249 4.62503 3.91992 4.625H14.0801C15.3475 4.62503 16.375 5.65249 16.375 6.91992V7.625H31.877C33.2565 7.62518 34.3748 8.74349 34.375 10.123V15.625H35.0801Z" fill="#BBBBBB"/>
</svg>
