<svg width="40" height="40" viewBox="0 0 40 40" fill="none" xmlns="http://www.w3.org/2000/svg">
<g clip-path="url(#clip0_81541_13843)">
<path d="M36.625 32.2958C36.6247 33.0202 36.0181 33.6249 35.248 33.6249H8.75195C7.98204 33.6249 7.37526 33.0202 7.375 32.2958V11.3749H12.5283C12.7354 11.3749 12.9033 11.207 12.9033 10.9999C12.9033 10.7928 12.7354 10.6249 12.5283 10.6249H7C6.79289 10.6249 6.625 10.7928 6.625 10.9999V32.2958C6.62526 33.4536 7.58727 34.3749 8.75195 34.3749H35.248C36.4128 34.3749 37.3747 33.4536 37.375 32.2958V10.9999C37.375 10.7928 37.2071 10.6249 37 10.6249L36.625 10.6211L18.5537 10.6249C18.3466 10.6249 18.1787 10.7928 18.1787 10.9999C18.1787 11.1888 18.3185 11.3451 18.5002 11.3711C18.5177 11.3736 18.5355 11.3749 18.5537 11.3749H36.625V32.2958Z" fill="#BBBBBB"/>
<path d="M32.9193 23.2139C32.9193 23.5097 32.6799 23.7499 32.3841 23.75H30.6644C30.3685 23.75 30.1283 23.5097 30.1283 23.2139V21.4942C30.1284 21.1985 30.3686 20.959 30.6644 20.959H32.3841C32.6798 20.9591 32.9192 21.1985 32.9193 21.4942V23.2139ZM33.6693 21.4942C33.6692 20.7843 33.0941 20.2091 32.3841 20.209H30.6644C29.9544 20.209 29.3784 20.7842 29.3783 21.4942V23.2139C29.3783 23.924 29.9544 24.5 30.6644 24.5H32.3841C33.0941 24.4999 33.6693 23.9239 33.6693 23.2139V21.4942Z" fill="#BBBBBB"/>
<path d="M26.5713 17.0529C26.5713 17.3486 26.3319 17.5889 26.0361 17.589H24.3164C24.0205 17.589 23.7803 17.3486 23.7803 17.0529V15.3332C23.7804 15.0375 24.0206 14.798 24.3164 14.798H26.0361C26.3318 14.7981 26.5712 15.0375 26.5713 15.3332V17.0529ZM27.3213 15.3332C27.3212 14.6233 26.7461 14.0481 26.0361 14.048H24.3164C23.6065 14.048 23.0304 14.6232 23.0303 15.3332V17.0529C23.0303 17.763 23.6064 18.339 24.3164 18.339H26.0361C26.7461 18.3389 27.3213 17.7629 27.3213 17.0529V15.3332Z" fill="#BBBBBB"/>
<path d="M13.6925 29.6107C13.6925 29.9065 13.4531 30.1467 13.1573 30.1468H11.4376C11.1417 30.1468 10.9014 29.9066 10.9014 29.6107V27.891C10.9016 27.5952 11.1418 27.3558 11.4376 27.3558H13.1573C13.453 27.356 13.6923 27.5953 13.6925 27.891V29.6107ZM14.4425 27.891C14.4423 27.1811 13.8673 26.606 13.1573 26.6058H11.4376C10.7276 26.6058 10.1516 27.181 10.1514 27.891V29.6107C10.1514 30.3208 10.7275 30.8968 11.4376 30.8968H13.1573C13.8674 30.8967 14.4425 30.3207 14.4425 29.6107V27.891Z" fill="#BBBBBB"/>
<path d="M26.5713 29.6107C26.5713 29.9065 26.3319 30.1467 26.0361 30.1468H24.3164C24.0205 30.1468 23.7803 29.9065 23.7803 29.6107V27.891C23.7804 27.5953 24.0206 27.3558 24.3164 27.3558H26.0361C26.3318 27.3559 26.5712 27.5953 26.5713 27.891V29.6107ZM27.3213 27.891C27.3212 27.1811 26.7461 26.6059 26.0361 26.6058H24.3164C23.6065 26.6058 23.0304 27.181 23.0303 27.891V29.6107C23.0303 30.3208 23.6064 30.8968 24.3164 30.8968H26.0361C26.7461 30.8967 27.3213 30.3207 27.3213 29.6107V27.891Z" fill="#BBBBBB"/>
<path d="M32.9193 29.6107C32.9193 29.9065 32.6799 30.1467 32.3841 30.1468H30.6644C30.3685 30.1468 30.1283 29.9065 30.1283 29.6107V27.891C30.1284 27.5953 30.3686 27.3558 30.6644 27.3558H32.3841C32.6798 27.3559 32.9192 27.5953 32.9193 27.891V29.6107ZM33.6693 27.891C33.6692 27.1811 33.094 26.6059 32.3841 26.6058H30.6644C29.9545 26.6058 29.3784 27.181 29.3783 27.891V29.6107C29.3783 30.3208 29.9544 30.8968 30.6644 30.8968H32.3841C33.0941 30.8967 33.6693 30.3207 33.6693 29.6107V27.891Z" fill="#BBBBBB"/>
<path fill-rule="evenodd" clip-rule="evenodd" d="M11.9672 24.125H19.4665C20.0923 24.125 20.5996 23.6176 20.5996 22.9918V15.5556C20.5996 14.9298 20.0923 14.4224 19.4665 14.4224H11.9672C11.3414 14.4224 10.834 14.9298 10.834 15.5556V22.9918C10.834 23.6176 11.3414 24.125 11.9672 24.125ZM15.625 21.9999C15.625 22.207 15.7929 22.3749 16 22.3749C16.2071 22.3749 16.375 22.207 16.375 21.9999V16.9999C16.375 16.7928 16.2071 16.6249 16 16.6249H15C14.7929 16.6249 14.625 16.7928 14.625 16.9999C14.6252 17.2068 14.793 17.3749 15 17.3749H15.625V21.9999Z" fill="#BBBBBB"/>
<path d="M20.2246 22.9922C20.2244 23.4106 19.8852 23.7498 19.4668 23.75H11.9668C11.5483 23.7498 11.2092 23.4106 11.209 22.9922V15.5557C11.209 15.1371 11.5482 14.7981 11.9668 14.7979H19.4668C19.8853 14.798 20.2246 15.1371 20.2246 15.5557V22.9922ZM20.9746 15.5557C20.9746 14.7229 20.2996 14.048 19.4668 14.0479H11.9668C11.134 14.0481 10.459 14.7229 10.459 15.5557V22.9922C10.4592 23.8248 11.1341 24.4998 11.9668 24.5H19.4668C20.2994 24.4998 20.9744 23.8248 20.9746 22.9922V15.5557Z" fill="#BBBBBB"/>
<path fill-rule="evenodd" clip-rule="evenodd" d="M12.3229 5.37497V4.62497H8.49023C7.48295 4.62504 6.625 5.39691 6.625 6.39841V10.9999C6.625 11.2066 6.79233 11.3705 6.99902 11.3711H7.06152L7.12267 11.3714C7.15513 11.3717 7.19356 11.372 7.2373 11.372L7.47377 11.372C7.58743 11.3719 7.71922 11.3719 7.86328 11.372C8.38154 11.3727 9.07262 11.3735 9.76367 11.374L10.2269 11.3744C10.7564 11.3748 11.2628 11.3753 11.665 11.375C11.924 11.3748 12.1403 11.3746 12.292 11.374C12.3675 11.3737 12.4281 11.3734 12.4697 11.373C12.4857 11.3729 12.4999 11.3725 12.5114 11.3723C12.5131 11.3722 12.5247 11.3742 12.5283 11.3749L12.5635 11.3701C12.5673 11.3697 12.5819 11.3677 12.5996 11.3642C12.6113 11.3617 12.6434 11.353 12.6641 11.3457C12.7134 11.3223 12.8653 11.1645 12.9033 10.9999C12.9033 10.7928 12.7354 10.6249 12.5283 10.6249C12.524 10.6249 12.5196 10.6242 12.5153 10.6235C12.51 10.6226 12.5048 10.6218 12.4996 10.6222C12.4908 10.6225 12.4769 10.6229 12.4629 10.623C12.4236 10.6234 12.3645 10.6237 12.2891 10.624C12.1385 10.6246 11.9229 10.6248 11.6641 10.625C11.263 10.6253 10.7583 10.6248 10.2301 10.6244L9.76465 10.624C9.07368 10.6235 8.38251 10.6227 7.86426 10.622C7.76318 10.6219 7.66866 10.622 7.58201 10.622L7.375 10.622V6.39841C7.375 5.85549 7.85137 5.37503 8.49023 5.37497H12.3229ZM18.5537 10.6249C18.3466 10.6249 18.1787 10.7928 18.1787 10.9999C18.1787 11.1888 18.3185 11.3451 18.5002 11.3711H37C37.0995 11.3711 37.1953 11.332 37.2656 11.2617C37.3359 11.1914 37.375 11.0993 37.375 10.9999C37.375 10.7928 37.2071 10.6249 37 10.6249H18.5537Z" fill="#BBBBBB"/>
<path fill-rule="evenodd" clip-rule="evenodd" d="M12.3594 6.96091C12.3586 6.95749 12.359 6.95382 12.3594 6.95015C12.3593 6.95022 12.3594 6.95009 12.3594 6.95015L12.3594 6.96091ZM12.3594 6.93956V5.37497H12.3229V6.5769C12.3229 6.70112 12.3354 6.82241 12.3594 6.93956Z" fill="#BBBBBB"/>
<path fill-rule="evenodd" clip-rule="evenodd" d="M20.2044 7.19868C20.1331 7.00484 20.0942 6.7954 20.0942 6.5769V5.37497H20.1875V6.96091C20.1875 7.04182 20.1933 7.12117 20.2044 7.19868Z" fill="#BBBBBB"/>
<path d="M4 9.83235C4 8.82035 4.82038 7.99997 5.83237 7.99997H7L7 32.1676C7 33.1796 7.82038 34 8.83237 34H34L34 35.1676C34 36.1796 33.1796 37 32.1676 37L5.83237 37C4.82038 37 4 36.1796 4 35.1676L4 9.83235Z" fill="#BBBBBB"/>
<path d="M3.64258 35.1679V9.832C3.64276 8.62263 4.62265 7.64274 5.83203 7.64255H7.35742V32.1679C7.35761 32.982 8.01797 33.6424 8.83203 33.6426H34.3574V35.1679C34.3572 36.3773 33.3773 37.3572 32.168 37.3574H5.83203C4.62265 37.3572 3.64276 36.3773 3.64258 35.1679ZM4.35742 35.1679C4.35761 35.982 5.01797 36.6424 5.83203 36.6426H32.168C32.982 36.6424 33.6424 35.982 33.6426 35.1679V34.3574H8.83203C7.62265 34.3572 6.64276 33.3773 6.64258 32.1679V8.3574H5.83203C5.01797 8.35758 4.35761 9.01794 4.35742 9.832V35.1679Z" fill="#BBBBBB"/>
<path fill-rule="evenodd" clip-rule="evenodd" d="M20.2044 7.19868C20.1933 7.12117 20.1875 7.04182 20.1875 6.96091V5.37497H20.0942V6.5769C20.0942 6.7954 20.1331 7.00484 20.2044 7.19868Z" fill="#BBBBBB"/>
<path d="M12.3229 4.62497V5.37497H12.3594V6.93956V6.96091C12.3594 7.95647 13.2309 8.71733 14.2373 8.68357C15.2034 8.65102 15.9842 7.90419 15.9844 6.92868V5.37497H20.0942H20.1875V6.96091C20.1875 7.04182 20.1933 7.12117 20.2044 7.19868C20.3301 8.07494 21.1409 8.71465 22.0654 8.68357C23.0284 8.65113 23.8123 7.92498 23.8125 6.92868V5.37497H27.8656V6.5769C27.8656 6.89046 27.9457 7.18538 28.0866 7.44227C28.3135 8.1903 29.0562 8.71094 29.8926 8.68357C30.8587 8.65183 31.6416 7.9077 31.6416 6.92868V5.37497H35.5098C36.1486 5.37497 36.625 5.85542 36.625 6.39841V10.6211H17.0713C16.8642 10.6211 16.6963 10.789 16.6963 10.9961C16.6963 11.2032 16.8642 11.3711 17.0713 11.3711H18.5002C18.3185 11.3451 18.1787 11.1888 18.1787 10.9999C18.1787 10.7928 18.3466 10.6249 18.5537 10.6249H37C37.2071 10.6249 37.375 10.7928 37.375 10.9999V6.39841C37.375 5.39691 36.5171 4.62497 35.5098 4.62497H31.4701V2.42749C31.4701 1.43227 30.6636 0.624984 29.6683 0.624756C28.6728 0.624756 27.8656 1.43213 27.8656 2.42749V4.62497H23.6987V2.42749C23.6987 1.43225 22.8922 0.624984 21.8969 0.624756C20.9015 0.624756 20.0942 1.43212 20.0942 2.42749V4.62497H15.9273V2.42749C15.9273 1.43225 15.1209 0.624984 14.1256 0.624756C13.1302 0.624756 12.3229 1.43212 12.3229 2.42749V4.62497Z" fill="#BBBBBB"/>
<path d="M19.6902 26.6058C20.4001 26.606 20.9753 27.1811 20.9754 27.891V29.6107C20.9754 30.3207 20.4002 30.8967 19.6902 30.8968H17.9705C17.2604 30.8968 16.6844 30.3208 16.6844 29.6107V27.891C16.6845 27.181 17.2605 26.6058 17.9705 26.6058H19.6902Z" fill="#BBBBBB"/>
<path d="M26.0361 20.209C26.7461 20.2091 27.3212 20.7843 27.3213 21.4942V23.2139C27.3213 23.9239 26.7461 24.4999 26.0361 24.5H24.3164C23.6064 24.5 23.0303 23.924 23.0303 23.2139V21.4942C23.0304 20.7842 23.6064 20.209 24.3164 20.209H26.0361Z" fill="#BBBBBB"/>
<path d="M32.3841 14.048C33.094 14.0481 33.6692 14.6233 33.6693 15.3332V17.0529C33.6693 17.7629 33.0941 18.3389 32.3841 18.339H30.6644C29.9544 18.339 29.3783 17.763 29.3783 17.0529V15.3332C29.3784 14.6232 29.9545 14.048 30.6644 14.048H32.3841Z" fill="#BBBBBB"/>
</g>
<defs>
<clipPath id="clip0_81541_13843">
<rect width="40" height="40" fill="white"/>
</clipPath>
</defs>
</svg>
