<svg width="40" height="40" viewBox="0 0 40 40" fill="none" xmlns="http://www.w3.org/2000/svg">
<path d="M35.625 24.625H3.375V11.4121C3.375 10.8975 3.895 10.375 4.67773 10.375H34.3223C35.105 10.375 35.625 10.8975 35.625 11.4121V24.625ZM36.375 11.4121C36.375 10.3672 35.3927 9.62501 34.3223 9.625H4.67773C3.60726 9.62502 2.625 10.3672 2.625 11.4121V25C2.625 25.2071 2.79289 25.375 3 25.375H36C36.2071 25.375 36.375 25.2071 36.375 25V11.4121Z" fill="#BBBBBB"/>
<path fill-rule="evenodd" clip-rule="evenodd" d="M30.545 6C31.3486 6 32 6.5515 32 7.23177V10H7V7.23177C7 6.5515 7.65142 6 8.45496 6H30.545ZM16 8C16 8.55228 15.5523 9 15 9C14.4477 9 14 8.55228 14 8C14 7.44772 14.4477 7 15 7C15.5523 7 16 7.44772 16 8ZM12 9C12.5523 9 13 8.55228 13 8C13 7.44772 12.5523 7 12 7C11.4477 7 11 7.44772 11 8C11 8.55228 11.4477 9 12 9ZM10 8C10 8.55228 9.55228 9 9 9C8.44772 9 8 8.55228 8 8C8 7.44772 8.44772 7 9 7C9.55228 7 10 7.44772 10 8Z" fill="#BBBBBB"/>
<path d="M31.625 9.625H7.375V7.23145C7.37522 6.81448 7.79786 6.375 8.45508 6.375H30.5449C31.2022 6.375 31.6248 6.81447 31.625 7.23145V9.625ZM32.375 7.23145C32.3748 6.28814 31.4946 5.625 30.5449 5.625H8.45508C7.50551 5.625 6.6252 6.28813 6.625 7.23145V10C6.625 10.2071 6.79289 10.375 7 10.375H32C32.2071 10.375 32.375 10.2071 32.375 10V7.23145Z" fill="#BBBBBB"/>
<path d="M32 25.375C32.2071 25.375 32.375 25.2071 32.375 25V10C32.375 9.79289 32.2071 9.625 32 9.625H7C6.79289 9.625 6.625 9.79289 6.625 10V25C6.625 25.2071 6.79289 25.375 7 25.375H32ZM7.375 10.375H31.625V24.625H7.375V10.375Z" fill="#BBBBBB"/>
<path d="M2.625 27.5781C2.62516 28.6936 3.5322 29.5956 4.64844 29.5957H6.76953C6.97644 29.5955 7.14453 29.4277 7.14453 29.2207C7.14453 29.0137 6.97644 28.8459 6.76953 28.8457H4.64844C3.94397 28.8456 3.37516 28.2769 3.375 27.5781V25.375H35.625V27.5781C35.6248 28.2769 35.056 28.8456 34.3516 28.8457H12.6699C12.4628 28.8457 12.2949 29.0136 12.2949 29.2207C12.2949 29.4278 12.4628 29.5957 12.6699 29.5957H16.196L16.9531 29.5953H21.876L22.6331 29.5957H34.3516C35.4678 29.5956 36.3748 28.6936 36.375 27.5781V25C36.375 24.7929 36.2071 24.625 36 24.625H3C2.79289 24.625 2.625 24.7929 2.625 25V27.5781Z" fill="#BBBBBB"/>
<path fill-rule="evenodd" clip-rule="evenodd" d="M24.9664 35.1614L24.9453 35.1637L24.9766 35.1598L24.9664 35.1614ZM24.9809 34.4149C24.9838 34.4151 24.9781 34.4144 24.9809 34.4149ZM24.9691 34.414C24.9701 34.4141 24.9798 34.4148 24.9809 34.4149C24.9791 34.4146 24.9827 34.4151 24.9809 34.4149C24.977 34.4145 24.9731 34.4142 24.9691 34.414C24.9708 34.4141 24.9676 34.4138 24.9691 34.414ZM24.9503 34.4128C24.9554 34.413 24.9645 34.4137 24.9691 34.414C24.9708 34.4141 24.9676 34.4138 24.9691 34.414M24.9503 34.4128C24.9455 34.4127 24.9355 34.4127 24.9307 34.4127L24.9503 34.4128ZM22.6331 29.5957L22.5752 29.1695C22.5499 28.9838 22.3916 28.8454 22.2041 28.8453H16.625C16.4375 28.8453 16.2792 28.9838 16.2539 29.1695L16.196 29.5957L16.9531 29.5953H21.876L22.6331 29.5957ZM24.9503 34.4128C24.9508 34.4128 24.9498 34.4128 24.9503 34.4128ZM13.8838 34.4127C13.8806 34.4126 13.8869 34.4126 13.8838 34.4127C13.8843 34.4127 13.8833 34.4127 13.8838 34.4127C13.8849 34.4126 13.8805 34.4127 13.8838 34.4127ZM13.8838 34.4127L13.8736 34.4127L12.9699 34.4146C12.7628 34.4146 12.5949 34.5825 12.5949 34.7896C12.5949 34.9967 12.7628 35.1646 12.9699 35.1646H13.8975H24.9316M13.8789 35.1634C13.8776 35.1633 13.8802 35.1635 13.8789 35.1634ZM13.8838 34.4127H13.8984Z" fill="#BBBBBB"/>
<path fill-rule="evenodd" clip-rule="evenodd" d="M24.9453 35.1637L24.9766 35.1598L24.9664 35.1614L24.9453 35.1637Z" fill="#BBBBBB"/>
<path d="M21 20.625C21.2071 20.625 21.375 20.7929 21.375 21C21.375 21.2071 21.2071 21.375 21 21.375H9C8.79289 21.375 8.625 21.2071 8.625 21C8.625 20.7929 8.79289 20.625 9 20.625H21Z" fill="#BBBBBB"/>
<path d="M11 16C11 15.4477 11.4477 15 12 15C12.5523 15 13 15.4477 13 16V21H11V16Z" fill="#BBBBBB"/>
<path d="M14 17C14 16.4477 14.4477 16 15 16C15.5523 16 16 16.4477 16 17V21H14V17Z" fill="#BBBBBB"/>
<path d="M17 14C17 13.4477 17.4477 13 18 13C18.5523 13 19 13.4477 19 14V21H17V14Z" fill="#BBBBBB"/>
<path d="M9.62512 13.0003V22.3421C9.62512 22.5493 9.79301 22.7171 10.0001 22.7171C10.2072 22.7171 10.3751 22.5493 10.3751 22.3421V13.0003C10.3749 12.7934 10.2071 12.6253 10.0001 12.6253C9.79313 12.6253 9.62532 12.7934 9.62512 13.0003Z" fill="#BBBBBB"/>
<path d="M27 13.625C27.8012 13.625 28.5522 13.8416 29.1982 14.2178C29.3771 14.3219 29.4379 14.5516 29.334 14.7305C29.2298 14.9094 29.0002 14.9702 28.8213 14.8662C28.3881 14.6139 27.8981 14.4505 27.375 14.3965V17.625H30.6035C30.5482 17.0884 30.3785 16.5866 30.1152 16.1455C30.0091 15.9677 30.0673 15.738 30.2451 15.6318C30.4229 15.5259 30.6527 15.5839 30.7588 15.7617C31.1496 16.4167 31.375 17.1823 31.375 18C31.375 18.2071 31.2071 18.375 31 18.375H27C26.7929 18.375 26.625 18.2071 26.625 18V14C26.625 13.7929 26.7929 13.625 27 13.625Z" fill="#BBBBBB"/>
<path d="M30.9948 17.6151C31.2018 17.6153 31.3698 17.7831 31.3698 17.9901C31.3698 20.4013 29.4111 22.3543 26.9968 22.3544C25.7897 22.3544 24.696 21.8662 23.905 21.0771C23.8346 21.0068 23.7947 20.9109 23.7946 20.8114C23.7946 20.7118 23.8345 20.6162 23.905 20.5458L26.7321 17.7245L26.7888 17.6776C26.8499 17.637 26.9224 17.6151 26.9968 17.6151H30.9948ZM24.7146 20.7968C25.3377 21.3018 26.1314 21.6044 26.9968 21.6044C28.8713 21.6043 30.4123 20.1846 30.6003 18.3651H27.1521L24.7146 20.7968Z" fill="#BBBBBB"/>
<path d="M26.9979 14C24.7899 14 23 15.7863 23 17.9896C23 19.0913 23.4474 20.0887 24.1709 20.8107L26.9979 17.9896V14Z" fill="#BBBBBB"/>
<path d="M27 13.625C27.207 13.6251 27.373 13.793 27.373 14V17.9893C27.373 18.0888 27.3332 18.1845 27.2627 18.2549L24.4355 21.0762C24.2892 21.2221 24.0513 21.2229 23.905 21.0771C23.114 20.2877 22.625 19.1946 22.625 17.9893C22.6252 15.5782 24.5857 13.625 27 13.625ZM23.375 17.9893C23.375 18.8522 23.6786 19.6439 24.1846 20.2656L26.623 17.834V14.3936C24.7978 14.5807 23.3752 16.12 23.375 17.9893Z" fill="#BBBBBB"/>
<path d="M20 27C20 27.5523 19.5523 28 19 28C18.4477 28 18 27.5523 18 27C18 26.4477 18.4477 26 19 26C19.5523 26 20 26.4477 20 27Z" fill="#BBBBBB"/>
<path d="M16.9531 29.5953L16.196 29.5957L15.7695 32.7369C15.6611 33.6875 14.8552 34.4136 13.8984 34.4127H13.8838L13.8736 34.4127L12.9699 34.4146C12.7628 34.4146 12.5949 34.5825 12.5949 34.7896C12.5949 34.9967 12.7628 35.1646 12.9699 35.1646H13.8975H24.9316H25.8588C26.0659 35.1646 26.2338 34.9967 26.2338 34.7896C26.2338 34.5825 26.0659 34.4146 25.8588 34.4146L24.9503 34.4128L24.9307 34.4127C23.9738 34.4136 23.1689 33.6954 23.0605 32.7447L22.6331 29.5957L21.876 29.5953L22.3164 32.8375C22.389 33.4585 22.6758 34.006 23.0957 34.4146H15.7334C16.1533 34.006 16.4401 33.4584 16.5127 32.8375L16.9531 29.5953ZM24.9503 34.4128C24.9634 34.413 24.9677 34.4128 24.9809 34.4149L24.9691 34.414L24.9503 34.4128ZM24.9766 35.1598L24.9453 35.1637L24.9664 35.1614L24.9766 35.1598Z" fill="#BBBBBB"/>
</svg>
