<svg width="40" height="40" viewBox="0 0 40 40" fill="none" xmlns="http://www.w3.org/2000/svg">
<path d="M30.0801 3.625C31.3475 3.62503 32.375 4.65249 32.375 5.91992V6.625H32.877C34.2565 6.62518 35.3748 7.74349 35.375 9.12305V21.5781C37.2086 23.1144 38.375 25.4208 38.375 28C38.375 32.6254 34.6254 36.375 30 36.375C27.421 36.375 25.1154 35.2083 23.5791 33.375H8.12305C6.91404 33.3748 5.90577 32.5159 5.6748 31.375H4.91992C3.65248 31.375 2.62503 30.3475 2.625 29.0801V5.91992C2.62503 4.65249 3.65249 3.62503 4.91992 3.625H30.0801ZM30 20.375C25.7888 20.375 22.375 23.7888 22.375 28C22.375 29.7391 22.9574 31.3422 23.9375 32.625C24.1393 32.8891 24.3579 33.1397 24.5918 33.375C25.9729 34.7646 27.886 35.625 30 35.625C34.2112 35.625 37.625 32.2112 37.625 28C37.625 25.886 36.7646 23.9729 35.375 22.5918C35.1397 22.3579 34.8891 22.1393 34.625 21.9375C33.3422 20.9574 31.7391 20.375 30 20.375ZM24.667 27.6299C24.8741 27.6299 25.042 27.7978 25.042 28.0049C25.0423 30.1072 26.3362 31.9021 28.1738 32.625C28.7326 32.8448 29.3422 32.9658 29.9805 32.9658C30.6189 32.9658 31.2293 32.8447 31.79 32.625C32.7848 32.2351 33.6241 31.5335 34.1855 30.6396L34.2939 30.458H33.5527C33.3458 30.4578 33.1777 30.29 33.1777 30.083C33.1779 29.8762 33.3459 29.7082 33.5527 29.708H34.6611C34.9364 29.7081 35.1874 29.8142 35.375 29.9873C35.5836 30.1798 35.7138 30.4556 35.7139 30.7617V31.8242C35.7139 32.0313 35.546 32.1992 35.3389 32.1992C35.2314 32.1991 35.1347 32.1536 35.0664 32.0811C35.0033 32.014 34.9639 31.9235 34.9639 31.8242V30.7969C34.8321 31.0314 34.6849 31.2562 34.5225 31.4688C34.2222 31.8616 33.872 32.2143 33.4814 32.5176C33.0158 32.8791 32.4923 33.1703 31.9277 33.375C31.3201 33.5953 30.6643 33.7158 29.9805 33.7158L29.7256 33.71C29.1339 33.6839 28.5663 33.5678 28.0361 33.375C27.5301 33.191 27.0576 32.9371 26.6309 32.625C25.2108 31.5864 24.2922 29.9031 24.292 28.0049C24.292 27.7978 24.4599 27.6299 24.667 27.6299ZM6.375 30.877C6.37518 31.8423 7.15771 32.6248 8.12305 32.625H23.0186C22.1387 31.2996 21.625 29.7101 21.625 28C21.625 23.3746 25.3746 19.625 30 19.625C31.7101 19.625 33.2996 20.1387 34.625 21.0186V12.375H6.375V30.877ZM31.1514 25.5713C31.5519 25.5716 31.8721 25.898 31.8721 26.2949V26.5654C31.872 26.7627 31.8001 26.9387 31.7168 27.0791C31.6326 27.2211 31.5223 27.3513 31.4131 27.4648C31.2524 27.6319 31.0593 27.7941 30.9141 27.917C30.8768 27.9485 30.8432 27.9782 30.8135 28.0039C30.8431 28.0295 30.877 28.0585 30.9141 28.0898C31.0593 28.2128 31.2524 28.3759 31.4131 28.543C31.5222 28.6565 31.6326 28.7868 31.7168 28.9287C31.8 29.0692 31.872 29.2452 31.8721 29.4424V29.7129C31.8719 30.1097 31.5518 30.4362 31.1514 30.4365H28.8135L28.6777 30.4238C28.3725 30.3654 28.141 30.1126 28.1025 29.8018C28.0955 29.7732 28.0899 29.7436 28.0898 29.7129V29.4424C28.0899 29.245 28.1618 29.0692 28.2451 28.9287C28.3293 28.7867 28.4397 28.6565 28.5488 28.543C28.7096 28.3758 28.9016 28.2119 29.0469 28.0889C29.0844 28.0571 29.1196 28.0287 29.1494 28.0029C29.1208 27.9783 29.0882 27.95 29.0527 27.9199C28.9073 27.7967 28.7135 27.633 28.5518 27.4648C28.4426 27.3514 28.3323 27.221 28.248 27.0791C28.1648 26.9387 28.0929 26.7627 28.0928 26.5654V26.2949C28.0928 25.8978 28.4128 25.5714 28.8135 25.5713H31.1514ZM17 23C17.5523 23 18 23.4477 18 24V29C18 29.5523 17.5523 30 17 30H10C9.44772 30 9 29.5523 9 29V24C9 23.4477 9.44772 23 10 23H17ZM28.8428 26.5654C28.8429 26.5801 28.8494 26.6218 28.8936 26.6963C28.9372 26.7697 29.0047 26.8537 29.0928 26.9453C29.2248 27.0826 29.3703 27.206 29.5098 27.3242C29.5633 27.3696 29.6164 27.4146 29.667 27.459C29.8275 27.6 29.916 27.7996 29.916 28.0039C29.9159 28.2082 29.8276 28.4079 29.667 28.5488C29.6628 28.5525 29.6512 28.561 29.6465 28.5645C29.6012 28.6038 29.5543 28.6434 29.5068 28.6836C29.3676 28.8016 29.2217 28.9254 29.0898 29.0625C29.0016 29.1543 28.9342 29.238 28.8906 29.3115C28.8462 29.3865 28.8399 29.428 28.8398 29.4424V29.6865H31.1221V29.4424C31.122 29.428 31.1156 29.3863 31.0713 29.3115C31.0277 29.2381 30.9602 29.1541 30.8721 29.0625C30.7808 28.9676 30.6827 28.8793 30.585 28.7949L30.2979 28.5488C30.1371 28.4079 30.0489 28.2082 30.0488 28.0039C30.0488 27.8252 30.1159 27.6501 30.2402 27.5146L30.2979 27.459C30.3484 27.4147 30.4006 27.3696 30.4541 27.3242C30.5937 27.2059 30.7399 27.0827 30.8721 26.9453C30.9602 26.8536 31.0277 26.7698 31.0713 26.6963C31.1154 26.6218 31.1219 26.5801 31.1221 26.5654V26.3213H28.8428V26.5654ZM30.3584 22.3037C32.112 22.4108 33.6517 23.3094 34.625 24.6465C34.9369 25.0751 35.191 25.5485 35.375 26.0557C35.5955 26.6635 35.7158 27.3199 35.7158 28.0039C35.7158 28.1994 35.566 28.3596 35.375 28.377C35.3637 28.378 35.3523 28.3789 35.3408 28.3789C35.1339 28.3787 34.9659 28.2108 34.9658 28.0039C34.9658 27.365 34.8449 26.7542 34.625 26.1934C33.9017 24.3489 32.106 23.043 30.0049 23.043C29.7741 23.043 29.5467 23.0584 29.3242 23.0889C27.7668 23.3023 26.4382 24.2383 25.6904 25.5488H26.4307L26.5059 25.5566C26.6769 25.5915 26.8057 25.7425 26.8057 25.9238C26.8055 26.1308 26.6377 26.2988 26.4307 26.2988H25.3457L25.2383 26.293C24.7071 26.2391 24.2921 25.7904 24.292 25.2451V24.1602C24.292 23.9531 24.4599 23.7852 24.667 23.7852C24.8741 23.7852 25.042 23.953 25.042 24.1602V25.1709C25.0612 25.1374 25.0827 25.1014 25.1025 25.0684L25.1143 25.0488C25.2219 24.8714 25.3391 24.7003 25.4648 24.5361C25.8026 24.0949 26.2039 23.7053 26.6543 23.3789C26.676 23.3632 26.6969 23.3465 26.7188 23.3311C26.7692 23.2955 26.8214 23.2624 26.873 23.2285C26.9054 23.2073 26.9369 23.1847 26.9697 23.1641C27.0098 23.1389 27.0511 23.1159 27.0918 23.0918C27.1388 23.0639 27.1855 23.0354 27.2334 23.0088C27.28 22.9829 27.3277 22.9592 27.375 22.9346C27.4144 22.9141 27.4533 22.8926 27.4932 22.873C27.5415 22.8494 27.5905 22.827 27.6396 22.8047C27.6824 22.7852 27.7252 22.7655 27.7686 22.7471C27.8125 22.7284 27.8569 22.711 27.9014 22.6934C27.9538 22.6726 28.0064 22.6521 28.0596 22.6328C28.0999 22.6182 28.1409 22.6055 28.1816 22.5918C28.2361 22.5735 28.2905 22.5548 28.3457 22.5381C28.39 22.5247 28.4347 22.5124 28.4795 22.5C28.5339 22.485 28.5885 22.4705 28.6436 22.457C28.6841 22.4471 28.7248 22.4377 28.7656 22.4287C28.804 22.4202 28.8422 22.411 28.8809 22.4033C28.919 22.3957 28.9576 22.3887 28.9961 22.3818L29.0156 22.3779C29.0761 22.3674 29.1371 22.3582 29.1982 22.3496L29.2217 22.3457C29.4776 22.3107 29.7393 22.293 30.0049 22.293L30.3584 22.3037ZM21 14C21.5523 14 22 14.4477 22 15V20C22 20.5523 21.5523 21 21 21H10C9.44772 21 9 20.5523 9 20V15C9 14.4477 9.44772 14 10 14H21ZM8.12305 7.375C7.15771 7.37518 6.37518 8.15771 6.375 9.12305V11.625H34.625V9.12305C34.6248 8.15771 33.8423 7.37518 32.877 7.375H8.12305ZM25.7959 9C26.2355 9 26.5926 9.3563 26.5928 9.7959C26.5928 10.2357 26.2357 10.5928 25.7959 10.5928C25.3563 10.5926 25 10.2355 25 9.7959C25.0002 9.35642 25.3564 9.0002 25.7959 9ZM28.9834 9C29.423 9 29.7801 9.3563 29.7803 9.7959C29.7803 10.2357 29.4232 10.5928 28.9834 10.5928C28.5438 10.5926 28.1875 10.2355 28.1875 9.7959C28.1877 9.35642 28.5439 9.0002 28.9834 9ZM32.1729 9C32.6125 9 32.9695 9.3563 32.9697 9.7959C32.9697 10.2357 32.6126 10.5928 32.1729 10.5928C31.7333 10.5926 31.377 10.2355 31.377 9.7959C31.3772 9.35642 31.7334 9.0002 32.1729 9Z" fill="#BBBBBB"/>
</svg>
