<svg width="40" height="40" viewBox="0 0 40 40" fill="none" xmlns="http://www.w3.org/2000/svg">
<path d="M30.668 2.64258C31.8773 2.64276 32.8572 3.62265 32.8574 4.83203V5.2627H33.2109C34.6218 5.26283 35.7772 6.40688 35.7773 7.81152V15.5674C35.7771 15.7743 35.6093 15.9424 35.4023 15.9424C35.1954 15.9424 35.0276 15.7743 35.0273 15.5674V10.8262H23.125C22.9179 10.8262 22.75 10.6583 22.75 10.4512C22.7502 10.2443 22.918 10.0762 23.125 10.0762H35.0273V7.81152C35.0272 6.82641 34.2129 6.01283 33.2109 6.0127H9.82324C8.82285 6.01287 8.00703 6.82663 8.00684 7.81152V10.0762H20.7432C20.95 10.0763 21.1179 10.2443 21.1182 10.4512C21.1182 10.6582 20.9502 10.826 20.7432 10.8262H8.00684V34.0537C8.00684 35.0403 8.82252 35.8533 9.82324 35.8535H33.2109C34.2132 35.8534 35.0273 35.0406 35.0273 34.0537V17.6973C35.0275 17.4903 35.1953 17.3223 35.4023 17.3223C35.6094 17.3223 35.7772 17.4903 35.7773 17.6973V34.0537C35.7773 35.4605 34.6217 36.6034 33.2109 36.6035H9.82324C8.51738 36.6034 7.42965 35.6215 7.27734 34.3574H6.83203C5.62265 34.3572 4.64277 33.3773 4.64258 32.168V4.83203C4.64276 3.62265 5.62265 2.64276 6.83203 2.64258H30.668ZM31.2656 25.625C32.7919 25.6251 34.0048 26.9385 34.0049 28.5C34.0049 30.0616 32.792 31.3749 31.2656 31.375H24.9404C23.412 31.375 22.2012 30.0615 22.2012 28.5C22.2013 26.9386 23.4121 25.625 24.9404 25.625H31.2656ZM17 26C18.3807 26 19.5 27.1193 19.5 28.5C19.5 29.8807 18.3807 31 17 31H13C11.6193 31 10.5 29.8807 10.5 28.5C10.5 27.1193 11.6193 26 13 26H17ZM24.9404 26.375C23.8656 26.375 22.9513 27.3124 22.9512 28.5C22.9512 29.6877 23.8656 30.625 24.9404 30.625H25.0645C26.1394 30.625 27.0537 29.6877 27.0537 28.5C27.0535 27.3125 26.1393 26.375 25.0645 26.375H24.9404ZM26.9014 26.375C27.4561 26.9051 27.8036 27.6661 27.8037 28.5C27.8037 29.3339 27.4559 30.0948 26.9014 30.625H31.2656C32.3388 30.6249 33.2549 29.6875 33.2549 28.5C33.2548 27.3127 32.3387 26.3751 31.2656 26.375H26.9014ZM30.8711 14.624C32.4002 14.6242 33.6082 15.9496 33.6084 17.5186C33.6084 19.0876 32.4004 20.4129 30.8711 20.4131H24.5439C23.0149 20.4131 21.8047 19.0882 21.8047 17.5186C21.8049 15.9491 23.015 14.624 24.5439 14.624H30.8711ZM17.5 15C18.8807 15 20 16.1193 20 17.5C20 18.8807 18.8807 20 17.5 20H13.5C12.1193 20 11 18.8807 11 17.5C11 16.1193 12.1193 15 13.5 15H17.5ZM24.5439 15.374C23.4734 15.374 22.5549 16.3177 22.5547 17.5186C22.5547 18.7196 23.4733 19.6631 24.5439 19.6631H28.916C28.3578 19.1287 28.0079 18.3598 28.0078 17.5186C28.0079 16.6771 28.3584 15.9082 28.917 15.374H24.5439ZM30.7471 15.375C29.6765 15.375 28.7581 16.318 28.7578 17.5186C28.758 18.7191 29.6765 19.6631 30.7471 19.6631H30.8711C31.9412 19.6629 32.8584 18.7199 32.8584 17.5186C32.8582 16.3174 31.9411 15.3742 30.8711 15.374H30.7568C30.7536 15.3741 30.7503 15.375 30.7471 15.375ZM9.79199 7.6709C9.99877 7.67113 10.1668 7.83911 10.167 8.0459C10.167 8.25286 9.9989 8.42066 9.79199 8.4209H9.7793C9.57219 8.4209 9.4043 8.25301 9.4043 8.0459C9.4045 7.83897 9.57232 7.6709 9.7793 7.6709H9.79199ZM12.251 7.6709C12.4579 7.67092 12.6258 7.83898 12.626 8.0459C12.626 8.25299 12.4581 8.42088 12.251 8.4209H12.2383C12.0312 8.4209 11.8633 8.25301 11.8633 8.0459C11.8635 7.83897 12.0313 7.6709 12.2383 7.6709H12.251ZM14.7256 7.6709C14.9326 7.6709 15.1004 7.83897 15.1006 8.0459C15.1006 8.25301 14.9327 8.4209 14.7256 8.4209H14.7129C14.5058 8.42084 14.3379 8.25297 14.3379 8.0459C14.3381 7.839 14.506 7.67095 14.7129 7.6709H14.7256Z" fill="#BBBBBB"/>
</svg>
