<svg width="40" height="40" viewBox="0 0 40 40" fill="none" xmlns="http://www.w3.org/2000/svg">
<path d="M17.7139 8.57233H11.8335C11.5048 8.57233 11.2383 8.30581 11.2383 7.97705C11.2383 7.64835 11.5048 7.38184 11.8335 7.38184H17.7137C18.0424 7.38184 18.309 7.64835 18.309 7.97705C18.3091 8.30581 18.0426 8.57233 17.7139 8.57233Z" fill="#BBBBBB"/>
<path d="M21.5234 8.57233H19.4526C19.1239 8.57233 18.8574 8.30581 18.8574 7.97705C18.8574 7.64835 19.1239 7.38184 19.4526 7.38184H21.5233C21.852 7.38184 22.1186 7.64835 22.1186 7.97705C22.1187 8.30581 21.8521 8.57233 21.5234 8.57233Z" fill="#BBBBBB"/>
<path d="M37.9043 10.4346V11.1846H8.95117V10.4346H37.9043Z" fill="#BBBBBB"/>
<path d="M37.9043 15.3877V16.1377H8.95117V15.3877H37.9043Z" fill="#BBBBBB"/>
<path d="M37.9043 19.959V20.709H23.4995V19.959H37.9043Z" fill="#BBBBBB"/>
<path d="M38 24.5V25.2803H23.5V24.5303L38 24.5Z" fill="#BBBBBB"/>
<path d="M14.75 11V19H14V11H14.75Z" fill="#BBBBBB"/>
<path d="M26.8516 10.4287V28.7148H26.1016V10.4287H26.8516Z" fill="#BBBBBB"/>
<path d="M32.9473 10.4287V28.7148H32.1973V10.4287H32.9473Z" fill="#BBBBBB"/>
<path fill-rule="evenodd" clip-rule="evenodd" d="M35.6202 5.375C36.7278 5.37521 37.626 6.27317 37.626 7.38086V26.4287C37.626 27.5365 36.7279 28.4344 35.6202 28.4346H23.7062H22.9562L22.9563 29.1846H35.6202C37.1421 29.1844 38.376 27.9507 38.376 26.4287V7.38086C38.376 5.85896 37.142 4.62521 35.6202 4.625H11.2383C9.71636 4.62507 8.48256 5.85887 8.48249 7.38086V19.3753H9.23249V18.6253V7.38086C9.23256 6.27308 10.1306 5.37507 11.2383 5.375H35.6202Z" fill="#BBBBBB"/>
<path d="M20.7559 10.4287V18.6253V19H20.0059V18.6253V10.4287H20.7559Z" fill="#BBBBBB"/>
<path d="M22.9583 20.6419C22.9583 19.9425 22.3919 19.3755 21.6926 19.3753H9.23249H8.48249H7.20044C6.50094 19.3753 5.93384 19.9424 5.93384 20.6419V24.0003C5.93384 24.2074 5.76594 24.3753 5.55884 24.3753C5.35173 24.3753 5.18384 24.2074 5.18384 24.0003V20.6419C5.18384 19.5282 6.08673 18.6253 7.20044 18.6253H9.23249H20.0059H20.7559H21.6926C22.8062 18.6255 23.7083 19.5283 23.7083 20.6419V26.5003C23.708 26.7071 23.5401 26.8742 23.3333 26.8743C23.1521 26.8743 23.0011 26.7462 22.9661 26.5755L22.9583 26.4993V20.6419Z" fill="#BBBBBB"/>
<path d="M22.9572 33.2916L22.9563 29.1846L22.9562 28.4346L22.9562 28.3745C22.9562 28.1676 23.1233 27.9998 23.3302 27.9995C23.5373 27.9995 23.7061 28.1674 23.7062 28.3745L23.7062 28.4346L23.7072 33.2916C23.7072 34.778 22.4666 35.9645 20.962 35.9645C20.7551 35.9645 20.5873 35.7964 20.587 35.5895C20.587 35.3824 20.7549 35.2145 20.962 35.2145C22.0746 35.2145 22.9572 34.3419 22.9572 33.2916Z" fill="#BBBBBB"/>
<path d="M20.9602 35.5898H4.36988C3.0611 35.5898 2 34.5824 2 33.3396V23.7396H10.2383L12.3135 25.9902H18.5902V33.3393C18.5902 34.5822 19.6513 35.5898 20.9602 35.5898Z" fill="#BBBBBB"/>
<path d="M18.2148 26.3656H12.3135C12.2088 26.3656 12.1091 26.3214 12.0381 26.2445L10.0742 24.1146H2.375V33.3392C2.375 34.3569 3.24988 35.2152 4.37012 35.2152H19.041C18.5337 34.7414 18.2148 34.0802 18.2148 33.3392V26.3656ZM18.9648 33.3392C18.9648 34.3569 19.8398 35.2151 20.96 35.2152C21.1671 35.2152 21.335 35.3831 21.335 35.5902C21.3347 35.7971 21.1669 35.9652 20.96 35.9652H4.37012C2.87279 35.9652 1.625 34.8073 1.625 33.3392V23.7396C1.625 23.5325 1.79289 23.3646 2 23.3646H10.2383C10.343 23.3646 10.4427 23.4087 10.5137 23.4857L12.4785 25.6156H18.5898C18.7969 25.6156 18.9648 25.7835 18.9648 25.9906V33.3392Z" fill="#BBBBBB"/>
</svg>
