<svg width="40" height="40" viewBox="0 0 40 40" fill="none" xmlns="http://www.w3.org/2000/svg">
<path d="M29.4648 4.46533C31.4175 2.51271 34.5825 2.51276 36.5352 4.46533C38.4876 6.41798 38.4877 9.58312 36.5352 11.5356C36.3944 11.6764 36.2462 11.8058 36.0938 11.9263V30.1372C36.0933 31.0931 35.3183 31.8684 34.3623 31.8687H22.5234L23.0859 35.6724H25.5381C25.7452 35.6724 25.9131 35.8403 25.9131 36.0474C25.9129 36.2543 25.7451 36.4224 25.5381 36.4224H12.1826C11.9757 36.4223 11.8078 36.2543 11.8076 36.0474C11.8076 35.8403 11.9756 35.6724 12.1826 35.6724H14.6328L15.1953 31.8687H3.35645C2.40049 31.8684 1.62547 31.0931 1.625 30.1372V8.39111C1.625 7.43473 2.40021 6.65893 3.35645 6.65869H7.74609C7.95296 6.65894 8.12106 6.82677 8.12109 7.03369C8.12087 7.24045 7.95285 7.40844 7.74609 7.40869H3.35645C2.8144 7.40893 2.375 7.84897 2.375 8.39111V26.6958H25.9248C26.1316 26.6961 26.2998 26.8639 26.2998 27.0708C26.2998 27.2777 26.1316 27.4455 25.9248 27.4458H2.375V30.1372C2.37547 30.6789 2.8147 31.1184 3.35645 31.1187H15.6182C15.622 31.1185 15.626 31.1177 15.6299 31.1177H22.0889C22.0928 31.1177 22.0967 31.1185 22.1006 31.1187H34.3623C34.9041 31.1184 35.3433 30.6789 35.3438 30.1372V27.4233C35.3051 27.4369 35.264 27.4458 35.2207 27.4458H27.96C27.7529 27.4458 27.585 27.2779 27.585 27.0708C27.585 26.8637 27.7529 26.6958 27.96 26.6958H35.2207C35.2639 26.6958 35.3051 26.7038 35.3438 26.7173V12.4165C34.282 12.9805 33.0606 13.1348 31.9111 12.8794V23.3657L31.9004 23.5698C31.8048 24.5111 31.0565 25.2594 30.1152 25.355L29.9111 25.3657H5.92871L5.72461 25.355C4.78318 25.2595 4.03507 24.5112 3.93945 23.5698L3.92871 23.3657V11.9272C3.92871 10.8916 4.71593 10.0403 5.72461 9.93799L5.92871 9.92725H28.3857C28.0518 9.12687 27.9347 8.25744 28.0352 7.40869H9.78125C9.57428 7.40869 9.40648 7.24061 9.40625 7.03369C9.40629 6.82662 9.57417 6.65869 9.78125 6.65869H28.1846C28.386 5.93316 28.7524 5.24383 29.2871 4.65186L29.4648 4.46533ZM15.3906 35.6724H22.3281L21.7656 31.8687H15.9531L15.3906 35.6724ZM18.9121 28.7183C19.2827 28.7183 19.583 29.0185 19.583 29.3892C19.5828 29.7596 19.2826 30.0601 18.9121 30.0601C18.5417 30.0598 18.2414 29.7595 18.2412 29.3892C18.2412 29.0185 18.5415 28.7185 18.9121 28.7183ZM5.92871 10.6772C5.23836 10.6772 4.67871 11.2369 4.67871 11.9272V23.3657C4.67891 24.0559 5.23848 24.6157 5.92871 24.6157H29.9111C30.6012 24.6155 31.1609 24.0558 31.1611 23.3657V12.6489C30.6192 12.4349 30.1062 12.1242 29.6514 11.7134L29.4648 11.5356C29.1995 11.2703 28.9716 10.9813 28.7783 10.6772H5.92871ZM29.0166 21.5063C29.5495 21.5063 29.9814 21.9383 29.9814 22.4712C29.9814 23.0041 29.5495 23.436 29.0166 23.436H6.82422L6.72559 23.4312C6.23894 23.3818 5.85938 22.9708 5.85938 22.4712C5.85943 21.9383 6.29135 21.5063 6.82422 21.5063H29.0166ZM29.0166 18.6108C29.5495 18.6108 29.9814 19.0428 29.9814 19.5757C29.9813 20.1085 29.5494 20.5405 29.0166 20.5405H6.82422L6.72559 20.5356C6.23901 20.4863 5.85951 20.0752 5.85938 19.5757C5.85938 19.0428 6.29132 18.6108 6.82422 18.6108H29.0166ZM27.9814 11.8569C29.086 11.8569 29.9814 12.7524 29.9814 13.8569V15.646C29.9814 16.7505 29.086 17.646 27.9814 17.646H7.85938C7.79057 17.646 7.72229 17.643 7.65527 17.6362C7.58851 17.6295 7.52267 17.6182 7.45801 17.605C7.44515 17.6024 7.43269 17.5981 7.41992 17.5952C7.3718 17.5844 7.32409 17.5733 7.27734 17.5591C7.25621 17.5527 7.23567 17.5447 7.21484 17.5376C7.17195 17.523 7.12941 17.5081 7.08789 17.4907C7.07336 17.4846 7.05928 17.4776 7.04492 17.4712C7.00558 17.4536 6.96666 17.4355 6.92871 17.4155C6.90208 17.4015 6.87649 17.3858 6.85059 17.3706C6.82191 17.3538 6.79337 17.337 6.76562 17.3188C6.74193 17.3033 6.71927 17.2865 6.69629 17.27C6.66862 17.2502 6.64084 17.2307 6.61426 17.2095C6.59328 17.1927 6.57302 17.1753 6.55273 17.1577C6.52446 17.1333 6.49658 17.1085 6.46973 17.0825C6.45118 17.0646 6.43288 17.0465 6.41504 17.0278C6.39319 17.005 6.37232 16.9814 6.35156 16.9575C6.32955 16.9322 6.30785 16.9067 6.28711 16.8804C6.26582 16.8533 6.24548 16.8255 6.22559 16.7974C6.21262 16.779 6.19986 16.7605 6.1875 16.7417C6.16514 16.7076 6.14432 16.6727 6.12402 16.6372C6.11229 16.6167 6.09989 16.5966 6.08887 16.5757C6.07058 16.5409 6.05435 16.5052 6.03809 16.4692C6.02836 16.4478 6.01777 16.4267 6.00879 16.4048C5.99384 16.3684 5.98157 16.3309 5.96875 16.2935C5.96082 16.2703 5.95143 16.2476 5.94434 16.2241C5.93311 16.1869 5.92412 16.1489 5.91504 16.1108C5.90923 16.0865 5.90237 16.0623 5.89746 16.0376C5.88986 15.9993 5.88526 15.9604 5.87988 15.9214C5.86746 15.8313 5.85938 15.7395 5.85938 15.646V13.8569C5.85938 12.7524 6.75481 11.8569 7.85938 11.8569H27.9814ZM36.0049 4.99561C34.3451 3.33592 31.6549 3.33588 29.9951 4.99561C29.5114 5.47936 29.1685 6.0509 28.9668 6.65869C28.8855 6.90375 28.8275 7.15512 28.792 7.40869C28.6728 8.26126 28.812 9.14331 29.2109 9.92725C29.3445 10.1897 29.5075 10.4415 29.6992 10.6772C29.7912 10.7903 29.8898 10.9001 29.9951 11.0054C30.3434 11.3536 30.7373 11.6285 31.1572 11.8306C31.4008 11.9478 31.6535 12.0409 31.9111 12.1089C33.0632 12.4131 34.3184 12.2257 35.3438 11.5464C35.5773 11.3917 35.7991 11.2111 36.0049 11.0054C36.035 10.9752 36.0647 10.9444 36.0938 10.9136C37.664 9.248 37.6342 6.6252 36.0049 4.99561ZM34.7119 6.26025C34.8445 6.10124 35.0812 6.07984 35.2402 6.2124C35.3991 6.34503 35.4206 6.58171 35.2881 6.74072L35.1836 6.86572L34.6855 7.46338L32.7881 9.74072C32.7206 9.82148 32.6217 9.87072 32.5166 9.87549C32.4116 9.88013 32.3088 9.8404 32.2344 9.76611L30.7344 8.26611C30.588 8.11972 30.5881 7.88132 30.7344 7.73486C30.8808 7.58842 31.1192 7.58842 31.2656 7.73486L32.4746 8.94385L33.7549 7.40869L34.7119 6.26025Z" fill="#8C8C8C"/>
</svg>
