<svg width="40" height="40" viewBox="0 0 40 40" fill="none" xmlns="http://www.w3.org/2000/svg">
<path d="M32.08 5C33.1404 5 34 5.8596 34 6.91997L34 8L7.42806 7.88808C6.36454 7.8836 5.5 8.74451 5.5 9.80804L5.5 31.5L4.91997 31.5C3.8596 31.5 3 30.6404 3 29.58L3 6.91997C3 5.8596 3.8596 5 4.91997 5L32.08 5Z" fill="#BBBBBB"/>
<path d="M4.91992 4.625L32.0801 4.625C33.3475 4.62503 34.375 5.65248 34.375 6.91992L34.375 8.37695L7.42676 8.26269C6.5711 8.25909 5.87523 8.952 5.875 9.80762L5.875 31.875L4.91992 31.875C3.65248 31.875 2.62503 30.8475 2.625 29.5801L2.625 6.91992C2.62503 5.65248 3.65248 4.62503 4.91992 4.625ZM4.91992 5.375C4.0667 5.37503 3.37503 6.0667 3.375 6.91992L3.375 29.5801C3.37503 30.4333 4.0667 31.125 4.91992 31.125L5.125 31.125L5.125 9.80762C5.12523 8.53656 6.15858 7.50734 7.42969 7.51269L33.625 7.62305L33.625 6.91992C33.625 6.0667 32.9333 5.37503 32.0801 5.375L4.91992 5.375Z" fill="#BBBBBB"/>
<path d="M36.4443 10.123C36.4442 9.15761 35.6618 8.37502 34.6963 8.375H7.62305C6.6577 8.37517 5.87517 9.1577 5.875 10.123V31.8877C5.875 32.8532 6.6576 33.6356 7.62305 33.6357H34.6963C35.6619 33.6357 36.4443 32.8533 36.4443 31.8877V10.123ZM37.1943 31.8877C37.1943 33.2675 36.0761 34.3857 34.6963 34.3857H7.62305C6.24338 34.3856 5.125 33.2674 5.125 31.8877V10.123C5.12517 8.74349 6.24349 7.62517 7.62305 7.625H34.6963C36.076 7.62502 37.1942 8.7434 37.1943 10.123V31.8877Z" fill="#BBBBBB"/>
<path d="M36.4219 10.123C36.4217 9.17038 35.649 8.39846 34.6963 8.39844H7.62305C6.67048 8.39861 5.89861 9.17048 5.89844 10.123V12.3799H36.4219V10.123ZM37.2178 13.1758H5.10156V10.123C5.10173 8.73072 6.23072 7.60173 7.62305 7.60156H34.6963C36.0887 7.60158 37.2176 8.73062 37.2178 10.123V13.1758Z" fill="#BBBBBB"/>
<path d="M9.21362 10.39C9.21362 10.8298 8.85712 11.1863 8.41736 11.1863C7.97759 11.1863 7.62109 10.8298 7.62109 10.39C7.62109 9.95025 7.97759 9.59375 8.41736 9.59375C8.85712 9.59375 9.21362 9.95025 9.21362 10.39Z" fill="#BBBBBB"/>
<path d="M12.4011 10.39C12.4011 10.8298 12.0446 11.1863 11.6049 11.1863C11.1651 11.1863 10.8086 10.8298 10.8086 10.39C10.8086 9.95025 11.1651 9.59375 11.6049 9.59375C12.0446 9.59375 12.4011 9.95025 12.4011 10.39Z" fill="#BBBBBB"/>
<path d="M15.5886 10.39C15.5886 10.8298 15.2321 11.1863 14.7924 11.1863C14.3526 11.1863 13.9961 10.8298 13.9961 10.39C13.9961 9.95025 14.3526 9.59375 14.7924 9.59375C15.2321 9.59375 15.5886 9.95025 15.5886 10.39Z" fill="#BBBBBB"/>
<path d="M13.5 22V23H9.5V22H13.5ZM14.5 21V17C14.5 16.4477 14.0523 16 13.5 16H9.5C8.94772 16 8.5 16.4477 8.5 17V21C8.5 21.5523 8.94772 22 9.5 22V23C8.39543 23 7.5 22.1046 7.5 21V17C7.5 15.8954 8.39543 15 9.5 15H13.5L13.7041 15.0107C14.7128 15.113 15.5 15.9643 15.5 17V21L15.4893 21.2041C15.387 22.2128 14.5357 23 13.5 23V22C14.0523 22 14.5 21.5523 14.5 21Z" fill="#BBBBBB"/>
<path d="M7.5 25C7.5 24.4477 7.94772 24 8.5 24H14.5C15.0523 24 15.5 24.4477 15.5 25V25C15.5 25.5523 15.0523 26 14.5 26H8.5C7.94772 26 7.5 25.5523 7.5 25V25Z" fill="#BBBBBB"/>
<path d="M7.5 28C7.5 27.4477 7.94772 27 8.5 27H12.5C13.0523 27 13.5 27.4477 13.5 28V28C13.5 28.5523 13.0523 29 12.5 29H8.5C7.94772 29 7.5 28.5523 7.5 28V28Z" fill="#BBBBBB"/>
<path d="M23.5 22V23H19.5V22H23.5ZM24.5 21V17C24.5 16.4477 24.0523 16 23.5 16H19.5C18.9477 16 18.5 16.4477 18.5 17V21C18.5 21.5523 18.9477 22 19.5 22V23C18.3954 23 17.5 22.1046 17.5 21V17C17.5 15.8954 18.3954 15 19.5 15H23.5L23.7041 15.0107C24.7128 15.113 25.5 15.9643 25.5 17V21L25.4893 21.2041C25.387 22.2128 24.5357 23 23.5 23V22C24.0523 22 24.5 21.5523 24.5 21Z" fill="#BBBBBB"/>
<path d="M17.5 25C17.5 24.4477 17.9477 24 18.5 24H24.5C25.0523 24 25.5 24.4477 25.5 25V25C25.5 25.5523 25.0523 26 24.5 26H18.5C17.9477 26 17.5 25.5523 17.5 25V25Z" fill="#BBBBBB"/>
<path d="M17.5 28C17.5 27.4477 17.9477 27 18.5 27H22.5C23.0523 27 23.5 27.4477 23.5 28V28C23.5 28.5523 23.0523 29 22.5 29H18.5C17.9477 29 17.5 28.5523 17.5 28V28Z" fill="#BBBBBB"/>
<path d="M32.5 22V23H28.5V22H32.5ZM33.5 21V17C33.5 16.4477 33.0523 16 32.5 16H28.5C27.9477 16 27.5 16.4477 27.5 17V21C27.5 21.5523 27.9477 22 28.5 22V23C27.3954 23 26.5 22.1046 26.5 21V17C26.5 15.8954 27.3954 15 28.5 15H32.5L32.7041 15.0107C33.7128 15.113 34.5 15.9643 34.5 17V21L34.4893 21.2041C34.387 22.2128 33.5357 23 32.5 23V22C33.0523 22 33.5 21.5523 33.5 21Z" fill="#BBBBBB"/>
<path d="M26.5 25C26.5 24.4477 26.9477 24 27.5 24H33.5C34.0523 24 34.5 24.4477 34.5 25V25C34.5 25.5523 34.0523 26 33.5 26H27.5C26.9477 26 26.5 25.5523 26.5 25V25Z" fill="#BBBBBB"/>
<path d="M26.5 28C26.5 27.4477 26.9477 27 27.5 27H31.5C32.0523 27 32.5 27.4477 32.5 28V28C32.5 28.5523 32.0523 29 31.5 29H27.5C26.9477 29 26.5 28.5523 26.5 28V28Z" fill="#BBBBBB"/>
</svg>
