<svg width="40" height="40" viewBox="0 0 40 40" fill="none" xmlns="http://www.w3.org/2000/svg">
<path d="M24.0801 2.625C25.3475 2.62503 26.375 3.65249 26.375 4.91992V5.625H27.1895C28.3239 5.62505 29.3747 6.39259 29.375 7.48633V19.0596C30.1487 18.7336 30.9993 18.5537 31.8916 18.5537C35.4726 18.5538 38.3758 21.4566 38.376 25.0371C38.376 26.5371 37.8656 27.919 37.0098 29.0176C36.8825 29.1809 36.6468 29.2103 36.4834 29.083C36.4635 29.0675 36.4446 29.0497 36.4287 29.0312C36.3155 28.8986 36.3066 28.6995 36.418 28.5566C37.1749 27.585 37.626 26.3642 37.626 25.0371C37.6258 21.9698 35.2163 19.4651 32.1865 19.3115L31.8916 19.3037C30.9889 19.3037 30.1347 19.5123 29.375 19.8838C29.1132 20.0118 28.8625 20.1594 28.625 20.3242C27.1336 21.3595 26.1573 23.0844 26.1572 25.0371C26.1572 25.1975 26.1638 25.3566 26.1768 25.5137L26.2061 25.7891C26.385 27.1547 27.045 28.3685 28.0107 29.2568C28.0879 29.3278 28.1318 29.4284 28.1318 29.5332V30.5791L29.0674 30.1826C29.1672 30.1406 29.2806 30.1439 29.3779 30.1914C29.9331 30.4626 30.5383 30.6472 31.1768 30.7266C31.4107 30.7556 31.6497 30.7705 31.8916 30.7705C32.903 30.7705 33.8524 30.5087 34.6768 30.0498C34.8353 29.9617 35.0308 30.0003 35.1445 30.1328C35.1605 30.1515 35.1751 30.172 35.1875 30.1943C35.2882 30.3752 35.2227 30.6042 35.042 30.7051C34.1189 31.219 33.0569 31.5123 31.9277 31.5186C31.7762 33.0953 31.061 34.5062 29.9854 35.5479V36.998C29.9854 37.1236 29.9229 37.241 29.8184 37.3105C29.7136 37.38 29.5806 37.3926 29.4648 37.3438L28.1582 36.793C27.3401 37.1653 26.4321 37.375 25.4756 37.375C23.1804 37.375 21.1651 36.1817 20.0127 34.3828H8.81055C7.67599 34.3827 6.625 33.6145 6.625 32.5205V31.375H5.91992C4.65248 31.375 3.62503 30.3475 3.625 29.0801V4.91992C3.62503 3.65249 4.65249 2.62503 5.91992 2.625H24.0801ZM7.375 32.5205C7.375 33.0689 7.94527 33.6327 8.81055 33.6328H19.5996C19.3681 33.1375 19.1971 32.6086 19.0967 32.0547H10.3789C9.59483 32.0547 8.95907 31.4187 8.95898 30.6348C8.95908 29.8507 9.59484 29.2148 10.3789 29.2148H19.2109C19.947 26.4587 22.4531 24.4263 25.4375 24.4092C25.6418 22.2851 26.8711 20.4613 28.625 19.4365V11.375H7.375V32.5205ZM10.3789 29.9648C10.0091 29.9648 9.70908 30.2649 9.70898 30.6348C9.70907 31.0045 10.0091 31.3047 10.3789 31.3047H19.0059C18.9973 31.1681 18.9912 31.0304 18.9912 30.8916C18.9912 30.5769 19.0143 30.2676 19.0576 29.9648H10.3789ZM17.0566 23.2129C17.8565 23.213 18.5049 23.8612 18.5049 24.6611V26.5869C18.5048 27.3867 17.8565 28.0351 17.0566 28.0352H10.4863C9.68676 28.0348 9.03819 27.3865 9.03809 26.5869V24.6611C9.03809 23.8614 9.68671 23.2132 10.4863 23.2129H17.0566ZM33.3301 26.8857C33.537 26.8859 33.7051 27.0538 33.7051 27.2607C33.7048 27.4675 33.5369 27.6355 33.3301 27.6357H30.4521L30.377 27.6279C30.2062 27.593 30.0774 27.4418 30.0771 27.2607C30.0771 27.0537 30.2452 26.8859 30.4521 26.8857H33.3301ZM10.4863 23.9629C10.1009 23.9632 9.78809 24.2756 9.78809 24.6611V26.5869C9.78819 26.9723 10.101 27.2848 10.4863 27.2852H17.0566C17.4423 27.2851 17.7548 26.9725 17.7549 26.5869V24.6611C17.7549 24.2754 17.4423 23.963 17.0566 23.9629H10.4863ZM35.1025 24.6621C35.3096 24.6621 35.4775 24.83 35.4775 25.0371C35.4774 25.2441 35.3095 25.4121 35.1025 25.4121H28.6777L28.6025 25.4043C28.4316 25.3695 28.3029 25.2183 28.3027 25.0371C28.3027 24.8479 28.4429 24.6907 28.625 24.665L28.6777 24.6621H35.1025ZM33.3301 22.4414C33.537 22.4416 33.7051 22.6094 33.7051 22.8164C33.705 23.0234 33.537 23.1912 33.3301 23.1914H30.4521L30.377 23.1836C30.2061 23.1486 30.0772 22.9976 30.0771 22.8164C30.0771 22.6094 30.2452 22.4416 30.4521 22.4414H33.3301ZM23.6436 17.166C24.4434 17.1662 25.0918 17.8145 25.0918 18.6143V20.54C25.0916 21.3397 24.4433 21.9881 23.6436 21.9883H17.0732C16.2735 21.9882 15.6252 21.3397 15.625 20.54V18.6143C15.625 17.8144 16.2734 17.1661 17.0732 17.166H23.6436ZM17.0732 17.916C16.6876 17.9161 16.375 18.2286 16.375 18.6143V20.54C16.3752 20.9255 16.6877 21.2382 17.0732 21.2383H23.6436C24.029 21.2381 24.3416 20.9255 24.3418 20.54V18.6143C24.3418 18.2286 24.0292 17.9162 23.6436 17.916H17.0732ZM17.0566 12.3652C17.8565 12.3653 18.5049 13.0137 18.5049 13.8135V14.4922C18.5048 15.2919 17.8565 15.9404 17.0566 15.9404H10.4863C9.68676 15.9401 9.03818 15.2918 9.03809 14.4922V13.8135C9.03811 13.0138 9.68671 12.3655 10.4863 12.3652H17.0566ZM10.4863 13.1152C10.1009 13.1155 9.78811 13.428 9.78809 13.8135V14.4922C9.78818 14.8776 10.101 15.1901 10.4863 15.1904H17.0566C17.4423 15.1904 17.7548 14.8778 17.7549 14.4922V13.8135C17.7549 13.4278 17.4423 13.1153 17.0566 13.1152H10.4863ZM8.91992 6.375C8.0667 6.37503 7.37503 7.0667 7.375 7.91992V10.625H28.625V7.70703C28.6249 6.99184 28.0033 6.37509 27.1895 6.375H8.91992ZM9.5 8C9.77614 8 10 8.22386 10 8.5C10 8.77614 9.77614 9 9.5 9C9.22386 9 9 8.77614 9 8.5C9 8.22386 9.22386 8 9.5 8ZM12.5 8C12.7761 8 13 8.22386 13 8.5C13 8.77614 12.7761 9 12.5 9C12.2239 9 12 8.77614 12 8.5C12 8.22386 12.2239 8 12.5 8ZM15.5 8C15.7761 8 16 8.22386 16 8.5C16 8.77614 15.7761 9 15.5 9C15.2239 9 15 8.77614 15 8.5C15 8.22386 15.2239 8 15.5 8Z" fill="#BBBBBB"/>
</svg>
