<svg width="40" height="40" viewBox="0 0 40 40" fill="none" xmlns="http://www.w3.org/2000/svg">
<path d="M32.08 3C33.1404 3 34 3.8596 34 4.91998L34 6.00001L7.42797 5.88809C6.36444 5.88361 5.4999 6.74452 5.4999 7.80806L5.4999 29.5001L4.91987 29.5001C3.8595 29.5001 2.99989 28.6405 2.99989 27.5801L2.99989 4.91998C2.99989 3.8596 3.8595 3 4.91987 3L32.08 3Z" fill="#BBBBBB"/>
<path d="M4.91992 2.625L32.0801 2.625C33.3475 2.62503 34.375 3.65248 34.375 4.91992L34.375 6.37695L7.42676 6.26269C6.5711 6.25909 5.87524 6.95201 5.875 7.80762L5.875 29.875L4.91992 29.875C3.65244 29.875 2.625 28.8476 2.625 27.5801L2.625 4.91992C2.62503 3.65246 3.65246 2.625 4.91992 2.625ZM4.91992 3.375C4.06667 3.375 3.37503 4.06668 3.375 4.91992L3.375 27.5801C3.375 28.4333 4.06665 29.125 4.91992 29.125L5.125 29.125L5.125 7.80762C5.12524 6.53656 6.15859 5.50734 7.42969 5.51269L33.625 5.62305L33.625 4.91992C33.625 4.0667 32.9333 3.37503 32.0801 3.375L4.91992 3.375Z" fill="#BBBBBB"/>
<path d="M37.625 8.12402C37.6248 7.15865 36.8423 6.37609 35.877 6.37598H8.12305C7.1577 6.37615 6.37517 7.15868 6.375 8.12402V31.8779C6.37512 32.8433 7.15767 33.6258 8.12305 33.626H35.877C36.8424 33.6259 37.6249 32.8434 37.625 31.8779V8.12402ZM38.375 31.8779C38.3749 33.2576 37.2566 34.3759 35.877 34.376H8.12305C6.74346 34.3758 5.62512 33.2575 5.625 31.8779V8.12402C5.62517 6.74447 6.74349 5.62615 8.12305 5.62598H35.877C37.2566 5.62609 38.3748 6.74443 38.375 8.12402V31.8779Z" fill="#BBBBBB"/>
<path d="M37.6016 8.12402C37.6014 7.17142 36.8296 6.39953 35.877 6.39941H8.12305C7.17048 6.39959 6.39861 7.17146 6.39844 8.12402V10.6025H37.6016V8.12402ZM38.3984 11.3994H5.60156V8.12402C5.60174 6.73169 6.73072 5.60271 8.12305 5.60254H35.877C37.2693 5.60265 38.3983 6.73165 38.3984 8.12402V11.3994Z" fill="#BBBBBB"/>
<path d="M9.71167 8.38415C9.71167 8.82392 9.35517 9.18042 8.9154 9.18042C8.47564 9.18042 8.11914 8.82392 8.11914 8.38415C8.11914 7.94439 8.47564 7.58789 8.9154 7.58789C9.35517 7.58789 9.71167 7.94439 9.71167 8.38415Z" fill="#BBBBBB"/>
<path d="M12.8992 8.38415C12.8992 8.82392 12.5427 9.18042 12.1029 9.18042C11.6631 9.18042 11.3066 8.82392 11.3066 8.38415C11.3066 7.94439 11.6631 7.58789 12.1029 7.58789C12.5427 7.58789 12.8992 7.94439 12.8992 8.38415Z" fill="#BBBBBB"/>
<path d="M16.0886 8.38415C16.0886 8.82392 15.7321 9.18042 15.2924 9.18042C14.8526 9.18042 14.4961 8.82392 14.4961 8.38415C14.4961 7.94439 14.8526 7.58789 15.2924 7.58789C15.7321 7.58789 16.0886 7.94439 16.0886 8.38415Z" fill="#BBBBBB"/>
<path d="M21.3916 31.4376C22.5098 31.4376 23.4453 30.6008 23.6601 29.4932H19.123C19.338 30.6008 20.2734 31.4376 21.3916 31.4376Z" fill="#BBBBBB"/>
<path d="M26.6175 22.7954C26.6145 22.7954 26.6115 22.7961 26.6085 22.7961C23.7323 22.7961 21.3912 20.4216 21.3912 17.5029C21.3912 16.7005 21.5731 15.942 21.8899 15.26C21.7259 15.2442 21.5596 15.2344 21.3912 15.2344C18.5098 15.2344 16.174 17.6041 16.174 20.5276V22.6357C16.174 24.1322 15.5278 25.5448 14.3941 26.5172C14.0162 26.8447 13.8484 27.3664 13.9841 27.8753C14.1421 28.4674 14.719 28.8455 15.3243 28.8455H27.4545C28.0895 28.8455 28.6881 28.4281 28.8169 27.7967C28.9168 27.3082 28.7454 26.8204 28.372 26.5021C27.2883 25.5804 26.6615 24.226 26.6175 22.7954Z" fill="#BBBBBB"/>
<path d="M30.1414 17.5024C30.1414 19.4712 28.5454 21.0672 26.5765 21.0672C24.6077 21.0672 23.0117 19.4712 23.0117 17.5024C23.0117 15.5336 24.6077 13.9375 26.5765 13.9375C28.5454 13.9375 30.1414 15.5336 30.1414 17.5024Z" fill="#BBBBBB"/>
<path d="M29.8984 17.502C29.8982 15.6676 28.4107 14.1807 26.5762 14.1807C24.7419 14.1808 23.2551 15.6677 23.2549 17.502C23.2549 19.3364 24.7417 20.8241 26.5762 20.8242C28.4109 20.8242 29.8984 19.3365 29.8984 17.502ZM30.3848 17.502C30.3848 19.605 28.6793 21.3105 26.5762 21.3105C24.4733 21.3104 22.7686 19.6049 22.7686 17.502C22.7688 15.3992 24.4734 13.6945 26.5762 13.6943C28.6792 13.6943 30.3845 15.3991 30.3848 17.502Z" fill="#BBBBBB"/>
</svg>
