<svg width="40" height="40" viewBox="0 0 40 40" fill="none" xmlns="http://www.w3.org/2000/svg">
<path d="M22.08 5C23.1404 5 24 5.85961 24 6.91998L24 8L7.91998 8C6.8596 8 6 8.8596 6 9.91998L6 32L4.91998 32C3.8596 32 3 31.1404 3 30.08L3 6.91998C3 5.8596 3.8596 5 4.91998 5L22.08 5Z" fill="#BBBBBB"/>
<path d="M4.91992 4.625L22.0801 4.625C23.3475 4.62503 24.375 5.65249 24.375 6.91992L24.375 8.375L7.91992 8.375C7.0667 8.37503 6.37503 9.0667 6.375 9.91992L6.375 32.375L4.91992 32.375C3.65248 32.375 2.62503 31.3475 2.625 30.0801L2.625 6.91992C2.62503 5.65248 3.65248 4.62503 4.91992 4.625ZM4.91992 5.375C4.0667 5.37503 3.37503 6.0667 3.375 6.91992L3.375 30.0801C3.37503 30.9333 4.0667 31.625 4.91992 31.625L5.625 31.625L5.625 9.91992C5.62503 8.65248 6.65249 7.62503 7.91992 7.625L23.625 7.625L23.625 6.91992C23.625 6.0667 22.9333 5.37503 22.0801 5.375L4.91992 5.375Z" fill="#BBBBBB"/>
<path d="M26.42 36C25.3596 36 24.5 35.1404 24.5 34.08L24.5 34L33.0792 34C34.1396 34 34.9992 33.1404 34.9992 32.08L34.9992 10L35.08 10C36.1404 10 37 10.8596 37 11.92L37 34.08C37 35.1404 36.1404 36 35.08 36L26.42 36Z" fill="#BBBBBB"/>
<path d="M26.4199 36.375C25.1525 36.375 24.125 35.3475 24.125 34.0801L24.125 33.625L33.0791 33.625C33.9323 33.625 34.624 32.9333 34.624 32.0801L34.624 9.625L35.0801 9.625C36.3475 9.62503 37.375 10.6525 37.375 11.9199L37.375 34.0801C37.375 35.3475 36.3475 36.375 35.0801 36.375L26.4199 36.375ZM35.0801 35.625C35.9333 35.625 36.625 34.9333 36.625 34.0801L36.625 11.9199C36.625 11.1672 36.0866 10.5406 35.374 10.4033L35.374 32.0801C35.374 33.3475 34.3466 34.375 33.0791 34.375L24.9033 34.375C25.041 35.0871 25.6676 35.625 26.4199 35.625L35.0801 35.625Z" fill="#BBBBBB"/>
<path d="M34.625 10.123C34.6248 9.15771 33.8423 8.37518 32.877 8.375H8.12305C7.15771 8.37518 6.37518 9.15771 6.375 10.123V31.877C6.37518 32.8423 7.15771 33.6248 8.12305 33.625H32.877C33.8423 33.6248 34.6248 32.8423 34.625 31.877V10.123ZM35.375 31.877C35.3748 33.2565 34.2565 34.3748 32.877 34.375H8.12305C6.74349 34.3748 5.62518 33.2565 5.625 31.877V10.123C5.62518 8.74349 6.74349 7.62518 8.12305 7.625H32.877C34.2565 7.62518 35.3748 8.74349 35.375 10.123V31.877Z" fill="#BBBBBB"/>
<path d="M34.625 10.123C34.6248 9.15771 33.8423 8.37518 32.877 8.375H8.12305C7.15771 8.37518 6.37518 9.15771 6.375 10.123V12.625H34.625V10.123ZM35.375 13.375H5.625V10.123C5.62518 8.74349 6.74349 7.62518 8.12305 7.625H32.877C34.2565 7.62518 35.3748 8.74349 35.375 10.123V13.375Z" fill="#BBBBBB"/>
<path d="M10.5925 10.7963C10.5925 11.236 10.236 11.5925 9.79626 11.5925C9.3565 11.5925 9 11.236 9 10.7963C9 10.3565 9.3565 10 9.79626 10C10.236 10 10.5925 10.3565 10.5925 10.7963Z" fill="#BBBBBB"/>
<path d="M13.78 10.7963C13.78 11.236 13.4235 11.5925 12.9838 11.5925C12.544 11.5925 12.1875 11.236 12.1875 10.7963C12.1875 10.3565 12.544 10 12.9838 10C13.4235 10 13.78 10.3565 13.78 10.7963Z" fill="#BBBBBB"/>
<path d="M16.9695 10.7963C16.9695 11.236 16.613 11.5925 16.1732 11.5925C15.7335 11.5925 15.377 11.236 15.377 10.7963C15.377 10.3565 15.7335 10 16.1732 10C16.613 10 16.9695 10.3565 16.9695 10.7963Z" fill="#BBBBBB"/>
<path d="M14.625 30.8748V27.6853C14.625 27.4782 14.7929 27.3103 15 27.3103C15.2071 27.3103 15.375 27.4782 15.375 27.6853V30.8748C15.375 31.289 15.7108 31.6246 16.125 31.6248H25.2148C25.6292 31.6248 25.9648 31.289 25.9648 30.8748V30.6042C25.9649 30.3973 26.1329 30.2294 26.3398 30.2292C26.5469 30.2292 26.7148 30.3972 26.7148 30.6042V30.8748C26.7148 31.7032 26.0434 32.3748 25.2148 32.3748H16.125C15.2966 32.3746 14.625 31.7032 14.625 30.8748Z" fill="#BBBBBB"/>
<path d="M25.9648 29.4082V23.4697C25.9647 23.0555 25.6291 22.7197 25.2148 22.7197H16.125C15.7108 22.7198 15.3751 23.0556 15.375 23.4697V26.4541C15.375 26.6612 15.2071 26.8291 15 26.8291C14.7929 26.8291 14.625 26.6612 14.625 26.4541V23.4697C14.6251 22.6414 15.2966 21.9698 16.125 21.9697H25.2148C26.0433 21.9697 26.7147 22.6413 26.7148 23.4697V29.4082C26.7146 29.6151 26.5468 29.7832 26.3398 29.7832C26.133 29.783 25.9651 29.615 25.9648 29.4082Z" fill="#BBBBBB"/>
<path d="M17.4487 19.2843C17.4488 17.4971 18.9116 16.0452 20.7026 16.0626C22.4812 16.0801 23.892 17.5541 23.8921 19.3204V19.8878H24.5796V19.3311C24.5794 17.1681 22.8452 15.3875 20.6929 15.3751C18.5274 15.3629 16.7613 17.1216 16.7612 19.2843V21.9698H17.4487V19.2843ZM18.1987 22.3448C18.1987 22.5519 18.0308 22.7198 17.8237 22.7198H16.3862C16.1791 22.7198 16.0113 22.5519 16.0112 22.3448V19.2843C16.0113 16.7058 18.1159 14.6102 20.6978 14.6251C23.2732 14.64 25.3294 16.7663 25.3296 19.3311V20.2628C25.3295 20.4698 25.1616 20.6378 24.9546 20.6378H23.5171C23.3101 20.6378 23.1422 20.4698 23.1421 20.2628V19.3204C23.142 17.9528 22.0498 16.8257 20.6948 16.8126C19.3213 16.7993 18.1988 17.9138 18.1987 19.2843V22.3448Z" fill="#BBBBBB"/>
<path d="M23.5933 21.9692H24.9604V20.6372H23.5933V21.9692ZM25.7104 22.0366C25.7104 22.4134 25.4046 22.7192 25.0278 22.7192H23.5259C23.149 22.7192 22.8433 22.4135 22.8433 22.0366V20.5698C22.8433 20.1929 23.1491 19.8872 23.5259 19.8872H25.0278C25.4046 19.8872 25.7104 20.193 25.7104 20.5698V22.0366Z" fill="#BBBBBB"/>
<path d="M23.9382 27.1721C23.9381 25.3685 22.4752 23.9065 20.6716 23.9065C18.8681 23.9066 17.4061 25.3686 17.406 27.1721C17.406 28.9757 18.8681 30.4386 20.6716 30.4387C22.4753 30.4387 23.9382 28.9758 23.9382 27.1721ZM24.6882 27.1721C24.6882 29.39 22.8895 31.1887 20.6716 31.1887C18.4538 31.1886 16.656 29.3899 16.656 27.1721C16.6561 24.9544 18.4539 23.1566 20.6716 23.1565C22.8895 23.1565 24.6881 24.9543 24.6882 27.1721Z" fill="#BBBBBB"/>
<path d="M22.1753 26.9012C22.1752 26.5695 22.0669 26.2648 21.8853 26.0164L20.6714 25.4754L19.4585 26.0144C19.2763 26.2631 19.1685 26.5689 19.1685 26.9012C19.1685 27.5818 19.4607 28.0382 19.7983 28.3474C20.1191 28.6412 20.4805 28.7982 20.6626 28.865C20.8465 28.7879 21.2139 28.6107 21.5405 28.3055C21.8872 27.9815 22.1753 27.5288 22.1753 26.9012ZM22.9253 26.9012C22.9253 27.7904 22.5062 28.429 22.0522 28.8533C21.604 29.2721 21.1094 29.4968 20.9009 29.5799C20.7595 29.6362 20.602 29.6394 20.4575 29.5896C20.2443 29.5162 19.7438 29.3145 19.2915 28.9002C18.8304 28.4777 18.4185 27.8311 18.4185 26.9012C18.4185 26.3944 18.5868 25.9262 18.8696 25.5496L18.9263 25.4832C18.9866 25.4217 19.0579 25.3736 19.1343 25.3396L20.3979 24.7781L20.5327 24.7342C20.6705 24.7051 20.815 24.72 20.9458 24.7781L22.2104 25.3396C22.2867 25.3736 22.3573 25.4219 22.4175 25.4832L22.4741 25.5496L22.5747 25.6951C22.7963 26.044 22.9252 26.4578 22.9253 26.9012Z" fill="#BBBBBB"/>
<path d="M21.238 26.3864C21.3844 26.2403 21.6219 26.2404 21.7683 26.3864C21.9147 26.5329 21.9147 26.7713 21.7683 26.9177L20.7282 27.9577C20.5819 28.1041 20.3444 28.104 20.198 27.9577L19.8825 27.6433C19.7361 27.4968 19.7361 27.2585 19.8825 27.112C20.029 26.9656 20.2673 26.9656 20.4138 27.112L20.4626 27.1609L21.238 26.3864Z" fill="#BBBBBB"/>
</svg>
