<svg width="40" height="40" viewBox="0 0 40 40" fill="none" xmlns="http://www.w3.org/2000/svg">
<path d="M35.9072 6.625C37.6055 6.62504 39.0124 7.94366 39.0127 9.60645V30.4619C39.0127 31.9807 37.8391 33.2088 36.3418 33.4111C36.2206 34.5059 35.2951 35.3573 34.168 35.3574H3.83203C2.62266 35.3572 1.64276 34.3773 1.64258 33.168V14.832C1.64276 13.6227 2.62265 12.6428 3.83203 12.6426H4.84277V9.60645C4.84303 7.94378 6.25009 6.62523 7.94824 6.625H35.9072ZM5.59277 30.4619C5.59277 31.6783 6.63107 32.6941 7.94824 32.6943H35.9072C37.2246 32.6943 38.2627 31.6784 38.2627 30.4619V10.8623H5.59277V30.4619ZM24 12.625C24.7594 12.625 25.375 13.2406 25.375 14V28C25.375 28.7594 24.7594 29.375 24 29.375H9C8.24061 29.375 7.625 28.7594 7.625 28V14C7.625 13.2406 8.24061 12.625 9 12.625H24ZM35 12.625C35.7594 12.625 36.375 13.2406 36.375 14V28C36.375 28.7594 35.7594 29.375 35 29.375H29C28.2406 29.375 27.625 28.7594 27.625 28V14C27.625 13.2406 28.2406 12.625 29 12.625H35ZM8.375 28C8.375 28.3452 8.65482 28.625 9 28.625H12.625V17.375H8.375V28ZM13.375 28.625H24C24.3452 28.625 24.625 28.3452 24.625 28V17.375H13.375V28.625ZM21.8916 17.7793C21.9034 17.7805 21.9153 17.7829 21.9268 17.7852C21.9335 17.7865 21.9407 17.7874 21.9473 17.7891C21.9537 17.7907 21.9605 17.7929 21.9668 17.7949C21.9925 17.8037 22.0255 17.8179 22.0488 17.832L22.0605 17.8398L22.0713 17.8467C22.0883 17.8587 22.1052 17.8729 22.1201 17.8877L23.0693 18.8369C23.1716 18.9392 23.2017 19.0858 23.1611 19.2148C23.1436 19.2704 23.1133 19.3231 23.0693 19.3672C22.9229 19.5136 22.6855 19.5136 22.5391 19.3672L22.2285 19.0576V22.4473C22.2285 24.287 20.7363 25.7793 18.8965 25.7793H15.5957L15.9014 26.0859C16.0478 26.2324 16.0478 26.4698 15.9014 26.6162C15.7549 26.7623 15.5174 26.7625 15.3711 26.6162L14.4209 25.666C14.3924 25.6374 14.3709 25.6045 14.3535 25.5703C14.3558 25.5747 14.3569 25.5797 14.3594 25.584C14.3567 25.5793 14.355 25.5741 14.3525 25.5693C14.3456 25.5557 14.3401 25.5416 14.335 25.5273C14.3312 25.5169 14.327 25.5067 14.3242 25.4961C14.3181 25.4727 14.314 25.4488 14.3125 25.4248C14.3125 25.4234 14.3115 25.4057 14.3115 25.4043C14.3116 25.3001 14.3522 25.2037 14.4209 25.1357L15.3711 24.1855C15.5174 24.0393 15.7549 24.0395 15.9014 24.1855C16.0478 24.332 16.0478 24.5704 15.9014 24.7168L15.5879 25.0293H18.8965C20.3221 25.0293 21.4785 23.8728 21.4785 22.4473V19.0576L21.1699 19.3672C21.0235 19.5136 20.7851 19.5136 20.6387 19.3672C20.4926 19.2207 20.4925 18.9832 20.6387 18.8369L21.5889 17.8867C21.6062 17.8696 21.6259 17.8544 21.6465 17.8408C21.6961 17.8081 21.7633 17.7847 21.8252 17.7783C21.8331 17.7778 21.8455 17.7774 21.8535 17.7773C21.8663 17.7774 21.8791 17.778 21.8916 17.7793ZM9 13.375C8.65482 13.375 8.375 13.6548 8.375 14V16.625H12.625V13.375H9ZM13.375 16.625H24.625V14C24.625 13.6548 24.3452 13.375 24 13.375H13.375V16.625ZM9 8C8.44772 8 8 8.44772 8 9C8 9.55228 8.44772 10 9 10C9.55228 10 10 9.55228 10 9C10 8.44772 9.55228 8 9 8ZM13 8C12.4477 8 12 8.44772 12 9C12 9.55228 12.4477 10 13 10C13.5523 10 14 9.55228 14 9C14 8.44772 13.5523 8 13 8ZM17 8C16.4477 8 16 8.44772 16 9C16 9.55228 16.4477 10 17 10C17.5523 10 18 9.55228 18 9C18 8.44772 17.5523 8 17 8Z" fill="#8C8C8C"/>
</svg>
