<svg width="40" height="40" viewBox="0 0 40 40" fill="none" xmlns="http://www.w3.org/2000/svg">
<path fill-rule="evenodd" clip-rule="evenodd" d="M35.625 8.95852V11.55H4.375V8.95852C4.375 8.31132 4.89968 7.78662 5.5469 7.78662H34.4531C35.1003 7.78662 35.625 8.31132 35.625 8.95852ZM6.95996 9.66257V9.67402C6.95996 9.88977 7.13486 10.0646 7.35056 10.0646C7.56626 10.0646 7.74121 9.88977 7.74121 9.67402V9.66257C7.74121 9.44682 7.56626 9.27197 7.35056 9.27197C7.13486 9.27197 6.95996 9.44682 6.95996 9.66257ZM8.46973 9.67402V9.66257C8.46973 9.44682 8.64463 9.27197 8.86033 9.27197C9.07608 9.27197 9.25098 9.44682 9.25098 9.66257V9.67402C9.25098 9.88977 9.07608 10.0646 8.86033 10.0646C8.64463 10.0646 8.46973 9.88977 8.46973 9.67402ZM9.97852 9.66257V9.67402C9.97852 9.88977 10.1535 10.0646 10.3692 10.0646C10.5849 10.0646 10.7598 9.88977 10.7598 9.67402V9.66257C10.7598 9.44682 10.5849 9.27197 10.3692 9.27197C10.1535 9.27197 9.97852 9.44682 9.97852 9.66257Z" fill="#8C8C8C"/>
<path d="M35.6098 12.9227C35.8253 12.9227 36 12.7501 36 12.5372V9.04203C36 8.19172 35.2998 7.5 34.439 7.5H5.561C4.70026 7.5 4 8.19172 4 9.04203V11.5995C4 11.8125 4.17475 11.9851 4.39024 11.9851H35.2196V30.958C35.2196 31.3831 34.8694 31.729 34.439 31.729H5.561C5.13062 31.729 4.78049 31.3831 4.78049 30.958V13.723C4.78049 13.5101 4.60574 13.3375 4.39024 13.3375C4.17475 13.3375 4 13.5101 4 13.723V30.958C4 31.8082 4.70026 32.5 5.561 32.5H34.439C35.2998 32.5 36 31.8082 36 30.958V11.5995C36 11.3866 35.8253 11.2141 35.6098 11.2141H4.78049V9.04203C4.78049 8.61688 5.13062 8.27102 5.561 8.27102H34.439C34.8694 8.27102 35.2196 8.61688 35.2196 9.04203V12.5372C35.2196 12.7501 35.3943 12.9227 35.6098 12.9227Z" fill="#8C8C8C"/>
<path d="M33 17.5V15C33 14.7239 32.7761 14.5 32.5 14.5H28H7.5C7.22386 14.5 7 14.7239 7 15V17.5C7 17.7761 7.22386 18 7.5 18H32.5C32.7761 18 33 17.7761 33 17.5Z" fill="#8C8C8C" stroke="#8C8C8C" stroke-width="0.5" stroke-linecap="round"/>
<rect x="7.25" y="27.25" width="5" height="2.5" rx="1.25" fill="#8C8C8C" stroke="#8C8C8C" stroke-width="0.5" stroke-linejoin="round"/>
<rect x="13.75" y="25.75" width="5.5" height="4" rx="1.25" fill="#8C8C8C" stroke="#8C8C8C" stroke-width="0.5" stroke-linejoin="round"/>
<rect x="20.75" y="23.25" width="5.5" height="6.5" rx="1.25" fill="#8C8C8C" stroke="#8C8C8C" stroke-width="0.5" stroke-linejoin="round"/>
<rect x="27.75" y="20.25" width="5" height="9.5" rx="1.25" fill="#8C8C8C" stroke="#8C8C8C" stroke-width="0.5" stroke-linejoin="round"/>
</svg>
