<svg width="40" height="40" viewBox="0 0 40 40" fill="none" xmlns="http://www.w3.org/2000/svg">
<path d="M27.0511 34.1102V29.0721C27.0511 28.865 27.219 28.6971 27.4261 28.6971C27.633 28.6974 27.8011 28.8652 27.8011 29.0721V34.1102C27.8011 34.6666 27.4751 35.1422 27.0101 35.5243C26.5425 35.9085 25.8887 36.2384 25.1136 36.5077C23.5598 37.0476 21.4372 37.3749 19.1107 37.3749C17.8862 37.3749 16.7202 37.2837 15.6654 37.12C15.4608 37.0882 15.3211 36.8969 15.3529 36.6923C15.3846 36.4876 15.576 36.347 15.7806 36.3788C16.7951 36.5362 17.9224 36.6249 19.1107 36.6249C21.3764 36.6249 23.412 36.3045 24.8675 35.7987C25.5969 35.5452 26.1608 35.2523 26.5345 34.9452C26.9109 34.636 27.0511 34.3516 27.0511 34.1102Z" fill="#BBBBBB"/>
<path d="M10.4199 34.1102V29.0721C10.4199 28.865 10.5878 28.6971 10.7949 28.6971C11.002 28.6971 11.1699 28.865 11.1699 29.0721V34.1102C11.1699 34.3693 11.3321 34.6784 11.7705 35.0116C12.2034 35.3407 12.8519 35.6486 13.6807 35.9061C13.8784 35.9676 13.9891 36.1781 13.9277 36.3759C13.8663 36.5736 13.6558 36.6844 13.458 36.6229C12.5841 36.3514 11.845 36.0101 11.3164 35.6083C10.7934 35.2106 10.4199 34.7072 10.4199 34.1102Z" fill="#BBBBBB"/>
<path d="M10.4199 29.0731V23.9755C10.4199 23.7684 10.5878 23.6005 10.7949 23.6005C11.002 23.6005 11.1699 23.7684 11.1699 23.9755V29.0731C11.1699 29.3145 11.31 29.5988 11.6865 29.9081C12.0604 30.2152 12.6239 30.5091 13.3535 30.7626C14.8091 31.2683 16.8447 31.5878 19.1104 31.5878C21.3761 31.5878 23.4116 31.2683 24.8672 30.7626C25.5967 30.5091 26.1603 30.2152 26.5342 29.9081C26.9105 29.5988 27.0508 29.3145 27.0508 29.0731V23.9755C27.0508 23.7684 27.2187 23.6005 27.4258 23.6005C27.6328 23.6006 27.8008 23.7684 27.8008 23.9755V29.0731C27.8008 29.6295 27.4748 30.1061 27.0098 30.4882C26.5421 30.8722 25.8882 31.2013 25.1133 31.4706C23.5594 32.0105 21.4369 32.3378 19.1104 32.3378C16.7838 32.3378 14.6613 32.0105 13.1074 31.4706C12.3322 31.2012 11.6777 30.8724 11.21 30.4882C10.7449 30.1061 10.4199 29.6295 10.4199 29.0731Z" fill="#BBBBBB"/>
<path d="M10.4199 24.0339V18.9958C10.4199 18.7887 10.5878 18.6208 10.7949 18.6208C11.002 18.6208 11.1699 18.7887 11.1699 18.9958V24.0339C11.1699 24.2754 11.31 24.5596 11.6865 24.8689C12.0604 25.176 12.624 25.4689 13.3535 25.7224C14.8092 26.2282 16.8446 26.5486 19.1104 26.5486C21.3761 26.5486 23.4116 26.2282 24.8672 25.7224C25.5966 25.4689 26.1604 25.176 26.5342 24.8689C26.9106 24.5596 27.0508 24.2754 27.0508 24.0339V18.9958C27.0508 18.7887 27.2187 18.6208 27.4258 18.6208C27.6328 18.621 27.8008 18.7888 27.8008 18.9958V24.0339C27.8008 24.5904 27.4748 25.0659 27.0098 25.448C26.5421 25.8322 25.8884 26.1621 25.1133 26.4314C23.5594 26.9713 21.4369 27.2986 19.1104 27.2986C16.7838 27.2986 14.6613 26.9713 13.1074 26.4314C12.3322 26.162 11.6777 25.8322 11.21 25.448C10.7451 25.066 10.4199 24.5902 10.4199 24.0339Z" fill="#BBBBBB"/>
<path d="M27.0508 18.9968C27.0508 18.7554 26.9105 18.4711 26.5342 18.1619C26.1604 17.8548 25.5967 17.5609 24.8672 17.3074C23.4116 16.8016 21.3761 16.4822 19.1104 16.4822C16.8446 16.4822 14.8091 16.8016 13.3535 17.3074C12.6239 17.5609 12.0604 17.8547 11.6865 18.1619C11.3101 18.4711 11.1699 18.7554 11.1699 18.9968C11.1701 19.2382 11.3102 19.5227 11.6865 19.8318C12.0604 20.1388 12.6241 20.4319 13.3535 20.6853C14.8092 21.1911 16.8446 21.5105 19.1104 21.5105C21.3761 21.5105 23.4116 21.1911 24.8672 20.6853C25.5966 20.4318 26.1604 20.1388 26.5342 19.8318C26.9105 19.5227 27.0506 19.2382 27.0508 18.9968ZM27.8008 18.9968C27.8006 19.5531 27.4747 20.0289 27.0098 20.4109C26.5421 20.795 25.8882 21.124 25.1133 21.3933C23.5594 21.9332 21.4369 22.2605 19.1104 22.2605C16.7837 22.2605 14.6613 21.9332 13.1074 21.3933C12.3323 21.124 11.6777 20.7951 11.21 20.4109C10.7451 20.0289 10.4201 19.553 10.4199 18.9968C10.4199 18.4404 10.7449 17.9638 11.21 17.5818C11.6777 17.1976 12.3322 16.8687 13.1074 16.5994C14.6613 16.0594 16.7837 15.7322 19.1104 15.7322C21.4369 15.7322 23.5594 16.0594 25.1133 16.5994C25.8882 16.8686 26.5421 17.1977 27.0098 17.5818C27.4748 17.9638 27.8008 18.4404 27.8008 18.9968Z" fill="#BBBBBB"/>
<path d="M13.2654 23.4764C13.2654 23.7552 13.0394 23.9812 12.7606 23.9812C12.4819 23.9812 12.2559 23.7552 12.2559 23.4764C12.2559 23.1977 12.4819 22.9717 12.7606 22.9717C13.0394 22.9717 13.2654 23.1977 13.2654 23.4764Z" fill="#BBBBBB"/>
<path d="M15.3518 24.075C15.3518 24.3537 15.1258 24.5797 14.8471 24.5797C14.5683 24.5797 14.3423 24.3537 14.3423 24.075C14.3423 23.7962 14.5683 23.5702 14.8471 23.5702C15.1258 23.5702 15.3518 23.7962 15.3518 24.075Z" fill="#BBBBBB"/>
<path d="M17.4368 24.4131C17.4368 24.6919 17.2108 24.9179 16.932 24.9179C16.6532 24.9179 16.4272 24.6919 16.4272 24.4131C16.4272 24.1343 16.6532 23.9083 16.932 23.9083C17.2108 23.9083 17.4368 24.1343 17.4368 24.4131Z" fill="#BBBBBB"/>
<path d="M13.2654 28.4015C13.2654 28.6803 13.0394 28.9063 12.7606 28.9063C12.4819 28.9063 12.2559 28.6803 12.2559 28.4015C12.2559 28.1227 12.4819 27.8967 12.7606 27.8967C13.0394 27.8967 13.2654 28.1227 13.2654 28.4015Z" fill="#BBBBBB"/>
<path d="M15.3518 28.9992C15.3518 29.2779 15.1258 29.5039 14.8471 29.5039C14.5683 29.5039 14.3423 29.2779 14.3423 28.9992C14.3423 28.7204 14.5683 28.4944 14.8471 28.4944C15.1258 28.4944 15.3518 28.7204 15.3518 28.9992Z" fill="#BBBBBB"/>
<path d="M17.4368 29.3381C17.4368 29.6169 17.2108 29.8429 16.932 29.8429C16.6532 29.8429 16.4272 29.6169 16.4272 29.3381C16.4272 29.0594 16.6532 28.8334 16.932 28.8334C17.2108 28.8334 17.4368 29.0594 17.4368 29.3381Z" fill="#BBBBBB"/>
<path d="M13.2654 33.4833C13.2654 33.7621 13.0394 33.9881 12.7606 33.9881C12.4819 33.9881 12.2559 33.7621 12.2559 33.4833C12.2559 33.2045 12.4819 32.9785 12.7606 32.9785C13.0394 32.9785 13.2654 33.2045 13.2654 33.4833Z" fill="#BBBBBB"/>
<path d="M15.3518 34.0809C15.3518 34.3597 15.1258 34.5857 14.8471 34.5857C14.5683 34.5857 14.3423 34.3597 14.3423 34.0809C14.3423 33.8022 14.5683 33.5762 14.8471 33.5762C15.1258 33.5762 15.3518 33.8022 15.3518 34.0809Z" fill="#BBBBBB"/>
<path d="M17.4368 34.4199C17.4368 34.6987 17.2108 34.9247 16.932 34.9247C16.6532 34.9247 16.4272 34.6987 16.4272 34.4199C16.4272 34.1412 16.6532 33.9152 16.932 33.9152C17.2108 33.9152 17.4368 34.1412 17.4368 34.4199Z" fill="#BBBBBB"/>
<path d="M18.6582 18V12C18.6582 11.7929 18.8261 11.625 19.0332 11.625C19.2403 11.625 19.4082 11.7929 19.4082 12V18C19.4082 18.2071 19.2403 18.375 19.0332 18.375C18.8261 18.375 18.6582 18.2071 18.6582 18Z" fill="#BBBBBB"/>
<path d="M26.7755 13.5417C26.9824 13.5376 27.153 13.702 27.1574 13.9089C27.1616 14.116 26.9972 14.2874 26.7902 14.2917C24.555 14.3378 22.839 16.1517 22.8742 18.3864C22.8773 18.5933 22.7119 18.7638 22.505 18.7673C22.298 18.7705 22.1275 18.6052 22.1242 18.3981C22.0826 15.7588 24.1192 13.5962 26.7755 13.5417Z" fill="#BBBBBB"/>
<path d="M11.4464 13.5417C14.1026 13.5963 16.1393 15.7589 16.0977 18.3982C16.0944 18.6051 15.9239 18.7705 15.7169 18.7673C15.5099 18.764 15.3446 18.5934 15.3477 18.3864C15.3829 16.1516 13.6661 14.3376 11.4307 14.2917C11.2237 14.2874 11.0593 14.1159 11.0636 13.9089C11.0679 13.7019 11.2393 13.5375 11.4464 13.5417Z" fill="#BBBBBB"/>
<path d="M3.37598 10.4639V15.2295H8.80566V7.89941H5.94141L3.37598 10.4639ZM9.55566 15.3955C9.55556 15.7178 9.29401 15.9795 8.97168 15.9795H3.20996C2.88763 15.9795 2.62608 15.7178 2.62598 15.3955V10.376C2.62601 10.233 2.68368 10.0958 2.78418 9.99512L5.47266 7.30664L5.55469 7.24023C5.64253 7.18163 5.7464 7.14941 5.85352 7.14941H8.97168C9.29408 7.14941 9.55566 7.411 9.55566 7.7334V15.3955Z" fill="#BBBBBB"/>
<path d="M5.36513 10.4771H3.11891C3.01405 10.4771 2.96156 10.3503 3.03566 10.2762L5.75266 7.55913C5.82683 7.48496 5.95356 7.53752 5.95356 7.64238V9.88867C5.95363 10.2137 5.69014 10.4771 5.36513 10.4771Z" fill="#BBBBBB"/>
<path d="M5.57808 8.26363L3.73921 10.1025H5.36519C5.48311 10.1024 5.57811 10.0064 5.57808 9.88863V8.26363ZM6.32808 9.88863C6.32815 10.4208 5.89716 10.8524 5.36519 10.8525H3.1191C2.68019 10.8525 2.4601 10.3211 2.77046 10.0107L5.48726 7.2939L5.54781 7.24214C5.86206 7.01159 6.32808 7.23122 6.32808 7.64253V9.88863Z" fill="#BBBBBB"/>
<path d="M32 7.625C32.8012 7.625 33.5522 7.84158 34.1982 8.21777C34.3771 8.32194 34.4379 8.55155 34.334 8.73047C34.2298 8.90935 34.0002 8.97025 33.8213 8.86621C33.3881 8.61391 32.8981 8.45048 32.375 8.39648V11.625H35.6035C35.5482 11.0884 35.3785 10.5866 35.1152 10.1455C35.0091 9.96766 35.0673 9.73797 35.2451 9.63184C35.4229 9.52588 35.6527 9.58394 35.7588 9.76172C36.1496 10.4167 36.375 11.1823 36.375 12C36.375 12.2071 36.2071 12.375 36 12.375H32C31.7929 12.375 31.625 12.2071 31.625 12V8C31.625 7.79289 31.7929 7.625 32 7.625Z" fill="#BBBBBB"/>
<path d="M35.9995 11.6182C36.2066 11.6182 36.3745 11.7861 36.3745 11.9932C36.3745 14.4058 34.4153 16.3603 31.9995 16.3604C30.7917 16.3604 29.6973 15.8717 28.9058 15.082C28.8353 15.0117 28.7955 14.9159 28.7954 14.8164C28.7954 14.7168 28.8353 14.6211 28.9058 14.5508L31.7349 11.7275L31.7915 11.6807C31.8526 11.64 31.9251 11.6182 31.9995 11.6182H35.9995ZM29.7153 14.8018C30.339 15.3073 31.1333 15.6104 31.9995 15.6104C33.8756 15.6103 35.4169 14.1891 35.605 12.3682H32.1548L29.7153 14.8018Z" fill="#BBBBBB"/>
<path d="M32.0006 8C29.7911 8 28 9.78749 28 11.9924C28 13.0948 28.4478 14.0929 29.1717 14.8154L32.0006 11.9924V8Z" fill="#BBBBBB"/>
<path d="M32.001 7.625C32.2079 7.62518 32.376 7.79301 32.376 8V11.9922C32.376 12.0918 32.3361 12.1875 32.2656 12.2578L29.4365 15.0811C29.2902 15.2269 29.0536 15.2268 28.9072 15.0811C28.1158 14.2912 27.625 13.1983 27.625 11.9922C27.6251 9.57955 29.5851 7.625 32.001 7.625ZM28.375 11.9922C28.375 12.8562 28.6787 13.6491 29.1855 14.2715L31.626 11.835V8.39355C29.7991 8.58062 28.3751 10.1213 28.375 11.9922Z" fill="#BBBBBB"/>
<path d="M15.6582 5V4C15.6582 3.24061 16.2738 2.625 17.0332 2.625H19.0332C19.2403 2.625 19.4082 2.79289 19.4082 3C19.4082 3.20711 19.2403 3.375 19.0332 3.375H17.0332C16.688 3.375 16.4082 3.65482 16.4082 4V5C16.4082 5.20711 16.2403 5.375 16.0332 5.375C15.8261 5.375 15.6582 5.20711 15.6582 5Z" fill="#BBBBBB"/>
<path d="M23.6582 9V4C23.6582 3.65482 23.3784 3.375 23.0332 3.375H21C20.7929 3.375 20.625 3.20711 20.625 3C20.625 2.79289 20.7929 2.625 21 2.625H23.0332C23.7926 2.625 24.4082 3.24061 24.4082 4V9C24.4082 9.8096 23.6677 10.375 22.875 10.375C22.6681 10.3748 22.5 10.207 22.5 10C22.5 9.79301 22.6681 9.6252 22.875 9.625C23.3608 9.625 23.6582 9.29572 23.6582 9Z" fill="#BBBBBB"/>
<path d="M23.0332 10H16.0331C15.4809 10 15.0332 9.57494 15.0332 9.05055V5H18.5092L19.3848 5.94961H22.0332V9.05044C22.0332 9.57489 22.4809 10 23.0332 10Z" fill="#BBBBBB"/>
<path d="M21.6582 6.32422H19.3848C19.2802 6.3242 19.1803 6.28091 19.1094 6.2041L18.3447 5.375H15.4082V9.05078C15.4083 9.34989 15.6696 9.625 16.0332 9.625H21.7949C21.7085 9.4525 21.6583 9.25872 21.6582 9.05078V6.32422ZM22.4082 9.05078C22.4084 9.34993 22.6696 9.625 23.0332 9.625C23.2403 9.625 23.4082 9.79289 23.4082 10C23.4082 10.2071 23.2403 10.375 23.0332 10.375H16.0332C15.2925 10.375 14.6583 9.80025 14.6582 9.05078V5C14.6582 4.79289 14.8261 4.625 15.0332 4.625H18.5088C18.6135 4.625 18.7142 4.6691 18.7852 4.74609L19.5488 5.57422H22.0332C22.2402 5.57422 22.408 5.74229 22.4082 5.94922V9.05078Z" fill="#BBBBBB"/>
</svg>
