<svg width="40" height="40" viewBox="0 0 40 40" fill="none" xmlns="http://www.w3.org/2000/svg">
<path d="M27.0511 34.1104V29.0723C27.0511 28.8652 27.219 28.6973 27.4261 28.6973C27.633 28.6975 27.8011 28.8653 27.8011 29.0723V34.1104C27.8011 34.6667 27.4751 35.1424 27.0101 35.5244C26.5425 35.9086 25.8887 36.2385 25.1136 36.5078C23.5598 37.0477 21.4372 37.375 19.1107 37.375C17.8862 37.375 16.7202 37.2838 15.6654 37.1201C15.4608 37.0883 15.3211 36.897 15.3529 36.6924C15.3846 36.4877 15.576 36.3471 15.7806 36.3789C16.7951 36.5364 17.9224 36.625 19.1107 36.625C21.3764 36.625 23.412 36.3046 24.8675 35.7988C25.5969 35.5454 26.1608 35.2524 26.5345 34.9453C26.9109 34.6361 27.0511 34.3518 27.0511 34.1104Z" fill="#8C8C8C"/>
<path d="M10.4199 34.1104V29.0723C10.4199 28.8652 10.5878 28.6973 10.7949 28.6973C11.002 28.6973 11.1699 28.8652 11.1699 29.0723V34.1104C11.1699 34.3694 11.3321 34.6785 11.7705 35.0117C12.2034 35.3408 12.8519 35.6487 13.6807 35.9062C13.8784 35.9677 13.9891 36.1782 13.9277 36.376C13.8663 36.5738 13.6558 36.6845 13.458 36.623C12.5841 36.3515 11.845 36.0102 11.3164 35.6084C10.7934 35.2108 10.4199 34.7073 10.4199 34.1104Z" fill="#8C8C8C"/>
<path d="M10.4199 29.0732V23.9756C10.4199 23.7685 10.5878 23.6006 10.7949 23.6006C11.002 23.6006 11.1699 23.7685 11.1699 23.9756V29.0732C11.1699 29.3147 11.31 29.5989 11.6865 29.9082C12.0604 30.2153 12.6239 30.5092 13.3535 30.7627C14.8091 31.2685 16.8447 31.5879 19.1104 31.5879C21.3761 31.5879 23.4116 31.2685 24.8672 30.7627C25.5967 30.5092 26.1603 30.2153 26.5342 29.9082C26.9105 29.599 27.0508 29.3147 27.0508 29.0732V23.9756C27.0508 23.7685 27.2187 23.6006 27.4258 23.6006C27.6328 23.6007 27.8008 23.7686 27.8008 23.9756V29.0732C27.8008 29.6297 27.4748 30.1062 27.0098 30.4883C26.5421 30.8723 25.8882 31.2014 25.1133 31.4707C23.5594 32.0106 21.4369 32.3379 19.1104 32.3379C16.7838 32.3379 14.6613 32.0106 13.1074 31.4707C12.3322 31.2013 11.6777 30.8725 11.21 30.4883C10.7449 30.1062 10.4199 29.6297 10.4199 29.0732Z" fill="#8C8C8C"/>
<path d="M10.4199 24.0342V18.9961C10.4199 18.789 10.5878 18.6211 10.7949 18.6211C11.002 18.6211 11.1699 18.789 11.1699 18.9961V24.0342C11.1699 24.2756 11.31 24.5599 11.6865 24.8691C12.0604 25.1762 12.624 25.4692 13.3535 25.7227C14.8092 26.2285 16.8446 26.5488 19.1104 26.5488C21.3761 26.5488 23.4116 26.2284 24.8672 25.7227C25.5966 25.4692 26.1604 25.1762 26.5342 24.8691C26.9106 24.5599 27.0508 24.2756 27.0508 24.0342V18.9961C27.0508 18.789 27.2187 18.6211 27.4258 18.6211C27.6328 18.6212 27.8008 18.7891 27.8008 18.9961V24.0342C27.8008 24.5906 27.4748 25.0662 27.0098 25.4482C26.5421 25.8324 25.8884 26.1623 25.1133 26.4316C23.5594 26.9716 21.4369 27.2988 19.1104 27.2988C16.7838 27.2988 14.6613 26.9715 13.1074 26.4316C12.3322 26.1623 11.6777 25.8325 11.21 25.4482C10.7451 25.0662 10.4199 24.5904 10.4199 24.0342Z" fill="#8C8C8C"/>
<path d="M27.0508 18.9971C27.0508 18.7557 26.9105 18.4713 26.5342 18.1621C26.1604 17.855 25.5967 17.5611 24.8672 17.3076C23.4116 16.8018 21.3761 16.4824 19.1104 16.4824C16.8446 16.4824 14.8091 16.8018 13.3535 17.3076C12.6239 17.5611 12.0604 17.855 11.6865 18.1621C11.3101 18.4714 11.1699 18.7556 11.1699 18.9971C11.1701 19.2384 11.3102 19.5229 11.6865 19.832C12.0604 20.1391 12.6241 20.4321 13.3535 20.6855C14.8092 21.1913 16.8446 21.5107 19.1104 21.5107C21.3761 21.5107 23.4116 21.1913 24.8672 20.6855C25.5966 20.4321 26.1604 20.1391 26.5342 19.832C26.9105 19.5229 27.0506 19.2384 27.0508 18.9971ZM27.8008 18.9971C27.8006 19.5533 27.4747 20.0292 27.0098 20.4111C26.5421 20.7952 25.8882 21.1243 25.1133 21.3936C23.5594 21.9335 21.4369 22.2607 19.1104 22.2607C16.7837 22.2607 14.6613 21.9335 13.1074 21.3936C12.3323 21.1242 11.6777 20.7953 11.21 20.4111C10.7451 20.0292 10.4201 19.5533 10.4199 18.9971C10.4199 18.4407 10.7449 17.9641 11.21 17.582C11.6777 17.1978 12.3322 16.869 13.1074 16.5996C14.6613 16.0597 16.7837 15.7324 19.1104 15.7324C21.4369 15.7324 23.5594 16.0597 25.1133 16.5996C25.8882 16.8689 26.5421 17.198 27.0098 17.582C27.4748 17.9641 27.8008 18.4406 27.8008 18.9971Z" fill="#8C8C8C"/>
<path d="M13.2654 23.4764C13.2654 23.7552 13.0394 23.9812 12.7606 23.9812C12.4819 23.9812 12.2559 23.7552 12.2559 23.4764C12.2559 23.1977 12.4819 22.9717 12.7606 22.9717C13.0394 22.9717 13.2654 23.1977 13.2654 23.4764Z" fill="#8C8C8C"/>
<path d="M15.3518 24.0748C15.3518 24.3536 15.1258 24.5796 14.8471 24.5796C14.5683 24.5796 14.3423 24.3536 14.3423 24.0748C14.3423 23.7961 14.5683 23.5701 14.8471 23.5701C15.1258 23.5701 15.3518 23.7961 15.3518 24.0748Z" fill="#8C8C8C"/>
<path d="M17.4368 24.4132C17.4368 24.692 17.2108 24.918 16.932 24.918C16.6532 24.918 16.4272 24.692 16.4272 24.4132C16.4272 24.1344 16.6532 23.9084 16.932 23.9084C17.2108 23.9084 17.4368 24.1344 17.4368 24.4132Z" fill="#8C8C8C"/>
<path d="M13.2654 28.4013C13.2654 28.68 13.0394 28.906 12.7606 28.906C12.4819 28.906 12.2559 28.68 12.2559 28.4013C12.2559 28.1225 12.4819 27.8965 12.7606 27.8965C13.0394 27.8965 13.2654 28.1225 13.2654 28.4013Z" fill="#8C8C8C"/>
<path d="M15.3518 28.9989C15.3518 29.2777 15.1258 29.5037 14.8471 29.5037C14.5683 29.5037 14.3423 29.2777 14.3423 28.9989C14.3423 28.7201 14.5683 28.4941 14.8471 28.4941C15.1258 28.4941 15.3518 28.7201 15.3518 28.9989Z" fill="#8C8C8C"/>
<path d="M17.4368 29.338C17.4368 29.6168 17.2108 29.8428 16.932 29.8428C16.6532 29.8428 16.4272 29.6168 16.4272 29.338C16.4272 29.0592 16.6532 28.8333 16.932 28.8333C17.2108 28.8333 17.4368 29.0592 17.4368 29.338Z" fill="#8C8C8C"/>
<path d="M13.2654 33.4833C13.2654 33.7621 13.0394 33.9881 12.7606 33.9881C12.4819 33.9881 12.2559 33.7621 12.2559 33.4833C12.2559 33.2045 12.4819 32.9785 12.7606 32.9785C13.0394 32.9785 13.2654 33.2045 13.2654 33.4833Z" fill="#8C8C8C"/>
<path d="M15.3518 34.0809C15.3518 34.3597 15.1258 34.5857 14.8471 34.5857C14.5683 34.5857 14.3423 34.3597 14.3423 34.0809C14.3423 33.8022 14.5683 33.5762 14.8471 33.5762C15.1258 33.5762 15.3518 33.8022 15.3518 34.0809Z" fill="#8C8C8C"/>
<path d="M17.4368 34.4201C17.4368 34.6988 17.2108 34.9248 16.932 34.9248C16.6532 34.9248 16.4272 34.6988 16.4272 34.4201C16.4272 34.1413 16.6532 33.9153 16.932 33.9153C17.2108 33.9153 17.4368 34.1413 17.4368 34.4201Z" fill="#8C8C8C"/>
<path d="M18.6582 18V12C18.6582 11.7929 18.8261 11.625 19.0332 11.625C19.2403 11.625 19.4082 11.7929 19.4082 12V18C19.4082 18.2071 19.2403 18.375 19.0332 18.375C18.8261 18.375 18.6582 18.2071 18.6582 18Z" fill="#8C8C8C"/>
<path d="M26.7755 13.5416C26.9824 13.5375 27.153 13.7019 27.1574 13.9088C27.1616 14.1158 26.9972 14.2873 26.7902 14.2916C24.555 14.3377 22.839 16.1516 22.8742 18.3863C22.8773 18.5932 22.7119 18.7637 22.505 18.7672C22.298 18.7704 22.1275 18.605 22.1242 18.398C22.0826 15.7587 24.1192 13.5961 26.7755 13.5416Z" fill="#8C8C8C"/>
<path d="M11.4464 13.5416C14.1026 13.5962 16.1393 15.7587 16.0977 18.398C16.0944 18.605 15.9239 18.7704 15.7169 18.7672C15.5099 18.7639 15.3446 18.5933 15.3477 18.3863C15.3829 16.1515 13.6661 14.3375 11.4307 14.2916C11.2237 14.2873 11.0593 14.1158 11.0636 13.9088C11.0679 13.7018 11.2393 13.5373 11.4464 13.5416Z" fill="#8C8C8C"/>
<path d="M3.37598 10.4639V15.2295H8.80566V7.89941H5.94141L3.37598 10.4639ZM9.55566 15.3955C9.55556 15.7178 9.29401 15.9795 8.97168 15.9795H3.20996C2.88763 15.9795 2.62608 15.7178 2.62598 15.3955V10.376C2.62601 10.233 2.68368 10.0958 2.78418 9.99512L5.47266 7.30664L5.55469 7.24023C5.64253 7.18163 5.7464 7.14941 5.85352 7.14941H8.97168C9.29408 7.14941 9.55566 7.411 9.55566 7.7334V15.3955Z" fill="#8C8C8C"/>
<path d="M5.36513 10.4771H3.11891C3.01405 10.4771 2.96156 10.3503 3.03566 10.2762L5.75266 7.55913C5.82683 7.48496 5.95356 7.53752 5.95356 7.64238V9.88867C5.95363 10.2137 5.69014 10.4771 5.36513 10.4771Z" fill="#8C8C8C"/>
<path d="M5.57808 8.26363L3.73921 10.1025H5.36519C5.48311 10.1024 5.57811 10.0064 5.57808 9.88863V8.26363ZM6.32808 9.88863C6.32815 10.4208 5.89716 10.8524 5.36519 10.8525H3.1191C2.68019 10.8525 2.4601 10.3211 2.77046 10.0107L5.48726 7.2939L5.54781 7.24214C5.86206 7.01159 6.32808 7.23122 6.32808 7.64253V9.88863Z" fill="#8C8C8C"/>
<path d="M32 7.625C32.8012 7.625 33.5522 7.84158 34.1982 8.21777C34.3771 8.32194 34.4379 8.55155 34.334 8.73047C34.2298 8.90935 34.0002 8.97025 33.8213 8.86621C33.3881 8.61391 32.8981 8.45048 32.375 8.39648V11.625H35.6035C35.5482 11.0884 35.3785 10.5866 35.1152 10.1455C35.0091 9.96766 35.0673 9.73797 35.2451 9.63184C35.4229 9.52588 35.6527 9.58394 35.7588 9.76172C36.1496 10.4167 36.375 11.1823 36.375 12C36.375 12.2071 36.2071 12.375 36 12.375H32C31.7929 12.375 31.625 12.2071 31.625 12V8C31.625 7.79289 31.7929 7.625 32 7.625Z" fill="#8C8C8C"/>
<path d="M35.9995 11.6182C36.2066 11.6182 36.3745 11.7861 36.3745 11.9932C36.3745 14.4058 34.4153 16.3603 31.9995 16.3604C30.7917 16.3604 29.6973 15.8717 28.9058 15.082C28.8353 15.0117 28.7955 14.9159 28.7954 14.8164C28.7954 14.7168 28.8353 14.6211 28.9058 14.5508L31.7349 11.7275L31.7915 11.6807C31.8526 11.64 31.9251 11.6182 31.9995 11.6182H35.9995ZM29.7153 14.8018C30.339 15.3073 31.1333 15.6104 31.9995 15.6104C33.8756 15.6103 35.4169 14.1891 35.605 12.3682H32.1548L29.7153 14.8018Z" fill="#8C8C8C"/>
<path d="M32.0006 8C29.7911 8 28 9.78749 28 11.9924C28 13.0948 28.4478 14.0929 29.1717 14.8154L32.0006 11.9924V8Z" fill="#8C8C8C"/>
<path d="M32.001 7.625C32.2079 7.62518 32.376 7.79301 32.376 8V11.9922C32.376 12.0918 32.3361 12.1875 32.2656 12.2578L29.4365 15.0811C29.2902 15.2269 29.0536 15.2268 28.9072 15.0811C28.1158 14.2912 27.625 13.1983 27.625 11.9922C27.6251 9.57955 29.5851 7.625 32.001 7.625ZM28.375 11.9922C28.375 12.8562 28.6787 13.6491 29.1855 14.2715L31.626 11.835V8.39355C29.7991 8.58062 28.3751 10.1213 28.375 11.9922Z" fill="#8C8C8C"/>
<path d="M15.6582 5V4C15.6582 3.24061 16.2738 2.625 17.0332 2.625H19.0332C19.2403 2.625 19.4082 2.79289 19.4082 3C19.4082 3.20711 19.2403 3.375 19.0332 3.375H17.0332C16.688 3.375 16.4082 3.65482 16.4082 4V5C16.4082 5.20711 16.2403 5.375 16.0332 5.375C15.8261 5.375 15.6582 5.20711 15.6582 5Z" fill="#8C8C8C"/>
<path d="M23.6582 9V4C23.6582 3.65482 23.3784 3.375 23.0332 3.375H21C20.7929 3.375 20.625 3.20711 20.625 3C20.625 2.79289 20.7929 2.625 21 2.625H23.0332C23.7926 2.625 24.4082 3.24061 24.4082 4V9C24.4082 9.8096 23.6677 10.375 22.875 10.375C22.6681 10.3748 22.5 10.207 22.5 10C22.5 9.79301 22.6681 9.6252 22.875 9.625C23.3608 9.625 23.6582 9.29572 23.6582 9Z" fill="#8C8C8C"/>
<path d="M23.0332 10H16.0331C15.4809 10 15.0332 9.57494 15.0332 9.05055V5H18.5092L19.3848 5.94961H22.0332V9.05044C22.0332 9.57489 22.4809 10 23.0332 10Z" fill="#8C8C8C"/>
<path d="M21.6582 6.32422H19.3848C19.2802 6.3242 19.1803 6.28091 19.1094 6.2041L18.3447 5.375H15.4082V9.05078C15.4083 9.34989 15.6696 9.625 16.0332 9.625H21.7949C21.7085 9.4525 21.6583 9.25872 21.6582 9.05078V6.32422ZM22.4082 9.05078C22.4084 9.34993 22.6696 9.625 23.0332 9.625C23.2403 9.625 23.4082 9.79289 23.4082 10C23.4082 10.2071 23.2403 10.375 23.0332 10.375H16.0332C15.2925 10.375 14.6583 9.80025 14.6582 9.05078V5C14.6582 4.79289 14.8261 4.625 15.0332 4.625H18.5088C18.6135 4.625 18.7142 4.6691 18.7852 4.74609L19.5488 5.57422H22.0332C22.2402 5.57422 22.408 5.74229 22.4082 5.94922V9.05078Z" fill="#8C8C8C"/>
</svg>
