<svg width="40" height="40" viewBox="0 0 40 40" fill="none" xmlns="http://www.w3.org/2000/svg">
<g clip-path="url(#clip0_81541_7146)">
<path d="M34.4849 28.8206C34.4849 29.8171 33.6766 30.6251 32.6802 30.6252H5.18018C4.18362 30.6252 3.37549 29.8172 3.37549 28.8206V16.4885C3.37549 16.2814 3.2076 16.1135 3.00049 16.1135C2.79338 16.1135 2.62549 16.2814 2.62549 16.4885V28.8206C2.62549 30.2314 3.76942 31.3752 5.18018 31.3752H32.6802C34.0908 31.3751 35.2349 30.2313 35.2349 28.8206V11.1282C35.2347 10.9213 35.0667 10.7534 34.8599 10.7532H3.00049C2.79347 10.7532 2.62564 10.9212 2.62549 11.1282V14.4133C2.62553 14.6204 2.79341 14.7883 3.00049 14.7883C3.20757 14.7883 3.37545 14.6204 3.37549 14.4133V11.5032H34.4849V28.8206Z" fill="#8C8C8C"/>
<path d="M34.4849 8.18018V10.7534H3.37549V8.18018C3.37549 7.18356 4.18356 6.37549 5.18018 6.37549H29.1538C29.3608 6.37549 29.5287 6.20747 29.5288 6.00049C29.5288 5.79338 29.3609 5.62549 29.1538 5.62549H5.18018C3.76935 5.62549 2.62549 6.76935 2.62549 8.18018V11.1284C2.62549 11.3355 2.79338 11.5034 3.00049 11.5034H34.8599C35.0668 11.5032 35.2349 11.3354 35.2349 11.1284V8.18018C35.2349 6.76941 34.0908 5.6256 32.6802 5.62549H31.2524C31.0456 5.62575 30.8774 5.79354 30.8774 6.00049C30.8776 6.20731 31.0456 6.37523 31.2524 6.37549H32.6802C33.6766 6.3756 34.4849 7.18364 34.4849 8.18018Z" fill="#8C8C8C"/>
<path d="M7.64772 8.54345C7.64772 9.10986 7.18855 9.56909 6.62208 9.56909C6.0556 9.56909 5.59644 9.10986 5.59644 8.54345C5.59644 7.97698 6.0556 7.51781 6.62208 7.51781C7.18855 7.51781 7.64772 7.97698 7.64772 8.54345Z" fill="#8C8C8C"/>
<path d="M11.3018 8.54345C11.3018 9.10986 10.8426 9.56909 10.2761 9.56909C9.70965 9.56909 9.25049 9.10986 9.25049 8.54345C9.25049 7.97698 9.70965 7.51781 10.2761 7.51781C10.8426 7.51781 11.3018 7.97698 11.3018 8.54345Z" fill="#8C8C8C"/>
<path d="M14.9556 8.54345C14.9556 9.10986 14.4964 9.56909 13.9299 9.56909C13.3635 9.56909 12.9043 9.10986 12.9043 8.54345C12.9043 7.97698 13.3635 7.51781 13.9299 7.51781C14.4964 7.51781 14.9556 7.97698 14.9556 8.54345Z" fill="#8C8C8C"/>
<path d="M22.927 23.8311L26.5334 27.4375C26.909 27.8132 26.909 28.4221 26.5334 28.7971C26.1584 29.1728 25.5494 29.1728 25.1738 28.7971L21.595 25.2189" fill="#8C8C8C"/>
<path d="M24.9084 29.0622C25.4303 29.5842 26.2774 29.5846 26.799 29.0622H26.7981C27.3204 28.5407 27.3206 27.6945 26.799 27.1725L23.1916 23.5661C23.0452 23.4198 22.8078 23.4197 22.6613 23.5661C22.5153 23.7125 22.5151 23.95 22.6613 24.0964L26.2678 27.7028C26.4971 27.9321 26.4975 28.3035 26.2688 28.5319H26.2678C26.068 28.732 25.7592 28.7573 25.5315 28.6071L25.4387 28.5319L21.8606 24.9538C21.7141 24.8073 21.4758 24.8073 21.3293 24.9538C21.1832 25.1002 21.1832 25.3377 21.3293 25.4841L24.9084 29.0622Z" fill="#8C8C8C"/>
<path d="M21.8882 19.9106C21.8881 22.3545 19.8994 24.3433 17.4556 24.3433C15.0118 24.3432 13.023 22.3544 13.0229 19.9106C13.0229 17.4668 15.0117 15.4781 17.4556 15.478C19.8994 15.478 21.8882 17.4668 21.8882 19.9106ZM22.6382 19.9106C22.6382 17.0526 20.3136 14.728 17.4556 14.728C14.5975 14.7281 12.2729 17.0526 12.2729 19.9106C12.273 22.7687 14.5976 25.0932 17.4556 25.0933C20.3136 25.0933 22.6381 22.7687 22.6382 19.9106Z" fill="#8C8C8C"/>
<path d="M10.3499 19.9109C10.3499 22.0349 11.2825 23.9414 12.759 25.2429C12.9144 25.3799 13.1514 25.3651 13.2883 25.2097C13.4253 25.0543 13.4105 24.8174 13.2551 24.6804C11.9331 23.5152 11.0999 21.8106 11.0999 19.9109C11.0999 16.4008 13.9453 13.5546 17.4553 13.5544C20.9656 13.5544 23.8118 16.4007 23.8118 19.9109C23.8116 23.421 20.9655 26.2664 17.4553 26.2664C16.5383 26.2663 15.6676 26.0722 14.8811 25.7234C14.6919 25.6394 14.47 25.7246 14.386 25.9138C14.3021 26.103 14.3873 26.3248 14.5764 26.4089C15.4568 26.7995 16.4315 27.0163 17.4553 27.0164C21.3797 27.0164 24.5616 23.8352 24.5618 19.9109C24.5618 15.9865 21.3798 12.8044 17.4553 12.8044C13.531 12.8046 10.3499 15.9866 10.3499 19.9109Z" fill="#8C8C8C"/>
<path d="M7.83237 34.0002C6.82038 34.0002 6 33.1799 6 32.1679L6 31.0002L33.2585 31.0002C34.2705 31.0002 35.0909 30.1799 35.0909 29.1679L35.0909 8.00025L36.1676 8.00025C37.1796 8.00024 38 8.82063 38 9.83262L38 32.1679C38 33.1799 37.1796 34.0002 36.1676 34.0002L7.83237 34.0002Z" fill="#8C8C8C"/>
<path d="M36.168 34.3577L7.83203 34.3577C6.62265 34.3575 5.64276 33.3776 5.64258 32.1682L5.64258 30.6428L33.2588 30.6428C34.0729 30.6427 34.7332 29.9823 34.7334 29.1682L34.7334 7.64282L36.168 7.64282C37.3773 7.643 38.3572 8.6229 38.3574 9.83227L38.3574 32.1682C38.3572 33.3776 37.3773 34.3575 36.168 34.3577ZM36.168 33.6428C36.982 33.6426 37.6424 32.9823 37.6426 32.1682L37.6426 9.83227C37.6424 9.01821 36.982 8.35785 36.168 8.35766L35.4492 8.35766L35.4492 29.1682C35.449 30.3776 34.4682 31.3575 33.2588 31.3577L6.35742 31.3577L6.35742 32.1682C6.3576 32.9823 7.01797 33.6426 7.83203 33.6428L36.168 33.6428Z" fill="#8C8C8C"/>
<path d="M32 16.0002C32 17.1048 31.1046 18.0002 30 18.0002C28.8954 18.0002 28 17.1048 28 16.0002C28 14.8957 28.8954 14.0002 30 14.0002C31.1046 14.0002 32 14.8957 32 16.0002Z" fill="#8C8C8C"/>
</g>
<defs>
<clipPath id="clip0_81541_7146">
<rect width="40" height="40" fill="white"/>
</clipPath>
</defs>
</svg>
