<svg width="40" height="40" viewBox="0 0 40 40" fill="none" xmlns="http://www.w3.org/2000/svg">
<path d="M7.84155 31.0374V31.6418C7.84167 33.1515 9.06549 34.3751 10.575 34.3752H23.8552C24.0623 34.3752 24.2302 34.2074 24.2302 34.0002C24.2302 33.7931 24.0623 33.6252 23.8552 33.6252H10.575C9.47967 33.6251 8.59167 32.7372 8.59155 31.6418V31.0374C8.59155 30.9188 8.68787 30.8225 8.8064 30.8225H36.9324C37.051 30.8225 37.1472 30.9188 37.1472 31.0374V31.6418C37.1471 32.7373 36.2593 33.6252 35.1638 33.6252H25.6248C25.4176 33.6252 25.2498 33.7931 25.2498 34.0002C25.2498 34.2074 25.4176 34.3752 25.6248 34.3752H35.1638C36.6735 34.3752 37.8971 33.1515 37.8972 31.6418V31.0374C37.8972 30.5046 37.4652 30.0725 36.9324 30.0725H8.8064C8.27371 30.0725 7.84155 30.5046 7.84155 31.0374Z" fill="#8C8C8C"/>
<path d="M28.6812 30.7162V31.706C28.6812 32.0317 28.4172 32.2957 28.0915 32.2957H17.6453C17.3197 32.2957 17.0557 32.0317 17.0557 31.706V30.7162" fill="#8C8C8C"/>
<path d="M28.3066 30.7166V31.7058C28.3066 31.8243 28.2102 31.9205 28.0918 31.9207H17.6455C17.5269 31.9207 17.4307 31.8244 17.4307 31.7058V30.7166C17.4307 30.5094 17.2628 30.3416 17.0557 30.3416C16.8486 30.3416 16.6807 30.5094 16.6807 30.7166V31.7058C16.6807 32.2386 17.1127 32.6707 17.6455 32.6707H28.0918C28.6245 32.6705 29.0566 32.2385 29.0566 31.7058V30.7166C29.0566 30.5096 28.8885 30.3418 28.6816 30.3416C28.4745 30.3416 28.3066 30.5094 28.3066 30.7166Z" fill="#8C8C8C"/>
<path d="M35.5698 14.2834V30.1936C35.5698 30.4007 35.7377 30.5686 35.9448 30.5686C36.1518 30.5685 36.3198 30.4006 36.3198 30.1936V14.2834C36.3198 13.425 35.6236 12.7288 34.7651 12.7288H16.0747C15.8677 12.7288 15.6998 12.8968 15.6997 13.1038C15.6997 13.3109 15.8676 13.4788 16.0747 13.4788H34.7651C35.2094 13.4788 35.5698 13.8392 35.5698 14.2834Z" fill="#8C8C8C"/>
<path d="M9.41431 14.2832V30.1934C9.41431 30.4005 9.5822 30.5684 9.78931 30.5684C9.99641 30.5684 10.1643 30.4005 10.1643 30.1934V14.2832C10.1643 13.839 10.5248 13.4785 10.969 13.4785H14.3059C14.513 13.4785 14.6809 13.3106 14.6809 13.1035C14.6808 12.8965 14.5129 12.7285 14.3059 12.7285H10.969C10.1106 12.7285 9.41431 13.4248 9.41431 14.2832Z" fill="#8C8C8C"/>
<path d="M12.4055 15.7192H33.3293V27.8315H12.4055V15.7192ZM34.0793 15.6978C34.0792 15.2954 33.7532 14.9693 33.3508 14.9692H12.384C11.9818 14.9694 11.6556 15.2954 11.6555 15.6978V27.853C11.6557 28.2554 11.9818 28.5814 12.384 28.5815H33.3508C33.7532 28.5815 34.0792 28.2554 34.0793 27.853V15.6978Z" fill="#8C8C8C"/>
<path d="M24.895 18.905V28.0945C24.895 28.3016 25.0629 28.4695 25.27 28.4695C25.4769 28.4692 25.645 28.3014 25.645 28.0945V18.905C25.6449 18.2096 25.0807 17.6464 24.3853 17.6462H12.2896C12.0824 17.6462 11.9146 17.8141 11.9146 18.0212C11.9148 18.2281 12.0826 18.3962 12.2896 18.3962H24.3853C24.6664 18.3964 24.8949 18.6238 24.895 18.905Z" fill="#8C8C8C"/>
<path d="M25.0244 21.2009C25.2314 21.2008 25.3994 21.0329 25.3994 20.8259C25.3994 20.6189 25.2314 20.4511 25.0244 20.4509H12.209C12.0019 20.4509 11.834 20.6188 11.834 20.8259C11.834 21.033 12.0019 21.2009 12.209 21.2009H25.0244Z" fill="#8C8C8C"/>
<path d="M22.3259 26.364H20.4617C20.1361 26.364 19.8721 26.1 19.8721 25.7744V23.3794C19.8721 23.0537 20.1361 22.7898 20.4617 22.7898H22.3259C22.6515 22.7898 22.9155 23.0537 22.9155 23.3794V25.7744C22.9155 26.1 22.6515 26.364 22.3259 26.364Z" fill="#8C8C8C"/>
<path d="M22.54 25.7742C22.54 25.8926 22.4446 25.9888 22.3262 25.989H20.4619C20.3434 25.989 20.2471 25.8927 20.2471 25.7742V23.3796C20.2471 23.2611 20.3434 23.1648 20.4619 23.1648H22.3262C22.4446 23.165 22.54 23.2612 22.54 23.3796V25.7742ZM23.29 23.3796C23.29 22.8469 22.8587 22.415 22.3262 22.4148H20.4619C19.9291 22.4148 19.4971 22.8469 19.4971 23.3796V25.7742C19.4971 26.3069 19.9291 26.739 20.4619 26.739H22.3262C22.8587 26.7388 23.29 26.3069 23.29 25.7742V23.3796Z" fill="#8C8C8C"/>
<path d="M17.2368 23.259C17.4438 23.2589 17.6118 23.091 17.6118 22.884C17.6118 22.677 17.4438 22.5092 17.2368 22.509H14.3062C14.099 22.509 13.9312 22.6769 13.9312 22.884C13.9312 23.0911 14.099 23.259 14.3062 23.259H17.2368Z" fill="#8C8C8C"/>
<path d="M17.2368 24.9514C17.4438 24.9512 17.6118 24.7834 17.6118 24.5764C17.6118 24.3694 17.4438 24.2016 17.2368 24.2014H14.3062C14.099 24.2014 13.9312 24.3693 13.9312 24.5764C13.9312 24.7835 14.099 24.9514 14.3062 24.9514H17.2368Z" fill="#8C8C8C"/>
<path d="M17.2368 26.6462C17.4438 26.6461 17.6118 26.4782 17.6118 26.2712C17.6118 26.0642 17.4438 25.8964 17.2368 25.8962H14.3062C14.099 25.8962 13.9312 26.0641 13.9312 26.2712C13.9312 26.4783 14.099 26.6462 14.3062 26.6462H17.2368Z" fill="#8C8C8C"/>
<path d="M30.8411 19.7971C31.048 19.7969 31.2161 19.6291 31.2161 19.4221C31.2161 19.2151 31.048 19.0473 30.8411 19.0471H27.9553C27.7482 19.0471 27.5803 19.215 27.5803 19.4221C27.5803 19.6292 27.7482 19.7971 27.9553 19.7971H30.8411Z" fill="#8C8C8C"/>
<path d="M29.7578 20.7044C29.9042 20.8508 30.1426 20.8508 30.289 20.7044L31.3037 19.6887C31.4498 19.5423 31.45 19.3048 31.3037 19.1585L30.289 18.1438C30.1426 17.9974 29.9042 17.9974 29.7578 18.1438C29.6117 18.2902 29.6117 18.5277 29.7578 18.6741L30.5078 19.4241L29.7578 20.1731C29.6113 20.3196 29.6113 20.5579 29.7578 20.7044Z" fill="#8C8C8C"/>
<path d="M30.8408 24.9514C31.0478 24.9512 31.2158 24.7834 31.2158 24.5764C31.2158 24.3694 31.0478 24.2016 30.8408 24.2014H27.9551C27.748 24.2014 27.5801 24.3693 27.5801 24.5764C27.5801 24.7835 27.748 24.9514 27.9551 24.9514H30.8408Z" fill="#8C8C8C"/>
<path d="M29.7578 25.8587C29.9042 26.0051 30.1426 26.0051 30.289 25.8587L31.3037 24.843C31.4498 24.6966 31.45 24.4591 31.3037 24.3128L30.289 23.2981C30.1426 23.1517 29.9042 23.1517 29.7578 23.2981C29.6117 23.4445 29.6117 23.682 29.7578 23.8284L30.5078 24.5784L29.7578 25.3274C29.6113 25.4739 29.6113 25.7122 29.7578 25.8587Z" fill="#8C8C8C"/>
<path d="M21.9269 7.67828C21.9269 7.87942 21.7638 8.04248 21.5627 8.04248C21.3616 8.04248 21.1985 7.87942 21.1985 7.67828C21.1985 7.47715 21.3616 7.31408 21.5627 7.31408C21.7638 7.31408 21.9269 7.47715 21.9269 7.67828Z" fill="#8C8C8C"/>
<path d="M20.0087 7.67828C20.0087 7.87942 19.8456 8.04248 19.6445 8.04248C19.4433 8.04248 19.2803 7.87942 19.2803 7.67828C19.2803 7.47715 19.4433 7.31408 19.6445 7.31408C19.8456 7.31408 20.0087 7.47715 20.0087 7.67828Z" fill="#8C8C8C"/>
<path d="M18.0905 7.67828C18.0905 7.87942 17.9274 8.04248 17.7263 8.04248C17.5251 8.04248 17.3621 7.87942 17.3621 7.67828C17.3621 7.47715 17.5251 7.31408 17.7263 7.31408C17.9274 7.31408 18.0905 7.47715 18.0905 7.67828Z" fill="#8C8C8C"/>
<path d="M23.824 7.8623V12.2158C23.824 12.4229 23.9919 12.5908 24.199 12.5908C24.406 12.5907 24.574 12.4228 24.574 12.2158V7.8623C24.574 6.62193 23.5553 5.62516 22.3103 5.625H8.21558C8.00852 5.625 7.84066 5.79296 7.84058 6C7.84058 6.20711 8.00847 6.375 8.21558 6.375H22.3103C23.1512 6.37516 23.824 7.04623 23.824 7.8623Z" fill="#8C8C8C"/>
<path d="M1.625 7.94287V21.7593C1.625 23.071 2.68832 24.1343 4 24.1343H9.54785C9.75484 24.1341 9.92285 23.9663 9.92285 23.7593C9.92285 23.5523 9.75484 23.3844 9.54785 23.3843H4C3.10254 23.3843 2.375 22.6567 2.375 21.7593V7.94287C2.375 7.07724 3.07672 6.3755 3.94238 6.37549H6.36035C6.56737 6.37549 6.73521 6.20748 6.73535 6.00049C6.73535 5.79338 6.56746 5.62549 6.36035 5.62549H3.94238C2.66249 5.6255 1.625 6.66304 1.625 7.94287Z" fill="#8C8C8C"/>
<path d="M24.0273 9.7312C24.2345 9.7312 24.4023 9.56331 24.4023 9.3562C24.4023 9.14909 24.2345 8.9812 24.0273 8.9812H2C1.79289 8.9812 1.625 9.14909 1.625 9.3562C1.625 9.56331 1.79289 9.7312 2 9.7312H24.0273Z" fill="#8C8C8C"/>
<path d="M3.8811 11.6531V13.7146C3.88124 14.1897 4.26635 14.5748 4.74146 14.575H8.21509C8.42219 14.575 8.59009 14.4071 8.59009 14.2C8.59009 13.9928 8.42219 13.825 8.21509 13.825H4.74146C4.68056 13.8248 4.63124 13.7755 4.6311 13.7146V11.6531C4.6311 11.5921 4.68048 11.5419 4.74146 11.5417H21.5461C21.6071 11.5419 21.6565 11.5921 21.6565 11.6531V12.2156C21.6565 12.4227 21.8244 12.5906 22.0315 12.5906C22.2386 12.5906 22.4065 12.4227 22.4065 12.2156V11.6531C22.4065 11.1779 22.0213 10.7919 21.5461 10.7917H4.74146C4.26627 10.7919 3.8811 11.1779 3.8811 11.6531Z" fill="#8C8C8C"/>
<path d="M3.51758 17.0002C3.51758 16.448 3.96529 16.0002 4.51758 16.0002H7.51758C8.06986 16.0002 8.51758 16.448 8.51758 17.0002V21.0002C8.51758 21.5525 8.06986 22.0002 7.51758 22.0002H4.51758C3.96529 22.0002 3.51758 21.5525 3.51758 21.0002V17.0002Z" fill="#8C8C8C"/>
<path d="M7.51758 21.2502V22.0002H4.51758V21.2502H7.51758ZM7.76758 21.0002V17.0002C7.76758 16.8622 7.65565 16.7502 7.51758 16.7502H4.51758C4.37951 16.7502 4.26758 16.8622 4.26758 17.0002V21.0002C4.26758 21.1383 4.37951 21.2502 4.51758 21.2502V22.0002L4.41504 21.9954C3.94461 21.9475 3.57036 21.5732 3.52246 21.1028L3.51758 21.0002V17.0002C3.51758 16.448 3.96529 16.0002 4.51758 16.0002H7.51758C8.06986 16.0002 8.51758 16.448 8.51758 17.0002V21.0002L8.5127 21.1028C8.4648 21.5732 8.09054 21.9475 7.62012 21.9954L7.51758 22.0002V21.2502C7.65565 21.2502 7.76758 21.1383 7.76758 21.0002Z" fill="#8C8C8C"/>
</svg>
