<svg width="40" height="40" viewBox="0 0 40 40" fill="none" xmlns="http://www.w3.org/2000/svg">
<path d="M6.67807 37C5.66608 37 4.8457 36.1796 4.8457 35.1676L4.8457 34.1369H33.5888C34.5868 34.1369 35.4013 33.3382 35.4208 32.3404L35.8624 9.80038H36.416C37.428 9.80038 38.2484 10.6208 38.2484 11.6328L38.2484 35.1676C38.2484 36.1796 37.428 37 36.416 37H6.67807Z" fill="#8C8C8C"/>
<path d="M36.416 37.3574L6.67773 37.3574C5.46836 37.3572 4.48847 36.3773 4.48828 35.168L4.48828 33.7793L33.5889 33.7793C34.3919 33.7793 35.0477 33.1359 35.0635 32.333L35.5117 9.44238H36.416C37.6257 9.44238 38.6064 10.4232 38.6064 11.6328V35.168C38.6063 36.3775 37.6255 37.3574 36.416 37.3574ZM36.416 36.6426C37.2302 36.6426 37.8904 35.9821 37.8906 35.168V11.6328C37.8906 10.8185 37.2304 10.1582 36.416 10.1582H36.2129L35.7783 32.3477C35.7548 33.5402 34.7817 34.4951 33.5889 34.4951L5.20312 34.4951L5.20312 35.168C5.20331 35.982 5.86367 36.6424 6.67773 36.6426L36.416 36.6426Z" fill="#8C8C8C"/>
<path d="M11.5266 9.0072C11.5266 7.86401 12.4534 6.93726 13.5966 6.93726H16.1373C17.2805 6.93726 18.2072 7.86401 18.2072 9.0072V11.7091H11.5266V9.0072Z" fill="#8C8C8C"/>
<path d="M19.1616 9.0072C19.1616 7.86401 20.0883 6.93726 21.2315 6.93726H23.7723C24.9155 6.93726 25.8422 7.86401 25.8422 9.0072V11.7091H19.1616V9.0072Z" fill="#8C8C8C"/>
<path fill-rule="evenodd" clip-rule="evenodd" d="M26.7966 9.0072C26.7966 7.86401 27.7233 6.93726 28.8665 6.93726H31.4072C32.5504 6.93726 33.4772 7.86401 33.4772 9.0072V11.7091H26.7966V9.0072ZM30.3798 9.08026H31.5684V9.56613H30.3798V10.7548H29.8939V9.56613H28.7053V9.08026H29.8939V7.89163H30.3798V9.08026Z" fill="#8C8C8C"/>
<path d="M3.89163 8.84601C3.89163 8.31892 4.31892 7.89163 4.84601 7.89163H8.6635C9.19058 7.89163 9.61787 8.31892 9.61787 8.84601C9.61787 9.37309 9.19058 9.80038 8.6635 9.80038H4.84601C4.31892 9.80038 3.89163 9.37309 3.89163 8.84601Z" fill="#8C8C8C"/>
<path d="M33.3154 5.625C34.6561 5.625 35.7429 6.7121 35.7432 8.05273V31.751C35.7429 33.0026 34.7282 34.0186 33.4766 34.0186H3.8916C2.64015 34.0183 1.62526 33.0024 1.625 31.751V8.05273C1.62525 6.71225 2.71225 5.62525 4.05273 5.625H33.3154ZM4.05273 6.33984C3.10757 6.3401 2.3401 7.10757 2.33984 8.05273V31.751C2.3401 32.6071 3.03546 33.3025 3.8916 33.3027H33.4766C34.3329 33.3027 35.0271 32.6073 35.0273 31.751V13.6182C35.0272 12.7617 34.333 12.0674 33.4766 12.0674H12.0029C11.5423 12.0669 11.1682 11.6931 11.168 11.2324H11.8838C11.884 11.2978 11.9376 11.3511 12.0029 11.3516H33.4766C34.0769 11.3516 34.6218 11.5858 35.0273 11.9668V8.05273C35.0271 7.10741 34.2608 6.33984 33.3154 6.33984H11.1758C11.6133 6.77883 11.8837 7.38399 11.8838 8.05273V11.2324H11.168V8.05273C11.1677 7.10741 10.4014 6.33984 9.45605 6.33984H4.05273Z" fill="#8C8C8C"/>
<path d="M7.80057 21.73C7.68478 21.73 7.57369 21.6814 7.49189 21.5948L6.88262 20.9498C6.71213 20.7693 6.71213 20.4767 6.88262 20.2962C7.053 20.1158 7.32961 20.1158 7.49993 20.2962L7.80046 20.6144L8.87269 19.4794C9.04301 19.299 9.31962 19.299 9.49 19.4794C9.66049 19.6599 9.66049 19.9525 9.49 20.1329L8.10914 21.5948C8.02739 21.6814 7.91635 21.73 7.80057 21.73Z" fill="#8C8C8C"/>
<path d="M7.80057 26.0247C7.68479 26.0247 7.57376 25.976 7.49184 25.8894L6.88257 25.2445C6.71214 25.064 6.71214 24.7713 6.88263 24.5909C7.05301 24.4105 7.3295 24.4105 7.50005 24.5909L7.80046 24.909L8.87269 23.7741C9.04302 23.5937 9.31962 23.5937 9.49 23.7741C9.66049 23.9546 9.66049 24.2472 9.49 24.4276L8.1092 25.8894C8.02739 25.976 7.91636 26.0247 7.80057 26.0247Z" fill="#8C8C8C"/>
<path d="M11.0494 20.2985C11.0494 19.7714 11.4767 19.3441 12.0038 19.3441H27.751C28.278 19.3441 28.7053 19.7714 28.7053 20.2985V20.7757C28.7053 21.3028 28.278 21.73 27.751 21.73H12.0038C11.4767 21.73 11.0494 21.3028 11.0494 20.7757V20.2985Z" fill="#8C8C8C"/>
<path d="M11.0494 24.5932C11.0494 24.0661 11.4767 23.6388 12.0038 23.6388H27.751C28.278 23.6388 28.7053 24.0661 28.7053 24.5932V25.0703C28.7053 25.5974 28.278 26.0247 27.751 26.0247H12.0038C11.4767 26.0247 11.0494 25.5974 11.0494 25.0703V24.5932Z" fill="#8C8C8C"/>
</svg>
