<svg width="40" height="40" viewBox="0 0 40 40" fill="none" xmlns="http://www.w3.org/2000/svg">
<path d="M12.75 8.625C12.9571 8.625 13.125 8.79289 13.125 9C13.125 9.20711 12.9571 9.375 12.75 9.375L12 9.375C11.7929 9.375 11.625 9.20711 11.625 9C11.625 8.79289 11.7929 8.625 12 8.625L12.75 8.625ZM15.75 8.625C15.9571 8.625 16.125 8.79289 16.125 9C16.125 9.20711 15.9571 9.375 15.75 9.375L14.25 9.375C14.0429 9.375 13.875 9.20711 13.875 9C13.875 8.79289 14.0429 8.625 14.25 8.625L15.75 8.625ZM18.75 8.625C18.9571 8.625 19.125 8.79289 19.125 9C19.125 9.20711 18.9571 9.375 18.75 9.375L17.25 9.375C17.0429 9.375 16.875 9.20711 16.875 9C16.875 8.79289 17.0429 8.625 17.25 8.625L18.75 8.625ZM21.75 8.625C21.9571 8.625 22.125 8.79289 22.125 9C22.125 9.20711 21.9571 9.375 21.75 9.375L20.25 9.375C20.0429 9.375 19.875 9.20711 19.875 9C19.875 8.79289 20.0429 8.625 20.25 8.625L21.75 8.625ZM24.75 8.625C24.9571 8.625 25.125 8.79289 25.125 9C25.125 9.20711 24.9571 9.375 24.75 9.375L23.25 9.375C23.0429 9.375 22.875 9.20711 22.875 9C22.875 8.79289 23.0429 8.625 23.25 8.625L24.75 8.625ZM27.75 8.625C27.9571 8.625 28.125 8.79289 28.125 9C28.125 9.20711 27.9571 9.375 27.75 9.375L26.25 9.375C26.0429 9.375 25.875 9.20711 25.875 9C25.875 8.79289 26.0429 8.625 26.25 8.625L27.75 8.625ZM30 8.625C30.2071 8.625 30.375 8.79289 30.375 9C30.375 9.20711 30.2071 9.375 30 9.375L29.25 9.375C29.0429 9.375 28.875 9.20711 28.875 9C28.875 8.79289 29.0429 8.625 29.25 8.625L30 8.625Z" fill="#8C8C8C"/>
<path d="M12.7998 32.625C13.0069 32.625 13.1748 32.7929 13.1748 33C13.1748 33.2071 13.0069 33.375 12.7998 33.375L12 33.375C11.7929 33.375 11.625 33.2071 11.625 33C11.625 32.7929 11.7929 32.625 12 32.625L12.7998 32.625ZM16 32.625C16.2071 32.625 16.375 32.7929 16.375 33C16.375 33.2071 16.2071 33.375 16 33.375L14.4004 33.375C14.1933 33.375 14.0254 33.2071 14.0254 33C14.0254 32.7929 14.1933 32.625 14.4004 32.625L16 32.625ZM19.2002 32.625C19.4072 32.6251 19.5752 32.793 19.5752 33C19.5752 33.207 19.4072 33.3749 19.2002 33.375L17.5996 33.375C17.3927 33.3748 17.2246 33.207 17.2246 33C17.2246 32.793 17.3927 32.6252 17.5996 32.625L19.2002 32.625ZM22.4004 32.625C22.6073 32.6252 22.7754 32.793 22.7754 33C22.7754 33.207 22.6073 33.3748 22.4004 33.375L20.7998 33.375C20.5928 33.3749 20.4248 33.207 20.4248 33C20.4248 32.793 20.5928 32.6251 20.7998 32.625L22.4004 32.625ZM25.5996 32.625C25.8067 32.625 25.9746 32.7929 25.9746 33C25.9746 33.2071 25.8067 33.375 25.5996 33.375L24 33.375C23.7929 33.375 23.625 33.2071 23.625 33C23.625 32.7929 23.7929 32.625 24 32.625L25.5996 32.625ZM28 32.625C28.2071 32.625 28.375 32.7929 28.375 33C28.375 33.2071 28.2071 33.375 28 33.375L27.2002 33.375C26.9931 33.375 26.8252 33.2071 26.8252 33C26.8252 32.7929 26.9931 32.625 27.2002 32.625L28 32.625Z" fill="#8C8C8C"/>
<path d="M8.625 29.25C8.625 29.0429 8.79289 28.875 9 28.875C9.20711 28.875 9.375 29.0429 9.375 29.25L9.375 30C9.375 30.2071 9.20711 30.375 9 30.375C8.79289 30.375 8.625 30.2071 8.625 30L8.625 29.25ZM8.625 26.25C8.625 26.0429 8.79289 25.875 9 25.875C9.20711 25.875 9.375 26.0429 9.375 26.25L9.375 27.75C9.375 27.9571 9.20711 28.125 9 28.125C8.79289 28.125 8.625 27.9571 8.625 27.75L8.625 26.25ZM8.625 23.25C8.625 23.0429 8.79289 22.875 9 22.875C9.20711 22.875 9.375 23.0429 9.375 23.25L9.375 24.75C9.375 24.9571 9.20711 25.125 9 25.125C8.79289 25.125 8.625 24.9571 8.625 24.75L8.625 23.25ZM8.625 20.25C8.625 20.0429 8.79289 19.875 9 19.875C9.20711 19.875 9.375 20.0429 9.375 20.25L9.375 21.75C9.375 21.9571 9.20711 22.125 9 22.125C8.79289 22.125 8.625 21.9571 8.625 21.75L8.625 20.25ZM8.625 17.25C8.625 17.0429 8.79289 16.875 9 16.875C9.20711 16.875 9.375 17.0429 9.375 17.25L9.375 18.75C9.375 18.9571 9.20711 19.125 9 19.125C8.79289 19.125 8.625 18.9571 8.625 18.75L8.625 17.25ZM8.625 14.25C8.625 14.0429 8.79289 13.875 9 13.875C9.20711 13.875 9.375 14.0429 9.375 14.25L9.375 15.75C9.375 15.9571 9.20711 16.125 9 16.125C8.79289 16.125 8.625 15.9571 8.625 15.75L8.625 14.25ZM8.625 12C8.625 11.7929 8.79289 11.625 9 11.625C9.20711 11.625 9.375 11.7929 9.375 12L9.375 12.75C9.375 12.9571 9.20711 13.125 9 13.125C8.79289 13.125 8.625 12.9571 8.625 12.75L8.625 12Z" fill="#8C8C8C"/>
<path d="M32.625 27.2002C32.625 26.9931 32.7929 26.8252 33 26.8252C33.2071 26.8252 33.375 26.9931 33.375 27.2002L33.375 28C33.375 28.2071 33.2071 28.375 33 28.375C32.7929 28.375 32.625 28.2071 32.625 28L32.625 27.2002ZM32.625 24C32.625 23.7929 32.7929 23.625 33 23.625C33.2071 23.625 33.375 23.7929 33.375 24L33.375 25.5996C33.375 25.8067 33.2071 25.9746 33 25.9746C32.7929 25.9746 32.625 25.8067 32.625 25.5996L32.625 24ZM32.625 20.7998C32.6251 20.5928 32.793 20.4248 33 20.4248C33.207 20.4248 33.3749 20.5928 33.375 20.7998L33.375 22.4004C33.3748 22.6073 33.207 22.7754 33 22.7754C32.793 22.7754 32.6252 22.6073 32.625 22.4004L32.625 20.7998ZM32.625 17.5996C32.6252 17.3927 32.793 17.2246 33 17.2246C33.207 17.2246 33.3748 17.3927 33.375 17.5996L33.375 19.2002C33.3749 19.4072 33.207 19.5752 33 19.5752C32.793 19.5752 32.6251 19.4072 32.625 19.2002L32.625 17.5996ZM32.625 14.4004C32.625 14.1933 32.7929 14.0254 33 14.0254C33.2071 14.0254 33.375 14.1933 33.375 14.4004L33.375 16C33.375 16.2071 33.2071 16.375 33 16.375C32.7929 16.375 32.625 16.2071 32.625 16L32.625 14.4004ZM32.625 12C32.625 11.7929 32.7929 11.625 33 11.625C33.2071 11.625 33.375 11.7929 33.375 12L33.375 12.7998C33.375 13.0069 33.2071 13.1748 33 13.1748C32.7929 13.1748 32.625 13.0069 32.625 12.7998L32.625 12Z" fill="#8C8C8C"/>
<path d="M36.606 32.0148L33.9734 33.0654C33.5589 33.2307 33.2307 33.5591 33.0652 33.9734L32.0146 36.6059C31.8013 37.1405 31.0402 37.1283 30.8442 36.587L28.0388 28.8408C27.8579 28.3416 28.3416 27.8579 28.8408 28.0388L36.587 30.8442C37.1283 31.0402 37.1406 31.8014 36.6058 32.0147L36.606 32.0148Z" fill="#8C8C8C"/>
<path d="M34 10V11H32V10H34ZM34 8H32V11C31.4477 11 31 10.5523 31 10V8C31 7.44772 31.4477 7 32 7H34L34.1025 7.00488C34.6067 7.05621 35 7.48232 35 8V10L34.9951 10.1025C34.9438 10.6067 34.5177 11 34 11V8Z" fill="#8C8C8C"/>
<path d="M10 10V11H8V10H10ZM10 8H8V11C7.44772 11 7 10.5523 7 10V8C7 7.44772 7.44772 7 8 7H10L10.1025 7.00488C10.6067 7.05621 11 7.48232 11 8V10L10.9951 10.1025C10.9438 10.6067 10.5177 11 10 11V8Z" fill="#8C8C8C"/>
<path d="M10 34V35H8V34H10ZM10 32H8V35C7.44772 35 7 34.5523 7 34V32C7 31.4477 7.44772 31 8 31H10L10.1025 31.0049C10.6067 31.0562 11 31.4823 11 32V34L10.9951 34.1025C10.9438 34.6067 10.5177 35 10 35V32Z" fill="#8C8C8C"/>
<path d="M26.25 21C26.25 18.1005 23.8995 15.75 21 15.75C18.1005 15.75 15.75 18.1005 15.75 21C15.75 23.8995 18.1005 26.25 21 26.25V27C17.6863 27 15 24.3137 15 21C15 17.6863 17.6863 15 21 15C24.3137 15 27 17.6863 27 21C27 24.3137 24.3137 27 21 27V26.25C23.8995 26.25 26.25 23.8995 26.25 21Z" fill="#8C8C8C"/>
<path d="M23 20.625C23.2071 20.625 23.375 20.7929 23.375 21C23.375 21.2071 23.2071 21.375 23 21.375H19C18.7929 21.375 18.625 21.2071 18.625 21C18.625 20.7929 18.7929 20.625 19 20.625H23Z" fill="#8C8C8C"/>
<path d="M21.375 23C21.375 23.2071 21.2071 23.375 21 23.375C20.7929 23.375 20.625 23.2071 20.625 23L20.625 19C20.625 18.7929 20.7929 18.625 21 18.625C21.2071 18.625 21.375 18.7929 21.375 19L21.375 23Z" fill="#8C8C8C"/>
<path d="M29.625 6C29.625 5.65482 29.3452 5.375 29 5.375H6C5.65482 5.375 5.375 5.65482 5.375 6V29C5.375 29.3452 5.65482 29.625 6 29.625H9V30.375H6C5.24061 30.375 4.625 29.7594 4.625 29V6C4.625 5.24061 5.24061 4.625 6 4.625H29C29.7594 4.625 30.375 5.24061 30.375 6V9H29.625V6Z" fill="#8C8C8C"/>
</svg>
