<svg width="40" height="40" viewBox="0 0 40 40" fill="none" xmlns="http://www.w3.org/2000/svg">
<path d="M3.11048 23.815V23.1539C3.11059 21.7411 4.25623 20.5954 5.66908 20.5953H13.9279C15.341 20.5954 16.4868 21.7417 16.4865 23.1549V24.2311C16.4864 24.4541 16.3052 24.6353 16.0822 24.6354C15.8591 24.6353 15.6778 24.4542 15.6779 24.2311V23.1549C15.6781 22.188 14.8948 21.404 13.9279 21.4039H5.66908C4.70245 21.404 3.91919 22.1873 3.91908 23.1539V23.815C3.91894 24.038 3.7378 24.2184 3.51478 24.2184C3.29176 24.2184 3.11062 24.038 3.11048 23.815Z" fill="#BBBBBB"/>
<path d="M15.6787 31.1056L15.6777 26.3859C15.6777 26.1628 15.859 25.9816 16.082 25.9816C16.3051 25.9816 16.4863 26.1628 16.4863 26.3859L16.4873 31.1056C16.4872 32.2372 15.5435 33.1339 14.4072 33.1339C14.1841 33.1339 14.0029 32.9527 14.0029 32.7296C14.003 32.5065 14.1842 32.3253 14.4072 32.3253C15.1212 32.3253 15.6786 31.7674 15.6787 31.1056Z" fill="#BBBBBB"/>
<path d="M14.4063 32.7299H2.67611C1.75074 32.7299 1.00049 32.0176 1.00049 31.1389V24.3513H6.82537L8.29263 25.9426H12.7306V31.1387C12.7306 32.0176 13.4808 32.7299 14.4063 32.7299Z" fill="#BBBBBB"/>
<path d="M12.3267 31.1384V26.3464H8.29248C8.17973 26.3464 8.07205 26.2994 7.99561 26.2165L6.64893 24.7556H1.40479V31.1394C1.40506 31.7753 1.95419 32.3259 2.67627 32.3259H12.7368C12.4811 31.9963 12.3267 31.5878 12.3267 31.1384ZM13.1343 31.1384C13.1343 31.7747 13.6849 32.3253 14.4072 32.3253C14.6301 32.3256 14.8101 32.5072 14.8101 32.7302C14.8099 32.953 14.63 33.1337 14.4072 33.1339L2.67627 33.1335C1.54794 33.1335 0.596459 32.2605 0.596191 31.1394V24.3513C0.596191 24.1282 0.777382 23.947 1.00049 23.947H6.82568L6.90869 23.9558C6.99015 23.973 7.06521 24.0157 7.12256 24.0779L8.46924 25.5388H12.731C12.9537 25.539 13.134 25.7193 13.1343 25.9421V31.1384Z" fill="#BBBBBB"/>
<path d="M35.2411 27.4121V8.28711C35.241 7.24705 34.3974 6.4043 33.3573 6.4043H7.42374C6.38378 6.40445 5.54108 7.24715 5.54092 8.28711V21H4.73233V8.28711C4.73249 6.80094 5.93756 5.59586 7.42374 5.5957H33.3573C34.8436 5.5957 36.0486 6.80084 36.0487 8.28711V27.4121C36.0487 28.8985 34.8437 30.1035 33.3573 30.1035H15.9999V29.2959H33.3573C34.3975 29.2959 35.2411 28.4523 35.2411 27.4121Z" fill="#BBBBBB"/>
<path fill-rule="evenodd" clip-rule="evenodd" d="M7.42598 6C6.16268 6 5.13858 7.0241 5.13858 8.2874V10.309H35.3017V8.2874C35.3017 7.0241 34.2775 6 33.0143 6H7.42598ZM15.9103 8.1544C15.9103 8.74935 15.428 9.23165 14.833 9.23165C14.2381 9.23165 13.7558 8.74935 13.7558 8.1544C13.7558 7.55945 14.2381 7.07715 14.833 7.07715C15.428 7.07715 15.9103 7.55945 15.9103 8.1544ZM11.6006 9.23165C12.1955 9.23165 12.6778 8.74935 12.6778 8.1544C12.6778 7.55945 12.1955 7.07715 11.6006 7.07715C11.0056 7.07715 10.5233 7.55945 10.5233 8.1544C10.5233 8.74935 11.0056 9.23165 11.6006 9.23165ZM9.44738 8.1544C9.44738 8.74935 8.96508 9.23165 8.37013 9.23165C7.77518 9.23165 7.29288 8.74935 7.29288 8.1544C7.29288 7.55945 7.77518 7.07715 8.37013 7.07715C8.96508 7.07715 9.44738 7.55945 9.44738 8.1544Z" fill="#BBBBBB"/>
<path d="M7.29288 14.0773C7.29288 13.4823 7.77518 13 8.37013 13H14.8336C15.4286 13 15.9109 13.4823 15.9109 14.0773C15.9109 14.6722 15.4286 15.1545 14.8336 15.1545H8.37013C7.77518 15.1545 7.29288 14.6722 7.29288 14.0773Z" fill="#BBBBBB"/>
<path d="M7.29288 17.0773C7.29288 16.4823 7.77518 16 8.37013 16H12.6791C13.2741 16 13.7564 16.4823 13.7564 17.0773C13.7564 17.6722 13.2741 18.1545 12.6791 18.1545H8.37013C7.77518 18.1545 7.29288 17.6722 7.29288 17.0773Z" fill="#BBBBBB"/>
<path d="M28.7616 16.1436C28.9194 15.9858 29.1751 15.9859 29.3329 16.1436L31.9042 18.7139C32.062 18.8716 32.062 19.1284 31.9042 19.2861L29.3329 21.8564C29.1751 22.0141 28.9194 22.0142 28.7616 21.8564C28.604 21.6987 28.604 21.4429 28.7616 21.2852L30.6425 19.4043H23.539C23.3159 19.4043 23.1347 19.2231 23.1347 19C23.1347 18.7769 23.3159 18.5957 23.539 18.5957H30.6425L28.7616 16.7148C28.604 16.5571 28.604 16.3013 28.7616 16.1436Z" fill="#BBBBBB"/>
<path d="M25.8573 27.2432C25.6996 27.4009 25.4438 27.4008 25.286 27.2432L22.7148 24.6729C22.557 24.5151 22.557 24.2583 22.7148 24.1006L25.286 21.5303C25.4438 21.3726 25.6996 21.3725 25.8573 21.5303C26.0149 21.688 26.0149 21.9438 25.8573 22.1016L23.9765 23.9824H31.08C31.3031 23.9824 31.4843 24.1636 31.4843 24.3867C31.4843 24.6098 31.3031 24.791 31.08 24.791H23.9765L25.8573 26.6719C26.0149 26.8296 26.0149 27.0854 25.8573 27.2432Z" fill="#BBBBBB"/>
<path d="M19.9199 32.5C18.8595 32.5 17.9999 31.6404 17.9999 30.58V30.283H33.253C34.9013 30.283 36.2409 28.9532 36.253 27.305L36.387 8.99999C37.2778 8.99999 37.9999 9.72211 37.9999 10.6129V30.58C37.9999 31.6404 37.1403 32.5 36.0799 32.5H19.9199Z" fill="#BBBBBB"/>
<path d="M19.9198 32.875C18.6524 32.875 17.6249 31.8475 17.6249 30.5801V29.9082H33.2528C34.6951 29.9082 35.8673 28.744 35.8778 27.3018L36.0146 8.625H36.3866C37.4845 8.625 38.3749 9.51539 38.3749 10.6133V30.5801C38.3749 31.8475 37.3474 32.875 36.08 32.875H19.9198ZM36.08 32.125C36.9332 32.125 37.6249 31.4333 37.6249 30.5801V10.6133C37.6249 10.0589 37.2601 9.59026 36.7577 9.43262L36.6278 27.3076C36.6143 29.1619 35.1072 30.6582 33.2528 30.6582H18.3778C18.4186 31.4751 19.0928 32.125 19.9198 32.125H36.08Z" fill="#BBBBBB"/>
</svg>
