<svg width="40" height="40" viewBox="0 0 40 40" fill="none" xmlns="http://www.w3.org/2000/svg">
<g clip-path="url(#clip0_22863_61403)">
<rect x="2.5" y="5.5" width="29.5" height="24.5" rx="2" stroke="#848B98" stroke-width="0.75"/>
<path d="M2.5 7.5C2.5 6.39543 3.39543 5.5 4.5 5.5H30C31.1046 5.5 32 6.39543 32 7.5V10H2.5V7.5Z" stroke="#848B98" stroke-width="0.75"/>
<path d="M2.5 7.5C2.5 6.39543 3.39543 5.5 4.5 5.5H30C31.1046 5.5 32 6.39543 32 7.5V10H2.5V7.5Z" stroke="#848B98" stroke-width="0.75"/>
<path d="M2.5 10H10.5V30H4.5C3.39543 30 2.5 29.1046 2.5 28V10Z" stroke="#848B98" stroke-width="0.75"/>
<path d="M10.5 10H32V28C32 29.1046 31.1046 30 30 30H10.5V10Z" fill="#848B98" stroke="#848B98" stroke-width="0.75"/>
<circle cx="5.25" cy="7.75" r="0.75" fill="#848B98"/>
<circle cx="8.25" cy="7.75" r="0.75" fill="#848B98"/>
<circle cx="11.25" cy="7.75" r="0.75" fill="#848B98"/>
<path d="M37.2786 26.7135L35.7406 26.2755C35.5899 25.6614 35.3476 25.0832 35.0283 24.557L35.8065 23.1591C35.8725 23.0403 35.8518 22.8918 35.7557 22.7955L34.7045 21.7444C34.6083 21.6481 34.4596 21.6275 34.3409 21.6935L32.9431 22.4717C32.4169 22.1526 31.8386 21.9101 31.2245 21.7595L30.7865 20.2214C30.7492 20.0903 30.6296 20 30.4932 20H29.0068C28.8704 20 28.7509 20.0903 28.7135 20.2214L28.2755 21.7595C27.6614 21.9101 27.0832 22.1525 26.5569 22.4717L25.1591 21.6935C25.0402 21.6275 24.8917 21.6483 24.7955 21.7444L23.7443 22.7955C23.6481 22.8918 23.6274 23.0404 23.6935 23.1591L24.4716 24.557C24.1525 25.0831 23.91 25.6614 23.7594 26.2755L22.2214 26.7135C22.0902 26.7508 22 26.8704 22 27.0068V28.4932C22 28.6296 22.0902 28.7492 22.2214 28.7866L23.7594 29.2245C23.91 29.8386 24.1524 30.4168 24.4716 30.9431L23.6935 32.3409C23.6275 32.4598 23.6482 32.6083 23.7443 32.7045L24.7955 33.7557C24.8917 33.8519 25.0403 33.8726 25.1591 33.8066L26.5569 33.0283C27.0831 33.3475 27.6614 33.5899 28.2755 33.7406L28.7135 35.2786C28.7508 35.4098 28.8704 35.5 29.0068 35.5H30.4932C30.6296 35.5 30.7491 35.4098 30.7865 35.2786L31.2245 33.7406C31.8386 33.5899 32.4168 33.3475 32.9431 33.0283L34.3409 33.8066C34.4598 33.8725 34.6083 33.8518 34.7045 33.7557L35.7557 32.7045C35.8519 32.6083 35.8726 32.4596 35.8065 32.3409L35.0283 30.9431C35.3475 30.4169 35.5899 29.8386 35.7406 29.2245L37.2786 28.7866C37.4098 28.7492 37.5 28.6296 37.5 28.4932V27.0068C37.5 26.8704 37.4098 26.7508 37.2786 26.7135ZM29.75 30.1875C28.4038 30.1875 27.3124 29.0962 27.3124 27.7499C27.3124 26.4037 28.4038 25.3123 29.75 25.3123C31.0962 25.3123 32.1876 26.4037 32.1876 27.7499C32.1876 29.0962 31.0962 30.1875 29.75 30.1875Z" fill="white" stroke="#848B98" stroke-width="0.75" stroke-linejoin="round"/>
<rect x="4.5" y="13.5" width="4" height="4" rx="0.5" fill="#848B98"/>
<rect x="12" y="13" width="16" height="2.5" rx="0.5" fill="white"/>
<rect x="12" y="18.5" width="11.5" height="2.5" rx="0.5" fill="white"/>
<rect x="12" y="24" width="8.5" height="2.5" rx="0.5" fill="white"/>
<rect x="4.5" y="21" width="4" height="4" rx="0.5" fill="#848B98"/>
</g>
<defs>
<clipPath id="clip0_22863_61403">
<rect width="40" height="40" fill="white"/>
</clipPath>
</defs>
</svg>
