<svg width="40" height="40" viewBox="0 0 40 40" fill="none" xmlns="http://www.w3.org/2000/svg">
<g clip-path="url(#clip0_22863_61391)">
<mask id="mask0_22863_61391" style="mask-type:luminance" maskUnits="userSpaceOnUse" x="0" y="0" width="40" height="40">
<path d="M40 0H0V40H40V0Z" fill="white"/>
</mask>
<g mask="url(#mask0_22863_61391)">
<path d="M37.0956 23.3103V21.0627C37.0956 20.847 36.9207 20.6721 36.705 20.6721H35.1459C35.0192 20.2089 34.8356 19.7695 34.603 19.3613L35.7053 18.2586C35.8578 18.106 35.8578 17.8588 35.7052 17.7063L34.1159 16.117C33.9634 15.9645 33.7161 15.9644 33.5636 16.1169L32.4609 17.2192C32.0527 16.9867 31.6133 16.8031 31.1501 16.6763V15.1172C31.1501 14.9015 30.9752 14.7266 30.7595 14.7266H28.5118C28.2961 14.7266 28.1212 14.9015 28.1212 15.1172V16.6763C27.658 16.803 27.2186 16.9866 26.8104 17.2192L25.7078 16.1169C25.5552 15.9644 25.3079 15.9644 25.1554 16.117L23.5661 17.7063C23.4136 17.8588 23.4136 18.1061 23.5661 18.2586L24.6683 19.3613C24.4358 19.7695 24.2522 20.2089 24.1254 20.6721H22.5664C22.3506 20.6721 22.1758 20.847 22.1758 21.0627V23.3103C22.1758 23.526 22.3506 23.701 22.5664 23.701H24.1254C24.2522 24.1642 24.4358 24.6035 24.6683 25.0117L23.5661 26.1143C23.4136 26.2669 23.4136 26.5142 23.5661 26.6667L25.1554 28.256C25.3079 28.4085 25.5553 28.4086 25.7078 28.2561L26.8104 27.1539C27.2186 27.3864 27.6581 27.5699 28.1212 27.6967V29.2558C28.1212 29.4715 28.2961 29.6464 28.5118 29.6464H30.7595C30.9752 29.6464 31.1501 29.4715 31.1501 29.2558V27.6967C31.6133 27.57 32.0527 27.3864 32.4609 27.1539L33.5636 28.2561C33.7161 28.4086 33.9634 28.4086 34.1159 28.256L35.7052 26.6667C35.8577 26.5142 35.8578 26.2669 35.7053 26.1143L34.603 25.0117C34.8355 24.6035 35.0191 24.1641 35.1459 23.701H36.705C36.9207 23.701 37.0956 23.526 37.0956 23.3103ZM29.6357 25.1162C28.0176 25.1162 26.706 23.8046 26.706 22.1865C26.706 20.5685 28.0176 19.2568 29.6357 19.2568C31.2537 19.2568 32.5654 20.5685 32.5654 22.1865C32.5654 23.8046 31.2537 25.1162 29.6357 25.1162Z" fill="white"/>
<path d="M30.7596 30.037H28.5119C28.0811 30.037 27.7306 29.6865 27.7306 29.2557V27.987C27.4394 27.8915 27.1553 27.7738 26.8813 27.6352L25.984 28.5323C25.8364 28.6798 25.6403 28.761 25.4317 28.761C25.223 28.761 25.0267 28.6797 24.8792 28.532L23.2899 26.9428C23.1424 26.7953 23.0611 26.5992 23.0611 26.3905C23.0611 26.1818 23.1424 25.9856 23.2899 25.8381L24.1869 24.9408C24.0483 24.6668 23.9306 24.3827 23.8351 24.0916H22.5664C22.1356 24.0916 21.7852 23.7411 21.7852 23.3103V21.0627C21.7852 20.6319 22.1356 20.2814 22.5664 20.2814H23.8351C23.9306 19.9902 24.0483 19.7061 24.1869 19.4321L23.2899 18.5348C22.9854 18.2303 22.9854 17.7347 23.2899 17.43L24.8792 15.8407C25.1838 15.536 25.6795 15.5362 25.984 15.8405L26.8813 16.7377C27.1553 16.599 27.4394 16.4813 27.7306 16.3858V15.1172C27.7306 14.6864 28.0811 14.3359 28.5119 14.3359H30.7596C31.1903 14.3359 31.5408 14.6864 31.5408 15.1172V16.3858C31.8321 16.4813 32.116 16.599 32.3901 16.7377L33.2874 15.8405C33.5921 15.5361 34.0878 15.5362 34.3922 15.8407L35.9815 17.43C36.286 17.7346 36.286 18.2302 35.9815 18.5348L35.0845 19.4321C35.2231 19.7061 35.3408 19.9902 35.4363 20.2814H36.7049C37.1357 20.2814 37.4862 20.6319 37.4862 21.0627V23.3103C37.4862 23.7411 37.1357 24.0916 36.7049 24.0916H35.4363C35.3407 24.3829 35.2231 24.6668 35.0845 24.9408L35.9815 25.8381C36.129 25.9857 36.2103 26.1818 36.2103 26.3905C36.2103 26.5992 36.129 26.7954 35.9814 26.9429L34.3921 28.5321C34.2446 28.6797 34.0485 28.761 33.8398 28.761C33.6311 28.761 33.4349 28.6798 33.2874 28.5323L32.39 27.6352C32.1161 27.7738 31.8321 27.8915 31.5407 27.987V29.2557C31.5408 29.6865 31.1903 30.037 30.7596 30.037ZM26.8106 26.7632C26.8767 26.7632 26.9433 26.78 27.0038 26.8144C27.3883 27.0334 27.7989 27.2034 28.2243 27.3199C28.3941 27.3663 28.5119 27.5206 28.5119 27.6966V29.2557H30.7596V27.6966C30.7596 27.5206 30.8773 27.3662 31.0471 27.3198C31.4726 27.2035 31.8832 27.0334 32.2676 26.8144C32.4206 26.7275 32.6128 26.7531 32.7371 26.8776L33.8398 27.9798L35.4291 26.3905L34.3268 25.2878C34.2024 25.1634 34.1766 24.9711 34.2637 24.8182C34.4827 24.4338 34.6528 24.0232 34.7692 23.5977C34.8157 23.428 34.97 23.3102 35.146 23.3102H36.7051V21.0626H35.146C34.97 21.0626 34.8157 20.9448 34.7692 20.775C34.6528 20.3497 34.4828 19.939 34.2637 19.5544C34.1767 19.4015 34.2024 19.2093 34.3269 19.0848L35.4292 17.9823L33.8399 16.393L32.7373 17.4952C32.6128 17.6196 32.4205 17.6453 32.2678 17.5584C31.8832 17.3393 31.4725 17.1693 31.0473 17.0529C30.8775 17.0064 30.7597 16.8521 30.7597 16.6761V15.1171H28.5121V16.6761C28.5121 16.8521 28.3943 17.0065 28.2245 17.0528C27.7992 17.1692 27.3885 17.3393 27.004 17.5584C26.8511 17.6455 26.6588 17.6196 26.5345 17.4952L25.4319 16.393L23.8426 17.9823L24.9448 19.0848C25.0692 19.2093 25.095 19.4015 25.008 19.5544C24.7889 19.939 24.6188 20.3497 24.5024 20.775C24.456 20.9448 24.3017 21.0626 24.1256 21.0626H22.5666V23.3102H24.1256C24.3017 23.3102 24.456 23.428 24.5024 23.5977C24.6188 24.0231 24.789 24.4338 25.008 24.8183C25.095 24.9711 25.0692 25.1634 24.9448 25.2878L23.8426 26.3905L25.4319 27.9798L26.5345 26.8776C26.6096 26.8024 26.7095 26.7632 26.8106 26.7632ZM29.6357 25.5068C27.8049 25.5068 26.3154 24.0173 26.3154 22.1865C26.3154 20.3556 27.8049 18.8662 29.6357 18.8662C31.4666 18.8662 32.956 20.3556 32.956 22.1865C32.956 22.5225 32.9059 22.8542 32.8071 23.1725C32.7431 23.3785 32.5242 23.4939 32.3181 23.4297C32.1121 23.3657 31.997 23.1468 32.061 22.9407C32.1364 22.6977 32.1748 22.4438 32.1748 22.1865C32.1748 20.7864 31.0358 19.6474 29.6357 19.6474C28.2357 19.6474 27.0967 20.7864 27.0967 22.1865C27.0967 23.5866 28.2357 24.7255 29.6357 24.7255C29.9145 24.7255 30.19 24.6798 30.4545 24.5898C30.6585 24.5201 30.8806 24.6294 30.9502 24.8336C31.0198 25.0378 30.9106 25.2598 30.7063 25.3294C30.3606 25.447 30.0004 25.5068 29.6357 25.5068Z" fill="#848B98"/>
<path d="M22.8776 31.5657V30.0031C22.8776 29.7874 22.7027 29.6125 22.487 29.6125H21.3688C21.2708 29.2541 21.1287 28.9141 20.9487 28.5981L21.7393 27.8074C21.8918 27.6548 21.8918 27.4075 21.7392 27.255L20.6342 26.1501C20.4817 25.9976 20.2344 25.9975 20.0819 26.15L19.2911 26.9406C18.9752 26.7606 18.6352 26.6185 18.2767 26.5205V25.4024C18.2767 25.1867 18.1018 25.0117 17.8861 25.0117H16.3234C16.1077 25.0117 15.9328 25.1867 15.9328 25.4024V26.5205C15.5744 26.6185 15.2344 26.7606 14.9184 26.9406L14.1277 26.15C13.9751 25.9975 13.7278 25.9975 13.5753 26.1501L12.4704 27.255C12.3179 27.4075 12.3178 27.6549 12.4703 27.8074L13.2609 28.5981C13.0809 28.914 12.9388 29.2541 12.8408 29.6125H11.7227C11.5069 29.6125 11.332 29.7874 11.332 30.0031V31.5658C11.332 31.7815 11.5069 31.9564 11.7227 31.9564H12.8408C12.9388 32.3149 13.0809 32.6549 13.2609 32.9708L12.4703 33.7616C12.3178 33.9142 12.3178 34.1614 12.4704 34.3139L13.5753 35.4188C13.7278 35.5713 13.9752 35.5714 14.1277 35.4189L14.9184 34.6284C15.2343 34.8083 15.5744 34.9504 15.9328 35.0485V36.1666C15.9328 36.3823 16.1077 36.5572 16.3234 36.5572H17.8861C18.1018 36.5572 18.2767 36.3823 18.2767 36.1666V35.0485C18.6352 34.9504 18.9752 34.8083 19.2911 34.6284L20.0819 35.4189C20.2345 35.5714 20.4817 35.5714 20.6342 35.4188L21.7392 34.3139C21.8917 34.1614 21.8918 33.9141 21.7393 33.7616L20.9487 32.9708C21.1287 32.6549 21.2708 32.3149 21.3688 31.9564H22.487C22.7027 31.9563 22.8776 31.7815 22.8776 31.5657ZM17.1048 33.1214C15.8141 33.1214 14.7677 32.0751 14.7677 30.7844C14.7677 29.4937 15.8141 28.4474 17.1048 28.4474C18.3955 28.4474 19.4418 29.4937 19.4418 30.7844C19.4418 32.0751 18.3955 33.1214 17.1048 33.1214Z" fill="#848B98"/>
<path d="M17.8862 36.9479H16.3235C15.8928 36.9479 15.5423 36.5975 15.5423 36.1667V35.3368C15.3541 35.2723 15.1699 35.196 14.991 35.1085L14.4039 35.6953C14.0994 35.9998 13.6038 35.9999 13.2992 35.6952L12.1942 34.5902C11.8897 34.2857 11.8896 33.7901 12.194 33.4854L12.7809 32.8983C12.6933 32.7194 12.6171 32.5353 12.5525 32.347H11.7227C11.2919 32.347 10.9414 31.9965 10.9414 31.5657V30.0032C10.9414 29.5725 11.2919 29.222 11.7227 29.222H12.5525C12.6171 29.0338 12.6933 28.8496 12.7809 28.6706L12.194 28.0836C11.8895 27.7789 11.8896 27.2833 12.1942 26.9787L13.2991 25.8738C13.6036 25.5693 14.0992 25.5692 14.4039 25.8737L14.9909 26.4605C15.1699 26.3729 15.354 26.2966 15.5422 26.2322V25.4023C15.5422 24.9715 15.8927 24.6211 16.3235 24.6211H17.8861C18.3169 24.6211 18.6674 24.9715 18.6674 25.4023V26.2322C18.8555 26.2966 19.0396 26.3729 19.2187 26.4605L19.8057 25.8737C20.1103 25.5692 20.6059 25.5692 20.9105 25.8737L22.0155 26.9788C22.3201 27.2832 22.3201 27.7789 22.0156 28.0836L21.4287 28.6706C21.5163 28.8496 21.5926 29.0337 21.6571 29.222H22.487C22.9178 29.222 23.2682 29.5725 23.2682 30.0032V31.5658C23.2682 31.9966 22.9178 32.3471 22.487 32.3471H21.6571C21.5925 32.5353 21.5163 32.7195 21.4287 32.8984L22.0155 33.4854C22.3199 33.7901 22.3199 34.2857 22.0154 34.5903L20.9105 35.6953C20.6058 35.9998 20.1103 35.9997 19.8056 35.6954L19.2186 35.1086C19.0397 35.1961 18.8555 35.2724 18.6673 35.3369V36.1668C18.6674 36.5974 18.317 36.9479 17.8862 36.9479ZM14.9187 34.2379C14.9849 34.2379 15.0514 34.2547 15.1119 34.289C15.403 34.4548 15.7139 34.5836 16.036 34.6718C16.2058 34.7183 16.3235 34.8725 16.3235 35.0486V36.1666H17.8862V35.0486C17.8862 34.8725 18.0039 34.7182 18.1737 34.6718C18.4959 34.5836 18.8068 34.4549 19.0978 34.289C19.2507 34.2022 19.4429 34.2278 19.5673 34.3522L20.3581 35.1427L21.463 34.0378L20.6725 33.2469C20.5482 33.1225 20.5223 32.9302 20.6094 32.7774C20.7752 32.4863 20.904 32.1754 20.9921 31.8533C21.0385 31.6835 21.1928 31.5657 21.3689 31.5657H22.487V30.0032H21.3689C21.1928 30.0032 21.0385 29.8855 20.9921 29.7157C20.9039 29.3936 20.7752 29.0826 20.6093 28.7915C20.5223 28.6386 20.5482 28.4464 20.6725 28.322L21.4631 27.5312L20.3581 26.4263L19.5672 27.2168C19.4428 27.3412 19.2506 27.3671 19.0978 27.28C18.8064 27.1141 18.4956 26.9854 18.1737 26.8974C18.0039 26.8509 17.8861 26.6966 17.8861 26.5206V25.4025H16.3235V26.5206C16.3235 26.6966 16.2057 26.851 16.0359 26.8974C15.714 26.9854 15.4031 27.1141 15.1118 27.28C14.959 27.3671 14.7667 27.3414 14.6424 27.2168L13.8516 26.4264L12.7466 27.5312L13.5371 28.322C13.6614 28.4464 13.6873 28.6386 13.6003 28.7915C13.4344 29.0827 13.3056 29.3936 13.2175 29.7157C13.171 29.8855 13.0168 30.0032 12.8407 30.0032H11.7226V31.5658H12.8407C13.0167 31.5658 13.171 31.6836 13.2175 31.8534C13.3056 32.1755 13.4344 32.4864 13.6002 32.7775C13.6873 32.9303 13.6614 33.1225 13.5371 33.247L12.7465 34.0378L13.8515 35.1429L14.6423 34.3523C14.7177 34.2771 14.8176 34.2379 14.9187 34.2379ZM17.1049 33.5122C15.6008 33.5122 14.3772 32.2886 14.3772 30.7845C14.3772 29.2805 15.6008 28.0569 17.1049 28.0569C18.6089 28.0569 19.8324 29.2805 19.8324 30.7845C19.8325 32.2886 18.6089 33.5122 17.1049 33.5122ZM17.1049 28.8382C16.0317 28.8382 15.1585 29.7113 15.1585 30.7845C15.1585 31.8577 16.0316 32.7309 17.1049 32.7309C18.1781 32.7309 19.0512 31.8577 19.0512 30.7845C19.0512 29.7113 18.1781 28.8382 17.1049 28.8382Z" fill="#848B98"/>
<path d="M22.8523 15.0515V11.7832C22.8523 11.5675 22.6774 11.3926 22.4617 11.3926H20.2456C20.0761 10.7733 19.8306 10.1858 19.5197 9.64L21.0865 8.07265C21.239 7.9201 21.239 7.6728 21.0864 7.5203L18.7753 5.2092C18.6228 5.0567 18.3755 5.05665 18.223 5.20915L16.6556 6.77595C16.1099 6.4651 15.5224 6.2196 14.9031 6.0501V3.83398C14.9031 3.61828 14.7281 3.44336 14.5124 3.44336H11.2441C11.0284 3.44336 10.8535 3.61828 10.8535 3.83398V6.0501C10.2342 6.21955 9.64665 6.465 9.10085 6.77595L7.5336 5.20915C7.381 5.05665 7.13375 5.05665 6.98115 5.2092L4.67016 7.52025C4.51766 7.67275 4.51758 7.9201 4.67008 8.07265L6.23685 9.64C5.926 10.1858 5.68055 10.7733 5.5111 11.3926H3.29492C3.07922 11.3926 2.9043 11.5675 2.9043 11.7832V15.0515C2.9043 15.2673 3.07922 15.4422 3.29492 15.4422H5.5111C5.68055 16.0615 5.926 16.649 6.23685 17.1947L4.67008 18.762C4.51758 18.9146 4.51758 19.1619 4.67016 19.3144L6.98125 21.6255C7.13375 21.778 7.3811 21.7781 7.53365 21.6256L9.10095 20.0588C9.6467 20.3697 10.2342 20.6151 10.8535 20.7846V23.0007C10.8535 23.2165 11.0285 23.3913 11.2442 23.3913H14.5125C14.7282 23.3913 14.9031 23.2165 14.9031 23.0007V20.7846C15.5224 20.6151 16.1099 20.3697 16.6557 20.0588L18.2231 21.6256C18.3756 21.7781 18.6229 21.7781 18.7754 21.6255L21.0865 19.3144C21.239 19.1619 21.2391 18.9146 21.0866 18.762L19.5198 17.1947C19.8306 16.649 20.0761 16.0615 20.2456 15.4422H22.4617C22.6774 15.4422 22.8523 15.2672 22.8523 15.0515ZM12.8783 17.8367C10.4375 17.8367 8.4589 15.8581 8.4589 13.4173C8.4589 10.9765 10.4375 8.99795 12.8783 8.99795C15.3191 8.99795 17.2977 10.9765 17.2977 13.4173C17.2977 15.8581 15.3191 17.8367 12.8783 17.8367Z" fill="#848B98"/>
<path d="M14.5125 23.7819H11.2442C10.8134 23.7819 10.4629 23.4314 10.4629 23.0006V21.0767C10.0179 20.9367 9.58515 20.7574 9.1706 20.5414L7.80985 21.9017C7.50525 22.2062 7.00955 22.2062 6.705 21.9015L4.39391 19.5905C4.08938 19.2861 4.0893 18.7905 4.39383 18.4858L5.75415 17.1251C5.5381 16.7104 5.35885 16.2776 5.21885 15.8327H3.29492C2.86414 15.8327 2.51367 15.4822 2.51367 15.0515V11.7831C2.51367 11.3523 2.86414 11.0019 3.29492 11.0019H5.21875C5.35875 10.5569 5.53805 10.1241 5.75405 9.70955L4.39375 8.34875C4.0893 8.0443 4.0893 7.54865 4.39375 7.244L6.70485 4.93297C7.00945 4.62851 7.5051 4.62844 7.8097 4.93281L9.17045 6.29315C9.585 6.0771 10.0178 5.8978 10.4628 5.7578V3.83398C10.4628 3.4032 10.8132 3.05273 11.244 3.05273H14.5124C14.9431 3.05273 15.2936 3.4032 15.2936 3.83398V5.7579C15.7386 5.8979 16.1714 6.0772 16.586 6.29315L17.9467 4.93289C18.2513 4.62844 18.747 4.62851 19.0514 4.93305L21.3625 7.24405C21.6671 7.54875 21.6671 8.0443 21.3625 8.34885L20.0023 9.7096C20.2183 10.1242 20.3976 10.5569 20.5376 11.0019H22.4614C22.8922 11.0019 23.2427 11.3524 23.2427 11.7832V15.0515C23.2427 15.4823 22.8922 15.8328 22.4614 15.8328H20.5376C20.3976 16.2777 20.2183 16.7105 20.0023 17.1252L21.3626 18.4858C21.6671 18.7904 21.6671 19.2861 21.3625 19.5906L19.0514 21.9017C18.9039 22.0493 18.7078 22.1306 18.4991 22.1306C18.2904 22.1306 18.0942 22.0494 17.9467 21.9019L16.586 20.5415C16.1714 20.7576 15.7387 20.9369 15.2936 21.0769V23.0008C15.2938 23.4314 14.9433 23.7819 14.5125 23.7819ZM9.101 19.6681C9.1672 19.6681 9.23375 19.6849 9.2943 19.7193C9.8179 20.0176 10.3771 20.2491 10.9566 20.4078C11.1264 20.4542 11.2441 20.6085 11.2441 20.7845V23.0006H14.5124V20.7845C14.5124 20.6085 14.6302 20.4541 14.7999 20.4078C15.3794 20.2492 15.9387 20.0176 16.4622 19.7193C16.6152 19.6324 16.8073 19.6581 16.9317 19.7825L18.499 21.3493L20.8101 19.0382L19.2433 17.4709C19.1189 17.3465 19.0931 17.1543 19.1801 17.0014C19.4784 16.4778 19.71 15.9184 19.8685 15.339C19.915 15.1692 20.0692 15.0515 20.2453 15.0515H22.4614V11.7831H20.2453C20.0693 11.7831 19.915 11.6654 19.8685 11.4955C19.71 10.9161 19.4784 10.3569 19.1801 9.8333C19.093 9.68045 19.1189 9.4882 19.2432 9.36375L20.81 7.7964L18.4989 5.4854L16.9317 7.0522C16.8071 7.1765 16.615 7.20225 16.4621 7.1154C15.9385 6.8171 15.3793 6.58555 14.7999 6.42695C14.6301 6.38055 14.5124 6.22625 14.5124 6.05025V3.83398H11.244V6.0501C11.244 6.2261 11.1263 6.3804 10.9565 6.4268C10.3771 6.5854 9.81775 6.81695 9.2942 7.11525C9.1414 7.20225 8.94915 7.17655 8.8247 7.05205L7.2574 5.4854L4.94641 7.7964L6.5132 9.36375C6.6376 9.4882 6.66345 9.68045 6.57635 9.8333C6.27805 10.3569 6.0464 10.9161 5.8879 11.4955C5.8414 11.6654 5.6872 11.7831 5.5111 11.7831H3.29492V15.0515H5.5111C5.6871 15.0515 5.8414 15.1692 5.8879 15.339C6.0464 15.9184 6.27805 16.4778 6.57635 17.0014C6.66335 17.1543 6.6376 17.3465 6.5131 17.4709L4.94633 19.0382L7.2574 21.3493L8.82475 19.7825C8.9 19.7073 8.9999 19.6681 9.101 19.6681ZM12.8783 18.2274C12.0714 18.2274 11.2728 18.0232 10.5686 17.6369C10.3795 17.5332 10.3102 17.2958 10.414 17.1066C10.5178 16.9175 10.7553 16.8481 10.9443 16.952C11.5337 17.2753 12.2024 17.4461 12.8784 17.4461C15.0999 17.4461 16.9071 15.6387 16.9071 13.4173C16.9071 11.1958 15.0999 9.38865 12.8784 9.38865C10.657 9.38865 8.8497 11.1959 8.8497 13.4173C8.8497 14.0437 8.99015 14.6447 9.26725 15.2036C9.36305 15.3969 9.28405 15.6313 9.0908 15.7271C8.89735 15.8228 8.6631 15.7439 8.56725 15.5506C8.23625 14.8829 8.06845 14.1651 8.06845 13.4172C8.06845 10.7651 10.2262 8.60735 12.8784 8.60735C15.5306 8.60735 17.6884 10.7651 17.6884 13.4172C17.6883 16.0696 15.5306 18.2274 12.8783 18.2274Z" fill="#848B98"/>
</g>
</g>
<defs>
<clipPath id="clip0_22863_61391">
<rect width="40" height="40" fill="white"/>
</clipPath>
</defs>
</svg>
