<svg width="40" height="40" viewBox="0 0 40 40" fill="none" xmlns="http://www.w3.org/2000/svg">
<path d="M10 31.8173H10.9892V7.40164C10.9892 6.02093 12.1085 4.90164 13.4892 4.90164H26.4787L25.0441 3.54624C24.6728 3.19544 24.1814 3 23.6706 3H10C8.61929 3 7.5 4.11929 7.5 5.5V12.094V29.3173C7.5 30.6981 8.61929 31.8173 10 31.8173Z" fill="#848B98" stroke="#848B98" stroke-width="0.75" stroke-linecap="round" stroke-linejoin="round"/>
<path d="M11.0859 14.0159V31.2392C11.0859 32.6199 12.2052 33.7392 13.5859 33.7392H19.8359M11.0859 12.1262V7.42188C11.0859 6.04117 12.2052 4.92188 13.5859 4.92188H27.2487C27.7642 4.92188 28.2598 5.12092 28.632 5.4775L32.0881 8.78761C32.482 9.16486 32.7047 9.6866 32.7047 10.232V17.2949M32.7047 19.1727V31.2392C32.7047 32.6199 31.5854 33.7392 30.2047 33.7392H24.0859" stroke="#848B98" stroke-width="0.75" stroke-linecap="round" stroke-linejoin="round"/>
<path d="M27.3887 5.14453L27.3887 8.70771C27.3887 9.26 27.8364 9.70772 28.3887 9.70771L32.5096 9.70762" stroke="#848B98" stroke-width="0.75" stroke-linecap="round"/>
<rect x="13.8359" y="7.5" width="10.5" height="3.5" rx="1" fill="#848B98" stroke="#848B98" stroke-width="0.5" stroke-linejoin="round"/>
<rect x="13.8359" y="13" width="16.5" height="2" rx="1" fill="#848B98" stroke="#848B98" stroke-width="0.5" stroke-linejoin="round"/>
<path d="M20.8242 31.8301V30.1064" stroke="#848B98" stroke-width="0.75" stroke-miterlimit="10" stroke-linecap="round" stroke-linejoin="round"/>
<path d="M23.0508 31.8301V30.107" stroke="#848B98" stroke-width="0.75" stroke-miterlimit="10" stroke-linecap="round" stroke-linejoin="round"/>
<path d="M28.5349 23.6007C28.5349 27.2455 25.5802 30.2002 21.9354 30.2002C18.2906 30.2002 15.3359 27.2455 15.3359 23.6007C15.3359 19.9559 18.2906 17.0013 21.9354 17.0013C25.5802 17.0013 28.5349 19.9559 28.5349 23.6007Z" stroke="#848B98" stroke-width="0.75" stroke-miterlimit="10" stroke-linecap="round" stroke-linejoin="round"/>
<path d="M26.4398 22.384C26.5447 22.7723 26.6005 23.1808 26.6005 23.6021C26.6005 26.1784 24.5118 28.2676 21.935 28.2676C19.3587 28.2676 17.2695 26.1784 17.2695 23.6021C17.2695 21.0252 19.3587 18.9366 21.935 18.9366C23.4941 18.9366 24.8752 19.7016 25.7217 20.8768" stroke="#848B98" stroke-width="0.75" stroke-miterlimit="10" stroke-linecap="round" stroke-linejoin="round"/>
<path d="M20.0181 37.6919C20.1191 38.155 20.5309 38.501 21.0242 38.501H22.8495C23.4181 38.501 23.8795 38.0401 23.8795 37.4709V32.8406C23.8795 32.2719 23.4181 31.8105 22.8495 31.8105H21.0242C20.4551 31.8105 19.9941 32.2719 19.9941 32.8406V36.0184" stroke="#848B98" stroke-width="0.75" stroke-miterlimit="10" stroke-linecap="round" stroke-linejoin="round"/>
<path d="M21.6822 26.4551C21.3891 26.4551 21.1106 26.3198 20.9294 26.0861L19.3365 24.0314C19.0142 23.6157 19.0899 23.0173 19.5057 22.6949C19.9216 22.3725 20.5199 22.4483 20.8423 22.8641L21.5574 23.7865L22.9528 21.3157C23.2115 20.8575 23.7926 20.6959 24.2507 20.9546C24.7089 21.2133 24.8705 21.7944 24.6117 22.2526L22.5118 25.9709C22.355 26.2486 22.0695 26.4294 21.7515 26.4526C21.7283 26.4542 21.7052 26.4551 21.6822 26.4551Z" stroke="#848B98" stroke-width="0.75" stroke-miterlimit="10" stroke-linecap="round" stroke-linejoin="round"/>
</svg>
