<svg width="40" height="40" viewBox="0 0 40 40" fill="none" xmlns="http://www.w3.org/2000/svg">
<g clip-path="url(#clip0_22863_61441)">
<path d="M10 16.5987V13C10 11.8954 10.8954 11 12 11H33C34.3807 11 35.5 12.1193 35.5 13.5V20.5" stroke="#848B98" stroke-width="0.75" stroke-miterlimit="10" stroke-linecap="round" stroke-linejoin="round"/>
<path d="M35.5 26V31.5106C35.5 33.4371 33.7085 35 31.5 35" stroke="#848B98" stroke-width="0.75" stroke-miterlimit="10" stroke-linecap="round" stroke-linejoin="round"/>
<rect x="13" y="3" width="15.5" height="17.0889" rx="2" fill="white" stroke="#848B98" stroke-width="0.75"/>
<path d="M13 5C13 3.89543 13.8954 3 15 3H26.5C27.6046 3 28.5 3.89543 28.5 5V6.13878H13V5Z" fill="#848B98" stroke="#848B98" stroke-width="0.75"/>
<path d="M15 8.5C15 8.22386 15.2239 8 15.5 8H26.5C26.7761 8 27 8.22386 27 8.5V10.5C27 10.7761 26.7761 11 26.5 11H15.5C15.2239 11 15 10.7761 15 10.5V8.5Z" fill="#848B98" stroke="#848B98" stroke-width="0.75"/>
<rect x="20.5" y="9.5" width="11.6933" height="17.0889" rx="2" fill="#848B98" stroke="#848B98" stroke-width="0.75"/>
<path d="M20.5 11.54C20.5 10.4355 21.3954 9.54004 22.5 9.54004H30C31.1046 9.54004 32 10.4355 32 11.54V13.54H20.5V11.54Z" fill="white" stroke="#848B98" stroke-width="0.75"/>
<path d="M22 15C22 14.7239 22.2239 14.5 22.5 14.5H30C30.2761 14.5 30.5 14.7239 30.5 15V17C30.5 17.2761 30.2761 17.5 30 17.5H22.5C22.2239 17.5 22 17.2761 22 17V15Z" fill="white" stroke="#848B98" stroke-width="0.75"/>
<path d="M31.5 35H7.87478C6.01104 35 4.5 33.4273 4.5 31.487V16.5H16.2316L19.1868 20.0136H28.125V31.4866C28.125 33.4271 29.6361 35 31.5 35Z" fill="white" stroke="#848B98" stroke-width="0.75" stroke-miterlimit="10" stroke-linecap="round" stroke-linejoin="round"/>
<path d="M13.0961 36.0961C15.6346 33.5577 15.6346 29.4422 13.0963 26.9037C10.5579 24.3654 6.44225 24.3654 3.90388 26.9039C1.36541 29.4423 1.36537 33.5578 3.90379 36.0963C6.44217 38.6346 10.5577 38.6346 13.0961 36.0961Z" fill="#848B98"/>
<path d="M5.5 34C6.21413 33.3893 7.29262 33 8.5 33C9.70738 33 10.7866 33.3893 11.5 34" stroke="white" stroke-width="0.5"/>
<path d="M5.5 29C6.21413 29.6108 7.29262 30 8.5 30C9.70738 30 10.7866 29.6108 11.5 29" stroke="white" stroke-width="0.5"/>
<path d="M8.5 35.5C9.32841 35.5 10 33.7092 10 31.5C10 29.2909 9.32841 27.5 8.5 27.5C7.67159 27.5 7 29.2909 7 31.5C7 33.7092 7.67159 35.5 8.5 35.5Z" stroke="white" stroke-width="0.5"/>
<path d="M8.5 35.5C10.7091 35.5 12.5 33.7091 12.5 31.5C12.5 29.2909 10.7091 27.5 8.5 27.5C6.29088 27.5 4.5 29.2909 4.5 31.5C4.5 33.7091 6.29088 35.5 8.5 35.5Z" stroke="white" stroke-width="0.5"/>
</g>
<defs>
<clipPath id="clip0_22863_61441">
<rect width="40" height="40" fill="white"/>
</clipPath>
</defs>
</svg>
