<svg width="40" height="40" viewBox="0 0 40 40" fill="none" xmlns="http://www.w3.org/2000/svg">
<path d="M21.5225 4.08984C24.247 4.08984 26.4727 6.24053 26.5732 8.91602L26.583 9.1875L26.8438 9.2627C27.7089 9.51135 28.4893 10.0233 29.0615 10.7227C29.7012 11.5046 30.0537 12.492 30.0537 13.501C30.0535 15.93 28.062 17.911 25.6094 17.9111H12.9307C10.968 17.9111 9.375 16.3254 9.375 14.3828C9.37512 12.9999 10.2044 11.7363 11.4639 11.1689L11.6836 11.0693L11.6846 10.8291C11.6974 9.03644 13.1717 7.57724 14.9863 7.57715C15.4068 7.57715 15.8244 7.65726 16.2129 7.81152L16.585 7.95898L16.708 7.57812C17.0069 6.65276 17.5794 5.82093 18.3477 5.2041C19.2417 4.48639 20.3694 4.08992 21.5225 4.08984Z" stroke="#848B98" stroke-width="0.75"/>
<path d="M30.051 8.82837C31.6132 7.2663 31.6132 4.73365 30.0511 3.17153C28.4891 1.60945 25.9564 1.6095 24.3943 3.17163C22.8321 4.7337 22.8321 7.26635 24.3942 8.82847C25.9563 10.3905 28.4889 10.3905 30.051 8.82837Z" fill="#848B98"/>
<path d="M25.2227 7.5C25.6987 7.19463 26.4177 7 27.2227 7C28.0276 7 28.7471 7.19463 29.2227 7.5" stroke="white" stroke-width="0.5"/>
<path d="M25.2227 4.5C25.6987 4.80539 26.4177 5 27.2227 5C28.0276 5 28.7471 4.80539 29.2227 4.5" stroke="white" stroke-width="0.5"/>
<path d="M27.2227 8.5C27.7749 8.5 28.2227 7.38074 28.2227 6C28.2227 4.61932 27.7749 3.5 27.2227 3.5C26.6704 3.5 26.2227 4.61932 26.2227 6C26.2227 7.38074 26.6704 8.5 27.2227 8.5Z" stroke="white" stroke-width="0.5"/>
<path d="M27.2227 8.5C28.6034 8.5 29.7227 7.3807 29.7227 6C29.7227 4.6193 28.6034 3.5 27.2227 3.5C25.842 3.5 24.7227 4.6193 24.7227 6C24.7227 7.3807 25.842 8.5 27.2227 8.5Z" stroke="white" stroke-width="0.5"/>
<path d="M13.7148 27.7783V27C13.7148 25.8954 14.6103 25 15.7148 25H24.072C25.4527 25 26.572 26.1193 26.572 27.5V29.7143" stroke="#848B98" stroke-width="0.75" stroke-miterlimit="10" stroke-linecap="round" stroke-linejoin="round"/>
<path d="M26.5706 32.7148V35.3389C26.5706 36.2563 25.6108 37.0006 24.4277 37.0006" stroke="#848B98" stroke-width="0.75" stroke-miterlimit="10" stroke-linecap="round" stroke-linejoin="round"/>
<path d="M24.4283 36.9999H12.8032C11.8861 36.9999 11.1426 36.1983 11.1426 35.2095V28.5713C11.1426 28.019 11.5903 27.5713 12.1426 27.5713H16.2011C16.6529 27.5713 17.0807 27.775 17.3655 28.1257L17.9192 28.8076C18.204 29.1583 18.6318 29.362 19.0836 29.362H21.2676C22.096 29.362 22.7676 30.0336 22.7676 30.862V35.2093C22.7676 36.1982 23.5111 36.9999 24.4283 36.9999Z" fill="#848B98" stroke="#848B98" stroke-width="0.75" stroke-miterlimit="10" stroke-linecap="round" stroke-linejoin="round"/>
<circle cx="12.6113" cy="35.5" r="0.5" fill="white"/>
<circle cx="14.1113" cy="35.5" r="0.5" fill="white"/>
<circle cx="15.6113" cy="35.5" r="0.5" fill="white"/>
<path d="M18.3613 14.5H20.1113H21.8613C22.1375 14.5 22.3613 14.7239 22.3613 15V21.5C22.3613 21.7761 22.5852 22 22.8613 22H23.9811C24.4151 22 24.643 22.5152 24.351 22.8363L20.8513 26.6861C20.4545 27.1225 19.7681 27.1225 19.3714 26.6861L15.8716 22.8363C15.5796 22.5152 15.8075 22 16.2416 22H17.3613C17.6375 22 17.8613 21.7761 17.8613 21.5V15C17.8613 14.7239 18.0852 14.5 18.3613 14.5Z" fill="white" stroke="#848B98" stroke-width="0.75" stroke-linecap="round" stroke-linejoin="round"/>
</svg>
