<svg width="40" height="40" viewBox="0 0 40 40" fill="none" xmlns="http://www.w3.org/2000/svg">
<g clip-path="url(#clip0_22863_61478)">
<mask id="mask0_22863_61478" style="mask-type:luminance" maskUnits="userSpaceOnUse" x="0" y="0" width="40" height="40">
<path d="M40 0H0V40H40V0Z" fill="white"/>
</mask>
<g mask="url(#mask0_22863_61478)">
<path d="M23.4018 14.5H15.5982C14.1633 14.5 13 15.6633 13 17.0982V24.9018C13 26.3367 14.1633 27.5 15.5982 27.5H23.4018C24.8367 27.5 26 26.3367 26 24.9018V17.0982C26 15.6633 24.8367 14.5 23.4018 14.5Z" stroke="#848B98" stroke-width="0.875"/>
<path d="M12.7031 32.2334C12.7031 31.6466 13.1788 31.1709 13.7656 31.1709H24.6323C25.2191 31.1709 25.6948 31.6466 25.6948 32.2334V35.1001C25.6948 35.6869 25.2191 36.1626 24.6323 36.1626H13.7656C13.1788 36.1626 12.7031 35.6869 12.7031 35.1001V32.2334Z" fill="#848B98" stroke="#848B98" stroke-width="0.875"/>
<path d="M6.99997 16.5C3.41016 16.5 0.5 13.5898 0.5 9.99997C0.5 6.41014 3.41016 3.5 6.99997 3.5C10.5898 3.5 13.5 6.41014 13.5 9.99997C13.5 13.5898 10.5898 16.5 6.99997 16.5Z" fill="white" stroke="#848B98" stroke-width="0.875"/>
<path d="M2.5 10C2.5 12.4809 4.51912 14.5 7.00006 14.5C9.48086 14.5 11.4999 12.4809 11.5 10C11.5 7.51904 9.48096 5.5 7.00006 5.5C4.51912 5.5 2.5 7.51904 2.5 10Z" fill="#848B98" stroke="#848B98" stroke-width="0.875"/>
<path d="M34.0625 24.625C32.0985 24.625 30.5 23.0265 30.5 21.0625C30.5 19.0985 32.0985 17.5 34.0625 17.5C36.0265 17.5 37.625 19.0985 37.625 21.0625C37.625 23.0265 36.0265 24.625 34.0625 24.625Z" fill="white" stroke="#848B98" stroke-width="0.875"/>
<path d="M33.168 21.0619C33.168 21.5554 33.5702 21.9577 34.0638 21.9577C34.5574 21.9577 34.9596 21.5555 34.9597 21.0619H33.168ZM33.168 21.0619C33.168 20.5683 33.5702 20.166 34.0638 20.166ZM33.168 21.0619L34.0638 20.166ZM34.0638 20.166C34.5574 20.166 34.9596 20.5683 34.9597 21.0619L34.0638 20.166Z" fill="#848B98"/>
<path d="M33.168 21.0619C33.168 21.5554 33.5702 21.9577 34.0638 21.9577C34.5574 21.9577 34.9596 21.5555 34.9597 21.0619M33.168 21.0619H34.9597M33.168 21.0619C33.168 20.5683 33.5702 20.166 34.0638 20.166M33.168 21.0619L34.0638 20.166M34.9597 21.0619C34.9596 20.5683 34.5574 20.166 34.0638 20.166M34.9597 21.0619L34.0638 20.166" stroke="#848B98" stroke-width="0.875"/>
<path d="M14.767 34.2449C14.413 34.2449 14.125 33.9569 14.125 33.6029C14.125 33.2489 14.413 32.9609 14.767 32.9609C15.121 32.9609 15.409 33.2489 15.409 33.6029C15.409 33.9569 15.121 34.2449 14.767 34.2449Z" fill="white"/>
<path d="M16.9077 34.2449C16.5536 34.2449 16.2656 33.9569 16.2656 33.6029C16.2656 33.2489 16.5536 32.9609 16.9077 32.9609C17.2617 32.9609 17.5497 33.2489 17.5497 33.6029C17.5497 33.9569 17.2617 34.2449 16.9077 34.2449Z" fill="white"/>
<path d="M19.0463 34.2449C18.6923 34.2449 18.4043 33.9569 18.4043 33.6029C18.4043 33.2489 18.6923 32.9609 19.0463 32.9609C19.4003 32.9609 19.6883 33.2489 19.6883 33.6029C19.6883 33.9569 19.4003 34.2449 19.0463 34.2449Z" fill="white"/>
<path d="M31.7689 8.54557C31.7689 11.1962 29.6201 13.345 26.9694 13.345C24.3187 13.345 22.1699 11.1962 22.1699 8.54557C22.1699 5.89487 24.3187 3.74609 26.9694 3.74609C29.6201 3.74609 31.7689 5.89487 31.7689 8.54557Z" fill="white" stroke="#848B98" stroke-width="0.875"/>
<path d="M27.3031 8.5472C27.2176 8.5472 27.132 8.51455 27.0667 8.4493C26.9361 8.3187 26.9361 8.10705 27.0667 7.9764L29.2948 5.7483C29.4254 5.61775 29.6371 5.61775 29.7677 5.7483C29.8983 5.8789 29.8983 6.09055 29.7677 6.22115L27.5396 8.4493C27.4743 8.51455 27.3887 8.5472 27.3031 8.5472Z" fill="#848B98"/>
<path d="M24.4086 11.4416C24.3231 11.4416 24.2374 11.409 24.1722 11.3437C24.0416 11.2131 24.0416 11.0014 24.1722 10.8709L24.6883 10.3547C24.8188 10.2242 25.0307 10.2242 25.1612 10.3547C25.2918 10.4853 25.2918 10.697 25.1612 10.8276L24.645 11.3437C24.5797 11.409 24.4941 11.4416 24.4086 11.4416Z" fill="#848B98"/>
<path d="M29.5301 11.4408C29.4446 11.4408 29.3589 11.4082 29.2937 11.3428L28.7776 10.8267C28.647 10.6961 28.647 10.4843 28.7776 10.3538C28.9083 10.2232 29.1199 10.2232 29.2505 10.3538L29.7666 10.8699C29.8972 11.0005 29.8972 11.2123 29.7665 11.3428C29.7013 11.4082 29.6157 11.4408 29.5301 11.4408Z" fill="#848B98"/>
<path d="M24.9247 6.83515C24.8392 6.83515 24.7535 6.80255 24.6883 6.73725L24.1722 6.22115C24.0416 6.09055 24.0416 5.8789 24.1721 5.7483C24.3027 5.61775 24.5144 5.61775 24.645 5.7483L25.1611 6.2644C25.2918 6.395 25.2918 6.60665 25.1611 6.73725C25.0959 6.80255 25.0103 6.83515 24.9247 6.83515Z" fill="#848B98"/>
<path d="M26.9704 9.28644C27.379 9.28644 27.7103 8.95519 27.7103 8.54654C27.7103 8.13789 27.379 7.80664 26.9704 7.80664C26.5618 7.80664 26.2305 8.13789 26.2305 8.54654C26.2305 8.95519 26.5618 9.28644 26.9704 9.28644Z" fill="#848B98"/>
<path d="M11.9838 20.9764H7.84766C7.29536 20.9764 6.84766 20.5287 6.84766 19.9764V16.6963" stroke="#848B98" stroke-width="0.875" stroke-linecap="round"/>
<path d="M26.1094 20.9766H29.1054" stroke="#848B98" stroke-width="0.875" stroke-linecap="round"/>
<path d="M19.2617 13.7008V9.13672C19.2617 8.58442 19.7095 8.13672 20.2617 8.13672H21.8298" stroke="#848B98" stroke-width="0.875" stroke-linecap="round"/>
<path d="M27.9258 19.8398L29.1364 21.0504L27.9258 22.261" stroke="#848B98" stroke-width="0.875" stroke-linecap="round"/>
<path d="M10.8047 19.7754L12.0152 20.986L10.8047 22.1966" stroke="#848B98" stroke-width="0.875" stroke-linecap="round"/>
<path d="M20.3978 12.5195L19.1872 13.7301L17.9766 12.5195" stroke="#848B98" stroke-width="0.875" stroke-linecap="round"/>
<path d="M19.2617 27.6475V29.7875" stroke="#848B98" stroke-width="0.875" stroke-linecap="round"/>
<path d="M20.3978 29.0352L19.1872 30.2458L17.9766 29.0352" stroke="#848B98" stroke-width="0.875" stroke-linecap="round"/>
</g>
<rect x="14.5" y="16" width="10" height="10" rx="1.5" fill="#848B98"/>
</g>
<defs>
<clipPath id="clip0_22863_61478">
<rect width="40" height="40" fill="white"/>
</clipPath>
</defs>
</svg>
