<svg width="40" height="40" viewBox="0 0 40 40" fill="none" xmlns="http://www.w3.org/2000/svg">
<g clip-path="url(#clip0_22863_61510)">
<mask id="mask0_22863_61510" style="mask-type:luminance" maskUnits="userSpaceOnUse" x="0" y="0" width="40" height="40">
<path d="M40 0H0V40H40V0Z" fill="white"/>
</mask>
<g mask="url(#mask0_22863_61510)">
<path d="M35.3516 13.9785V10.4629C35.3516 9.59994 34.6521 8.90039 33.7891 8.90039H7.22656C6.36361 8.90039 5.66406 9.59994 5.66406 10.4629V13.9785H35.3516Z" fill="#848B98"/>
<path d="M11.8359 11.166H10.8984C10.4669 11.166 10.1172 10.8163 10.1172 10.3848V7.96289C10.1172 7.53144 10.4669 7.18164 10.8984 7.18164H11.8359C12.2674 7.18164 12.6172 7.53144 12.6172 7.96289V10.3848C12.6172 10.8163 12.2674 11.166 11.8359 11.166Z" fill="white"/>
<path d="M17.9297 11.166H16.9922C16.5607 11.166 16.2109 10.8163 16.2109 10.3848V7.96289C16.2109 7.53144 16.5607 7.18164 16.9922 7.18164H17.9297C18.3611 7.18164 18.7109 7.53144 18.7109 7.96289V10.3848C18.7109 10.8163 18.3611 11.166 17.9297 11.166Z" fill="white"/>
<path d="M24.0193 11.166H23.0859C22.6544 11.166 22.3047 10.8163 22.3047 10.3848V7.96289C22.3047 7.53144 22.6544 7.18164 23.0859 7.18164H24.0234C24.4549 7.18164 24.8047 7.53144 24.8047 7.96289V10.3872C24.8046 10.8173 24.453 11.166 24.0193 11.166Z" fill="white"/>
<path d="M30.1172 11.166H29.1797C28.7482 11.166 28.3984 10.8163 28.3984 10.3848V7.96289C28.3984 7.53144 28.7482 7.18164 29.1797 7.18164H30.1172C30.5486 7.18164 30.8984 7.53144 30.8984 7.96289V10.3848C30.8984 10.8163 30.5486 11.166 30.1172 11.166Z" fill="white"/>
<path d="M11.3672 19.9941H9.17969C8.74819 19.9941 8.39844 19.6444 8.39844 19.2129V17.0254C8.39844 16.5939 8.74819 16.2441 9.17969 16.2441H11.3672C11.7986 16.2441 12.1484 16.5939 12.1484 17.0254V19.2129C12.1484 19.6444 11.7986 19.9941 11.3672 19.9941Z" fill="white"/>
<path d="M16.5234 19.9941H14.3359C13.9044 19.9941 13.5547 19.6444 13.5547 19.2129V17.0254C13.5547 16.5939 13.9044 16.2441 14.3359 16.2441H16.5234C16.9549 16.2441 17.3047 16.5939 17.3047 17.0254V19.2129C17.3047 19.6444 16.9549 19.9941 16.5234 19.9941Z" fill="white"/>
<path d="M21.6016 19.9941H19.4141C18.9826 19.9941 18.6328 19.6444 18.6328 19.2129V17.0254C18.6328 16.5939 18.9826 16.2441 19.4141 16.2441H21.6016C22.0331 16.2441 22.3828 16.5939 22.3828 17.0254V19.2129C22.3828 19.6444 22.0331 19.9941 21.6016 19.9941Z" fill="white"/>
<path d="M26.6797 19.9941H24.4922C24.0607 19.9941 23.7109 19.6444 23.7109 19.2129V17.0254C23.7109 16.5939 24.0607 16.2441 24.4922 16.2441H26.6797C27.1111 16.2441 27.4609 16.5939 27.4609 17.0254V19.2129C27.4609 19.6444 27.1111 19.9941 26.6797 19.9941Z" fill="white"/>
<path d="M31.8333 19.9941H29.6484C29.2169 19.9941 28.8672 19.6444 28.8672 19.2129V17.0254C28.8672 16.5939 29.2169 16.2441 29.6484 16.2441H31.8359C32.2674 16.2441 32.6172 16.5939 32.6172 17.0254V19.2102C32.6172 19.6431 32.2662 19.9941 31.8333 19.9941Z" fill="white"/>
<path d="M11.3672 20.3848H9.17971C8.53351 20.3848 8.00781 19.8591 8.00781 19.2129V17.0254C8.00781 16.3792 8.53351 15.8535 9.17971 15.8535H11.3672C12.0134 15.8535 12.5391 16.3792 12.5391 17.0254V19.2129C12.5391 19.8591 12.0134 20.3848 11.3672 20.3848ZM9.17971 16.6348C8.96431 16.6348 8.78906 16.81 8.78906 17.0254V19.2129C8.78906 19.4283 8.96431 19.6035 9.17971 19.6035H11.3672C11.5826 19.6035 11.7578 19.4283 11.7578 19.2129V17.0254C11.7578 16.81 11.5826 16.6348 11.3672 16.6348H9.17971Z" fill="#848B98"/>
<path d="M16.5235 20.3848H14.336C13.6898 20.3848 13.1641 19.8591 13.1641 19.2129V17.0254C13.1641 16.3792 13.6898 15.8535 14.336 15.8535H16.5235C17.1696 15.8535 17.6953 16.3792 17.6953 17.0254V19.2129C17.6953 19.8591 17.1696 20.3848 16.5235 20.3848ZM14.336 16.6348C14.1206 16.6348 13.9453 16.81 13.9453 17.0254V19.2129C13.9453 19.4283 14.1206 19.6035 14.336 19.6035H16.5235C16.7389 19.6035 16.9141 19.4283 16.9141 19.2129V17.0254C16.9141 16.81 16.7389 16.6348 16.5235 16.6348H14.336Z" fill="#848B98"/>
<path d="M21.6015 20.3848H19.414C18.7679 20.3848 18.2422 19.8591 18.2422 19.2129V17.0254C18.2422 16.3792 18.7679 15.8535 19.414 15.8535H21.6015C22.2478 15.8535 22.7734 16.3792 22.7734 17.0254V19.2129C22.7734 19.8591 22.2478 20.3848 21.6015 20.3848ZM19.414 16.6348C19.1986 16.6348 19.0234 16.81 19.0234 17.0254V19.2129C19.0234 19.4283 19.1986 19.6035 19.414 19.6035H21.6015C21.8169 19.6035 21.9922 19.4283 21.9922 19.2129V17.0254C21.9922 16.81 21.8169 16.6348 21.6015 16.6348H19.414Z" fill="#848B98"/>
<path d="M26.6797 20.3848H24.4922C23.846 20.3848 23.3203 19.8591 23.3203 19.2129V17.0254C23.3203 16.3792 23.846 15.8535 24.4922 15.8535H26.6797C27.326 15.8535 27.8516 16.3792 27.8516 17.0254V19.2129C27.8516 19.8591 27.326 20.3848 26.6797 20.3848ZM24.4922 16.6348C24.2768 16.6348 24.1016 16.81 24.1016 17.0254V19.2129C24.1016 19.4283 24.2768 19.6035 24.4922 19.6035H26.6797C26.8951 19.6035 27.0703 19.4283 27.0703 19.2129V17.0254C27.0703 16.81 26.8951 16.6348 26.6797 16.6348H24.4922Z" fill="#848B98"/>
<path d="M31.8332 20.3848H29.6485C29.0022 20.3848 28.4766 19.8591 28.4766 19.2129V17.0254C28.4766 16.3792 29.0022 15.8535 29.6485 15.8535H31.836C32.4822 15.8535 33.0078 16.3792 33.0078 17.0254V19.2102C33.0078 19.8578 32.4809 20.3848 31.8332 20.3848ZM29.6485 16.6348C29.4331 16.6348 29.2578 16.81 29.2578 17.0254V19.2129C29.2578 19.4283 29.4331 19.6035 29.6485 19.6035H31.8332C32.0501 19.6035 32.2266 19.427 32.2266 19.2102V17.0254C32.2266 16.81 32.0514 16.6348 31.836 16.6348H29.6485Z" fill="#848B98"/>
<path d="M11.3672 25.0723H9.17969C8.74819 25.0723 8.39844 24.7225 8.39844 24.291V22.1035C8.39844 21.672 8.74819 21.3223 9.17969 21.3223H11.3672C11.7986 21.3223 12.1484 21.672 12.1484 22.1035V24.291C12.1484 24.7225 11.7986 25.0723 11.3672 25.0723Z" fill="#848B98"/>
<path d="M16.5234 25.0723H14.3359C13.9044 25.0723 13.5547 24.7225 13.5547 24.291V22.1035C13.5547 21.672 13.9044 21.3223 14.3359 21.3223H16.5234C16.9549 21.3223 17.3047 21.672 17.3047 22.1035V24.291C17.3047 24.7225 16.9549 25.0723 16.5234 25.0723Z" fill="#848B98"/>
<path d="M21.6016 25.0723H19.4141C18.9826 25.0723 18.6328 24.7225 18.6328 24.291V22.1035C18.6328 21.672 18.9826 21.3223 19.4141 21.3223H21.6016C22.0331 21.3223 22.3828 21.672 22.3828 22.1035V24.291C22.3828 24.7225 22.0331 25.0723 21.6016 25.0723Z" fill="#848B98"/>
<path d="M26.6797 25.0723H24.4922C24.0607 25.0723 23.7109 24.7225 23.7109 24.291V22.1035C23.7109 21.672 24.0607 21.3223 24.4922 21.3223H26.6797C27.1111 21.3223 27.4609 21.672 27.4609 22.1035V24.291C27.4609 24.7225 27.1111 25.0723 26.6797 25.0723Z" fill="#848B98"/>
<path d="M31.8333 25.0723H29.6484C29.2169 25.0723 28.8672 24.7225 28.8672 24.291V22.1035C28.8672 21.672 29.2169 21.3223 29.6484 21.3223H31.8359C32.2674 21.3223 32.6172 21.672 32.6172 22.1035V24.2883C32.6172 24.7213 32.2662 25.0723 31.8333 25.0723Z" fill="#848B98"/>
<path d="M11.3645 30.1504H9.17969C8.74819 30.1504 8.39844 29.8006 8.39844 29.3691V27.1816C8.39844 26.7502 8.74819 26.4004 9.17969 26.4004H11.3672C11.7986 26.4004 12.1484 26.7502 12.1484 27.1816V29.3664C12.1484 29.7993 11.7975 30.1504 11.3645 30.1504Z" fill="#848B98"/>
<path d="M16.5208 30.1504H14.3359C13.9044 30.1504 13.5547 29.8006 13.5547 29.3691V27.1816C13.5547 26.7502 13.9044 26.4004 14.3359 26.4004H16.5234C16.9549 26.4004 17.3047 26.7502 17.3047 27.1816V29.3664C17.3047 29.7993 16.9537 30.1504 16.5208 30.1504Z" fill="#848B98"/>
<path d="M21.5989 30.1504H19.4141C18.9826 30.1504 18.6328 29.8006 18.6328 29.3691V27.1816C18.6328 26.7502 18.9826 26.4004 19.4141 26.4004H21.6016C22.0331 26.4004 22.3828 26.7502 22.3828 27.1816V29.3664C22.3828 29.7993 22.0319 30.1504 21.5989 30.1504Z" fill="#848B98"/>
<path d="M26.677 30.1504H24.4922C24.0607 30.1504 23.7109 29.8006 23.7109 29.3691V27.1816C23.7109 26.7502 24.0607 26.4004 24.4922 26.4004H26.6797C27.1111 26.4004 27.4609 26.7502 27.4609 27.1816V29.3664C27.4609 29.7993 27.1099 30.1504 26.677 30.1504Z" fill="#848B98"/>
<path d="M33.789 8.50977H31.289V7.96287C31.289 7.31572 30.7644 6.79102 30.1172 6.79102H28.8672C28.3926 6.79102 28.0078 7.17577 28.0078 7.65037V8.50977H25.1953V7.65037C25.1953 7.17577 24.8105 6.79102 24.3359 6.79102H22.7734C22.2988 6.79102 21.914 7.17577 21.914 7.65037V8.50977H19.1015V7.65037C19.1015 7.17577 18.7168 6.79102 18.2422 6.79102H16.6797C16.2051 6.79102 15.8203 7.17577 15.8203 7.65037V8.50977H13.0078V7.65037C13.0078 7.17577 12.623 6.79102 12.1484 6.79102H10.7578C10.1883 6.79102 9.72654 7.25272 9.72654 7.82227V8.50977H6.99219C6.04294 8.50977 5.27344 9.27927 5.27344 10.2285V31.4611C5.27344 32.4199 6.05079 33.1973 7.00959 33.1973H12.719C12.7411 33.1973 12.763 33.1891 12.779 33.1737C13.1344 32.833 12.8986 32.416 12.5654 32.416H7.22654C6.57939 32.416 6.05469 31.8913 6.05469 31.2441V14.3691H34.9609V24.8934C34.9609 25.0811 35.0866 25.2537 35.2707 25.2905C35.5218 25.3409 35.7422 25.1502 35.7422 24.9081V10.4625C35.7422 9.38577 34.866 8.50977 33.789 8.50977ZM29.1797 7.57227H30.1172C30.3329 7.57227 30.5078 7.74717 30.5078 7.96287V10.3848C30.5078 10.6005 30.3329 10.7754 30.1172 10.7754H29.1797C28.964 10.7754 28.789 10.6005 28.789 10.3848V7.96287C28.789 7.74717 28.964 7.57227 29.1797 7.57227ZM23.0859 7.57227H24.0234C24.2391 7.57227 24.414 7.74717 24.414 7.96287V10.3848C24.414 10.6005 24.2391 10.7754 24.0234 10.7754H23.0859C22.8702 10.7754 22.6953 10.6005 22.6953 10.3848V7.96287C22.6953 7.74717 22.8702 7.57227 23.0859 7.57227ZM16.9922 7.57227H17.9297C18.1454 7.57227 18.3203 7.74717 18.3203 7.96287V10.3848C18.3203 10.6005 18.1454 10.7754 17.9297 10.7754H16.9922C16.7765 10.7754 16.6015 10.6005 16.6015 10.3848V7.96287C16.6015 7.74717 16.7765 7.57227 16.9922 7.57227ZM10.8984 7.57227H11.8359C12.0516 7.57227 12.2265 7.74717 12.2265 7.96287V10.3848C12.2265 10.6005 12.0516 10.7754 11.8359 10.7754H10.8984C10.6827 10.7754 10.5078 10.6005 10.5078 10.3848V7.96287C10.5078 7.74717 10.6827 7.57227 10.8984 7.57227ZM6.05469 13.5879V10.4629C6.05469 9.81572 6.57939 9.29102 7.22654 9.29102H9.72654V10.3848C9.72654 11.032 10.2512 11.5566 10.8984 11.5566H11.8359C12.4831 11.5566 13.0078 11.032 13.0078 10.3848V9.29102H15.8203V10.3848C15.8203 11.032 16.345 11.5566 16.9922 11.5566H17.9297C18.5768 11.5566 19.1015 11.032 19.1015 10.3848V9.29102H21.914V10.3848C21.914 11.032 22.4387 11.5566 23.0859 11.5566H24.0234C24.6706 11.5566 25.1953 11.032 25.1953 10.3848V9.29102H28.0078V10.3848C28.0078 11.032 28.5325 11.5566 29.1797 11.5566H30.1172C30.7644 11.5566 31.289 11.032 31.289 10.3848V9.29102H33.789C34.4362 9.29102 34.9609 9.81572 34.9609 10.4629V13.5879H6.05469Z" fill="#848B98"/>
<path d="M34.9606 26.9765V31.1017C34.9606 31.8278 34.3719 32.4165 33.6459 32.4165H14.5984C14.5763 32.4165 14.5544 32.4247 14.5384 32.44C14.183 32.7807 14.4188 33.1978 14.7519 33.1978H33.8879C34.9118 33.1978 35.7419 32.3677 35.7419 31.3438V27.1299C35.7419 26.7965 35.3244 26.5609 34.9841 26.9167C34.9688 26.9325 34.9606 26.9545 34.9606 26.9765Z" fill="#848B98"/>
</g>
</g>
<defs>
<clipPath id="clip0_22863_61510">
<rect width="40" height="40" fill="white"/>
</clipPath>
</defs>
</svg>
