<svg width="40" height="40" viewBox="0 0 40 40" fill="none" xmlns="http://www.w3.org/2000/svg">
<path d="M21.9395 26.6592C22.3763 26.6592 22.7305 26.305 22.7305 25.8682C22.7305 25.4313 22.3763 25.0771 21.9395 25.0771C21.5026 25.0771 21.1484 25.4313 21.1484 25.8682C21.1484 26.305 21.5026 26.6592 21.9395 26.6592Z" stroke="#848B98" stroke-width="0.75" stroke-miterlimit="10" stroke-linecap="round" stroke-linejoin="round"/>
<path d="M33.0137 25.0771H24.3125V26.6592H33.0137V25.0771Z" fill="#848B98" stroke="#848B98" stroke-width="0.75" stroke-miterlimit="10" stroke-linecap="round" stroke-linejoin="round"/>
<path d="M18.7754 17.3955C19.2123 17.3955 19.5664 17.0414 19.5664 16.6045C19.5664 16.1676 19.2123 15.8135 18.7754 15.8135C18.3385 15.8135 17.9844 16.1676 17.9844 16.6045C17.9844 17.0414 18.3385 17.3955 18.7754 17.3955Z" stroke="#848B98" stroke-width="0.75" stroke-miterlimit="10" stroke-linecap="round" stroke-linejoin="round"/>
<path d="M21.9395 17.3955C22.3763 17.3955 22.7305 17.0414 22.7305 16.6045C22.7305 16.1676 22.3763 15.8135 21.9395 15.8135C21.5026 15.8135 21.1484 16.1676 21.1484 16.6045C21.1484 17.0414 21.5026 17.3955 21.9395 17.3955Z" stroke="#848B98" stroke-width="0.75" stroke-miterlimit="10" stroke-linecap="round" stroke-linejoin="round"/>
<path d="M33.0137 15.8135H24.3125V17.3955H33.0137V15.8135Z" fill="#848B98" stroke="#848B98" stroke-width="0.75" stroke-miterlimit="10" stroke-linecap="round" stroke-linejoin="round"/>
<path d="M18.7754 26.6592C19.2123 26.6592 19.5664 26.305 19.5664 25.8682C19.5664 25.4313 19.2123 25.0771 18.7754 25.0771C18.3385 25.0771 17.9844 25.4313 17.9844 25.8682C17.9844 26.305 18.3385 26.6592 18.7754 26.6592Z" stroke="#848B98" stroke-width="0.75" stroke-miterlimit="10" stroke-linecap="round" stroke-linejoin="round"/>
<path d="M16.4023 29.709H34.5957C35.4695 29.709 36.1777 29.0007 36.1777 28.127V23.6094C36.1777 22.7356 35.4695 22.0273 34.5957 22.0273H16.4023C15.5286 22.0273 14.8203 22.7356 14.8203 23.6094V28.127C14.8203 29.0007 15.5286 29.709 16.4023 29.709Z" stroke="#848B98" stroke-width="0.75" stroke-miterlimit="10" stroke-linecap="round" stroke-linejoin="round"/>
<path d="M19.5664 11.1817H34.5957C35.4695 11.1817 36.1777 10.4734 36.1777 9.59963V5.08203C36.1777 4.20828 35.4695 3.5 34.5957 3.5H16.4023C15.5286 3.5 14.8203 4.20828 14.8203 5.08203V9.59963C14.8203 10.4734 15.5286 11.1817 16.4023 11.1817H17.9844" stroke="#848B98" stroke-width="0.75" stroke-miterlimit="10" stroke-linecap="round" stroke-linejoin="round"/>
<path d="M18.7754 8.13184C19.2123 8.13184 19.5664 7.77769 19.5664 7.34082C19.5664 6.90395 19.2123 6.5498 18.7754 6.5498C18.3385 6.5498 17.9844 6.90395 17.9844 7.34082C17.9844 7.77769 18.3385 8.13184 18.7754 8.13184Z" stroke="#848B98" stroke-width="0.75" stroke-miterlimit="10" stroke-linecap="round" stroke-linejoin="round"/>
<path d="M21.9395 8.13184C22.3763 8.13184 22.7305 7.77769 22.7305 7.34082C22.7305 6.90395 22.3763 6.5498 21.9395 6.5498C21.5026 6.5498 21.1484 6.90395 21.1484 7.34082C21.1484 7.77769 21.5026 8.13184 21.9395 8.13184Z" stroke="#848B98" stroke-width="0.75" stroke-miterlimit="10" stroke-linecap="round" stroke-linejoin="round"/>
<path d="M33.0137 6.5498H24.3125V8.13184H33.0137V6.5498Z" fill="#848B98" stroke="#848B98" stroke-width="0.75" stroke-miterlimit="10" stroke-linecap="round" stroke-linejoin="round"/>
<path d="M16.4023 11.1816V12.7637" stroke="#848B98" stroke-width="0.75" stroke-miterlimit="10" stroke-linecap="round" stroke-linejoin="round"/>
<path d="M34.5977 11.1816V12.7637" stroke="#848B98" stroke-width="0.75" stroke-miterlimit="10" stroke-linecap="round" stroke-linejoin="round"/>
<path d="M34.5977 20.4453V22.0273" stroke="#848B98" stroke-width="0.75" stroke-miterlimit="10" stroke-linecap="round" stroke-linejoin="round"/>
<path d="M16.4023 20.4453V22.0273" stroke="#848B98" stroke-width="0.75" stroke-miterlimit="10" stroke-linecap="round" stroke-linejoin="round"/>
<path d="M19.5664 20.4453H34.5957C35.4695 20.4453 36.1777 19.7371 36.1777 18.8633V14.3457C36.1777 13.4719 35.4695 12.7637 34.5957 12.7637H16.4023C15.5286 12.7637 14.8203 13.4719 14.8203 14.3457V18.8633C14.8203 19.7371 15.5286 20.4453 16.4023 20.4453H17.9844" stroke="#848B98" stroke-width="0.75" stroke-miterlimit="10" stroke-linecap="round" stroke-linejoin="round"/>
<path d="M19.7636 27.408C20.0602 27.408 20.3006 27.1676 20.3006 26.871C20.3006 26.5744 20.0602 26.334 19.7636 26.334C19.467 26.334 19.2266 26.5744 19.2266 26.871C19.2266 27.1676 19.467 27.408 19.7636 27.408Z" fill="#848B98"/>
<path d="M19.7636 25.7967C20.0602 25.7967 20.3006 25.5563 20.3006 25.2597C20.3006 24.9631 20.0602 24.7227 19.7636 24.7227C19.467 24.7227 19.2266 24.9631 19.2266 25.2597C19.2266 25.5563 19.467 25.7967 19.7636 25.7967Z" fill="#848B98"/>
<path d="M12.9576 27.4076H12.6048C12.4056 27.4076 12.2441 27.2088 12.2441 26.9636V24.0924C12.2441 23.8472 12.4056 23.6484 12.6048 23.6484H12.9576C13.1568 23.6484 13.3182 23.8472 13.3182 24.0924V26.9636C13.3182 27.2088 13.1567 27.4076 12.9576 27.4076Z" fill="#848B98"/>
<path d="M15.106 27.4076H14.7532C14.554 27.4076 14.3926 27.2088 14.3926 26.9636V24.0924C14.3926 23.8472 14.554 23.6484 14.7532 23.6484H15.106C15.3052 23.6484 15.4666 23.8472 15.4666 24.0924V26.9636C15.4666 27.2088 15.3051 27.4076 15.106 27.4076Z" fill="#848B98"/>
<path d="M17.074 27.4076H16.5449C16.2461 27.4076 16.0039 27.2088 16.0039 26.9636V24.0924C16.0039 23.8472 16.2461 23.6484 16.5449 23.6484H17.074C17.3729 23.6484 17.615 23.8472 17.615 24.0924V26.9636C17.615 27.2088 17.3727 27.4076 17.074 27.4076Z" fill="#848B98"/>
<path d="M20.7369 18.8145H3.21503C2.27 18.8145 1.50391 19.5838 1.50391 20.5329V34.2809C1.50391 35.23 2.27 35.9994 3.21503 35.9994H20.7369C21.6819 35.9994 22.448 35.23 22.448 34.2809V20.5329C22.448 19.5838 21.6819 18.8145 20.7369 18.8145Z" fill="white" stroke="#848B98" stroke-width="0.875"/>
<path d="M21.9107 23.1107H2.04059C1.23518 22.0366 0.936609 18.8145 3.26663 18.8145H20.6843C23.0142 18.8145 22.7163 22.3051 21.9107 23.1107Z" fill="#848B98"/>
<path d="M1.50391 23.1113H22.448" stroke="#848B98" stroke-width="0.875"/>
<path d="M1.50391 26.8711H22.448" stroke="#848B98" stroke-width="0.875"/>
<path d="M1.50391 30.0928H22.448" stroke="#848B98" stroke-width="0.875"/>
<path d="M1.50391 33.3145H22.448" stroke="#848B98" stroke-width="0.875"/>
<path d="M5.26172 35.9999V22.5742" stroke="#848B98" stroke-width="0.875"/>
<path d="M10.0957 35.9999V22.5742" stroke="#848B98" stroke-width="0.875"/>
<path d="M14.3926 35.9999V22.5742" stroke="#848B98" stroke-width="0.875"/>
<path d="M18.6875 35.9999V22.5742" stroke="#848B98" stroke-width="0.875"/>
</svg>
