<svg width="40" height="40" viewBox="0 0 40 40" fill="none" xmlns="http://www.w3.org/2000/svg">
<g clip-path="url(#clip0_22863_61150)">
<mask id="mask0_22863_61150" style="mask-type:luminance" maskUnits="userSpaceOnUse" x="0" y="0" width="40" height="40">
<path d="M40 0H0V40H40V0Z" fill="white"/>
</mask>
<g mask="url(#mask0_22863_61150)">
<path d="M22.6398 31.4223C23.9295 31.4223 24.975 30.3768 24.975 29.0871C24.975 27.7974 23.9295 26.752 22.6398 26.752C21.3502 26.752 20.3047 27.7974 20.3047 29.0871C20.3047 30.3768 21.3502 31.4223 22.6398 31.4223Z" fill="#848B98"/>
<path d="M22.6405 30.5329C23.4386 30.5329 24.0856 29.8859 24.0856 29.0877C24.0856 28.2896 23.4386 27.6426 22.6405 27.6426C21.8423 27.6426 21.1953 28.2896 21.1953 29.0877C21.1953 29.8859 21.8423 30.5329 22.6405 30.5329Z" fill="white"/>
<path d="M30.1555 19.6762C31.4452 19.6762 32.4906 18.6307 32.4906 17.341C32.4906 16.0514 31.4452 15.0059 30.1555 15.0059C28.8658 15.0059 27.8203 16.0514 27.8203 17.341C27.8203 18.6307 28.8658 19.6762 30.1555 19.6762Z" fill="#848B98"/>
<path d="M30.1561 18.7858C30.9542 18.7858 31.6012 18.1388 31.6012 17.3407C31.6012 16.5425 30.9542 15.8955 30.1561 15.8955C29.3579 15.8955 28.7109 16.5425 28.7109 17.3407C28.7109 18.1388 29.3579 18.7858 30.1561 18.7858Z" fill="white"/>
<path d="M25.3657 29.0871C25.3657 27.5842 24.1428 26.3613 22.6399 26.3613C21.1369 26.3613 19.9141 27.5841 19.9141 29.0871C19.9141 30.5902 21.1368 31.8129 22.6399 31.8129C24.1429 31.8129 25.3657 30.5901 25.3657 29.0871ZM20.6954 29.0871C20.6954 28.0149 21.5678 27.1426 22.6399 27.1426C23.7122 27.1426 24.5845 28.0149 24.5845 29.0871C24.5845 30.1594 23.7121 31.0317 22.6399 31.0317C21.5677 31.0317 20.6954 30.1593 20.6954 29.0871Z" fill="#848B98"/>
<path d="M25.6187 33.6036C26.2529 33.6036 27.4587 32.9583 27.4587 31.6264C27.4587 30.6479 27.4586 28.8907 27.4586 21.8633H32.3779L32.3798 21.8631H32.9919C34.0856 21.8631 34.9755 20.9733 34.9755 19.8795C34.9755 19.6638 34.8005 19.4889 34.5848 19.4889C34.3691 19.4889 34.1942 19.6638 34.1942 19.8795C34.1942 20.5425 33.6548 21.0819 32.9919 21.0819H27.4585V20.1314V20.1284V20.1202C27.4585 19.6684 27.3064 19.2516 27.0511 18.9178H27.9367C28.4312 19.6121 29.2422 20.0663 30.1577 20.0663C31.6606 20.0663 32.8834 18.8434 32.8834 17.3405C32.8834 15.8375 31.6606 14.6147 30.1577 14.6147C28.6547 14.6147 27.4319 15.8375 27.4319 17.3405C27.4319 17.6174 27.4737 17.8846 27.5508 18.1366H13.3255V9.0854L22.9277 15.1998C23.1731 15.3563 23.4548 15.4346 23.7366 15.4346C24.0171 15.4346 24.2977 15.357 24.5429 15.2017L34.1944 9.08325V17.5365C34.1944 17.7522 34.3693 17.9271 34.585 17.9271C34.8007 17.9271 34.9756 17.7522 34.9756 17.5365V8.37325C34.9756 7.2795 34.0858 6.38965 32.992 6.38965C32.992 6.38965 21.8014 6.39 14.5279 6.38965C14.5267 6.38965 14.5248 6.3897 14.5248 6.3897C14.5248 6.3897 14.0892 6.39049 13.8358 6.48904C13.6154 6.57475 13.3996 6.69781 13.297 6.79251C13.1944 6.88722 13.0159 7.05602 12.9516 7.17095C12.8873 7.28587 12.5442 7.76224 12.5442 8.37325L12.5489 8.27821C12.5489 8.28096 12.5441 8.3837 12.5442 8.38645V9.3263V10.1075V12.2628L12.5443 13.0441V15.1994V15.9806V18.1359C12.5443 18.1359 7.19813 18.1366 6.71734 18.1366C6.23655 18.1366 5.02734 18.7396 5.02734 20.12V31.6264C5.02734 32.7202 5.91719 33.61 7.01094 33.61H9.61994C9.83564 33.61 10.0105 33.4351 10.0105 33.2194C10.0105 33.0037 9.83564 32.8288 9.61994 32.8288H7.01094C6.34799 32.8288 5.80859 32.2894 5.80859 31.6264V20.83L15.4599 26.9484C15.7051 27.1038 15.9856 27.1813 16.2662 27.1813C16.5479 27.1813 16.8294 27.1031 17.0748 26.9466L26.6774 20.832V21.4702L26.6772 21.4724L26.6774 21.4747V30.2715L26.6773 30.2734L26.6774 30.2752V31.6264C26.6774 32.2406 26.2141 32.748 25.6187 32.8193L11.963 32.8288C11.7473 32.8288 11.5724 33.0037 11.5724 33.2194C11.5724 33.4351 11.7473 33.61 11.963 33.61L25.6187 33.6036ZM28.2132 17.3403C28.2132 16.2681 29.0855 15.3958 30.1577 15.3958C31.2299 15.3958 32.1023 16.2681 32.1023 17.3403C32.1023 18.4125 31.2299 19.2849 30.1577 19.2849C29.7342 19.2849 29.3423 19.1484 29.0226 18.9177L29.5016 19C29.7173 19 29.0226 18.7157 29.0226 18.5C29.0226 18.2843 28.8541 18.1366 28.6384 18.1366L28.3843 18.1364C28.2747 17.8933 28.2132 17.6239 28.2132 17.3403ZM14.5277 7.17095L14.5284 7.1709H32.9919C33.5855 7.1709 34.0787 7.60365 34.1758 8.1699L24.1246 14.5418C23.8883 14.6916 23.5833 14.6913 23.3475 14.5409L13.3439 8.1709C13.4405 7.60455 13.9331 7.17165 14.5263 7.17095H14.5277ZM16.6549 26.2878C16.4194 26.438 16.1144 26.4383 15.8781 26.2886L5.82714 19.9167C5.92414 19.3504 6.41734 18.9177 7.01094 18.9177H25.475C26.0688 18.9177 26.5622 19.3509 26.6589 19.9176L16.6549 26.2878Z" fill="#848B98"/>
</g>
</g>
<defs>
<clipPath id="clip0_22863_61150">
<rect width="40" height="40" fill="white"/>
</clipPath>
</defs>
</svg>
