<svg width="40" height="40" viewBox="0 0 40 40" fill="none" xmlns="http://www.w3.org/2000/svg">
<path d="M37.1744 13.1533C37.6681 10.1076 35.5994 7.23841 32.5537 6.74471C29.5081 6.25096 26.6388 8.31971 26.1451 11.3654C25.6514 14.411 27.7201 17.2802 30.7658 17.774C33.8114 18.2677 36.6807 16.1989 37.1744 13.1533Z" fill="#848B98"/>
<path d="M31.6655 18.237C34.9616 18.237 37.6434 15.5554 37.6434 12.2591C37.6434 8.96285 34.9617 6.28125 31.6655 6.28125C28.3692 6.28125 25.6876 8.96285 25.6876 12.2591C25.6876 14.1766 26.5961 15.8849 28.0042 16.9795L20.237 22.9461C20.0971 23.0538 19.9013 23.0538 19.7611 22.9461L5.07657 11.6659C5.16412 11.1058 5.65008 10.6757 6.23438 10.6757H24.1536C24.3694 10.6757 24.5442 10.5008 24.5442 10.2851C24.5442 10.0694 24.3694 9.8945 24.1536 9.8945H6.23438C5.15743 9.8945 4.28125 10.7707 4.28125 11.8476V29.1453C4.28125 30.2222 5.15743 31.0984 6.23438 31.0984H33.7637C34.8406 31.0984 35.7168 30.2222 35.7168 29.1453V18.8218C35.7168 18.6061 35.542 18.4312 35.3262 18.4312C35.1104 18.4312 34.9355 18.6061 34.9355 18.8218V28.3526L24.7084 20.4965L28.6881 17.4394C29.5655 17.9457 30.5818 18.237 31.6655 18.237ZM15.2897 20.4965L5.06252 28.3526V12.6403L15.2897 20.4965ZM34.9202 29.326C34.8328 29.8865 34.3483 30.3172 33.7637 30.3172H6.23438C5.64978 30.3172 5.16522 29.8865 5.07787 29.326L15.9309 20.989L19.2852 23.5656C19.4953 23.727 19.7472 23.8078 19.9991 23.8078C20.2509 23.8078 20.5027 23.7271 20.713 23.5656L24.0672 20.989L34.9202 29.326ZM26.4688 12.2591C26.4688 9.39375 28.8 7.0625 31.6655 7.0625C34.5309 7.0625 36.8621 9.39365 36.8621 12.2591C36.8621 15.1245 34.5309 17.4557 31.6655 17.4557C28.8 17.4557 26.4688 15.1245 26.4688 12.2591Z" fill="#848B98"/>
<path d="M29.2267 10.3531L30.0241 12.2585L29.2267 14.1639C29.0913 14.4875 29.418 14.8117 29.7406 14.6739L34.5545 12.6177C34.8708 12.4826 34.8708 12.0344 34.5545 11.8993L29.7406 9.84313C29.418 9.70528 29.0913 10.0295 29.2267 10.3531Z" fill="white"/>
</svg>
