<svg width="40" height="40" viewBox="0 0 40 40" fill="none" xmlns="http://www.w3.org/2000/svg">
<path d="M17.8959 22.1172H17.8966V26.3122C17.8966 27.4747 15.0701 28.4172 11.5831 28.4172C8.0967 28.4172 5.26953 27.4748 5.26953 26.3122V22.1172H5.27021" stroke="#848B98" stroke-width="0.75" stroke-miterlimit="10" stroke-linecap="round" stroke-linejoin="round"/>
<path d="M17.8959 17.9033H17.8966V22.0983C17.8966 23.2609 15.0701 24.2033 11.5831 24.2033C8.0967 24.2033 5.26953 23.2609 5.26953 22.0983V17.9033H5.27021" stroke="#848B98" stroke-width="0.75" stroke-miterlimit="10" stroke-linecap="round" stroke-linejoin="round"/>
<path d="M17.8966 13.6885V17.8835C17.8966 19.046 15.0701 19.9885 11.5831 19.9885C8.0967 19.9885 5.26953 19.0461 5.26953 17.8835V13.6885" stroke="#848B98" stroke-width="0.75" stroke-miterlimit="10" stroke-linecap="round" stroke-linejoin="round"/>
<path d="M12.6901 11.6162C15.6493 11.7903 17.8966 12.6521 17.8966 13.6887C17.8966 14.8512 15.0701 15.7937 11.5831 15.7937C8.0967 15.7937 5.26953 14.8513 5.26953 13.6887C5.26953 12.6521 7.51746 11.7903 10.4761 11.6162" stroke="#848B98" stroke-width="0.75" stroke-miterlimit="10" stroke-linecap="round" stroke-linejoin="round"/>
<path d="M25.8008 5.2497V3.16504H34.7314V6.26727" stroke="#848B98" stroke-width="0.75" stroke-miterlimit="10" stroke-linecap="round" stroke-linejoin="round"/>
<path d="M34.7318 8.48145V10.3805C34.7318 11.0444 34.1932 11.583 33.5293 11.583" stroke="#848B98" stroke-width="0.75" stroke-miterlimit="10" stroke-linecap="round" stroke-linejoin="round"/>
<path d="M33.5265 11.5824H25.1087C24.4446 11.5824 23.9062 11.044 23.9062 10.3799V5.25H28.0863L29.1392 6.45265H32.324V10.3798C32.324 11.044 32.8623 11.5824 33.5265 11.5824Z" fill="#848B98" stroke="#848B98" stroke-width="0.75" stroke-miterlimit="10" stroke-linecap="round" stroke-linejoin="round"/>
<path d="M33.5283 24.2088C34.1925 24.2088 34.7309 23.6704 34.7309 23.0063V15.791H25.8008V17.8756" stroke="#848B98" stroke-width="0.75" stroke-miterlimit="10" stroke-linecap="round" stroke-linejoin="round"/>
<path d="M33.5265 24.2083H25.1087C24.4446 24.2083 23.9062 23.67 23.9062 23.0059V17.876H28.0863L29.1392 19.0786H32.324V23.0058C32.324 23.6699 32.8623 24.2083 33.5265 24.2083Z" fill="#848B98" stroke="#848B98" stroke-width="0.75" stroke-miterlimit="10" stroke-linecap="round" stroke-linejoin="round"/>
<path d="M25.8008 30.5026V28.418H28.363" stroke="#848B98" stroke-width="0.75" stroke-miterlimit="10" stroke-linecap="round" stroke-linejoin="round"/>
<path d="M30.5781 28.418H34.7325V35.6333C34.7325 36.2979 34.1939 36.8358 33.53 36.8358" stroke="#848B98" stroke-width="0.75" stroke-miterlimit="10" stroke-linecap="round" stroke-linejoin="round"/>
<path d="M33.5265 36.8353H25.1087C24.4446 36.8353 23.9062 36.297 23.9062 35.6328V30.5029H28.0863L29.1392 31.7056H32.324V35.6327C32.324 36.2969 32.8623 36.8353 33.5265 36.8353Z" fill="#848B98" stroke="#848B98" stroke-width="0.75" stroke-miterlimit="10" stroke-linecap="round" stroke-linejoin="round"/>
<path d="M23.9069 32.6272H21.0508V7.37402H23.9069" stroke="#848B98" stroke-width="0.75" stroke-miterlimit="10" stroke-linecap="round" stroke-linejoin="round"/>
<path d="M23.9073 19.9883H17.8945" stroke="#848B98" stroke-width="0.75" stroke-miterlimit="10" stroke-linecap="round" stroke-linejoin="round"/>
</svg>
