<svg width="40" height="40" viewBox="0 0 40 40" fill="none" xmlns="http://www.w3.org/2000/svg">
<g clip-path="url(#clip0_22863_61201)">
<path d="M36.0473 20.752C37.3292 20.8051 38.352 21.8611 38.352 23.1564V31.2911C38.352 32.6204 37.2746 33.6985 35.9454 33.6985H25.6691H24.6094" stroke="#848B98" stroke-width="0.75" stroke-miterlimit="10" stroke-linecap="round" stroke-linejoin="round"/>
<path d="M24.6094 20.748H25.6691H33.5373" stroke="#848B98" stroke-width="0.75" stroke-miterlimit="10" stroke-linecap="round" stroke-linejoin="round"/>
<path d="M28.0586 22.875H35.9438C36.0981 22.875 36.2237 23.0005 36.2237 23.1549V31.2897C36.2237 31.444 36.0981 31.5695 35.9438 31.5695H28.0586" stroke="#848B98" stroke-width="0.75" stroke-miterlimit="10" stroke-linecap="round" stroke-linejoin="round"/>
<path d="M32.8375 36.3119H28.2305L28.8909 33.6973H32.177L32.8375 36.3119Z" stroke="#848B98" stroke-width="0.75" stroke-miterlimit="10" stroke-linecap="round" stroke-linejoin="round"/>
<path d="M33.7793 38.3326H27.2835C26.7257 38.3326 26.2734 37.8804 26.2734 37.3226C26.2734 36.7647 26.7257 36.3125 27.2835 36.3125H33.7793C34.3371 36.3125 34.7893 36.7647 34.7893 37.3226C34.7893 37.8804 34.3371 38.3326 33.7793 38.3326Z" stroke="#848B98" stroke-width="0.75" stroke-miterlimit="10" stroke-linecap="round" stroke-linejoin="round"/>
<path d="M28.0742 29.8736H32.6571C33.0691 29.8736 33.4029 29.5398 33.4029 29.1278V26.3401C33.4029 25.9281 33.0691 25.5943 32.6571 25.5943H30.6263C30.3656 25.5943 30.1242 25.4591 29.989 25.2369L29.8022 24.9304C29.6671 24.7081 29.4256 24.5723 29.1657 24.5723H28.0742" fill="#848B98"/>
<path d="M28.0742 29.8736H32.6571C33.0691 29.8736 33.4029 29.5398 33.4029 29.1278V26.3401C33.4029 25.9281 33.0691 25.5943 32.6571 25.5943H30.6263C30.3656 25.5943 30.1242 25.4591 29.989 25.2369L29.8022 24.9304C29.6671 24.7081 29.4256 24.5723 29.1657 24.5723H28.0742" stroke="#848B98" stroke-width="0.75" stroke-miterlimit="10" stroke-linecap="round" stroke-linejoin="round"/>
<path d="M14.332 20.748H15.3917H25.6673C26.9972 20.748 28.0746 21.8254 28.0746 23.1547V31.2894C28.0746 32.6187 26.9972 33.6968 25.6673 33.6968H15.3917H14.332" stroke="#848B98" stroke-width="0.75" stroke-miterlimit="10" stroke-linecap="round" stroke-linejoin="round"/>
<path d="M17.7852 22.875H25.6696C25.8239 22.875 25.9495 23.0005 25.9495 23.1549V31.2897C25.9495 31.444 25.8239 31.5695 25.6696 31.5695H17.7852" stroke="#848B98" stroke-width="0.75" stroke-miterlimit="10" stroke-linecap="round" stroke-linejoin="round"/>
<path d="M22.5601 36.3119H17.9531L18.6136 33.6973H21.8996L22.5601 36.3119Z" stroke="#848B98" stroke-width="0.75" stroke-miterlimit="10" stroke-linecap="round" stroke-linejoin="round"/>
<path d="M23.5058 38.3326H17.0101C16.4522 38.3326 16 37.8804 16 37.3226C16 36.7647 16.4522 36.3125 17.0101 36.3125H23.5058C24.0637 36.3125 24.5159 36.7647 24.5159 37.3226C24.5159 37.8804 24.0637 38.3326 23.5058 38.3326Z" stroke="#848B98" stroke-width="0.75" stroke-miterlimit="10" stroke-linecap="round" stroke-linejoin="round"/>
<path d="M17.7988 29.8736H22.3817C22.7937 29.8736 23.1275 29.5398 23.1275 29.1278V26.3401C23.1275 25.9281 22.7937 25.5943 22.3817 25.5943H20.3502C20.0902 25.5943 19.8488 25.4591 19.7136 25.2369L19.5268 24.9304C19.3917 24.7081 19.1502 24.5723 18.8903 24.5723H17.7988" fill="#848B98"/>
<path d="M17.7988 29.8736H22.3817C22.7937 29.8736 23.1275 29.5398 23.1275 29.1278V26.3401C23.1275 25.9281 22.7937 25.5943 22.3817 25.5943H20.3502C20.0902 25.5943 19.8488 25.4591 19.7136 25.2369L19.5268 24.9304C19.3917 24.7081 19.1502 24.5723 18.8903 24.5723H17.7988" stroke="#848B98" stroke-width="0.75" stroke-miterlimit="10" stroke-linecap="round" stroke-linejoin="round"/>
<path d="M15.3912 33.6966H4.05542C2.72613 33.6966 1.64844 32.619 1.64844 31.2896V23.155C1.64844 21.8257 2.72606 20.748 4.05542 20.748H15.3912C16.7205 20.748 17.7982 21.8257 17.7982 23.155V31.2896C17.7981 32.619 16.7205 33.6966 15.3912 33.6966Z" stroke="#848B98" stroke-width="0.75" stroke-miterlimit="10" stroke-linecap="round" stroke-linejoin="round"/>
<path d="M9.9412 31.5695H15.3932C15.5475 31.5695 15.6731 31.444 15.6731 31.2897V23.1549C15.6731 23.0005 15.5475 22.875 15.3932 22.875H4.05722C3.90288 22.875 3.77734 23.0005 3.77734 23.1549V31.2897C3.77734 31.444 3.90288 31.5695 4.05722 31.5695H7.3581" stroke="#848B98" stroke-width="0.75" stroke-miterlimit="10" stroke-linecap="round" stroke-linejoin="round"/>
<path d="M12.2847 36.3119H7.67773L8.33821 33.6973H11.6242L12.2847 36.3119Z" stroke="#848B98" stroke-width="0.75" stroke-miterlimit="10" stroke-linecap="round" stroke-linejoin="round"/>
<path d="M13.2285 38.3326H6.73271C6.17488 38.3326 5.72266 37.8804 5.72266 37.3226C5.72266 36.7647 6.17488 36.3125 6.73271 36.3125H13.2285C13.7863 36.3125 14.2386 36.7647 14.2386 37.3226C14.2386 37.8804 13.7863 38.3326 13.2285 38.3326Z" stroke="#848B98" stroke-width="0.75" stroke-miterlimit="10" stroke-linecap="round" stroke-linejoin="round"/>
<path d="M12.8515 26.3402V29.1276C12.8515 29.5395 12.5176 29.8734 12.1057 29.8734H7.34147C6.92956 29.8734 6.5957 29.5395 6.5957 29.1276V25.318C6.5957 24.9061 6.92963 24.5723 7.34147 24.5723H8.61419C8.87434 24.5723 9.11574 24.7078 9.2511 24.93L9.43786 25.2366C9.57322 25.4588 9.81462 25.5944 10.0748 25.5944H12.1058C12.5176 25.5944 12.8515 25.9283 12.8515 26.3402Z" fill="#848B98" stroke="#848B98" stroke-width="0.75" stroke-miterlimit="10" stroke-linecap="round" stroke-linejoin="round"/>
<path d="M9.98047 20.7487V18.3088C9.98047 17.7348 10.4458 17.2695 11.0197 17.2695H29.4926C30.0665 17.2695 30.5318 17.7348 30.5318 18.3088V20.7487" stroke="#848B98" stroke-width="0.75" stroke-miterlimit="10" stroke-linecap="round" stroke-linejoin="round"/>
<path d="M20.2559 20.7492V13.9355" stroke="#848B98" stroke-width="0.75" stroke-miterlimit="10" stroke-linecap="round" stroke-linejoin="round"/>
<path d="M13.0195 7.80155V12.2094C13.0195 13.162 13.792 13.9351 14.7453 13.9351H25.7704C26.723 13.9351 27.4961 13.162 27.4961 12.2094V5.75899C27.4961 4.80565 26.723 4.03323 25.7704 4.03323H21.0701C20.4683 4.03323 19.9093 3.71939 19.5962 3.20543L19.1642 2.49577C18.8511 1.98181 18.2928 1.66797 17.6902 1.66797H14.7453C13.792 1.66797 13.0195 2.44039 13.0195 3.39373V7.80155Z" fill="#848B98" stroke="#848B98" stroke-width="0.75" stroke-miterlimit="10" stroke-linecap="round" stroke-linejoin="round"/>
<circle cx="22.9258" cy="12.6465" r="0.375" fill="white"/>
<circle cx="24.2617" cy="12.6465" r="0.375" fill="white"/>
<circle cx="25.5977" cy="12.6465" r="0.375" fill="white"/>
</g>
<defs>
<clipPath id="clip0_22863_61201">
<rect width="40" height="40" fill="white"/>
</clipPath>
</defs>
</svg>
