<svg width="40" height="40" viewBox="0 0 40 40" fill="none" xmlns="http://www.w3.org/2000/svg">
<g clip-path="url(#clip0_22863_61231)">
<mask id="mask0_22863_61231" style="mask-type:luminance" maskUnits="userSpaceOnUse" x="0" y="0" width="41" height="40">
<path d="M40.25 0H0.25V40H40.25V0Z" fill="white"/>
</mask>
<g mask="url(#mask0_22863_61231)">
<path d="M35.784 6.72461V30.8402C35.784 31.7035 35.084 32.4027 34.2215 32.4027H7.5918C6.7293 32.4027 6.0293 31.7035 6.0293 30.8402V6.72461C6.0293 5.86131 6.7293 5.16211 7.5918 5.16211H34.2215C35.084 5.16211 35.784 5.86131 35.784 6.72461Z" fill="#848B98"/>
<path d="M33.1441 30.214H8.82424C8.60854 30.214 8.43359 30.0391 8.43359 29.8234V11.5566C8.43359 11.3409 8.60854 11.166 8.82424 11.166H33.1441C33.3598 11.166 33.5348 11.3409 33.5348 11.5566V29.8234C33.5348 30.0391 33.3599 30.214 33.1441 30.214Z" fill="white"/>
<path d="M35.7838 9.29586V6.72461C35.7838 5.86166 35.0843 5.16211 34.2213 5.16211H7.5918C6.7288 5.16211 6.0293 5.86166 6.0293 6.72461V9.29586H35.7838Z" fill="white"/>
<path d="M8.82424 7.80957C9.03999 7.80957 9.21484 7.63467 9.21484 7.41897C9.21484 7.20322 9.03999 7.02832 8.82424 7.02832C8.60849 7.02832 8.43359 7.20322 8.43359 7.41897C8.43359 7.63467 8.60849 7.80957 8.82424 7.80957Z" fill="#848B98"/>
<path d="M10.1465 7.80957C10.3622 7.80957 10.5371 7.63467 10.5371 7.41897C10.5371 7.20322 10.3622 7.02832 10.1465 7.02832C9.93076 7.02832 9.75586 7.20322 9.75586 7.41897C9.75586 7.63467 9.93076 7.80957 10.1465 7.80957Z" fill="#848B98"/>
<path d="M11.4688 7.80957C11.6845 7.80957 11.8594 7.63467 11.8594 7.41897C11.8594 7.20322 11.6845 7.02832 11.4688 7.02832C11.253 7.02832 11.0781 7.20322 11.0781 7.41897C11.0781 7.63467 11.253 7.80957 11.4688 7.80957Z" fill="#848B98"/>
<path d="M32.9877 7.80957H13.6914C13.4757 7.80957 13.3008 7.63467 13.3008 7.41897C13.3008 7.20327 13.4757 7.02832 13.6914 7.02832H32.9877C33.2034 7.02832 33.3784 7.20327 33.3784 7.41897C33.3784 7.63467 33.2035 7.80957 32.9877 7.80957Z" fill="#848B98"/>
<path d="M23.0379 20.1966C22.7014 20.1966 22.4285 19.9237 22.4285 19.5873V17.2093C22.4285 16.5332 21.8785 15.9832 21.2025 15.9832C20.5265 15.9832 19.9765 16.5332 19.9765 17.2093V17.6373C19.9765 17.9738 19.7036 18.2466 19.3672 18.2466C19.0306 18.2466 18.7578 17.9738 18.7578 17.6373V17.2093C18.7578 15.8613 19.8546 14.7646 21.2026 14.7646C22.5506 14.7646 23.6473 15.8613 23.6473 17.2093V19.5873C23.6472 19.9237 23.3743 20.1966 23.0379 20.1966Z" fill="#848B98"/>
<path d="M23.086 25.2353H19.3203C18.6473 25.2353 18.1016 24.6896 18.1016 24.0165V20.794C18.1016 20.1209 18.6473 19.5752 19.3203 19.5752H23.086C23.7591 19.5752 24.3048 20.1209 24.3048 20.794V24.0165C24.3047 24.6897 23.7591 25.2353 23.086 25.2353Z" fill="#848B98"/>
<path d="M21.2026 23.7993C20.8231 23.7993 20.5156 23.4916 20.5156 23.1123V22.4448C20.5156 22.0653 20.8233 21.7578 21.2026 21.7578C21.5821 21.7578 21.8897 22.0654 21.8897 22.4448V23.1123C21.8897 23.4916 21.5821 23.7993 21.2026 23.7993Z" fill="white"/>
<path d="M9.83444 34.5068C13.2746 34.5068 16.0634 31.718 16.0634 28.2778C16.0634 24.8376 13.2746 22.0488 9.83444 22.0488C6.39429 22.0488 3.60547 24.8376 3.60547 28.2778C3.60547 31.718 6.39429 34.5068 9.83444 34.5068Z" fill="white"/>
<path d="M9.83396 33.3125C12.6148 33.3125 14.8692 31.0582 14.8692 28.2773C14.8692 25.4965 12.6148 23.2422 9.83396 23.2422C7.05316 23.2422 4.79883 25.4965 4.79883 28.2773C4.79883 31.0582 7.05316 33.3125 9.83396 33.3125Z" fill="white"/>
<path d="M13.584 33.0022V32.5113C13.584 31.1901 12.5129 30.119 11.191 30.1191H10.9841C10.8352 30.1191 10.7145 29.9984 10.7145 29.8494C10.7145 29.7378 10.7839 29.6389 10.8849 29.5913C11.7391 29.1887 12.3458 28.3154 12.3458 27.3107V26.6508C12.3458 25.2634 11.2211 24.1387 9.83368 24.1387C8.44628 24.1387 7.32158 25.2634 7.32158 26.6508V27.3107C7.32158 28.3172 7.92573 29.1902 8.78193 29.5916C8.88313 29.639 8.95273 29.7379 8.95273 29.8497C8.95273 29.9985 8.83213 30.1191 8.68338 30.1191H8.47618C7.15508 30.1191 6.08398 31.1902 6.08398 32.5113V33.0029C6.08398 33.1597 6.15683 33.3085 6.28563 33.3979C7.29233 34.0968 8.51553 34.5066 9.83398 34.5066C11.1525 34.5066 12.3751 34.0968 13.3824 33.3972C13.5112 33.3077 13.584 33.159 13.584 33.0022Z" stroke="#848B98" stroke-width="0.75"/>
<path d="M8.28516 32.3672V33.7727C8.28516 34.0466 8.02501 34.2469 7.76671 34.1558C7.60566 34.099 7.50391 33.9445 7.50391 33.7738V32.3672C7.50391 32.1516 7.67891 31.9766 7.89451 31.9766C8.00236 31.9766 8.10001 32.0203 8.17031 32.0906C8.24141 32.1617 8.28516 32.2594 8.28516 32.3672Z" fill="#848B98"/>
<path d="M12.1641 32.3672V33.7741C12.1641 33.9451 12.0621 34.0996 11.9008 34.1562C11.6427 34.2468 11.3828 34.047 11.3828 33.7734V32.3672C11.3828 32.1516 11.5578 31.9766 11.7734 31.9766C11.8812 31.9766 11.9797 32.0203 12.05 32.0906C12.1203 32.1617 12.1641 32.2594 12.1641 32.3672Z" fill="#848B98"/>
<path d="M35.7846 16.7433C35.5689 16.7433 35.394 16.9182 35.394 17.134V30.841C35.394 31.4871 34.8683 32.0128 34.2221 32.0128H15.2958C16.0259 30.9488 16.4542 29.6623 16.4542 28.2773C16.4542 24.6272 13.4846 21.6577 9.83451 21.6577C8.58641 21.6577 7.41806 22.0053 6.42056 22.6083V6.7246C6.42056 6.07845 6.94626 5.55275 7.59241 5.55275H15.1596C15.3753 5.55275 15.5502 5.3779 15.5502 5.1621C15.5502 4.94633 15.3753 4.77148 15.1596 4.77148H7.59241C6.51546 4.77148 5.63931 5.64765 5.63931 6.7246V23.1609C4.16015 24.3759 3.21484 26.2182 3.21484 28.2773C3.21484 31.9274 6.18436 34.8969 9.83446 34.8969C11.7398 34.8969 13.4585 34.0867 14.6674 32.794H34.222C35.299 32.794 36.1752 31.9179 36.1752 30.841V17.134C36.1752 16.9182 36.0003 16.7433 35.7846 16.7433ZM9.83451 34.1157C6.61521 34.1157 3.99617 31.4966 3.99617 28.2773C3.99617 25.058 6.61521 22.439 9.83451 22.439C13.0538 22.439 15.6729 25.058 15.6729 28.2773C15.6729 31.4966 13.0538 34.1157 9.83451 34.1157Z" fill="#848B98"/>
<path d="M34.2218 4.77148H17.4551C17.2394 4.77148 17.0645 4.94633 17.0645 5.16209C17.0645 5.37789 17.2394 5.55274 17.4551 5.55274H34.2218C34.8679 5.55274 35.3936 6.07844 35.3936 6.72459V14.8372C35.3936 15.053 35.5686 15.2279 35.7843 15.2279C36 15.2279 36.1749 15.053 36.1749 14.8372V6.72459C36.1749 5.64764 35.2987 4.77148 34.2218 4.77148Z" fill="#848B98"/>
</g>
</g>
<defs>
<clipPath id="clip0_22863_61231">
<rect width="40" height="40" fill="white"/>
</clipPath>
</defs>
</svg>
