<svg width="40" height="40" viewBox="0 0 40 40" fill="none" xmlns="http://www.w3.org/2000/svg">
<g clip-path="url(#clip0_22863_61254)">
<mask id="mask0_22863_61254" style="mask-type:luminance" maskUnits="userSpaceOnUse" x="0" y="0" width="40" height="40">
<path d="M40 0H0V40H40V0Z" fill="white"/>
</mask>
<g mask="url(#mask0_22863_61254)">
<path d="M33.3996 33.4486H6.59961C5.30516 33.4486 4.25586 32.3993 4.25586 31.1048V10.4648C4.25586 9.17039 5.30516 8.12109 6.59961 8.12109H33.3996C34.6941 8.12109 35.7434 9.17039 35.7434 10.4648V31.1048C35.7434 32.3992 34.6941 33.4486 33.3996 33.4486Z" fill="#848B98"/>
<path d="M26.5559 36.095C29.0411 36.095 31.0559 34.0803 31.0559 31.595V6.86131C31.0559 5.56686 30.0066 4.51758 28.7121 4.51758H11.2871C9.99266 4.51758 8.94336 5.56686 8.94336 6.86131L8.94336 33.095C8.94336 34.7519 10.2865 36.095 11.9434 36.095H26.5559Z" fill="white"/>
<path d="M35.7433 17.8839C35.9591 17.8839 36.1339 17.709 36.1339 17.4933V10.4655C36.1339 8.95772 34.9073 7.73107 33.3995 7.73107H31.4464V6.86177C31.4464 5.35407 30.2198 4.12742 28.712 4.12742H28.1856V4.06055C28.1856 3.41437 27.6599 2.88867 27.0137 2.88867H26.481C25.8348 2.88867 25.3091 3.41437 25.3091 4.06055V4.12742H23.687V4.06055C23.687 3.41437 23.1613 2.88867 22.5151 2.88867H21.9824C21.3362 2.88867 20.8105 3.41437 20.8105 4.06055V4.12742H19.1885V4.06055C19.1885 3.41437 18.6628 2.88867 18.0166 2.88867H17.4839C16.8377 2.88867 16.312 3.41437 16.312 4.06055V4.12742H14.6899V4.06055C14.6899 3.41437 14.1642 2.88867 13.518 2.88867H12.9854C12.3392 2.88867 11.8135 3.41437 11.8135 4.06055V4.12742H11.2871C9.77938 4.12742 8.55273 5.35407 8.55273 6.86177V7.73102H6.59963C5.09188 7.73102 3.86523 8.95767 3.86523 10.4654V31.1054C3.86523 32.6131 5.09188 33.8398 6.59963 33.8398H8.55499C8.60174 35.3069 9.80888 36.4862 11.2871 36.4862H14.8971C15.1129 36.4862 15.2877 36.3112 15.2877 36.0955C15.2877 35.8798 15.1129 35.7049 14.8971 35.7049H11.287C10.2101 35.7049 9.33388 34.8287 9.33388 33.7518V6.86177C9.33388 5.78482 10.2101 4.90867 11.287 4.90867H11.8134V6.31687C11.8134 6.96302 12.3391 7.48877 12.9853 7.48877H13.518C14.1641 7.48877 14.6898 6.96302 14.6898 6.31687V4.90867H16.312V6.31687C16.312 6.96302 16.8377 7.48877 17.4839 7.48877H18.0166C18.6628 7.48877 19.1885 6.96302 19.1885 6.31687V4.90867H20.8105V6.31687C20.8105 6.96302 21.3362 7.48877 21.9824 7.48877H22.5151C23.1613 7.48877 23.687 6.96302 23.687 6.31687V4.90867H25.3091V6.31687C25.3091 6.96302 25.8348 7.48877 26.4809 7.48877H27.0137C27.6598 7.48877 28.1855 6.96302 28.1855 6.31687V4.90867H28.7119C29.7889 4.90867 30.6651 5.78482 30.6651 6.86177V33.7518C30.6651 34.8287 29.7889 35.7049 28.7119 35.7049H17.1137C16.898 35.7049 16.7231 35.8798 16.7231 36.0955C16.7231 36.3112 16.898 36.4862 17.1137 36.4862H28.712C30.1902 36.4862 31.3975 35.3069 31.4441 33.8398H33.3995C34.9073 33.8398 36.1339 32.6131 36.1339 31.1054V19.7099C36.1339 19.4942 35.9591 19.3193 35.7433 19.3193C35.5275 19.3193 35.3526 19.4942 35.3526 19.7099V31.1054C35.3526 32.1823 34.4765 33.0585 33.3995 33.0585H31.4464V8.51227H33.3995C34.4765 8.51227 35.3526 9.38842 35.3526 10.4654V17.4932C35.3526 17.709 35.5275 17.8839 35.7433 17.8839ZM4.6464 31.1054V10.4654C4.6464 9.38842 5.52258 8.51227 6.59953 8.51227H8.55263V33.0585H6.59953C5.52258 33.0585 4.6464 32.1823 4.6464 31.1054ZM13.9087 6.31687C13.9087 6.53227 13.7334 6.70752 13.518 6.70752H12.9854C12.77 6.70752 12.5948 6.53227 12.5948 6.31687V4.06055C12.5948 3.84515 12.77 3.66992 12.9854 3.66992H13.518C13.7334 3.66992 13.9087 3.84515 13.9087 4.06055V6.31687ZM18.4073 6.31687C18.4073 6.53227 18.232 6.70752 18.0166 6.70752H17.4839C17.2685 6.70752 17.0933 6.53227 17.0933 6.31687V4.06055C17.0933 3.84515 17.2685 3.66992 17.4839 3.66992H18.0166C18.232 3.66992 18.4073 3.84515 18.4073 4.06055V6.31687ZM22.9058 6.31687C22.9058 6.53227 22.7305 6.70752 22.5151 6.70752H21.9824C21.767 6.70752 21.5918 6.53227 21.5918 6.31687V4.06055C21.5918 3.84515 21.767 3.66992 21.9824 3.66992H22.5151C22.7305 3.66992 22.9058 3.84515 22.9058 4.06055V6.31687ZM27.4043 6.31687C27.4043 6.53227 27.2291 6.70752 27.0137 6.70752H26.4809C26.2655 6.70752 26.0903 6.53227 26.0903 6.31687V4.06055C26.0903 3.84515 26.2655 3.66992 26.4809 3.66992H27.0137C27.2291 3.66992 27.4043 3.84515 27.4043 4.06055V6.31687Z" fill="#848B98"/>
<path d="M15.8616 18.7989H12.6794C12.233 18.7989 11.8711 18.437 11.8711 17.9906V14.8083C11.8711 14.3619 12.233 14 12.6794 14H15.8616C16.308 14 16.6699 14.3619 16.6699 14.8083V17.9906C16.67 18.437 16.308 18.7989 15.8616 18.7989Z" fill="#848B98"/>
<path d="M13.9474 17.495C13.8474 17.495 13.7475 17.4568 13.6711 17.3806L12.9074 16.6168C12.7548 16.4643 12.7548 16.2169 12.9074 16.0644C13.06 15.9119 13.3072 15.9119 13.4598 16.0644L13.9474 16.552L15.0803 15.4191C15.2329 15.2666 15.4801 15.2666 15.6327 15.4191C15.7853 15.5717 15.7853 15.819 15.6327 15.9715L14.2236 17.3807C14.1473 17.4568 14.0474 17.495 13.9474 17.495Z" fill="white"/>
<path d="M15.8616 25.2207H12.6794C12.233 25.2207 11.8711 24.8588 11.8711 24.4124V21.2302C11.8711 20.7838 12.233 20.4219 12.6794 20.4219H15.8616C16.308 20.4219 16.6699 20.7838 16.6699 21.2302V24.4124C16.67 24.8588 16.308 25.2207 15.8616 25.2207Z" fill="#848B98"/>
<path d="M13.9474 23.9168C13.8474 23.9168 13.7475 23.8787 13.6711 23.8024L12.9074 23.0387C12.7548 22.8861 12.7548 22.6387 12.9074 22.4862C13.06 22.3337 13.3072 22.3337 13.4598 22.4862L13.9474 22.9738L15.0803 21.8409C15.2329 21.6884 15.4801 21.6884 15.6327 21.8409C15.7853 21.9935 15.7853 22.2409 15.6327 22.3934L14.2236 23.8025C14.1473 23.8787 14.0474 23.9168 13.9474 23.9168Z" fill="white"/>
<path d="M19.072 32.6984L19.7283 33.4599C19.8714 33.626 20.1287 33.626 20.2717 33.4599L20.928 32.6984C21.1283 32.4659 20.9631 32.1055 20.6563 32.1055H19.3438C19.0369 32.1055 18.8717 32.4659 19.072 32.6984Z" fill="#848B98"/>
<rect x="17.5" y="14.7363" width="10.5" height="3" rx="1" fill="#848B98"/>
<rect x="17.5" y="21.2363" width="10.5" height="3" rx="1" fill="#848B98"/>
</g>
</g>
<defs>
<clipPath id="clip0_22863_61254">
<rect width="40" height="40" fill="white"/>
</clipPath>
</defs>
</svg>
