<svg width="40" height="40" viewBox="0 0 40 40" fill="none" xmlns="http://www.w3.org/2000/svg">
<path d="M22.0745 36.5H13.4254C13.2942 36.5 13.1704 36.4423 13.0898 36.3436C13.0092 36.2449 12.9808 36.1162 13.013 35.9948L14.3741 30.8485C14.4316 30.6311 14.6628 30.4996 14.8907 30.5542C15.1185 30.6091 15.2566 30.8298 15.199 31.0471L13.9715 35.6882H21.5285L20.2898 31.0052C20.2323 30.7879 20.3704 30.5672 20.5982 30.5124C20.8262 30.4578 21.0574 30.5892 21.1148 30.8066L22.487 35.9949C22.5192 36.1163 22.4908 36.2449 22.4102 36.3436C22.3296 36.4423 22.2057 36.5 22.0745 36.5Z" fill="#848B98"/>
<path d="M29.9998 26.5H20.5V19.7558C20.5 19.6145 20.6193 19.5 20.7664 19.5H29.7336C29.8807 19.5 30 19.6145 30 19.7558L29.9998 26.5Z" fill="#848B98"/>
<path d="M30 27H20V19.6869C20 19.3082 20.303 19 20.6754 19H29.3245C29.6969 19 30 19.3082 30 19.6869V27ZM20.8372 26.1488H29.1626L29.1628 19.8512H20.8372V26.1488Z" fill="#848B98"/>
<path d="M32 12.5V10.0698C32 9.20279 31.3575 8.5 30.5649 8.5H4.4352C3.64264 8.5 3 9.20279 3 10.0698V12.5H32Z" fill="#848B98"/>
<path d="M24.5686 13H2.93141C2.6931 13 2.5 12.7761 2.5 12.5C2.5 12.2239 2.6931 12 2.93141 12H24.5686C24.8069 12 25 12.2239 25 12.5C25 12.7761 24.8069 13 24.5686 13Z" fill="#848B98"/>
<path d="M23.5722 36.5H11.9278C11.6915 36.5 11.5 36.2761 11.5 36C11.5 35.7239 11.6915 35.5 11.9278 35.5H23.5722C23.8085 35.5 24 35.7239 24 36C24 36.2761 23.8085 36.5 23.5722 36.5Z" fill="#848B98"/>
<path d="M6.00003 11C5.72381 11 5.5 10.779 5.5 10.5064V10.4936C5.5 10.2211 5.72381 10 6.00003 10C6.27619 10 6.5 10.2211 6.5 10.4936V10.5064C6.5 10.779 6.27619 11 6.00003 11Z" fill="white"/>
<path d="M7.49997 11C7.22381 11 7 10.779 7 10.5064V10.4936C7 10.2211 7.22381 10 7.49997 10C7.77619 10 8 10.2211 8 10.4936V10.5064C8 10.779 7.77619 11 7.49997 11Z" fill="white"/>
<path d="M8.99997 11C8.72381 11 8.5 10.779 8.5 10.5064V10.4936C8.5 10.2211 8.72381 10 8.99997 10C9.27619 10 9.5 10.2211 9.5 10.4936V10.5064C9.5 10.779 9.27606 11 8.99997 11Z" fill="white"/>
<path d="M30.6318 31H4.36823C3.33811 31 2.5 30.139 2.5 29.0807V26.6127C2.5 26.3712 2.69056 26.1753 2.92574 26.1753H31.6485V17.9373C31.6485 17.6958 31.839 17.5 32.0742 17.5C32.3094 17.5 32.5 17.6958 32.5 17.9373V29.0807C32.5 30.139 31.6619 31 30.6318 31ZM3.35147 27.05V29.0807C3.35147 29.6567 3.80753 30.1253 4.36823 30.1253H30.6317C31.1924 30.1253 31.6484 29.6567 31.6484 29.0807V27.05H3.35147Z" fill="#848B98"/>
<path d="M2.92991 24.5C2.69243 24.5 2.5 24.3129 2.5 24.0821V10.3341C2.5 9.32272 3.34633 8.5 4.38656 8.5H22.5701C22.8076 8.5 23 8.68714 23 8.91794C23 9.14874 22.8076 9.33594 22.5701 9.33594H4.38656C3.82035 9.33594 3.35983 9.78373 3.35983 10.3341V24.0821C3.35983 24.3129 3.1674 24.5 2.92991 24.5Z" fill="#848B98"/>
<path d="M31.25 18C34.9779 18 38 14.9779 38 11.25C38 7.52207 34.9779 4.5 31.25 4.5C27.5221 4.5 24.5 7.52207 24.5 11.25C24.5 14.9779 27.5221 18 31.25 18Z" fill="#848B98"/>
<path d="M31.25 18.5C27.2524 18.5 24 15.2476 24 11.25C24 7.25227 27.2524 4 31.25 4C35.2477 4 38.5 7.25238 38.5 11.25C38.5 15.2477 35.2477 18.5 31.25 18.5ZM31.25 4.85686C27.7248 4.85686 24.8569 7.72482 24.8569 11.25C24.8569 14.7751 27.7248 17.6431 31.25 17.6431C34.7752 17.6431 37.6431 14.7751 37.6431 11.25C37.6431 7.72482 34.7751 4.85686 31.25 4.85686Z" fill="#848B98"/>
<path d="M34.9623 14.9623C37.0126 12.9121 37.0126 9.58795 34.9623 7.53768C32.9121 5.48747 29.5879 5.48741 27.5377 7.53768C25.4874 9.58795 25.4874 12.9121 27.5377 14.9623C29.5879 17.0126 32.9121 17.0126 34.9623 14.9623Z" fill="white"/>
<path d="M30.3468 13.5C30.1859 13.5 30.0316 13.4325 29.9178 13.3123L28.6777 12.0022C28.4408 11.7519 28.4408 11.3462 28.6777 11.0959C28.9148 10.8456 29.2988 10.8456 29.5356 11.0959L30.3468 11.9529L32.9643 9.18769C33.2014 8.93744 33.5854 8.93744 33.8223 9.18769C34.0592 9.43794 34.0592 9.84366 33.8223 10.0939L30.7758 13.3122C30.6619 13.4325 30.5076 13.5 30.3468 13.5Z" fill="#848B98"/>
<path d="M6.59582 18C6.4745 18 6.35809 17.949 6.27237 17.8583L5.63398 17.1825C5.45534 16.9933 5.45534 16.6867 5.63398 16.4977C5.81251 16.3086 6.10234 16.3086 6.28081 16.4977L6.5957 16.831L7.71919 15.6418C7.89766 15.4527 8.18749 15.4527 8.36602 15.6418C8.54466 15.8309 8.54466 16.1375 8.36602 16.3265L6.91914 17.8583C6.83348 17.949 6.71714 18 6.59582 18Z" fill="#848B98"/>
<path d="M6.59582 22.5C6.4745 22.5 6.35816 22.449 6.27232 22.3583L5.63393 21.6825C5.45535 21.4933 5.45535 21.1867 5.63399 20.9977C5.81251 20.8086 6.10223 20.8086 6.28093 20.9977L6.5957 21.331L7.7192 20.1418C7.89766 19.9527 8.18749 19.9527 8.36602 20.1418C8.54466 20.3309 8.54466 20.6375 8.36602 20.8265L6.9192 22.3583C6.83348 22.449 6.71714 22.5 6.59582 22.5Z" fill="#848B98"/>
<path d="M26.5 23.5C26.7761 23.5 27 23.2761 27 23C27 22.7239 26.7761 22.5 26.5 22.5C26.2239 22.5 26 22.7239 26 23C26 23.2761 26.2239 23.5 26.5 23.5Z" fill="white"/>
<path d="M25 23.5C25.2761 23.5 25.5 23.2761 25.5 23C25.5 22.7239 25.2761 22.5 25 22.5C24.7238 22.5 24.5 22.7239 24.5 23C24.5 23.2761 24.7238 23.5 25 23.5Z" fill="white"/>
<path d="M23.5 23.5C23.7762 23.5 24 23.2761 24 23C24 22.7239 23.7762 22.5 23.5 22.5C23.2238 22.5 23 22.7239 23 23C23 23.2761 23.2238 23.5 23.5 23.5Z" fill="white"/>
<rect x="10" y="15.5" width="8.5" height="2.5" rx="1" fill="#848B98"/>
<rect x="10" y="20" width="8.5" height="2.5" rx="1" fill="#848B98"/>
</svg>
