<svg width="40" height="40" viewBox="0 0 40 40" fill="none" xmlns="http://www.w3.org/2000/svg">
<g clip-path="url(#clip0_22863_61293)">
<path d="M28.7224 3.5H7.98736C7.44207 3.5 7 3.94207 7 4.48736V33.1213C7 33.6666 7.44207 34.1087 7.98736 34.1087H24.1593C24.5521 34.1087 24.9289 33.9526 25.2066 33.6749L29.2759 29.6056C29.5537 29.3278 29.7097 28.9511 29.7097 28.5583V4.48736C29.7097 3.94207 29.2677 3.5 28.7224 3.5Z" fill="#848B98" stroke="#848B98" stroke-width="0.75" stroke-miterlimit="10" stroke-linecap="round" stroke-linejoin="round"/>
<path d="M31.7224 6.39062H10.9874C10.4421 6.39062 10 6.8327 10 7.37799V36.012C10 36.5573 10.4421 36.9993 10.9874 36.9993H27.1593C27.5521 36.9993 27.9289 36.8433 28.2066 36.5655L32.2759 32.4962C32.5537 32.2185 32.7097 31.8417 32.7097 31.4489V7.37799C32.7097 6.8327 32.2677 6.39062 31.7224 6.39062Z" fill="white" stroke="#848B98" stroke-width="0.75" stroke-miterlimit="10" stroke-linecap="round" stroke-linejoin="round"/>
<path d="M27.5 33C27.2239 33 27 32.7773 27 32.5012C27 30.9285 27 28.5296 27 27.4989C27 27.2228 27.2239 27 27.5 27H29C29.2761 27 29.5 27.2239 29.5 27.5V32.5C29.5 32.7761 29.2761 33 29 33H27.5Z" fill="#848B98" stroke="#848B98" stroke-width="0.75" stroke-miterlimit="10" stroke-linecap="round" stroke-linejoin="round"/>
<path d="M27.5 36.719V32.9874C27.5 32.4421 27.9421 32 28.4874 32H32.219" fill="white"/>
<path d="M27.5 36.719V32.9874C27.5 32.4421 27.9421 32 28.4874 32H32.219" stroke="#848B98" stroke-width="0.75" stroke-miterlimit="10" stroke-linecap="round" stroke-linejoin="round"/>
<path d="M24.3155 10.2777C25.1673 10.8877 25.8325 11.7726 26.1612 12.8523C26.955 15.4608 25.484 18.2189 22.8756 19.0127C20.2672 19.8066 17.5091 18.3356 16.7152 15.7272C15.9213 13.1188 17.3923 10.3606 20.0007 9.56676C20.8527 9.30747 21.7206 9.2898 22.5308 9.47444" fill="white"/>
<path d="M24.3155 10.2777C25.1673 10.8877 25.8325 11.7726 26.1612 12.8523C26.955 15.4608 25.484 18.2189 22.8756 19.0127C20.2672 19.8066 17.5091 18.3356 16.7152 15.7272C15.9213 13.1188 17.3923 10.3606 20.0007 9.56676C20.8527 9.30747 21.7206 9.2898 22.5308 9.47444" stroke="#848B98" stroke-width="0.75" stroke-miterlimit="10" stroke-linecap="round" stroke-linejoin="round"/>
<path d="M21.4375 9.35352V19.2273" stroke="#848B98" stroke-width="0.75" stroke-miterlimit="10" stroke-linecap="round" stroke-linejoin="round"/>
<path d="M21.4375 14.291L24.8933 17.7469" stroke="#848B98" stroke-width="0.75" stroke-miterlimit="10" stroke-linecap="round" stroke-linejoin="round"/>
<path d="M26.3744 14.291H21.4375" stroke="#848B98" stroke-width="0.75" stroke-miterlimit="10" stroke-linecap="round" stroke-linejoin="round"/>
<path d="M13.5 25.2857V24.6428C13.5 24.2878 13.7798 24 14.125 24H15.375C15.7202 24 16 24.2878 16 24.6428V32.3572C16 32.7122 15.7202 33 15.375 33H14.125C13.7798 33 13.5 32.7122 13.5 32.3572V27.8572" fill="white"/>
<path d="M13.5 25.2857V24.6428C13.5 24.2878 13.7798 24 14.125 24H15.375C15.7202 24 16 24.2878 16 24.6428V32.3572C16 32.7122 15.7202 33 15.375 33H14.125C13.7798 33 13.5 32.7122 13.5 32.3572V27.8572" stroke="#848B98" stroke-width="0.75" stroke-miterlimit="10" stroke-linecap="round" stroke-linejoin="round"/>
<path d="M19.875 33H18.625C18.2798 33 18 32.709 18 32.35V27.15C18 26.791 18.2798 26.5 18.625 26.5H19.875C20.2202 26.5 20.5 26.791 20.5 27.15V32.35C20.5 32.709 20.2202 33 19.875 33Z" fill="#848B98" stroke="#848B98" stroke-width="0.75" stroke-miterlimit="10" stroke-linecap="round" stroke-linejoin="round"/>
<path d="M24.375 33H23.125C22.7798 33 22.5 32.7388 22.5 32.4167V23.0833C22.5 22.7612 22.7798 22.5 23.125 22.5H24.375C24.7202 22.5 25 22.7612 25 23.0833V32.4167C25.0001 32.7388 24.7202 33 24.375 33Z" fill="#848B98" stroke="#848B98" stroke-width="0.75" stroke-miterlimit="10" stroke-linecap="round" stroke-linejoin="round"/>
</g>
<defs>
<clipPath id="clip0_22863_61293">
<rect width="40" height="40" fill="white"/>
</clipPath>
</defs>
</svg>
