<svg width="40" height="40" viewBox="0 0 40 40" fill="none" xmlns="http://www.w3.org/2000/svg">
<path d="M35.625 11.5505V8.95901C35.625 8.31181 35.1003 7.78711 34.4531 7.78711H5.5469C4.89968 7.78711 4.375 8.31181 4.375 8.95901V11.5505H35.625Z" fill="#848B98"/>
<path d="M6.96094 9.66208V9.67353C6.96094 9.88928 7.13584 10.0641 7.35154 10.0641C7.56724 10.0641 7.74219 9.88928 7.74219 9.67353V9.66208C7.74219 9.44633 7.56724 9.27148 7.35154 9.27148C7.13584 9.27148 6.96094 9.44633 6.96094 9.66208Z" fill="white"/>
<path d="M8.46875 9.66208V9.67353C8.46875 9.88928 8.64365 10.0641 8.85935 10.0641C9.0751 10.0641 9.25 9.88928 9.25 9.67353V9.66208C9.25 9.44633 9.0751 9.27148 8.85935 9.27148C8.64365 9.27148 8.46875 9.44633 8.46875 9.66208Z" fill="white"/>
<path d="M9.97852 9.66208V9.67353C9.97852 9.88928 10.1535 10.0641 10.3692 10.0641C10.5849 10.0641 10.7598 9.88928 10.7598 9.67353V9.66208C10.7598 9.44633 10.5849 9.27148 10.3692 9.27148C10.1535 9.27148 9.97852 9.44633 9.97852 9.66208Z" fill="white"/>
<path d="M35.6098 12.9227C35.8253 12.9227 36 12.7501 36 12.5372V9.04203C36 8.19172 35.2998 7.5 34.439 7.5H5.561C4.70026 7.5 4 8.19172 4 9.04203V11.5995C4 11.8125 4.17475 11.9851 4.39024 11.9851H35.2196V30.958C35.2196 31.3831 34.8694 31.729 34.439 31.729H5.561C5.13062 31.729 4.78049 31.3831 4.78049 30.958V13.723C4.78049 13.5101 4.60574 13.3375 4.39024 13.3375C4.17475 13.3375 4 13.5101 4 13.723V30.958C4 31.8082 4.70026 32.5 5.561 32.5H34.439C35.2998 32.5 36 31.8082 36 30.958V11.5995C36 11.3866 35.8253 11.2141 35.6098 11.2141H4.78049V9.04203C4.78049 8.61688 5.13062 8.27102 5.561 8.27102H34.439C34.8694 8.27102 35.2196 8.61688 35.2196 9.04203V12.5372C35.2196 12.7501 35.3943 12.9227 35.6098 12.9227Z" fill="#848B98"/>
<path d="M33 17.5V15C33 14.7239 32.7761 14.5 32.5 14.5H28H7.5C7.22386 14.5 7 14.7239 7 15V17.5C7 17.7761 7.22386 18 7.5 18H32.5C32.7761 18 33 17.7761 33 17.5Z" fill="#848B98" stroke="#848B98" stroke-width="0.5" stroke-linecap="round"/>
<rect x="7.25" y="27.25" width="5" height="2.5" rx="1.25" fill="#848B98" stroke="#848B98" stroke-width="0.5" stroke-linejoin="round"/>
<rect x="13.75" y="25.75" width="5.5" height="4" rx="1.25" fill="#848B98" stroke="#848B98" stroke-width="0.5" stroke-linejoin="round"/>
<rect x="20.75" y="23.25" width="5.5" height="6.5" rx="1.25" fill="#848B98" stroke="#848B98" stroke-width="0.5" stroke-linejoin="round"/>
<rect x="27.75" y="20.25" width="5" height="9.5" rx="1.25" fill="#848B98" stroke="#848B98" stroke-width="0.5" stroke-linejoin="round"/>
</svg>
