<svg width="40" height="40" viewBox="0 0 40 40" fill="none" xmlns="http://www.w3.org/2000/svg">
<g clip-path="url(#clip0_22863_61379)">
<mask id="mask0_22863_61379" style="mask-type:luminance" maskUnits="userSpaceOnUse" x="0" y="0" width="40" height="40">
<path d="M40 0H0V40H40V0Z" fill="white"/>
</mask>
<g mask="url(#mask0_22863_61379)">
<path d="M35.9693 24.7963C35.0022 24.5581 33.9679 24.3461 32.8808 24.1615C33.274 22.5705 33.4785 20.888 33.4785 19.1638C33.4785 17.4397 33.274 15.7573 32.8808 14.1662C33.9678 13.9816 35.0021 13.7696 35.9693 13.5314C36.1788 13.4798 36.3068 13.2682 36.2552 13.0588C36.2036 12.8493 35.9922 12.7211 35.7825 12.7729C34.8115 13.012 33.7715 13.2245 32.6772 13.4087C32.0958 11.4073 31.2083 9.56952 30.0462 8.00162C29.969 7.89742 29.8907 7.79517 29.8116 7.69422C30.3179 7.59977 30.8046 7.49642 31.2673 7.38397C31.477 7.33312 31.6057 7.12187 31.5547 6.91217C31.5038 6.70257 31.2926 6.57377 31.0829 6.62482C30.5029 6.76572 29.8845 6.89232 29.2352 7.00422C27.1088 4.61672 24.4479 3.31641 21.6314 3.31641C18.8149 3.31641 16.1539 4.61672 14.0275 7.00422C13.3783 6.89232 12.7599 6.76572 12.1798 6.62482C11.9701 6.57377 11.759 6.70267 11.708 6.91217C11.6571 7.12187 11.7857 7.33312 11.9954 7.38397C12.4583 7.49642 12.9449 7.59977 13.4511 7.69422C13.3722 7.79517 13.2938 7.89742 13.2165 8.00162C12.0544 9.56952 11.1669 11.4073 10.5856 13.4087C9.4911 13.2244 8.4512 13.012 7.48025 12.7729C7.2707 12.7213 7.05915 12.8493 7.0075 13.0588C6.95595 13.2682 7.08395 13.4798 7.2934 13.5314C8.26055 13.7696 9.29495 13.9816 10.3819 14.1662C9.98875 15.7572 9.78425 17.4397 9.78425 19.1638C9.78425 20.888 9.98875 22.5705 10.3819 24.1615C9.29495 24.3461 8.26055 24.5581 7.2934 24.7963C7.08395 24.8478 6.95595 25.0595 7.0075 25.2689C7.05915 25.4784 7.2707 25.607 7.48025 25.5548C8.4512 25.3156 9.4912 25.1032 10.5856 24.9189C11.1669 26.9203 12.0544 28.758 13.2165 30.3259C13.2938 30.4302 13.3721 30.5324 13.4511 30.6334C12.9449 30.7278 12.4582 30.8312 11.9954 30.9436C11.7857 30.9945 11.6571 31.2057 11.708 31.4154C11.7589 31.625 11.9701 31.7535 12.1798 31.7027C12.7598 31.5619 13.3783 31.4352 14.0275 31.3234C16.154 33.7109 18.8149 35.0112 21.6314 35.0112C24.4479 35.0112 27.1089 33.7109 29.2352 31.3234C29.8845 31.4352 30.5029 31.5619 31.0829 31.7027C31.1139 31.7103 31.1449 31.7139 31.1754 31.7139C31.3515 31.7139 31.5113 31.5941 31.5547 31.4155C31.6057 31.2058 31.477 30.9945 31.2673 30.9437C30.8045 30.8313 30.3179 30.7279 29.8116 30.6334C29.8906 30.5325 29.969 30.4302 30.0462 30.326C31.2083 28.7581 32.0958 26.9203 32.6772 24.919C33.7716 25.1033 34.8115 25.3157 35.7825 25.5548C35.8139 25.5627 35.8453 25.5663 35.8762 25.5663C36.0518 25.5663 36.2114 25.4471 36.2552 25.2689C36.3068 25.0595 36.1789 24.8478 35.9693 24.7963ZM32.6973 19.1638C32.6973 20.8679 32.4881 22.5067 32.1033 24.0355C30.335 23.7625 28.4407 23.5598 26.4742 23.4336C26.5907 22.0613 26.6511 20.6277 26.6511 19.1638C26.6511 17.6998 26.5907 16.2663 26.4742 14.894C28.4406 14.7678 30.3349 14.5651 32.1033 14.292C32.4881 15.8208 32.6973 17.4596 32.6973 19.1638ZM24.5176 30.0232C23.5747 29.9711 22.6083 29.9442 21.6315 29.9442C20.6546 29.9442 19.6883 29.9711 18.7453 30.0232C18.741 30.0091 18.7367 29.9954 18.7324 29.9813C18.2339 28.3167 17.865 26.3328 17.6418 24.1663C18.9484 24.0972 20.2835 24.0615 21.6315 24.0615C22.9794 24.0615 24.3145 24.0972 25.6211 24.1663C25.3979 26.3328 25.029 28.3167 24.5305 29.9813C24.5262 29.9954 24.5218 30.0091 24.5176 30.0232ZM21.6314 34.2299C20.7211 34.2299 19.759 32.9606 18.9959 30.7921C19.8583 30.7482 20.7401 30.7256 21.6314 30.7256C22.5226 30.7256 23.4044 30.7482 24.2668 30.7921C23.5039 32.9606 22.5417 34.2299 21.6314 34.2299ZM21.6314 23.2802C20.259 23.2802 18.8994 23.3169 17.5686 23.388C17.4529 22.0322 17.3929 20.6138 17.3929 19.1637C17.3929 17.7136 17.4529 16.2952 17.5686 14.9395C18.8994 15.0106 20.259 15.0473 21.6314 15.0473C23.0037 15.0473 24.3633 15.0106 25.6942 14.9395C25.8098 16.2952 25.8698 17.7136 25.8698 19.1637C25.8698 20.6138 25.8098 22.0321 25.6942 23.388C24.3634 23.3169 23.0038 23.2802 21.6314 23.2802ZM18.7452 8.30437C19.6882 8.35647 20.6545 8.38337 21.6314 8.38337C22.6083 8.38337 23.5746 8.35647 24.5175 8.30437C24.5218 8.31852 24.5261 8.33217 24.5304 8.34632C25.029 10.0109 25.3979 11.9948 25.621 14.1613C24.3143 14.2304 22.9793 14.2662 21.6314 14.2662C20.2834 14.2662 18.9484 14.2305 17.6418 14.1613C17.8649 11.9948 18.2338 10.0109 18.7323 8.34632C18.7366 8.33217 18.741 8.31842 18.7452 8.30437ZM21.6314 4.09766C22.5416 4.09766 23.5038 5.36697 24.2668 7.53547C23.4044 7.57937 22.5226 7.60202 21.6314 7.60202C20.7401 7.60202 19.8583 7.57937 18.9959 7.53547C19.759 5.36697 20.7211 4.09766 21.6314 4.09766ZM31.8952 13.5339C30.1686 13.7976 28.3201 13.9934 26.4014 14.1159C26.1791 11.9423 25.8123 9.94452 25.3173 8.25367C26.5822 8.16322 27.7965 8.02642 28.9277 7.84662C30.2172 9.38967 31.2417 11.3335 31.8952 13.5339ZM28.3025 7.15147C27.2829 7.29877 26.2001 7.41157 25.0773 7.48742C24.6021 6.07142 24.0548 5.00312 23.4506 4.30235C25.251 4.70953 26.9058 5.71002 28.3025 7.15147ZM19.8122 4.30242C19.2081 5.00322 18.6608 6.07142 18.1855 7.48752C17.0627 7.41162 15.9799 7.29882 14.9603 7.15157C16.3571 5.71002 18.0118 4.70953 19.8122 4.30242ZM14.3351 7.84672C15.4663 8.02647 16.6807 8.16327 17.9455 8.25377C17.4505 9.94462 17.0837 11.9423 16.8615 14.1159C14.9428 13.9935 13.0943 13.7977 11.3676 13.534C12.0211 11.3335 13.0456 9.38967 14.3351 7.84672ZM10.5655 19.1638C10.5655 17.4596 10.7747 15.8208 11.1595 14.292C12.9279 14.565 14.8222 14.7677 16.7886 14.894C16.6722 16.2663 16.6117 17.6998 16.6117 19.1638C16.6117 20.6277 16.6722 22.0613 16.7886 23.4336C14.8222 23.5598 12.9279 23.7625 11.1595 24.0355C10.7747 22.5067 10.5655 20.8679 10.5655 19.1638ZM11.3677 24.7936C13.0943 24.5299 14.9428 24.3341 16.8615 24.2116C17.0837 26.3852 17.4505 28.383 17.9455 30.0738C16.6807 30.1643 15.4663 30.3011 14.3351 30.4809C13.0456 28.9379 12.0211 26.9941 11.3677 24.7936ZM14.9603 31.1761C15.9799 31.0288 17.0627 30.916 18.1855 30.8402C18.6607 32.2562 19.208 33.3245 19.8122 34.0252C18.0118 33.618 16.3571 32.6175 14.9603 31.1761ZM23.4506 34.0252C24.0547 33.3244 24.6021 32.2561 25.0773 30.8401C26.2001 30.9159 27.2829 31.0288 28.3025 31.176C26.9058 32.6175 25.251 33.618 23.4506 34.0252ZM28.9277 30.4809C27.7965 30.3011 26.5822 30.1643 25.3173 30.0738C25.8123 28.383 26.1791 26.3852 26.4014 24.2116C28.3201 24.3341 30.1686 24.5299 31.8951 24.7936C31.2417 26.9941 30.2172 28.9379 28.9277 30.4809Z" fill="#848B98"/>
<path d="M28.4197 25.416L22.7134 11.3147C22.5189 10.8342 22.0523 10.5195 21.5338 10.5195C21.0154 10.5195 20.5488 10.8342 20.3543 11.3147L14.648 25.416C14.3843 26.0674 14.6987 26.8092 15.3501 27.0729C16.0012 27.3365 16.7434 27.0221 17.007 26.3707L18.3474 23.0586H24.7202L26.0605 26.3707C26.2609 26.8658 26.7373 27.1662 27.2406 27.1662C27.3994 27.1662 27.5611 27.1362 27.7174 27.073C28.3689 26.8092 28.6832 26.0674 28.4197 25.416ZM19.3773 20.5135L21.5338 15.1842L23.6904 20.5135H19.3773Z" fill="white"/>
<path d="M15.1563 26.7314C15.3735 26.8194 15.6012 26.8634 15.8289 26.8633C16.0661 26.8633 16.3032 26.8157 16.5283 26.7203C16.9692 26.5334 17.311 26.186 17.4906 25.7422L18.6995 22.7551H24.371L25.5797 25.7422C25.8552 26.4228 26.5077 26.8627 27.242 26.8627C27.4727 26.8627 27.6988 26.8186 27.914 26.7315C28.3579 26.5519 28.7052 26.2102 28.8921 25.7692C29.0789 25.3284 29.0829 24.8412 28.9032 24.3973L23.197 10.2959C22.9215 9.61543 22.2692 9.17578 21.5351 9.17578C20.801 9.17578 20.1488 9.61543 19.8734 10.296L14.167 24.3973C13.9874 24.8412 13.9914 25.3284 14.1782 25.7694C14.3649 26.2103 14.7125 26.5518 15.1563 26.7314ZM15.1315 24.7875L20.8378 10.6862C20.9534 10.4006 21.2271 10.2162 21.5351 10.2162C21.8432 10.2162 22.1169 10.4007 22.2325 10.6862L27.9387 24.7875C28.0141 24.9739 28.0124 25.1783 27.9341 25.3633C27.8557 25.5483 27.7099 25.6916 27.5236 25.7671C27.433 25.8037 27.3382 25.8223 27.2419 25.8223C26.9337 25.8223 26.6598 25.6376 26.5441 25.3519L25.2038 22.0398C25.1243 21.8433 24.9335 21.7147 24.7216 21.7147H18.3488C18.1368 21.7147 17.946 21.8433 17.8665 22.0398L16.5262 25.3519C16.4507 25.5382 16.3073 25.6839 16.1223 25.7624C15.9373 25.8407 15.7329 25.8425 15.5466 25.7671C15.3604 25.6917 15.2146 25.5484 15.1362 25.3634C15.0578 25.1783 15.0562 24.9739 15.1315 24.7875Z" fill="#848B98"/>
<path d="M19.3796 20.2105H23.6927C23.8657 20.2105 24.0274 20.1245 24.1241 19.9811C24.2207 19.8376 24.2399 19.6556 24.175 19.4952L22.0184 14.1659C21.9389 13.9694 21.7481 13.8408 21.5362 13.8408C21.3242 13.8408 21.1334 13.9694 21.0539 14.1659L18.8974 19.4952C18.8325 19.6556 18.8516 19.8377 18.9482 19.9811C19.0449 20.1245 19.2066 20.2105 19.3796 20.2105ZM21.5362 15.7478L22.9211 19.1701H20.1513L21.5362 15.7478Z" fill="#848B98"/>
<path d="M17.4846 36.0588H5.44141C5.00991 36.0588 4.66016 35.7091 4.66016 35.2776V23.2344C4.66016 22.8029 5.00991 22.4531 5.44141 22.4531H17.4846C17.9161 22.4531 18.2659 22.8029 18.2659 23.2344V35.2776C18.2659 35.7091 17.9161 36.0588 17.4846 36.0588Z" fill="#848B98"/>
<path d="M21.6318 3.31641C25.2198 3.31641 28.6035 4.48563 31.417 6.6976C35.2697 9.72525 37.4795 14.2692 37.4795 19.164C37.4795 24.0589 35.2697 28.6027 31.4169 31.6306C28.6033 33.8424 25.2196 35.0117 21.6317 35.0117C20.6313 35.0117 19.632 34.9167 18.6565 34.7316V35.2778C18.6565 35.924 18.1308 36.4497 17.4846 36.4497H14.863C14.6473 36.4497 14.4724 36.2749 14.4724 36.0591C14.4724 35.8433 14.6473 35.6684 14.863 35.6684H17.4846C17.7 35.6684 17.8753 35.4932 17.8753 35.2778V23.2346C17.8753 23.0192 17.7 22.8439 17.4846 22.8439H5.44141C5.22601 22.8439 5.05081 23.0192 5.05081 23.2346V35.2778C5.05081 35.4932 5.22601 35.6684 5.44141 35.6684H12.6123C12.828 35.6684 13.0029 35.8433 13.0029 36.0591C13.0029 36.2749 12.828 36.4497 12.6123 36.4497H5.44141C4.79524 36.4497 4.26953 35.924 4.26953 35.2778V23.2346C4.26953 22.5884 4.79524 22.0627 5.44141 22.0627H17.4846C18.1308 22.0627 18.6565 22.5884 18.6565 23.2346L18.6564 33.9359C19.6299 34.1307 20.6302 34.2305 21.6317 34.2305C25.0428 34.2305 28.2595 33.119 30.934 31.0164C34.5971 28.1375 36.6981 23.8175 36.6981 19.164C36.6981 14.5104 34.5972 10.1905 30.9341 7.3118C28.2595 5.20905 25.0428 4.09758 21.6317 4.09758C18.2205 4.09758 15.0038 5.20905 12.3293 7.3117C8.66616 10.1905 6.56526 14.5104 6.56526 19.164C6.56526 19.5321 6.58031 19.9185 6.61001 20.3128C6.62626 20.528 6.46491 20.7155 6.24986 20.7317C6.03416 20.7469 5.84721 20.5866 5.83101 20.3716C5.79986 19.9578 5.78406 19.5516 5.78406 19.164C5.78406 14.2692 7.99381 9.7253 11.8467 6.6975C14.6601 4.48563 18.0438 3.31641 21.6318 3.31641Z" fill="#848B98"/>
<path d="M15.7623 32.8394C14.4666 32.2688 13.4666 31.5909 12.6946 30.8951C13.2287 30.245 13.616 29.6144 13.8944 29.0609C14.373 28.1091 14.5996 27.2615 14.7069 26.6833H15.4156C15.8764 26.6833 16.2498 26.3233 16.2498 25.8793C16.2498 25.4352 15.8763 25.0753 15.4156 25.0753H12.1436V24.554C12.1436 24.1099 11.7701 23.75 11.3094 23.75C10.8487 23.75 10.4752 24.11 10.4752 24.554V25.0753H7.70944C7.24869 25.0753 6.87529 25.4353 6.87529 25.8793C6.87529 26.3233 7.24879 26.6833 7.70944 26.6833H13.0052C12.8986 27.1411 12.7057 27.7538 12.3569 28.4306C12.1308 28.8692 11.8655 29.2847 11.5648 29.6786C11.1746 29.1716 10.8874 28.6831 10.6775 28.2493C10.4828 27.8469 9.98639 27.6729 9.56894 27.8604C9.15139 28.0481 8.97074 28.5264 9.16544 28.9289C9.45274 29.5227 9.86029 30.2025 10.4342 30.9006C9.58704 31.6626 8.56194 32.3113 7.36269 32.8395C6.94369 33.0241 6.75919 33.5011 6.95064 33.905C7.09079 34.2005 7.39339 34.375 7.70994 34.375C7.82584 34.375 7.94369 34.3516 8.05609 34.3021C9.52929 33.6533 10.6738 32.8764 11.5623 32.077C12.4527 32.8781 13.5971 33.6539 15.0688 34.3021C15.1812 34.3516 15.299 34.375 15.4149 34.375C15.7314 34.375 16.0341 34.2005 16.1742 33.905C16.3658 33.501 16.1814 33.024 15.7623 32.8394Z" fill="white"/>
</g>
</g>
<defs>
<clipPath id="clip0_22863_61379">
<rect width="40" height="40" fill="white"/>
</clipPath>
</defs>
</svg>
