<svg width="40" height="40" viewBox="0 0 40 40" fill="none" xmlns="http://www.w3.org/2000/svg">
<g clip-path="url(#clip0_22863_61362)">
<mask id="mask0_22863_61362" style="mask-type:luminance" maskUnits="userSpaceOnUse" x="0" y="0" width="40" height="40">
<path d="M40 0H0V40H40V0Z" fill="white"/>
</mask>
<g mask="url(#mask0_22863_61362)">
<path d="M33.8645 18.4793V33.0317C33.8645 33.7699 33.266 34.3684 32.5278 34.3684H17.9754C17.2371 34.3684 16.6387 33.7699 16.6387 33.0317V18.4793C16.6387 17.741 17.2371 17.1426 17.9754 17.1426H32.5278C33.266 17.1426 33.8645 17.741 33.8645 18.4793Z" fill="#848B98"/>
<path d="M18.8766 20.3275C19.3112 20.3275 19.6634 19.9752 19.6634 19.5407C19.6634 19.1062 19.3112 18.7539 18.8766 18.7539C18.4421 18.7539 18.0898 19.1062 18.0898 19.5407C18.0898 19.9752 18.4421 20.3275 18.8766 20.3275Z" fill="white"/>
<path d="M31.6286 20.3275C32.0631 20.3275 32.4154 19.9752 32.4154 19.5407C32.4154 19.1062 32.0631 18.7539 31.6286 18.7539C31.1941 18.7539 30.8418 19.1062 30.8418 19.5407C30.8418 19.9752 31.1941 20.3275 31.6286 20.3275Z" fill="#848B98"/>
<path d="M30.2433 29.8985C28.7741 29.2272 27.6402 28.4296 26.7648 27.611C27.3704 26.8463 27.8096 26.1044 28.1252 25.4531C28.668 24.3334 28.9248 23.3362 29.0466 22.656H29.8502C30.3726 22.656 30.796 22.2325 30.796 21.7102C30.796 21.1877 30.3725 20.7643 29.8502 20.7643H26.14V20.1509C26.14 19.6285 25.7165 19.2051 25.1941 19.2051C24.6717 19.2051 24.2483 19.6286 24.2483 20.1509V20.7643H21.1122C20.5898 20.7643 20.1663 21.1878 20.1663 21.7102C20.1663 22.2326 20.5898 22.656 21.1122 22.656H27.117C26.9961 23.1946 26.7773 23.9155 26.3819 24.7116C26.1255 25.2277 25.8247 25.7165 25.4837 26.1799C25.0412 25.5834 24.7156 25.0087 24.4777 24.4984C24.2569 24.0249 23.694 23.8202 23.2206 24.0409C22.7472 24.2616 22.5423 24.8244 22.7631 25.2979C23.0889 25.9965 23.551 26.7962 24.2018 27.6175C23.2412 28.514 22.0788 29.2772 20.719 29.8986C20.2439 30.1157 20.0347 30.677 20.2518 31.1521C20.4107 31.4998 20.7538 31.7051 21.1127 31.7051C21.2441 31.7051 21.3778 31.6775 21.5052 31.6193C23.1757 30.856 24.4734 29.942 25.4809 29.0015C26.4905 29.944 27.7881 30.8567 29.4569 31.6193C29.5843 31.6775 29.7179 31.7051 29.8494 31.7051C30.2082 31.7051 30.5514 31.4998 30.7103 31.1521C30.9276 30.6769 30.7184 30.1156 30.2433 29.8985Z" fill="white"/>
<path d="M21.5142 22.8174H6.9615C6.22335 22.8174 5.625 22.219 5.625 21.4809V6.9283C5.625 6.19015 6.22335 5.5918 6.9615 5.5918H21.5142C22.2523 5.5918 22.8507 6.19015 22.8507 6.9283V21.4809C22.8507 22.219 22.2523 22.8174 21.5142 22.8174Z" fill="white"/>
<path d="M32.5278 16.7517H32.3685C31.7946 14.5666 30.6477 12.5685 29.036 10.9578C27.4246 9.34737 25.4264 8.20152 23.2413 7.62867V6.92832C23.2413 5.97597 22.4665 5.20117 21.5142 5.20117H6.96152C6.00917 5.20117 5.23438 5.97597 5.23438 6.92832V21.481C5.23438 22.4333 6.00917 23.2081 6.96152 23.2081H7.61993C8.73298 27.506 12.0005 30.9211 16.2481 32.225V33.0315C16.2481 33.9839 17.0228 34.7586 17.9752 34.7586H32.5278C33.4801 34.7586 34.2549 33.9839 34.2549 33.0315V18.4789C34.2549 17.5265 33.4801 16.7517 32.5278 16.7517ZM31.5593 16.7517H29.4131C28.4154 13.8649 26.1334 11.5827 23.2413 10.5842V8.43782C27.24 9.56317 30.4321 12.7536 31.5593 16.7517ZM6.01562 21.481V6.92832C6.01562 6.40672 6.43992 5.98242 6.96152 5.98242H21.5141C22.0356 5.98242 22.4599 6.40672 22.4599 6.92832V21.481C22.4599 22.0025 22.0356 22.4268 21.5141 22.4268H6.96152C6.43992 22.4268 6.01562 22.0025 6.01562 21.481ZM8.42833 23.2081H16.248V28.3714C14.5024 27.5858 13.0278 26.2622 12.0583 24.5937C11.9499 24.4071 11.7109 24.3439 11.5243 24.4522C11.3378 24.5606 11.2745 24.7997 11.3828 24.9862C12.4931 26.897 14.2143 28.3911 16.2481 29.2212V31.4056C12.4359 30.1514 9.49938 27.074 8.42833 23.2081ZM33.4737 33.0315C33.4737 33.5531 33.0494 33.9774 32.5278 33.9774H17.9752C17.4536 33.9774 17.0293 33.5531 17.0293 33.0315V23.2081H21.5142C22.4665 23.2081 23.2413 22.4333 23.2413 21.481V11.4149C25.7011 12.3464 27.651 14.2962 28.5822 16.7517H23.2413C23.0256 16.7517 22.8507 16.9266 22.8507 17.1423C22.8507 17.358 23.0256 17.5329 23.2413 17.5329H32.5278C33.0494 17.5329 33.4737 17.9572 33.4737 18.4788V33.0315Z" fill="#848B98"/>
<path d="M19.4093 19.1409L15.1245 8.55218C14.9784 8.19133 14.628 7.95508 14.2387 7.95508C13.8494 7.95508 13.499 8.19133 13.353 8.55218L9.06808 19.1409C8.87013 19.6301 9.10618 20.1871 9.59533 20.3851C10.0842 20.583 10.6415 20.3469 10.8395 19.8578L11.846 17.3707H16.6314L17.6378 19.8578C17.7883 20.2296 18.146 20.4551 18.5239 20.4551C18.6432 20.4551 18.7646 20.4326 18.882 20.3852C19.3712 20.1871 19.6072 19.6301 19.4093 19.1409ZM12.6193 15.4596L14.2387 11.4578L15.8581 15.4596H12.6193Z" fill="white"/>
<path d="M9.44734 20.7472C9.61044 20.8132 9.78149 20.8463 9.95239 20.8462C10.1305 20.8462 10.3086 20.8104 10.4776 20.7388C10.8086 20.5985 11.0653 20.3376 11.2002 20.0043L12.1079 17.7613H16.3667L17.2743 20.0043C17.4812 20.5154 17.9711 20.8457 18.5226 20.8457C18.6958 20.8457 18.8656 20.8126 19.0272 20.7472C19.3605 20.6124 19.6213 20.3557 19.7616 20.0247C19.9019 19.6936 19.9049 19.3278 19.77 18.9944L15.4851 8.40555C15.2783 7.89465 14.7885 7.56445 14.2372 7.56445C13.686 7.56445 13.1962 7.89465 12.9894 8.40565L8.70454 18.9944C8.56959 19.3278 8.57264 19.6936 8.71289 20.0247C8.85309 20.3558 9.11414 20.6123 9.44734 20.7472ZM9.42874 19.2875L13.7136 8.6987C13.8004 8.48425 14.0059 8.3457 14.2372 8.3457C14.4686 8.3457 14.6741 8.4843 14.7609 8.6987L19.0458 19.2875C19.1023 19.4274 19.1011 19.5809 19.0422 19.7198C18.9834 19.8587 18.874 19.9664 18.734 20.023C18.666 20.0505 18.5948 20.0645 18.5225 20.0645C18.2911 20.0645 18.0854 19.9258 17.9985 19.7113L16.9921 17.2242C16.9324 17.0766 16.7891 16.98 16.63 16.98H11.8446C11.6854 16.98 11.5422 17.0766 11.4825 17.2242L10.476 19.7113C10.4193 19.8511 10.3116 19.9606 10.1727 20.0195C10.0338 20.0783 9.88029 20.0797 9.74044 20.023C9.60059 19.9665 9.49114 19.8588 9.43224 19.7199C9.37344 19.5809 9.37219 19.4274 9.42874 19.2875Z" fill="#848B98"/>
<path d="M12.6192 15.8504H15.8579C15.9878 15.8504 16.1092 15.7858 16.1818 15.6782C16.2544 15.5704 16.2688 15.4337 16.22 15.3133L14.6006 11.3115C14.541 11.1639 14.3977 11.0674 14.2385 11.0674C14.0794 11.0674 13.9361 11.1639 13.8764 11.3115L12.257 15.3133C12.2083 15.4337 12.2227 15.5705 12.2953 15.6782C12.3678 15.7858 12.4892 15.8504 12.6192 15.8504ZM14.2385 12.4993L15.2785 15.0692H13.1986L14.2385 12.4993Z" fill="#848B98"/>
<path d="M7.86102 8.74157C8.29557 8.74157 8.64782 8.38932 8.64782 7.95477C8.64782 7.52022 8.29557 7.16797 7.86102 7.16797C7.42652 7.16797 7.07422 7.52022 7.07422 7.95477C7.07422 8.38932 7.42652 8.74157 7.86102 8.74157Z" fill="#848B98"/>
<path d="M20.6149 8.74157C21.0495 8.74157 21.4017 8.38932 21.4017 7.95477C21.4017 7.52022 21.0495 7.16797 20.6149 7.16797C20.1804 7.16797 19.8281 7.52022 19.8281 7.95477C19.8281 8.38932 20.1804 8.74157 20.6149 8.74157Z" fill="#848B98"/>
</g>
</g>
<defs>
<clipPath id="clip0_22863_61362">
<rect width="40" height="40" fill="white"/>
</clipPath>
</defs>
</svg>
